G04 #@! TF.GenerationSoftware,KiCad,Pcbnew,5.1.5+dfsg1-2~bpo10+1*
G04 #@! TF.CreationDate,2020-02-19T21:48:08+01:00*
G04 #@! TF.ProjectId,zglue-gem1-adapter,7a676c75-652d-4676-956d-312d61646170,rev?*
G04 #@! TF.SameCoordinates,Original*
G04 #@! TF.FileFunction,Soldermask,Top*
G04 #@! TF.FilePolarity,Negative*
%FSLAX46Y46*%
G04 Gerber Fmt 4.6, Leading zero omitted, Abs format (unit mm)*
G04 Created by KiCad (PCBNEW 5.1.5+dfsg1-2~bpo10+1) date 2020-02-19 21:48:08*
%MOMM*%
%LPD*%
G04 APERTURE LIST*
%ADD10C,0.100000*%
G04 APERTURE END LIST*
D10*
G36*
X10836824Y-18787080D02*
G01*
X10864545Y-18795490D01*
X10890089Y-18809144D01*
X10912480Y-18827520D01*
X10930855Y-18849909D01*
X10938637Y-18864469D01*
X10944083Y-18872619D01*
X10951013Y-18879549D01*
X10954028Y-18881563D01*
X10952509Y-18889199D01*
X10952509Y-18899000D01*
X10956000Y-18934453D01*
X10956000Y-19375547D01*
X10952920Y-19406824D01*
X10944510Y-19434545D01*
X10930856Y-19460089D01*
X10912480Y-19482480D01*
X10890089Y-19500856D01*
X10864545Y-19514510D01*
X10836824Y-19522920D01*
X10805547Y-19526000D01*
X10414453Y-19526000D01*
X10383176Y-19522920D01*
X10355455Y-19514510D01*
X10329911Y-19500856D01*
X10307520Y-19482480D01*
X10289144Y-19460089D01*
X10275490Y-19434545D01*
X10267080Y-19406824D01*
X10264000Y-19375547D01*
X10264000Y-18934453D01*
X10267080Y-18903176D01*
X10275490Y-18875455D01*
X10289144Y-18849911D01*
X10307520Y-18827520D01*
X10329911Y-18809144D01*
X10355455Y-18795490D01*
X10383176Y-18787080D01*
X10414453Y-18784000D01*
X10805547Y-18784000D01*
X10836824Y-18787080D01*
G37*
G36*
X9866824Y-18787080D02*
G01*
X9894545Y-18795490D01*
X9920089Y-18809144D01*
X9942480Y-18827520D01*
X9960856Y-18849911D01*
X9974510Y-18875455D01*
X9982920Y-18903176D01*
X9986000Y-18934453D01*
X9986000Y-19375547D01*
X9982920Y-19406824D01*
X9974510Y-19434545D01*
X9960856Y-19460089D01*
X9942480Y-19482480D01*
X9920089Y-19500856D01*
X9894545Y-19514510D01*
X9866824Y-19522920D01*
X9835547Y-19526000D01*
X9444453Y-19526000D01*
X9413176Y-19522920D01*
X9385455Y-19514510D01*
X9359911Y-19500856D01*
X9337520Y-19482480D01*
X9319144Y-19460089D01*
X9305490Y-19434545D01*
X9297080Y-19406824D01*
X9294000Y-19375547D01*
X9294000Y-18934453D01*
X9297080Y-18903176D01*
X9305490Y-18875455D01*
X9319144Y-18849911D01*
X9337520Y-18827520D01*
X9359911Y-18809144D01*
X9385455Y-18795490D01*
X9413176Y-18787080D01*
X9444453Y-18784000D01*
X9835547Y-18784000D01*
X9866824Y-18787080D01*
G37*
G36*
X16890719Y-18140974D02*
G01*
X16890722Y-18140975D01*
X16890721Y-18140975D01*
X16990996Y-18182510D01*
X17081242Y-18242810D01*
X17157990Y-18319558D01*
X17218290Y-18409804D01*
X17241703Y-18466329D01*
X17259826Y-18510081D01*
X17281000Y-18616530D01*
X17281000Y-18725070D01*
X17259826Y-18831519D01*
X17252208Y-18849911D01*
X17218290Y-18931796D01*
X17157990Y-19022042D01*
X17081242Y-19098790D01*
X16990996Y-19159090D01*
X16920090Y-19188460D01*
X16890719Y-19200626D01*
X16784270Y-19221800D01*
X16675730Y-19221800D01*
X16569281Y-19200626D01*
X16539910Y-19188460D01*
X16469004Y-19159090D01*
X16378758Y-19098790D01*
X16302010Y-19022042D01*
X16241710Y-18931796D01*
X16207792Y-18849911D01*
X16200174Y-18831519D01*
X16179000Y-18725070D01*
X16179000Y-18616530D01*
X16200174Y-18510081D01*
X16218297Y-18466329D01*
X16241710Y-18409804D01*
X16302010Y-18319558D01*
X16378758Y-18242810D01*
X16469004Y-18182510D01*
X16569279Y-18140975D01*
X16569278Y-18140975D01*
X16569281Y-18140974D01*
X16675730Y-18119800D01*
X16784270Y-18119800D01*
X16890719Y-18140974D01*
G37*
G36*
X18230719Y-18140974D02*
G01*
X18230722Y-18140975D01*
X18230721Y-18140975D01*
X18330996Y-18182510D01*
X18421242Y-18242810D01*
X18497990Y-18319558D01*
X18558290Y-18409804D01*
X18581703Y-18466329D01*
X18599826Y-18510081D01*
X18621000Y-18616530D01*
X18621000Y-18725070D01*
X18599826Y-18831519D01*
X18592208Y-18849911D01*
X18558290Y-18931796D01*
X18497990Y-19022042D01*
X18421242Y-19098790D01*
X18330996Y-19159090D01*
X18260090Y-19188460D01*
X18230719Y-19200626D01*
X18124270Y-19221800D01*
X18015730Y-19221800D01*
X17909281Y-19200626D01*
X17879910Y-19188460D01*
X17809004Y-19159090D01*
X17718758Y-19098790D01*
X17642010Y-19022042D01*
X17581710Y-18931796D01*
X17547792Y-18849911D01*
X17540174Y-18831519D01*
X17519000Y-18725070D01*
X17519000Y-18616530D01*
X17540174Y-18510081D01*
X17558297Y-18466329D01*
X17581710Y-18409804D01*
X17642010Y-18319558D01*
X17718758Y-18242810D01*
X17809004Y-18182510D01*
X17909279Y-18140975D01*
X17909278Y-18140975D01*
X17909281Y-18140974D01*
X18015730Y-18119800D01*
X18124270Y-18119800D01*
X18230719Y-18140974D01*
G37*
G36*
X15590719Y-18140974D02*
G01*
X15590722Y-18140975D01*
X15590721Y-18140975D01*
X15690996Y-18182510D01*
X15781242Y-18242810D01*
X15857990Y-18319558D01*
X15918290Y-18409804D01*
X15941703Y-18466329D01*
X15959826Y-18510081D01*
X15981000Y-18616530D01*
X15981000Y-18725070D01*
X15959826Y-18831519D01*
X15952208Y-18849911D01*
X15918290Y-18931796D01*
X15857990Y-19022042D01*
X15781242Y-19098790D01*
X15690996Y-19159090D01*
X15620090Y-19188460D01*
X15590719Y-19200626D01*
X15484270Y-19221800D01*
X15375730Y-19221800D01*
X15269281Y-19200626D01*
X15239910Y-19188460D01*
X15169004Y-19159090D01*
X15078758Y-19098790D01*
X15002010Y-19022042D01*
X14941710Y-18931796D01*
X14907792Y-18849911D01*
X14900174Y-18831519D01*
X14879000Y-18725070D01*
X14879000Y-18616530D01*
X14900174Y-18510081D01*
X14918297Y-18466329D01*
X14941710Y-18409804D01*
X15002010Y-18319558D01*
X15078758Y-18242810D01*
X15169004Y-18182510D01*
X15269279Y-18140975D01*
X15269278Y-18140975D01*
X15269281Y-18140974D01*
X15375730Y-18119800D01*
X15484270Y-18119800D01*
X15590719Y-18140974D01*
G37*
G36*
X14300719Y-18130974D02*
G01*
X14324861Y-18140974D01*
X14400996Y-18172510D01*
X14491242Y-18232810D01*
X14567990Y-18309558D01*
X14628290Y-18399804D01*
X14642680Y-18434545D01*
X14669826Y-18500081D01*
X14691000Y-18606530D01*
X14691000Y-18715070D01*
X14669826Y-18821519D01*
X14669825Y-18821521D01*
X14628290Y-18921796D01*
X14567990Y-19012042D01*
X14491242Y-19088790D01*
X14400996Y-19149090D01*
X14330090Y-19178460D01*
X14300719Y-19190626D01*
X14194270Y-19211800D01*
X14085730Y-19211800D01*
X13979281Y-19190626D01*
X13949910Y-19178460D01*
X13879004Y-19149090D01*
X13788758Y-19088790D01*
X13712010Y-19012042D01*
X13651710Y-18921796D01*
X13610175Y-18821521D01*
X13610174Y-18821519D01*
X13589000Y-18715070D01*
X13589000Y-18606530D01*
X13610174Y-18500081D01*
X13637320Y-18434545D01*
X13651710Y-18399804D01*
X13712010Y-18309558D01*
X13788758Y-18232810D01*
X13879004Y-18172510D01*
X13955139Y-18140974D01*
X13979281Y-18130974D01*
X14085730Y-18109800D01*
X14194270Y-18109800D01*
X14300719Y-18130974D01*
G37*
G36*
X11651824Y-17292080D02*
G01*
X11679545Y-17300490D01*
X11705089Y-17314144D01*
X11727480Y-17332520D01*
X11745856Y-17354911D01*
X11759510Y-17380455D01*
X11767920Y-17408176D01*
X11771000Y-17439453D01*
X11771000Y-17830547D01*
X11767920Y-17861824D01*
X11759510Y-17889545D01*
X11745856Y-17915089D01*
X11727480Y-17937480D01*
X11705089Y-17955856D01*
X11679545Y-17969510D01*
X11651824Y-17977920D01*
X11620547Y-17981000D01*
X11179453Y-17981000D01*
X11148176Y-17977920D01*
X11120455Y-17969510D01*
X11094911Y-17955856D01*
X11072520Y-17937480D01*
X11054142Y-17915087D01*
X11049982Y-17907305D01*
X11044537Y-17899156D01*
X11037606Y-17892225D01*
X11029456Y-17886780D01*
X11020400Y-17883029D01*
X11010787Y-17881118D01*
X11000986Y-17881118D01*
X10991372Y-17883030D01*
X10982317Y-17886782D01*
X10974168Y-17892227D01*
X10967237Y-17899158D01*
X10961792Y-17907308D01*
X10958041Y-17916364D01*
X10956130Y-17925977D01*
X10956131Y-17932000D01*
X10956000Y-17932000D01*
X10956000Y-18308917D01*
X10956961Y-18318671D01*
X10959806Y-18328051D01*
X10964426Y-18336695D01*
X10970644Y-18344272D01*
X10978221Y-18350490D01*
X10986865Y-18355110D01*
X10996245Y-18357955D01*
X11005999Y-18358916D01*
X11015753Y-18357955D01*
X11025133Y-18355110D01*
X11033777Y-18350490D01*
X11041354Y-18344272D01*
X11050094Y-18332487D01*
X11054144Y-18324911D01*
X11072520Y-18302520D01*
X11094911Y-18284144D01*
X11120455Y-18270490D01*
X11148176Y-18262080D01*
X11179453Y-18259000D01*
X11620547Y-18259000D01*
X11651824Y-18262080D01*
X11679545Y-18270490D01*
X11705089Y-18284144D01*
X11727480Y-18302520D01*
X11745856Y-18324911D01*
X11759510Y-18350455D01*
X11767920Y-18378176D01*
X11771000Y-18409453D01*
X11771000Y-18800547D01*
X11767920Y-18831824D01*
X11759510Y-18859545D01*
X11745856Y-18885089D01*
X11727480Y-18907480D01*
X11705089Y-18925856D01*
X11679545Y-18939510D01*
X11651824Y-18947920D01*
X11620547Y-18951000D01*
X11179453Y-18951000D01*
X11148176Y-18947920D01*
X11120455Y-18939510D01*
X11094911Y-18925856D01*
X11072520Y-18907480D01*
X11054145Y-18885091D01*
X11046363Y-18870531D01*
X11040917Y-18862381D01*
X11033987Y-18855451D01*
X11030972Y-18853437D01*
X11032491Y-18845801D01*
X11032491Y-18836000D01*
X11029000Y-18800547D01*
X11029000Y-18476083D01*
X11028039Y-18466329D01*
X11025194Y-18456949D01*
X11020574Y-18448305D01*
X11014356Y-18440728D01*
X11006779Y-18434510D01*
X10998135Y-18429890D01*
X10988755Y-18427045D01*
X10979001Y-18426084D01*
X10969247Y-18427045D01*
X10959867Y-18429890D01*
X10951223Y-18434510D01*
X10943646Y-18440728D01*
X10934906Y-18452513D01*
X10930856Y-18460089D01*
X10912480Y-18482480D01*
X10890089Y-18500856D01*
X10864545Y-18514510D01*
X10836824Y-18522920D01*
X10805547Y-18526000D01*
X10414453Y-18526000D01*
X10383176Y-18522920D01*
X10355455Y-18514510D01*
X10329911Y-18500856D01*
X10307520Y-18482480D01*
X10289144Y-18460089D01*
X10275490Y-18434545D01*
X10267080Y-18406824D01*
X10264000Y-18375547D01*
X10264000Y-17934453D01*
X10267080Y-17903176D01*
X10275490Y-17875455D01*
X10289144Y-17849911D01*
X10307520Y-17827520D01*
X10329911Y-17809144D01*
X10355455Y-17795490D01*
X10383176Y-17787080D01*
X10414453Y-17784000D01*
X10805547Y-17784000D01*
X10836824Y-17787080D01*
X10864545Y-17795490D01*
X10890089Y-17809144D01*
X10912480Y-17827520D01*
X10930858Y-17849913D01*
X10935018Y-17857695D01*
X10940463Y-17865844D01*
X10947394Y-17872775D01*
X10955544Y-17878220D01*
X10964600Y-17881971D01*
X10974213Y-17883882D01*
X10984014Y-17883882D01*
X10993628Y-17881970D01*
X11002683Y-17878218D01*
X11010832Y-17872773D01*
X11017763Y-17865842D01*
X11023208Y-17857692D01*
X11026959Y-17848636D01*
X11028870Y-17839023D01*
X11028869Y-17833000D01*
X11029000Y-17833000D01*
X11029000Y-17439453D01*
X11032080Y-17408176D01*
X11040490Y-17380455D01*
X11054144Y-17354911D01*
X11072520Y-17332520D01*
X11094911Y-17314144D01*
X11120455Y-17300490D01*
X11148176Y-17292080D01*
X11179453Y-17289000D01*
X11620547Y-17289000D01*
X11651824Y-17292080D01*
G37*
G36*
X9866824Y-17787080D02*
G01*
X9894545Y-17795490D01*
X9920089Y-17809144D01*
X9942480Y-17827520D01*
X9960856Y-17849911D01*
X9974510Y-17875455D01*
X9982920Y-17903176D01*
X9986000Y-17934453D01*
X9986000Y-18375547D01*
X9982920Y-18406824D01*
X9974510Y-18434545D01*
X9960856Y-18460089D01*
X9942480Y-18482480D01*
X9920089Y-18500856D01*
X9894545Y-18514510D01*
X9866824Y-18522920D01*
X9835547Y-18526000D01*
X9444453Y-18526000D01*
X9413176Y-18522920D01*
X9385455Y-18514510D01*
X9359911Y-18500856D01*
X9337520Y-18482480D01*
X9319144Y-18460089D01*
X9305490Y-18434545D01*
X9297080Y-18406824D01*
X9294000Y-18375547D01*
X9294000Y-17934453D01*
X9297080Y-17903176D01*
X9305490Y-17875455D01*
X9319144Y-17849911D01*
X9337520Y-17827520D01*
X9359911Y-17809144D01*
X9385455Y-17795490D01*
X9413176Y-17787080D01*
X9444453Y-17784000D01*
X9835547Y-17784000D01*
X9866824Y-17787080D01*
G37*
G36*
X13351824Y-17462080D02*
G01*
X13379545Y-17470490D01*
X13405089Y-17484144D01*
X13427480Y-17502520D01*
X13445856Y-17524911D01*
X13459510Y-17550455D01*
X13467920Y-17578176D01*
X13471000Y-17609453D01*
X13471000Y-18000547D01*
X13467920Y-18031824D01*
X13459510Y-18059545D01*
X13445856Y-18085089D01*
X13427480Y-18107480D01*
X13405089Y-18125856D01*
X13379545Y-18139510D01*
X13351824Y-18147920D01*
X13320547Y-18151000D01*
X12879453Y-18151000D01*
X12848176Y-18147920D01*
X12820455Y-18139510D01*
X12794911Y-18125856D01*
X12772520Y-18107480D01*
X12754144Y-18085089D01*
X12740490Y-18059545D01*
X12732080Y-18031824D01*
X12729000Y-18000547D01*
X12729000Y-17609453D01*
X12732080Y-17578176D01*
X12740490Y-17550455D01*
X12754144Y-17524911D01*
X12772520Y-17502520D01*
X12794911Y-17484144D01*
X12820455Y-17470490D01*
X12848176Y-17462080D01*
X12879453Y-17459000D01*
X13320547Y-17459000D01*
X13351824Y-17462080D01*
G37*
G36*
X2360719Y-16760974D02*
G01*
X2360722Y-16760975D01*
X2360721Y-16760975D01*
X2460996Y-16802510D01*
X2551242Y-16862810D01*
X2627990Y-16939558D01*
X2688290Y-17029804D01*
X2701553Y-17061824D01*
X2729826Y-17130081D01*
X2751000Y-17236530D01*
X2751000Y-17345070D01*
X2729826Y-17451519D01*
X2725451Y-17462080D01*
X2688290Y-17551796D01*
X2627990Y-17642042D01*
X2551242Y-17718790D01*
X2460996Y-17779090D01*
X2417349Y-17797169D01*
X2360719Y-17820626D01*
X2254270Y-17841800D01*
X2145730Y-17841800D01*
X2039281Y-17820626D01*
X1982651Y-17797169D01*
X1939004Y-17779090D01*
X1848758Y-17718790D01*
X1772010Y-17642042D01*
X1711710Y-17551796D01*
X1674549Y-17462080D01*
X1670174Y-17451519D01*
X1649000Y-17345070D01*
X1649000Y-17236530D01*
X1670174Y-17130081D01*
X1698447Y-17061824D01*
X1711710Y-17029804D01*
X1772010Y-16939558D01*
X1848758Y-16862810D01*
X1939004Y-16802510D01*
X2039279Y-16760975D01*
X2039278Y-16760975D01*
X2039281Y-16760974D01*
X2145730Y-16739800D01*
X2254270Y-16739800D01*
X2360719Y-16760974D01*
G37*
G36*
X3740719Y-16760974D02*
G01*
X3740722Y-16760975D01*
X3740721Y-16760975D01*
X3840996Y-16802510D01*
X3931242Y-16862810D01*
X4007990Y-16939558D01*
X4068290Y-17029804D01*
X4081553Y-17061824D01*
X4109826Y-17130081D01*
X4131000Y-17236530D01*
X4131000Y-17345070D01*
X4109826Y-17451519D01*
X4105451Y-17462080D01*
X4068290Y-17551796D01*
X4007990Y-17642042D01*
X3931242Y-17718790D01*
X3840996Y-17779090D01*
X3797349Y-17797169D01*
X3740719Y-17820626D01*
X3634270Y-17841800D01*
X3525730Y-17841800D01*
X3419281Y-17820626D01*
X3362651Y-17797169D01*
X3319004Y-17779090D01*
X3228758Y-17718790D01*
X3152010Y-17642042D01*
X3091710Y-17551796D01*
X3054549Y-17462080D01*
X3050174Y-17451519D01*
X3029000Y-17345070D01*
X3029000Y-17236530D01*
X3050174Y-17130081D01*
X3078447Y-17061824D01*
X3091710Y-17029804D01*
X3152010Y-16939558D01*
X3228758Y-16862810D01*
X3319004Y-16802510D01*
X3419279Y-16760975D01*
X3419278Y-16760975D01*
X3419281Y-16760974D01*
X3525730Y-16739800D01*
X3634270Y-16739800D01*
X3740719Y-16760974D01*
G37*
G36*
X5170719Y-16760974D02*
G01*
X5170722Y-16760975D01*
X5170721Y-16760975D01*
X5270996Y-16802510D01*
X5361242Y-16862810D01*
X5437990Y-16939558D01*
X5498290Y-17029804D01*
X5511553Y-17061824D01*
X5539826Y-17130081D01*
X5561000Y-17236530D01*
X5561000Y-17345070D01*
X5539826Y-17451519D01*
X5535451Y-17462080D01*
X5498290Y-17551796D01*
X5437990Y-17642042D01*
X5361242Y-17718790D01*
X5270996Y-17779090D01*
X5227349Y-17797169D01*
X5170719Y-17820626D01*
X5064270Y-17841800D01*
X4955730Y-17841800D01*
X4849281Y-17820626D01*
X4792651Y-17797169D01*
X4749004Y-17779090D01*
X4658758Y-17718790D01*
X4582010Y-17642042D01*
X4521710Y-17551796D01*
X4484549Y-17462080D01*
X4480174Y-17451519D01*
X4459000Y-17345070D01*
X4459000Y-17236530D01*
X4480174Y-17130081D01*
X4508447Y-17061824D01*
X4521710Y-17029804D01*
X4582010Y-16939558D01*
X4658758Y-16862810D01*
X4749004Y-16802510D01*
X4849279Y-16760975D01*
X4849278Y-16760975D01*
X4849281Y-16760974D01*
X4955730Y-16739800D01*
X5064270Y-16739800D01*
X5170719Y-16760974D01*
G37*
G36*
X6680719Y-16760974D02*
G01*
X6680722Y-16760975D01*
X6680721Y-16760975D01*
X6780996Y-16802510D01*
X6871242Y-16862810D01*
X6947990Y-16939558D01*
X7008290Y-17029804D01*
X7021553Y-17061824D01*
X7049826Y-17130081D01*
X7071000Y-17236530D01*
X7071000Y-17345070D01*
X7049826Y-17451519D01*
X7045451Y-17462080D01*
X7008290Y-17551796D01*
X6947990Y-17642042D01*
X6871242Y-17718790D01*
X6780996Y-17779090D01*
X6737349Y-17797169D01*
X6680719Y-17820626D01*
X6574270Y-17841800D01*
X6465730Y-17841800D01*
X6359281Y-17820626D01*
X6302651Y-17797169D01*
X6259004Y-17779090D01*
X6168758Y-17718790D01*
X6092010Y-17642042D01*
X6031710Y-17551796D01*
X5994549Y-17462080D01*
X5990174Y-17451519D01*
X5969000Y-17345070D01*
X5969000Y-17236530D01*
X5990174Y-17130081D01*
X6018447Y-17061824D01*
X6031710Y-17029804D01*
X6092010Y-16939558D01*
X6168758Y-16862810D01*
X6259004Y-16802510D01*
X6359279Y-16760975D01*
X6359278Y-16760975D01*
X6359281Y-16760974D01*
X6465730Y-16739800D01*
X6574270Y-16739800D01*
X6680719Y-16760974D01*
G37*
G36*
X10451824Y-16492080D02*
G01*
X10479545Y-16500490D01*
X10505089Y-16514144D01*
X10527480Y-16532520D01*
X10545856Y-16554911D01*
X10559510Y-16580455D01*
X10567920Y-16608176D01*
X10571000Y-16639453D01*
X10571000Y-17030547D01*
X10567920Y-17061824D01*
X10559510Y-17089545D01*
X10545856Y-17115089D01*
X10527480Y-17137480D01*
X10505089Y-17155856D01*
X10479545Y-17169510D01*
X10451824Y-17177920D01*
X10420547Y-17181000D01*
X9979453Y-17181000D01*
X9948176Y-17177920D01*
X9920455Y-17169510D01*
X9894911Y-17155856D01*
X9872520Y-17137480D01*
X9854144Y-17115089D01*
X9840490Y-17089545D01*
X9832080Y-17061824D01*
X9829000Y-17030547D01*
X9829000Y-16639453D01*
X9832080Y-16608176D01*
X9840490Y-16580455D01*
X9854144Y-16554911D01*
X9872520Y-16532520D01*
X9894911Y-16514144D01*
X9920455Y-16500490D01*
X9948176Y-16492080D01*
X9979453Y-16489000D01*
X10420547Y-16489000D01*
X10451824Y-16492080D01*
G37*
G36*
X13351824Y-16492080D02*
G01*
X13379545Y-16500490D01*
X13405089Y-16514144D01*
X13427480Y-16532520D01*
X13445856Y-16554911D01*
X13459510Y-16580455D01*
X13467920Y-16608176D01*
X13471000Y-16639453D01*
X13471000Y-17030547D01*
X13467920Y-17061824D01*
X13459510Y-17089545D01*
X13445856Y-17115089D01*
X13427480Y-17137480D01*
X13405089Y-17155856D01*
X13379545Y-17169510D01*
X13351824Y-17177920D01*
X13320547Y-17181000D01*
X12879453Y-17181000D01*
X12848176Y-17177920D01*
X12820455Y-17169510D01*
X12794911Y-17155856D01*
X12772520Y-17137480D01*
X12754144Y-17115089D01*
X12740490Y-17089545D01*
X12732080Y-17061824D01*
X12729000Y-17030547D01*
X12729000Y-16639453D01*
X12732080Y-16608176D01*
X12740490Y-16580455D01*
X12754144Y-16554911D01*
X12772520Y-16532520D01*
X12794911Y-16514144D01*
X12820455Y-16500490D01*
X12848176Y-16492080D01*
X12879453Y-16489000D01*
X13320547Y-16489000D01*
X13351824Y-16492080D01*
G37*
G36*
X3921824Y-15912080D02*
G01*
X3949545Y-15920490D01*
X3975089Y-15934144D01*
X3997480Y-15952520D01*
X4015856Y-15974911D01*
X4029510Y-16000455D01*
X4037920Y-16028176D01*
X4041000Y-16059453D01*
X4041000Y-16450547D01*
X4037920Y-16481824D01*
X4029510Y-16509545D01*
X4015856Y-16535089D01*
X3997480Y-16557480D01*
X3975089Y-16575856D01*
X3949545Y-16589510D01*
X3921824Y-16597920D01*
X3890547Y-16601000D01*
X3449453Y-16601000D01*
X3418176Y-16597920D01*
X3390455Y-16589510D01*
X3364911Y-16575856D01*
X3342520Y-16557480D01*
X3324144Y-16535089D01*
X3310490Y-16509545D01*
X3302080Y-16481824D01*
X3299000Y-16450547D01*
X3299000Y-16059453D01*
X3302080Y-16028176D01*
X3310490Y-16000455D01*
X3324144Y-15974911D01*
X3342520Y-15952520D01*
X3364911Y-15934144D01*
X3390455Y-15920490D01*
X3418176Y-15912080D01*
X3449453Y-15909000D01*
X3890547Y-15909000D01*
X3921824Y-15912080D01*
G37*
G36*
X15011824Y-15752080D02*
G01*
X15039545Y-15760490D01*
X15065089Y-15774144D01*
X15087480Y-15792520D01*
X15105856Y-15814911D01*
X15119510Y-15840455D01*
X15127920Y-15868176D01*
X15131000Y-15899453D01*
X15131000Y-16340547D01*
X15127920Y-16371824D01*
X15119510Y-16399545D01*
X15105856Y-16425089D01*
X15087480Y-16447480D01*
X15065089Y-16465856D01*
X15039545Y-16479510D01*
X15011824Y-16487920D01*
X14980547Y-16491000D01*
X14589453Y-16491000D01*
X14558176Y-16487920D01*
X14530455Y-16479510D01*
X14504911Y-16465856D01*
X14482520Y-16447480D01*
X14464144Y-16425089D01*
X14450490Y-16399545D01*
X14442080Y-16371824D01*
X14439000Y-16340547D01*
X14439000Y-15899453D01*
X14442080Y-15868176D01*
X14450490Y-15840455D01*
X14464144Y-15814911D01*
X14482520Y-15792520D01*
X14504911Y-15774144D01*
X14530455Y-15760490D01*
X14558176Y-15752080D01*
X14589453Y-15749000D01*
X14980547Y-15749000D01*
X15011824Y-15752080D01*
G37*
G36*
X11641824Y-15752080D02*
G01*
X11669545Y-15760490D01*
X11695089Y-15774144D01*
X11717480Y-15792520D01*
X11735856Y-15814911D01*
X11749510Y-15840455D01*
X11757920Y-15868176D01*
X11761000Y-15899453D01*
X11761000Y-16340547D01*
X11757920Y-16371824D01*
X11749510Y-16399545D01*
X11735856Y-16425089D01*
X11717480Y-16447480D01*
X11695089Y-16465856D01*
X11669545Y-16479510D01*
X11641824Y-16487920D01*
X11610547Y-16491000D01*
X11219453Y-16491000D01*
X11188176Y-16487920D01*
X11160455Y-16479510D01*
X11134911Y-16465856D01*
X11112520Y-16447480D01*
X11094144Y-16425089D01*
X11080490Y-16399545D01*
X11072080Y-16371824D01*
X11069000Y-16340547D01*
X11069000Y-15899453D01*
X11072080Y-15868176D01*
X11080490Y-15840455D01*
X11094144Y-15814911D01*
X11112520Y-15792520D01*
X11134911Y-15774144D01*
X11160455Y-15760490D01*
X11188176Y-15752080D01*
X11219453Y-15749000D01*
X11610547Y-15749000D01*
X11641824Y-15752080D01*
G37*
G36*
X12611824Y-15752080D02*
G01*
X12639545Y-15760490D01*
X12665089Y-15774144D01*
X12687480Y-15792520D01*
X12705856Y-15814911D01*
X12719510Y-15840455D01*
X12727920Y-15868176D01*
X12731000Y-15899453D01*
X12731000Y-16340547D01*
X12727920Y-16371824D01*
X12719510Y-16399545D01*
X12705856Y-16425089D01*
X12687480Y-16447480D01*
X12665089Y-16465856D01*
X12639545Y-16479510D01*
X12611824Y-16487920D01*
X12580547Y-16491000D01*
X12189453Y-16491000D01*
X12158176Y-16487920D01*
X12130455Y-16479510D01*
X12104911Y-16465856D01*
X12082520Y-16447480D01*
X12064144Y-16425089D01*
X12050490Y-16399545D01*
X12042080Y-16371824D01*
X12039000Y-16340547D01*
X12039000Y-15899453D01*
X12042080Y-15868176D01*
X12050490Y-15840455D01*
X12064144Y-15814911D01*
X12082520Y-15792520D01*
X12104911Y-15774144D01*
X12130455Y-15760490D01*
X12158176Y-15752080D01*
X12189453Y-15749000D01*
X12580547Y-15749000D01*
X12611824Y-15752080D01*
G37*
G36*
X14041824Y-15752080D02*
G01*
X14069545Y-15760490D01*
X14095089Y-15774144D01*
X14117480Y-15792520D01*
X14135856Y-15814911D01*
X14149510Y-15840455D01*
X14157920Y-15868176D01*
X14161000Y-15899453D01*
X14161000Y-16340547D01*
X14157920Y-16371824D01*
X14149510Y-16399545D01*
X14135856Y-16425089D01*
X14117480Y-16447480D01*
X14095089Y-16465856D01*
X14069545Y-16479510D01*
X14041824Y-16487920D01*
X14010547Y-16491000D01*
X13619453Y-16491000D01*
X13588176Y-16487920D01*
X13560455Y-16479510D01*
X13534911Y-16465856D01*
X13512520Y-16447480D01*
X13494144Y-16425089D01*
X13480490Y-16399545D01*
X13472080Y-16371824D01*
X13469000Y-16340547D01*
X13469000Y-15899453D01*
X13472080Y-15868176D01*
X13480490Y-15840455D01*
X13494144Y-15814911D01*
X13512520Y-15792520D01*
X13534911Y-15774144D01*
X13560455Y-15760490D01*
X13588176Y-15752080D01*
X13619453Y-15749000D01*
X14010547Y-15749000D01*
X14041824Y-15752080D01*
G37*
G36*
X10451824Y-15522080D02*
G01*
X10479545Y-15530490D01*
X10505089Y-15544144D01*
X10527480Y-15562520D01*
X10545856Y-15584911D01*
X10559510Y-15610455D01*
X10567920Y-15638176D01*
X10571000Y-15669453D01*
X10571000Y-16060547D01*
X10567920Y-16091824D01*
X10559510Y-16119545D01*
X10545856Y-16145089D01*
X10527480Y-16167480D01*
X10505089Y-16185856D01*
X10479545Y-16199510D01*
X10451824Y-16207920D01*
X10420547Y-16211000D01*
X9979453Y-16211000D01*
X9948176Y-16207920D01*
X9920455Y-16199510D01*
X9894911Y-16185856D01*
X9872520Y-16167480D01*
X9854144Y-16145089D01*
X9840490Y-16119545D01*
X9832080Y-16091824D01*
X9829000Y-16060547D01*
X9829000Y-15669453D01*
X9832080Y-15638176D01*
X9840490Y-15610455D01*
X9854144Y-15584911D01*
X9872520Y-15562520D01*
X9894911Y-15544144D01*
X9920455Y-15530490D01*
X9948176Y-15522080D01*
X9979453Y-15519000D01*
X10420547Y-15519000D01*
X10451824Y-15522080D01*
G37*
G36*
X7721824Y-15292080D02*
G01*
X7749545Y-15300490D01*
X7775089Y-15314144D01*
X7797480Y-15332520D01*
X7815856Y-15354911D01*
X7829510Y-15380455D01*
X7837920Y-15408176D01*
X7841000Y-15439453D01*
X7841000Y-15880547D01*
X7837920Y-15911824D01*
X7829510Y-15939545D01*
X7815856Y-15965089D01*
X7797480Y-15987480D01*
X7775089Y-16005856D01*
X7749545Y-16019510D01*
X7721824Y-16027920D01*
X7690547Y-16031000D01*
X7299453Y-16031000D01*
X7268176Y-16027920D01*
X7240455Y-16019510D01*
X7214911Y-16005856D01*
X7192520Y-15987480D01*
X7174144Y-15965089D01*
X7160490Y-15939545D01*
X7152080Y-15911824D01*
X7149000Y-15880547D01*
X7149000Y-15439453D01*
X7152080Y-15408176D01*
X7160490Y-15380455D01*
X7174144Y-15354911D01*
X7192520Y-15332520D01*
X7214911Y-15314144D01*
X7240455Y-15300490D01*
X7268176Y-15292080D01*
X7299453Y-15289000D01*
X7690547Y-15289000D01*
X7721824Y-15292080D01*
G37*
G36*
X6751824Y-15292080D02*
G01*
X6779545Y-15300490D01*
X6805089Y-15314144D01*
X6827480Y-15332520D01*
X6845856Y-15354911D01*
X6859510Y-15380455D01*
X6867920Y-15408176D01*
X6871000Y-15439453D01*
X6871000Y-15880547D01*
X6867920Y-15911824D01*
X6859510Y-15939545D01*
X6845856Y-15965089D01*
X6827480Y-15987480D01*
X6805089Y-16005856D01*
X6779545Y-16019510D01*
X6751824Y-16027920D01*
X6720547Y-16031000D01*
X6329453Y-16031000D01*
X6298176Y-16027920D01*
X6270455Y-16019510D01*
X6244911Y-16005856D01*
X6222520Y-15987480D01*
X6204144Y-15965089D01*
X6190490Y-15939545D01*
X6182080Y-15911824D01*
X6179000Y-15880547D01*
X6179000Y-15439453D01*
X6182080Y-15408176D01*
X6190490Y-15380455D01*
X6204144Y-15354911D01*
X6222520Y-15332520D01*
X6244911Y-15314144D01*
X6270455Y-15300490D01*
X6298176Y-15292080D01*
X6329453Y-15289000D01*
X6720547Y-15289000D01*
X6751824Y-15292080D01*
G37*
G36*
X3921824Y-14942080D02*
G01*
X3949545Y-14950490D01*
X3975089Y-14964144D01*
X3997480Y-14982520D01*
X4015856Y-15004911D01*
X4029510Y-15030455D01*
X4037920Y-15058176D01*
X4041000Y-15089453D01*
X4041000Y-15480547D01*
X4037920Y-15511824D01*
X4029510Y-15539545D01*
X4015856Y-15565089D01*
X3997480Y-15587480D01*
X3975089Y-15605856D01*
X3949545Y-15619510D01*
X3921824Y-15627920D01*
X3890547Y-15631000D01*
X3449453Y-15631000D01*
X3418176Y-15627920D01*
X3390455Y-15619510D01*
X3364911Y-15605856D01*
X3342520Y-15587480D01*
X3324144Y-15565089D01*
X3310490Y-15539545D01*
X3302080Y-15511824D01*
X3299000Y-15480547D01*
X3299000Y-15089453D01*
X3302080Y-15058176D01*
X3310490Y-15030455D01*
X3324144Y-15004911D01*
X3342520Y-14982520D01*
X3364911Y-14964144D01*
X3390455Y-14950490D01*
X3418176Y-14942080D01*
X3449453Y-14939000D01*
X3890547Y-14939000D01*
X3921824Y-14942080D01*
G37*
G36*
X18951824Y-14282080D02*
G01*
X18979545Y-14290490D01*
X19005089Y-14304144D01*
X19027480Y-14322520D01*
X19045856Y-14344911D01*
X19059510Y-14370455D01*
X19067920Y-14398176D01*
X19071000Y-14429453D01*
X19071000Y-14820547D01*
X19067920Y-14851824D01*
X19059510Y-14879545D01*
X19045856Y-14905089D01*
X19027480Y-14927480D01*
X19005089Y-14945856D01*
X18979545Y-14959510D01*
X18951824Y-14967920D01*
X18920547Y-14971000D01*
X18479453Y-14971000D01*
X18448176Y-14967920D01*
X18420455Y-14959510D01*
X18394911Y-14945856D01*
X18372520Y-14927480D01*
X18354144Y-14905089D01*
X18340490Y-14879545D01*
X18332080Y-14851824D01*
X18329000Y-14820547D01*
X18329000Y-14429453D01*
X18332080Y-14398176D01*
X18340490Y-14370455D01*
X18354144Y-14344911D01*
X18372520Y-14322520D01*
X18394911Y-14304144D01*
X18420455Y-14290490D01*
X18448176Y-14282080D01*
X18479453Y-14279000D01*
X18920547Y-14279000D01*
X18951824Y-14282080D01*
G37*
G36*
X20201824Y-14282080D02*
G01*
X20229545Y-14290490D01*
X20255089Y-14304144D01*
X20277480Y-14322520D01*
X20295856Y-14344911D01*
X20309510Y-14370455D01*
X20317920Y-14398176D01*
X20321000Y-14429453D01*
X20321000Y-14820547D01*
X20317920Y-14851824D01*
X20309510Y-14879545D01*
X20295856Y-14905089D01*
X20277480Y-14927480D01*
X20255089Y-14945856D01*
X20229545Y-14959510D01*
X20201824Y-14967920D01*
X20170547Y-14971000D01*
X19729453Y-14971000D01*
X19698176Y-14967920D01*
X19670455Y-14959510D01*
X19644911Y-14945856D01*
X19622520Y-14927480D01*
X19604144Y-14905089D01*
X19590490Y-14879545D01*
X19582080Y-14851824D01*
X19579000Y-14820547D01*
X19579000Y-14429453D01*
X19582080Y-14398176D01*
X19590490Y-14370455D01*
X19604144Y-14344911D01*
X19622520Y-14322520D01*
X19644911Y-14304144D01*
X19670455Y-14290490D01*
X19698176Y-14282080D01*
X19729453Y-14279000D01*
X20170547Y-14279000D01*
X20201824Y-14282080D01*
G37*
G36*
X6741824Y-14202080D02*
G01*
X6769545Y-14210490D01*
X6795089Y-14224144D01*
X6817480Y-14242520D01*
X6835856Y-14264911D01*
X6849510Y-14290455D01*
X6857920Y-14318176D01*
X6861000Y-14349453D01*
X6861000Y-14790547D01*
X6857920Y-14821824D01*
X6849510Y-14849545D01*
X6835856Y-14875089D01*
X6817480Y-14897480D01*
X6795089Y-14915856D01*
X6769545Y-14929510D01*
X6741824Y-14937920D01*
X6710547Y-14941000D01*
X6319453Y-14941000D01*
X6288176Y-14937920D01*
X6260455Y-14929510D01*
X6234911Y-14915856D01*
X6212520Y-14897480D01*
X6194144Y-14875089D01*
X6180490Y-14849545D01*
X6172080Y-14821824D01*
X6169000Y-14790547D01*
X6169000Y-14349453D01*
X6172080Y-14318176D01*
X6180490Y-14290455D01*
X6194144Y-14264911D01*
X6212520Y-14242520D01*
X6234911Y-14224144D01*
X6260455Y-14210490D01*
X6288176Y-14202080D01*
X6319453Y-14199000D01*
X6710547Y-14199000D01*
X6741824Y-14202080D01*
G37*
G36*
X7711824Y-14202080D02*
G01*
X7739545Y-14210490D01*
X7765089Y-14224144D01*
X7787480Y-14242520D01*
X7805856Y-14264911D01*
X7819510Y-14290455D01*
X7827920Y-14318176D01*
X7831000Y-14349453D01*
X7831000Y-14790547D01*
X7827920Y-14821824D01*
X7819510Y-14849545D01*
X7805856Y-14875089D01*
X7787480Y-14897480D01*
X7765089Y-14915856D01*
X7739545Y-14929510D01*
X7711824Y-14937920D01*
X7680547Y-14941000D01*
X7289453Y-14941000D01*
X7258176Y-14937920D01*
X7230455Y-14929510D01*
X7204911Y-14915856D01*
X7182520Y-14897480D01*
X7164144Y-14875089D01*
X7150490Y-14849545D01*
X7142080Y-14821824D01*
X7139000Y-14790547D01*
X7139000Y-14349453D01*
X7142080Y-14318176D01*
X7150490Y-14290455D01*
X7164144Y-14264911D01*
X7182520Y-14242520D01*
X7204911Y-14224144D01*
X7230455Y-14210490D01*
X7258176Y-14202080D01*
X7289453Y-14199000D01*
X7680547Y-14199000D01*
X7711824Y-14202080D01*
G37*
G36*
X10426000Y-14426000D02*
G01*
X10024000Y-14426000D01*
X10024000Y-14024000D01*
X10426000Y-14024000D01*
X10426000Y-14426000D01*
G37*
G36*
X15626000Y-14426000D02*
G01*
X15224000Y-14426000D01*
X15224000Y-14024000D01*
X15626000Y-14024000D01*
X15626000Y-14426000D01*
G37*
G36*
X14976000Y-14426000D02*
G01*
X14574000Y-14426000D01*
X14574000Y-14024000D01*
X14976000Y-14024000D01*
X14976000Y-14426000D01*
G37*
G36*
X14326000Y-14426000D02*
G01*
X13924000Y-14426000D01*
X13924000Y-14024000D01*
X14326000Y-14024000D01*
X14326000Y-14426000D01*
G37*
G36*
X9776000Y-14426000D02*
G01*
X9374000Y-14426000D01*
X9374000Y-14024000D01*
X9776000Y-14024000D01*
X9776000Y-14426000D01*
G37*
G36*
X11076000Y-14426000D02*
G01*
X10674000Y-14426000D01*
X10674000Y-14024000D01*
X11076000Y-14024000D01*
X11076000Y-14426000D01*
G37*
G36*
X11726000Y-14426000D02*
G01*
X11324000Y-14426000D01*
X11324000Y-14024000D01*
X11726000Y-14024000D01*
X11726000Y-14426000D01*
G37*
G36*
X12376000Y-14426000D02*
G01*
X11974000Y-14426000D01*
X11974000Y-14024000D01*
X12376000Y-14024000D01*
X12376000Y-14426000D01*
G37*
G36*
X13026000Y-14426000D02*
G01*
X12624000Y-14426000D01*
X12624000Y-14024000D01*
X13026000Y-14024000D01*
X13026000Y-14426000D01*
G37*
G36*
X13676000Y-14426000D02*
G01*
X13274000Y-14426000D01*
X13274000Y-14024000D01*
X13676000Y-14024000D01*
X13676000Y-14426000D01*
G37*
G36*
X18951824Y-13312080D02*
G01*
X18979545Y-13320490D01*
X19005089Y-13334144D01*
X19027480Y-13352520D01*
X19045856Y-13374911D01*
X19059510Y-13400455D01*
X19067920Y-13428176D01*
X19071000Y-13459453D01*
X19071000Y-13850547D01*
X19067920Y-13881824D01*
X19059510Y-13909545D01*
X19045856Y-13935089D01*
X19027480Y-13957480D01*
X19005089Y-13975856D01*
X18979545Y-13989510D01*
X18951824Y-13997920D01*
X18920547Y-14001000D01*
X18479453Y-14001000D01*
X18448176Y-13997920D01*
X18420455Y-13989510D01*
X18394911Y-13975856D01*
X18372520Y-13957480D01*
X18354144Y-13935089D01*
X18340490Y-13909545D01*
X18332080Y-13881824D01*
X18329000Y-13850547D01*
X18329000Y-13459453D01*
X18332080Y-13428176D01*
X18340490Y-13400455D01*
X18354144Y-13374911D01*
X18372520Y-13352520D01*
X18394911Y-13334144D01*
X18420455Y-13320490D01*
X18448176Y-13312080D01*
X18479453Y-13309000D01*
X18920547Y-13309000D01*
X18951824Y-13312080D01*
G37*
G36*
X20201824Y-13312080D02*
G01*
X20229545Y-13320490D01*
X20255089Y-13334144D01*
X20277480Y-13352520D01*
X20295856Y-13374911D01*
X20309510Y-13400455D01*
X20317920Y-13428176D01*
X20321000Y-13459453D01*
X20321000Y-13850547D01*
X20317920Y-13881824D01*
X20309510Y-13909545D01*
X20295856Y-13935089D01*
X20277480Y-13957480D01*
X20255089Y-13975856D01*
X20229545Y-13989510D01*
X20201824Y-13997920D01*
X20170547Y-14001000D01*
X19729453Y-14001000D01*
X19698176Y-13997920D01*
X19670455Y-13989510D01*
X19644911Y-13975856D01*
X19622520Y-13957480D01*
X19604144Y-13935089D01*
X19590490Y-13909545D01*
X19582080Y-13881824D01*
X19579000Y-13850547D01*
X19579000Y-13459453D01*
X19582080Y-13428176D01*
X19590490Y-13400455D01*
X19604144Y-13374911D01*
X19622520Y-13352520D01*
X19644911Y-13334144D01*
X19670455Y-13320490D01*
X19698176Y-13312080D01*
X19729453Y-13309000D01*
X20170547Y-13309000D01*
X20201824Y-13312080D01*
G37*
G36*
X14976000Y-13776000D02*
G01*
X14574000Y-13776000D01*
X14574000Y-13374000D01*
X14976000Y-13374000D01*
X14976000Y-13776000D01*
G37*
G36*
X15626000Y-13776000D02*
G01*
X15224000Y-13776000D01*
X15224000Y-13374000D01*
X15626000Y-13374000D01*
X15626000Y-13776000D01*
G37*
G36*
X14326000Y-13776000D02*
G01*
X13924000Y-13776000D01*
X13924000Y-13374000D01*
X14326000Y-13374000D01*
X14326000Y-13776000D01*
G37*
G36*
X9776000Y-13776000D02*
G01*
X9374000Y-13776000D01*
X9374000Y-13374000D01*
X9776000Y-13374000D01*
X9776000Y-13776000D01*
G37*
G36*
X10426000Y-13776000D02*
G01*
X10024000Y-13776000D01*
X10024000Y-13374000D01*
X10426000Y-13374000D01*
X10426000Y-13776000D01*
G37*
G36*
X11726000Y-13776000D02*
G01*
X11324000Y-13776000D01*
X11324000Y-13374000D01*
X11726000Y-13374000D01*
X11726000Y-13776000D01*
G37*
G36*
X11076000Y-13776000D02*
G01*
X10674000Y-13776000D01*
X10674000Y-13374000D01*
X11076000Y-13374000D01*
X11076000Y-13776000D01*
G37*
G36*
X13026000Y-13776000D02*
G01*
X12624000Y-13776000D01*
X12624000Y-13374000D01*
X13026000Y-13374000D01*
X13026000Y-13776000D01*
G37*
G36*
X12376000Y-13776000D02*
G01*
X11974000Y-13776000D01*
X11974000Y-13374000D01*
X12376000Y-13374000D01*
X12376000Y-13776000D01*
G37*
G36*
X13676000Y-13776000D02*
G01*
X13274000Y-13776000D01*
X13274000Y-13374000D01*
X13676000Y-13374000D01*
X13676000Y-13776000D01*
G37*
G36*
X7951824Y-13062080D02*
G01*
X7979545Y-13070490D01*
X8005089Y-13084144D01*
X8027480Y-13102520D01*
X8045856Y-13124911D01*
X8059510Y-13150455D01*
X8067920Y-13178176D01*
X8071000Y-13209453D01*
X8071000Y-13600547D01*
X8067920Y-13631824D01*
X8059510Y-13659545D01*
X8045856Y-13685089D01*
X8027480Y-13707480D01*
X8005089Y-13725856D01*
X7979545Y-13739510D01*
X7951824Y-13747920D01*
X7920547Y-13751000D01*
X7479453Y-13751000D01*
X7448176Y-13747920D01*
X7420455Y-13739510D01*
X7394911Y-13725856D01*
X7372520Y-13707480D01*
X7354144Y-13685089D01*
X7340490Y-13659545D01*
X7332080Y-13631824D01*
X7329000Y-13600547D01*
X7329000Y-13209453D01*
X7332080Y-13178176D01*
X7340490Y-13150455D01*
X7354144Y-13124911D01*
X7372520Y-13102520D01*
X7394911Y-13084144D01*
X7420455Y-13070490D01*
X7448176Y-13062080D01*
X7479453Y-13059000D01*
X7920547Y-13059000D01*
X7951824Y-13062080D01*
G37*
G36*
X22201824Y-12462080D02*
G01*
X22229545Y-12470490D01*
X22255089Y-12484144D01*
X22277480Y-12502520D01*
X22295856Y-12524911D01*
X22309510Y-12550455D01*
X22317920Y-12578176D01*
X22321000Y-12609453D01*
X22321000Y-13050547D01*
X22317920Y-13081824D01*
X22309510Y-13109545D01*
X22295856Y-13135089D01*
X22277480Y-13157480D01*
X22255089Y-13175856D01*
X22229545Y-13189510D01*
X22201824Y-13197920D01*
X22170547Y-13201000D01*
X21779453Y-13201000D01*
X21748176Y-13197920D01*
X21720455Y-13189510D01*
X21694911Y-13175856D01*
X21672520Y-13157480D01*
X21654144Y-13135089D01*
X21640490Y-13109545D01*
X21632080Y-13081824D01*
X21629000Y-13050547D01*
X21629000Y-12609453D01*
X21632080Y-12578176D01*
X21640490Y-12550455D01*
X21654144Y-12524911D01*
X21672520Y-12502520D01*
X21694911Y-12484144D01*
X21720455Y-12470490D01*
X21748176Y-12462080D01*
X21779453Y-12459000D01*
X22170547Y-12459000D01*
X22201824Y-12462080D01*
G37*
G36*
X21231824Y-12462080D02*
G01*
X21259545Y-12470490D01*
X21285089Y-12484144D01*
X21307480Y-12502520D01*
X21325856Y-12524911D01*
X21339510Y-12550455D01*
X21347920Y-12578176D01*
X21351000Y-12609453D01*
X21351000Y-13050547D01*
X21347920Y-13081824D01*
X21339510Y-13109545D01*
X21325856Y-13135089D01*
X21307480Y-13157480D01*
X21285089Y-13175856D01*
X21259545Y-13189510D01*
X21231824Y-13197920D01*
X21200547Y-13201000D01*
X20809453Y-13201000D01*
X20778176Y-13197920D01*
X20750455Y-13189510D01*
X20724911Y-13175856D01*
X20702520Y-13157480D01*
X20684144Y-13135089D01*
X20670490Y-13109545D01*
X20662080Y-13081824D01*
X20659000Y-13050547D01*
X20659000Y-12609453D01*
X20662080Y-12578176D01*
X20670490Y-12550455D01*
X20684144Y-12524911D01*
X20702520Y-12502520D01*
X20724911Y-12484144D01*
X20750455Y-12470490D01*
X20778176Y-12462080D01*
X20809453Y-12459000D01*
X21200547Y-12459000D01*
X21231824Y-12462080D01*
G37*
G36*
X11726000Y-13126000D02*
G01*
X11324000Y-13126000D01*
X11324000Y-12724000D01*
X11726000Y-12724000D01*
X11726000Y-13126000D01*
G37*
G36*
X15626000Y-13126000D02*
G01*
X15224000Y-13126000D01*
X15224000Y-12724000D01*
X15626000Y-12724000D01*
X15626000Y-13126000D01*
G37*
G36*
X14976000Y-13126000D02*
G01*
X14574000Y-13126000D01*
X14574000Y-12724000D01*
X14976000Y-12724000D01*
X14976000Y-13126000D01*
G37*
G36*
X13026000Y-13126000D02*
G01*
X12624000Y-13126000D01*
X12624000Y-12724000D01*
X13026000Y-12724000D01*
X13026000Y-13126000D01*
G37*
G36*
X10426000Y-13126000D02*
G01*
X10024000Y-13126000D01*
X10024000Y-12724000D01*
X10426000Y-12724000D01*
X10426000Y-13126000D01*
G37*
G36*
X9776000Y-13126000D02*
G01*
X9374000Y-13126000D01*
X9374000Y-12724000D01*
X9776000Y-12724000D01*
X9776000Y-13126000D01*
G37*
G36*
X14326000Y-13126000D02*
G01*
X13924000Y-13126000D01*
X13924000Y-12724000D01*
X14326000Y-12724000D01*
X14326000Y-13126000D01*
G37*
G36*
X12376000Y-13126000D02*
G01*
X11974000Y-13126000D01*
X11974000Y-12724000D01*
X12376000Y-12724000D01*
X12376000Y-13126000D01*
G37*
G36*
X11076000Y-13126000D02*
G01*
X10674000Y-13126000D01*
X10674000Y-12724000D01*
X11076000Y-12724000D01*
X11076000Y-13126000D01*
G37*
G36*
X13676000Y-13126000D02*
G01*
X13274000Y-13126000D01*
X13274000Y-12724000D01*
X13676000Y-12724000D01*
X13676000Y-13126000D01*
G37*
G36*
X6551824Y-12362080D02*
G01*
X6579545Y-12370490D01*
X6605089Y-12384144D01*
X6627480Y-12402520D01*
X6645856Y-12424911D01*
X6659510Y-12450455D01*
X6667920Y-12478176D01*
X6671000Y-12509453D01*
X6671000Y-12900547D01*
X6667920Y-12931824D01*
X6659510Y-12959545D01*
X6645856Y-12985089D01*
X6627480Y-13007480D01*
X6605089Y-13025856D01*
X6579545Y-13039510D01*
X6551824Y-13047920D01*
X6520547Y-13051000D01*
X6079453Y-13051000D01*
X6048176Y-13047920D01*
X6020455Y-13039510D01*
X5994911Y-13025856D01*
X5972520Y-13007480D01*
X5954144Y-12985089D01*
X5940490Y-12959545D01*
X5932080Y-12931824D01*
X5929000Y-12900547D01*
X5929000Y-12509453D01*
X5932080Y-12478176D01*
X5940490Y-12450455D01*
X5954144Y-12424911D01*
X5972520Y-12402520D01*
X5994911Y-12384144D01*
X6020455Y-12370490D01*
X6048176Y-12362080D01*
X6079453Y-12359000D01*
X6520547Y-12359000D01*
X6551824Y-12362080D01*
G37*
G36*
X19741824Y-12202080D02*
G01*
X19769545Y-12210490D01*
X19795089Y-12224144D01*
X19817480Y-12242520D01*
X19835856Y-12264911D01*
X19849510Y-12290455D01*
X19857920Y-12318176D01*
X19861000Y-12349453D01*
X19861000Y-12740547D01*
X19857920Y-12771824D01*
X19849510Y-12799545D01*
X19835856Y-12825089D01*
X19817480Y-12847480D01*
X19795089Y-12865856D01*
X19769545Y-12879510D01*
X19741824Y-12887920D01*
X19710547Y-12891000D01*
X19269453Y-12891000D01*
X19238176Y-12887920D01*
X19210455Y-12879510D01*
X19184911Y-12865856D01*
X19162520Y-12847480D01*
X19144144Y-12825089D01*
X19130490Y-12799545D01*
X19122080Y-12771824D01*
X19119000Y-12740547D01*
X19119000Y-12349453D01*
X19122080Y-12318176D01*
X19130490Y-12290455D01*
X19144144Y-12264911D01*
X19162520Y-12242520D01*
X19184911Y-12224144D01*
X19210455Y-12210490D01*
X19238176Y-12202080D01*
X19269453Y-12199000D01*
X19710547Y-12199000D01*
X19741824Y-12202080D01*
G37*
G36*
X17651824Y-12202080D02*
G01*
X17679545Y-12210490D01*
X17705089Y-12224144D01*
X17727480Y-12242520D01*
X17745856Y-12264911D01*
X17759510Y-12290455D01*
X17767920Y-12318176D01*
X17771000Y-12349453D01*
X17771000Y-12740547D01*
X17767920Y-12771824D01*
X17759510Y-12799545D01*
X17745856Y-12825089D01*
X17727480Y-12847480D01*
X17705089Y-12865856D01*
X17679545Y-12879510D01*
X17651824Y-12887920D01*
X17620547Y-12891000D01*
X17179453Y-12891000D01*
X17148176Y-12887920D01*
X17120455Y-12879510D01*
X17094911Y-12865856D01*
X17072520Y-12847480D01*
X17054144Y-12825089D01*
X17040490Y-12799545D01*
X17032080Y-12771824D01*
X17029000Y-12740547D01*
X17029000Y-12349453D01*
X17032080Y-12318176D01*
X17040490Y-12290455D01*
X17054144Y-12264911D01*
X17072520Y-12242520D01*
X17094911Y-12224144D01*
X17120455Y-12210490D01*
X17148176Y-12202080D01*
X17179453Y-12199000D01*
X17620547Y-12199000D01*
X17651824Y-12202080D01*
G37*
G36*
X7951824Y-12092080D02*
G01*
X7979545Y-12100490D01*
X8005089Y-12114144D01*
X8027480Y-12132520D01*
X8045856Y-12154911D01*
X8059510Y-12180455D01*
X8067920Y-12208176D01*
X8071000Y-12239453D01*
X8071000Y-12630547D01*
X8067920Y-12661824D01*
X8059510Y-12689545D01*
X8045856Y-12715089D01*
X8027480Y-12737480D01*
X8005089Y-12755856D01*
X7979545Y-12769510D01*
X7951824Y-12777920D01*
X7920547Y-12781000D01*
X7479453Y-12781000D01*
X7448176Y-12777920D01*
X7420455Y-12769510D01*
X7394911Y-12755856D01*
X7372520Y-12737480D01*
X7354144Y-12715089D01*
X7340490Y-12689545D01*
X7332080Y-12661824D01*
X7329000Y-12630547D01*
X7329000Y-12239453D01*
X7332080Y-12208176D01*
X7340490Y-12180455D01*
X7354144Y-12154911D01*
X7372520Y-12132520D01*
X7394911Y-12114144D01*
X7420455Y-12100490D01*
X7448176Y-12092080D01*
X7479453Y-12089000D01*
X7920547Y-12089000D01*
X7951824Y-12092080D01*
G37*
G36*
X9776000Y-12476000D02*
G01*
X9374000Y-12476000D01*
X9374000Y-12074000D01*
X9776000Y-12074000D01*
X9776000Y-12476000D01*
G37*
G36*
X10426000Y-12476000D02*
G01*
X10024000Y-12476000D01*
X10024000Y-12074000D01*
X10426000Y-12074000D01*
X10426000Y-12476000D01*
G37*
G36*
X14976000Y-12476000D02*
G01*
X14574000Y-12476000D01*
X14574000Y-12074000D01*
X14976000Y-12074000D01*
X14976000Y-12476000D01*
G37*
G36*
X15626000Y-12476000D02*
G01*
X15224000Y-12476000D01*
X15224000Y-12074000D01*
X15626000Y-12074000D01*
X15626000Y-12476000D01*
G37*
G36*
X11076000Y-12476000D02*
G01*
X10674000Y-12476000D01*
X10674000Y-12074000D01*
X11076000Y-12074000D01*
X11076000Y-12476000D01*
G37*
G36*
X14326000Y-12476000D02*
G01*
X13924000Y-12476000D01*
X13924000Y-12074000D01*
X14326000Y-12074000D01*
X14326000Y-12476000D01*
G37*
G36*
X22201824Y-11462080D02*
G01*
X22229545Y-11470490D01*
X22255089Y-11484144D01*
X22277480Y-11502520D01*
X22295856Y-11524911D01*
X22309510Y-11550455D01*
X22317920Y-11578176D01*
X22321000Y-11609453D01*
X22321000Y-12050547D01*
X22317920Y-12081824D01*
X22309510Y-12109545D01*
X22295856Y-12135089D01*
X22277480Y-12157480D01*
X22255089Y-12175856D01*
X22229545Y-12189510D01*
X22201824Y-12197920D01*
X22170547Y-12201000D01*
X21779453Y-12201000D01*
X21748176Y-12197920D01*
X21720455Y-12189510D01*
X21694911Y-12175856D01*
X21672520Y-12157480D01*
X21654144Y-12135089D01*
X21640490Y-12109545D01*
X21632080Y-12081824D01*
X21629000Y-12050547D01*
X21629000Y-11609453D01*
X21632080Y-11578176D01*
X21640490Y-11550455D01*
X21654144Y-11524911D01*
X21672520Y-11502520D01*
X21694911Y-11484144D01*
X21720455Y-11470490D01*
X21748176Y-11462080D01*
X21779453Y-11459000D01*
X22170547Y-11459000D01*
X22201824Y-11462080D01*
G37*
G36*
X21231824Y-11462080D02*
G01*
X21259545Y-11470490D01*
X21285089Y-11484144D01*
X21307480Y-11502520D01*
X21325856Y-11524911D01*
X21339510Y-11550455D01*
X21347920Y-11578176D01*
X21351000Y-11609453D01*
X21351000Y-12050547D01*
X21347920Y-12081824D01*
X21339510Y-12109545D01*
X21325856Y-12135089D01*
X21307480Y-12157480D01*
X21285089Y-12175856D01*
X21259545Y-12189510D01*
X21231824Y-12197920D01*
X21200547Y-12201000D01*
X20809453Y-12201000D01*
X20778176Y-12197920D01*
X20750455Y-12189510D01*
X20724911Y-12175856D01*
X20702520Y-12157480D01*
X20684144Y-12135089D01*
X20670490Y-12109545D01*
X20662080Y-12081824D01*
X20659000Y-12050547D01*
X20659000Y-11609453D01*
X20662080Y-11578176D01*
X20670490Y-11550455D01*
X20684144Y-11524911D01*
X20702520Y-11502520D01*
X20724911Y-11484144D01*
X20750455Y-11470490D01*
X20778176Y-11462080D01*
X20809453Y-11459000D01*
X21200547Y-11459000D01*
X21231824Y-11462080D01*
G37*
G36*
X6551824Y-11392080D02*
G01*
X6579545Y-11400490D01*
X6605089Y-11414144D01*
X6627480Y-11432520D01*
X6645856Y-11454911D01*
X6659510Y-11480455D01*
X6667920Y-11508176D01*
X6671000Y-11539453D01*
X6671000Y-11930547D01*
X6667920Y-11961824D01*
X6659510Y-11989545D01*
X6645856Y-12015089D01*
X6627480Y-12037480D01*
X6605089Y-12055856D01*
X6579545Y-12069510D01*
X6551824Y-12077920D01*
X6520547Y-12081000D01*
X6079453Y-12081000D01*
X6048176Y-12077920D01*
X6020455Y-12069510D01*
X5994911Y-12055856D01*
X5972520Y-12037480D01*
X5954144Y-12015089D01*
X5940490Y-11989545D01*
X5932080Y-11961824D01*
X5929000Y-11930547D01*
X5929000Y-11539453D01*
X5932080Y-11508176D01*
X5940490Y-11480455D01*
X5954144Y-11454911D01*
X5972520Y-11432520D01*
X5994911Y-11414144D01*
X6020455Y-11400490D01*
X6048176Y-11392080D01*
X6079453Y-11389000D01*
X6520547Y-11389000D01*
X6551824Y-11392080D01*
G37*
G36*
X19741824Y-11232080D02*
G01*
X19769545Y-11240490D01*
X19795089Y-11254144D01*
X19817480Y-11272520D01*
X19835856Y-11294911D01*
X19849510Y-11320455D01*
X19857920Y-11348176D01*
X19861000Y-11379453D01*
X19861000Y-11770547D01*
X19857920Y-11801824D01*
X19849510Y-11829545D01*
X19835856Y-11855089D01*
X19817480Y-11877480D01*
X19795089Y-11895856D01*
X19769545Y-11909510D01*
X19741824Y-11917920D01*
X19710547Y-11921000D01*
X19269453Y-11921000D01*
X19238176Y-11917920D01*
X19210455Y-11909510D01*
X19184911Y-11895856D01*
X19162520Y-11877480D01*
X19144144Y-11855089D01*
X19130490Y-11829545D01*
X19122080Y-11801824D01*
X19119000Y-11770547D01*
X19119000Y-11379453D01*
X19122080Y-11348176D01*
X19130490Y-11320455D01*
X19144144Y-11294911D01*
X19162520Y-11272520D01*
X19184911Y-11254144D01*
X19210455Y-11240490D01*
X19238176Y-11232080D01*
X19269453Y-11229000D01*
X19710547Y-11229000D01*
X19741824Y-11232080D01*
G37*
G36*
X17651824Y-11232080D02*
G01*
X17679545Y-11240490D01*
X17705089Y-11254144D01*
X17727480Y-11272520D01*
X17745856Y-11294911D01*
X17759510Y-11320455D01*
X17767920Y-11348176D01*
X17771000Y-11379453D01*
X17771000Y-11770547D01*
X17767920Y-11801824D01*
X17759510Y-11829545D01*
X17745856Y-11855089D01*
X17727480Y-11877480D01*
X17705089Y-11895856D01*
X17679545Y-11909510D01*
X17651824Y-11917920D01*
X17620547Y-11921000D01*
X17179453Y-11921000D01*
X17148176Y-11917920D01*
X17120455Y-11909510D01*
X17094911Y-11895856D01*
X17072520Y-11877480D01*
X17054144Y-11855089D01*
X17040490Y-11829545D01*
X17032080Y-11801824D01*
X17029000Y-11770547D01*
X17029000Y-11379453D01*
X17032080Y-11348176D01*
X17040490Y-11320455D01*
X17054144Y-11294911D01*
X17072520Y-11272520D01*
X17094911Y-11254144D01*
X17120455Y-11240490D01*
X17148176Y-11232080D01*
X17179453Y-11229000D01*
X17620547Y-11229000D01*
X17651824Y-11232080D01*
G37*
G36*
X14976000Y-11826000D02*
G01*
X14574000Y-11826000D01*
X14574000Y-11424000D01*
X14976000Y-11424000D01*
X14976000Y-11826000D01*
G37*
G36*
X15626000Y-11826000D02*
G01*
X15224000Y-11826000D01*
X15224000Y-11424000D01*
X15626000Y-11424000D01*
X15626000Y-11826000D01*
G37*
G36*
X10426000Y-11826000D02*
G01*
X10024000Y-11826000D01*
X10024000Y-11424000D01*
X10426000Y-11424000D01*
X10426000Y-11826000D01*
G37*
G36*
X9776000Y-11826000D02*
G01*
X9374000Y-11826000D01*
X9374000Y-11424000D01*
X9776000Y-11424000D01*
X9776000Y-11826000D01*
G37*
G36*
X14351000Y-11451000D02*
G01*
X10649000Y-11451000D01*
X10649000Y-8549000D01*
X14351000Y-8549000D01*
X14351000Y-11451000D01*
G37*
G36*
X21231824Y-10462080D02*
G01*
X21259545Y-10470490D01*
X21285089Y-10484144D01*
X21307480Y-10502520D01*
X21325856Y-10524911D01*
X21339510Y-10550455D01*
X21347920Y-10578176D01*
X21351000Y-10609453D01*
X21351000Y-11050547D01*
X21347920Y-11081824D01*
X21339510Y-11109545D01*
X21325856Y-11135089D01*
X21307480Y-11157480D01*
X21285089Y-11175856D01*
X21259545Y-11189510D01*
X21231824Y-11197920D01*
X21200547Y-11201000D01*
X20809453Y-11201000D01*
X20778176Y-11197920D01*
X20750455Y-11189510D01*
X20724911Y-11175856D01*
X20702520Y-11157480D01*
X20684144Y-11135089D01*
X20670490Y-11109545D01*
X20662080Y-11081824D01*
X20659000Y-11050547D01*
X20659000Y-10609453D01*
X20662080Y-10578176D01*
X20670490Y-10550455D01*
X20684144Y-10524911D01*
X20702520Y-10502520D01*
X20724911Y-10484144D01*
X20750455Y-10470490D01*
X20778176Y-10462080D01*
X20809453Y-10459000D01*
X21200547Y-10459000D01*
X21231824Y-10462080D01*
G37*
G36*
X22201824Y-10462080D02*
G01*
X22229545Y-10470490D01*
X22255089Y-10484144D01*
X22277480Y-10502520D01*
X22295856Y-10524911D01*
X22309510Y-10550455D01*
X22317920Y-10578176D01*
X22321000Y-10609453D01*
X22321000Y-11050547D01*
X22317920Y-11081824D01*
X22309510Y-11109545D01*
X22295856Y-11135089D01*
X22277480Y-11157480D01*
X22255089Y-11175856D01*
X22229545Y-11189510D01*
X22201824Y-11197920D01*
X22170547Y-11201000D01*
X21779453Y-11201000D01*
X21748176Y-11197920D01*
X21720455Y-11189510D01*
X21694911Y-11175856D01*
X21672520Y-11157480D01*
X21654144Y-11135089D01*
X21640490Y-11109545D01*
X21632080Y-11081824D01*
X21629000Y-11050547D01*
X21629000Y-10609453D01*
X21632080Y-10578176D01*
X21640490Y-10550455D01*
X21654144Y-10524911D01*
X21672520Y-10502520D01*
X21694911Y-10484144D01*
X21720455Y-10470490D01*
X21748176Y-10462080D01*
X21779453Y-10459000D01*
X22170547Y-10459000D01*
X22201824Y-10462080D01*
G37*
G36*
X10426000Y-11176000D02*
G01*
X10024000Y-11176000D01*
X10024000Y-10774000D01*
X10426000Y-10774000D01*
X10426000Y-11176000D01*
G37*
G36*
X9776000Y-11176000D02*
G01*
X9374000Y-11176000D01*
X9374000Y-10774000D01*
X9776000Y-10774000D01*
X9776000Y-11176000D01*
G37*
G36*
X15626000Y-11176000D02*
G01*
X15224000Y-11176000D01*
X15224000Y-10774000D01*
X15626000Y-10774000D01*
X15626000Y-11176000D01*
G37*
G36*
X14976000Y-11176000D02*
G01*
X14574000Y-11176000D01*
X14574000Y-10774000D01*
X14976000Y-10774000D01*
X14976000Y-11176000D01*
G37*
G36*
X14976000Y-10526000D02*
G01*
X14574000Y-10526000D01*
X14574000Y-10124000D01*
X14976000Y-10124000D01*
X14976000Y-10526000D01*
G37*
G36*
X10426000Y-10526000D02*
G01*
X10024000Y-10526000D01*
X10024000Y-10124000D01*
X10426000Y-10124000D01*
X10426000Y-10526000D01*
G37*
G36*
X15626000Y-10526000D02*
G01*
X15224000Y-10526000D01*
X15224000Y-10124000D01*
X15626000Y-10124000D01*
X15626000Y-10526000D01*
G37*
G36*
X9776000Y-10526000D02*
G01*
X9374000Y-10526000D01*
X9374000Y-10124000D01*
X9776000Y-10124000D01*
X9776000Y-10526000D01*
G37*
G36*
X22201824Y-9462080D02*
G01*
X22229545Y-9470490D01*
X22255089Y-9484144D01*
X22277480Y-9502520D01*
X22295856Y-9524911D01*
X22309510Y-9550455D01*
X22317920Y-9578176D01*
X22321000Y-9609453D01*
X22321000Y-10050547D01*
X22317920Y-10081824D01*
X22309510Y-10109545D01*
X22295856Y-10135089D01*
X22277480Y-10157480D01*
X22255089Y-10175856D01*
X22229545Y-10189510D01*
X22201824Y-10197920D01*
X22170547Y-10201000D01*
X21779453Y-10201000D01*
X21748176Y-10197920D01*
X21720455Y-10189510D01*
X21694911Y-10175856D01*
X21672520Y-10157480D01*
X21654144Y-10135089D01*
X21640490Y-10109545D01*
X21632080Y-10081824D01*
X21629000Y-10050547D01*
X21629000Y-9609453D01*
X21632080Y-9578176D01*
X21640490Y-9550455D01*
X21654144Y-9524911D01*
X21672520Y-9502520D01*
X21694911Y-9484144D01*
X21720455Y-9470490D01*
X21748176Y-9462080D01*
X21779453Y-9459000D01*
X22170547Y-9459000D01*
X22201824Y-9462080D01*
G37*
G36*
X21231824Y-9462080D02*
G01*
X21259545Y-9470490D01*
X21285089Y-9484144D01*
X21307480Y-9502520D01*
X21325856Y-9524911D01*
X21339510Y-9550455D01*
X21347920Y-9578176D01*
X21351000Y-9609453D01*
X21351000Y-10050547D01*
X21347920Y-10081824D01*
X21339510Y-10109545D01*
X21325856Y-10135089D01*
X21307480Y-10157480D01*
X21285089Y-10175856D01*
X21259545Y-10189510D01*
X21231824Y-10197920D01*
X21200547Y-10201000D01*
X20809453Y-10201000D01*
X20778176Y-10197920D01*
X20750455Y-10189510D01*
X20724911Y-10175856D01*
X20702520Y-10157480D01*
X20684144Y-10135089D01*
X20670490Y-10109545D01*
X20662080Y-10081824D01*
X20659000Y-10050547D01*
X20659000Y-9609453D01*
X20662080Y-9578176D01*
X20670490Y-9550455D01*
X20684144Y-9524911D01*
X20702520Y-9502520D01*
X20724911Y-9484144D01*
X20750455Y-9470490D01*
X20778176Y-9462080D01*
X20809453Y-9459000D01*
X21200547Y-9459000D01*
X21231824Y-9462080D01*
G37*
G36*
X17476824Y-9392080D02*
G01*
X17504545Y-9400490D01*
X17530089Y-9414144D01*
X17552480Y-9432520D01*
X17570856Y-9454911D01*
X17584510Y-9480455D01*
X17592920Y-9508176D01*
X17596000Y-9539453D01*
X17596000Y-9930547D01*
X17592920Y-9961824D01*
X17584510Y-9989545D01*
X17570856Y-10015089D01*
X17552480Y-10037480D01*
X17530089Y-10055856D01*
X17504545Y-10069510D01*
X17476824Y-10077920D01*
X17445547Y-10081000D01*
X17004453Y-10081000D01*
X16973176Y-10077920D01*
X16945455Y-10069510D01*
X16919911Y-10055856D01*
X16897520Y-10037480D01*
X16879144Y-10015089D01*
X16865490Y-9989545D01*
X16857080Y-9961824D01*
X16854000Y-9930547D01*
X16854000Y-9539453D01*
X16857080Y-9508176D01*
X16865490Y-9480455D01*
X16879144Y-9454911D01*
X16897520Y-9432520D01*
X16919911Y-9414144D01*
X16945455Y-9400490D01*
X16973176Y-9392080D01*
X17004453Y-9389000D01*
X17445547Y-9389000D01*
X17476824Y-9392080D01*
G37*
G36*
X9776000Y-9876000D02*
G01*
X9374000Y-9876000D01*
X9374000Y-9474000D01*
X9776000Y-9474000D01*
X9776000Y-9876000D01*
G37*
G36*
X10426000Y-9876000D02*
G01*
X10024000Y-9876000D01*
X10024000Y-9474000D01*
X10426000Y-9474000D01*
X10426000Y-9876000D01*
G37*
G36*
X14976000Y-9876000D02*
G01*
X14574000Y-9876000D01*
X14574000Y-9474000D01*
X14976000Y-9474000D01*
X14976000Y-9876000D01*
G37*
G36*
X15626000Y-9876000D02*
G01*
X15224000Y-9876000D01*
X15224000Y-9474000D01*
X15626000Y-9474000D01*
X15626000Y-9876000D01*
G37*
G36*
X10426000Y-9226000D02*
G01*
X10024000Y-9226000D01*
X10024000Y-8824000D01*
X10426000Y-8824000D01*
X10426000Y-9226000D01*
G37*
G36*
X9776000Y-9226000D02*
G01*
X9374000Y-9226000D01*
X9374000Y-8824000D01*
X9776000Y-8824000D01*
X9776000Y-9226000D01*
G37*
G36*
X14976000Y-9226000D02*
G01*
X14574000Y-9226000D01*
X14574000Y-8824000D01*
X14976000Y-8824000D01*
X14976000Y-9226000D01*
G37*
G36*
X15626000Y-9226000D02*
G01*
X15224000Y-9226000D01*
X15224000Y-8824000D01*
X15626000Y-8824000D01*
X15626000Y-9226000D01*
G37*
G36*
X17476824Y-8422080D02*
G01*
X17504545Y-8430490D01*
X17530089Y-8444144D01*
X17552480Y-8462520D01*
X17570856Y-8484911D01*
X17584510Y-8510455D01*
X17592920Y-8538176D01*
X17596000Y-8569453D01*
X17596000Y-8960547D01*
X17592920Y-8991824D01*
X17584510Y-9019545D01*
X17570856Y-9045089D01*
X17552480Y-9067480D01*
X17530089Y-9085856D01*
X17504545Y-9099510D01*
X17476824Y-9107920D01*
X17445547Y-9111000D01*
X17004453Y-9111000D01*
X16973176Y-9107920D01*
X16945455Y-9099510D01*
X16919911Y-9085856D01*
X16897520Y-9067480D01*
X16879144Y-9045089D01*
X16865490Y-9019545D01*
X16857080Y-8991824D01*
X16854000Y-8960547D01*
X16854000Y-8569453D01*
X16857080Y-8538176D01*
X16865490Y-8510455D01*
X16879144Y-8484911D01*
X16897520Y-8462520D01*
X16919911Y-8444144D01*
X16945455Y-8430490D01*
X16973176Y-8422080D01*
X17004453Y-8419000D01*
X17445547Y-8419000D01*
X17476824Y-8422080D01*
G37*
G36*
X6866824Y-8287080D02*
G01*
X6894545Y-8295490D01*
X6920089Y-8309144D01*
X6942480Y-8327520D01*
X6960856Y-8349911D01*
X6974510Y-8375455D01*
X6982920Y-8403176D01*
X6986000Y-8434453D01*
X6986000Y-8875547D01*
X6982920Y-8906824D01*
X6974510Y-8934545D01*
X6960856Y-8960089D01*
X6942480Y-8982480D01*
X6920089Y-9000856D01*
X6894545Y-9014510D01*
X6866824Y-9022920D01*
X6835547Y-9026000D01*
X6444453Y-9026000D01*
X6413176Y-9022920D01*
X6385455Y-9014510D01*
X6359911Y-9000856D01*
X6337520Y-8982480D01*
X6319144Y-8960089D01*
X6305490Y-8934545D01*
X6297080Y-8906824D01*
X6294000Y-8875547D01*
X6294000Y-8434453D01*
X6297080Y-8403176D01*
X6305490Y-8375455D01*
X6319144Y-8349911D01*
X6337520Y-8327520D01*
X6359911Y-8309144D01*
X6385455Y-8295490D01*
X6413176Y-8287080D01*
X6444453Y-8284000D01*
X6835547Y-8284000D01*
X6866824Y-8287080D01*
G37*
G36*
X7836824Y-8287080D02*
G01*
X7864545Y-8295490D01*
X7890089Y-8309144D01*
X7912480Y-8327520D01*
X7930856Y-8349911D01*
X7944510Y-8375455D01*
X7952920Y-8403176D01*
X7956000Y-8434453D01*
X7956000Y-8875547D01*
X7952920Y-8906824D01*
X7944510Y-8934545D01*
X7930856Y-8960089D01*
X7912480Y-8982480D01*
X7890089Y-9000856D01*
X7864545Y-9014510D01*
X7836824Y-9022920D01*
X7805547Y-9026000D01*
X7414453Y-9026000D01*
X7383176Y-9022920D01*
X7355455Y-9014510D01*
X7329911Y-9000856D01*
X7307520Y-8982480D01*
X7289144Y-8960089D01*
X7275490Y-8934545D01*
X7267080Y-8906824D01*
X7264000Y-8875547D01*
X7264000Y-8434453D01*
X7267080Y-8403176D01*
X7275490Y-8375455D01*
X7289144Y-8349911D01*
X7307520Y-8327520D01*
X7329911Y-8309144D01*
X7355455Y-8295490D01*
X7383176Y-8287080D01*
X7414453Y-8284000D01*
X7805547Y-8284000D01*
X7836824Y-8287080D01*
G37*
G36*
X10426000Y-8576000D02*
G01*
X10024000Y-8576000D01*
X10024000Y-8174000D01*
X10426000Y-8174000D01*
X10426000Y-8576000D01*
G37*
G36*
X9776000Y-8576000D02*
G01*
X9374000Y-8576000D01*
X9374000Y-8174000D01*
X9776000Y-8174000D01*
X9776000Y-8576000D01*
G37*
G36*
X15626000Y-8576000D02*
G01*
X15224000Y-8576000D01*
X15224000Y-8174000D01*
X15626000Y-8174000D01*
X15626000Y-8576000D01*
G37*
G36*
X14976000Y-8576000D02*
G01*
X14574000Y-8576000D01*
X14574000Y-8174000D01*
X14976000Y-8174000D01*
X14976000Y-8576000D01*
G37*
G36*
X14326000Y-7926000D02*
G01*
X13924000Y-7926000D01*
X13924000Y-7524000D01*
X14326000Y-7524000D01*
X14326000Y-7926000D01*
G37*
G36*
X11076000Y-7926000D02*
G01*
X10674000Y-7926000D01*
X10674000Y-7524000D01*
X11076000Y-7524000D01*
X11076000Y-7926000D01*
G37*
G36*
X9776000Y-7926000D02*
G01*
X9374000Y-7926000D01*
X9374000Y-7524000D01*
X9776000Y-7524000D01*
X9776000Y-7926000D01*
G37*
G36*
X14976000Y-7926000D02*
G01*
X14574000Y-7926000D01*
X14574000Y-7524000D01*
X14976000Y-7524000D01*
X14976000Y-7926000D01*
G37*
G36*
X15626000Y-7926000D02*
G01*
X15224000Y-7926000D01*
X15224000Y-7524000D01*
X15626000Y-7524000D01*
X15626000Y-7926000D01*
G37*
G36*
X10426000Y-7926000D02*
G01*
X10024000Y-7926000D01*
X10024000Y-7524000D01*
X10426000Y-7524000D01*
X10426000Y-7926000D01*
G37*
G36*
X7451824Y-7162080D02*
G01*
X7479545Y-7170490D01*
X7505089Y-7184144D01*
X7527480Y-7202520D01*
X7545856Y-7224911D01*
X7559510Y-7250455D01*
X7567920Y-7278176D01*
X7571000Y-7309453D01*
X7571000Y-7700547D01*
X7567920Y-7731824D01*
X7559510Y-7759545D01*
X7545856Y-7785089D01*
X7527480Y-7807480D01*
X7505089Y-7825856D01*
X7479545Y-7839510D01*
X7451824Y-7847920D01*
X7420547Y-7851000D01*
X6979453Y-7851000D01*
X6948176Y-7847920D01*
X6920455Y-7839510D01*
X6894911Y-7825856D01*
X6872520Y-7807480D01*
X6854144Y-7785089D01*
X6840490Y-7759545D01*
X6832080Y-7731824D01*
X6829000Y-7700547D01*
X6829000Y-7309453D01*
X6832080Y-7278176D01*
X6840490Y-7250455D01*
X6854144Y-7224911D01*
X6872520Y-7202520D01*
X6894911Y-7184144D01*
X6920455Y-7170490D01*
X6948176Y-7162080D01*
X6979453Y-7159000D01*
X7420547Y-7159000D01*
X7451824Y-7162080D01*
G37*
G36*
X5796824Y-7157080D02*
G01*
X5824545Y-7165490D01*
X5850089Y-7179144D01*
X5872480Y-7197520D01*
X5890856Y-7219911D01*
X5904510Y-7245455D01*
X5912920Y-7273176D01*
X5916000Y-7304453D01*
X5916000Y-7695547D01*
X5912920Y-7726824D01*
X5904510Y-7754545D01*
X5890856Y-7780089D01*
X5872480Y-7802480D01*
X5850089Y-7820856D01*
X5824545Y-7834510D01*
X5796824Y-7842920D01*
X5765547Y-7846000D01*
X5324453Y-7846000D01*
X5293176Y-7842920D01*
X5265455Y-7834510D01*
X5239911Y-7820856D01*
X5217520Y-7802480D01*
X5199144Y-7780089D01*
X5185490Y-7754545D01*
X5177080Y-7726824D01*
X5174000Y-7695547D01*
X5174000Y-7304453D01*
X5177080Y-7273176D01*
X5185490Y-7245455D01*
X5199144Y-7219911D01*
X5217520Y-7197520D01*
X5239911Y-7179144D01*
X5265455Y-7165490D01*
X5293176Y-7157080D01*
X5324453Y-7154000D01*
X5765547Y-7154000D01*
X5796824Y-7157080D01*
G37*
G36*
X4051824Y-6702080D02*
G01*
X4079545Y-6710490D01*
X4105089Y-6724144D01*
X4127480Y-6742520D01*
X4145856Y-6764911D01*
X4159510Y-6790455D01*
X4167920Y-6818176D01*
X4171000Y-6849453D01*
X4171000Y-7240547D01*
X4167920Y-7271824D01*
X4159510Y-7299545D01*
X4145856Y-7325089D01*
X4127480Y-7347480D01*
X4105089Y-7365856D01*
X4079545Y-7379510D01*
X4051824Y-7387920D01*
X4020547Y-7391000D01*
X3579453Y-7391000D01*
X3548176Y-7387920D01*
X3520455Y-7379510D01*
X3494911Y-7365856D01*
X3472520Y-7347480D01*
X3454144Y-7325089D01*
X3440490Y-7299545D01*
X3432080Y-7271824D01*
X3429000Y-7240547D01*
X3429000Y-6849453D01*
X3432080Y-6818176D01*
X3440490Y-6790455D01*
X3454144Y-6764911D01*
X3472520Y-6742520D01*
X3494911Y-6724144D01*
X3520455Y-6710490D01*
X3548176Y-6702080D01*
X3579453Y-6699000D01*
X4020547Y-6699000D01*
X4051824Y-6702080D01*
G37*
G36*
X17476824Y-6642080D02*
G01*
X17504545Y-6650490D01*
X17530089Y-6664144D01*
X17552480Y-6682520D01*
X17570856Y-6704911D01*
X17584510Y-6730455D01*
X17592920Y-6758176D01*
X17596000Y-6789453D01*
X17596000Y-7180547D01*
X17592920Y-7211824D01*
X17584510Y-7239545D01*
X17570856Y-7265089D01*
X17552480Y-7287480D01*
X17530089Y-7305856D01*
X17504545Y-7319510D01*
X17476824Y-7327920D01*
X17445547Y-7331000D01*
X17004453Y-7331000D01*
X16973176Y-7327920D01*
X16945455Y-7319510D01*
X16919911Y-7305856D01*
X16897520Y-7287480D01*
X16879144Y-7265089D01*
X16865490Y-7239545D01*
X16857080Y-7211824D01*
X16854000Y-7180547D01*
X16854000Y-6789453D01*
X16857080Y-6758176D01*
X16865490Y-6730455D01*
X16879144Y-6704911D01*
X16897520Y-6682520D01*
X16919911Y-6664144D01*
X16945455Y-6650490D01*
X16973176Y-6642080D01*
X17004453Y-6639000D01*
X17445547Y-6639000D01*
X17476824Y-6642080D01*
G37*
G36*
X12376000Y-7276000D02*
G01*
X11974000Y-7276000D01*
X11974000Y-6874000D01*
X12376000Y-6874000D01*
X12376000Y-7276000D01*
G37*
G36*
X10426000Y-7276000D02*
G01*
X10024000Y-7276000D01*
X10024000Y-6874000D01*
X10426000Y-6874000D01*
X10426000Y-7276000D01*
G37*
G36*
X9776000Y-7276000D02*
G01*
X9374000Y-7276000D01*
X9374000Y-6874000D01*
X9776000Y-6874000D01*
X9776000Y-7276000D01*
G37*
G36*
X11076000Y-7276000D02*
G01*
X10674000Y-7276000D01*
X10674000Y-6874000D01*
X11076000Y-6874000D01*
X11076000Y-7276000D01*
G37*
G36*
X11726000Y-7276000D02*
G01*
X11324000Y-7276000D01*
X11324000Y-6874000D01*
X11726000Y-6874000D01*
X11726000Y-7276000D01*
G37*
G36*
X13026000Y-7276000D02*
G01*
X12624000Y-7276000D01*
X12624000Y-6874000D01*
X13026000Y-6874000D01*
X13026000Y-7276000D01*
G37*
G36*
X13676000Y-7276000D02*
G01*
X13274000Y-7276000D01*
X13274000Y-6874000D01*
X13676000Y-6874000D01*
X13676000Y-7276000D01*
G37*
G36*
X14326000Y-7276000D02*
G01*
X13924000Y-7276000D01*
X13924000Y-6874000D01*
X14326000Y-6874000D01*
X14326000Y-7276000D01*
G37*
G36*
X15626000Y-7276000D02*
G01*
X15224000Y-7276000D01*
X15224000Y-6874000D01*
X15626000Y-6874000D01*
X15626000Y-7276000D01*
G37*
G36*
X14976000Y-7276000D02*
G01*
X14574000Y-7276000D01*
X14574000Y-6874000D01*
X14976000Y-6874000D01*
X14976000Y-7276000D01*
G37*
G36*
X22151824Y-6192080D02*
G01*
X22179545Y-6200490D01*
X22205089Y-6214144D01*
X22227480Y-6232520D01*
X22245856Y-6254911D01*
X22259510Y-6280455D01*
X22267920Y-6308176D01*
X22271000Y-6339453D01*
X22271000Y-6780547D01*
X22267920Y-6811824D01*
X22259510Y-6839545D01*
X22245856Y-6865089D01*
X22227480Y-6887480D01*
X22205089Y-6905856D01*
X22179545Y-6919510D01*
X22151824Y-6927920D01*
X22120547Y-6931000D01*
X21729453Y-6931000D01*
X21698176Y-6927920D01*
X21670455Y-6919510D01*
X21644911Y-6905856D01*
X21622520Y-6887480D01*
X21604144Y-6865089D01*
X21590490Y-6839545D01*
X21582080Y-6811824D01*
X21579000Y-6780547D01*
X21579000Y-6339453D01*
X21582080Y-6308176D01*
X21590490Y-6280455D01*
X21604144Y-6254911D01*
X21622520Y-6232520D01*
X21644911Y-6214144D01*
X21670455Y-6200490D01*
X21698176Y-6192080D01*
X21729453Y-6189000D01*
X22120547Y-6189000D01*
X22151824Y-6192080D01*
G37*
G36*
X21181824Y-6192080D02*
G01*
X21209545Y-6200490D01*
X21235089Y-6214144D01*
X21257480Y-6232520D01*
X21275856Y-6254911D01*
X21289510Y-6280455D01*
X21297920Y-6308176D01*
X21301000Y-6339453D01*
X21301000Y-6780547D01*
X21297920Y-6811824D01*
X21289510Y-6839545D01*
X21275856Y-6865089D01*
X21257480Y-6887480D01*
X21235089Y-6905856D01*
X21209545Y-6919510D01*
X21181824Y-6927920D01*
X21150547Y-6931000D01*
X20759453Y-6931000D01*
X20728176Y-6927920D01*
X20700455Y-6919510D01*
X20674911Y-6905856D01*
X20652520Y-6887480D01*
X20634144Y-6865089D01*
X20620490Y-6839545D01*
X20612080Y-6811824D01*
X20609000Y-6780547D01*
X20609000Y-6339453D01*
X20612080Y-6308176D01*
X20620490Y-6280455D01*
X20634144Y-6254911D01*
X20652520Y-6232520D01*
X20674911Y-6214144D01*
X20700455Y-6200490D01*
X20728176Y-6192080D01*
X20759453Y-6189000D01*
X21150547Y-6189000D01*
X21181824Y-6192080D01*
G37*
G36*
X7451824Y-6192080D02*
G01*
X7479545Y-6200490D01*
X7505089Y-6214144D01*
X7527480Y-6232520D01*
X7545856Y-6254911D01*
X7559510Y-6280455D01*
X7567920Y-6308176D01*
X7571000Y-6339453D01*
X7571000Y-6730547D01*
X7567920Y-6761824D01*
X7559510Y-6789545D01*
X7545856Y-6815089D01*
X7527480Y-6837480D01*
X7505089Y-6855856D01*
X7479545Y-6869510D01*
X7451824Y-6877920D01*
X7420547Y-6881000D01*
X6979453Y-6881000D01*
X6948176Y-6877920D01*
X6920455Y-6869510D01*
X6894911Y-6855856D01*
X6872520Y-6837480D01*
X6854144Y-6815089D01*
X6840490Y-6789545D01*
X6832080Y-6761824D01*
X6829000Y-6730547D01*
X6829000Y-6339453D01*
X6832080Y-6308176D01*
X6840490Y-6280455D01*
X6854144Y-6254911D01*
X6872520Y-6232520D01*
X6894911Y-6214144D01*
X6920455Y-6200490D01*
X6948176Y-6192080D01*
X6979453Y-6189000D01*
X7420547Y-6189000D01*
X7451824Y-6192080D01*
G37*
G36*
X5796824Y-6187080D02*
G01*
X5824545Y-6195490D01*
X5850089Y-6209144D01*
X5872480Y-6227520D01*
X5890856Y-6249911D01*
X5904510Y-6275455D01*
X5912920Y-6303176D01*
X5916000Y-6334453D01*
X5916000Y-6725547D01*
X5912920Y-6756824D01*
X5904510Y-6784545D01*
X5890856Y-6810089D01*
X5872480Y-6832480D01*
X5850089Y-6850856D01*
X5824545Y-6864510D01*
X5796824Y-6872920D01*
X5765547Y-6876000D01*
X5324453Y-6876000D01*
X5293176Y-6872920D01*
X5265455Y-6864510D01*
X5239911Y-6850856D01*
X5217520Y-6832480D01*
X5199144Y-6810089D01*
X5185490Y-6784545D01*
X5177080Y-6756824D01*
X5174000Y-6725547D01*
X5174000Y-6334453D01*
X5177080Y-6303176D01*
X5185490Y-6275455D01*
X5199144Y-6249911D01*
X5217520Y-6227520D01*
X5239911Y-6209144D01*
X5265455Y-6195490D01*
X5293176Y-6187080D01*
X5324453Y-6184000D01*
X5765547Y-6184000D01*
X5796824Y-6187080D01*
G37*
G36*
X11726000Y-6626000D02*
G01*
X11324000Y-6626000D01*
X11324000Y-6224000D01*
X11726000Y-6224000D01*
X11726000Y-6626000D01*
G37*
G36*
X10426000Y-6626000D02*
G01*
X10024000Y-6626000D01*
X10024000Y-6224000D01*
X10426000Y-6224000D01*
X10426000Y-6626000D01*
G37*
G36*
X9776000Y-6626000D02*
G01*
X9374000Y-6626000D01*
X9374000Y-6224000D01*
X9776000Y-6224000D01*
X9776000Y-6626000D01*
G37*
G36*
X13026000Y-6626000D02*
G01*
X12624000Y-6626000D01*
X12624000Y-6224000D01*
X13026000Y-6224000D01*
X13026000Y-6626000D01*
G37*
G36*
X12376000Y-6626000D02*
G01*
X11974000Y-6626000D01*
X11974000Y-6224000D01*
X12376000Y-6224000D01*
X12376000Y-6626000D01*
G37*
G36*
X14326000Y-6626000D02*
G01*
X13924000Y-6626000D01*
X13924000Y-6224000D01*
X14326000Y-6224000D01*
X14326000Y-6626000D01*
G37*
G36*
X13676000Y-6626000D02*
G01*
X13274000Y-6626000D01*
X13274000Y-6224000D01*
X13676000Y-6224000D01*
X13676000Y-6626000D01*
G37*
G36*
X11076000Y-6626000D02*
G01*
X10674000Y-6626000D01*
X10674000Y-6224000D01*
X11076000Y-6224000D01*
X11076000Y-6626000D01*
G37*
G36*
X14976000Y-6626000D02*
G01*
X14574000Y-6626000D01*
X14574000Y-6224000D01*
X14976000Y-6224000D01*
X14976000Y-6626000D01*
G37*
G36*
X15626000Y-6626000D02*
G01*
X15224000Y-6626000D01*
X15224000Y-6224000D01*
X15626000Y-6224000D01*
X15626000Y-6626000D01*
G37*
G36*
X4051824Y-5732080D02*
G01*
X4079545Y-5740490D01*
X4105089Y-5754144D01*
X4127480Y-5772520D01*
X4145856Y-5794911D01*
X4159510Y-5820455D01*
X4167920Y-5848176D01*
X4171000Y-5879453D01*
X4171000Y-6270547D01*
X4167920Y-6301824D01*
X4159510Y-6329545D01*
X4145856Y-6355089D01*
X4127480Y-6377480D01*
X4105089Y-6395856D01*
X4079545Y-6409510D01*
X4051824Y-6417920D01*
X4020547Y-6421000D01*
X3579453Y-6421000D01*
X3548176Y-6417920D01*
X3520455Y-6409510D01*
X3494911Y-6395856D01*
X3472520Y-6377480D01*
X3454144Y-6355089D01*
X3440490Y-6329545D01*
X3432080Y-6301824D01*
X3429000Y-6270547D01*
X3429000Y-5879453D01*
X3432080Y-5848176D01*
X3440490Y-5820455D01*
X3454144Y-5794911D01*
X3472520Y-5772520D01*
X3494911Y-5754144D01*
X3520455Y-5740490D01*
X3548176Y-5732080D01*
X3579453Y-5729000D01*
X4020547Y-5729000D01*
X4051824Y-5732080D01*
G37*
G36*
X17476824Y-5672080D02*
G01*
X17504545Y-5680490D01*
X17530089Y-5694144D01*
X17552480Y-5712520D01*
X17570856Y-5734911D01*
X17584510Y-5760455D01*
X17592920Y-5788176D01*
X17596000Y-5819453D01*
X17596000Y-6210547D01*
X17592920Y-6241824D01*
X17584510Y-6269545D01*
X17570856Y-6295089D01*
X17552480Y-6317480D01*
X17530089Y-6335856D01*
X17504545Y-6349510D01*
X17476824Y-6357920D01*
X17445547Y-6361000D01*
X17004453Y-6361000D01*
X16973176Y-6357920D01*
X16945455Y-6349510D01*
X16919911Y-6335856D01*
X16897520Y-6317480D01*
X16879144Y-6295089D01*
X16865490Y-6269545D01*
X16857080Y-6241824D01*
X16854000Y-6210547D01*
X16854000Y-5819453D01*
X16857080Y-5788176D01*
X16865490Y-5760455D01*
X16879144Y-5734911D01*
X16897520Y-5712520D01*
X16919911Y-5694144D01*
X16945455Y-5680490D01*
X16973176Y-5672080D01*
X17004453Y-5669000D01*
X17445547Y-5669000D01*
X17476824Y-5672080D01*
G37*
G36*
X12376000Y-5976000D02*
G01*
X11974000Y-5976000D01*
X11974000Y-5574000D01*
X12376000Y-5574000D01*
X12376000Y-5976000D01*
G37*
G36*
X11076000Y-5976000D02*
G01*
X10674000Y-5976000D01*
X10674000Y-5574000D01*
X11076000Y-5574000D01*
X11076000Y-5976000D01*
G37*
G36*
X15626000Y-5976000D02*
G01*
X15224000Y-5976000D01*
X15224000Y-5574000D01*
X15626000Y-5574000D01*
X15626000Y-5976000D01*
G37*
G36*
X13026000Y-5976000D02*
G01*
X12624000Y-5976000D01*
X12624000Y-5574000D01*
X13026000Y-5574000D01*
X13026000Y-5976000D01*
G37*
G36*
X11726000Y-5976000D02*
G01*
X11324000Y-5976000D01*
X11324000Y-5574000D01*
X11726000Y-5574000D01*
X11726000Y-5976000D01*
G37*
G36*
X13676000Y-5976000D02*
G01*
X13274000Y-5976000D01*
X13274000Y-5574000D01*
X13676000Y-5574000D01*
X13676000Y-5976000D01*
G37*
G36*
X10426000Y-5976000D02*
G01*
X10024000Y-5976000D01*
X10024000Y-5574000D01*
X10426000Y-5574000D01*
X10426000Y-5976000D01*
G37*
G36*
X14976000Y-5976000D02*
G01*
X14574000Y-5976000D01*
X14574000Y-5574000D01*
X14976000Y-5574000D01*
X14976000Y-5976000D01*
G37*
G36*
X9776000Y-5976000D02*
G01*
X9374000Y-5976000D01*
X9374000Y-5574000D01*
X9776000Y-5574000D01*
X9776000Y-5976000D01*
G37*
G36*
X14326000Y-5976000D02*
G01*
X13924000Y-5976000D01*
X13924000Y-5574000D01*
X14326000Y-5574000D01*
X14326000Y-5976000D01*
G37*
G36*
X22151824Y-5192080D02*
G01*
X22179545Y-5200490D01*
X22205089Y-5214144D01*
X22227480Y-5232520D01*
X22245856Y-5254911D01*
X22259510Y-5280455D01*
X22267920Y-5308176D01*
X22271000Y-5339453D01*
X22271000Y-5780547D01*
X22267920Y-5811824D01*
X22259510Y-5839545D01*
X22245856Y-5865089D01*
X22227480Y-5887480D01*
X22205089Y-5905856D01*
X22179545Y-5919510D01*
X22151824Y-5927920D01*
X22120547Y-5931000D01*
X21729453Y-5931000D01*
X21698176Y-5927920D01*
X21670455Y-5919510D01*
X21644911Y-5905856D01*
X21622520Y-5887480D01*
X21604144Y-5865089D01*
X21590490Y-5839545D01*
X21582080Y-5811824D01*
X21579000Y-5780547D01*
X21579000Y-5339453D01*
X21582080Y-5308176D01*
X21590490Y-5280455D01*
X21604144Y-5254911D01*
X21622520Y-5232520D01*
X21644911Y-5214144D01*
X21670455Y-5200490D01*
X21698176Y-5192080D01*
X21729453Y-5189000D01*
X22120547Y-5189000D01*
X22151824Y-5192080D01*
G37*
G36*
X21181824Y-5192080D02*
G01*
X21209545Y-5200490D01*
X21235089Y-5214144D01*
X21257480Y-5232520D01*
X21275856Y-5254911D01*
X21289510Y-5280455D01*
X21297920Y-5308176D01*
X21301000Y-5339453D01*
X21301000Y-5780547D01*
X21297920Y-5811824D01*
X21289510Y-5839545D01*
X21275856Y-5865089D01*
X21257480Y-5887480D01*
X21235089Y-5905856D01*
X21209545Y-5919510D01*
X21181824Y-5927920D01*
X21150547Y-5931000D01*
X20759453Y-5931000D01*
X20728176Y-5927920D01*
X20700455Y-5919510D01*
X20674911Y-5905856D01*
X20652520Y-5887480D01*
X20634144Y-5865089D01*
X20620490Y-5839545D01*
X20612080Y-5811824D01*
X20609000Y-5780547D01*
X20609000Y-5339453D01*
X20612080Y-5308176D01*
X20620490Y-5280455D01*
X20634144Y-5254911D01*
X20652520Y-5232520D01*
X20674911Y-5214144D01*
X20700455Y-5200490D01*
X20728176Y-5192080D01*
X20759453Y-5189000D01*
X21150547Y-5189000D01*
X21181824Y-5192080D01*
G37*
G36*
X21181824Y-4192080D02*
G01*
X21209545Y-4200490D01*
X21235089Y-4214144D01*
X21257480Y-4232520D01*
X21275856Y-4254911D01*
X21289510Y-4280455D01*
X21297920Y-4308176D01*
X21301000Y-4339453D01*
X21301000Y-4780547D01*
X21297920Y-4811824D01*
X21289510Y-4839545D01*
X21275856Y-4865089D01*
X21257480Y-4887480D01*
X21235089Y-4905856D01*
X21209545Y-4919510D01*
X21181824Y-4927920D01*
X21150547Y-4931000D01*
X20759453Y-4931000D01*
X20728176Y-4927920D01*
X20700455Y-4919510D01*
X20674911Y-4905856D01*
X20652520Y-4887480D01*
X20634144Y-4865089D01*
X20620490Y-4839545D01*
X20612080Y-4811824D01*
X20609000Y-4780547D01*
X20609000Y-4339453D01*
X20612080Y-4308176D01*
X20620490Y-4280455D01*
X20634144Y-4254911D01*
X20652520Y-4232520D01*
X20674911Y-4214144D01*
X20700455Y-4200490D01*
X20728176Y-4192080D01*
X20759453Y-4189000D01*
X21150547Y-4189000D01*
X21181824Y-4192080D01*
G37*
G36*
X22151824Y-4192080D02*
G01*
X22179545Y-4200490D01*
X22205089Y-4214144D01*
X22227480Y-4232520D01*
X22245856Y-4254911D01*
X22259510Y-4280455D01*
X22267920Y-4308176D01*
X22271000Y-4339453D01*
X22271000Y-4780547D01*
X22267920Y-4811824D01*
X22259510Y-4839545D01*
X22245856Y-4865089D01*
X22227480Y-4887480D01*
X22205089Y-4905856D01*
X22179545Y-4919510D01*
X22151824Y-4927920D01*
X22120547Y-4931000D01*
X21729453Y-4931000D01*
X21698176Y-4927920D01*
X21670455Y-4919510D01*
X21644911Y-4905856D01*
X21622520Y-4887480D01*
X21604144Y-4865089D01*
X21590490Y-4839545D01*
X21582080Y-4811824D01*
X21579000Y-4780547D01*
X21579000Y-4339453D01*
X21582080Y-4308176D01*
X21590490Y-4280455D01*
X21604144Y-4254911D01*
X21622520Y-4232520D01*
X21644911Y-4214144D01*
X21670455Y-4200490D01*
X21698176Y-4192080D01*
X21729453Y-4189000D01*
X22120547Y-4189000D01*
X22151824Y-4192080D01*
G37*
G36*
X17246824Y-3862080D02*
G01*
X17274545Y-3870490D01*
X17300089Y-3884144D01*
X17322480Y-3902520D01*
X17340856Y-3924911D01*
X17354510Y-3950455D01*
X17362920Y-3978176D01*
X17366000Y-4009453D01*
X17366000Y-4450547D01*
X17362920Y-4481824D01*
X17354510Y-4509545D01*
X17340856Y-4535089D01*
X17322480Y-4557480D01*
X17300089Y-4575856D01*
X17274545Y-4589510D01*
X17246824Y-4597920D01*
X17215547Y-4601000D01*
X16824453Y-4601000D01*
X16793176Y-4597920D01*
X16765455Y-4589510D01*
X16739911Y-4575856D01*
X16717520Y-4557480D01*
X16699144Y-4535089D01*
X16685490Y-4509545D01*
X16677080Y-4481824D01*
X16674000Y-4450547D01*
X16674000Y-4009453D01*
X16677080Y-3978176D01*
X16685490Y-3950455D01*
X16699144Y-3924911D01*
X16717520Y-3902520D01*
X16739911Y-3884144D01*
X16765455Y-3870490D01*
X16793176Y-3862080D01*
X16824453Y-3859000D01*
X17215547Y-3859000D01*
X17246824Y-3862080D01*
G37*
G36*
X18216824Y-3862080D02*
G01*
X18244545Y-3870490D01*
X18270089Y-3884144D01*
X18292480Y-3902520D01*
X18310856Y-3924911D01*
X18324510Y-3950455D01*
X18332920Y-3978176D01*
X18336000Y-4009453D01*
X18336000Y-4450547D01*
X18332920Y-4481824D01*
X18324510Y-4509545D01*
X18310856Y-4535089D01*
X18292480Y-4557480D01*
X18270089Y-4575856D01*
X18244545Y-4589510D01*
X18216824Y-4597920D01*
X18185547Y-4601000D01*
X17794453Y-4601000D01*
X17763176Y-4597920D01*
X17735455Y-4589510D01*
X17709911Y-4575856D01*
X17687520Y-4557480D01*
X17669144Y-4535089D01*
X17655490Y-4509545D01*
X17647080Y-4481824D01*
X17644000Y-4450547D01*
X17644000Y-4009453D01*
X17647080Y-3978176D01*
X17655490Y-3950455D01*
X17669144Y-3924911D01*
X17687520Y-3902520D01*
X17709911Y-3884144D01*
X17735455Y-3870490D01*
X17763176Y-3862080D01*
X17794453Y-3859000D01*
X18185547Y-3859000D01*
X18216824Y-3862080D01*
G37*
G36*
X7891824Y-3847080D02*
G01*
X7919545Y-3855490D01*
X7945089Y-3869144D01*
X7967480Y-3887520D01*
X7985856Y-3909911D01*
X7999510Y-3935455D01*
X8007920Y-3963176D01*
X8011000Y-3994453D01*
X8011000Y-4385547D01*
X8007920Y-4416824D01*
X7999510Y-4444545D01*
X7985856Y-4470089D01*
X7967480Y-4492480D01*
X7945089Y-4510856D01*
X7919545Y-4524510D01*
X7891824Y-4532920D01*
X7860547Y-4536000D01*
X7419453Y-4536000D01*
X7388176Y-4532920D01*
X7360455Y-4524510D01*
X7334911Y-4510856D01*
X7312520Y-4492480D01*
X7294144Y-4470089D01*
X7280490Y-4444545D01*
X7272080Y-4416824D01*
X7269000Y-4385547D01*
X7269000Y-3994453D01*
X7272080Y-3963176D01*
X7280490Y-3935455D01*
X7294144Y-3909911D01*
X7312520Y-3887520D01*
X7334911Y-3869144D01*
X7360455Y-3855490D01*
X7388176Y-3847080D01*
X7419453Y-3844000D01*
X7860547Y-3844000D01*
X7891824Y-3847080D01*
G37*
G36*
X8901824Y-3847080D02*
G01*
X8929545Y-3855490D01*
X8955089Y-3869144D01*
X8977480Y-3887520D01*
X8995856Y-3909911D01*
X9009510Y-3935455D01*
X9017920Y-3963176D01*
X9021000Y-3994453D01*
X9021000Y-4385547D01*
X9017920Y-4416824D01*
X9009510Y-4444545D01*
X8995856Y-4470089D01*
X8977480Y-4492480D01*
X8955089Y-4510856D01*
X8929545Y-4524510D01*
X8901824Y-4532920D01*
X8870547Y-4536000D01*
X8429453Y-4536000D01*
X8398176Y-4532920D01*
X8370455Y-4524510D01*
X8344911Y-4510856D01*
X8322520Y-4492480D01*
X8304144Y-4470089D01*
X8290490Y-4444545D01*
X8282080Y-4416824D01*
X8279000Y-4385547D01*
X8279000Y-3994453D01*
X8282080Y-3963176D01*
X8290490Y-3935455D01*
X8304144Y-3909911D01*
X8322520Y-3887520D01*
X8344911Y-3869144D01*
X8370455Y-3855490D01*
X8398176Y-3847080D01*
X8429453Y-3844000D01*
X8870547Y-3844000D01*
X8901824Y-3847080D01*
G37*
G36*
X9921824Y-3847080D02*
G01*
X9949545Y-3855490D01*
X9975089Y-3869144D01*
X9997480Y-3887520D01*
X10015856Y-3909911D01*
X10029510Y-3935455D01*
X10037920Y-3963176D01*
X10041000Y-3994453D01*
X10041000Y-4385547D01*
X10037920Y-4416824D01*
X10029510Y-4444545D01*
X10015856Y-4470089D01*
X9997480Y-4492480D01*
X9975089Y-4510856D01*
X9949545Y-4524510D01*
X9921824Y-4532920D01*
X9890547Y-4536000D01*
X9449453Y-4536000D01*
X9418176Y-4532920D01*
X9390455Y-4524510D01*
X9364911Y-4510856D01*
X9342520Y-4492480D01*
X9324144Y-4470089D01*
X9310490Y-4444545D01*
X9302080Y-4416824D01*
X9299000Y-4385547D01*
X9299000Y-3994453D01*
X9302080Y-3963176D01*
X9310490Y-3935455D01*
X9324144Y-3909911D01*
X9342520Y-3887520D01*
X9364911Y-3869144D01*
X9390455Y-3855490D01*
X9418176Y-3847080D01*
X9449453Y-3844000D01*
X9890547Y-3844000D01*
X9921824Y-3847080D01*
G37*
G36*
X19266824Y-3842080D02*
G01*
X19294545Y-3850490D01*
X19320089Y-3864144D01*
X19342480Y-3882520D01*
X19360856Y-3904911D01*
X19374510Y-3930455D01*
X19382920Y-3958176D01*
X19386000Y-3989453D01*
X19386000Y-4380547D01*
X19382920Y-4411824D01*
X19374510Y-4439545D01*
X19360856Y-4465089D01*
X19342480Y-4487480D01*
X19320089Y-4505856D01*
X19294545Y-4519510D01*
X19266824Y-4527920D01*
X19235547Y-4531000D01*
X18794453Y-4531000D01*
X18763176Y-4527920D01*
X18735455Y-4519510D01*
X18709911Y-4505856D01*
X18687520Y-4487480D01*
X18669144Y-4465089D01*
X18655490Y-4439545D01*
X18647080Y-4411824D01*
X18644000Y-4380547D01*
X18644000Y-3989453D01*
X18647080Y-3958176D01*
X18655490Y-3930455D01*
X18669144Y-3904911D01*
X18687520Y-3882520D01*
X18709911Y-3864144D01*
X18735455Y-3850490D01*
X18763176Y-3842080D01*
X18794453Y-3839000D01*
X19235547Y-3839000D01*
X19266824Y-3842080D01*
G37*
G36*
X2690719Y-3260974D02*
G01*
X2720090Y-3273140D01*
X2790996Y-3302510D01*
X2881242Y-3362810D01*
X2957990Y-3439558D01*
X3018290Y-3529804D01*
X3031906Y-3562676D01*
X3059826Y-3630081D01*
X3081000Y-3736530D01*
X3081000Y-3845070D01*
X3059826Y-3951519D01*
X3054997Y-3963176D01*
X3018290Y-4051796D01*
X2957990Y-4142042D01*
X2881242Y-4218790D01*
X2790996Y-4279090D01*
X2720776Y-4308176D01*
X2690719Y-4320626D01*
X2584270Y-4341800D01*
X2475730Y-4341800D01*
X2369281Y-4320626D01*
X2339224Y-4308176D01*
X2269004Y-4279090D01*
X2178758Y-4218790D01*
X2102010Y-4142042D01*
X2041710Y-4051796D01*
X2005003Y-3963176D01*
X2000174Y-3951519D01*
X1979000Y-3845070D01*
X1979000Y-3736530D01*
X2000174Y-3630081D01*
X2028094Y-3562676D01*
X2041710Y-3529804D01*
X2102010Y-3439558D01*
X2178758Y-3362810D01*
X2269004Y-3302510D01*
X2339910Y-3273140D01*
X2369281Y-3260974D01*
X2475730Y-3239800D01*
X2584270Y-3239800D01*
X2690719Y-3260974D01*
G37*
G36*
X22151824Y-3192080D02*
G01*
X22179545Y-3200490D01*
X22205089Y-3214144D01*
X22227480Y-3232520D01*
X22245856Y-3254911D01*
X22259510Y-3280455D01*
X22267920Y-3308176D01*
X22271000Y-3339453D01*
X22271000Y-3780547D01*
X22267920Y-3811824D01*
X22259510Y-3839545D01*
X22245856Y-3865089D01*
X22227480Y-3887480D01*
X22205089Y-3905856D01*
X22179545Y-3919510D01*
X22151824Y-3927920D01*
X22120547Y-3931000D01*
X21729453Y-3931000D01*
X21698176Y-3927920D01*
X21670455Y-3919510D01*
X21644911Y-3905856D01*
X21622520Y-3887480D01*
X21604144Y-3865089D01*
X21590490Y-3839545D01*
X21582080Y-3811824D01*
X21579000Y-3780547D01*
X21579000Y-3339453D01*
X21582080Y-3308176D01*
X21590490Y-3280455D01*
X21604144Y-3254911D01*
X21622520Y-3232520D01*
X21644911Y-3214144D01*
X21670455Y-3200490D01*
X21698176Y-3192080D01*
X21729453Y-3189000D01*
X22120547Y-3189000D01*
X22151824Y-3192080D01*
G37*
G36*
X21181824Y-3192080D02*
G01*
X21209545Y-3200490D01*
X21235089Y-3214144D01*
X21257480Y-3232520D01*
X21275856Y-3254911D01*
X21289510Y-3280455D01*
X21297920Y-3308176D01*
X21301000Y-3339453D01*
X21301000Y-3780547D01*
X21297920Y-3811824D01*
X21289510Y-3839545D01*
X21275856Y-3865089D01*
X21257480Y-3887480D01*
X21235089Y-3905856D01*
X21209545Y-3919510D01*
X21181824Y-3927920D01*
X21150547Y-3931000D01*
X20759453Y-3931000D01*
X20728176Y-3927920D01*
X20700455Y-3919510D01*
X20674911Y-3905856D01*
X20652520Y-3887480D01*
X20634144Y-3865089D01*
X20620490Y-3839545D01*
X20612080Y-3811824D01*
X20609000Y-3780547D01*
X20609000Y-3339453D01*
X20612080Y-3308176D01*
X20620490Y-3280455D01*
X20634144Y-3254911D01*
X20652520Y-3232520D01*
X20674911Y-3214144D01*
X20700455Y-3200490D01*
X20728176Y-3192080D01*
X20759453Y-3189000D01*
X21150547Y-3189000D01*
X21181824Y-3192080D01*
G37*
G36*
X12001824Y-3192080D02*
G01*
X12029545Y-3200490D01*
X12055089Y-3214144D01*
X12077480Y-3232520D01*
X12095856Y-3254911D01*
X12109510Y-3280455D01*
X12117920Y-3308176D01*
X12121000Y-3339453D01*
X12121000Y-3730547D01*
X12117920Y-3761824D01*
X12109510Y-3789545D01*
X12095856Y-3815089D01*
X12077480Y-3837480D01*
X12055089Y-3855856D01*
X12029545Y-3869510D01*
X12001824Y-3877920D01*
X11970547Y-3881000D01*
X11529453Y-3881000D01*
X11498176Y-3877920D01*
X11470455Y-3869510D01*
X11444911Y-3855856D01*
X11422520Y-3837480D01*
X11404144Y-3815089D01*
X11390490Y-3789545D01*
X11382080Y-3761824D01*
X11379000Y-3730547D01*
X11379000Y-3339453D01*
X11382080Y-3308176D01*
X11390490Y-3280455D01*
X11404144Y-3254911D01*
X11422520Y-3232520D01*
X11444911Y-3214144D01*
X11470455Y-3200490D01*
X11498176Y-3192080D01*
X11529453Y-3189000D01*
X11970547Y-3189000D01*
X12001824Y-3192080D01*
G37*
G36*
X13421824Y-3142080D02*
G01*
X13449545Y-3150490D01*
X13475089Y-3164144D01*
X13497480Y-3182520D01*
X13515856Y-3204911D01*
X13529510Y-3230455D01*
X13537920Y-3258176D01*
X13541000Y-3289453D01*
X13541000Y-3680547D01*
X13537920Y-3711824D01*
X13529510Y-3739545D01*
X13515856Y-3765089D01*
X13497480Y-3787480D01*
X13475089Y-3805856D01*
X13449545Y-3819510D01*
X13421824Y-3827920D01*
X13390547Y-3831000D01*
X12949453Y-3831000D01*
X12918176Y-3827920D01*
X12890455Y-3819510D01*
X12864911Y-3805856D01*
X12842520Y-3787480D01*
X12824144Y-3765089D01*
X12810490Y-3739545D01*
X12802080Y-3711824D01*
X12799000Y-3680547D01*
X12799000Y-3289453D01*
X12802080Y-3258176D01*
X12810490Y-3230455D01*
X12824144Y-3204911D01*
X12842520Y-3182520D01*
X12864911Y-3164144D01*
X12890455Y-3150490D01*
X12918176Y-3142080D01*
X12949453Y-3139000D01*
X13390547Y-3139000D01*
X13421824Y-3142080D01*
G37*
G36*
X15441824Y-3142080D02*
G01*
X15469545Y-3150490D01*
X15495089Y-3164144D01*
X15517480Y-3182520D01*
X15535856Y-3204911D01*
X15549510Y-3230455D01*
X15557920Y-3258176D01*
X15561000Y-3289453D01*
X15561000Y-3680547D01*
X15557920Y-3711824D01*
X15549510Y-3739545D01*
X15535856Y-3765089D01*
X15517480Y-3787480D01*
X15495089Y-3805856D01*
X15469545Y-3819510D01*
X15441824Y-3827920D01*
X15410547Y-3831000D01*
X14969453Y-3831000D01*
X14938176Y-3827920D01*
X14910455Y-3819510D01*
X14884911Y-3805856D01*
X14862520Y-3787480D01*
X14844144Y-3765089D01*
X14830490Y-3739545D01*
X14822080Y-3711824D01*
X14819000Y-3680547D01*
X14819000Y-3289453D01*
X14822080Y-3258176D01*
X14830490Y-3230455D01*
X14844144Y-3204911D01*
X14862520Y-3182520D01*
X14884911Y-3164144D01*
X14910455Y-3150490D01*
X14938176Y-3142080D01*
X14969453Y-3139000D01*
X15410547Y-3139000D01*
X15441824Y-3142080D01*
G37*
G36*
X14431824Y-3142080D02*
G01*
X14459545Y-3150490D01*
X14485089Y-3164144D01*
X14507480Y-3182520D01*
X14525856Y-3204911D01*
X14539510Y-3230455D01*
X14547920Y-3258176D01*
X14551000Y-3289453D01*
X14551000Y-3680547D01*
X14547920Y-3711824D01*
X14539510Y-3739545D01*
X14525856Y-3765089D01*
X14507480Y-3787480D01*
X14485089Y-3805856D01*
X14459545Y-3819510D01*
X14431824Y-3827920D01*
X14400547Y-3831000D01*
X13959453Y-3831000D01*
X13928176Y-3827920D01*
X13900455Y-3819510D01*
X13874911Y-3805856D01*
X13852520Y-3787480D01*
X13834144Y-3765089D01*
X13820490Y-3739545D01*
X13812080Y-3711824D01*
X13809000Y-3680547D01*
X13809000Y-3289453D01*
X13812080Y-3258176D01*
X13820490Y-3230455D01*
X13834144Y-3204911D01*
X13852520Y-3182520D01*
X13874911Y-3164144D01*
X13900455Y-3150490D01*
X13928176Y-3142080D01*
X13959453Y-3139000D01*
X14400547Y-3139000D01*
X14431824Y-3142080D01*
G37*
G36*
X7891824Y-2877080D02*
G01*
X7919545Y-2885490D01*
X7945089Y-2899144D01*
X7967480Y-2917520D01*
X7985856Y-2939911D01*
X7999510Y-2965455D01*
X8007920Y-2993176D01*
X8011000Y-3024453D01*
X8011000Y-3415547D01*
X8007920Y-3446824D01*
X7999510Y-3474545D01*
X7985856Y-3500089D01*
X7967480Y-3522480D01*
X7945089Y-3540856D01*
X7919545Y-3554510D01*
X7891824Y-3562920D01*
X7860547Y-3566000D01*
X7419453Y-3566000D01*
X7388176Y-3562920D01*
X7360455Y-3554510D01*
X7334911Y-3540856D01*
X7312520Y-3522480D01*
X7294144Y-3500089D01*
X7280490Y-3474545D01*
X7272080Y-3446824D01*
X7269000Y-3415547D01*
X7269000Y-3024453D01*
X7272080Y-2993176D01*
X7280490Y-2965455D01*
X7294144Y-2939911D01*
X7312520Y-2917520D01*
X7334911Y-2899144D01*
X7360455Y-2885490D01*
X7388176Y-2877080D01*
X7419453Y-2874000D01*
X7860547Y-2874000D01*
X7891824Y-2877080D01*
G37*
G36*
X9921824Y-2877080D02*
G01*
X9949545Y-2885490D01*
X9975089Y-2899144D01*
X9997480Y-2917520D01*
X10015856Y-2939911D01*
X10029510Y-2965455D01*
X10037920Y-2993176D01*
X10041000Y-3024453D01*
X10041000Y-3415547D01*
X10037920Y-3446824D01*
X10029510Y-3474545D01*
X10015856Y-3500089D01*
X9997480Y-3522480D01*
X9975089Y-3540856D01*
X9949545Y-3554510D01*
X9921824Y-3562920D01*
X9890547Y-3566000D01*
X9449453Y-3566000D01*
X9418176Y-3562920D01*
X9390455Y-3554510D01*
X9364911Y-3540856D01*
X9342520Y-3522480D01*
X9324144Y-3500089D01*
X9310490Y-3474545D01*
X9302080Y-3446824D01*
X9299000Y-3415547D01*
X9299000Y-3024453D01*
X9302080Y-2993176D01*
X9310490Y-2965455D01*
X9324144Y-2939911D01*
X9342520Y-2917520D01*
X9364911Y-2899144D01*
X9390455Y-2885490D01*
X9418176Y-2877080D01*
X9449453Y-2874000D01*
X9890547Y-2874000D01*
X9921824Y-2877080D01*
G37*
G36*
X8901824Y-2877080D02*
G01*
X8929545Y-2885490D01*
X8955089Y-2899144D01*
X8977480Y-2917520D01*
X8995856Y-2939911D01*
X9009510Y-2965455D01*
X9017920Y-2993176D01*
X9021000Y-3024453D01*
X9021000Y-3415547D01*
X9017920Y-3446824D01*
X9009510Y-3474545D01*
X8995856Y-3500089D01*
X8977480Y-3522480D01*
X8955089Y-3540856D01*
X8929545Y-3554510D01*
X8901824Y-3562920D01*
X8870547Y-3566000D01*
X8429453Y-3566000D01*
X8398176Y-3562920D01*
X8370455Y-3554510D01*
X8344911Y-3540856D01*
X8322520Y-3522480D01*
X8304144Y-3500089D01*
X8290490Y-3474545D01*
X8282080Y-3446824D01*
X8279000Y-3415547D01*
X8279000Y-3024453D01*
X8282080Y-2993176D01*
X8290490Y-2965455D01*
X8304144Y-2939911D01*
X8322520Y-2917520D01*
X8344911Y-2899144D01*
X8370455Y-2885490D01*
X8398176Y-2877080D01*
X8429453Y-2874000D01*
X8870547Y-2874000D01*
X8901824Y-2877080D01*
G37*
G36*
X19266824Y-2872080D02*
G01*
X19294545Y-2880490D01*
X19320089Y-2894144D01*
X19342480Y-2912520D01*
X19360856Y-2934911D01*
X19374510Y-2960455D01*
X19382920Y-2988176D01*
X19386000Y-3019453D01*
X19386000Y-3410547D01*
X19382920Y-3441824D01*
X19374510Y-3469545D01*
X19360856Y-3495089D01*
X19342480Y-3517480D01*
X19320089Y-3535856D01*
X19294545Y-3549510D01*
X19266824Y-3557920D01*
X19235547Y-3561000D01*
X18794453Y-3561000D01*
X18763176Y-3557920D01*
X18735455Y-3549510D01*
X18709911Y-3535856D01*
X18687520Y-3517480D01*
X18669144Y-3495089D01*
X18655490Y-3469545D01*
X18647080Y-3441824D01*
X18644000Y-3410547D01*
X18644000Y-3019453D01*
X18647080Y-2988176D01*
X18655490Y-2960455D01*
X18669144Y-2934911D01*
X18687520Y-2912520D01*
X18709911Y-2894144D01*
X18735455Y-2880490D01*
X18763176Y-2872080D01*
X18794453Y-2869000D01*
X19235547Y-2869000D01*
X19266824Y-2872080D01*
G37*
G36*
X17010719Y-2260974D02*
G01*
X17010722Y-2260975D01*
X17010721Y-2260975D01*
X17110996Y-2302510D01*
X17201242Y-2362810D01*
X17277990Y-2439558D01*
X17338290Y-2529804D01*
X17338290Y-2529805D01*
X17379826Y-2630081D01*
X17401000Y-2736530D01*
X17401000Y-2845070D01*
X17379826Y-2951519D01*
X17374053Y-2965455D01*
X17338290Y-3051796D01*
X17277990Y-3142042D01*
X17201242Y-3218790D01*
X17110996Y-3279090D01*
X17054455Y-3302510D01*
X17010719Y-3320626D01*
X16904270Y-3341800D01*
X16795730Y-3341800D01*
X16689281Y-3320626D01*
X16645545Y-3302510D01*
X16589004Y-3279090D01*
X16498758Y-3218790D01*
X16422010Y-3142042D01*
X16361710Y-3051796D01*
X16325947Y-2965455D01*
X16320174Y-2951519D01*
X16299000Y-2845070D01*
X16299000Y-2736530D01*
X16320174Y-2630081D01*
X16361710Y-2529805D01*
X16361710Y-2529804D01*
X16422010Y-2439558D01*
X16498758Y-2362810D01*
X16589004Y-2302510D01*
X16689279Y-2260975D01*
X16689278Y-2260975D01*
X16689281Y-2260974D01*
X16795730Y-2239800D01*
X16904270Y-2239800D01*
X17010719Y-2260974D01*
G37*
G36*
X12001824Y-2222080D02*
G01*
X12029545Y-2230490D01*
X12055089Y-2244144D01*
X12077480Y-2262520D01*
X12095856Y-2284911D01*
X12109510Y-2310455D01*
X12117920Y-2338176D01*
X12121000Y-2369453D01*
X12121000Y-2760547D01*
X12117920Y-2791824D01*
X12109510Y-2819545D01*
X12095856Y-2845089D01*
X12077480Y-2867480D01*
X12055089Y-2885856D01*
X12029545Y-2899510D01*
X12001824Y-2907920D01*
X11970547Y-2911000D01*
X11529453Y-2911000D01*
X11498176Y-2907920D01*
X11470455Y-2899510D01*
X11444911Y-2885856D01*
X11422520Y-2867480D01*
X11404144Y-2845089D01*
X11390490Y-2819545D01*
X11382080Y-2791824D01*
X11379000Y-2760547D01*
X11379000Y-2369453D01*
X11382080Y-2338176D01*
X11390490Y-2310455D01*
X11404144Y-2284911D01*
X11422520Y-2262520D01*
X11444911Y-2244144D01*
X11470455Y-2230490D01*
X11498176Y-2222080D01*
X11529453Y-2219000D01*
X11970547Y-2219000D01*
X12001824Y-2222080D01*
G37*
G36*
X15441824Y-2172080D02*
G01*
X15469545Y-2180490D01*
X15495089Y-2194144D01*
X15517480Y-2212520D01*
X15535856Y-2234911D01*
X15549510Y-2260455D01*
X15557920Y-2288176D01*
X15561000Y-2319453D01*
X15561000Y-2710547D01*
X15557920Y-2741824D01*
X15549510Y-2769545D01*
X15535856Y-2795089D01*
X15517480Y-2817480D01*
X15495089Y-2835856D01*
X15469545Y-2849510D01*
X15441824Y-2857920D01*
X15410547Y-2861000D01*
X14969453Y-2861000D01*
X14938176Y-2857920D01*
X14910455Y-2849510D01*
X14884911Y-2835856D01*
X14862520Y-2817480D01*
X14844144Y-2795089D01*
X14830490Y-2769545D01*
X14822080Y-2741824D01*
X14819000Y-2710547D01*
X14819000Y-2319453D01*
X14822080Y-2288176D01*
X14830490Y-2260455D01*
X14844144Y-2234911D01*
X14862520Y-2212520D01*
X14884911Y-2194144D01*
X14910455Y-2180490D01*
X14938176Y-2172080D01*
X14969453Y-2169000D01*
X15410547Y-2169000D01*
X15441824Y-2172080D01*
G37*
G36*
X14431824Y-2172080D02*
G01*
X14459545Y-2180490D01*
X14485089Y-2194144D01*
X14507480Y-2212520D01*
X14525856Y-2234911D01*
X14539510Y-2260455D01*
X14547920Y-2288176D01*
X14551000Y-2319453D01*
X14551000Y-2710547D01*
X14547920Y-2741824D01*
X14539510Y-2769545D01*
X14525856Y-2795089D01*
X14507480Y-2817480D01*
X14485089Y-2835856D01*
X14459545Y-2849510D01*
X14431824Y-2857920D01*
X14400547Y-2861000D01*
X13959453Y-2861000D01*
X13928176Y-2857920D01*
X13900455Y-2849510D01*
X13874911Y-2835856D01*
X13852520Y-2817480D01*
X13834144Y-2795089D01*
X13820490Y-2769545D01*
X13812080Y-2741824D01*
X13809000Y-2710547D01*
X13809000Y-2319453D01*
X13812080Y-2288176D01*
X13820490Y-2260455D01*
X13834144Y-2234911D01*
X13852520Y-2212520D01*
X13874911Y-2194144D01*
X13900455Y-2180490D01*
X13928176Y-2172080D01*
X13959453Y-2169000D01*
X14400547Y-2169000D01*
X14431824Y-2172080D01*
G37*
G36*
X13421824Y-2172080D02*
G01*
X13449545Y-2180490D01*
X13475089Y-2194144D01*
X13497480Y-2212520D01*
X13515856Y-2234911D01*
X13529510Y-2260455D01*
X13537920Y-2288176D01*
X13541000Y-2319453D01*
X13541000Y-2710547D01*
X13537920Y-2741824D01*
X13529510Y-2769545D01*
X13515856Y-2795089D01*
X13497480Y-2817480D01*
X13475089Y-2835856D01*
X13449545Y-2849510D01*
X13421824Y-2857920D01*
X13390547Y-2861000D01*
X12949453Y-2861000D01*
X12918176Y-2857920D01*
X12890455Y-2849510D01*
X12864911Y-2835856D01*
X12842520Y-2817480D01*
X12824144Y-2795089D01*
X12810490Y-2769545D01*
X12802080Y-2741824D01*
X12799000Y-2710547D01*
X12799000Y-2319453D01*
X12802080Y-2288176D01*
X12810490Y-2260455D01*
X12824144Y-2234911D01*
X12842520Y-2212520D01*
X12864911Y-2194144D01*
X12890455Y-2180490D01*
X12918176Y-2172080D01*
X12949453Y-2169000D01*
X13390547Y-2169000D01*
X13421824Y-2172080D01*
G37*
G36*
X10660719Y-1600174D02*
G01*
X10660722Y-1600175D01*
X10660721Y-1600175D01*
X10760996Y-1641710D01*
X10851242Y-1702010D01*
X10927990Y-1778758D01*
X10988290Y-1869004D01*
X10988290Y-1869005D01*
X11029826Y-1969281D01*
X11051000Y-2075730D01*
X11051000Y-2184270D01*
X11029826Y-2290719D01*
X11029825Y-2290721D01*
X10988290Y-2390996D01*
X10927990Y-2481242D01*
X10851242Y-2557990D01*
X10760996Y-2618290D01*
X10690090Y-2647660D01*
X10660719Y-2659826D01*
X10554270Y-2681000D01*
X10445730Y-2681000D01*
X10339281Y-2659826D01*
X10309910Y-2647660D01*
X10239004Y-2618290D01*
X10148758Y-2557990D01*
X10072010Y-2481242D01*
X10011710Y-2390996D01*
X9970175Y-2290721D01*
X9970174Y-2290719D01*
X9949000Y-2184270D01*
X9949000Y-2075730D01*
X9970174Y-1969281D01*
X10011710Y-1869005D01*
X10011710Y-1869004D01*
X10072010Y-1778758D01*
X10148758Y-1702010D01*
X10239004Y-1641710D01*
X10339279Y-1600175D01*
X10339278Y-1600175D01*
X10339281Y-1600174D01*
X10445730Y-1579000D01*
X10554270Y-1579000D01*
X10660719Y-1600174D01*
G37*
G36*
X22151824Y-1582080D02*
G01*
X22179545Y-1590490D01*
X22205089Y-1604144D01*
X22227480Y-1622520D01*
X22245856Y-1644911D01*
X22259510Y-1670455D01*
X22267920Y-1698176D01*
X22271000Y-1729453D01*
X22271000Y-2170547D01*
X22267920Y-2201824D01*
X22259510Y-2229545D01*
X22245856Y-2255089D01*
X22227480Y-2277480D01*
X22205089Y-2295856D01*
X22179545Y-2309510D01*
X22151824Y-2317920D01*
X22120547Y-2321000D01*
X21729453Y-2321000D01*
X21698176Y-2317920D01*
X21670455Y-2309510D01*
X21644911Y-2295856D01*
X21622520Y-2277480D01*
X21604144Y-2255089D01*
X21590490Y-2229545D01*
X21582080Y-2201824D01*
X21579000Y-2170547D01*
X21579000Y-1729453D01*
X21582080Y-1698176D01*
X21590490Y-1670455D01*
X21604144Y-1644911D01*
X21622520Y-1622520D01*
X21644911Y-1604144D01*
X21670455Y-1590490D01*
X21698176Y-1582080D01*
X21729453Y-1579000D01*
X22120547Y-1579000D01*
X22151824Y-1582080D01*
G37*
G36*
X21181824Y-1582080D02*
G01*
X21209545Y-1590490D01*
X21235089Y-1604144D01*
X21257480Y-1622520D01*
X21275856Y-1644911D01*
X21289510Y-1670455D01*
X21297920Y-1698176D01*
X21301000Y-1729453D01*
X21301000Y-2170547D01*
X21297920Y-2201824D01*
X21289510Y-2229545D01*
X21275856Y-2255089D01*
X21257480Y-2277480D01*
X21235089Y-2295856D01*
X21209545Y-2309510D01*
X21181824Y-2317920D01*
X21150547Y-2321000D01*
X20759453Y-2321000D01*
X20728176Y-2317920D01*
X20700455Y-2309510D01*
X20674911Y-2295856D01*
X20652520Y-2277480D01*
X20634144Y-2255089D01*
X20620490Y-2229545D01*
X20612080Y-2201824D01*
X20609000Y-2170547D01*
X20609000Y-1729453D01*
X20612080Y-1698176D01*
X20620490Y-1670455D01*
X20634144Y-1644911D01*
X20652520Y-1622520D01*
X20674911Y-1604144D01*
X20700455Y-1590490D01*
X20728176Y-1582080D01*
X20759453Y-1579000D01*
X21150547Y-1579000D01*
X21181824Y-1582080D01*
G37*
G36*
X17010719Y-900974D02*
G01*
X17010722Y-900975D01*
X17010721Y-900975D01*
X17110996Y-942510D01*
X17201242Y-1002810D01*
X17277990Y-1079558D01*
X17338290Y-1169804D01*
X17355695Y-1211824D01*
X17379826Y-1270081D01*
X17401000Y-1376530D01*
X17401000Y-1485070D01*
X17379826Y-1591519D01*
X17372935Y-1608156D01*
X17338290Y-1691796D01*
X17277990Y-1782042D01*
X17201242Y-1858790D01*
X17110996Y-1919090D01*
X17040090Y-1948460D01*
X17010719Y-1960626D01*
X16904270Y-1981800D01*
X16795730Y-1981800D01*
X16689281Y-1960626D01*
X16659910Y-1948460D01*
X16589004Y-1919090D01*
X16498758Y-1858790D01*
X16422010Y-1782042D01*
X16361710Y-1691796D01*
X16327065Y-1608156D01*
X16320174Y-1591519D01*
X16299000Y-1485070D01*
X16299000Y-1376530D01*
X16320174Y-1270081D01*
X16344305Y-1211824D01*
X16361710Y-1169804D01*
X16422010Y-1079558D01*
X16498758Y-1002810D01*
X16589004Y-942510D01*
X16689279Y-900975D01*
X16689278Y-900975D01*
X16689281Y-900974D01*
X16795730Y-879800D01*
X16904270Y-879800D01*
X17010719Y-900974D01*
G37*
G36*
X2480719Y-650974D02*
G01*
X2510090Y-663140D01*
X2580996Y-692510D01*
X2671242Y-752810D01*
X2747990Y-829558D01*
X2808290Y-919804D01*
X2808290Y-919805D01*
X2849826Y-1020081D01*
X2871000Y-1126530D01*
X2871000Y-1235070D01*
X2849826Y-1341519D01*
X2849825Y-1341521D01*
X2808290Y-1441796D01*
X2747990Y-1532042D01*
X2671242Y-1608790D01*
X2580996Y-1669090D01*
X2510776Y-1698176D01*
X2480719Y-1710626D01*
X2374270Y-1731800D01*
X2265730Y-1731800D01*
X2159281Y-1710626D01*
X2129224Y-1698176D01*
X2059004Y-1669090D01*
X1968758Y-1608790D01*
X1892010Y-1532042D01*
X1831710Y-1441796D01*
X1790175Y-1341521D01*
X1790174Y-1341519D01*
X1769000Y-1235070D01*
X1769000Y-1126530D01*
X1790174Y-1020081D01*
X1831710Y-919805D01*
X1831710Y-919804D01*
X1892010Y-829558D01*
X1968758Y-752810D01*
X2059004Y-692510D01*
X2129910Y-663140D01*
X2159281Y-650974D01*
X2265730Y-629800D01*
X2374270Y-629800D01*
X2480719Y-650974D01*
G37*
G36*
X5550719Y-650974D02*
G01*
X5580090Y-663140D01*
X5650996Y-692510D01*
X5741242Y-752810D01*
X5817990Y-829558D01*
X5878290Y-919804D01*
X5878290Y-919805D01*
X5919826Y-1020081D01*
X5941000Y-1126530D01*
X5941000Y-1235070D01*
X5919826Y-1341519D01*
X5919825Y-1341521D01*
X5878290Y-1441796D01*
X5817990Y-1532042D01*
X5741242Y-1608790D01*
X5650996Y-1669090D01*
X5580776Y-1698176D01*
X5550719Y-1710626D01*
X5444270Y-1731800D01*
X5335730Y-1731800D01*
X5229281Y-1710626D01*
X5199224Y-1698176D01*
X5129004Y-1669090D01*
X5038758Y-1608790D01*
X4962010Y-1532042D01*
X4901710Y-1441796D01*
X4860175Y-1341521D01*
X4860174Y-1341519D01*
X4839000Y-1235070D01*
X4839000Y-1126530D01*
X4860174Y-1020081D01*
X4901710Y-919805D01*
X4901710Y-919804D01*
X4962010Y-829558D01*
X5038758Y-752810D01*
X5129004Y-692510D01*
X5199910Y-663140D01*
X5229281Y-650974D01*
X5335730Y-629800D01*
X5444270Y-629800D01*
X5550719Y-650974D01*
G37*
G36*
X4030719Y-650974D02*
G01*
X4060090Y-663140D01*
X4130996Y-692510D01*
X4221242Y-752810D01*
X4297990Y-829558D01*
X4358290Y-919804D01*
X4358290Y-919805D01*
X4399826Y-1020081D01*
X4421000Y-1126530D01*
X4421000Y-1235070D01*
X4399826Y-1341519D01*
X4399825Y-1341521D01*
X4358290Y-1441796D01*
X4297990Y-1532042D01*
X4221242Y-1608790D01*
X4130996Y-1669090D01*
X4060776Y-1698176D01*
X4030719Y-1710626D01*
X3924270Y-1731800D01*
X3815730Y-1731800D01*
X3709281Y-1710626D01*
X3679224Y-1698176D01*
X3609004Y-1669090D01*
X3518758Y-1608790D01*
X3442010Y-1532042D01*
X3381710Y-1441796D01*
X3340175Y-1341521D01*
X3340174Y-1341519D01*
X3319000Y-1235070D01*
X3319000Y-1126530D01*
X3340174Y-1020081D01*
X3381710Y-919805D01*
X3381710Y-919804D01*
X3442010Y-829558D01*
X3518758Y-752810D01*
X3609004Y-692510D01*
X3679910Y-663140D01*
X3709281Y-650974D01*
X3815730Y-629800D01*
X3924270Y-629800D01*
X4030719Y-650974D01*
G37*
G36*
X22151824Y-592080D02*
G01*
X22179545Y-600490D01*
X22205089Y-614144D01*
X22227480Y-632520D01*
X22245856Y-654911D01*
X22259510Y-680455D01*
X22267920Y-708176D01*
X22271000Y-739453D01*
X22271000Y-1180547D01*
X22267920Y-1211824D01*
X22259510Y-1239545D01*
X22245856Y-1265089D01*
X22227480Y-1287480D01*
X22205089Y-1305856D01*
X22179545Y-1319510D01*
X22151824Y-1327920D01*
X22120547Y-1331000D01*
X21729453Y-1331000D01*
X21698176Y-1327920D01*
X21670455Y-1319510D01*
X21644911Y-1305856D01*
X21622520Y-1287480D01*
X21604144Y-1265089D01*
X21590490Y-1239545D01*
X21582080Y-1211824D01*
X21579000Y-1180547D01*
X21579000Y-739453D01*
X21582080Y-708176D01*
X21590490Y-680455D01*
X21604144Y-654911D01*
X21622520Y-632520D01*
X21644911Y-614144D01*
X21670455Y-600490D01*
X21698176Y-592080D01*
X21729453Y-589000D01*
X22120547Y-589000D01*
X22151824Y-592080D01*
G37*
G36*
X21181824Y-592080D02*
G01*
X21209545Y-600490D01*
X21235089Y-614144D01*
X21257480Y-632520D01*
X21275856Y-654911D01*
X21289510Y-680455D01*
X21297920Y-708176D01*
X21301000Y-739453D01*
X21301000Y-1180547D01*
X21297920Y-1211824D01*
X21289510Y-1239545D01*
X21275856Y-1265089D01*
X21257480Y-1287480D01*
X21235089Y-1305856D01*
X21209545Y-1319510D01*
X21181824Y-1327920D01*
X21150547Y-1331000D01*
X20759453Y-1331000D01*
X20728176Y-1327920D01*
X20700455Y-1319510D01*
X20674911Y-1305856D01*
X20652520Y-1287480D01*
X20634144Y-1265089D01*
X20620490Y-1239545D01*
X20612080Y-1211824D01*
X20609000Y-1180547D01*
X20609000Y-739453D01*
X20612080Y-708176D01*
X20620490Y-680455D01*
X20634144Y-654911D01*
X20652520Y-632520D01*
X20674911Y-614144D01*
X20700455Y-600490D01*
X20728176Y-592080D01*
X20759453Y-589000D01*
X21150547Y-589000D01*
X21181824Y-592080D01*
G37*
M02*
