M48
; DRILL file {KiCad 5.1.5+dfsg1-2~bpo10+1} date Wed 19 Feb 2020 21:48:06 CET
; FORMAT={-:-/ absolute / inch / decimal}
; #@! TF.CreationDate,2020-02-19T21:48:06+01:00
; #@! TF.GenerationSoftware,Kicad,Pcbnew,5.1.5+dfsg1-2~bpo10+1
; #@! TF.FileFunction,Plated,1,6,PTH
FMAT,2
INCH
T1C0.0079
%
G90
G05
T1
X0.0346Y-0.0984
X0.039Y-0.7299
X0.0701Y-0.73
X0.0715Y-0.2216
X0.0731Y-0.2435
X0.0731Y-0.2646
X0.0731Y-0.2882
X0.0745Y-0.3188
X0.0745Y-0.3618
X0.0748Y-0.3839
X0.0756Y-0.4276
X0.0756Y-0.5177
X0.078Y-0.4059
X0.0787Y-0.115
X0.087Y-0.6209
X0.0941Y-0.5039
X0.0941Y-0.5307
X0.0945Y-0.4555
X0.0945Y-0.4799
X0.0953Y-0.3163
X0.0965Y-0.3933
X0.0965Y-0.5528
X0.0965Y-0.5898
X0.1017Y-0.2665
X0.1071Y-0.73
X0.1094Y-0.6559
X0.1118Y-0.7657
X0.1169Y-0.2843
X0.1181Y-0.2303
X0.1197Y-0.2543
X0.1289Y-0.3457
X0.13Y-0.3239
X0.1335Y-0.3012
X0.1346Y-0.2134
X0.1378Y-0.1189
X0.1417Y-0.7256
X0.1516Y-0.0835
X0.1535Y-0.3138
X0.1546Y-0.2039
X0.1555Y-0.5531
X0.156Y-0.4394
X0.1568Y-0.4171
X0.1606Y-0.1531
X0.1629Y-0.4906
X0.1654Y-0.102
X0.1666Y-0.4688
X0.1669Y-0.5838
X0.1672Y-0.374
X0.1736Y-0.6118
X0.1764Y-0.3143
X0.1772Y-0.2555
X0.1845Y-0.4175
X0.1845Y-0.4845
X0.1853Y-0.6292
X0.1854Y-0.1531
X0.1888Y-0.5838
X0.1911Y-0.374
X0.1932Y-0.6043
X0.2014Y-0.4344
X0.2014Y-0.5014
X0.2028Y-0.6409
X0.2096Y-0.1543
X0.2149Y-0.3209
X0.2207Y-0.491
X0.2224Y-0.5133
X0.2591Y-0.0461
X0.2955Y-0.4112
X0.2965Y-0.0894
X0.2986Y-0.6804
X0.3003Y-0.2724
X0.301Y-0.7012
X0.3016Y-0.2161
X0.3124Y-0.3943
X0.3157Y-0.1018
X0.3193Y-0.5646
X0.3228Y-0.6268
X0.3268Y-0.5429
X0.3282Y-0.3762
X0.3302Y-0.5034
X0.3306Y-0.6841
X0.3311Y-0.7665
X0.334Y-0.4828
X0.3386Y-0.2681
X0.3398Y-0.0831
X0.3398Y-0.289
X0.3436Y-0.5199
X0.3451Y-0.3593
X0.3524Y-0.539
X0.3574Y-0.2115
X0.3581Y-0.6996
X0.3591Y-0.0913
X0.3673Y-0.1925
X0.3705Y-0.6489
X0.3749Y-0.5811
X0.3795Y-0.0846
X0.3886Y-0.1933
X0.41Y-0.1926
X0.4118Y-0.0433
X0.4134Y-0.5953
X0.4173Y-0.1728
X0.4279Y-0.4626
X0.4281Y-0.3236
X0.4339Y-0.6043
X0.4417Y-0.0535
X0.4479Y-0.1697
X0.4518Y-0.3234
X0.4528Y-0.4626
X0.4587Y-0.0717
X0.4606Y-0.6714
X0.4624Y-0.5876
X0.4673Y-0.1776
X0.4685Y-0.7665
X0.4787Y-0.4626
X0.4791Y-0.4878
X0.4793Y-0.6045
X0.4793Y-0.2963
X0.4793Y-0.3232
X0.4854Y-0.6819
X0.4906Y-0.0768
X0.4919Y-0.66
X0.4959Y-0.1898
X0.4994Y-0.5986
X0.5022Y-0.4912
X0.5049Y-0.2963
X0.5055Y-0.465
X0.5059Y-0.3238
X0.5163Y-0.6155
X0.5177Y-0.0717
X0.5185Y-0.585
X0.5252Y-0.1614
X0.5253Y-0.4912
X0.5305Y-0.3228
X0.5307Y-0.2055
X0.5374Y-0.7701
X0.5386Y-0.1815
X0.539Y-0.4638
X0.5561Y-0.323
X0.5571Y-0.0717
X0.5571Y-0.6917
X0.5587Y-0.6665
X0.5634Y-0.1657
X0.5638Y-0.4634
X0.5693Y-0.1901
X0.5786Y-0.6069
X0.5865Y-0.2029
X0.5913Y-0.161
X0.5955Y-0.59
X0.6063Y-0.178
X0.6063Y-0.6917
X0.6124Y-0.6069
X0.6206Y-0.1224
X0.624Y-0.2051
X0.6272Y-0.085
X0.6293Y-0.59
X0.6317Y-0.4675
X0.6323Y-0.6958
X0.6366Y-0.668
X0.6376Y-0.4136
X0.6421Y-0.3632
X0.6447Y-0.3104
X0.648Y-0.3316
X0.648Y-0.5661
X0.6486Y-0.4506
X0.6524Y-0.2764
X0.6545Y-0.3967
X0.6579Y-0.6953
X0.6654Y-0.1414
X0.667Y-0.3003
X0.6728Y-0.5661
X0.6748Y-0.2106
X0.6763Y-0.6436
X0.6933Y-0.1906
X0.695Y-0.4291
X0.7102Y-0.6656
X0.7175Y-0.1151
X0.748Y-0.0992
X0.7594Y-0.0244
X0.7654Y-0.3839
X0.7687Y-0.3266
X0.7695Y-0.2183
X0.7736Y-0.1898
X0.7807Y-0.1661
X0.7843Y-0.0315
X0.7864Y-0.2352
X0.7882Y-0.6291
X0.7909Y-0.6039
X0.7921Y-0.4042
X0.7921Y-0.4281
X0.7929Y-0.4508
X0.7937Y-0.4768
X0.794Y-0.5127
X0.7965Y-0.3248
X0.8Y-0.3772
X0.8031Y-0.1406
X0.8031Y-0.1799
X0.824Y-0.3118
X0.8252Y-0.5378
X0.8319Y-0.6453
X0.8356Y-0.1159
X0.8417Y-0.2941
X0.8433Y-0.3268
X0.85Y-0.5386
X0.8516Y-0.5661
X0.8579Y-0.3461
X0.8671Y-0.2882
X0.8748Y-0.0961
X0.8748Y-0.5366
X0.8799Y-0.3142
X0.8801Y-0.3372
X0.8874Y-0.5803
X0.8882Y-0.1846
X0.8902Y-0.2941
X0.8909Y-0.0378
X0.8937Y-0.272
X0.8941Y-0.1453
X0.8957Y-0.2457
X0.9004Y-0.4945
X0.9012Y-0.3846
X0.9016Y-0.3587
X0.9024Y-0.3346
X0.9041Y-0.413
X0.4311Y-0.3484
X0.4311Y-0.3937
X0.4311Y-0.439
X0.4665Y-0.3484
X0.4685Y-0.3937
X0.4685Y-0.439
X0.5157Y-0.3484
X0.5157Y-0.3937
X0.5157Y-0.439
X0.5531Y-0.3484
X0.5531Y-0.3937
X0.5531Y-0.439
T0
M30
