G04 #@! TF.GenerationSoftware,KiCad,Pcbnew,5.0.2+dfsg1-1~bpo9+1*
G04 #@! TF.CreationDate,2019-10-16T17:32:00+02:00*
G04 #@! TF.ProjectId,zglue-dragon-adapter,7a676c75-652d-4647-9261-676f6e2d6164,rev?*
G04 #@! TF.SameCoordinates,Original*
G04 #@! TF.FileFunction,Copper,L4,Inr*
G04 #@! TF.FilePolarity,Positive*
%FSLAX46Y46*%
G04 Gerber Fmt 4.6, Leading zero omitted, Abs format (unit mm)*
G04 Created by KiCad (PCBNEW 5.0.2+dfsg1-1~bpo9+1) date Wed 16 Oct 2019 05:32:00 PM CEST*
%MOMM*%
%LPD*%
G01*
G04 APERTURE LIST*
G04 #@! TA.AperFunction,ViaPad*
%ADD10C,0.400000*%
G04 #@! TD*
G04 #@! TA.AperFunction,Conductor*
%ADD11C,0.100000*%
G04 #@! TD*
G04 APERTURE END LIST*
D10*
G04 #@! TO.N,GND*
X8600000Y-5120000D03*
X8000000Y-4620000D03*
G04 #@! TO.N,/CSI_CLK_IN_P*
X16624455Y-10265545D03*
X19935545Y-14504455D03*
G04 #@! TO.N,/CSI_CLK_IN_N*
X16235545Y-10654455D03*
X20324455Y-14115545D03*
G04 #@! TO.N,Net-(U1-PadD8)*
X10875000Y-11795000D03*
G04 #@! TO.N,/ULPM_WAKE*
X14125000Y-11780000D03*
G04 #@! TO.N,/CSI_INT*
X11525000Y-11800000D03*
G04 #@! TO.N,/CTRL_OUT*
X13150000Y-15020000D03*
G04 #@! TO.N,/PROC_SCK*
X12825000Y-12475000D03*
G04 #@! TO.N,/MIPI_SEL*
X12150000Y-11775000D03*
G04 #@! TO.N,/PROC_SI*
X12175000Y-12475000D03*
G04 #@! TO.N,/PROC_OUT_0*
X14500000Y-15020000D03*
G04 #@! TO.N,/USB_DET*
X13450000Y-15420000D03*
G04 #@! TO.N,/PIO1*
X13525000Y-11785000D03*
G04 #@! TO.N,/CTRL_RST*
X12825000Y-11790000D03*
G04 #@! TO.N,/PIO2*
X14100000Y-15370000D03*
G04 #@! TO.N,/PROC_RST*
X13800000Y-14970000D03*
G04 #@! TD*
D11*
G04 #@! TO.N,GND*
G36*
X24775001Y-19775000D02*
X225000Y-19775000D01*
X225000Y-14950381D01*
X12800000Y-14950381D01*
X12800000Y-15089619D01*
X12853284Y-15218259D01*
X12951741Y-15316716D01*
X13080381Y-15370000D01*
X13100000Y-15370000D01*
X13100000Y-15489619D01*
X13153284Y-15618259D01*
X13251741Y-15716716D01*
X13380381Y-15770000D01*
X13519619Y-15770000D01*
X13648259Y-15716716D01*
X13746716Y-15618259D01*
X13785355Y-15524975D01*
X13803284Y-15568259D01*
X13901741Y-15666716D01*
X14030381Y-15720000D01*
X14169619Y-15720000D01*
X14298259Y-15666716D01*
X14396716Y-15568259D01*
X14450000Y-15439619D01*
X14450000Y-15370000D01*
X14569619Y-15370000D01*
X14698259Y-15316716D01*
X14796716Y-15218259D01*
X14850000Y-15089619D01*
X14850000Y-14950381D01*
X14796716Y-14821741D01*
X14698259Y-14723284D01*
X14569619Y-14670000D01*
X14430381Y-14670000D01*
X14301741Y-14723284D01*
X14203284Y-14821741D01*
X14150000Y-14950381D01*
X14150000Y-14900381D01*
X14096716Y-14771741D01*
X13998259Y-14673284D01*
X13869619Y-14620000D01*
X13730381Y-14620000D01*
X13601741Y-14673284D01*
X13503284Y-14771741D01*
X13464645Y-14865025D01*
X13446716Y-14821741D01*
X13348259Y-14723284D01*
X13219619Y-14670000D01*
X13080381Y-14670000D01*
X12951741Y-14723284D01*
X12853284Y-14821741D01*
X12800000Y-14950381D01*
X225000Y-14950381D01*
X225000Y-14434836D01*
X19585545Y-14434836D01*
X19585545Y-14574074D01*
X19638829Y-14702714D01*
X19737286Y-14801171D01*
X19865926Y-14854455D01*
X20005164Y-14854455D01*
X20133804Y-14801171D01*
X20232261Y-14702714D01*
X20285545Y-14574074D01*
X20285545Y-14465545D01*
X20394074Y-14465545D01*
X20522714Y-14412261D01*
X20621171Y-14313804D01*
X20674455Y-14185164D01*
X20674455Y-14045926D01*
X20621171Y-13917286D01*
X20522714Y-13818829D01*
X20394074Y-13765545D01*
X20254836Y-13765545D01*
X20126196Y-13818829D01*
X20027739Y-13917286D01*
X19974455Y-14045926D01*
X19974455Y-14154455D01*
X19865926Y-14154455D01*
X19737286Y-14207739D01*
X19638829Y-14306196D01*
X19585545Y-14434836D01*
X225000Y-14434836D01*
X225000Y-11725381D01*
X10525000Y-11725381D01*
X10525000Y-11864619D01*
X10578284Y-11993259D01*
X10676741Y-12091716D01*
X10805381Y-12145000D01*
X10944619Y-12145000D01*
X11073259Y-12091716D01*
X11171716Y-11993259D01*
X11198964Y-11927475D01*
X11228284Y-11998259D01*
X11326741Y-12096716D01*
X11455381Y-12150000D01*
X11594619Y-12150000D01*
X11723259Y-12096716D01*
X11821716Y-11998259D01*
X11842678Y-11947653D01*
X11853284Y-11973259D01*
X11951741Y-12071716D01*
X12080381Y-12125000D01*
X12105381Y-12125000D01*
X11976741Y-12178284D01*
X11878284Y-12276741D01*
X11825000Y-12405381D01*
X11825000Y-12544619D01*
X11878284Y-12673259D01*
X11976741Y-12771716D01*
X12105381Y-12825000D01*
X12244619Y-12825000D01*
X12373259Y-12771716D01*
X12471716Y-12673259D01*
X12500000Y-12604975D01*
X12528284Y-12673259D01*
X12626741Y-12771716D01*
X12755381Y-12825000D01*
X12894619Y-12825000D01*
X13023259Y-12771716D01*
X13121716Y-12673259D01*
X13175000Y-12544619D01*
X13175000Y-12405381D01*
X13121716Y-12276741D01*
X13023259Y-12178284D01*
X12912726Y-12132500D01*
X13023259Y-12086716D01*
X13121716Y-11988259D01*
X13175000Y-11859619D01*
X13175000Y-11854619D01*
X13228284Y-11983259D01*
X13326741Y-12081716D01*
X13455381Y-12135000D01*
X13594619Y-12135000D01*
X13723259Y-12081716D01*
X13821716Y-11983259D01*
X13826036Y-11972831D01*
X13828284Y-11978259D01*
X13926741Y-12076716D01*
X14055381Y-12130000D01*
X14194619Y-12130000D01*
X14323259Y-12076716D01*
X14421716Y-11978259D01*
X14475000Y-11849619D01*
X14475000Y-11710381D01*
X14421716Y-11581741D01*
X14323259Y-11483284D01*
X14194619Y-11430000D01*
X14055381Y-11430000D01*
X13926741Y-11483284D01*
X13828284Y-11581741D01*
X13823964Y-11592169D01*
X13821716Y-11586741D01*
X13723259Y-11488284D01*
X13594619Y-11435000D01*
X13455381Y-11435000D01*
X13326741Y-11488284D01*
X13228284Y-11586741D01*
X13175000Y-11715381D01*
X13175000Y-11720381D01*
X13121716Y-11591741D01*
X13023259Y-11493284D01*
X12894619Y-11440000D01*
X12755381Y-11440000D01*
X12626741Y-11493284D01*
X12528284Y-11591741D01*
X12490607Y-11682703D01*
X12446716Y-11576741D01*
X12348259Y-11478284D01*
X12219619Y-11425000D01*
X12080381Y-11425000D01*
X11951741Y-11478284D01*
X11853284Y-11576741D01*
X11832322Y-11627347D01*
X11821716Y-11601741D01*
X11723259Y-11503284D01*
X11594619Y-11450000D01*
X11455381Y-11450000D01*
X11326741Y-11503284D01*
X11228284Y-11601741D01*
X11201036Y-11667525D01*
X11171716Y-11596741D01*
X11073259Y-11498284D01*
X10944619Y-11445000D01*
X10805381Y-11445000D01*
X10676741Y-11498284D01*
X10578284Y-11596741D01*
X10525000Y-11725381D01*
X225000Y-11725381D01*
X225000Y-10584836D01*
X15885545Y-10584836D01*
X15885545Y-10724074D01*
X15938829Y-10852714D01*
X16037286Y-10951171D01*
X16165926Y-11004455D01*
X16305164Y-11004455D01*
X16433804Y-10951171D01*
X16532261Y-10852714D01*
X16585545Y-10724074D01*
X16585545Y-10615545D01*
X16694074Y-10615545D01*
X16822714Y-10562261D01*
X16921171Y-10463804D01*
X16974455Y-10335164D01*
X16974455Y-10195926D01*
X16921171Y-10067286D01*
X16822714Y-9968829D01*
X16694074Y-9915545D01*
X16554836Y-9915545D01*
X16426196Y-9968829D01*
X16327739Y-10067286D01*
X16274455Y-10195926D01*
X16274455Y-10304455D01*
X16165926Y-10304455D01*
X16037286Y-10357739D01*
X15938829Y-10456196D01*
X15885545Y-10584836D01*
X225000Y-10584836D01*
X225000Y-225000D01*
X24775000Y-225000D01*
X24775001Y-19775000D01*
X24775001Y-19775000D01*
G37*
X24775001Y-19775000D02*
X225000Y-19775000D01*
X225000Y-14950381D01*
X12800000Y-14950381D01*
X12800000Y-15089619D01*
X12853284Y-15218259D01*
X12951741Y-15316716D01*
X13080381Y-15370000D01*
X13100000Y-15370000D01*
X13100000Y-15489619D01*
X13153284Y-15618259D01*
X13251741Y-15716716D01*
X13380381Y-15770000D01*
X13519619Y-15770000D01*
X13648259Y-15716716D01*
X13746716Y-15618259D01*
X13785355Y-15524975D01*
X13803284Y-15568259D01*
X13901741Y-15666716D01*
X14030381Y-15720000D01*
X14169619Y-15720000D01*
X14298259Y-15666716D01*
X14396716Y-15568259D01*
X14450000Y-15439619D01*
X14450000Y-15370000D01*
X14569619Y-15370000D01*
X14698259Y-15316716D01*
X14796716Y-15218259D01*
X14850000Y-15089619D01*
X14850000Y-14950381D01*
X14796716Y-14821741D01*
X14698259Y-14723284D01*
X14569619Y-14670000D01*
X14430381Y-14670000D01*
X14301741Y-14723284D01*
X14203284Y-14821741D01*
X14150000Y-14950381D01*
X14150000Y-14900381D01*
X14096716Y-14771741D01*
X13998259Y-14673284D01*
X13869619Y-14620000D01*
X13730381Y-14620000D01*
X13601741Y-14673284D01*
X13503284Y-14771741D01*
X13464645Y-14865025D01*
X13446716Y-14821741D01*
X13348259Y-14723284D01*
X13219619Y-14670000D01*
X13080381Y-14670000D01*
X12951741Y-14723284D01*
X12853284Y-14821741D01*
X12800000Y-14950381D01*
X225000Y-14950381D01*
X225000Y-14434836D01*
X19585545Y-14434836D01*
X19585545Y-14574074D01*
X19638829Y-14702714D01*
X19737286Y-14801171D01*
X19865926Y-14854455D01*
X20005164Y-14854455D01*
X20133804Y-14801171D01*
X20232261Y-14702714D01*
X20285545Y-14574074D01*
X20285545Y-14465545D01*
X20394074Y-14465545D01*
X20522714Y-14412261D01*
X20621171Y-14313804D01*
X20674455Y-14185164D01*
X20674455Y-14045926D01*
X20621171Y-13917286D01*
X20522714Y-13818829D01*
X20394074Y-13765545D01*
X20254836Y-13765545D01*
X20126196Y-13818829D01*
X20027739Y-13917286D01*
X19974455Y-14045926D01*
X19974455Y-14154455D01*
X19865926Y-14154455D01*
X19737286Y-14207739D01*
X19638829Y-14306196D01*
X19585545Y-14434836D01*
X225000Y-14434836D01*
X225000Y-11725381D01*
X10525000Y-11725381D01*
X10525000Y-11864619D01*
X10578284Y-11993259D01*
X10676741Y-12091716D01*
X10805381Y-12145000D01*
X10944619Y-12145000D01*
X11073259Y-12091716D01*
X11171716Y-11993259D01*
X11198964Y-11927475D01*
X11228284Y-11998259D01*
X11326741Y-12096716D01*
X11455381Y-12150000D01*
X11594619Y-12150000D01*
X11723259Y-12096716D01*
X11821716Y-11998259D01*
X11842678Y-11947653D01*
X11853284Y-11973259D01*
X11951741Y-12071716D01*
X12080381Y-12125000D01*
X12105381Y-12125000D01*
X11976741Y-12178284D01*
X11878284Y-12276741D01*
X11825000Y-12405381D01*
X11825000Y-12544619D01*
X11878284Y-12673259D01*
X11976741Y-12771716D01*
X12105381Y-12825000D01*
X12244619Y-12825000D01*
X12373259Y-12771716D01*
X12471716Y-12673259D01*
X12500000Y-12604975D01*
X12528284Y-12673259D01*
X12626741Y-12771716D01*
X12755381Y-12825000D01*
X12894619Y-12825000D01*
X13023259Y-12771716D01*
X13121716Y-12673259D01*
X13175000Y-12544619D01*
X13175000Y-12405381D01*
X13121716Y-12276741D01*
X13023259Y-12178284D01*
X12912726Y-12132500D01*
X13023259Y-12086716D01*
X13121716Y-11988259D01*
X13175000Y-11859619D01*
X13175000Y-11854619D01*
X13228284Y-11983259D01*
X13326741Y-12081716D01*
X13455381Y-12135000D01*
X13594619Y-12135000D01*
X13723259Y-12081716D01*
X13821716Y-11983259D01*
X13826036Y-11972831D01*
X13828284Y-11978259D01*
X13926741Y-12076716D01*
X14055381Y-12130000D01*
X14194619Y-12130000D01*
X14323259Y-12076716D01*
X14421716Y-11978259D01*
X14475000Y-11849619D01*
X14475000Y-11710381D01*
X14421716Y-11581741D01*
X14323259Y-11483284D01*
X14194619Y-11430000D01*
X14055381Y-11430000D01*
X13926741Y-11483284D01*
X13828284Y-11581741D01*
X13823964Y-11592169D01*
X13821716Y-11586741D01*
X13723259Y-11488284D01*
X13594619Y-11435000D01*
X13455381Y-11435000D01*
X13326741Y-11488284D01*
X13228284Y-11586741D01*
X13175000Y-11715381D01*
X13175000Y-11720381D01*
X13121716Y-11591741D01*
X13023259Y-11493284D01*
X12894619Y-11440000D01*
X12755381Y-11440000D01*
X12626741Y-11493284D01*
X12528284Y-11591741D01*
X12490607Y-11682703D01*
X12446716Y-11576741D01*
X12348259Y-11478284D01*
X12219619Y-11425000D01*
X12080381Y-11425000D01*
X11951741Y-11478284D01*
X11853284Y-11576741D01*
X11832322Y-11627347D01*
X11821716Y-11601741D01*
X11723259Y-11503284D01*
X11594619Y-11450000D01*
X11455381Y-11450000D01*
X11326741Y-11503284D01*
X11228284Y-11601741D01*
X11201036Y-11667525D01*
X11171716Y-11596741D01*
X11073259Y-11498284D01*
X10944619Y-11445000D01*
X10805381Y-11445000D01*
X10676741Y-11498284D01*
X10578284Y-11596741D01*
X10525000Y-11725381D01*
X225000Y-11725381D01*
X225000Y-10584836D01*
X15885545Y-10584836D01*
X15885545Y-10724074D01*
X15938829Y-10852714D01*
X16037286Y-10951171D01*
X16165926Y-11004455D01*
X16305164Y-11004455D01*
X16433804Y-10951171D01*
X16532261Y-10852714D01*
X16585545Y-10724074D01*
X16585545Y-10615545D01*
X16694074Y-10615545D01*
X16822714Y-10562261D01*
X16921171Y-10463804D01*
X16974455Y-10335164D01*
X16974455Y-10195926D01*
X16921171Y-10067286D01*
X16822714Y-9968829D01*
X16694074Y-9915545D01*
X16554836Y-9915545D01*
X16426196Y-9968829D01*
X16327739Y-10067286D01*
X16274455Y-10195926D01*
X16274455Y-10304455D01*
X16165926Y-10304455D01*
X16037286Y-10357739D01*
X15938829Y-10456196D01*
X15885545Y-10584836D01*
X225000Y-10584836D01*
X225000Y-225000D01*
X24775000Y-225000D01*
X24775001Y-19775000D01*
G04 #@! TD*
M02*
