G04 #@! TF.GenerationSoftware,KiCad,Pcbnew,5.0.2+dfsg1-1~bpo9+1*
G04 #@! TF.CreationDate,2019-10-17T14:06:53+02:00*
G04 #@! TF.ProjectId,zglue-dragon-adapter,7a676c75-652d-4647-9261-676f6e2d6164,rev?*
G04 #@! TF.SameCoordinates,Original*
G04 #@! TF.FileFunction,Copper,L4,Inr*
G04 #@! TF.FilePolarity,Positive*
%FSLAX46Y46*%
G04 Gerber Fmt 4.6, Leading zero omitted, Abs format (unit mm)*
G04 Created by KiCad (PCBNEW 5.0.2+dfsg1-1~bpo9+1) date Thu 17 Oct 2019 02:06:53 PM CEST*
%MOMM*%
%LPD*%
G01*
G04 APERTURE LIST*
G04 #@! TA.AperFunction,ViaPad*
%ADD10C,0.400000*%
G04 #@! TD*
G04 #@! TA.AperFunction,Conductor*
%ADD11C,0.100000*%
G04 #@! TD*
G04 APERTURE END LIST*
D10*
G04 #@! TO.N,GND*
X16400000Y-14880000D03*
X17000000Y-15380000D03*
G04 #@! TO.N,/CSI_CLK_IN_P*
X8375545Y-9734455D03*
X5064455Y-5495545D03*
G04 #@! TO.N,/CSI_CLK_IN_N*
X8764455Y-9345545D03*
X4675545Y-5884455D03*
G04 #@! TO.N,Net-(U1-PadD8)*
X14125000Y-8205000D03*
G04 #@! TO.N,/ULPM_WAKE*
X10875000Y-8220000D03*
G04 #@! TO.N,/CSI_INT*
X13475000Y-8200000D03*
G04 #@! TO.N,/CTRL_OUT*
X11850000Y-4980000D03*
G04 #@! TO.N,/PROC_SCK*
X12175000Y-7525000D03*
G04 #@! TO.N,/MIPI_SEL*
X12850000Y-8225000D03*
G04 #@! TO.N,/PROC_SI*
X12825000Y-7525000D03*
G04 #@! TO.N,/PROC_OUT_0*
X10500000Y-4980000D03*
G04 #@! TO.N,/USB_DET*
X11550000Y-4580000D03*
G04 #@! TO.N,/PIO1*
X11475000Y-8215000D03*
G04 #@! TO.N,/CTRL_RST*
X12175000Y-8210000D03*
G04 #@! TO.N,/PIO2*
X10900000Y-4630000D03*
G04 #@! TO.N,/PROC_RST*
X11200000Y-5030000D03*
G04 #@! TD*
D11*
G04 #@! TO.N,GND*
G36*
X24775000Y-19775000D02*
X225000Y-19775000D01*
X225000Y-9664836D01*
X8025545Y-9664836D01*
X8025545Y-9804074D01*
X8078829Y-9932714D01*
X8177286Y-10031171D01*
X8305926Y-10084455D01*
X8445164Y-10084455D01*
X8573804Y-10031171D01*
X8672261Y-9932714D01*
X8725545Y-9804074D01*
X8725545Y-9695545D01*
X8834074Y-9695545D01*
X8962714Y-9642261D01*
X9061171Y-9543804D01*
X9114455Y-9415164D01*
X9114455Y-9275926D01*
X9061171Y-9147286D01*
X8962714Y-9048829D01*
X8834074Y-8995545D01*
X8694836Y-8995545D01*
X8566196Y-9048829D01*
X8467739Y-9147286D01*
X8414455Y-9275926D01*
X8414455Y-9384455D01*
X8305926Y-9384455D01*
X8177286Y-9437739D01*
X8078829Y-9536196D01*
X8025545Y-9664836D01*
X225000Y-9664836D01*
X225000Y-8150381D01*
X10525000Y-8150381D01*
X10525000Y-8289619D01*
X10578284Y-8418259D01*
X10676741Y-8516716D01*
X10805381Y-8570000D01*
X10944619Y-8570000D01*
X11073259Y-8516716D01*
X11171716Y-8418259D01*
X11176036Y-8407831D01*
X11178284Y-8413259D01*
X11276741Y-8511716D01*
X11405381Y-8565000D01*
X11544619Y-8565000D01*
X11673259Y-8511716D01*
X11771716Y-8413259D01*
X11825000Y-8284619D01*
X11825000Y-8279619D01*
X11878284Y-8408259D01*
X11976741Y-8506716D01*
X12105381Y-8560000D01*
X12244619Y-8560000D01*
X12373259Y-8506716D01*
X12471716Y-8408259D01*
X12509393Y-8317297D01*
X12553284Y-8423259D01*
X12651741Y-8521716D01*
X12780381Y-8575000D01*
X12919619Y-8575000D01*
X13048259Y-8521716D01*
X13146716Y-8423259D01*
X13167678Y-8372653D01*
X13178284Y-8398259D01*
X13276741Y-8496716D01*
X13405381Y-8550000D01*
X13544619Y-8550000D01*
X13673259Y-8496716D01*
X13771716Y-8398259D01*
X13798964Y-8332475D01*
X13828284Y-8403259D01*
X13926741Y-8501716D01*
X14055381Y-8555000D01*
X14194619Y-8555000D01*
X14323259Y-8501716D01*
X14421716Y-8403259D01*
X14475000Y-8274619D01*
X14475000Y-8135381D01*
X14421716Y-8006741D01*
X14323259Y-7908284D01*
X14194619Y-7855000D01*
X14055381Y-7855000D01*
X13926741Y-7908284D01*
X13828284Y-8006741D01*
X13801036Y-8072525D01*
X13771716Y-8001741D01*
X13673259Y-7903284D01*
X13544619Y-7850000D01*
X13405381Y-7850000D01*
X13276741Y-7903284D01*
X13178284Y-8001741D01*
X13157322Y-8052347D01*
X13146716Y-8026741D01*
X13048259Y-7928284D01*
X12919619Y-7875000D01*
X12894619Y-7875000D01*
X13023259Y-7821716D01*
X13121716Y-7723259D01*
X13175000Y-7594619D01*
X13175000Y-7455381D01*
X13121716Y-7326741D01*
X13023259Y-7228284D01*
X12894619Y-7175000D01*
X12755381Y-7175000D01*
X12626741Y-7228284D01*
X12528284Y-7326741D01*
X12500000Y-7395025D01*
X12471716Y-7326741D01*
X12373259Y-7228284D01*
X12244619Y-7175000D01*
X12105381Y-7175000D01*
X11976741Y-7228284D01*
X11878284Y-7326741D01*
X11825000Y-7455381D01*
X11825000Y-7594619D01*
X11878284Y-7723259D01*
X11976741Y-7821716D01*
X12087274Y-7867500D01*
X11976741Y-7913284D01*
X11878284Y-8011741D01*
X11825000Y-8140381D01*
X11825000Y-8145381D01*
X11771716Y-8016741D01*
X11673259Y-7918284D01*
X11544619Y-7865000D01*
X11405381Y-7865000D01*
X11276741Y-7918284D01*
X11178284Y-8016741D01*
X11173964Y-8027169D01*
X11171716Y-8021741D01*
X11073259Y-7923284D01*
X10944619Y-7870000D01*
X10805381Y-7870000D01*
X10676741Y-7923284D01*
X10578284Y-8021741D01*
X10525000Y-8150381D01*
X225000Y-8150381D01*
X225000Y-5814836D01*
X4325545Y-5814836D01*
X4325545Y-5954074D01*
X4378829Y-6082714D01*
X4477286Y-6181171D01*
X4605926Y-6234455D01*
X4745164Y-6234455D01*
X4873804Y-6181171D01*
X4972261Y-6082714D01*
X5025545Y-5954074D01*
X5025545Y-5845545D01*
X5134074Y-5845545D01*
X5262714Y-5792261D01*
X5361171Y-5693804D01*
X5414455Y-5565164D01*
X5414455Y-5425926D01*
X5361171Y-5297286D01*
X5262714Y-5198829D01*
X5134074Y-5145545D01*
X4994836Y-5145545D01*
X4866196Y-5198829D01*
X4767739Y-5297286D01*
X4714455Y-5425926D01*
X4714455Y-5534455D01*
X4605926Y-5534455D01*
X4477286Y-5587739D01*
X4378829Y-5686196D01*
X4325545Y-5814836D01*
X225000Y-5814836D01*
X225000Y-4910381D01*
X10150000Y-4910381D01*
X10150000Y-5049619D01*
X10203284Y-5178259D01*
X10301741Y-5276716D01*
X10430381Y-5330000D01*
X10569619Y-5330000D01*
X10698259Y-5276716D01*
X10796716Y-5178259D01*
X10850000Y-5049619D01*
X10850000Y-5099619D01*
X10903284Y-5228259D01*
X11001741Y-5326716D01*
X11130381Y-5380000D01*
X11269619Y-5380000D01*
X11398259Y-5326716D01*
X11496716Y-5228259D01*
X11535355Y-5134975D01*
X11553284Y-5178259D01*
X11651741Y-5276716D01*
X11780381Y-5330000D01*
X11919619Y-5330000D01*
X12048259Y-5276716D01*
X12146716Y-5178259D01*
X12200000Y-5049619D01*
X12200000Y-4910381D01*
X12146716Y-4781741D01*
X12048259Y-4683284D01*
X11919619Y-4630000D01*
X11900000Y-4630000D01*
X11900000Y-4510381D01*
X11846716Y-4381741D01*
X11748259Y-4283284D01*
X11619619Y-4230000D01*
X11480381Y-4230000D01*
X11351741Y-4283284D01*
X11253284Y-4381741D01*
X11214645Y-4475025D01*
X11196716Y-4431741D01*
X11098259Y-4333284D01*
X10969619Y-4280000D01*
X10830381Y-4280000D01*
X10701741Y-4333284D01*
X10603284Y-4431741D01*
X10550000Y-4560381D01*
X10550000Y-4630000D01*
X10430381Y-4630000D01*
X10301741Y-4683284D01*
X10203284Y-4781741D01*
X10150000Y-4910381D01*
X225000Y-4910381D01*
X225000Y-225000D01*
X24775001Y-225000D01*
X24775000Y-19775000D01*
X24775000Y-19775000D01*
G37*
X24775000Y-19775000D02*
X225000Y-19775000D01*
X225000Y-9664836D01*
X8025545Y-9664836D01*
X8025545Y-9804074D01*
X8078829Y-9932714D01*
X8177286Y-10031171D01*
X8305926Y-10084455D01*
X8445164Y-10084455D01*
X8573804Y-10031171D01*
X8672261Y-9932714D01*
X8725545Y-9804074D01*
X8725545Y-9695545D01*
X8834074Y-9695545D01*
X8962714Y-9642261D01*
X9061171Y-9543804D01*
X9114455Y-9415164D01*
X9114455Y-9275926D01*
X9061171Y-9147286D01*
X8962714Y-9048829D01*
X8834074Y-8995545D01*
X8694836Y-8995545D01*
X8566196Y-9048829D01*
X8467739Y-9147286D01*
X8414455Y-9275926D01*
X8414455Y-9384455D01*
X8305926Y-9384455D01*
X8177286Y-9437739D01*
X8078829Y-9536196D01*
X8025545Y-9664836D01*
X225000Y-9664836D01*
X225000Y-8150381D01*
X10525000Y-8150381D01*
X10525000Y-8289619D01*
X10578284Y-8418259D01*
X10676741Y-8516716D01*
X10805381Y-8570000D01*
X10944619Y-8570000D01*
X11073259Y-8516716D01*
X11171716Y-8418259D01*
X11176036Y-8407831D01*
X11178284Y-8413259D01*
X11276741Y-8511716D01*
X11405381Y-8565000D01*
X11544619Y-8565000D01*
X11673259Y-8511716D01*
X11771716Y-8413259D01*
X11825000Y-8284619D01*
X11825000Y-8279619D01*
X11878284Y-8408259D01*
X11976741Y-8506716D01*
X12105381Y-8560000D01*
X12244619Y-8560000D01*
X12373259Y-8506716D01*
X12471716Y-8408259D01*
X12509393Y-8317297D01*
X12553284Y-8423259D01*
X12651741Y-8521716D01*
X12780381Y-8575000D01*
X12919619Y-8575000D01*
X13048259Y-8521716D01*
X13146716Y-8423259D01*
X13167678Y-8372653D01*
X13178284Y-8398259D01*
X13276741Y-8496716D01*
X13405381Y-8550000D01*
X13544619Y-8550000D01*
X13673259Y-8496716D01*
X13771716Y-8398259D01*
X13798964Y-8332475D01*
X13828284Y-8403259D01*
X13926741Y-8501716D01*
X14055381Y-8555000D01*
X14194619Y-8555000D01*
X14323259Y-8501716D01*
X14421716Y-8403259D01*
X14475000Y-8274619D01*
X14475000Y-8135381D01*
X14421716Y-8006741D01*
X14323259Y-7908284D01*
X14194619Y-7855000D01*
X14055381Y-7855000D01*
X13926741Y-7908284D01*
X13828284Y-8006741D01*
X13801036Y-8072525D01*
X13771716Y-8001741D01*
X13673259Y-7903284D01*
X13544619Y-7850000D01*
X13405381Y-7850000D01*
X13276741Y-7903284D01*
X13178284Y-8001741D01*
X13157322Y-8052347D01*
X13146716Y-8026741D01*
X13048259Y-7928284D01*
X12919619Y-7875000D01*
X12894619Y-7875000D01*
X13023259Y-7821716D01*
X13121716Y-7723259D01*
X13175000Y-7594619D01*
X13175000Y-7455381D01*
X13121716Y-7326741D01*
X13023259Y-7228284D01*
X12894619Y-7175000D01*
X12755381Y-7175000D01*
X12626741Y-7228284D01*
X12528284Y-7326741D01*
X12500000Y-7395025D01*
X12471716Y-7326741D01*
X12373259Y-7228284D01*
X12244619Y-7175000D01*
X12105381Y-7175000D01*
X11976741Y-7228284D01*
X11878284Y-7326741D01*
X11825000Y-7455381D01*
X11825000Y-7594619D01*
X11878284Y-7723259D01*
X11976741Y-7821716D01*
X12087274Y-7867500D01*
X11976741Y-7913284D01*
X11878284Y-8011741D01*
X11825000Y-8140381D01*
X11825000Y-8145381D01*
X11771716Y-8016741D01*
X11673259Y-7918284D01*
X11544619Y-7865000D01*
X11405381Y-7865000D01*
X11276741Y-7918284D01*
X11178284Y-8016741D01*
X11173964Y-8027169D01*
X11171716Y-8021741D01*
X11073259Y-7923284D01*
X10944619Y-7870000D01*
X10805381Y-7870000D01*
X10676741Y-7923284D01*
X10578284Y-8021741D01*
X10525000Y-8150381D01*
X225000Y-8150381D01*
X225000Y-5814836D01*
X4325545Y-5814836D01*
X4325545Y-5954074D01*
X4378829Y-6082714D01*
X4477286Y-6181171D01*
X4605926Y-6234455D01*
X4745164Y-6234455D01*
X4873804Y-6181171D01*
X4972261Y-6082714D01*
X5025545Y-5954074D01*
X5025545Y-5845545D01*
X5134074Y-5845545D01*
X5262714Y-5792261D01*
X5361171Y-5693804D01*
X5414455Y-5565164D01*
X5414455Y-5425926D01*
X5361171Y-5297286D01*
X5262714Y-5198829D01*
X5134074Y-5145545D01*
X4994836Y-5145545D01*
X4866196Y-5198829D01*
X4767739Y-5297286D01*
X4714455Y-5425926D01*
X4714455Y-5534455D01*
X4605926Y-5534455D01*
X4477286Y-5587739D01*
X4378829Y-5686196D01*
X4325545Y-5814836D01*
X225000Y-5814836D01*
X225000Y-4910381D01*
X10150000Y-4910381D01*
X10150000Y-5049619D01*
X10203284Y-5178259D01*
X10301741Y-5276716D01*
X10430381Y-5330000D01*
X10569619Y-5330000D01*
X10698259Y-5276716D01*
X10796716Y-5178259D01*
X10850000Y-5049619D01*
X10850000Y-5099619D01*
X10903284Y-5228259D01*
X11001741Y-5326716D01*
X11130381Y-5380000D01*
X11269619Y-5380000D01*
X11398259Y-5326716D01*
X11496716Y-5228259D01*
X11535355Y-5134975D01*
X11553284Y-5178259D01*
X11651741Y-5276716D01*
X11780381Y-5330000D01*
X11919619Y-5330000D01*
X12048259Y-5276716D01*
X12146716Y-5178259D01*
X12200000Y-5049619D01*
X12200000Y-4910381D01*
X12146716Y-4781741D01*
X12048259Y-4683284D01*
X11919619Y-4630000D01*
X11900000Y-4630000D01*
X11900000Y-4510381D01*
X11846716Y-4381741D01*
X11748259Y-4283284D01*
X11619619Y-4230000D01*
X11480381Y-4230000D01*
X11351741Y-4283284D01*
X11253284Y-4381741D01*
X11214645Y-4475025D01*
X11196716Y-4431741D01*
X11098259Y-4333284D01*
X10969619Y-4280000D01*
X10830381Y-4280000D01*
X10701741Y-4333284D01*
X10603284Y-4431741D01*
X10550000Y-4560381D01*
X10550000Y-4630000D01*
X10430381Y-4630000D01*
X10301741Y-4683284D01*
X10203284Y-4781741D01*
X10150000Y-4910381D01*
X225000Y-4910381D01*
X225000Y-225000D01*
X24775001Y-225000D01*
X24775000Y-19775000D01*
G04 #@! TD*
M02*
