G04 #@! TF.GenerationSoftware,KiCad,Pcbnew,5.0.2+dfsg1-1~bpo9+1*
G04 #@! TF.CreationDate,2019-10-21T14:39:04+02:00*
G04 #@! TF.ProjectId,zglue-dragon-adapter,7a676c75-652d-4647-9261-676f6e2d6164,rev?*
G04 #@! TF.SameCoordinates,Original*
G04 #@! TF.FileFunction,Copper,L4,Inr*
G04 #@! TF.FilePolarity,Positive*
%FSLAX46Y46*%
G04 Gerber Fmt 4.6, Leading zero omitted, Abs format (unit mm)*
G04 Created by KiCad (PCBNEW 5.0.2+dfsg1-1~bpo9+1) date Mon 21 Oct 2019 02:39:04 PM CEST*
%MOMM*%
%LPD*%
G01*
G04 APERTURE LIST*
G04 #@! TA.AperFunction,ViaPad*
%ADD10C,0.457000*%
G04 #@! TD*
G04 #@! TA.AperFunction,Conductor*
%ADD11C,0.150000*%
G04 #@! TD*
G04 #@! TA.AperFunction,Conductor*
%ADD12C,0.100000*%
G04 #@! TD*
G04 #@! TA.AperFunction,Conductor*
%ADD13C,0.110000*%
G04 #@! TD*
G04 APERTURE END LIST*
D10*
G04 #@! TO.N,GND*
X12550000Y-8920000D03*
X12550000Y-10720000D03*
X13800000Y-10720000D03*
X11300000Y-10720000D03*
X11300000Y-8920000D03*
X13800000Y-8920000D03*
X13800000Y-9820000D03*
X11300000Y-9820000D03*
X12550000Y-9820000D03*
X19000000Y-2520000D03*
X13150000Y-1820000D03*
X14150000Y-1820000D03*
X11650000Y-1820000D03*
X1920000Y-10860000D03*
X7710000Y-13160000D03*
X5680000Y-12820000D03*
X19440000Y-9750000D03*
X7660000Y-5490000D03*
X17140000Y-5350000D03*
X22610000Y-7470000D03*
X22220000Y-13630000D03*
X22540000Y-14740000D03*
X19525000Y-8295000D03*
X5325000Y-3920000D03*
X7530000Y-2270000D03*
X20020000Y-15980000D03*
X3302842Y-8227962D03*
X1892225Y-8096490D03*
X20230000Y-8250000D03*
X8630000Y-2110000D03*
X9640000Y-2150000D03*
X16796500Y-17027001D03*
X21630000Y-14380000D03*
X5190000Y-5400000D03*
X12760000Y-19620001D03*
X8727692Y-13206674D03*
X16310000Y-9226500D03*
X4480000Y-7982216D03*
X3983498Y-10593498D03*
X8397353Y-17377353D03*
X9523510Y-14760000D03*
X8300000Y-13790000D03*
G04 #@! TO.N,/CSI_D2_IN_P*
X10555500Y-14919442D03*
X4246500Y-9500000D03*
G04 #@! TO.N,/CSI_D2_IN_N*
X10974607Y-15334607D03*
X4853500Y-9500000D03*
G04 #@! TO.N,/CSI_D3_IN_N*
X11745393Y-14925393D03*
X5114607Y-11034607D03*
G04 #@! TO.N,/CSI_D4_IN_N*
X5114607Y-12734607D03*
X12685393Y-15205393D03*
G04 #@! TO.N,/CSI_D4_IN_P*
X4685393Y-12305393D03*
X13114607Y-15634607D03*
G04 #@! TO.N,/CSI_D4_OUT_N*
X15124607Y-14985393D03*
X17090000Y-14380000D03*
G04 #@! TO.N,/CSI_D3_OUT_N*
X15984607Y-14985393D03*
X20120000Y-10873500D03*
G04 #@! TO.N,/3V3_SYS*
X8950000Y-13690000D03*
X9078521Y-5371269D03*
X20140000Y-11450000D03*
X20172576Y-13022673D03*
X3600000Y-18430000D03*
X9120000Y-2320000D03*
X7644993Y-17811501D03*
G04 #@! TO.N,/CSI_D3_IN_P*
X12174607Y-15354607D03*
X4685393Y-10605393D03*
G04 #@! TO.N,/2V5*
X14190000Y-16930000D03*
X4500000Y-6490000D03*
X990000Y-18540000D03*
X2583500Y-6770000D03*
G04 #@! TO.N,/1V8*
X18040000Y-16906922D03*
X11980000Y-17120000D03*
G04 #@! TO.N,/CSI_D4_OUT_P*
X14695393Y-15414607D03*
X16460000Y-14380000D03*
G04 #@! TO.N,/CSI_D3_OUT_P*
X15555393Y-15414607D03*
X20120000Y-10266500D03*
G04 #@! TO.N,/1V2*
X13170000Y-14860000D03*
X12493112Y-16763112D03*
G04 #@! TO.N,/LED3_ISINK*
X13343438Y-12476562D03*
X16710000Y-17660000D03*
X1980000Y-10310000D03*
G04 #@! TO.N,/LED1_ISINK*
X12170000Y-12390000D03*
X14150000Y-17570000D03*
X1892445Y-9190000D03*
G04 #@! TO.N,Net-(U1-PadM3)*
X11500000Y-11750000D03*
G04 #@! TO.N,/TMS*
X12770000Y-11870000D03*
X1856490Y-6184810D03*
G04 #@! TO.N,/VSENSE*
X12160000Y-11750000D03*
G04 #@! TO.N,/1V8_SYS*
X2390000Y-13480000D03*
X20090000Y-15340000D03*
G04 #@! TO.N,/LED2_ISINK*
X12756275Y-12476215D03*
X15400000Y-17570000D03*
X1900000Y-9750000D03*
G04 #@! TO.N,/EXTCLK_EN*
X10868367Y-11750000D03*
X7583257Y-17283083D03*
G04 #@! TO.N,/TDO*
X13690000Y-11780000D03*
X1814989Y-5628390D03*
G04 #@! TO.N,/3V3*
X8483978Y-12263510D03*
X21130000Y-16390000D03*
X2720000Y-18541491D03*
X2840000Y-19448500D03*
X8200000Y-15920000D03*
G04 #@! TO.N,/TDI*
X3390000Y-7650000D03*
X17177472Y-16347472D03*
G04 #@! TO.N,/PC_RDY*
X8387700Y-12786738D03*
X5150000Y-16280000D03*
G04 #@! TO.N,/TCK*
X20160000Y-12110000D03*
X1856490Y-6720000D03*
G04 #@! TO.N,/CSI_D2_OUT_N*
X16045393Y-11874607D03*
X21790000Y-8790000D03*
G04 #@! TO.N,/EXT_CLK*
X4410000Y-15540000D03*
X8110000Y-14340000D03*
G04 #@! TO.N,/I2C_0_SCL*
X14321498Y-11730000D03*
X4232064Y-11938786D03*
G04 #@! TO.N,/CSI_D2_OUT_P*
X16474607Y-11445393D03*
X21420000Y-8300000D03*
G04 #@! TO.N,/PWR_BTN*
X2451479Y-9990000D03*
G04 #@! TO.N,/I2C_0_SDA*
X17653618Y-10900000D03*
X2400000Y-11570000D03*
X4137647Y-12462353D03*
G04 #@! TO.N,/CSI_D1_IN_N*
X7505393Y-10444607D03*
X3000000Y-5850000D03*
G04 #@! TO.N,/CSI_D1_OUT_N*
X16195393Y-10504607D03*
X20930000Y-7920000D03*
G04 #@! TO.N,/CSI_D1_IN_P*
X7934607Y-10015393D03*
X3420000Y-5420000D03*
G04 #@! TO.N,/CSI_CLK_IN_P*
X8764607Y-9125393D03*
X4710000Y-3890000D03*
G04 #@! TO.N,/CSI_CLK_IN_N*
X8335393Y-9554607D03*
X4080000Y-3890000D03*
G04 #@! TO.N,/CSI_CLK_OUT_N*
X19974607Y-5974607D03*
X16376444Y-7882942D03*
G04 #@! TO.N,/CTRL_SO*
X22354377Y-8565698D03*
X2451479Y-14980000D03*
G04 #@! TO.N,/CTRL_SI*
X20320000Y-9580000D03*
X2451479Y-14040000D03*
G04 #@! TO.N,/CSI_OE*
X16570000Y-7020000D03*
X19830000Y-4220000D03*
G04 #@! TO.N,/CTRL_SCK*
X21590000Y-13680000D03*
X2970000Y-7220000D03*
X2210030Y-15769970D03*
X5458807Y-8151381D03*
G04 #@! TO.N,/CSI_CLK_OUT_P*
X16460000Y-8423500D03*
X19545393Y-5545393D03*
G04 #@! TO.N,/1V2_SYS_A*
X3963500Y-11160000D03*
X9094875Y-17769671D03*
X9410000Y-16481500D03*
X3273029Y-8779529D03*
G04 #@! TO.N,Net-(U1-PadD8)*
X14125000Y-8205000D03*
G04 #@! TO.N,/ULPM_WAKE*
X10875000Y-8220000D03*
X3500000Y-3020000D03*
G04 #@! TO.N,/PIO3*
X15850000Y-5210000D03*
X3850000Y-2120000D03*
G04 #@! TO.N,/2V5_SYS*
X3900000Y-7970000D03*
X3950000Y-14050000D03*
G04 #@! TO.N,/CSI_CLK_FP_N*
X16942947Y-7626529D03*
X17610000Y-4840000D03*
G04 #@! TO.N,/CSI_CLK_FP_P*
X8630000Y-7340000D03*
X16901453Y-3592653D03*
X8020000Y-2586500D03*
G04 #@! TO.N,/CSI_INT*
X13475000Y-8200000D03*
X2000000Y-2920000D03*
X3040000Y-6460000D03*
X15930000Y-2160000D03*
G04 #@! TO.N,/CTRL_OUT*
X11870000Y-4510000D03*
G04 #@! TO.N,/USB_D_N*
X13480000Y-5220000D03*
X4795075Y-14828425D03*
G04 #@! TO.N,/USB_D_P*
X13680000Y-4610000D03*
X4238075Y-14828425D03*
G04 #@! TO.N,/DBG_TX*
X15020000Y-4090000D03*
X1856490Y-7319481D03*
G04 #@! TO.N,/PROC_SCK*
X12175000Y-7525000D03*
X19650000Y-4820000D03*
X18225000Y-2922479D03*
G04 #@! TO.N,/MIPI_SEL*
X12850000Y-8225000D03*
X10460000Y-1100000D03*
G04 #@! TO.N,/PROC_SI*
X12825000Y-7525000D03*
X20400000Y-3570000D03*
G04 #@! TO.N,/PROC_OUT_0*
X10412988Y-4893263D03*
G04 #@! TO.N,/PROC_OUT_1*
X9870000Y-4910000D03*
G04 #@! TO.N,/I2C_1_SDA*
X14896480Y-5153657D03*
X2390000Y-12800000D03*
G04 #@! TO.N,/PROC_OUT_2*
X9330000Y-4890000D03*
G04 #@! TO.N,/USB_DET*
X11377176Y-4309597D03*
X2780000Y-16660000D03*
G04 #@! TO.N,/CTRL_SS*
X8599687Y-6808853D03*
X20960000Y-13660000D03*
X3926500Y-5180000D03*
G04 #@! TO.N,/PIO1*
X11475000Y-8215000D03*
X4200000Y-2591490D03*
G04 #@! TO.N,/CTRL_RST*
X12175000Y-8210000D03*
G04 #@! TO.N,/I2C_1_SCL*
X15400000Y-4520000D03*
X2400000Y-12190000D03*
X15762245Y-3108520D03*
G04 #@! TO.N,/1V2_SYS_B*
X8410000Y-19468500D03*
X22710000Y-18520000D03*
X12460000Y-1950000D03*
G04 #@! TO.N,/DONE*
X14460334Y-4827751D03*
X22870000Y-12560000D03*
X21225037Y-2944963D03*
G04 #@! TO.N,/DBG_RX*
X14310000Y-4210000D03*
X2420820Y-8034694D03*
G04 #@! TO.N,/PIO2*
X10600000Y-4390000D03*
X6580000Y-1170000D03*
G04 #@! TO.N,/PROC_SS*
X13340000Y-4100000D03*
X22025000Y-7320000D03*
G04 #@! TO.N,/PROC_RST*
X11120000Y-4820000D03*
G04 #@! TO.N,/PROC_SO*
X12596490Y-4820000D03*
X20400000Y-4570000D03*
G04 #@! TO.N,/VUSB*
X4906397Y-15348649D03*
X4707640Y-15980949D03*
G04 #@! TO.N,/1V2_SYS*
X1920000Y-13150000D03*
X880000Y-2500000D03*
X1780000Y-18541490D03*
G04 #@! TO.N,/CSI_D1_OUT_P*
X16624607Y-10075393D03*
X21380000Y-7470000D03*
G04 #@! TO.N,/E_PROC_SI*
X22710000Y-3690000D03*
G04 #@! TO.N,/E_PROC_SO*
X22560000Y-4690000D03*
G04 #@! TO.N,/E_PROC_SCK*
X22750000Y-6240000D03*
G04 #@! TO.N,/E_PROC_SS*
X22700000Y-6910000D03*
G04 #@! TO.N,/E_CTRL_SI*
X22920000Y-8500000D03*
G04 #@! TO.N,/E_CTRL_SO*
X22900000Y-9110000D03*
G04 #@! TO.N,/E_CTRL_SCK*
X22890000Y-9770000D03*
G04 #@! TO.N,/E_CTRL_SS*
X22940000Y-10490000D03*
G04 #@! TD*
D11*
G04 #@! TO.N,/3V3_SYS*
X20140000Y-11450000D02*
X20800000Y-12110000D01*
D12*
X20800000Y-13160000D02*
X20800000Y-13280000D01*
D11*
X20800000Y-13280000D02*
X20620000Y-13460000D01*
X20800000Y-13060000D02*
X20800000Y-13280000D01*
X20800000Y-13060000D02*
X20800000Y-13160000D01*
D12*
X20620000Y-13460000D02*
X20606499Y-13473501D01*
D11*
X20495723Y-13022673D02*
X20800000Y-12718396D01*
X20172576Y-13022673D02*
X20495723Y-13022673D01*
X20800000Y-12110000D02*
X20800000Y-12360000D01*
X20800000Y-12718396D02*
X20800000Y-12360000D01*
X20800000Y-12360000D02*
X20800000Y-13060000D01*
X20620000Y-13460000D02*
X20540000Y-13460000D01*
X20230000Y-13770000D02*
X20230000Y-14720000D01*
X20230000Y-14720000D02*
X20730000Y-15220000D01*
X3828499Y-18658499D02*
X3600000Y-18430000D01*
X4034989Y-18864989D02*
X3828499Y-18658499D01*
X18465011Y-18864989D02*
X4034989Y-18864989D01*
X20540000Y-13460000D02*
X20230000Y-13770000D01*
X20730000Y-16600000D02*
X18465011Y-18864989D01*
X20730000Y-15220000D02*
X20730000Y-16600000D01*
X6710000Y-17199655D02*
X7321846Y-17811501D01*
X8950000Y-14060182D02*
X6710000Y-16300182D01*
X8950000Y-13690000D02*
X8950000Y-14060182D01*
X6710000Y-16300182D02*
X6710000Y-17199655D01*
X7321846Y-17811501D02*
X7644993Y-17811501D01*
G04 #@! TO.N,/2V5*
X3570182Y-6490000D02*
X3221681Y-6838501D01*
X4500000Y-6490000D02*
X3570182Y-6490000D01*
D12*
X2620000Y-6733500D02*
X2583500Y-6770000D01*
X2620000Y-6590000D02*
X2620000Y-6733500D01*
D11*
X3221681Y-6838501D02*
X2970000Y-6838501D01*
X2970000Y-6838501D02*
X2868501Y-6838501D01*
X2652001Y-6838501D02*
X2583500Y-6770000D01*
X2970000Y-6838501D02*
X2652001Y-6838501D01*
D12*
G04 #@! TO.N,/LED3_ISINK*
X14200000Y-15820000D02*
X15600000Y-17220000D01*
X14200000Y-13420000D02*
X14200000Y-13940000D01*
X14200000Y-13940000D02*
X14200000Y-15820000D01*
X14200000Y-13260000D02*
X13420000Y-12480000D01*
X14200000Y-13940000D02*
X14200000Y-13260000D01*
X15600000Y-17220000D02*
X16400000Y-17220000D01*
X16400000Y-17220000D02*
X16700000Y-17520000D01*
G04 #@! TO.N,/LED1_ISINK*
X12170000Y-12390000D02*
X13600000Y-13820000D01*
X13600000Y-13820000D02*
X13600000Y-17020000D01*
X13600000Y-17020000D02*
X14150000Y-17570000D01*
D11*
G04 #@! TO.N,/1V8_SYS*
X2700000Y-17590000D02*
X2530000Y-17590000D01*
X2700000Y-17590000D02*
X2610000Y-17590000D01*
X2161501Y-13708499D02*
X2390000Y-13480000D01*
X1831529Y-16891529D02*
X1831529Y-14038471D01*
X1831529Y-14038471D02*
X2161501Y-13708499D01*
X2530000Y-17590000D02*
X1831529Y-16891529D01*
X4370160Y-18639978D02*
X3320182Y-17590000D01*
X20090000Y-15340000D02*
X20398501Y-15648501D01*
X20398501Y-16291499D02*
X18050022Y-18639978D01*
X18050022Y-18639978D02*
X4370160Y-18639978D01*
X3320182Y-17590000D02*
X2700000Y-17590000D01*
X20398501Y-15648501D02*
X20398501Y-16291499D01*
D12*
G04 #@! TO.N,/LED2_ISINK*
X12984774Y-12704714D02*
X12756275Y-12476215D01*
X13900000Y-13619940D02*
X12984774Y-12704714D01*
X13900000Y-16070000D02*
X13900000Y-13619940D01*
X15400000Y-17570000D02*
X13900000Y-16070000D01*
G04 #@! TO.N,/EXTCLK_EN*
X10868367Y-11750000D02*
X10868367Y-13997973D01*
X10868367Y-13997973D02*
X7811756Y-17054584D01*
X7811756Y-17054584D02*
X7583257Y-17283083D01*
G04 #@! TO.N,/TDO*
X1814989Y-5628390D02*
X1870888Y-5628390D01*
D11*
G04 #@! TO.N,/3V3*
X21130000Y-16860000D02*
X18900000Y-19090000D01*
X21130000Y-16390000D02*
X21130000Y-16860000D01*
X18900000Y-19090000D02*
X7620000Y-19090000D01*
X7620000Y-19090000D02*
X3140000Y-19090000D01*
X2840000Y-19390000D02*
X2840000Y-19448500D01*
X3140000Y-19090000D02*
X2840000Y-19390000D01*
X8960000Y-15160000D02*
X8428499Y-15691501D01*
X9500000Y-13279532D02*
X9500000Y-13880000D01*
X9500000Y-13880000D02*
X8960000Y-14420000D01*
X8428499Y-15691501D02*
X8200000Y-15920000D01*
X8483978Y-12263510D02*
X9500000Y-13279532D01*
X8960000Y-14420000D02*
X8960000Y-15160000D01*
D12*
G04 #@! TO.N,/TDI*
X3175000Y-7620000D02*
X2949332Y-7845668D01*
X2949332Y-7845668D02*
X2949332Y-8580044D01*
X2919528Y-9072026D02*
X2980000Y-9132498D01*
X17177472Y-18062528D02*
X17177472Y-16670619D01*
X2949332Y-8580044D02*
X2919528Y-8609848D01*
X2980000Y-9132498D02*
X2980000Y-15060000D01*
X17177472Y-16670619D02*
X17177472Y-16347472D01*
X6169999Y-18249999D02*
X16990001Y-18249999D01*
X2980000Y-15060000D02*
X6169999Y-18249999D01*
X16990001Y-18249999D02*
X17177472Y-18062528D01*
X2919528Y-8609848D02*
X2919528Y-9072026D01*
G04 #@! TO.N,/PC_RDY*
X8387700Y-13109885D02*
X8387700Y-12786738D01*
X5217585Y-16280000D02*
X8387700Y-13109885D01*
X5150000Y-16280000D02*
X5217585Y-16280000D01*
G04 #@! TO.N,/TCK*
X1920000Y-6783510D02*
X1856490Y-6720000D01*
X1920000Y-6820000D02*
X1920000Y-6783510D01*
X2804989Y-9204989D02*
X2744517Y-9144517D01*
X2744517Y-9144517D02*
X2744517Y-8537357D01*
X20160000Y-12110000D02*
X17660000Y-14610000D01*
X2744517Y-8537357D02*
X2774321Y-8507553D01*
X2084989Y-6948499D02*
X1856490Y-6720000D01*
X6045010Y-18425010D02*
X2804989Y-15184989D01*
X17660000Y-17850000D02*
X17084990Y-18425010D01*
X17084990Y-18425010D02*
X6045010Y-18425010D01*
X2774321Y-8507553D02*
X2774321Y-7637831D01*
X2804989Y-15184989D02*
X2804989Y-9204989D01*
X2774321Y-7637831D02*
X2084989Y-6948499D01*
X17660000Y-14610000D02*
X17660000Y-17850000D01*
G04 #@! TO.N,/EXT_CLK*
X4181501Y-15768499D02*
X4410000Y-15540000D01*
X8130000Y-14430000D02*
X5900000Y-16660000D01*
X5900000Y-16660000D02*
X4863509Y-16660000D01*
X4863509Y-16660000D02*
X4181501Y-15977992D01*
X4181501Y-15977992D02*
X4181501Y-15768499D01*
G04 #@! TO.N,/I2C_0_SCL*
X13893249Y-11388249D02*
X13893390Y-11388108D01*
X14321498Y-11730000D02*
X14235000Y-11730000D01*
X14235000Y-11730000D02*
X13893249Y-11388249D01*
X6421501Y-11791501D02*
X4328499Y-11791501D01*
X4328499Y-11791501D02*
X4100000Y-12020000D01*
X6437500Y-11807500D02*
X6421501Y-11791501D01*
X13893249Y-11388249D02*
X6856751Y-11388249D01*
X6856751Y-11388249D02*
X6437500Y-11807500D01*
G04 #@! TO.N,/I2C_0_SDA*
X15895000Y-10900000D02*
X15600000Y-11195000D01*
X3874148Y-11765852D02*
X3874148Y-12198854D01*
X4251892Y-11388108D02*
X3874148Y-11765852D01*
X15600000Y-11195000D02*
X6700000Y-11195000D01*
X3874148Y-12198854D02*
X3909148Y-12233854D01*
X6700000Y-11195000D02*
X6506892Y-11388108D01*
X3909148Y-12233854D02*
X4137647Y-12462353D01*
X17653618Y-10900000D02*
X15895000Y-10900000D01*
X6506892Y-11388108D02*
X4251892Y-11388108D01*
G04 #@! TO.N,/CTRL_SCK*
X4509812Y-7220000D02*
X5409823Y-8120011D01*
X2970000Y-7220000D02*
X4509812Y-7220000D01*
X5409823Y-8120011D02*
X5458807Y-8151381D01*
D11*
G04 #@! TO.N,/1V2_SYS_A*
X9094875Y-16796625D02*
X9410000Y-16481500D01*
X9094875Y-17769671D02*
X9094875Y-16796625D01*
G04 #@! TO.N,/2V5_SYS*
X3900000Y-7970000D02*
X3900000Y-9200000D01*
X3900000Y-9200000D02*
X3180010Y-9919990D01*
X3180010Y-9919990D02*
X3180010Y-13330010D01*
X3900000Y-14050000D02*
X3950000Y-14050000D01*
X3180010Y-13330010D02*
X3900000Y-14050000D01*
D12*
G04 #@! TO.N,/CSI_CLK_FP_P*
X16901453Y-3269506D02*
X16920000Y-3250959D01*
X16901453Y-3592653D02*
X16901453Y-3269506D01*
X16920000Y-3250959D02*
X16920000Y-2420000D01*
X16306499Y-1806499D02*
X15583501Y-1806499D01*
X16920000Y-2420000D02*
X16306499Y-1806499D01*
X15160000Y-2230000D02*
X15010000Y-2380000D01*
X15583501Y-1806499D02*
X15160000Y-2230000D01*
X8163500Y-2730000D02*
X8020000Y-2586500D01*
X15160000Y-2230000D02*
X14660000Y-2730000D01*
X14660000Y-2730000D02*
X8163500Y-2730000D01*
G04 #@! TO.N,/CSI_INT*
X15701501Y-2388499D02*
X15930000Y-2160000D01*
X15150000Y-2940000D02*
X15701501Y-2388499D01*
X7907500Y-2940000D02*
X15150000Y-2940000D01*
X7352500Y-3495000D02*
X7907500Y-2940000D01*
X2000000Y-2920000D02*
X2575000Y-3495000D01*
X2575000Y-3495000D02*
X7352500Y-3495000D01*
D13*
G04 #@! TO.N,/USB_D_N*
X13251501Y-5448499D02*
X13480000Y-5220000D01*
X12600000Y-6100000D02*
X13251501Y-5448499D01*
X10305000Y-7513494D02*
X11718494Y-6100000D01*
X6468494Y-10500000D02*
X8268494Y-8700000D01*
X5381506Y-10500000D02*
X6468494Y-10500000D01*
X9893494Y-8700000D02*
X10305000Y-8288494D01*
X5006506Y-10125000D02*
X5381506Y-10500000D01*
X3605000Y-10465000D02*
X3945000Y-10125000D01*
X3605000Y-12925000D02*
X3605000Y-10465000D01*
X10305000Y-8288494D02*
X10305000Y-7513494D01*
X4630000Y-14663350D02*
X4630000Y-13950000D01*
X8268494Y-8700000D02*
X9893494Y-8700000D01*
X3945000Y-10125000D02*
X5006506Y-10125000D01*
X11718494Y-6100000D02*
X12600000Y-6100000D01*
X4795075Y-14828425D02*
X4630000Y-14663350D01*
X4630000Y-13950000D02*
X3605000Y-12925000D01*
G04 #@! TO.N,/USB_D_P*
X10095000Y-7426506D02*
X11631506Y-5890000D01*
X10095000Y-8201506D02*
X10095000Y-7426506D01*
X9806506Y-8490000D02*
X10095000Y-8201506D01*
X4430000Y-14011644D02*
X3419989Y-13001634D01*
X4430000Y-14313353D02*
X4430000Y-14011644D01*
X4238075Y-14505278D02*
X4430000Y-14313353D01*
X3419989Y-13001634D02*
X3419989Y-10388366D01*
X12231506Y-5890000D02*
X13481506Y-4640000D01*
X8181506Y-8490000D02*
X9806506Y-8490000D01*
X5468494Y-10290000D02*
X6381506Y-10290000D01*
X13481506Y-4640000D02*
X13770000Y-4640000D01*
X4238075Y-14828425D02*
X4238075Y-14505278D01*
X3419989Y-10388366D02*
X3893355Y-9915000D01*
X3893355Y-9915000D02*
X5093494Y-9915000D01*
X11631506Y-5890000D02*
X12231506Y-5890000D01*
X5093494Y-9915000D02*
X5468494Y-10290000D01*
X6381506Y-10290000D02*
X8181506Y-8490000D01*
D12*
G04 #@! TO.N,/DBG_TX*
X14575000Y-3645000D02*
X8445000Y-3645000D01*
X8445000Y-3645000D02*
X7280000Y-4810000D01*
X7280000Y-4810000D02*
X2090000Y-4810000D01*
X2090000Y-4810000D02*
X1375011Y-5524989D01*
X1627991Y-7090982D02*
X1856490Y-7319481D01*
X15020000Y-4090000D02*
X14575000Y-3645000D01*
X1375011Y-5524989D02*
X1375011Y-6838002D01*
X1375011Y-6838002D02*
X1627991Y-7090982D01*
G04 #@! TO.N,/I2C_1_SDA*
X15124979Y-5382156D02*
X14896480Y-5153657D01*
X15462823Y-5720000D02*
X15124979Y-5382156D01*
X1735033Y-4284967D02*
X6810033Y-4284967D01*
X15863182Y-5720000D02*
X15462823Y-5720000D01*
X16203501Y-5379681D02*
X15863182Y-5720000D01*
X825001Y-11235001D02*
X825001Y-5194999D01*
X825001Y-5194999D02*
X1735033Y-4284967D01*
X15931926Y-2755019D02*
X16203501Y-3026594D01*
X15222491Y-3115011D02*
X15582483Y-2755019D01*
X2390000Y-12800000D02*
X825001Y-11235001D01*
X6810033Y-4284967D02*
X7979991Y-3115011D01*
X7979991Y-3115011D02*
X15222491Y-3115011D01*
X15582483Y-2755019D02*
X15931926Y-2755019D01*
X16203501Y-3026594D02*
X16203501Y-5379681D01*
G04 #@! TO.N,/CTRL_SS*
X4249647Y-5180000D02*
X4444637Y-4985010D01*
X3926500Y-5180000D02*
X4249647Y-5180000D01*
X4444637Y-4985010D02*
X7835010Y-4985010D01*
X8599687Y-5749687D02*
X8599687Y-6808853D01*
X7835010Y-4985010D02*
X8599687Y-5749687D01*
G04 #@! TO.N,/I2C_1_SCL*
X2400000Y-12320000D02*
X1000012Y-10920012D01*
X1000012Y-5319988D02*
X1860022Y-4459978D01*
X6935022Y-4459978D02*
X8104978Y-3290022D01*
X8104978Y-3290022D02*
X15580743Y-3290022D01*
X1000012Y-10920012D02*
X1000012Y-5319988D01*
X15580743Y-3290022D02*
X15762245Y-3108520D01*
X1860022Y-4459978D02*
X6935022Y-4459978D01*
D11*
G04 #@! TO.N,/1V2_SYS_B*
X22710000Y-18520000D02*
X23280000Y-17950000D01*
X23280000Y-17950000D02*
X23280000Y-13260000D01*
X23280000Y-13260000D02*
X23800000Y-12740000D01*
X23800000Y-12740000D02*
X23800000Y-3130000D01*
X23800000Y-3130000D02*
X21940000Y-1270000D01*
X13140000Y-1270000D02*
X13210000Y-1270000D01*
X12460000Y-1950000D02*
X13140000Y-1270000D01*
X21940000Y-1270000D02*
X13210000Y-1270000D01*
D12*
G04 #@! TO.N,/DONE*
X23480000Y-11950000D02*
X22870000Y-12560000D01*
X23480000Y-3425000D02*
X23480000Y-11950000D01*
X22999963Y-2944963D02*
X23480000Y-3425000D01*
X21225037Y-2944963D02*
X22999963Y-2944963D01*
G04 #@! TO.N,/DBG_RX*
X15105317Y-4748499D02*
X15246818Y-4890000D01*
X14888499Y-4748499D02*
X15105317Y-4748499D01*
X15646818Y-4890000D02*
X15900000Y-4636818D01*
X15246818Y-4890000D02*
X15646818Y-4890000D01*
X15900000Y-4530000D02*
X15900000Y-4320000D01*
X15900000Y-4636818D02*
X15900000Y-4530000D01*
X14660000Y-4520000D02*
X14800000Y-4660000D01*
X14800000Y-4660000D02*
X14888499Y-4748499D01*
X14578499Y-4438499D02*
X14800000Y-4660000D01*
X14310000Y-4210000D02*
X14350000Y-4210000D01*
X14350000Y-4210000D02*
X14578499Y-4438499D01*
X15900000Y-4530000D02*
X15900000Y-4230000D01*
X15900000Y-4230000D02*
X15139989Y-3469989D01*
X1722544Y-7742989D02*
X2129115Y-7742989D01*
X8270011Y-3469989D02*
X7105011Y-4634989D01*
X7105011Y-4634989D02*
X1965011Y-4634989D01*
X1200000Y-7220445D02*
X1722544Y-7742989D01*
X15139989Y-3469989D02*
X8270011Y-3469989D01*
X1200000Y-5400000D02*
X1200000Y-7220445D01*
X1965011Y-4634989D02*
X1200000Y-5400000D01*
X2129115Y-7742989D02*
X2192321Y-7806195D01*
X2192321Y-7806195D02*
X2420820Y-8034694D01*
D11*
G04 #@! TO.N,/1V2_SYS*
X880000Y-2500000D02*
X510000Y-2870000D01*
X510000Y-11740000D02*
X1920000Y-13150000D01*
X510000Y-2870000D02*
X510000Y-11740000D01*
X1551501Y-13518499D02*
X1551501Y-18312991D01*
X1920000Y-13150000D02*
X1551501Y-13518499D01*
X1551501Y-18312991D02*
X1780000Y-18541490D01*
G04 #@! TD*
M02*
