G04 #@! TF.GenerationSoftware,KiCad,Pcbnew,5.0.2+dfsg1-1~bpo9+1*
G04 #@! TF.CreationDate,2019-10-21T14:39:04+02:00*
G04 #@! TF.ProjectId,zglue-dragon-adapter,7a676c75-652d-4647-9261-676f6e2d6164,rev?*
G04 #@! TF.SameCoordinates,Original*
G04 #@! TF.FileFunction,Soldermask,Bot*
G04 #@! TF.FilePolarity,Negative*
%FSLAX46Y46*%
G04 Gerber Fmt 4.6, Leading zero omitted, Abs format (unit mm)*
G04 Created by KiCad (PCBNEW 5.0.2+dfsg1-1~bpo9+1) date Mon 21 Oct 2019 02:39:04 PM CEST*
%MOMM*%
%LPD*%
G01*
G04 APERTURE LIST*
%ADD10C,0.100000*%
G04 APERTURE END LIST*
D10*
G36*
X7029260Y-16659500D02*
X5607260Y-16659500D01*
X5607260Y-15257500D01*
X7029260Y-15257500D01*
X7029260Y-16659500D01*
X7029260Y-16659500D01*
G37*
G36*
X24529260Y-16659500D02*
X23107260Y-16659500D01*
X23107260Y-15257500D01*
X24529260Y-15257500D01*
X24529260Y-16659500D01*
X24529260Y-16659500D01*
G37*
G36*
X19408620Y-16654420D02*
X17986620Y-16654420D01*
X17986620Y-15252420D01*
X19408620Y-15252420D01*
X19408620Y-16654420D01*
X19408620Y-16654420D01*
G37*
G36*
X1908620Y-16654420D02*
X486620Y-16654420D01*
X486620Y-15252420D01*
X1908620Y-15252420D01*
X1908620Y-16654420D01*
X1908620Y-16654420D01*
G37*
G36*
X24607220Y-14953000D02*
X23405220Y-14953000D01*
X23405220Y-5051000D01*
X24607220Y-5051000D01*
X24607220Y-14953000D01*
X24607220Y-14953000D01*
G37*
G36*
X19108120Y-14953000D02*
X17906120Y-14953000D01*
X17906120Y-5051000D01*
X19108120Y-5051000D01*
X19108120Y-14953000D01*
X19108120Y-14953000D01*
G37*
G36*
X7107220Y-14953000D02*
X5905220Y-14953000D01*
X5905220Y-5051000D01*
X7107220Y-5051000D01*
X7107220Y-14953000D01*
X7107220Y-14953000D01*
G37*
G36*
X1608120Y-14953000D02*
X406120Y-14953000D01*
X406120Y-5051000D01*
X1608120Y-5051000D01*
X1608120Y-14953000D01*
X1608120Y-14953000D01*
G37*
G36*
X19408620Y-4751980D02*
X17986620Y-4751980D01*
X17986620Y-3349980D01*
X19408620Y-3349980D01*
X19408620Y-4751980D01*
X19408620Y-4751980D01*
G37*
G36*
X24529260Y-4751980D02*
X23107260Y-4751980D01*
X23107260Y-3349980D01*
X24529260Y-3349980D01*
X24529260Y-4751980D01*
X24529260Y-4751980D01*
G37*
G36*
X1908620Y-4751980D02*
X486620Y-4751980D01*
X486620Y-3349980D01*
X1908620Y-3349980D01*
X1908620Y-4751980D01*
X1908620Y-4751980D01*
G37*
G36*
X7029260Y-4751980D02*
X5607260Y-4751980D01*
X5607260Y-3349980D01*
X7029260Y-3349980D01*
X7029260Y-4751980D01*
X7029260Y-4751980D01*
G37*
M02*
