G04 #@! TF.GenerationSoftware,KiCad,Pcbnew,5.0.2+dfsg1-1~bpo9+1*
G04 #@! TF.CreationDate,2019-10-24T14:32:07+02:00*
G04 #@! TF.ProjectId,zglue-dragon-adapter,7a676c75-652d-4647-9261-676f6e2d6164,rev?*
G04 #@! TF.SameCoordinates,Original*
G04 #@! TF.FileFunction,Copper,L2,Inr*
G04 #@! TF.FilePolarity,Positive*
%FSLAX46Y46*%
G04 Gerber Fmt 4.6, Leading zero omitted, Abs format (unit mm)*
G04 Created by KiCad (PCBNEW 5.0.2+dfsg1-1~bpo9+1) date Thu 24 Oct 2019 02:32:07 PM CEST*
%MOMM*%
%LPD*%
G01*
G04 APERTURE LIST*
G04 #@! TA.AperFunction,ViaPad*
%ADD10C,0.457000*%
G04 #@! TD*
G04 #@! TA.AperFunction,Conductor*
%ADD11C,0.254000*%
G04 #@! TD*
G04 APERTURE END LIST*
D10*
G04 #@! TO.N,GND*
G04 #@! TO.C,U1*
X13100000Y-11150000D03*
X11900000Y-11150000D03*
X13100000Y-10000000D03*
X11900000Y-10000000D03*
X13100000Y-8850000D03*
X11850000Y-8850000D03*
X14050000Y-11150000D03*
X10950000Y-11150000D03*
X10950000Y-10000000D03*
X14050000Y-10000000D03*
X14050000Y-8850000D03*
X10950000Y-8850000D03*
G04 #@! TD*
G04 #@! TO.N,GND*
X19000000Y-2520000D03*
X13150000Y-1820000D03*
X14150000Y-1820000D03*
X11650000Y-1820000D03*
X1920000Y-10860000D03*
X19440000Y-9750000D03*
X7660000Y-5490000D03*
X17140000Y-5350000D03*
X22610000Y-7470000D03*
X22220000Y-13630000D03*
X22540000Y-14740000D03*
X19525000Y-8295000D03*
X5325000Y-3920000D03*
X7530000Y-2270000D03*
X20020000Y-15980000D03*
X3302842Y-8227962D03*
X1892225Y-8096490D03*
X20230000Y-8250000D03*
X8630000Y-2110000D03*
X9640000Y-2150000D03*
X21630000Y-14380000D03*
X8727692Y-13206674D03*
X16310000Y-9226500D03*
X4480000Y-7982216D03*
X3983498Y-10593498D03*
X8397353Y-17377353D03*
X9523510Y-14760000D03*
X8300000Y-13790000D03*
X16168831Y-16966500D03*
X11900000Y-19468500D03*
X7626500Y-6920000D03*
X5648835Y-13038500D03*
X5604994Y-12470495D03*
X11700000Y-17053510D03*
G04 #@! TO.N,/CSI_D2_IN_P*
X10500000Y-15120000D03*
X4246500Y-9500000D03*
G04 #@! TO.N,/CSI_D2_IN_N*
X11020000Y-15350000D03*
X4853500Y-9500000D03*
G04 #@! TO.N,/CSI_D3_IN_N*
X11745393Y-14925393D03*
X5114607Y-11034607D03*
G04 #@! TO.N,/CSI_D4_IN_N*
X5114607Y-12734607D03*
X12685393Y-15205393D03*
G04 #@! TO.N,/CSI_D4_IN_P*
X4685393Y-12305393D03*
X13114607Y-15634607D03*
G04 #@! TO.N,/CSI_D4_OUT_N*
X15124607Y-14985393D03*
X17090000Y-14380000D03*
G04 #@! TO.N,/CSI_D3_OUT_N*
X15984607Y-14985393D03*
X20120000Y-10873500D03*
G04 #@! TO.N,/3V3_SYS*
X8950000Y-13690000D03*
X9078521Y-5371269D03*
X20140000Y-11450000D03*
X3600000Y-18430000D03*
X9120000Y-2320000D03*
X7644993Y-17811501D03*
X20166480Y-13022063D03*
G04 #@! TO.N,/CSI_D3_IN_P*
X12174607Y-15354607D03*
X4685393Y-10605393D03*
G04 #@! TO.N,/2V5*
X14190000Y-16930000D03*
X4500000Y-6490000D03*
X990000Y-18540000D03*
X2583500Y-6770000D03*
G04 #@! TO.N,/1V8*
X18040000Y-16906922D03*
X12330000Y-17320000D03*
G04 #@! TO.N,/CSI_D4_OUT_P*
X14695393Y-15414607D03*
X16460000Y-14380000D03*
G04 #@! TO.N,/CSI_D3_OUT_P*
X15555393Y-15414607D03*
X20120000Y-10266500D03*
G04 #@! TO.N,/1V2*
X13170000Y-14860000D03*
X12493112Y-16763112D03*
G04 #@! TO.N,/LED3_ISINK*
X13343438Y-12476562D03*
X16710000Y-17660000D03*
X1980000Y-10310000D03*
G04 #@! TO.N,/LED1_ISINK*
X12170000Y-12390000D03*
X14150000Y-17570000D03*
X1892445Y-9190000D03*
G04 #@! TO.N,Net-(U1-PadM3)*
X11500000Y-11750000D03*
G04 #@! TO.N,/TMS*
X1856490Y-6184810D03*
X12840000Y-11810000D03*
G04 #@! TO.N,/VSENSE*
X12160000Y-11750000D03*
X16060037Y-17673510D03*
G04 #@! TO.N,/1V8_SYS*
X2390000Y-13480000D03*
X20090000Y-15340000D03*
G04 #@! TO.N,/LED2_ISINK*
X12756275Y-12476215D03*
X15400000Y-17570000D03*
X1900000Y-9750000D03*
G04 #@! TO.N,/EXTCLK_EN*
X10868367Y-11750000D03*
X7583257Y-17283083D03*
G04 #@! TO.N,/TDO*
X13690000Y-11780000D03*
X1814989Y-5628390D03*
G04 #@! TO.N,/3V3*
X8483978Y-12263510D03*
X21130000Y-16390000D03*
X2720000Y-18541491D03*
X2840000Y-19448500D03*
X8200000Y-15920000D03*
G04 #@! TO.N,/TDI*
X3390000Y-7650000D03*
X17177472Y-16347472D03*
G04 #@! TO.N,/PC_RDY*
X8387700Y-12786738D03*
X5150000Y-16280000D03*
G04 #@! TO.N,/TCK*
X20160000Y-12110000D03*
X1856490Y-6720000D03*
G04 #@! TO.N,/CSI_D2_OUT_N*
X16045393Y-11874607D03*
X21790000Y-8790000D03*
G04 #@! TO.N,/EXT_CLK*
X4410000Y-15540000D03*
X8110000Y-14340000D03*
G04 #@! TO.N,/I2C_0_SCL*
X14321498Y-11770000D03*
X4232218Y-11907708D03*
G04 #@! TO.N,/CSI_D2_OUT_P*
X16474607Y-11445393D03*
X21420000Y-8300000D03*
G04 #@! TO.N,/PWR_BTN*
X2451479Y-9990000D03*
G04 #@! TO.N,/I2C_0_SDA*
X17653618Y-10900000D03*
X2400000Y-11570000D03*
X4137647Y-12462353D03*
G04 #@! TO.N,/CSI_D1_IN_N*
X7505393Y-10444607D03*
X3000000Y-5850000D03*
G04 #@! TO.N,/CSI_D1_OUT_N*
X16195393Y-10504607D03*
X20930000Y-7920000D03*
G04 #@! TO.N,/CSI_D1_IN_P*
X7934607Y-10015393D03*
X3420000Y-5420000D03*
G04 #@! TO.N,/CSI_CLK_IN_P*
X8764607Y-9125393D03*
X4710000Y-3890000D03*
G04 #@! TO.N,/CSI_CLK_IN_N*
X8335393Y-9554607D03*
X4080000Y-3890000D03*
G04 #@! TO.N,/CSI_CLK_OUT_N*
X19974607Y-5974607D03*
X16376444Y-7882942D03*
G04 #@! TO.N,/CTRL_SO*
X22354377Y-8565698D03*
X2451479Y-14980000D03*
G04 #@! TO.N,/CTRL_SI*
X20320000Y-9580000D03*
X2451479Y-14040000D03*
G04 #@! TO.N,/CSI_OE*
X16570000Y-7020000D03*
X19830000Y-4220000D03*
G04 #@! TO.N,/CTRL_SCK*
X21590000Y-13680000D03*
X2970000Y-7220000D03*
X2210030Y-15769970D03*
X5458807Y-8151381D03*
G04 #@! TO.N,/CSI_CLK_OUT_P*
X16460000Y-8423500D03*
X19545393Y-5545393D03*
G04 #@! TO.N,/1V2_SYS_A*
X3963500Y-11160000D03*
X9094875Y-17769671D03*
X9410000Y-16481500D03*
X3273029Y-8779529D03*
G04 #@! TO.N,Net-(U1-PadD8)*
X14125000Y-8205000D03*
G04 #@! TO.N,/ULPM_WAKE*
X10875000Y-8220000D03*
X3500000Y-3020000D03*
G04 #@! TO.N,/PIO3*
X15850000Y-5210000D03*
X3850000Y-2120000D03*
G04 #@! TO.N,/2V5_SYS*
X3900000Y-7970000D03*
X3950000Y-14050000D03*
G04 #@! TO.N,/CSI_CLK_FP_N*
X16942947Y-7626529D03*
X17610000Y-4840000D03*
G04 #@! TO.N,/CSI_CLK_FP_P*
X8630000Y-7340000D03*
X16901453Y-3592653D03*
X8020000Y-2586500D03*
G04 #@! TO.N,/CSI_INT*
X13475000Y-8200000D03*
X2000000Y-2920000D03*
X3040000Y-6460000D03*
X15930000Y-2160000D03*
G04 #@! TO.N,/CTRL_OUT*
X11870000Y-4510000D03*
G04 #@! TO.N,/USB_D_N*
X13480000Y-5220000D03*
X4795075Y-14828425D03*
G04 #@! TO.N,/USB_D_P*
X13680000Y-4610000D03*
X4238075Y-14828425D03*
G04 #@! TO.N,/DBG_TX*
X15020000Y-4090000D03*
X1856490Y-7319481D03*
G04 #@! TO.N,/PROC_SCK*
X12175000Y-7525000D03*
X19650000Y-4820000D03*
X18225000Y-2922479D03*
G04 #@! TO.N,/MIPI_SEL*
X12850000Y-8225000D03*
X10460000Y-1100000D03*
G04 #@! TO.N,/PROC_SI*
X12825000Y-7525000D03*
X20400000Y-3570000D03*
G04 #@! TO.N,/PROC_OUT_0*
X10412988Y-4893263D03*
G04 #@! TO.N,/PROC_OUT_1*
X9870000Y-4910000D03*
G04 #@! TO.N,/I2C_1_SDA*
X14896480Y-5153657D03*
X2390000Y-12800000D03*
G04 #@! TO.N,/PROC_OUT_2*
X9330000Y-4890000D03*
G04 #@! TO.N,/USB_DET*
X11377176Y-4309597D03*
X2780000Y-16660000D03*
G04 #@! TO.N,/CTRL_SS*
X8599687Y-6808853D03*
X20960000Y-13660000D03*
X3926500Y-5180000D03*
G04 #@! TO.N,/PIO1*
X11475000Y-8215000D03*
X4200000Y-2591490D03*
G04 #@! TO.N,/CTRL_RST*
X12175000Y-8210000D03*
X19920000Y-800000D03*
G04 #@! TO.N,/I2C_1_SCL*
X15400000Y-4520000D03*
X2400000Y-12190000D03*
X15762245Y-3108520D03*
G04 #@! TO.N,/1V2_SYS_B*
X8410000Y-19468500D03*
X12460000Y-1950000D03*
X13650000Y-19560000D03*
G04 #@! TO.N,/DONE*
X14460334Y-4827751D03*
X22870000Y-12560000D03*
X21225037Y-2944963D03*
G04 #@! TO.N,/DBG_RX*
X14310000Y-4210000D03*
X2420820Y-8034694D03*
G04 #@! TO.N,/PIO2*
X10600000Y-4390000D03*
X6580000Y-1170000D03*
G04 #@! TO.N,/PROC_SS*
X13340000Y-4100000D03*
X22025000Y-7320000D03*
G04 #@! TO.N,/PROC_RST*
X11220000Y-1360000D03*
X19290000Y-620000D03*
G04 #@! TO.N,/PROC_SO*
X12596490Y-4820000D03*
X20400000Y-4570000D03*
G04 #@! TO.N,/VUSB*
X4906397Y-15348649D03*
X4707640Y-15980949D03*
G04 #@! TO.N,/1V2_SYS*
X1920000Y-13150000D03*
X880000Y-2500000D03*
X1780000Y-18541490D03*
G04 #@! TO.N,/CSI_D1_OUT_P*
X16624607Y-10075393D03*
X21380000Y-7470000D03*
G04 #@! TO.N,/E_PROC_RST*
X22630000Y-960000D03*
G04 #@! TO.N,/E_PROC_SI*
X22710000Y-3690000D03*
G04 #@! TO.N,/E_PROC_SO*
X22560000Y-4690000D03*
G04 #@! TO.N,/E_PROC_SCK*
X22750000Y-6240000D03*
G04 #@! TO.N,/E_PROC_SS*
X22700000Y-6910000D03*
G04 #@! TO.N,/CTRL_RST_FLASH_SOC_CS*
X22220000Y-2440000D03*
X22350000Y-7980000D03*
G04 #@! TO.N,/E_CTRL_SI*
X22920000Y-8500000D03*
G04 #@! TO.N,/E_CTRL_SO*
X22900000Y-9110000D03*
G04 #@! TO.N,/E_CTRL_SCK*
X22890000Y-9770000D03*
G04 #@! TO.N,/E_CTRL_SS*
X22963510Y-10490000D03*
G04 #@! TD*
D11*
G04 #@! TO.N,GND*
G36*
X18903846Y-361980D02*
X18834500Y-529395D01*
X18834500Y-710605D01*
X18903846Y-878020D01*
X19031980Y-1006154D01*
X19199395Y-1075500D01*
X19380605Y-1075500D01*
X19517584Y-1018761D01*
X19533846Y-1058020D01*
X19661980Y-1186154D01*
X19829395Y-1255500D01*
X20010605Y-1255500D01*
X20178020Y-1186154D01*
X20306154Y-1058020D01*
X20375500Y-890605D01*
X20375500Y-869395D01*
X22174500Y-869395D01*
X22174500Y-1050605D01*
X22243846Y-1218020D01*
X22371980Y-1346154D01*
X22539395Y-1415500D01*
X22720605Y-1415500D01*
X22888020Y-1346154D01*
X23016154Y-1218020D01*
X23085500Y-1050605D01*
X23085500Y-869395D01*
X23016154Y-701980D01*
X22888020Y-573846D01*
X22720605Y-504500D01*
X22539395Y-504500D01*
X22371980Y-573846D01*
X22243846Y-701980D01*
X22174500Y-869395D01*
X20375500Y-869395D01*
X20375500Y-709395D01*
X20306154Y-541980D01*
X20178020Y-413846D01*
X20010605Y-344500D01*
X19829395Y-344500D01*
X19692416Y-401239D01*
X19676154Y-361980D01*
X19616174Y-302000D01*
X24698001Y-302000D01*
X24698000Y-19698000D01*
X14085868Y-19698000D01*
X14105500Y-19650605D01*
X14105500Y-19469395D01*
X14036154Y-19301980D01*
X13908020Y-19173846D01*
X13740605Y-19104500D01*
X13559395Y-19104500D01*
X13391980Y-19173846D01*
X13263846Y-19301980D01*
X13194500Y-19469395D01*
X13194500Y-19650605D01*
X13214132Y-19698000D01*
X8807967Y-19698000D01*
X8865500Y-19559105D01*
X8865500Y-19377895D01*
X8796154Y-19210480D01*
X8668020Y-19082346D01*
X8500605Y-19013000D01*
X8319395Y-19013000D01*
X8151980Y-19082346D01*
X8023846Y-19210480D01*
X7954500Y-19377895D01*
X7954500Y-19559105D01*
X8012033Y-19698000D01*
X3229683Y-19698000D01*
X3295500Y-19539105D01*
X3295500Y-19357895D01*
X3226154Y-19190480D01*
X3098020Y-19062346D01*
X2930605Y-18993000D01*
X2820240Y-18993000D01*
X2978020Y-18927645D01*
X3106154Y-18799511D01*
X3175500Y-18632096D01*
X3175500Y-18595445D01*
X3213846Y-18688020D01*
X3341980Y-18816154D01*
X3509395Y-18885500D01*
X3690605Y-18885500D01*
X3858020Y-18816154D01*
X3986154Y-18688020D01*
X4055500Y-18520605D01*
X4055500Y-18339395D01*
X3986154Y-18171980D01*
X3858020Y-18043846D01*
X3690605Y-17974500D01*
X3509395Y-17974500D01*
X3341980Y-18043846D01*
X3213846Y-18171980D01*
X3144500Y-18339395D01*
X3144500Y-18376046D01*
X3106154Y-18283471D01*
X2978020Y-18155337D01*
X2810605Y-18085991D01*
X2629395Y-18085991D01*
X2461980Y-18155337D01*
X2333846Y-18283471D01*
X2264500Y-18450886D01*
X2264500Y-18632096D01*
X2333846Y-18799511D01*
X2461980Y-18927645D01*
X2629395Y-18996991D01*
X2739760Y-18996991D01*
X2581980Y-19062346D01*
X2453846Y-19190480D01*
X2384500Y-19357895D01*
X2384500Y-19539105D01*
X2450317Y-19698000D01*
X302000Y-19698000D01*
X302000Y-18449395D01*
X534500Y-18449395D01*
X534500Y-18630605D01*
X603846Y-18798020D01*
X731980Y-18926154D01*
X899395Y-18995500D01*
X1080605Y-18995500D01*
X1248020Y-18926154D01*
X1376154Y-18798020D01*
X1384691Y-18777409D01*
X1393846Y-18799510D01*
X1521980Y-18927644D01*
X1689395Y-18996990D01*
X1870605Y-18996990D01*
X2038020Y-18927644D01*
X2166154Y-18799510D01*
X2235500Y-18632095D01*
X2235500Y-18450885D01*
X2166154Y-18283470D01*
X2038020Y-18155336D01*
X1870605Y-18085990D01*
X1689395Y-18085990D01*
X1521980Y-18155336D01*
X1393846Y-18283470D01*
X1385309Y-18304081D01*
X1376154Y-18281980D01*
X1248020Y-18153846D01*
X1080605Y-18084500D01*
X899395Y-18084500D01*
X731980Y-18153846D01*
X603846Y-18281980D01*
X534500Y-18449395D01*
X302000Y-18449395D01*
X302000Y-17192478D01*
X7127757Y-17192478D01*
X7127757Y-17373688D01*
X7197103Y-17541103D01*
X7244382Y-17588382D01*
X7189493Y-17720896D01*
X7189493Y-17902106D01*
X7258839Y-18069521D01*
X7386973Y-18197655D01*
X7554388Y-18267001D01*
X7735598Y-18267001D01*
X7903013Y-18197655D01*
X8031147Y-18069521D01*
X8100493Y-17902106D01*
X8100493Y-17720896D01*
X8083167Y-17679066D01*
X8639375Y-17679066D01*
X8639375Y-17860276D01*
X8708721Y-18027691D01*
X8836855Y-18155825D01*
X9004270Y-18225171D01*
X9185480Y-18225171D01*
X9352895Y-18155825D01*
X9481029Y-18027691D01*
X9550375Y-17860276D01*
X9550375Y-17679066D01*
X9481029Y-17511651D01*
X9352895Y-17383517D01*
X9185480Y-17314171D01*
X9004270Y-17314171D01*
X8836855Y-17383517D01*
X8708721Y-17511651D01*
X8639375Y-17679066D01*
X8083167Y-17679066D01*
X8031147Y-17553481D01*
X7983868Y-17506202D01*
X8038757Y-17373688D01*
X8038757Y-17229395D01*
X11874500Y-17229395D01*
X11874500Y-17410605D01*
X11943846Y-17578020D01*
X12071980Y-17706154D01*
X12239395Y-17775500D01*
X12420605Y-17775500D01*
X12588020Y-17706154D01*
X12716154Y-17578020D01*
X12757006Y-17479395D01*
X13694500Y-17479395D01*
X13694500Y-17660605D01*
X13763846Y-17828020D01*
X13891980Y-17956154D01*
X14059395Y-18025500D01*
X14240605Y-18025500D01*
X14408020Y-17956154D01*
X14536154Y-17828020D01*
X14605500Y-17660605D01*
X14605500Y-17479395D01*
X14944500Y-17479395D01*
X14944500Y-17660605D01*
X15013846Y-17828020D01*
X15141980Y-17956154D01*
X15309395Y-18025500D01*
X15490605Y-18025500D01*
X15658020Y-17956154D01*
X15678264Y-17935911D01*
X15802017Y-18059664D01*
X15969432Y-18129010D01*
X16150642Y-18129010D01*
X16318057Y-18059664D01*
X16391774Y-17985948D01*
X16451980Y-18046154D01*
X16619395Y-18115500D01*
X16800605Y-18115500D01*
X16968020Y-18046154D01*
X17096154Y-17918020D01*
X17165500Y-17750605D01*
X17165500Y-17569395D01*
X17096154Y-17401980D01*
X16968020Y-17273846D01*
X16800605Y-17204500D01*
X16619395Y-17204500D01*
X16451980Y-17273846D01*
X16378264Y-17347563D01*
X16318057Y-17287356D01*
X16150642Y-17218010D01*
X15969432Y-17218010D01*
X15802017Y-17287356D01*
X15781774Y-17307600D01*
X15658020Y-17183846D01*
X15490605Y-17114500D01*
X15309395Y-17114500D01*
X15141980Y-17183846D01*
X15013846Y-17311980D01*
X14944500Y-17479395D01*
X14605500Y-17479395D01*
X14536154Y-17311980D01*
X14494174Y-17270000D01*
X14576154Y-17188020D01*
X14645500Y-17020605D01*
X14645500Y-16839395D01*
X14635941Y-16816317D01*
X17584500Y-16816317D01*
X17584500Y-16997527D01*
X17653846Y-17164942D01*
X17781980Y-17293076D01*
X17949395Y-17362422D01*
X18130605Y-17362422D01*
X18298020Y-17293076D01*
X18426154Y-17164942D01*
X18495500Y-16997527D01*
X18495500Y-16816317D01*
X18426154Y-16648902D01*
X18298020Y-16520768D01*
X18130605Y-16451422D01*
X17949395Y-16451422D01*
X17781980Y-16520768D01*
X17653846Y-16648902D01*
X17584500Y-16816317D01*
X14635941Y-16816317D01*
X14576154Y-16671980D01*
X14448020Y-16543846D01*
X14280605Y-16474500D01*
X14099395Y-16474500D01*
X13931980Y-16543846D01*
X13803846Y-16671980D01*
X13734500Y-16839395D01*
X13734500Y-17020605D01*
X13803846Y-17188020D01*
X13845826Y-17230000D01*
X13763846Y-17311980D01*
X13694500Y-17479395D01*
X12757006Y-17479395D01*
X12785500Y-17410605D01*
X12785500Y-17229395D01*
X12751964Y-17148434D01*
X12879266Y-17021132D01*
X12948612Y-16853717D01*
X12948612Y-16672507D01*
X12879266Y-16505092D01*
X12751132Y-16376958D01*
X12583717Y-16307612D01*
X12402507Y-16307612D01*
X12235092Y-16376958D01*
X12106958Y-16505092D01*
X12037612Y-16672507D01*
X12037612Y-16853717D01*
X12071148Y-16934678D01*
X11943846Y-17061980D01*
X11874500Y-17229395D01*
X8038757Y-17229395D01*
X8038757Y-17192478D01*
X7969411Y-17025063D01*
X7841277Y-16896929D01*
X7673862Y-16827583D01*
X7492652Y-16827583D01*
X7325237Y-16896929D01*
X7197103Y-17025063D01*
X7127757Y-17192478D01*
X302000Y-17192478D01*
X302000Y-16569395D01*
X2324500Y-16569395D01*
X2324500Y-16750605D01*
X2393846Y-16918020D01*
X2521980Y-17046154D01*
X2689395Y-17115500D01*
X2870605Y-17115500D01*
X3038020Y-17046154D01*
X3166154Y-16918020D01*
X3235500Y-16750605D01*
X3235500Y-16569395D01*
X3166154Y-16401980D01*
X3038020Y-16273846D01*
X2870605Y-16204500D01*
X2689395Y-16204500D01*
X2521980Y-16273846D01*
X2393846Y-16401980D01*
X2324500Y-16569395D01*
X302000Y-16569395D01*
X302000Y-15679365D01*
X1754530Y-15679365D01*
X1754530Y-15860575D01*
X1823876Y-16027990D01*
X1952010Y-16156124D01*
X2119425Y-16225470D01*
X2300635Y-16225470D01*
X2468050Y-16156124D01*
X2596184Y-16027990D01*
X2665530Y-15860575D01*
X2665530Y-15679365D01*
X2596184Y-15511950D01*
X2519734Y-15435500D01*
X2542084Y-15435500D01*
X2709499Y-15366154D01*
X2837633Y-15238020D01*
X2906979Y-15070605D01*
X2906979Y-14889395D01*
X2837633Y-14721980D01*
X2709499Y-14593846D01*
X2542084Y-14524500D01*
X2360874Y-14524500D01*
X2193459Y-14593846D01*
X2065325Y-14721980D01*
X1995979Y-14889395D01*
X1995979Y-15070605D01*
X2065325Y-15238020D01*
X2141775Y-15314470D01*
X2119425Y-15314470D01*
X1952010Y-15383816D01*
X1823876Y-15511950D01*
X1754530Y-15679365D01*
X302000Y-15679365D01*
X302000Y-13059395D01*
X1464500Y-13059395D01*
X1464500Y-13240605D01*
X1533846Y-13408020D01*
X1661980Y-13536154D01*
X1829395Y-13605500D01*
X1948954Y-13605500D01*
X2003846Y-13738020D01*
X2060194Y-13794368D01*
X1995979Y-13949395D01*
X1995979Y-14130605D01*
X2065325Y-14298020D01*
X2193459Y-14426154D01*
X2360874Y-14495500D01*
X2542084Y-14495500D01*
X2709499Y-14426154D01*
X2837633Y-14298020D01*
X2906979Y-14130605D01*
X2906979Y-13959395D01*
X3494500Y-13959395D01*
X3494500Y-14140605D01*
X3563846Y-14308020D01*
X3691980Y-14436154D01*
X3859395Y-14505500D01*
X3916826Y-14505500D01*
X3851921Y-14570405D01*
X3782575Y-14737820D01*
X3782575Y-14919030D01*
X3851921Y-15086445D01*
X3980055Y-15214579D01*
X4058679Y-15247147D01*
X4023846Y-15281980D01*
X3954500Y-15449395D01*
X3954500Y-15630605D01*
X4023846Y-15798020D01*
X4151980Y-15926154D01*
X4252140Y-15967642D01*
X4252140Y-16071554D01*
X4321486Y-16238969D01*
X4449620Y-16367103D01*
X4617035Y-16436449D01*
X4721774Y-16436449D01*
X4763846Y-16538020D01*
X4891980Y-16666154D01*
X5059395Y-16735500D01*
X5240605Y-16735500D01*
X5408020Y-16666154D01*
X5536154Y-16538020D01*
X5597095Y-16390895D01*
X8954500Y-16390895D01*
X8954500Y-16572105D01*
X9023846Y-16739520D01*
X9151980Y-16867654D01*
X9319395Y-16937000D01*
X9500605Y-16937000D01*
X9668020Y-16867654D01*
X9796154Y-16739520D01*
X9865500Y-16572105D01*
X9865500Y-16390895D01*
X9809984Y-16256867D01*
X16721972Y-16256867D01*
X16721972Y-16438077D01*
X16791318Y-16605492D01*
X16919452Y-16733626D01*
X17086867Y-16802972D01*
X17268077Y-16802972D01*
X17435492Y-16733626D01*
X17563626Y-16605492D01*
X17632972Y-16438077D01*
X17632972Y-16299395D01*
X20674500Y-16299395D01*
X20674500Y-16480605D01*
X20743846Y-16648020D01*
X20871980Y-16776154D01*
X21039395Y-16845500D01*
X21220605Y-16845500D01*
X21388020Y-16776154D01*
X21516154Y-16648020D01*
X21585500Y-16480605D01*
X21585500Y-16299395D01*
X21516154Y-16131980D01*
X21388020Y-16003846D01*
X21220605Y-15934500D01*
X21039395Y-15934500D01*
X20871980Y-16003846D01*
X20743846Y-16131980D01*
X20674500Y-16299395D01*
X17632972Y-16299395D01*
X17632972Y-16256867D01*
X17563626Y-16089452D01*
X17435492Y-15961318D01*
X17268077Y-15891972D01*
X17086867Y-15891972D01*
X16919452Y-15961318D01*
X16791318Y-16089452D01*
X16721972Y-16256867D01*
X9809984Y-16256867D01*
X9796154Y-16223480D01*
X9668020Y-16095346D01*
X9500605Y-16026000D01*
X9319395Y-16026000D01*
X9151980Y-16095346D01*
X9023846Y-16223480D01*
X8954500Y-16390895D01*
X5597095Y-16390895D01*
X5605500Y-16370605D01*
X5605500Y-16189395D01*
X5536154Y-16021980D01*
X5408020Y-15893846D01*
X5252423Y-15829395D01*
X7744500Y-15829395D01*
X7744500Y-16010605D01*
X7813846Y-16178020D01*
X7941980Y-16306154D01*
X8109395Y-16375500D01*
X8290605Y-16375500D01*
X8458020Y-16306154D01*
X8586154Y-16178020D01*
X8655500Y-16010605D01*
X8655500Y-15829395D01*
X8586154Y-15661980D01*
X8458020Y-15533846D01*
X8290605Y-15464500D01*
X8109395Y-15464500D01*
X7941980Y-15533846D01*
X7813846Y-15661980D01*
X7744500Y-15829395D01*
X5252423Y-15829395D01*
X5240605Y-15824500D01*
X5135866Y-15824500D01*
X5108335Y-15758033D01*
X5164417Y-15734803D01*
X5292551Y-15606669D01*
X5361897Y-15439254D01*
X5361897Y-15258044D01*
X5292551Y-15090629D01*
X5231317Y-15029395D01*
X10044500Y-15029395D01*
X10044500Y-15210605D01*
X10113846Y-15378020D01*
X10241980Y-15506154D01*
X10409395Y-15575500D01*
X10590605Y-15575500D01*
X10616016Y-15564974D01*
X10633846Y-15608020D01*
X10761980Y-15736154D01*
X10929395Y-15805500D01*
X11110605Y-15805500D01*
X11278020Y-15736154D01*
X11406154Y-15608020D01*
X11475500Y-15440605D01*
X11475500Y-15299674D01*
X11487373Y-15311547D01*
X11654788Y-15380893D01*
X11719107Y-15380893D01*
X11719107Y-15445212D01*
X11788453Y-15612627D01*
X11916587Y-15740761D01*
X12084002Y-15810107D01*
X12265212Y-15810107D01*
X12432627Y-15740761D01*
X12536598Y-15636790D01*
X12594788Y-15660893D01*
X12659107Y-15660893D01*
X12659107Y-15725212D01*
X12728453Y-15892627D01*
X12856587Y-16020761D01*
X13024002Y-16090107D01*
X13205212Y-16090107D01*
X13372627Y-16020761D01*
X13500761Y-15892627D01*
X13570107Y-15725212D01*
X13570107Y-15544002D01*
X13500761Y-15376587D01*
X13448176Y-15324002D01*
X14239893Y-15324002D01*
X14239893Y-15505212D01*
X14309239Y-15672627D01*
X14437373Y-15800761D01*
X14604788Y-15870107D01*
X14785998Y-15870107D01*
X14953413Y-15800761D01*
X15081547Y-15672627D01*
X15125393Y-15566774D01*
X15169239Y-15672627D01*
X15297373Y-15800761D01*
X15464788Y-15870107D01*
X15645998Y-15870107D01*
X15813413Y-15800761D01*
X15941547Y-15672627D01*
X16010893Y-15505212D01*
X16010893Y-15440893D01*
X16075212Y-15440893D01*
X16242627Y-15371547D01*
X16364779Y-15249395D01*
X19634500Y-15249395D01*
X19634500Y-15430605D01*
X19703846Y-15598020D01*
X19831980Y-15726154D01*
X19999395Y-15795500D01*
X20180605Y-15795500D01*
X20348020Y-15726154D01*
X20476154Y-15598020D01*
X20545500Y-15430605D01*
X20545500Y-15249395D01*
X20476154Y-15081980D01*
X20348020Y-14953846D01*
X20180605Y-14884500D01*
X19999395Y-14884500D01*
X19831980Y-14953846D01*
X19703846Y-15081980D01*
X19634500Y-15249395D01*
X16364779Y-15249395D01*
X16370761Y-15243413D01*
X16440107Y-15075998D01*
X16440107Y-14894788D01*
X16415549Y-14835500D01*
X16550605Y-14835500D01*
X16718020Y-14766154D01*
X16775000Y-14709174D01*
X16831980Y-14766154D01*
X16999395Y-14835500D01*
X17180605Y-14835500D01*
X17348020Y-14766154D01*
X17476154Y-14638020D01*
X17545500Y-14470605D01*
X17545500Y-14289395D01*
X17476154Y-14121980D01*
X17348020Y-13993846D01*
X17180605Y-13924500D01*
X16999395Y-13924500D01*
X16831980Y-13993846D01*
X16775000Y-14050826D01*
X16718020Y-13993846D01*
X16550605Y-13924500D01*
X16369395Y-13924500D01*
X16201980Y-13993846D01*
X16073846Y-14121980D01*
X16004500Y-14289395D01*
X16004500Y-14470605D01*
X16029058Y-14529893D01*
X15894002Y-14529893D01*
X15726587Y-14599239D01*
X15598453Y-14727373D01*
X15554607Y-14833226D01*
X15510761Y-14727373D01*
X15382627Y-14599239D01*
X15215212Y-14529893D01*
X15034002Y-14529893D01*
X14866587Y-14599239D01*
X14738453Y-14727373D01*
X14669107Y-14894788D01*
X14669107Y-14959107D01*
X14604788Y-14959107D01*
X14437373Y-15028453D01*
X14309239Y-15156587D01*
X14239893Y-15324002D01*
X13448176Y-15324002D01*
X13387226Y-15263052D01*
X13428020Y-15246154D01*
X13556154Y-15118020D01*
X13625500Y-14950605D01*
X13625500Y-14769395D01*
X13556154Y-14601980D01*
X13428020Y-14473846D01*
X13260605Y-14404500D01*
X13079395Y-14404500D01*
X12911980Y-14473846D01*
X12783846Y-14601980D01*
X12722578Y-14749893D01*
X12594788Y-14749893D01*
X12427373Y-14819239D01*
X12323402Y-14923210D01*
X12265212Y-14899107D01*
X12200893Y-14899107D01*
X12200893Y-14834788D01*
X12131547Y-14667373D01*
X12003413Y-14539239D01*
X11835998Y-14469893D01*
X11654788Y-14469893D01*
X11487373Y-14539239D01*
X11359239Y-14667373D01*
X11289893Y-14834788D01*
X11289893Y-14975719D01*
X11278020Y-14963846D01*
X11110605Y-14894500D01*
X10929395Y-14894500D01*
X10903984Y-14905026D01*
X10886154Y-14861980D01*
X10758020Y-14733846D01*
X10590605Y-14664500D01*
X10409395Y-14664500D01*
X10241980Y-14733846D01*
X10113846Y-14861980D01*
X10044500Y-15029395D01*
X5231317Y-15029395D01*
X5212609Y-15010687D01*
X5250575Y-14919030D01*
X5250575Y-14737820D01*
X5181229Y-14570405D01*
X5053095Y-14442271D01*
X4885680Y-14372925D01*
X4704470Y-14372925D01*
X4537055Y-14442271D01*
X4516575Y-14462751D01*
X4496095Y-14442271D01*
X4328680Y-14372925D01*
X4271249Y-14372925D01*
X4336154Y-14308020D01*
X4360437Y-14249395D01*
X7654500Y-14249395D01*
X7654500Y-14430605D01*
X7723846Y-14598020D01*
X7851980Y-14726154D01*
X8019395Y-14795500D01*
X8200605Y-14795500D01*
X8368020Y-14726154D01*
X8496154Y-14598020D01*
X8565500Y-14430605D01*
X8565500Y-14249395D01*
X8496154Y-14081980D01*
X8368020Y-13953846D01*
X8200605Y-13884500D01*
X8019395Y-13884500D01*
X7851980Y-13953846D01*
X7723846Y-14081980D01*
X7654500Y-14249395D01*
X4360437Y-14249395D01*
X4405500Y-14140605D01*
X4405500Y-13959395D01*
X4336154Y-13791980D01*
X4208020Y-13663846D01*
X4052423Y-13599395D01*
X8494500Y-13599395D01*
X8494500Y-13780605D01*
X8563846Y-13948020D01*
X8691980Y-14076154D01*
X8859395Y-14145500D01*
X9040605Y-14145500D01*
X9208020Y-14076154D01*
X9336154Y-13948020D01*
X9405500Y-13780605D01*
X9405500Y-13599395D01*
X9393074Y-13569395D01*
X20504500Y-13569395D01*
X20504500Y-13750605D01*
X20573846Y-13918020D01*
X20701980Y-14046154D01*
X20869395Y-14115500D01*
X21050605Y-14115500D01*
X21218020Y-14046154D01*
X21265000Y-13999174D01*
X21331980Y-14066154D01*
X21499395Y-14135500D01*
X21680605Y-14135500D01*
X21848020Y-14066154D01*
X21976154Y-13938020D01*
X22045500Y-13770605D01*
X22045500Y-13589395D01*
X21976154Y-13421980D01*
X21848020Y-13293846D01*
X21680605Y-13224500D01*
X21499395Y-13224500D01*
X21331980Y-13293846D01*
X21285000Y-13340826D01*
X21218020Y-13273846D01*
X21050605Y-13204500D01*
X20869395Y-13204500D01*
X20701980Y-13273846D01*
X20573846Y-13401980D01*
X20504500Y-13569395D01*
X9393074Y-13569395D01*
X9336154Y-13431980D01*
X9208020Y-13303846D01*
X9040605Y-13234500D01*
X8859395Y-13234500D01*
X8691980Y-13303846D01*
X8563846Y-13431980D01*
X8494500Y-13599395D01*
X4052423Y-13599395D01*
X4040605Y-13594500D01*
X3859395Y-13594500D01*
X3691980Y-13663846D01*
X3563846Y-13791980D01*
X3494500Y-13959395D01*
X2906979Y-13959395D01*
X2906979Y-13949395D01*
X2837633Y-13781980D01*
X2781285Y-13725632D01*
X2845500Y-13570605D01*
X2845500Y-13389395D01*
X2776154Y-13221980D01*
X2694174Y-13140000D01*
X2776154Y-13058020D01*
X2845500Y-12890605D01*
X2845500Y-12709395D01*
X2776154Y-12541980D01*
X2734174Y-12500000D01*
X2786154Y-12448020D01*
X2855500Y-12280605D01*
X2855500Y-12099395D01*
X2786154Y-11931980D01*
X2734174Y-11880000D01*
X2786154Y-11828020D01*
X2855500Y-11660605D01*
X2855500Y-11479395D01*
X2786154Y-11311980D01*
X2658020Y-11183846D01*
X2490605Y-11114500D01*
X2309395Y-11114500D01*
X2141980Y-11183846D01*
X2013846Y-11311980D01*
X1944500Y-11479395D01*
X1944500Y-11660605D01*
X2013846Y-11828020D01*
X2065826Y-11880000D01*
X2013846Y-11931980D01*
X1944500Y-12099395D01*
X1944500Y-12280605D01*
X2013846Y-12448020D01*
X2055826Y-12490000D01*
X2003846Y-12541980D01*
X1940670Y-12694500D01*
X1829395Y-12694500D01*
X1661980Y-12763846D01*
X1533846Y-12891980D01*
X1464500Y-13059395D01*
X302000Y-13059395D01*
X302000Y-11069395D01*
X3508000Y-11069395D01*
X3508000Y-11250605D01*
X3577346Y-11418020D01*
X3705480Y-11546154D01*
X3872895Y-11615500D01*
X3880252Y-11615500D01*
X3846064Y-11649688D01*
X3776718Y-11817103D01*
X3776718Y-11998313D01*
X3829672Y-12126154D01*
X3751493Y-12204333D01*
X3682147Y-12371748D01*
X3682147Y-12552958D01*
X3751493Y-12720373D01*
X3879627Y-12848507D01*
X4047042Y-12917853D01*
X4228252Y-12917853D01*
X4395667Y-12848507D01*
X4515941Y-12728233D01*
X4594788Y-12760893D01*
X4659107Y-12760893D01*
X4659107Y-12825212D01*
X4728453Y-12992627D01*
X4856587Y-13120761D01*
X5024002Y-13190107D01*
X5205212Y-13190107D01*
X5372627Y-13120761D01*
X5500761Y-12992627D01*
X5570107Y-12825212D01*
X5570107Y-12696133D01*
X7932200Y-12696133D01*
X7932200Y-12877343D01*
X8001546Y-13044758D01*
X8129680Y-13172892D01*
X8297095Y-13242238D01*
X8478305Y-13242238D01*
X8645720Y-13172892D01*
X8773854Y-13044758D01*
X8843200Y-12877343D01*
X8843200Y-12696133D01*
X8799948Y-12591714D01*
X8870132Y-12521530D01*
X8939478Y-12354115D01*
X8939478Y-12172905D01*
X8870132Y-12005490D01*
X8741998Y-11877356D01*
X8574583Y-11808010D01*
X8393373Y-11808010D01*
X8225958Y-11877356D01*
X8097824Y-12005490D01*
X8028478Y-12172905D01*
X8028478Y-12354115D01*
X8071730Y-12458534D01*
X8001546Y-12528718D01*
X7932200Y-12696133D01*
X5570107Y-12696133D01*
X5570107Y-12644002D01*
X5500761Y-12476587D01*
X5372627Y-12348453D01*
X5205212Y-12279107D01*
X5140893Y-12279107D01*
X5140893Y-12214788D01*
X5071547Y-12047373D01*
X4943413Y-11919239D01*
X4775998Y-11849893D01*
X4687718Y-11849893D01*
X4687718Y-11817103D01*
X4622393Y-11659395D01*
X10412867Y-11659395D01*
X10412867Y-11840605D01*
X10482213Y-12008020D01*
X10610347Y-12136154D01*
X10777762Y-12205500D01*
X10958972Y-12205500D01*
X11126387Y-12136154D01*
X11184184Y-12078358D01*
X11241980Y-12136154D01*
X11409395Y-12205500D01*
X11590605Y-12205500D01*
X11758020Y-12136154D01*
X11830000Y-12064174D01*
X11840826Y-12075000D01*
X11783846Y-12131980D01*
X11714500Y-12299395D01*
X11714500Y-12480605D01*
X11783846Y-12648020D01*
X11911980Y-12776154D01*
X12079395Y-12845500D01*
X12260605Y-12845500D01*
X12416720Y-12780834D01*
X12498255Y-12862369D01*
X12665670Y-12931715D01*
X12846880Y-12931715D01*
X13014295Y-12862369D01*
X13049683Y-12826981D01*
X13085418Y-12862716D01*
X13252833Y-12932062D01*
X13434043Y-12932062D01*
X13435501Y-12931458D01*
X19710980Y-12931458D01*
X19710980Y-13112668D01*
X19780326Y-13280083D01*
X19908460Y-13408217D01*
X20075875Y-13477563D01*
X20257085Y-13477563D01*
X20424500Y-13408217D01*
X20552634Y-13280083D01*
X20621980Y-13112668D01*
X20621980Y-12931458D01*
X20552634Y-12764043D01*
X20424500Y-12635909D01*
X20257085Y-12566563D01*
X20075875Y-12566563D01*
X19908460Y-12635909D01*
X19780326Y-12764043D01*
X19710980Y-12931458D01*
X13435501Y-12931458D01*
X13601458Y-12862716D01*
X13729592Y-12734582D01*
X13798938Y-12567167D01*
X13798938Y-12385957D01*
X13736616Y-12235500D01*
X13780605Y-12235500D01*
X13948020Y-12166154D01*
X14010749Y-12103425D01*
X14063478Y-12156154D01*
X14230893Y-12225500D01*
X14412103Y-12225500D01*
X14579518Y-12156154D01*
X14707652Y-12028020D01*
X14776998Y-11860605D01*
X14776998Y-11784002D01*
X15589893Y-11784002D01*
X15589893Y-11965212D01*
X15659239Y-12132627D01*
X15787373Y-12260761D01*
X15954788Y-12330107D01*
X16135998Y-12330107D01*
X16303413Y-12260761D01*
X16431547Y-12132627D01*
X16500893Y-11965212D01*
X16500893Y-11900893D01*
X16565212Y-11900893D01*
X16732627Y-11831547D01*
X16860761Y-11703413D01*
X16930107Y-11535998D01*
X16930107Y-11354788D01*
X16860761Y-11187373D01*
X16732627Y-11059239D01*
X16565212Y-10989893D01*
X16384002Y-10989893D01*
X16216587Y-11059239D01*
X16088453Y-11187373D01*
X16019107Y-11354788D01*
X16019107Y-11419107D01*
X15954788Y-11419107D01*
X15787373Y-11488453D01*
X15659239Y-11616587D01*
X15589893Y-11784002D01*
X14776998Y-11784002D01*
X14776998Y-11679395D01*
X14732446Y-11571839D01*
X14823404Y-11570691D01*
X14925524Y-11242699D01*
X14894353Y-10900594D01*
X14823404Y-10729309D01*
X14634647Y-10726927D01*
X14211574Y-11150000D01*
X14234732Y-11173158D01*
X14073158Y-11334732D01*
X14050000Y-11311574D01*
X14026842Y-11334732D01*
X13965857Y-11273747D01*
X13975524Y-11242699D01*
X13956642Y-11035468D01*
X14026842Y-10965268D01*
X14050000Y-10988426D01*
X14183513Y-10854913D01*
X14299406Y-10844353D01*
X14470691Y-10773404D01*
X14473073Y-10584647D01*
X14463426Y-10575000D01*
X14473073Y-10565353D01*
X14470691Y-10376596D01*
X14172036Y-10283610D01*
X14050000Y-10161574D01*
X14026842Y-10184732D01*
X13965857Y-10123747D01*
X13975524Y-10092699D01*
X13967078Y-10000000D01*
X14211574Y-10000000D01*
X14634647Y-10423073D01*
X14823404Y-10420691D01*
X14825486Y-10414002D01*
X15739893Y-10414002D01*
X15739893Y-10595212D01*
X15809239Y-10762627D01*
X15937373Y-10890761D01*
X16104788Y-10960107D01*
X16285998Y-10960107D01*
X16453413Y-10890761D01*
X16534779Y-10809395D01*
X17198118Y-10809395D01*
X17198118Y-10990605D01*
X17267464Y-11158020D01*
X17395598Y-11286154D01*
X17563013Y-11355500D01*
X17744223Y-11355500D01*
X17911638Y-11286154D01*
X18039772Y-11158020D01*
X18109118Y-10990605D01*
X18109118Y-10809395D01*
X18039772Y-10641980D01*
X17911638Y-10513846D01*
X17744223Y-10444500D01*
X17563013Y-10444500D01*
X17395598Y-10513846D01*
X17267464Y-10641980D01*
X17198118Y-10809395D01*
X16534779Y-10809395D01*
X16581547Y-10762627D01*
X16650893Y-10595212D01*
X16650893Y-10530893D01*
X16715212Y-10530893D01*
X16882627Y-10461547D01*
X17010761Y-10333413D01*
X17076007Y-10175895D01*
X19664500Y-10175895D01*
X19664500Y-10357105D01*
X19733846Y-10524520D01*
X19779326Y-10570000D01*
X19733846Y-10615480D01*
X19664500Y-10782895D01*
X19664500Y-10964105D01*
X19733846Y-11131520D01*
X19774076Y-11171750D01*
X19753846Y-11191980D01*
X19684500Y-11359395D01*
X19684500Y-11540605D01*
X19753846Y-11708020D01*
X19835826Y-11790000D01*
X19773846Y-11851980D01*
X19704500Y-12019395D01*
X19704500Y-12200605D01*
X19773846Y-12368020D01*
X19901980Y-12496154D01*
X20069395Y-12565500D01*
X20250605Y-12565500D01*
X20418020Y-12496154D01*
X20444779Y-12469395D01*
X22414500Y-12469395D01*
X22414500Y-12650605D01*
X22483846Y-12818020D01*
X22611980Y-12946154D01*
X22779395Y-13015500D01*
X22960605Y-13015500D01*
X23128020Y-12946154D01*
X23256154Y-12818020D01*
X23325500Y-12650605D01*
X23325500Y-12469395D01*
X23256154Y-12301980D01*
X23128020Y-12173846D01*
X22960605Y-12104500D01*
X22779395Y-12104500D01*
X22611980Y-12173846D01*
X22483846Y-12301980D01*
X22414500Y-12469395D01*
X20444779Y-12469395D01*
X20546154Y-12368020D01*
X20615500Y-12200605D01*
X20615500Y-12019395D01*
X20546154Y-11851980D01*
X20464174Y-11770000D01*
X20526154Y-11708020D01*
X20595500Y-11540605D01*
X20595500Y-11359395D01*
X20526154Y-11191980D01*
X20485924Y-11151750D01*
X20506154Y-11131520D01*
X20575500Y-10964105D01*
X20575500Y-10782895D01*
X20506154Y-10615480D01*
X20460674Y-10570000D01*
X20506154Y-10524520D01*
X20575500Y-10357105D01*
X20575500Y-10175895D01*
X20506154Y-10008480D01*
X20497274Y-9999600D01*
X20578020Y-9966154D01*
X20706154Y-9838020D01*
X20775500Y-9670605D01*
X20775500Y-9489395D01*
X20706154Y-9321980D01*
X20578020Y-9193846D01*
X20410605Y-9124500D01*
X20229395Y-9124500D01*
X20061980Y-9193846D01*
X19933846Y-9321980D01*
X19864500Y-9489395D01*
X19864500Y-9670605D01*
X19933846Y-9838020D01*
X19942726Y-9846900D01*
X19861980Y-9880346D01*
X19733846Y-10008480D01*
X19664500Y-10175895D01*
X17076007Y-10175895D01*
X17080107Y-10165998D01*
X17080107Y-9984788D01*
X17010761Y-9817373D01*
X16882627Y-9689239D01*
X16715212Y-9619893D01*
X16534002Y-9619893D01*
X16366587Y-9689239D01*
X16238453Y-9817373D01*
X16169107Y-9984788D01*
X16169107Y-10049107D01*
X16104788Y-10049107D01*
X15937373Y-10118453D01*
X15809239Y-10246587D01*
X15739893Y-10414002D01*
X14825486Y-10414002D01*
X14925524Y-10092699D01*
X14894353Y-9750594D01*
X14823404Y-9579309D01*
X14634647Y-9576927D01*
X14211574Y-10000000D01*
X13967078Y-10000000D01*
X13956642Y-9885468D01*
X14026842Y-9815268D01*
X14050000Y-9838426D01*
X14183513Y-9704913D01*
X14299406Y-9694353D01*
X14470691Y-9623404D01*
X14473073Y-9434647D01*
X14463426Y-9425000D01*
X14473073Y-9415353D01*
X14470691Y-9226596D01*
X14172036Y-9133610D01*
X14050000Y-9011574D01*
X14026842Y-9034732D01*
X13965857Y-8973747D01*
X13975524Y-8942699D01*
X13967078Y-8850000D01*
X14211574Y-8850000D01*
X14634647Y-9273073D01*
X14823404Y-9270691D01*
X14925524Y-8942699D01*
X14894353Y-8600594D01*
X14823404Y-8429309D01*
X14634647Y-8426927D01*
X14211574Y-8850000D01*
X13967078Y-8850000D01*
X13956642Y-8735468D01*
X14026842Y-8665268D01*
X14050000Y-8688426D01*
X14077926Y-8660500D01*
X14215605Y-8660500D01*
X14383020Y-8591154D01*
X14511154Y-8463020D01*
X14580500Y-8295605D01*
X14580500Y-8114395D01*
X14511154Y-7946980D01*
X14383020Y-7818846D01*
X14319023Y-7792337D01*
X15920944Y-7792337D01*
X15920944Y-7973547D01*
X15990290Y-8140962D01*
X16056554Y-8207226D01*
X16004500Y-8332895D01*
X16004500Y-8514105D01*
X16073846Y-8681520D01*
X16201980Y-8809654D01*
X16369395Y-8879000D01*
X16550605Y-8879000D01*
X16718020Y-8809654D01*
X16846154Y-8681520D01*
X16915500Y-8514105D01*
X16915500Y-8332895D01*
X16846154Y-8165480D01*
X16779890Y-8099216D01*
X16796577Y-8058930D01*
X16852342Y-8082029D01*
X17033552Y-8082029D01*
X17200967Y-8012683D01*
X17329101Y-7884549D01*
X17351946Y-7829395D01*
X20474500Y-7829395D01*
X20474500Y-8010605D01*
X20543846Y-8178020D01*
X20671980Y-8306154D01*
X20839395Y-8375500D01*
X20964500Y-8375500D01*
X20964500Y-8390605D01*
X21033846Y-8558020D01*
X21161980Y-8686154D01*
X21329395Y-8755500D01*
X21334500Y-8755500D01*
X21334500Y-8880605D01*
X21403846Y-9048020D01*
X21531980Y-9176154D01*
X21699395Y-9245500D01*
X21880605Y-9245500D01*
X22048020Y-9176154D01*
X22176154Y-9048020D01*
X22198469Y-8994148D01*
X22263772Y-9021198D01*
X22444500Y-9021198D01*
X22444500Y-9200605D01*
X22513846Y-9368020D01*
X22580826Y-9435000D01*
X22503846Y-9511980D01*
X22434500Y-9679395D01*
X22434500Y-9860605D01*
X22503846Y-10028020D01*
X22631980Y-10156154D01*
X22646972Y-10162364D01*
X22577356Y-10231980D01*
X22508010Y-10399395D01*
X22508010Y-10580605D01*
X22577356Y-10748020D01*
X22705490Y-10876154D01*
X22872905Y-10945500D01*
X23054115Y-10945500D01*
X23221530Y-10876154D01*
X23349664Y-10748020D01*
X23419010Y-10580605D01*
X23419010Y-10399395D01*
X23349664Y-10231980D01*
X23221530Y-10103846D01*
X23206538Y-10097636D01*
X23276154Y-10028020D01*
X23345500Y-9860605D01*
X23345500Y-9679395D01*
X23276154Y-9511980D01*
X23209174Y-9445000D01*
X23286154Y-9368020D01*
X23355500Y-9200605D01*
X23355500Y-9019395D01*
X23286154Y-8851980D01*
X23249174Y-8815000D01*
X23306154Y-8758020D01*
X23375500Y-8590605D01*
X23375500Y-8409395D01*
X23306154Y-8241980D01*
X23178020Y-8113846D01*
X23010605Y-8044500D01*
X22829395Y-8044500D01*
X22805500Y-8054398D01*
X22805500Y-7889395D01*
X22736154Y-7721980D01*
X22608020Y-7593846D01*
X22440605Y-7524500D01*
X22433323Y-7524500D01*
X22480500Y-7410605D01*
X22480500Y-7312110D01*
X22609395Y-7365500D01*
X22790605Y-7365500D01*
X22958020Y-7296154D01*
X23086154Y-7168020D01*
X23155500Y-7000605D01*
X23155500Y-6819395D01*
X23086154Y-6651980D01*
X23034174Y-6600000D01*
X23136154Y-6498020D01*
X23205500Y-6330605D01*
X23205500Y-6149395D01*
X23136154Y-5981980D01*
X23008020Y-5853846D01*
X22840605Y-5784500D01*
X22659395Y-5784500D01*
X22491980Y-5853846D01*
X22363846Y-5981980D01*
X22294500Y-6149395D01*
X22294500Y-6330605D01*
X22363846Y-6498020D01*
X22415826Y-6550000D01*
X22313846Y-6651980D01*
X22244500Y-6819395D01*
X22244500Y-6917890D01*
X22115605Y-6864500D01*
X21934395Y-6864500D01*
X21766980Y-6933846D01*
X21638846Y-7061980D01*
X21630994Y-7080936D01*
X21470605Y-7014500D01*
X21289395Y-7014500D01*
X21121980Y-7083846D01*
X20993846Y-7211980D01*
X20924500Y-7379395D01*
X20924500Y-7464500D01*
X20839395Y-7464500D01*
X20671980Y-7533846D01*
X20543846Y-7661980D01*
X20474500Y-7829395D01*
X17351946Y-7829395D01*
X17398447Y-7717134D01*
X17398447Y-7535924D01*
X17329101Y-7368509D01*
X17200967Y-7240375D01*
X17033552Y-7171029D01*
X17000471Y-7171029D01*
X17025500Y-7110605D01*
X17025500Y-6929395D01*
X16956154Y-6761980D01*
X16828020Y-6633846D01*
X16660605Y-6564500D01*
X16479395Y-6564500D01*
X16311980Y-6633846D01*
X16183846Y-6761980D01*
X16114500Y-6929395D01*
X16114500Y-7110605D01*
X16183846Y-7278020D01*
X16311980Y-7406154D01*
X16363373Y-7427442D01*
X16285839Y-7427442D01*
X16118424Y-7496788D01*
X15990290Y-7624922D01*
X15920944Y-7792337D01*
X14319023Y-7792337D01*
X14215605Y-7749500D01*
X14034395Y-7749500D01*
X13866980Y-7818846D01*
X13802500Y-7883326D01*
X13733020Y-7813846D01*
X13565605Y-7744500D01*
X13384395Y-7744500D01*
X13216980Y-7813846D01*
X13150000Y-7880826D01*
X13131674Y-7862500D01*
X13211154Y-7783020D01*
X13280500Y-7615605D01*
X13280500Y-7434395D01*
X13211154Y-7266980D01*
X13083020Y-7138846D01*
X12915605Y-7069500D01*
X12734395Y-7069500D01*
X12566980Y-7138846D01*
X12500000Y-7205826D01*
X12433020Y-7138846D01*
X12265605Y-7069500D01*
X12084395Y-7069500D01*
X11916980Y-7138846D01*
X11788846Y-7266980D01*
X11719500Y-7434395D01*
X11719500Y-7615605D01*
X11788846Y-7783020D01*
X11873326Y-7867500D01*
X11822500Y-7918326D01*
X11733020Y-7828846D01*
X11565605Y-7759500D01*
X11384395Y-7759500D01*
X11216980Y-7828846D01*
X11172500Y-7873326D01*
X11133020Y-7833846D01*
X10965605Y-7764500D01*
X10784395Y-7764500D01*
X10616980Y-7833846D01*
X10488846Y-7961980D01*
X10419500Y-8129395D01*
X10419500Y-8310605D01*
X10488846Y-8478020D01*
X10616980Y-8606154D01*
X10784395Y-8675500D01*
X10937074Y-8675500D01*
X10950000Y-8688426D01*
X10962926Y-8675500D01*
X10965605Y-8675500D01*
X10978181Y-8670291D01*
X10996014Y-8688124D01*
X10974476Y-8757301D01*
X10997533Y-9010357D01*
X10973158Y-9034732D01*
X10950000Y-9011574D01*
X10816487Y-9145087D01*
X10700594Y-9155647D01*
X10529309Y-9226596D01*
X10526927Y-9415353D01*
X10536574Y-9425000D01*
X10526927Y-9434647D01*
X10529309Y-9623404D01*
X10827964Y-9716390D01*
X10950000Y-9838426D01*
X10973158Y-9815268D01*
X11034143Y-9876253D01*
X11024476Y-9907301D01*
X11043358Y-10114532D01*
X10973158Y-10184732D01*
X10950000Y-10161574D01*
X10816487Y-10295087D01*
X10700594Y-10305647D01*
X10529309Y-10376596D01*
X10526927Y-10565353D01*
X10536574Y-10575000D01*
X10526927Y-10584647D01*
X10529309Y-10773404D01*
X10827964Y-10866390D01*
X10950000Y-10988426D01*
X10973158Y-10965268D01*
X11034143Y-11026253D01*
X11024476Y-11057301D01*
X11043358Y-11264532D01*
X10997451Y-11310439D01*
X10958972Y-11294500D01*
X10777762Y-11294500D01*
X10610347Y-11363846D01*
X10482213Y-11491980D01*
X10412867Y-11659395D01*
X4622393Y-11659395D01*
X4618372Y-11649688D01*
X4490238Y-11521554D01*
X4322823Y-11452208D01*
X4315466Y-11452208D01*
X4349654Y-11418020D01*
X4419000Y-11250605D01*
X4419000Y-11069395D01*
X4358032Y-10922206D01*
X4427373Y-10991547D01*
X4594788Y-11060893D01*
X4659107Y-11060893D01*
X4659107Y-11125212D01*
X4728453Y-11292627D01*
X4856587Y-11420761D01*
X5024002Y-11490107D01*
X5205212Y-11490107D01*
X5372627Y-11420761D01*
X5500761Y-11292627D01*
X5570107Y-11125212D01*
X5570107Y-11057301D01*
X10074476Y-11057301D01*
X10105647Y-11399406D01*
X10176596Y-11570691D01*
X10365353Y-11573073D01*
X10788426Y-11150000D01*
X10365353Y-10726927D01*
X10176596Y-10729309D01*
X10074476Y-11057301D01*
X5570107Y-11057301D01*
X5570107Y-10944002D01*
X5500761Y-10776587D01*
X5372627Y-10648453D01*
X5205212Y-10579107D01*
X5140893Y-10579107D01*
X5140893Y-10514788D01*
X5074293Y-10354002D01*
X7049893Y-10354002D01*
X7049893Y-10535212D01*
X7119239Y-10702627D01*
X7247373Y-10830761D01*
X7414788Y-10900107D01*
X7595998Y-10900107D01*
X7763413Y-10830761D01*
X7891547Y-10702627D01*
X7960893Y-10535212D01*
X7960893Y-10470893D01*
X8025212Y-10470893D01*
X8192627Y-10401547D01*
X8320761Y-10273413D01*
X8390107Y-10105998D01*
X8390107Y-10010107D01*
X8425998Y-10010107D01*
X8593413Y-9940761D01*
X8626873Y-9907301D01*
X10074476Y-9907301D01*
X10105647Y-10249406D01*
X10176596Y-10420691D01*
X10365353Y-10423073D01*
X10788426Y-10000000D01*
X10365353Y-9576927D01*
X10176596Y-9579309D01*
X10074476Y-9907301D01*
X8626873Y-9907301D01*
X8721547Y-9812627D01*
X8790893Y-9645212D01*
X8790893Y-9580893D01*
X8855212Y-9580893D01*
X9022627Y-9511547D01*
X9150761Y-9383413D01*
X9220107Y-9215998D01*
X9220107Y-9034788D01*
X9150761Y-8867373D01*
X9040689Y-8757301D01*
X10074476Y-8757301D01*
X10105647Y-9099406D01*
X10176596Y-9270691D01*
X10365353Y-9273073D01*
X10788426Y-8850000D01*
X10365353Y-8426927D01*
X10176596Y-8429309D01*
X10074476Y-8757301D01*
X9040689Y-8757301D01*
X9022627Y-8739239D01*
X8855212Y-8669893D01*
X8674002Y-8669893D01*
X8506587Y-8739239D01*
X8378453Y-8867373D01*
X8309107Y-9034788D01*
X8309107Y-9099107D01*
X8244788Y-9099107D01*
X8077373Y-9168453D01*
X7949239Y-9296587D01*
X7879893Y-9464002D01*
X7879893Y-9559893D01*
X7844002Y-9559893D01*
X7676587Y-9629239D01*
X7548453Y-9757373D01*
X7479107Y-9924788D01*
X7479107Y-9989107D01*
X7414788Y-9989107D01*
X7247373Y-10058453D01*
X7119239Y-10186587D01*
X7049893Y-10354002D01*
X5074293Y-10354002D01*
X5071547Y-10347373D01*
X4943413Y-10219239D01*
X4775998Y-10149893D01*
X4594788Y-10149893D01*
X4427373Y-10219239D01*
X4299239Y-10347373D01*
X4229893Y-10514788D01*
X4229893Y-10695998D01*
X4290861Y-10843187D01*
X4221520Y-10773846D01*
X4054105Y-10704500D01*
X3872895Y-10704500D01*
X3705480Y-10773846D01*
X3577346Y-10901980D01*
X3508000Y-11069395D01*
X302000Y-11069395D01*
X302000Y-9099395D01*
X1436945Y-9099395D01*
X1436945Y-9280605D01*
X1506291Y-9448020D01*
X1532049Y-9473778D01*
X1513846Y-9491980D01*
X1444500Y-9659395D01*
X1444500Y-9840605D01*
X1513846Y-10008020D01*
X1583290Y-10077464D01*
X1524500Y-10219395D01*
X1524500Y-10400605D01*
X1593846Y-10568020D01*
X1721980Y-10696154D01*
X1889395Y-10765500D01*
X2070605Y-10765500D01*
X2238020Y-10696154D01*
X2366154Y-10568020D01*
X2416904Y-10445500D01*
X2542084Y-10445500D01*
X2709499Y-10376154D01*
X2837633Y-10248020D01*
X2906979Y-10080605D01*
X2906979Y-9899395D01*
X2837633Y-9731980D01*
X2709499Y-9603846D01*
X2542084Y-9534500D01*
X2360874Y-9534500D01*
X2312130Y-9554691D01*
X2286154Y-9491980D01*
X2260397Y-9466223D01*
X2278599Y-9448020D01*
X2294598Y-9409395D01*
X3791000Y-9409395D01*
X3791000Y-9590605D01*
X3860346Y-9758020D01*
X3988480Y-9886154D01*
X4155895Y-9955500D01*
X4337105Y-9955500D01*
X4504520Y-9886154D01*
X4550000Y-9840674D01*
X4595480Y-9886154D01*
X4762895Y-9955500D01*
X4944105Y-9955500D01*
X5111520Y-9886154D01*
X5239654Y-9758020D01*
X5309000Y-9590605D01*
X5309000Y-9409395D01*
X5239654Y-9241980D01*
X5111520Y-9113846D01*
X4944105Y-9044500D01*
X4762895Y-9044500D01*
X4595480Y-9113846D01*
X4550000Y-9159326D01*
X4504520Y-9113846D01*
X4337105Y-9044500D01*
X4155895Y-9044500D01*
X3988480Y-9113846D01*
X3860346Y-9241980D01*
X3791000Y-9409395D01*
X2294598Y-9409395D01*
X2347945Y-9280605D01*
X2347945Y-9099395D01*
X2278599Y-8931980D01*
X2150465Y-8803846D01*
X1983050Y-8734500D01*
X1801840Y-8734500D01*
X1634425Y-8803846D01*
X1506291Y-8931980D01*
X1436945Y-9099395D01*
X302000Y-9099395D01*
X302000Y-8688924D01*
X2817529Y-8688924D01*
X2817529Y-8870134D01*
X2886875Y-9037549D01*
X3015009Y-9165683D01*
X3182424Y-9235029D01*
X3363634Y-9235029D01*
X3531049Y-9165683D01*
X3659183Y-9037549D01*
X3728529Y-8870134D01*
X3728529Y-8688924D01*
X3659183Y-8521509D01*
X3531049Y-8393375D01*
X3363634Y-8324029D01*
X3182424Y-8324029D01*
X3015009Y-8393375D01*
X2886875Y-8521509D01*
X2817529Y-8688924D01*
X302000Y-8688924D01*
X302000Y-5537785D01*
X1359489Y-5537785D01*
X1359489Y-5718995D01*
X1428835Y-5886410D01*
X1470008Y-5927583D01*
X1400990Y-6094205D01*
X1400990Y-6275415D01*
X1470336Y-6442830D01*
X1479911Y-6452405D01*
X1470336Y-6461980D01*
X1400990Y-6629395D01*
X1400990Y-6810605D01*
X1470336Y-6978020D01*
X1512057Y-7019741D01*
X1470336Y-7061461D01*
X1400990Y-7228876D01*
X1400990Y-7410086D01*
X1470336Y-7577501D01*
X1598470Y-7705635D01*
X1765885Y-7774981D01*
X1947095Y-7774981D01*
X2099479Y-7711861D01*
X2034666Y-7776674D01*
X1965320Y-7944089D01*
X1965320Y-8125299D01*
X2034666Y-8292714D01*
X2162800Y-8420848D01*
X2330215Y-8490194D01*
X2511425Y-8490194D01*
X2678840Y-8420848D01*
X2806974Y-8292714D01*
X2876320Y-8125299D01*
X2876320Y-7944089D01*
X2806974Y-7776674D01*
X2678840Y-7648540D01*
X2511425Y-7579194D01*
X2330215Y-7579194D01*
X2177831Y-7642314D01*
X2242644Y-7577501D01*
X2311990Y-7410086D01*
X2311990Y-7228876D01*
X2251028Y-7081702D01*
X2325480Y-7156154D01*
X2492895Y-7225500D01*
X2514500Y-7225500D01*
X2514500Y-7310605D01*
X2583846Y-7478020D01*
X2711980Y-7606154D01*
X2879395Y-7675500D01*
X2934500Y-7675500D01*
X2934500Y-7740605D01*
X3003846Y-7908020D01*
X3131980Y-8036154D01*
X3299395Y-8105500D01*
X3463096Y-8105500D01*
X3513846Y-8228020D01*
X3641980Y-8356154D01*
X3809395Y-8425500D01*
X3990605Y-8425500D01*
X4158020Y-8356154D01*
X4286154Y-8228020D01*
X4355429Y-8060776D01*
X5003307Y-8060776D01*
X5003307Y-8241986D01*
X5072653Y-8409401D01*
X5200787Y-8537535D01*
X5368202Y-8606881D01*
X5549412Y-8606881D01*
X5716827Y-8537535D01*
X5844961Y-8409401D01*
X5914307Y-8241986D01*
X5914307Y-8060776D01*
X5844961Y-7893361D01*
X5716827Y-7765227D01*
X5549412Y-7695881D01*
X5368202Y-7695881D01*
X5200787Y-7765227D01*
X5072653Y-7893361D01*
X5003307Y-8060776D01*
X4355429Y-8060776D01*
X4355500Y-8060605D01*
X4355500Y-7879395D01*
X4286154Y-7711980D01*
X4158020Y-7583846D01*
X3990605Y-7514500D01*
X3826904Y-7514500D01*
X3776154Y-7391980D01*
X3648020Y-7263846D01*
X3480605Y-7194500D01*
X3425500Y-7194500D01*
X3425500Y-7129395D01*
X3356154Y-6961980D01*
X3257226Y-6863052D01*
X3298020Y-6846154D01*
X3426154Y-6718020D01*
X3495500Y-6550605D01*
X3495500Y-6399395D01*
X4044500Y-6399395D01*
X4044500Y-6580605D01*
X4113846Y-6748020D01*
X4241980Y-6876154D01*
X4409395Y-6945500D01*
X4590605Y-6945500D01*
X4758020Y-6876154D01*
X4886154Y-6748020D01*
X4898486Y-6718248D01*
X8144187Y-6718248D01*
X8144187Y-6899458D01*
X8213533Y-7066873D01*
X8239392Y-7092732D01*
X8174500Y-7249395D01*
X8174500Y-7430605D01*
X8243846Y-7598020D01*
X8371980Y-7726154D01*
X8539395Y-7795500D01*
X8720605Y-7795500D01*
X8888020Y-7726154D01*
X9016154Y-7598020D01*
X9085500Y-7430605D01*
X9085500Y-7249395D01*
X9016154Y-7081980D01*
X8990295Y-7056121D01*
X9055187Y-6899458D01*
X9055187Y-6718248D01*
X8985841Y-6550833D01*
X8857707Y-6422699D01*
X8690292Y-6353353D01*
X8509082Y-6353353D01*
X8341667Y-6422699D01*
X8213533Y-6550833D01*
X8144187Y-6718248D01*
X4898486Y-6718248D01*
X4955500Y-6580605D01*
X4955500Y-6399395D01*
X4886154Y-6231980D01*
X4758020Y-6103846D01*
X4590605Y-6034500D01*
X4409395Y-6034500D01*
X4241980Y-6103846D01*
X4113846Y-6231980D01*
X4044500Y-6399395D01*
X3495500Y-6399395D01*
X3495500Y-6369395D01*
X3426154Y-6201980D01*
X3359174Y-6135000D01*
X3386154Y-6108020D01*
X3455500Y-5940605D01*
X3455500Y-5875500D01*
X3510605Y-5875500D01*
X3678020Y-5806154D01*
X3806154Y-5678020D01*
X3825543Y-5631212D01*
X3835895Y-5635500D01*
X4017105Y-5635500D01*
X4184520Y-5566154D01*
X4312654Y-5438020D01*
X4377833Y-5280664D01*
X8623021Y-5280664D01*
X8623021Y-5461874D01*
X8692367Y-5629289D01*
X8820501Y-5757423D01*
X8987916Y-5826769D01*
X9169126Y-5826769D01*
X9336541Y-5757423D01*
X9464675Y-5629289D01*
X9534021Y-5461874D01*
X9534021Y-5298521D01*
X9588020Y-5276154D01*
X9590000Y-5274174D01*
X9611980Y-5296154D01*
X9779395Y-5365500D01*
X9960605Y-5365500D01*
X10128020Y-5296154D01*
X10149863Y-5274312D01*
X10154968Y-5279417D01*
X10322383Y-5348763D01*
X10503593Y-5348763D01*
X10671008Y-5279417D01*
X10799142Y-5151283D01*
X10868488Y-4983868D01*
X10868488Y-4802658D01*
X10857584Y-4776334D01*
X10858020Y-4776154D01*
X10986154Y-4648020D01*
X11011129Y-4587724D01*
X11119156Y-4695751D01*
X11286571Y-4765097D01*
X11467781Y-4765097D01*
X11480460Y-4759845D01*
X11483846Y-4768020D01*
X11611980Y-4896154D01*
X11779395Y-4965500D01*
X11960605Y-4965500D01*
X12128020Y-4896154D01*
X12140990Y-4883184D01*
X12140990Y-4910605D01*
X12210336Y-5078020D01*
X12338470Y-5206154D01*
X12505885Y-5275500D01*
X12687095Y-5275500D01*
X12854510Y-5206154D01*
X12982644Y-5078020D01*
X13051990Y-4910605D01*
X13051990Y-4729395D01*
X12982644Y-4561980D01*
X12854510Y-4433846D01*
X12687095Y-4364500D01*
X12505885Y-4364500D01*
X12338470Y-4433846D01*
X12325500Y-4446816D01*
X12325500Y-4419395D01*
X12256154Y-4251980D01*
X12128020Y-4123846D01*
X11960605Y-4054500D01*
X11779395Y-4054500D01*
X11766716Y-4059752D01*
X11763330Y-4051577D01*
X11721148Y-4009395D01*
X12884500Y-4009395D01*
X12884500Y-4190605D01*
X12953846Y-4358020D01*
X13081980Y-4486154D01*
X13224500Y-4545188D01*
X13224500Y-4700605D01*
X13271239Y-4813442D01*
X13221980Y-4833846D01*
X13093846Y-4961980D01*
X13024500Y-5129395D01*
X13024500Y-5310605D01*
X13093846Y-5478020D01*
X13221980Y-5606154D01*
X13389395Y-5675500D01*
X13570605Y-5675500D01*
X13738020Y-5606154D01*
X13866154Y-5478020D01*
X13935500Y-5310605D01*
X13935500Y-5129395D01*
X13888761Y-5016558D01*
X13938020Y-4996154D01*
X14008051Y-4926123D01*
X14074180Y-5085771D01*
X14202314Y-5213905D01*
X14369729Y-5283251D01*
X14457130Y-5283251D01*
X14510326Y-5411677D01*
X14638460Y-5539811D01*
X14805875Y-5609157D01*
X14987085Y-5609157D01*
X15154500Y-5539811D01*
X15282634Y-5411677D01*
X15351980Y-5244262D01*
X15351980Y-5063052D01*
X15315715Y-4975500D01*
X15454104Y-4975500D01*
X15394500Y-5119395D01*
X15394500Y-5300605D01*
X15463846Y-5468020D01*
X15591980Y-5596154D01*
X15759395Y-5665500D01*
X15940605Y-5665500D01*
X16108020Y-5596154D01*
X16236154Y-5468020D01*
X16241634Y-5454788D01*
X19089893Y-5454788D01*
X19089893Y-5635998D01*
X19159239Y-5803413D01*
X19287373Y-5931547D01*
X19454788Y-6000893D01*
X19519107Y-6000893D01*
X19519107Y-6065212D01*
X19588453Y-6232627D01*
X19716587Y-6360761D01*
X19884002Y-6430107D01*
X20065212Y-6430107D01*
X20232627Y-6360761D01*
X20360761Y-6232627D01*
X20430107Y-6065212D01*
X20430107Y-5884002D01*
X20360761Y-5716587D01*
X20232627Y-5588453D01*
X20065212Y-5519107D01*
X20000893Y-5519107D01*
X20000893Y-5454788D01*
X19931547Y-5287373D01*
X19867226Y-5223052D01*
X19908020Y-5206154D01*
X20036154Y-5078020D01*
X20102844Y-4917018D01*
X20141980Y-4956154D01*
X20309395Y-5025500D01*
X20490605Y-5025500D01*
X20658020Y-4956154D01*
X20786154Y-4828020D01*
X20855500Y-4660605D01*
X20855500Y-4599395D01*
X22104500Y-4599395D01*
X22104500Y-4780605D01*
X22173846Y-4948020D01*
X22301980Y-5076154D01*
X22469395Y-5145500D01*
X22650605Y-5145500D01*
X22818020Y-5076154D01*
X22946154Y-4948020D01*
X23015500Y-4780605D01*
X23015500Y-4599395D01*
X22946154Y-4431980D01*
X22818020Y-4303846D01*
X22650605Y-4234500D01*
X22469395Y-4234500D01*
X22301980Y-4303846D01*
X22173846Y-4431980D01*
X22104500Y-4599395D01*
X20855500Y-4599395D01*
X20855500Y-4479395D01*
X20786154Y-4311980D01*
X20658020Y-4183846D01*
X20490605Y-4114500D01*
X20309395Y-4114500D01*
X20283733Y-4125130D01*
X20228603Y-3992035D01*
X20309395Y-4025500D01*
X20490605Y-4025500D01*
X20658020Y-3956154D01*
X20786154Y-3828020D01*
X20855500Y-3660605D01*
X20855500Y-3599395D01*
X22254500Y-3599395D01*
X22254500Y-3780605D01*
X22323846Y-3948020D01*
X22451980Y-4076154D01*
X22619395Y-4145500D01*
X22800605Y-4145500D01*
X22968020Y-4076154D01*
X23096154Y-3948020D01*
X23165500Y-3780605D01*
X23165500Y-3599395D01*
X23096154Y-3431980D01*
X22968020Y-3303846D01*
X22800605Y-3234500D01*
X22619395Y-3234500D01*
X22451980Y-3303846D01*
X22323846Y-3431980D01*
X22254500Y-3599395D01*
X20855500Y-3599395D01*
X20855500Y-3479395D01*
X20786154Y-3311980D01*
X20658020Y-3183846D01*
X20490605Y-3114500D01*
X20309395Y-3114500D01*
X20141980Y-3183846D01*
X20013846Y-3311980D01*
X19944500Y-3479395D01*
X19944500Y-3660605D01*
X20001397Y-3797965D01*
X19920605Y-3764500D01*
X19739395Y-3764500D01*
X19571980Y-3833846D01*
X19443846Y-3961980D01*
X19374500Y-4129395D01*
X19374500Y-4310605D01*
X19420632Y-4421978D01*
X19391980Y-4433846D01*
X19263846Y-4561980D01*
X19194500Y-4729395D01*
X19194500Y-4910605D01*
X19263846Y-5078020D01*
X19328167Y-5142341D01*
X19287373Y-5159239D01*
X19159239Y-5287373D01*
X19089893Y-5454788D01*
X16241634Y-5454788D01*
X16305500Y-5300605D01*
X16305500Y-5119395D01*
X16236154Y-4951980D01*
X16108020Y-4823846D01*
X15940605Y-4754500D01*
X15795896Y-4754500D01*
X15798010Y-4749395D01*
X17154500Y-4749395D01*
X17154500Y-4930605D01*
X17223846Y-5098020D01*
X17351980Y-5226154D01*
X17519395Y-5295500D01*
X17700605Y-5295500D01*
X17868020Y-5226154D01*
X17996154Y-5098020D01*
X18065500Y-4930605D01*
X18065500Y-4749395D01*
X17996154Y-4581980D01*
X17868020Y-4453846D01*
X17700605Y-4384500D01*
X17519395Y-4384500D01*
X17351980Y-4453846D01*
X17223846Y-4581980D01*
X17154500Y-4749395D01*
X15798010Y-4749395D01*
X15855500Y-4610605D01*
X15855500Y-4429395D01*
X15786154Y-4261980D01*
X15658020Y-4133846D01*
X15490605Y-4064500D01*
X15475500Y-4064500D01*
X15475500Y-3999395D01*
X15406154Y-3831980D01*
X15278020Y-3703846D01*
X15110605Y-3634500D01*
X14929395Y-3634500D01*
X14761980Y-3703846D01*
X14633846Y-3831980D01*
X14616948Y-3872774D01*
X14568020Y-3823846D01*
X14400605Y-3754500D01*
X14219395Y-3754500D01*
X14051980Y-3823846D01*
X13923846Y-3951980D01*
X13854500Y-4119395D01*
X13854500Y-4189251D01*
X13795500Y-4164812D01*
X13795500Y-4009395D01*
X13726154Y-3841980D01*
X13598020Y-3713846D01*
X13430605Y-3644500D01*
X13249395Y-3644500D01*
X13081980Y-3713846D01*
X12953846Y-3841980D01*
X12884500Y-4009395D01*
X11721148Y-4009395D01*
X11635196Y-3923443D01*
X11467781Y-3854097D01*
X11286571Y-3854097D01*
X11119156Y-3923443D01*
X10991022Y-4051577D01*
X10966047Y-4111873D01*
X10858020Y-4003846D01*
X10690605Y-3934500D01*
X10509395Y-3934500D01*
X10341980Y-4003846D01*
X10213846Y-4131980D01*
X10144500Y-4299395D01*
X10144500Y-4480605D01*
X10155404Y-4506929D01*
X10154968Y-4507109D01*
X10133126Y-4528952D01*
X10128020Y-4523846D01*
X9960605Y-4454500D01*
X9779395Y-4454500D01*
X9611980Y-4523846D01*
X9610000Y-4525826D01*
X9588020Y-4503846D01*
X9420605Y-4434500D01*
X9239395Y-4434500D01*
X9071980Y-4503846D01*
X8943846Y-4631980D01*
X8874500Y-4799395D01*
X8874500Y-4962748D01*
X8820501Y-4985115D01*
X8692367Y-5113249D01*
X8623021Y-5280664D01*
X4377833Y-5280664D01*
X4382000Y-5270605D01*
X4382000Y-5089395D01*
X4312654Y-4921980D01*
X4184520Y-4793846D01*
X4017105Y-4724500D01*
X3835895Y-4724500D01*
X3668480Y-4793846D01*
X3540346Y-4921980D01*
X3520957Y-4968788D01*
X3510605Y-4964500D01*
X3329395Y-4964500D01*
X3161980Y-5033846D01*
X3033846Y-5161980D01*
X2964500Y-5329395D01*
X2964500Y-5394500D01*
X2909395Y-5394500D01*
X2741980Y-5463846D01*
X2613846Y-5591980D01*
X2544500Y-5759395D01*
X2544500Y-5940605D01*
X2613846Y-6108020D01*
X2680826Y-6175000D01*
X2653846Y-6201980D01*
X2607238Y-6314500D01*
X2492895Y-6314500D01*
X2325480Y-6383846D01*
X2244021Y-6465305D01*
X2242644Y-6461980D01*
X2233069Y-6452405D01*
X2242644Y-6442830D01*
X2311990Y-6275415D01*
X2311990Y-6094205D01*
X2242644Y-5926790D01*
X2201471Y-5885617D01*
X2270489Y-5718995D01*
X2270489Y-5537785D01*
X2201143Y-5370370D01*
X2073009Y-5242236D01*
X1905594Y-5172890D01*
X1724384Y-5172890D01*
X1556969Y-5242236D01*
X1428835Y-5370370D01*
X1359489Y-5537785D01*
X302000Y-5537785D01*
X302000Y-3799395D01*
X3624500Y-3799395D01*
X3624500Y-3980605D01*
X3693846Y-4148020D01*
X3821980Y-4276154D01*
X3989395Y-4345500D01*
X4170605Y-4345500D01*
X4338020Y-4276154D01*
X4395000Y-4219174D01*
X4451980Y-4276154D01*
X4619395Y-4345500D01*
X4800605Y-4345500D01*
X4968020Y-4276154D01*
X5096154Y-4148020D01*
X5165500Y-3980605D01*
X5165500Y-3799395D01*
X5096154Y-3631980D01*
X4968020Y-3503846D01*
X4800605Y-3434500D01*
X4619395Y-3434500D01*
X4451980Y-3503846D01*
X4395000Y-3560826D01*
X4338020Y-3503846D01*
X4170605Y-3434500D01*
X3989395Y-3434500D01*
X3821980Y-3503846D01*
X3693846Y-3631980D01*
X3624500Y-3799395D01*
X302000Y-3799395D01*
X302000Y-2409395D01*
X424500Y-2409395D01*
X424500Y-2590605D01*
X493846Y-2758020D01*
X621980Y-2886154D01*
X789395Y-2955500D01*
X970605Y-2955500D01*
X1138020Y-2886154D01*
X1194779Y-2829395D01*
X1544500Y-2829395D01*
X1544500Y-3010605D01*
X1613846Y-3178020D01*
X1741980Y-3306154D01*
X1909395Y-3375500D01*
X2090605Y-3375500D01*
X2258020Y-3306154D01*
X2386154Y-3178020D01*
X2455500Y-3010605D01*
X2455500Y-2929395D01*
X3044500Y-2929395D01*
X3044500Y-3110605D01*
X3113846Y-3278020D01*
X3241980Y-3406154D01*
X3409395Y-3475500D01*
X3590605Y-3475500D01*
X3758020Y-3406154D01*
X3886154Y-3278020D01*
X3955500Y-3110605D01*
X3955500Y-2983244D01*
X4109395Y-3046990D01*
X4290605Y-3046990D01*
X4458020Y-2977644D01*
X4586154Y-2849510D01*
X4655500Y-2682095D01*
X4655500Y-2500885D01*
X4653434Y-2495895D01*
X7564500Y-2495895D01*
X7564500Y-2677105D01*
X7633846Y-2844520D01*
X7761980Y-2972654D01*
X7929395Y-3042000D01*
X8110605Y-3042000D01*
X8168750Y-3017915D01*
X15306745Y-3017915D01*
X15306745Y-3199125D01*
X15376091Y-3366540D01*
X15504225Y-3494674D01*
X15671640Y-3564020D01*
X15852850Y-3564020D01*
X16002462Y-3502048D01*
X16445953Y-3502048D01*
X16445953Y-3683258D01*
X16515299Y-3850673D01*
X16643433Y-3978807D01*
X16810848Y-4048153D01*
X16992058Y-4048153D01*
X17159473Y-3978807D01*
X17287607Y-3850673D01*
X17356953Y-3683258D01*
X17356953Y-3502048D01*
X17287607Y-3334633D01*
X17159473Y-3206499D01*
X16992058Y-3137153D01*
X16810848Y-3137153D01*
X16643433Y-3206499D01*
X16515299Y-3334633D01*
X16445953Y-3502048D01*
X16002462Y-3502048D01*
X16020265Y-3494674D01*
X16148399Y-3366540D01*
X16217745Y-3199125D01*
X16217745Y-3017915D01*
X16148399Y-2850500D01*
X16129773Y-2831874D01*
X17769500Y-2831874D01*
X17769500Y-3013084D01*
X17838846Y-3180499D01*
X17966980Y-3308633D01*
X18134395Y-3377979D01*
X18315605Y-3377979D01*
X18483020Y-3308633D01*
X18611154Y-3180499D01*
X18680500Y-3013084D01*
X18680500Y-2854358D01*
X20769537Y-2854358D01*
X20769537Y-3035568D01*
X20838883Y-3202983D01*
X20967017Y-3331117D01*
X21134432Y-3400463D01*
X21315642Y-3400463D01*
X21483057Y-3331117D01*
X21611191Y-3202983D01*
X21680537Y-3035568D01*
X21680537Y-2854358D01*
X21611191Y-2686943D01*
X21483057Y-2558809D01*
X21315642Y-2489463D01*
X21134432Y-2489463D01*
X20967017Y-2558809D01*
X20838883Y-2686943D01*
X20769537Y-2854358D01*
X18680500Y-2854358D01*
X18680500Y-2831874D01*
X18611154Y-2664459D01*
X18483020Y-2536325D01*
X18315605Y-2466979D01*
X18134395Y-2466979D01*
X17966980Y-2536325D01*
X17838846Y-2664459D01*
X17769500Y-2831874D01*
X16129773Y-2831874D01*
X16020265Y-2722366D01*
X15852850Y-2653020D01*
X15671640Y-2653020D01*
X15504225Y-2722366D01*
X15376091Y-2850500D01*
X15306745Y-3017915D01*
X8168750Y-3017915D01*
X8278020Y-2972654D01*
X8406154Y-2844520D01*
X8475500Y-2677105D01*
X8475500Y-2495895D01*
X8406154Y-2328480D01*
X8307069Y-2229395D01*
X8664500Y-2229395D01*
X8664500Y-2410605D01*
X8733846Y-2578020D01*
X8861980Y-2706154D01*
X9029395Y-2775500D01*
X9210605Y-2775500D01*
X9378020Y-2706154D01*
X9506154Y-2578020D01*
X9575500Y-2410605D01*
X9575500Y-2229395D01*
X9506154Y-2061980D01*
X9378020Y-1933846D01*
X9210605Y-1864500D01*
X9029395Y-1864500D01*
X8861980Y-1933846D01*
X8733846Y-2061980D01*
X8664500Y-2229395D01*
X8307069Y-2229395D01*
X8278020Y-2200346D01*
X8110605Y-2131000D01*
X7929395Y-2131000D01*
X7761980Y-2200346D01*
X7633846Y-2328480D01*
X7564500Y-2495895D01*
X4653434Y-2495895D01*
X4586154Y-2333470D01*
X4458020Y-2205336D01*
X4305500Y-2142160D01*
X4305500Y-2029395D01*
X4236154Y-1861980D01*
X4233569Y-1859395D01*
X12004500Y-1859395D01*
X12004500Y-2040605D01*
X12073846Y-2208020D01*
X12201980Y-2336154D01*
X12369395Y-2405500D01*
X12550605Y-2405500D01*
X12718020Y-2336154D01*
X12846154Y-2208020D01*
X12903574Y-2069395D01*
X15474500Y-2069395D01*
X15474500Y-2250605D01*
X15543846Y-2418020D01*
X15671980Y-2546154D01*
X15839395Y-2615500D01*
X16020605Y-2615500D01*
X16188020Y-2546154D01*
X16316154Y-2418020D01*
X16344579Y-2349395D01*
X21764500Y-2349395D01*
X21764500Y-2530605D01*
X21833846Y-2698020D01*
X21961980Y-2826154D01*
X22129395Y-2895500D01*
X22310605Y-2895500D01*
X22478020Y-2826154D01*
X22606154Y-2698020D01*
X22675500Y-2530605D01*
X22675500Y-2349395D01*
X22606154Y-2181980D01*
X22478020Y-2053846D01*
X22310605Y-1984500D01*
X22129395Y-1984500D01*
X21961980Y-2053846D01*
X21833846Y-2181980D01*
X21764500Y-2349395D01*
X16344579Y-2349395D01*
X16385500Y-2250605D01*
X16385500Y-2069395D01*
X16316154Y-1901980D01*
X16188020Y-1773846D01*
X16020605Y-1704500D01*
X15839395Y-1704500D01*
X15671980Y-1773846D01*
X15543846Y-1901980D01*
X15474500Y-2069395D01*
X12903574Y-2069395D01*
X12915500Y-2040605D01*
X12915500Y-1859395D01*
X12846154Y-1691980D01*
X12718020Y-1563846D01*
X12550605Y-1494500D01*
X12369395Y-1494500D01*
X12201980Y-1563846D01*
X12073846Y-1691980D01*
X12004500Y-1859395D01*
X4233569Y-1859395D01*
X4108020Y-1733846D01*
X3940605Y-1664500D01*
X3759395Y-1664500D01*
X3591980Y-1733846D01*
X3463846Y-1861980D01*
X3394500Y-2029395D01*
X3394500Y-2210605D01*
X3463846Y-2378020D01*
X3591980Y-2506154D01*
X3744500Y-2569330D01*
X3744500Y-2628246D01*
X3590605Y-2564500D01*
X3409395Y-2564500D01*
X3241980Y-2633846D01*
X3113846Y-2761980D01*
X3044500Y-2929395D01*
X2455500Y-2929395D01*
X2455500Y-2829395D01*
X2386154Y-2661980D01*
X2258020Y-2533846D01*
X2090605Y-2464500D01*
X1909395Y-2464500D01*
X1741980Y-2533846D01*
X1613846Y-2661980D01*
X1544500Y-2829395D01*
X1194779Y-2829395D01*
X1266154Y-2758020D01*
X1335500Y-2590605D01*
X1335500Y-2409395D01*
X1266154Y-2241980D01*
X1138020Y-2113846D01*
X970605Y-2044500D01*
X789395Y-2044500D01*
X621980Y-2113846D01*
X493846Y-2241980D01*
X424500Y-2409395D01*
X302000Y-2409395D01*
X302000Y-1079395D01*
X6124500Y-1079395D01*
X6124500Y-1260605D01*
X6193846Y-1428020D01*
X6321980Y-1556154D01*
X6489395Y-1625500D01*
X6670605Y-1625500D01*
X6838020Y-1556154D01*
X6966154Y-1428020D01*
X7035500Y-1260605D01*
X7035500Y-1079395D01*
X7006505Y-1009395D01*
X10004500Y-1009395D01*
X10004500Y-1190605D01*
X10073846Y-1358020D01*
X10201980Y-1486154D01*
X10369395Y-1555500D01*
X10550605Y-1555500D01*
X10718020Y-1486154D01*
X10764500Y-1439674D01*
X10764500Y-1450605D01*
X10833846Y-1618020D01*
X10961980Y-1746154D01*
X11129395Y-1815500D01*
X11310605Y-1815500D01*
X11478020Y-1746154D01*
X11606154Y-1618020D01*
X11675500Y-1450605D01*
X11675500Y-1269395D01*
X11606154Y-1101980D01*
X11478020Y-973846D01*
X11310605Y-904500D01*
X11129395Y-904500D01*
X10961980Y-973846D01*
X10915500Y-1020326D01*
X10915500Y-1009395D01*
X10846154Y-841980D01*
X10718020Y-713846D01*
X10550605Y-644500D01*
X10369395Y-644500D01*
X10201980Y-713846D01*
X10073846Y-841980D01*
X10004500Y-1009395D01*
X7006505Y-1009395D01*
X6966154Y-911980D01*
X6838020Y-783846D01*
X6670605Y-714500D01*
X6489395Y-714500D01*
X6321980Y-783846D01*
X6193846Y-911980D01*
X6124500Y-1079395D01*
X302000Y-1079395D01*
X302000Y-302000D01*
X18963826Y-302000D01*
X18903846Y-361980D01*
X18903846Y-361980D01*
G37*
X18903846Y-361980D02*
X18834500Y-529395D01*
X18834500Y-710605D01*
X18903846Y-878020D01*
X19031980Y-1006154D01*
X19199395Y-1075500D01*
X19380605Y-1075500D01*
X19517584Y-1018761D01*
X19533846Y-1058020D01*
X19661980Y-1186154D01*
X19829395Y-1255500D01*
X20010605Y-1255500D01*
X20178020Y-1186154D01*
X20306154Y-1058020D01*
X20375500Y-890605D01*
X20375500Y-869395D01*
X22174500Y-869395D01*
X22174500Y-1050605D01*
X22243846Y-1218020D01*
X22371980Y-1346154D01*
X22539395Y-1415500D01*
X22720605Y-1415500D01*
X22888020Y-1346154D01*
X23016154Y-1218020D01*
X23085500Y-1050605D01*
X23085500Y-869395D01*
X23016154Y-701980D01*
X22888020Y-573846D01*
X22720605Y-504500D01*
X22539395Y-504500D01*
X22371980Y-573846D01*
X22243846Y-701980D01*
X22174500Y-869395D01*
X20375500Y-869395D01*
X20375500Y-709395D01*
X20306154Y-541980D01*
X20178020Y-413846D01*
X20010605Y-344500D01*
X19829395Y-344500D01*
X19692416Y-401239D01*
X19676154Y-361980D01*
X19616174Y-302000D01*
X24698001Y-302000D01*
X24698000Y-19698000D01*
X14085868Y-19698000D01*
X14105500Y-19650605D01*
X14105500Y-19469395D01*
X14036154Y-19301980D01*
X13908020Y-19173846D01*
X13740605Y-19104500D01*
X13559395Y-19104500D01*
X13391980Y-19173846D01*
X13263846Y-19301980D01*
X13194500Y-19469395D01*
X13194500Y-19650605D01*
X13214132Y-19698000D01*
X8807967Y-19698000D01*
X8865500Y-19559105D01*
X8865500Y-19377895D01*
X8796154Y-19210480D01*
X8668020Y-19082346D01*
X8500605Y-19013000D01*
X8319395Y-19013000D01*
X8151980Y-19082346D01*
X8023846Y-19210480D01*
X7954500Y-19377895D01*
X7954500Y-19559105D01*
X8012033Y-19698000D01*
X3229683Y-19698000D01*
X3295500Y-19539105D01*
X3295500Y-19357895D01*
X3226154Y-19190480D01*
X3098020Y-19062346D01*
X2930605Y-18993000D01*
X2820240Y-18993000D01*
X2978020Y-18927645D01*
X3106154Y-18799511D01*
X3175500Y-18632096D01*
X3175500Y-18595445D01*
X3213846Y-18688020D01*
X3341980Y-18816154D01*
X3509395Y-18885500D01*
X3690605Y-18885500D01*
X3858020Y-18816154D01*
X3986154Y-18688020D01*
X4055500Y-18520605D01*
X4055500Y-18339395D01*
X3986154Y-18171980D01*
X3858020Y-18043846D01*
X3690605Y-17974500D01*
X3509395Y-17974500D01*
X3341980Y-18043846D01*
X3213846Y-18171980D01*
X3144500Y-18339395D01*
X3144500Y-18376046D01*
X3106154Y-18283471D01*
X2978020Y-18155337D01*
X2810605Y-18085991D01*
X2629395Y-18085991D01*
X2461980Y-18155337D01*
X2333846Y-18283471D01*
X2264500Y-18450886D01*
X2264500Y-18632096D01*
X2333846Y-18799511D01*
X2461980Y-18927645D01*
X2629395Y-18996991D01*
X2739760Y-18996991D01*
X2581980Y-19062346D01*
X2453846Y-19190480D01*
X2384500Y-19357895D01*
X2384500Y-19539105D01*
X2450317Y-19698000D01*
X302000Y-19698000D01*
X302000Y-18449395D01*
X534500Y-18449395D01*
X534500Y-18630605D01*
X603846Y-18798020D01*
X731980Y-18926154D01*
X899395Y-18995500D01*
X1080605Y-18995500D01*
X1248020Y-18926154D01*
X1376154Y-18798020D01*
X1384691Y-18777409D01*
X1393846Y-18799510D01*
X1521980Y-18927644D01*
X1689395Y-18996990D01*
X1870605Y-18996990D01*
X2038020Y-18927644D01*
X2166154Y-18799510D01*
X2235500Y-18632095D01*
X2235500Y-18450885D01*
X2166154Y-18283470D01*
X2038020Y-18155336D01*
X1870605Y-18085990D01*
X1689395Y-18085990D01*
X1521980Y-18155336D01*
X1393846Y-18283470D01*
X1385309Y-18304081D01*
X1376154Y-18281980D01*
X1248020Y-18153846D01*
X1080605Y-18084500D01*
X899395Y-18084500D01*
X731980Y-18153846D01*
X603846Y-18281980D01*
X534500Y-18449395D01*
X302000Y-18449395D01*
X302000Y-17192478D01*
X7127757Y-17192478D01*
X7127757Y-17373688D01*
X7197103Y-17541103D01*
X7244382Y-17588382D01*
X7189493Y-17720896D01*
X7189493Y-17902106D01*
X7258839Y-18069521D01*
X7386973Y-18197655D01*
X7554388Y-18267001D01*
X7735598Y-18267001D01*
X7903013Y-18197655D01*
X8031147Y-18069521D01*
X8100493Y-17902106D01*
X8100493Y-17720896D01*
X8083167Y-17679066D01*
X8639375Y-17679066D01*
X8639375Y-17860276D01*
X8708721Y-18027691D01*
X8836855Y-18155825D01*
X9004270Y-18225171D01*
X9185480Y-18225171D01*
X9352895Y-18155825D01*
X9481029Y-18027691D01*
X9550375Y-17860276D01*
X9550375Y-17679066D01*
X9481029Y-17511651D01*
X9352895Y-17383517D01*
X9185480Y-17314171D01*
X9004270Y-17314171D01*
X8836855Y-17383517D01*
X8708721Y-17511651D01*
X8639375Y-17679066D01*
X8083167Y-17679066D01*
X8031147Y-17553481D01*
X7983868Y-17506202D01*
X8038757Y-17373688D01*
X8038757Y-17229395D01*
X11874500Y-17229395D01*
X11874500Y-17410605D01*
X11943846Y-17578020D01*
X12071980Y-17706154D01*
X12239395Y-17775500D01*
X12420605Y-17775500D01*
X12588020Y-17706154D01*
X12716154Y-17578020D01*
X12757006Y-17479395D01*
X13694500Y-17479395D01*
X13694500Y-17660605D01*
X13763846Y-17828020D01*
X13891980Y-17956154D01*
X14059395Y-18025500D01*
X14240605Y-18025500D01*
X14408020Y-17956154D01*
X14536154Y-17828020D01*
X14605500Y-17660605D01*
X14605500Y-17479395D01*
X14944500Y-17479395D01*
X14944500Y-17660605D01*
X15013846Y-17828020D01*
X15141980Y-17956154D01*
X15309395Y-18025500D01*
X15490605Y-18025500D01*
X15658020Y-17956154D01*
X15678264Y-17935911D01*
X15802017Y-18059664D01*
X15969432Y-18129010D01*
X16150642Y-18129010D01*
X16318057Y-18059664D01*
X16391774Y-17985948D01*
X16451980Y-18046154D01*
X16619395Y-18115500D01*
X16800605Y-18115500D01*
X16968020Y-18046154D01*
X17096154Y-17918020D01*
X17165500Y-17750605D01*
X17165500Y-17569395D01*
X17096154Y-17401980D01*
X16968020Y-17273846D01*
X16800605Y-17204500D01*
X16619395Y-17204500D01*
X16451980Y-17273846D01*
X16378264Y-17347563D01*
X16318057Y-17287356D01*
X16150642Y-17218010D01*
X15969432Y-17218010D01*
X15802017Y-17287356D01*
X15781774Y-17307600D01*
X15658020Y-17183846D01*
X15490605Y-17114500D01*
X15309395Y-17114500D01*
X15141980Y-17183846D01*
X15013846Y-17311980D01*
X14944500Y-17479395D01*
X14605500Y-17479395D01*
X14536154Y-17311980D01*
X14494174Y-17270000D01*
X14576154Y-17188020D01*
X14645500Y-17020605D01*
X14645500Y-16839395D01*
X14635941Y-16816317D01*
X17584500Y-16816317D01*
X17584500Y-16997527D01*
X17653846Y-17164942D01*
X17781980Y-17293076D01*
X17949395Y-17362422D01*
X18130605Y-17362422D01*
X18298020Y-17293076D01*
X18426154Y-17164942D01*
X18495500Y-16997527D01*
X18495500Y-16816317D01*
X18426154Y-16648902D01*
X18298020Y-16520768D01*
X18130605Y-16451422D01*
X17949395Y-16451422D01*
X17781980Y-16520768D01*
X17653846Y-16648902D01*
X17584500Y-16816317D01*
X14635941Y-16816317D01*
X14576154Y-16671980D01*
X14448020Y-16543846D01*
X14280605Y-16474500D01*
X14099395Y-16474500D01*
X13931980Y-16543846D01*
X13803846Y-16671980D01*
X13734500Y-16839395D01*
X13734500Y-17020605D01*
X13803846Y-17188020D01*
X13845826Y-17230000D01*
X13763846Y-17311980D01*
X13694500Y-17479395D01*
X12757006Y-17479395D01*
X12785500Y-17410605D01*
X12785500Y-17229395D01*
X12751964Y-17148434D01*
X12879266Y-17021132D01*
X12948612Y-16853717D01*
X12948612Y-16672507D01*
X12879266Y-16505092D01*
X12751132Y-16376958D01*
X12583717Y-16307612D01*
X12402507Y-16307612D01*
X12235092Y-16376958D01*
X12106958Y-16505092D01*
X12037612Y-16672507D01*
X12037612Y-16853717D01*
X12071148Y-16934678D01*
X11943846Y-17061980D01*
X11874500Y-17229395D01*
X8038757Y-17229395D01*
X8038757Y-17192478D01*
X7969411Y-17025063D01*
X7841277Y-16896929D01*
X7673862Y-16827583D01*
X7492652Y-16827583D01*
X7325237Y-16896929D01*
X7197103Y-17025063D01*
X7127757Y-17192478D01*
X302000Y-17192478D01*
X302000Y-16569395D01*
X2324500Y-16569395D01*
X2324500Y-16750605D01*
X2393846Y-16918020D01*
X2521980Y-17046154D01*
X2689395Y-17115500D01*
X2870605Y-17115500D01*
X3038020Y-17046154D01*
X3166154Y-16918020D01*
X3235500Y-16750605D01*
X3235500Y-16569395D01*
X3166154Y-16401980D01*
X3038020Y-16273846D01*
X2870605Y-16204500D01*
X2689395Y-16204500D01*
X2521980Y-16273846D01*
X2393846Y-16401980D01*
X2324500Y-16569395D01*
X302000Y-16569395D01*
X302000Y-15679365D01*
X1754530Y-15679365D01*
X1754530Y-15860575D01*
X1823876Y-16027990D01*
X1952010Y-16156124D01*
X2119425Y-16225470D01*
X2300635Y-16225470D01*
X2468050Y-16156124D01*
X2596184Y-16027990D01*
X2665530Y-15860575D01*
X2665530Y-15679365D01*
X2596184Y-15511950D01*
X2519734Y-15435500D01*
X2542084Y-15435500D01*
X2709499Y-15366154D01*
X2837633Y-15238020D01*
X2906979Y-15070605D01*
X2906979Y-14889395D01*
X2837633Y-14721980D01*
X2709499Y-14593846D01*
X2542084Y-14524500D01*
X2360874Y-14524500D01*
X2193459Y-14593846D01*
X2065325Y-14721980D01*
X1995979Y-14889395D01*
X1995979Y-15070605D01*
X2065325Y-15238020D01*
X2141775Y-15314470D01*
X2119425Y-15314470D01*
X1952010Y-15383816D01*
X1823876Y-15511950D01*
X1754530Y-15679365D01*
X302000Y-15679365D01*
X302000Y-13059395D01*
X1464500Y-13059395D01*
X1464500Y-13240605D01*
X1533846Y-13408020D01*
X1661980Y-13536154D01*
X1829395Y-13605500D01*
X1948954Y-13605500D01*
X2003846Y-13738020D01*
X2060194Y-13794368D01*
X1995979Y-13949395D01*
X1995979Y-14130605D01*
X2065325Y-14298020D01*
X2193459Y-14426154D01*
X2360874Y-14495500D01*
X2542084Y-14495500D01*
X2709499Y-14426154D01*
X2837633Y-14298020D01*
X2906979Y-14130605D01*
X2906979Y-13959395D01*
X3494500Y-13959395D01*
X3494500Y-14140605D01*
X3563846Y-14308020D01*
X3691980Y-14436154D01*
X3859395Y-14505500D01*
X3916826Y-14505500D01*
X3851921Y-14570405D01*
X3782575Y-14737820D01*
X3782575Y-14919030D01*
X3851921Y-15086445D01*
X3980055Y-15214579D01*
X4058679Y-15247147D01*
X4023846Y-15281980D01*
X3954500Y-15449395D01*
X3954500Y-15630605D01*
X4023846Y-15798020D01*
X4151980Y-15926154D01*
X4252140Y-15967642D01*
X4252140Y-16071554D01*
X4321486Y-16238969D01*
X4449620Y-16367103D01*
X4617035Y-16436449D01*
X4721774Y-16436449D01*
X4763846Y-16538020D01*
X4891980Y-16666154D01*
X5059395Y-16735500D01*
X5240605Y-16735500D01*
X5408020Y-16666154D01*
X5536154Y-16538020D01*
X5597095Y-16390895D01*
X8954500Y-16390895D01*
X8954500Y-16572105D01*
X9023846Y-16739520D01*
X9151980Y-16867654D01*
X9319395Y-16937000D01*
X9500605Y-16937000D01*
X9668020Y-16867654D01*
X9796154Y-16739520D01*
X9865500Y-16572105D01*
X9865500Y-16390895D01*
X9809984Y-16256867D01*
X16721972Y-16256867D01*
X16721972Y-16438077D01*
X16791318Y-16605492D01*
X16919452Y-16733626D01*
X17086867Y-16802972D01*
X17268077Y-16802972D01*
X17435492Y-16733626D01*
X17563626Y-16605492D01*
X17632972Y-16438077D01*
X17632972Y-16299395D01*
X20674500Y-16299395D01*
X20674500Y-16480605D01*
X20743846Y-16648020D01*
X20871980Y-16776154D01*
X21039395Y-16845500D01*
X21220605Y-16845500D01*
X21388020Y-16776154D01*
X21516154Y-16648020D01*
X21585500Y-16480605D01*
X21585500Y-16299395D01*
X21516154Y-16131980D01*
X21388020Y-16003846D01*
X21220605Y-15934500D01*
X21039395Y-15934500D01*
X20871980Y-16003846D01*
X20743846Y-16131980D01*
X20674500Y-16299395D01*
X17632972Y-16299395D01*
X17632972Y-16256867D01*
X17563626Y-16089452D01*
X17435492Y-15961318D01*
X17268077Y-15891972D01*
X17086867Y-15891972D01*
X16919452Y-15961318D01*
X16791318Y-16089452D01*
X16721972Y-16256867D01*
X9809984Y-16256867D01*
X9796154Y-16223480D01*
X9668020Y-16095346D01*
X9500605Y-16026000D01*
X9319395Y-16026000D01*
X9151980Y-16095346D01*
X9023846Y-16223480D01*
X8954500Y-16390895D01*
X5597095Y-16390895D01*
X5605500Y-16370605D01*
X5605500Y-16189395D01*
X5536154Y-16021980D01*
X5408020Y-15893846D01*
X5252423Y-15829395D01*
X7744500Y-15829395D01*
X7744500Y-16010605D01*
X7813846Y-16178020D01*
X7941980Y-16306154D01*
X8109395Y-16375500D01*
X8290605Y-16375500D01*
X8458020Y-16306154D01*
X8586154Y-16178020D01*
X8655500Y-16010605D01*
X8655500Y-15829395D01*
X8586154Y-15661980D01*
X8458020Y-15533846D01*
X8290605Y-15464500D01*
X8109395Y-15464500D01*
X7941980Y-15533846D01*
X7813846Y-15661980D01*
X7744500Y-15829395D01*
X5252423Y-15829395D01*
X5240605Y-15824500D01*
X5135866Y-15824500D01*
X5108335Y-15758033D01*
X5164417Y-15734803D01*
X5292551Y-15606669D01*
X5361897Y-15439254D01*
X5361897Y-15258044D01*
X5292551Y-15090629D01*
X5231317Y-15029395D01*
X10044500Y-15029395D01*
X10044500Y-15210605D01*
X10113846Y-15378020D01*
X10241980Y-15506154D01*
X10409395Y-15575500D01*
X10590605Y-15575500D01*
X10616016Y-15564974D01*
X10633846Y-15608020D01*
X10761980Y-15736154D01*
X10929395Y-15805500D01*
X11110605Y-15805500D01*
X11278020Y-15736154D01*
X11406154Y-15608020D01*
X11475500Y-15440605D01*
X11475500Y-15299674D01*
X11487373Y-15311547D01*
X11654788Y-15380893D01*
X11719107Y-15380893D01*
X11719107Y-15445212D01*
X11788453Y-15612627D01*
X11916587Y-15740761D01*
X12084002Y-15810107D01*
X12265212Y-15810107D01*
X12432627Y-15740761D01*
X12536598Y-15636790D01*
X12594788Y-15660893D01*
X12659107Y-15660893D01*
X12659107Y-15725212D01*
X12728453Y-15892627D01*
X12856587Y-16020761D01*
X13024002Y-16090107D01*
X13205212Y-16090107D01*
X13372627Y-16020761D01*
X13500761Y-15892627D01*
X13570107Y-15725212D01*
X13570107Y-15544002D01*
X13500761Y-15376587D01*
X13448176Y-15324002D01*
X14239893Y-15324002D01*
X14239893Y-15505212D01*
X14309239Y-15672627D01*
X14437373Y-15800761D01*
X14604788Y-15870107D01*
X14785998Y-15870107D01*
X14953413Y-15800761D01*
X15081547Y-15672627D01*
X15125393Y-15566774D01*
X15169239Y-15672627D01*
X15297373Y-15800761D01*
X15464788Y-15870107D01*
X15645998Y-15870107D01*
X15813413Y-15800761D01*
X15941547Y-15672627D01*
X16010893Y-15505212D01*
X16010893Y-15440893D01*
X16075212Y-15440893D01*
X16242627Y-15371547D01*
X16364779Y-15249395D01*
X19634500Y-15249395D01*
X19634500Y-15430605D01*
X19703846Y-15598020D01*
X19831980Y-15726154D01*
X19999395Y-15795500D01*
X20180605Y-15795500D01*
X20348020Y-15726154D01*
X20476154Y-15598020D01*
X20545500Y-15430605D01*
X20545500Y-15249395D01*
X20476154Y-15081980D01*
X20348020Y-14953846D01*
X20180605Y-14884500D01*
X19999395Y-14884500D01*
X19831980Y-14953846D01*
X19703846Y-15081980D01*
X19634500Y-15249395D01*
X16364779Y-15249395D01*
X16370761Y-15243413D01*
X16440107Y-15075998D01*
X16440107Y-14894788D01*
X16415549Y-14835500D01*
X16550605Y-14835500D01*
X16718020Y-14766154D01*
X16775000Y-14709174D01*
X16831980Y-14766154D01*
X16999395Y-14835500D01*
X17180605Y-14835500D01*
X17348020Y-14766154D01*
X17476154Y-14638020D01*
X17545500Y-14470605D01*
X17545500Y-14289395D01*
X17476154Y-14121980D01*
X17348020Y-13993846D01*
X17180605Y-13924500D01*
X16999395Y-13924500D01*
X16831980Y-13993846D01*
X16775000Y-14050826D01*
X16718020Y-13993846D01*
X16550605Y-13924500D01*
X16369395Y-13924500D01*
X16201980Y-13993846D01*
X16073846Y-14121980D01*
X16004500Y-14289395D01*
X16004500Y-14470605D01*
X16029058Y-14529893D01*
X15894002Y-14529893D01*
X15726587Y-14599239D01*
X15598453Y-14727373D01*
X15554607Y-14833226D01*
X15510761Y-14727373D01*
X15382627Y-14599239D01*
X15215212Y-14529893D01*
X15034002Y-14529893D01*
X14866587Y-14599239D01*
X14738453Y-14727373D01*
X14669107Y-14894788D01*
X14669107Y-14959107D01*
X14604788Y-14959107D01*
X14437373Y-15028453D01*
X14309239Y-15156587D01*
X14239893Y-15324002D01*
X13448176Y-15324002D01*
X13387226Y-15263052D01*
X13428020Y-15246154D01*
X13556154Y-15118020D01*
X13625500Y-14950605D01*
X13625500Y-14769395D01*
X13556154Y-14601980D01*
X13428020Y-14473846D01*
X13260605Y-14404500D01*
X13079395Y-14404500D01*
X12911980Y-14473846D01*
X12783846Y-14601980D01*
X12722578Y-14749893D01*
X12594788Y-14749893D01*
X12427373Y-14819239D01*
X12323402Y-14923210D01*
X12265212Y-14899107D01*
X12200893Y-14899107D01*
X12200893Y-14834788D01*
X12131547Y-14667373D01*
X12003413Y-14539239D01*
X11835998Y-14469893D01*
X11654788Y-14469893D01*
X11487373Y-14539239D01*
X11359239Y-14667373D01*
X11289893Y-14834788D01*
X11289893Y-14975719D01*
X11278020Y-14963846D01*
X11110605Y-14894500D01*
X10929395Y-14894500D01*
X10903984Y-14905026D01*
X10886154Y-14861980D01*
X10758020Y-14733846D01*
X10590605Y-14664500D01*
X10409395Y-14664500D01*
X10241980Y-14733846D01*
X10113846Y-14861980D01*
X10044500Y-15029395D01*
X5231317Y-15029395D01*
X5212609Y-15010687D01*
X5250575Y-14919030D01*
X5250575Y-14737820D01*
X5181229Y-14570405D01*
X5053095Y-14442271D01*
X4885680Y-14372925D01*
X4704470Y-14372925D01*
X4537055Y-14442271D01*
X4516575Y-14462751D01*
X4496095Y-14442271D01*
X4328680Y-14372925D01*
X4271249Y-14372925D01*
X4336154Y-14308020D01*
X4360437Y-14249395D01*
X7654500Y-14249395D01*
X7654500Y-14430605D01*
X7723846Y-14598020D01*
X7851980Y-14726154D01*
X8019395Y-14795500D01*
X8200605Y-14795500D01*
X8368020Y-14726154D01*
X8496154Y-14598020D01*
X8565500Y-14430605D01*
X8565500Y-14249395D01*
X8496154Y-14081980D01*
X8368020Y-13953846D01*
X8200605Y-13884500D01*
X8019395Y-13884500D01*
X7851980Y-13953846D01*
X7723846Y-14081980D01*
X7654500Y-14249395D01*
X4360437Y-14249395D01*
X4405500Y-14140605D01*
X4405500Y-13959395D01*
X4336154Y-13791980D01*
X4208020Y-13663846D01*
X4052423Y-13599395D01*
X8494500Y-13599395D01*
X8494500Y-13780605D01*
X8563846Y-13948020D01*
X8691980Y-14076154D01*
X8859395Y-14145500D01*
X9040605Y-14145500D01*
X9208020Y-14076154D01*
X9336154Y-13948020D01*
X9405500Y-13780605D01*
X9405500Y-13599395D01*
X9393074Y-13569395D01*
X20504500Y-13569395D01*
X20504500Y-13750605D01*
X20573846Y-13918020D01*
X20701980Y-14046154D01*
X20869395Y-14115500D01*
X21050605Y-14115500D01*
X21218020Y-14046154D01*
X21265000Y-13999174D01*
X21331980Y-14066154D01*
X21499395Y-14135500D01*
X21680605Y-14135500D01*
X21848020Y-14066154D01*
X21976154Y-13938020D01*
X22045500Y-13770605D01*
X22045500Y-13589395D01*
X21976154Y-13421980D01*
X21848020Y-13293846D01*
X21680605Y-13224500D01*
X21499395Y-13224500D01*
X21331980Y-13293846D01*
X21285000Y-13340826D01*
X21218020Y-13273846D01*
X21050605Y-13204500D01*
X20869395Y-13204500D01*
X20701980Y-13273846D01*
X20573846Y-13401980D01*
X20504500Y-13569395D01*
X9393074Y-13569395D01*
X9336154Y-13431980D01*
X9208020Y-13303846D01*
X9040605Y-13234500D01*
X8859395Y-13234500D01*
X8691980Y-13303846D01*
X8563846Y-13431980D01*
X8494500Y-13599395D01*
X4052423Y-13599395D01*
X4040605Y-13594500D01*
X3859395Y-13594500D01*
X3691980Y-13663846D01*
X3563846Y-13791980D01*
X3494500Y-13959395D01*
X2906979Y-13959395D01*
X2906979Y-13949395D01*
X2837633Y-13781980D01*
X2781285Y-13725632D01*
X2845500Y-13570605D01*
X2845500Y-13389395D01*
X2776154Y-13221980D01*
X2694174Y-13140000D01*
X2776154Y-13058020D01*
X2845500Y-12890605D01*
X2845500Y-12709395D01*
X2776154Y-12541980D01*
X2734174Y-12500000D01*
X2786154Y-12448020D01*
X2855500Y-12280605D01*
X2855500Y-12099395D01*
X2786154Y-11931980D01*
X2734174Y-11880000D01*
X2786154Y-11828020D01*
X2855500Y-11660605D01*
X2855500Y-11479395D01*
X2786154Y-11311980D01*
X2658020Y-11183846D01*
X2490605Y-11114500D01*
X2309395Y-11114500D01*
X2141980Y-11183846D01*
X2013846Y-11311980D01*
X1944500Y-11479395D01*
X1944500Y-11660605D01*
X2013846Y-11828020D01*
X2065826Y-11880000D01*
X2013846Y-11931980D01*
X1944500Y-12099395D01*
X1944500Y-12280605D01*
X2013846Y-12448020D01*
X2055826Y-12490000D01*
X2003846Y-12541980D01*
X1940670Y-12694500D01*
X1829395Y-12694500D01*
X1661980Y-12763846D01*
X1533846Y-12891980D01*
X1464500Y-13059395D01*
X302000Y-13059395D01*
X302000Y-11069395D01*
X3508000Y-11069395D01*
X3508000Y-11250605D01*
X3577346Y-11418020D01*
X3705480Y-11546154D01*
X3872895Y-11615500D01*
X3880252Y-11615500D01*
X3846064Y-11649688D01*
X3776718Y-11817103D01*
X3776718Y-11998313D01*
X3829672Y-12126154D01*
X3751493Y-12204333D01*
X3682147Y-12371748D01*
X3682147Y-12552958D01*
X3751493Y-12720373D01*
X3879627Y-12848507D01*
X4047042Y-12917853D01*
X4228252Y-12917853D01*
X4395667Y-12848507D01*
X4515941Y-12728233D01*
X4594788Y-12760893D01*
X4659107Y-12760893D01*
X4659107Y-12825212D01*
X4728453Y-12992627D01*
X4856587Y-13120761D01*
X5024002Y-13190107D01*
X5205212Y-13190107D01*
X5372627Y-13120761D01*
X5500761Y-12992627D01*
X5570107Y-12825212D01*
X5570107Y-12696133D01*
X7932200Y-12696133D01*
X7932200Y-12877343D01*
X8001546Y-13044758D01*
X8129680Y-13172892D01*
X8297095Y-13242238D01*
X8478305Y-13242238D01*
X8645720Y-13172892D01*
X8773854Y-13044758D01*
X8843200Y-12877343D01*
X8843200Y-12696133D01*
X8799948Y-12591714D01*
X8870132Y-12521530D01*
X8939478Y-12354115D01*
X8939478Y-12172905D01*
X8870132Y-12005490D01*
X8741998Y-11877356D01*
X8574583Y-11808010D01*
X8393373Y-11808010D01*
X8225958Y-11877356D01*
X8097824Y-12005490D01*
X8028478Y-12172905D01*
X8028478Y-12354115D01*
X8071730Y-12458534D01*
X8001546Y-12528718D01*
X7932200Y-12696133D01*
X5570107Y-12696133D01*
X5570107Y-12644002D01*
X5500761Y-12476587D01*
X5372627Y-12348453D01*
X5205212Y-12279107D01*
X5140893Y-12279107D01*
X5140893Y-12214788D01*
X5071547Y-12047373D01*
X4943413Y-11919239D01*
X4775998Y-11849893D01*
X4687718Y-11849893D01*
X4687718Y-11817103D01*
X4622393Y-11659395D01*
X10412867Y-11659395D01*
X10412867Y-11840605D01*
X10482213Y-12008020D01*
X10610347Y-12136154D01*
X10777762Y-12205500D01*
X10958972Y-12205500D01*
X11126387Y-12136154D01*
X11184184Y-12078358D01*
X11241980Y-12136154D01*
X11409395Y-12205500D01*
X11590605Y-12205500D01*
X11758020Y-12136154D01*
X11830000Y-12064174D01*
X11840826Y-12075000D01*
X11783846Y-12131980D01*
X11714500Y-12299395D01*
X11714500Y-12480605D01*
X11783846Y-12648020D01*
X11911980Y-12776154D01*
X12079395Y-12845500D01*
X12260605Y-12845500D01*
X12416720Y-12780834D01*
X12498255Y-12862369D01*
X12665670Y-12931715D01*
X12846880Y-12931715D01*
X13014295Y-12862369D01*
X13049683Y-12826981D01*
X13085418Y-12862716D01*
X13252833Y-12932062D01*
X13434043Y-12932062D01*
X13435501Y-12931458D01*
X19710980Y-12931458D01*
X19710980Y-13112668D01*
X19780326Y-13280083D01*
X19908460Y-13408217D01*
X20075875Y-13477563D01*
X20257085Y-13477563D01*
X20424500Y-13408217D01*
X20552634Y-13280083D01*
X20621980Y-13112668D01*
X20621980Y-12931458D01*
X20552634Y-12764043D01*
X20424500Y-12635909D01*
X20257085Y-12566563D01*
X20075875Y-12566563D01*
X19908460Y-12635909D01*
X19780326Y-12764043D01*
X19710980Y-12931458D01*
X13435501Y-12931458D01*
X13601458Y-12862716D01*
X13729592Y-12734582D01*
X13798938Y-12567167D01*
X13798938Y-12385957D01*
X13736616Y-12235500D01*
X13780605Y-12235500D01*
X13948020Y-12166154D01*
X14010749Y-12103425D01*
X14063478Y-12156154D01*
X14230893Y-12225500D01*
X14412103Y-12225500D01*
X14579518Y-12156154D01*
X14707652Y-12028020D01*
X14776998Y-11860605D01*
X14776998Y-11784002D01*
X15589893Y-11784002D01*
X15589893Y-11965212D01*
X15659239Y-12132627D01*
X15787373Y-12260761D01*
X15954788Y-12330107D01*
X16135998Y-12330107D01*
X16303413Y-12260761D01*
X16431547Y-12132627D01*
X16500893Y-11965212D01*
X16500893Y-11900893D01*
X16565212Y-11900893D01*
X16732627Y-11831547D01*
X16860761Y-11703413D01*
X16930107Y-11535998D01*
X16930107Y-11354788D01*
X16860761Y-11187373D01*
X16732627Y-11059239D01*
X16565212Y-10989893D01*
X16384002Y-10989893D01*
X16216587Y-11059239D01*
X16088453Y-11187373D01*
X16019107Y-11354788D01*
X16019107Y-11419107D01*
X15954788Y-11419107D01*
X15787373Y-11488453D01*
X15659239Y-11616587D01*
X15589893Y-11784002D01*
X14776998Y-11784002D01*
X14776998Y-11679395D01*
X14732446Y-11571839D01*
X14823404Y-11570691D01*
X14925524Y-11242699D01*
X14894353Y-10900594D01*
X14823404Y-10729309D01*
X14634647Y-10726927D01*
X14211574Y-11150000D01*
X14234732Y-11173158D01*
X14073158Y-11334732D01*
X14050000Y-11311574D01*
X14026842Y-11334732D01*
X13965857Y-11273747D01*
X13975524Y-11242699D01*
X13956642Y-11035468D01*
X14026842Y-10965268D01*
X14050000Y-10988426D01*
X14183513Y-10854913D01*
X14299406Y-10844353D01*
X14470691Y-10773404D01*
X14473073Y-10584647D01*
X14463426Y-10575000D01*
X14473073Y-10565353D01*
X14470691Y-10376596D01*
X14172036Y-10283610D01*
X14050000Y-10161574D01*
X14026842Y-10184732D01*
X13965857Y-10123747D01*
X13975524Y-10092699D01*
X13967078Y-10000000D01*
X14211574Y-10000000D01*
X14634647Y-10423073D01*
X14823404Y-10420691D01*
X14825486Y-10414002D01*
X15739893Y-10414002D01*
X15739893Y-10595212D01*
X15809239Y-10762627D01*
X15937373Y-10890761D01*
X16104788Y-10960107D01*
X16285998Y-10960107D01*
X16453413Y-10890761D01*
X16534779Y-10809395D01*
X17198118Y-10809395D01*
X17198118Y-10990605D01*
X17267464Y-11158020D01*
X17395598Y-11286154D01*
X17563013Y-11355500D01*
X17744223Y-11355500D01*
X17911638Y-11286154D01*
X18039772Y-11158020D01*
X18109118Y-10990605D01*
X18109118Y-10809395D01*
X18039772Y-10641980D01*
X17911638Y-10513846D01*
X17744223Y-10444500D01*
X17563013Y-10444500D01*
X17395598Y-10513846D01*
X17267464Y-10641980D01*
X17198118Y-10809395D01*
X16534779Y-10809395D01*
X16581547Y-10762627D01*
X16650893Y-10595212D01*
X16650893Y-10530893D01*
X16715212Y-10530893D01*
X16882627Y-10461547D01*
X17010761Y-10333413D01*
X17076007Y-10175895D01*
X19664500Y-10175895D01*
X19664500Y-10357105D01*
X19733846Y-10524520D01*
X19779326Y-10570000D01*
X19733846Y-10615480D01*
X19664500Y-10782895D01*
X19664500Y-10964105D01*
X19733846Y-11131520D01*
X19774076Y-11171750D01*
X19753846Y-11191980D01*
X19684500Y-11359395D01*
X19684500Y-11540605D01*
X19753846Y-11708020D01*
X19835826Y-11790000D01*
X19773846Y-11851980D01*
X19704500Y-12019395D01*
X19704500Y-12200605D01*
X19773846Y-12368020D01*
X19901980Y-12496154D01*
X20069395Y-12565500D01*
X20250605Y-12565500D01*
X20418020Y-12496154D01*
X20444779Y-12469395D01*
X22414500Y-12469395D01*
X22414500Y-12650605D01*
X22483846Y-12818020D01*
X22611980Y-12946154D01*
X22779395Y-13015500D01*
X22960605Y-13015500D01*
X23128020Y-12946154D01*
X23256154Y-12818020D01*
X23325500Y-12650605D01*
X23325500Y-12469395D01*
X23256154Y-12301980D01*
X23128020Y-12173846D01*
X22960605Y-12104500D01*
X22779395Y-12104500D01*
X22611980Y-12173846D01*
X22483846Y-12301980D01*
X22414500Y-12469395D01*
X20444779Y-12469395D01*
X20546154Y-12368020D01*
X20615500Y-12200605D01*
X20615500Y-12019395D01*
X20546154Y-11851980D01*
X20464174Y-11770000D01*
X20526154Y-11708020D01*
X20595500Y-11540605D01*
X20595500Y-11359395D01*
X20526154Y-11191980D01*
X20485924Y-11151750D01*
X20506154Y-11131520D01*
X20575500Y-10964105D01*
X20575500Y-10782895D01*
X20506154Y-10615480D01*
X20460674Y-10570000D01*
X20506154Y-10524520D01*
X20575500Y-10357105D01*
X20575500Y-10175895D01*
X20506154Y-10008480D01*
X20497274Y-9999600D01*
X20578020Y-9966154D01*
X20706154Y-9838020D01*
X20775500Y-9670605D01*
X20775500Y-9489395D01*
X20706154Y-9321980D01*
X20578020Y-9193846D01*
X20410605Y-9124500D01*
X20229395Y-9124500D01*
X20061980Y-9193846D01*
X19933846Y-9321980D01*
X19864500Y-9489395D01*
X19864500Y-9670605D01*
X19933846Y-9838020D01*
X19942726Y-9846900D01*
X19861980Y-9880346D01*
X19733846Y-10008480D01*
X19664500Y-10175895D01*
X17076007Y-10175895D01*
X17080107Y-10165998D01*
X17080107Y-9984788D01*
X17010761Y-9817373D01*
X16882627Y-9689239D01*
X16715212Y-9619893D01*
X16534002Y-9619893D01*
X16366587Y-9689239D01*
X16238453Y-9817373D01*
X16169107Y-9984788D01*
X16169107Y-10049107D01*
X16104788Y-10049107D01*
X15937373Y-10118453D01*
X15809239Y-10246587D01*
X15739893Y-10414002D01*
X14825486Y-10414002D01*
X14925524Y-10092699D01*
X14894353Y-9750594D01*
X14823404Y-9579309D01*
X14634647Y-9576927D01*
X14211574Y-10000000D01*
X13967078Y-10000000D01*
X13956642Y-9885468D01*
X14026842Y-9815268D01*
X14050000Y-9838426D01*
X14183513Y-9704913D01*
X14299406Y-9694353D01*
X14470691Y-9623404D01*
X14473073Y-9434647D01*
X14463426Y-9425000D01*
X14473073Y-9415353D01*
X14470691Y-9226596D01*
X14172036Y-9133610D01*
X14050000Y-9011574D01*
X14026842Y-9034732D01*
X13965857Y-8973747D01*
X13975524Y-8942699D01*
X13967078Y-8850000D01*
X14211574Y-8850000D01*
X14634647Y-9273073D01*
X14823404Y-9270691D01*
X14925524Y-8942699D01*
X14894353Y-8600594D01*
X14823404Y-8429309D01*
X14634647Y-8426927D01*
X14211574Y-8850000D01*
X13967078Y-8850000D01*
X13956642Y-8735468D01*
X14026842Y-8665268D01*
X14050000Y-8688426D01*
X14077926Y-8660500D01*
X14215605Y-8660500D01*
X14383020Y-8591154D01*
X14511154Y-8463020D01*
X14580500Y-8295605D01*
X14580500Y-8114395D01*
X14511154Y-7946980D01*
X14383020Y-7818846D01*
X14319023Y-7792337D01*
X15920944Y-7792337D01*
X15920944Y-7973547D01*
X15990290Y-8140962D01*
X16056554Y-8207226D01*
X16004500Y-8332895D01*
X16004500Y-8514105D01*
X16073846Y-8681520D01*
X16201980Y-8809654D01*
X16369395Y-8879000D01*
X16550605Y-8879000D01*
X16718020Y-8809654D01*
X16846154Y-8681520D01*
X16915500Y-8514105D01*
X16915500Y-8332895D01*
X16846154Y-8165480D01*
X16779890Y-8099216D01*
X16796577Y-8058930D01*
X16852342Y-8082029D01*
X17033552Y-8082029D01*
X17200967Y-8012683D01*
X17329101Y-7884549D01*
X17351946Y-7829395D01*
X20474500Y-7829395D01*
X20474500Y-8010605D01*
X20543846Y-8178020D01*
X20671980Y-8306154D01*
X20839395Y-8375500D01*
X20964500Y-8375500D01*
X20964500Y-8390605D01*
X21033846Y-8558020D01*
X21161980Y-8686154D01*
X21329395Y-8755500D01*
X21334500Y-8755500D01*
X21334500Y-8880605D01*
X21403846Y-9048020D01*
X21531980Y-9176154D01*
X21699395Y-9245500D01*
X21880605Y-9245500D01*
X22048020Y-9176154D01*
X22176154Y-9048020D01*
X22198469Y-8994148D01*
X22263772Y-9021198D01*
X22444500Y-9021198D01*
X22444500Y-9200605D01*
X22513846Y-9368020D01*
X22580826Y-9435000D01*
X22503846Y-9511980D01*
X22434500Y-9679395D01*
X22434500Y-9860605D01*
X22503846Y-10028020D01*
X22631980Y-10156154D01*
X22646972Y-10162364D01*
X22577356Y-10231980D01*
X22508010Y-10399395D01*
X22508010Y-10580605D01*
X22577356Y-10748020D01*
X22705490Y-10876154D01*
X22872905Y-10945500D01*
X23054115Y-10945500D01*
X23221530Y-10876154D01*
X23349664Y-10748020D01*
X23419010Y-10580605D01*
X23419010Y-10399395D01*
X23349664Y-10231980D01*
X23221530Y-10103846D01*
X23206538Y-10097636D01*
X23276154Y-10028020D01*
X23345500Y-9860605D01*
X23345500Y-9679395D01*
X23276154Y-9511980D01*
X23209174Y-9445000D01*
X23286154Y-9368020D01*
X23355500Y-9200605D01*
X23355500Y-9019395D01*
X23286154Y-8851980D01*
X23249174Y-8815000D01*
X23306154Y-8758020D01*
X23375500Y-8590605D01*
X23375500Y-8409395D01*
X23306154Y-8241980D01*
X23178020Y-8113846D01*
X23010605Y-8044500D01*
X22829395Y-8044500D01*
X22805500Y-8054398D01*
X22805500Y-7889395D01*
X22736154Y-7721980D01*
X22608020Y-7593846D01*
X22440605Y-7524500D01*
X22433323Y-7524500D01*
X22480500Y-7410605D01*
X22480500Y-7312110D01*
X22609395Y-7365500D01*
X22790605Y-7365500D01*
X22958020Y-7296154D01*
X23086154Y-7168020D01*
X23155500Y-7000605D01*
X23155500Y-6819395D01*
X23086154Y-6651980D01*
X23034174Y-6600000D01*
X23136154Y-6498020D01*
X23205500Y-6330605D01*
X23205500Y-6149395D01*
X23136154Y-5981980D01*
X23008020Y-5853846D01*
X22840605Y-5784500D01*
X22659395Y-5784500D01*
X22491980Y-5853846D01*
X22363846Y-5981980D01*
X22294500Y-6149395D01*
X22294500Y-6330605D01*
X22363846Y-6498020D01*
X22415826Y-6550000D01*
X22313846Y-6651980D01*
X22244500Y-6819395D01*
X22244500Y-6917890D01*
X22115605Y-6864500D01*
X21934395Y-6864500D01*
X21766980Y-6933846D01*
X21638846Y-7061980D01*
X21630994Y-7080936D01*
X21470605Y-7014500D01*
X21289395Y-7014500D01*
X21121980Y-7083846D01*
X20993846Y-7211980D01*
X20924500Y-7379395D01*
X20924500Y-7464500D01*
X20839395Y-7464500D01*
X20671980Y-7533846D01*
X20543846Y-7661980D01*
X20474500Y-7829395D01*
X17351946Y-7829395D01*
X17398447Y-7717134D01*
X17398447Y-7535924D01*
X17329101Y-7368509D01*
X17200967Y-7240375D01*
X17033552Y-7171029D01*
X17000471Y-7171029D01*
X17025500Y-7110605D01*
X17025500Y-6929395D01*
X16956154Y-6761980D01*
X16828020Y-6633846D01*
X16660605Y-6564500D01*
X16479395Y-6564500D01*
X16311980Y-6633846D01*
X16183846Y-6761980D01*
X16114500Y-6929395D01*
X16114500Y-7110605D01*
X16183846Y-7278020D01*
X16311980Y-7406154D01*
X16363373Y-7427442D01*
X16285839Y-7427442D01*
X16118424Y-7496788D01*
X15990290Y-7624922D01*
X15920944Y-7792337D01*
X14319023Y-7792337D01*
X14215605Y-7749500D01*
X14034395Y-7749500D01*
X13866980Y-7818846D01*
X13802500Y-7883326D01*
X13733020Y-7813846D01*
X13565605Y-7744500D01*
X13384395Y-7744500D01*
X13216980Y-7813846D01*
X13150000Y-7880826D01*
X13131674Y-7862500D01*
X13211154Y-7783020D01*
X13280500Y-7615605D01*
X13280500Y-7434395D01*
X13211154Y-7266980D01*
X13083020Y-7138846D01*
X12915605Y-7069500D01*
X12734395Y-7069500D01*
X12566980Y-7138846D01*
X12500000Y-7205826D01*
X12433020Y-7138846D01*
X12265605Y-7069500D01*
X12084395Y-7069500D01*
X11916980Y-7138846D01*
X11788846Y-7266980D01*
X11719500Y-7434395D01*
X11719500Y-7615605D01*
X11788846Y-7783020D01*
X11873326Y-7867500D01*
X11822500Y-7918326D01*
X11733020Y-7828846D01*
X11565605Y-7759500D01*
X11384395Y-7759500D01*
X11216980Y-7828846D01*
X11172500Y-7873326D01*
X11133020Y-7833846D01*
X10965605Y-7764500D01*
X10784395Y-7764500D01*
X10616980Y-7833846D01*
X10488846Y-7961980D01*
X10419500Y-8129395D01*
X10419500Y-8310605D01*
X10488846Y-8478020D01*
X10616980Y-8606154D01*
X10784395Y-8675500D01*
X10937074Y-8675500D01*
X10950000Y-8688426D01*
X10962926Y-8675500D01*
X10965605Y-8675500D01*
X10978181Y-8670291D01*
X10996014Y-8688124D01*
X10974476Y-8757301D01*
X10997533Y-9010357D01*
X10973158Y-9034732D01*
X10950000Y-9011574D01*
X10816487Y-9145087D01*
X10700594Y-9155647D01*
X10529309Y-9226596D01*
X10526927Y-9415353D01*
X10536574Y-9425000D01*
X10526927Y-9434647D01*
X10529309Y-9623404D01*
X10827964Y-9716390D01*
X10950000Y-9838426D01*
X10973158Y-9815268D01*
X11034143Y-9876253D01*
X11024476Y-9907301D01*
X11043358Y-10114532D01*
X10973158Y-10184732D01*
X10950000Y-10161574D01*
X10816487Y-10295087D01*
X10700594Y-10305647D01*
X10529309Y-10376596D01*
X10526927Y-10565353D01*
X10536574Y-10575000D01*
X10526927Y-10584647D01*
X10529309Y-10773404D01*
X10827964Y-10866390D01*
X10950000Y-10988426D01*
X10973158Y-10965268D01*
X11034143Y-11026253D01*
X11024476Y-11057301D01*
X11043358Y-11264532D01*
X10997451Y-11310439D01*
X10958972Y-11294500D01*
X10777762Y-11294500D01*
X10610347Y-11363846D01*
X10482213Y-11491980D01*
X10412867Y-11659395D01*
X4622393Y-11659395D01*
X4618372Y-11649688D01*
X4490238Y-11521554D01*
X4322823Y-11452208D01*
X4315466Y-11452208D01*
X4349654Y-11418020D01*
X4419000Y-11250605D01*
X4419000Y-11069395D01*
X4358032Y-10922206D01*
X4427373Y-10991547D01*
X4594788Y-11060893D01*
X4659107Y-11060893D01*
X4659107Y-11125212D01*
X4728453Y-11292627D01*
X4856587Y-11420761D01*
X5024002Y-11490107D01*
X5205212Y-11490107D01*
X5372627Y-11420761D01*
X5500761Y-11292627D01*
X5570107Y-11125212D01*
X5570107Y-11057301D01*
X10074476Y-11057301D01*
X10105647Y-11399406D01*
X10176596Y-11570691D01*
X10365353Y-11573073D01*
X10788426Y-11150000D01*
X10365353Y-10726927D01*
X10176596Y-10729309D01*
X10074476Y-11057301D01*
X5570107Y-11057301D01*
X5570107Y-10944002D01*
X5500761Y-10776587D01*
X5372627Y-10648453D01*
X5205212Y-10579107D01*
X5140893Y-10579107D01*
X5140893Y-10514788D01*
X5074293Y-10354002D01*
X7049893Y-10354002D01*
X7049893Y-10535212D01*
X7119239Y-10702627D01*
X7247373Y-10830761D01*
X7414788Y-10900107D01*
X7595998Y-10900107D01*
X7763413Y-10830761D01*
X7891547Y-10702627D01*
X7960893Y-10535212D01*
X7960893Y-10470893D01*
X8025212Y-10470893D01*
X8192627Y-10401547D01*
X8320761Y-10273413D01*
X8390107Y-10105998D01*
X8390107Y-10010107D01*
X8425998Y-10010107D01*
X8593413Y-9940761D01*
X8626873Y-9907301D01*
X10074476Y-9907301D01*
X10105647Y-10249406D01*
X10176596Y-10420691D01*
X10365353Y-10423073D01*
X10788426Y-10000000D01*
X10365353Y-9576927D01*
X10176596Y-9579309D01*
X10074476Y-9907301D01*
X8626873Y-9907301D01*
X8721547Y-9812627D01*
X8790893Y-9645212D01*
X8790893Y-9580893D01*
X8855212Y-9580893D01*
X9022627Y-9511547D01*
X9150761Y-9383413D01*
X9220107Y-9215998D01*
X9220107Y-9034788D01*
X9150761Y-8867373D01*
X9040689Y-8757301D01*
X10074476Y-8757301D01*
X10105647Y-9099406D01*
X10176596Y-9270691D01*
X10365353Y-9273073D01*
X10788426Y-8850000D01*
X10365353Y-8426927D01*
X10176596Y-8429309D01*
X10074476Y-8757301D01*
X9040689Y-8757301D01*
X9022627Y-8739239D01*
X8855212Y-8669893D01*
X8674002Y-8669893D01*
X8506587Y-8739239D01*
X8378453Y-8867373D01*
X8309107Y-9034788D01*
X8309107Y-9099107D01*
X8244788Y-9099107D01*
X8077373Y-9168453D01*
X7949239Y-9296587D01*
X7879893Y-9464002D01*
X7879893Y-9559893D01*
X7844002Y-9559893D01*
X7676587Y-9629239D01*
X7548453Y-9757373D01*
X7479107Y-9924788D01*
X7479107Y-9989107D01*
X7414788Y-9989107D01*
X7247373Y-10058453D01*
X7119239Y-10186587D01*
X7049893Y-10354002D01*
X5074293Y-10354002D01*
X5071547Y-10347373D01*
X4943413Y-10219239D01*
X4775998Y-10149893D01*
X4594788Y-10149893D01*
X4427373Y-10219239D01*
X4299239Y-10347373D01*
X4229893Y-10514788D01*
X4229893Y-10695998D01*
X4290861Y-10843187D01*
X4221520Y-10773846D01*
X4054105Y-10704500D01*
X3872895Y-10704500D01*
X3705480Y-10773846D01*
X3577346Y-10901980D01*
X3508000Y-11069395D01*
X302000Y-11069395D01*
X302000Y-9099395D01*
X1436945Y-9099395D01*
X1436945Y-9280605D01*
X1506291Y-9448020D01*
X1532049Y-9473778D01*
X1513846Y-9491980D01*
X1444500Y-9659395D01*
X1444500Y-9840605D01*
X1513846Y-10008020D01*
X1583290Y-10077464D01*
X1524500Y-10219395D01*
X1524500Y-10400605D01*
X1593846Y-10568020D01*
X1721980Y-10696154D01*
X1889395Y-10765500D01*
X2070605Y-10765500D01*
X2238020Y-10696154D01*
X2366154Y-10568020D01*
X2416904Y-10445500D01*
X2542084Y-10445500D01*
X2709499Y-10376154D01*
X2837633Y-10248020D01*
X2906979Y-10080605D01*
X2906979Y-9899395D01*
X2837633Y-9731980D01*
X2709499Y-9603846D01*
X2542084Y-9534500D01*
X2360874Y-9534500D01*
X2312130Y-9554691D01*
X2286154Y-9491980D01*
X2260397Y-9466223D01*
X2278599Y-9448020D01*
X2294598Y-9409395D01*
X3791000Y-9409395D01*
X3791000Y-9590605D01*
X3860346Y-9758020D01*
X3988480Y-9886154D01*
X4155895Y-9955500D01*
X4337105Y-9955500D01*
X4504520Y-9886154D01*
X4550000Y-9840674D01*
X4595480Y-9886154D01*
X4762895Y-9955500D01*
X4944105Y-9955500D01*
X5111520Y-9886154D01*
X5239654Y-9758020D01*
X5309000Y-9590605D01*
X5309000Y-9409395D01*
X5239654Y-9241980D01*
X5111520Y-9113846D01*
X4944105Y-9044500D01*
X4762895Y-9044500D01*
X4595480Y-9113846D01*
X4550000Y-9159326D01*
X4504520Y-9113846D01*
X4337105Y-9044500D01*
X4155895Y-9044500D01*
X3988480Y-9113846D01*
X3860346Y-9241980D01*
X3791000Y-9409395D01*
X2294598Y-9409395D01*
X2347945Y-9280605D01*
X2347945Y-9099395D01*
X2278599Y-8931980D01*
X2150465Y-8803846D01*
X1983050Y-8734500D01*
X1801840Y-8734500D01*
X1634425Y-8803846D01*
X1506291Y-8931980D01*
X1436945Y-9099395D01*
X302000Y-9099395D01*
X302000Y-8688924D01*
X2817529Y-8688924D01*
X2817529Y-8870134D01*
X2886875Y-9037549D01*
X3015009Y-9165683D01*
X3182424Y-9235029D01*
X3363634Y-9235029D01*
X3531049Y-9165683D01*
X3659183Y-9037549D01*
X3728529Y-8870134D01*
X3728529Y-8688924D01*
X3659183Y-8521509D01*
X3531049Y-8393375D01*
X3363634Y-8324029D01*
X3182424Y-8324029D01*
X3015009Y-8393375D01*
X2886875Y-8521509D01*
X2817529Y-8688924D01*
X302000Y-8688924D01*
X302000Y-5537785D01*
X1359489Y-5537785D01*
X1359489Y-5718995D01*
X1428835Y-5886410D01*
X1470008Y-5927583D01*
X1400990Y-6094205D01*
X1400990Y-6275415D01*
X1470336Y-6442830D01*
X1479911Y-6452405D01*
X1470336Y-6461980D01*
X1400990Y-6629395D01*
X1400990Y-6810605D01*
X1470336Y-6978020D01*
X1512057Y-7019741D01*
X1470336Y-7061461D01*
X1400990Y-7228876D01*
X1400990Y-7410086D01*
X1470336Y-7577501D01*
X1598470Y-7705635D01*
X1765885Y-7774981D01*
X1947095Y-7774981D01*
X2099479Y-7711861D01*
X2034666Y-7776674D01*
X1965320Y-7944089D01*
X1965320Y-8125299D01*
X2034666Y-8292714D01*
X2162800Y-8420848D01*
X2330215Y-8490194D01*
X2511425Y-8490194D01*
X2678840Y-8420848D01*
X2806974Y-8292714D01*
X2876320Y-8125299D01*
X2876320Y-7944089D01*
X2806974Y-7776674D01*
X2678840Y-7648540D01*
X2511425Y-7579194D01*
X2330215Y-7579194D01*
X2177831Y-7642314D01*
X2242644Y-7577501D01*
X2311990Y-7410086D01*
X2311990Y-7228876D01*
X2251028Y-7081702D01*
X2325480Y-7156154D01*
X2492895Y-7225500D01*
X2514500Y-7225500D01*
X2514500Y-7310605D01*
X2583846Y-7478020D01*
X2711980Y-7606154D01*
X2879395Y-7675500D01*
X2934500Y-7675500D01*
X2934500Y-7740605D01*
X3003846Y-7908020D01*
X3131980Y-8036154D01*
X3299395Y-8105500D01*
X3463096Y-8105500D01*
X3513846Y-8228020D01*
X3641980Y-8356154D01*
X3809395Y-8425500D01*
X3990605Y-8425500D01*
X4158020Y-8356154D01*
X4286154Y-8228020D01*
X4355429Y-8060776D01*
X5003307Y-8060776D01*
X5003307Y-8241986D01*
X5072653Y-8409401D01*
X5200787Y-8537535D01*
X5368202Y-8606881D01*
X5549412Y-8606881D01*
X5716827Y-8537535D01*
X5844961Y-8409401D01*
X5914307Y-8241986D01*
X5914307Y-8060776D01*
X5844961Y-7893361D01*
X5716827Y-7765227D01*
X5549412Y-7695881D01*
X5368202Y-7695881D01*
X5200787Y-7765227D01*
X5072653Y-7893361D01*
X5003307Y-8060776D01*
X4355429Y-8060776D01*
X4355500Y-8060605D01*
X4355500Y-7879395D01*
X4286154Y-7711980D01*
X4158020Y-7583846D01*
X3990605Y-7514500D01*
X3826904Y-7514500D01*
X3776154Y-7391980D01*
X3648020Y-7263846D01*
X3480605Y-7194500D01*
X3425500Y-7194500D01*
X3425500Y-7129395D01*
X3356154Y-6961980D01*
X3257226Y-6863052D01*
X3298020Y-6846154D01*
X3426154Y-6718020D01*
X3495500Y-6550605D01*
X3495500Y-6399395D01*
X4044500Y-6399395D01*
X4044500Y-6580605D01*
X4113846Y-6748020D01*
X4241980Y-6876154D01*
X4409395Y-6945500D01*
X4590605Y-6945500D01*
X4758020Y-6876154D01*
X4886154Y-6748020D01*
X4898486Y-6718248D01*
X8144187Y-6718248D01*
X8144187Y-6899458D01*
X8213533Y-7066873D01*
X8239392Y-7092732D01*
X8174500Y-7249395D01*
X8174500Y-7430605D01*
X8243846Y-7598020D01*
X8371980Y-7726154D01*
X8539395Y-7795500D01*
X8720605Y-7795500D01*
X8888020Y-7726154D01*
X9016154Y-7598020D01*
X9085500Y-7430605D01*
X9085500Y-7249395D01*
X9016154Y-7081980D01*
X8990295Y-7056121D01*
X9055187Y-6899458D01*
X9055187Y-6718248D01*
X8985841Y-6550833D01*
X8857707Y-6422699D01*
X8690292Y-6353353D01*
X8509082Y-6353353D01*
X8341667Y-6422699D01*
X8213533Y-6550833D01*
X8144187Y-6718248D01*
X4898486Y-6718248D01*
X4955500Y-6580605D01*
X4955500Y-6399395D01*
X4886154Y-6231980D01*
X4758020Y-6103846D01*
X4590605Y-6034500D01*
X4409395Y-6034500D01*
X4241980Y-6103846D01*
X4113846Y-6231980D01*
X4044500Y-6399395D01*
X3495500Y-6399395D01*
X3495500Y-6369395D01*
X3426154Y-6201980D01*
X3359174Y-6135000D01*
X3386154Y-6108020D01*
X3455500Y-5940605D01*
X3455500Y-5875500D01*
X3510605Y-5875500D01*
X3678020Y-5806154D01*
X3806154Y-5678020D01*
X3825543Y-5631212D01*
X3835895Y-5635500D01*
X4017105Y-5635500D01*
X4184520Y-5566154D01*
X4312654Y-5438020D01*
X4377833Y-5280664D01*
X8623021Y-5280664D01*
X8623021Y-5461874D01*
X8692367Y-5629289D01*
X8820501Y-5757423D01*
X8987916Y-5826769D01*
X9169126Y-5826769D01*
X9336541Y-5757423D01*
X9464675Y-5629289D01*
X9534021Y-5461874D01*
X9534021Y-5298521D01*
X9588020Y-5276154D01*
X9590000Y-5274174D01*
X9611980Y-5296154D01*
X9779395Y-5365500D01*
X9960605Y-5365500D01*
X10128020Y-5296154D01*
X10149863Y-5274312D01*
X10154968Y-5279417D01*
X10322383Y-5348763D01*
X10503593Y-5348763D01*
X10671008Y-5279417D01*
X10799142Y-5151283D01*
X10868488Y-4983868D01*
X10868488Y-4802658D01*
X10857584Y-4776334D01*
X10858020Y-4776154D01*
X10986154Y-4648020D01*
X11011129Y-4587724D01*
X11119156Y-4695751D01*
X11286571Y-4765097D01*
X11467781Y-4765097D01*
X11480460Y-4759845D01*
X11483846Y-4768020D01*
X11611980Y-4896154D01*
X11779395Y-4965500D01*
X11960605Y-4965500D01*
X12128020Y-4896154D01*
X12140990Y-4883184D01*
X12140990Y-4910605D01*
X12210336Y-5078020D01*
X12338470Y-5206154D01*
X12505885Y-5275500D01*
X12687095Y-5275500D01*
X12854510Y-5206154D01*
X12982644Y-5078020D01*
X13051990Y-4910605D01*
X13051990Y-4729395D01*
X12982644Y-4561980D01*
X12854510Y-4433846D01*
X12687095Y-4364500D01*
X12505885Y-4364500D01*
X12338470Y-4433846D01*
X12325500Y-4446816D01*
X12325500Y-4419395D01*
X12256154Y-4251980D01*
X12128020Y-4123846D01*
X11960605Y-4054500D01*
X11779395Y-4054500D01*
X11766716Y-4059752D01*
X11763330Y-4051577D01*
X11721148Y-4009395D01*
X12884500Y-4009395D01*
X12884500Y-4190605D01*
X12953846Y-4358020D01*
X13081980Y-4486154D01*
X13224500Y-4545188D01*
X13224500Y-4700605D01*
X13271239Y-4813442D01*
X13221980Y-4833846D01*
X13093846Y-4961980D01*
X13024500Y-5129395D01*
X13024500Y-5310605D01*
X13093846Y-5478020D01*
X13221980Y-5606154D01*
X13389395Y-5675500D01*
X13570605Y-5675500D01*
X13738020Y-5606154D01*
X13866154Y-5478020D01*
X13935500Y-5310605D01*
X13935500Y-5129395D01*
X13888761Y-5016558D01*
X13938020Y-4996154D01*
X14008051Y-4926123D01*
X14074180Y-5085771D01*
X14202314Y-5213905D01*
X14369729Y-5283251D01*
X14457130Y-5283251D01*
X14510326Y-5411677D01*
X14638460Y-5539811D01*
X14805875Y-5609157D01*
X14987085Y-5609157D01*
X15154500Y-5539811D01*
X15282634Y-5411677D01*
X15351980Y-5244262D01*
X15351980Y-5063052D01*
X15315715Y-4975500D01*
X15454104Y-4975500D01*
X15394500Y-5119395D01*
X15394500Y-5300605D01*
X15463846Y-5468020D01*
X15591980Y-5596154D01*
X15759395Y-5665500D01*
X15940605Y-5665500D01*
X16108020Y-5596154D01*
X16236154Y-5468020D01*
X16241634Y-5454788D01*
X19089893Y-5454788D01*
X19089893Y-5635998D01*
X19159239Y-5803413D01*
X19287373Y-5931547D01*
X19454788Y-6000893D01*
X19519107Y-6000893D01*
X19519107Y-6065212D01*
X19588453Y-6232627D01*
X19716587Y-6360761D01*
X19884002Y-6430107D01*
X20065212Y-6430107D01*
X20232627Y-6360761D01*
X20360761Y-6232627D01*
X20430107Y-6065212D01*
X20430107Y-5884002D01*
X20360761Y-5716587D01*
X20232627Y-5588453D01*
X20065212Y-5519107D01*
X20000893Y-5519107D01*
X20000893Y-5454788D01*
X19931547Y-5287373D01*
X19867226Y-5223052D01*
X19908020Y-5206154D01*
X20036154Y-5078020D01*
X20102844Y-4917018D01*
X20141980Y-4956154D01*
X20309395Y-5025500D01*
X20490605Y-5025500D01*
X20658020Y-4956154D01*
X20786154Y-4828020D01*
X20855500Y-4660605D01*
X20855500Y-4599395D01*
X22104500Y-4599395D01*
X22104500Y-4780605D01*
X22173846Y-4948020D01*
X22301980Y-5076154D01*
X22469395Y-5145500D01*
X22650605Y-5145500D01*
X22818020Y-5076154D01*
X22946154Y-4948020D01*
X23015500Y-4780605D01*
X23015500Y-4599395D01*
X22946154Y-4431980D01*
X22818020Y-4303846D01*
X22650605Y-4234500D01*
X22469395Y-4234500D01*
X22301980Y-4303846D01*
X22173846Y-4431980D01*
X22104500Y-4599395D01*
X20855500Y-4599395D01*
X20855500Y-4479395D01*
X20786154Y-4311980D01*
X20658020Y-4183846D01*
X20490605Y-4114500D01*
X20309395Y-4114500D01*
X20283733Y-4125130D01*
X20228603Y-3992035D01*
X20309395Y-4025500D01*
X20490605Y-4025500D01*
X20658020Y-3956154D01*
X20786154Y-3828020D01*
X20855500Y-3660605D01*
X20855500Y-3599395D01*
X22254500Y-3599395D01*
X22254500Y-3780605D01*
X22323846Y-3948020D01*
X22451980Y-4076154D01*
X22619395Y-4145500D01*
X22800605Y-4145500D01*
X22968020Y-4076154D01*
X23096154Y-3948020D01*
X23165500Y-3780605D01*
X23165500Y-3599395D01*
X23096154Y-3431980D01*
X22968020Y-3303846D01*
X22800605Y-3234500D01*
X22619395Y-3234500D01*
X22451980Y-3303846D01*
X22323846Y-3431980D01*
X22254500Y-3599395D01*
X20855500Y-3599395D01*
X20855500Y-3479395D01*
X20786154Y-3311980D01*
X20658020Y-3183846D01*
X20490605Y-3114500D01*
X20309395Y-3114500D01*
X20141980Y-3183846D01*
X20013846Y-3311980D01*
X19944500Y-3479395D01*
X19944500Y-3660605D01*
X20001397Y-3797965D01*
X19920605Y-3764500D01*
X19739395Y-3764500D01*
X19571980Y-3833846D01*
X19443846Y-3961980D01*
X19374500Y-4129395D01*
X19374500Y-4310605D01*
X19420632Y-4421978D01*
X19391980Y-4433846D01*
X19263846Y-4561980D01*
X19194500Y-4729395D01*
X19194500Y-4910605D01*
X19263846Y-5078020D01*
X19328167Y-5142341D01*
X19287373Y-5159239D01*
X19159239Y-5287373D01*
X19089893Y-5454788D01*
X16241634Y-5454788D01*
X16305500Y-5300605D01*
X16305500Y-5119395D01*
X16236154Y-4951980D01*
X16108020Y-4823846D01*
X15940605Y-4754500D01*
X15795896Y-4754500D01*
X15798010Y-4749395D01*
X17154500Y-4749395D01*
X17154500Y-4930605D01*
X17223846Y-5098020D01*
X17351980Y-5226154D01*
X17519395Y-5295500D01*
X17700605Y-5295500D01*
X17868020Y-5226154D01*
X17996154Y-5098020D01*
X18065500Y-4930605D01*
X18065500Y-4749395D01*
X17996154Y-4581980D01*
X17868020Y-4453846D01*
X17700605Y-4384500D01*
X17519395Y-4384500D01*
X17351980Y-4453846D01*
X17223846Y-4581980D01*
X17154500Y-4749395D01*
X15798010Y-4749395D01*
X15855500Y-4610605D01*
X15855500Y-4429395D01*
X15786154Y-4261980D01*
X15658020Y-4133846D01*
X15490605Y-4064500D01*
X15475500Y-4064500D01*
X15475500Y-3999395D01*
X15406154Y-3831980D01*
X15278020Y-3703846D01*
X15110605Y-3634500D01*
X14929395Y-3634500D01*
X14761980Y-3703846D01*
X14633846Y-3831980D01*
X14616948Y-3872774D01*
X14568020Y-3823846D01*
X14400605Y-3754500D01*
X14219395Y-3754500D01*
X14051980Y-3823846D01*
X13923846Y-3951980D01*
X13854500Y-4119395D01*
X13854500Y-4189251D01*
X13795500Y-4164812D01*
X13795500Y-4009395D01*
X13726154Y-3841980D01*
X13598020Y-3713846D01*
X13430605Y-3644500D01*
X13249395Y-3644500D01*
X13081980Y-3713846D01*
X12953846Y-3841980D01*
X12884500Y-4009395D01*
X11721148Y-4009395D01*
X11635196Y-3923443D01*
X11467781Y-3854097D01*
X11286571Y-3854097D01*
X11119156Y-3923443D01*
X10991022Y-4051577D01*
X10966047Y-4111873D01*
X10858020Y-4003846D01*
X10690605Y-3934500D01*
X10509395Y-3934500D01*
X10341980Y-4003846D01*
X10213846Y-4131980D01*
X10144500Y-4299395D01*
X10144500Y-4480605D01*
X10155404Y-4506929D01*
X10154968Y-4507109D01*
X10133126Y-4528952D01*
X10128020Y-4523846D01*
X9960605Y-4454500D01*
X9779395Y-4454500D01*
X9611980Y-4523846D01*
X9610000Y-4525826D01*
X9588020Y-4503846D01*
X9420605Y-4434500D01*
X9239395Y-4434500D01*
X9071980Y-4503846D01*
X8943846Y-4631980D01*
X8874500Y-4799395D01*
X8874500Y-4962748D01*
X8820501Y-4985115D01*
X8692367Y-5113249D01*
X8623021Y-5280664D01*
X4377833Y-5280664D01*
X4382000Y-5270605D01*
X4382000Y-5089395D01*
X4312654Y-4921980D01*
X4184520Y-4793846D01*
X4017105Y-4724500D01*
X3835895Y-4724500D01*
X3668480Y-4793846D01*
X3540346Y-4921980D01*
X3520957Y-4968788D01*
X3510605Y-4964500D01*
X3329395Y-4964500D01*
X3161980Y-5033846D01*
X3033846Y-5161980D01*
X2964500Y-5329395D01*
X2964500Y-5394500D01*
X2909395Y-5394500D01*
X2741980Y-5463846D01*
X2613846Y-5591980D01*
X2544500Y-5759395D01*
X2544500Y-5940605D01*
X2613846Y-6108020D01*
X2680826Y-6175000D01*
X2653846Y-6201980D01*
X2607238Y-6314500D01*
X2492895Y-6314500D01*
X2325480Y-6383846D01*
X2244021Y-6465305D01*
X2242644Y-6461980D01*
X2233069Y-6452405D01*
X2242644Y-6442830D01*
X2311990Y-6275415D01*
X2311990Y-6094205D01*
X2242644Y-5926790D01*
X2201471Y-5885617D01*
X2270489Y-5718995D01*
X2270489Y-5537785D01*
X2201143Y-5370370D01*
X2073009Y-5242236D01*
X1905594Y-5172890D01*
X1724384Y-5172890D01*
X1556969Y-5242236D01*
X1428835Y-5370370D01*
X1359489Y-5537785D01*
X302000Y-5537785D01*
X302000Y-3799395D01*
X3624500Y-3799395D01*
X3624500Y-3980605D01*
X3693846Y-4148020D01*
X3821980Y-4276154D01*
X3989395Y-4345500D01*
X4170605Y-4345500D01*
X4338020Y-4276154D01*
X4395000Y-4219174D01*
X4451980Y-4276154D01*
X4619395Y-4345500D01*
X4800605Y-4345500D01*
X4968020Y-4276154D01*
X5096154Y-4148020D01*
X5165500Y-3980605D01*
X5165500Y-3799395D01*
X5096154Y-3631980D01*
X4968020Y-3503846D01*
X4800605Y-3434500D01*
X4619395Y-3434500D01*
X4451980Y-3503846D01*
X4395000Y-3560826D01*
X4338020Y-3503846D01*
X4170605Y-3434500D01*
X3989395Y-3434500D01*
X3821980Y-3503846D01*
X3693846Y-3631980D01*
X3624500Y-3799395D01*
X302000Y-3799395D01*
X302000Y-2409395D01*
X424500Y-2409395D01*
X424500Y-2590605D01*
X493846Y-2758020D01*
X621980Y-2886154D01*
X789395Y-2955500D01*
X970605Y-2955500D01*
X1138020Y-2886154D01*
X1194779Y-2829395D01*
X1544500Y-2829395D01*
X1544500Y-3010605D01*
X1613846Y-3178020D01*
X1741980Y-3306154D01*
X1909395Y-3375500D01*
X2090605Y-3375500D01*
X2258020Y-3306154D01*
X2386154Y-3178020D01*
X2455500Y-3010605D01*
X2455500Y-2929395D01*
X3044500Y-2929395D01*
X3044500Y-3110605D01*
X3113846Y-3278020D01*
X3241980Y-3406154D01*
X3409395Y-3475500D01*
X3590605Y-3475500D01*
X3758020Y-3406154D01*
X3886154Y-3278020D01*
X3955500Y-3110605D01*
X3955500Y-2983244D01*
X4109395Y-3046990D01*
X4290605Y-3046990D01*
X4458020Y-2977644D01*
X4586154Y-2849510D01*
X4655500Y-2682095D01*
X4655500Y-2500885D01*
X4653434Y-2495895D01*
X7564500Y-2495895D01*
X7564500Y-2677105D01*
X7633846Y-2844520D01*
X7761980Y-2972654D01*
X7929395Y-3042000D01*
X8110605Y-3042000D01*
X8168750Y-3017915D01*
X15306745Y-3017915D01*
X15306745Y-3199125D01*
X15376091Y-3366540D01*
X15504225Y-3494674D01*
X15671640Y-3564020D01*
X15852850Y-3564020D01*
X16002462Y-3502048D01*
X16445953Y-3502048D01*
X16445953Y-3683258D01*
X16515299Y-3850673D01*
X16643433Y-3978807D01*
X16810848Y-4048153D01*
X16992058Y-4048153D01*
X17159473Y-3978807D01*
X17287607Y-3850673D01*
X17356953Y-3683258D01*
X17356953Y-3502048D01*
X17287607Y-3334633D01*
X17159473Y-3206499D01*
X16992058Y-3137153D01*
X16810848Y-3137153D01*
X16643433Y-3206499D01*
X16515299Y-3334633D01*
X16445953Y-3502048D01*
X16002462Y-3502048D01*
X16020265Y-3494674D01*
X16148399Y-3366540D01*
X16217745Y-3199125D01*
X16217745Y-3017915D01*
X16148399Y-2850500D01*
X16129773Y-2831874D01*
X17769500Y-2831874D01*
X17769500Y-3013084D01*
X17838846Y-3180499D01*
X17966980Y-3308633D01*
X18134395Y-3377979D01*
X18315605Y-3377979D01*
X18483020Y-3308633D01*
X18611154Y-3180499D01*
X18680500Y-3013084D01*
X18680500Y-2854358D01*
X20769537Y-2854358D01*
X20769537Y-3035568D01*
X20838883Y-3202983D01*
X20967017Y-3331117D01*
X21134432Y-3400463D01*
X21315642Y-3400463D01*
X21483057Y-3331117D01*
X21611191Y-3202983D01*
X21680537Y-3035568D01*
X21680537Y-2854358D01*
X21611191Y-2686943D01*
X21483057Y-2558809D01*
X21315642Y-2489463D01*
X21134432Y-2489463D01*
X20967017Y-2558809D01*
X20838883Y-2686943D01*
X20769537Y-2854358D01*
X18680500Y-2854358D01*
X18680500Y-2831874D01*
X18611154Y-2664459D01*
X18483020Y-2536325D01*
X18315605Y-2466979D01*
X18134395Y-2466979D01*
X17966980Y-2536325D01*
X17838846Y-2664459D01*
X17769500Y-2831874D01*
X16129773Y-2831874D01*
X16020265Y-2722366D01*
X15852850Y-2653020D01*
X15671640Y-2653020D01*
X15504225Y-2722366D01*
X15376091Y-2850500D01*
X15306745Y-3017915D01*
X8168750Y-3017915D01*
X8278020Y-2972654D01*
X8406154Y-2844520D01*
X8475500Y-2677105D01*
X8475500Y-2495895D01*
X8406154Y-2328480D01*
X8307069Y-2229395D01*
X8664500Y-2229395D01*
X8664500Y-2410605D01*
X8733846Y-2578020D01*
X8861980Y-2706154D01*
X9029395Y-2775500D01*
X9210605Y-2775500D01*
X9378020Y-2706154D01*
X9506154Y-2578020D01*
X9575500Y-2410605D01*
X9575500Y-2229395D01*
X9506154Y-2061980D01*
X9378020Y-1933846D01*
X9210605Y-1864500D01*
X9029395Y-1864500D01*
X8861980Y-1933846D01*
X8733846Y-2061980D01*
X8664500Y-2229395D01*
X8307069Y-2229395D01*
X8278020Y-2200346D01*
X8110605Y-2131000D01*
X7929395Y-2131000D01*
X7761980Y-2200346D01*
X7633846Y-2328480D01*
X7564500Y-2495895D01*
X4653434Y-2495895D01*
X4586154Y-2333470D01*
X4458020Y-2205336D01*
X4305500Y-2142160D01*
X4305500Y-2029395D01*
X4236154Y-1861980D01*
X4233569Y-1859395D01*
X12004500Y-1859395D01*
X12004500Y-2040605D01*
X12073846Y-2208020D01*
X12201980Y-2336154D01*
X12369395Y-2405500D01*
X12550605Y-2405500D01*
X12718020Y-2336154D01*
X12846154Y-2208020D01*
X12903574Y-2069395D01*
X15474500Y-2069395D01*
X15474500Y-2250605D01*
X15543846Y-2418020D01*
X15671980Y-2546154D01*
X15839395Y-2615500D01*
X16020605Y-2615500D01*
X16188020Y-2546154D01*
X16316154Y-2418020D01*
X16344579Y-2349395D01*
X21764500Y-2349395D01*
X21764500Y-2530605D01*
X21833846Y-2698020D01*
X21961980Y-2826154D01*
X22129395Y-2895500D01*
X22310605Y-2895500D01*
X22478020Y-2826154D01*
X22606154Y-2698020D01*
X22675500Y-2530605D01*
X22675500Y-2349395D01*
X22606154Y-2181980D01*
X22478020Y-2053846D01*
X22310605Y-1984500D01*
X22129395Y-1984500D01*
X21961980Y-2053846D01*
X21833846Y-2181980D01*
X21764500Y-2349395D01*
X16344579Y-2349395D01*
X16385500Y-2250605D01*
X16385500Y-2069395D01*
X16316154Y-1901980D01*
X16188020Y-1773846D01*
X16020605Y-1704500D01*
X15839395Y-1704500D01*
X15671980Y-1773846D01*
X15543846Y-1901980D01*
X15474500Y-2069395D01*
X12903574Y-2069395D01*
X12915500Y-2040605D01*
X12915500Y-1859395D01*
X12846154Y-1691980D01*
X12718020Y-1563846D01*
X12550605Y-1494500D01*
X12369395Y-1494500D01*
X12201980Y-1563846D01*
X12073846Y-1691980D01*
X12004500Y-1859395D01*
X4233569Y-1859395D01*
X4108020Y-1733846D01*
X3940605Y-1664500D01*
X3759395Y-1664500D01*
X3591980Y-1733846D01*
X3463846Y-1861980D01*
X3394500Y-2029395D01*
X3394500Y-2210605D01*
X3463846Y-2378020D01*
X3591980Y-2506154D01*
X3744500Y-2569330D01*
X3744500Y-2628246D01*
X3590605Y-2564500D01*
X3409395Y-2564500D01*
X3241980Y-2633846D01*
X3113846Y-2761980D01*
X3044500Y-2929395D01*
X2455500Y-2929395D01*
X2455500Y-2829395D01*
X2386154Y-2661980D01*
X2258020Y-2533846D01*
X2090605Y-2464500D01*
X1909395Y-2464500D01*
X1741980Y-2533846D01*
X1613846Y-2661980D01*
X1544500Y-2829395D01*
X1194779Y-2829395D01*
X1266154Y-2758020D01*
X1335500Y-2590605D01*
X1335500Y-2409395D01*
X1266154Y-2241980D01*
X1138020Y-2113846D01*
X970605Y-2044500D01*
X789395Y-2044500D01*
X621980Y-2113846D01*
X493846Y-2241980D01*
X424500Y-2409395D01*
X302000Y-2409395D01*
X302000Y-1079395D01*
X6124500Y-1079395D01*
X6124500Y-1260605D01*
X6193846Y-1428020D01*
X6321980Y-1556154D01*
X6489395Y-1625500D01*
X6670605Y-1625500D01*
X6838020Y-1556154D01*
X6966154Y-1428020D01*
X7035500Y-1260605D01*
X7035500Y-1079395D01*
X7006505Y-1009395D01*
X10004500Y-1009395D01*
X10004500Y-1190605D01*
X10073846Y-1358020D01*
X10201980Y-1486154D01*
X10369395Y-1555500D01*
X10550605Y-1555500D01*
X10718020Y-1486154D01*
X10764500Y-1439674D01*
X10764500Y-1450605D01*
X10833846Y-1618020D01*
X10961980Y-1746154D01*
X11129395Y-1815500D01*
X11310605Y-1815500D01*
X11478020Y-1746154D01*
X11606154Y-1618020D01*
X11675500Y-1450605D01*
X11675500Y-1269395D01*
X11606154Y-1101980D01*
X11478020Y-973846D01*
X11310605Y-904500D01*
X11129395Y-904500D01*
X10961980Y-973846D01*
X10915500Y-1020326D01*
X10915500Y-1009395D01*
X10846154Y-841980D01*
X10718020Y-713846D01*
X10550605Y-644500D01*
X10369395Y-644500D01*
X10201980Y-713846D01*
X10073846Y-841980D01*
X10004500Y-1009395D01*
X7006505Y-1009395D01*
X6966154Y-911980D01*
X6838020Y-783846D01*
X6670605Y-714500D01*
X6489395Y-714500D01*
X6321980Y-783846D01*
X6193846Y-911980D01*
X6124500Y-1079395D01*
X302000Y-1079395D01*
X302000Y-302000D01*
X18963826Y-302000D01*
X18903846Y-361980D01*
G36*
X12256216Y-10955358D02*
X12061574Y-11150000D01*
X12084732Y-11173158D01*
X11923158Y-11334732D01*
X11900000Y-11311574D01*
X11876842Y-11334732D01*
X11815857Y-11273747D01*
X11825524Y-11242699D01*
X11806642Y-11035468D01*
X11876842Y-10965268D01*
X11900000Y-10988426D01*
X12033513Y-10854913D01*
X12149406Y-10844353D01*
X12311709Y-10777125D01*
X12256216Y-10955358D01*
X12256216Y-10955358D01*
G37*
X12256216Y-10955358D02*
X12061574Y-11150000D01*
X12084732Y-11173158D01*
X11923158Y-11334732D01*
X11900000Y-11311574D01*
X11876842Y-11334732D01*
X11815857Y-11273747D01*
X11825524Y-11242699D01*
X11806642Y-11035468D01*
X11876842Y-10965268D01*
X11900000Y-10988426D01*
X12033513Y-10854913D01*
X12149406Y-10844353D01*
X12311709Y-10777125D01*
X12256216Y-10955358D01*
G36*
X12977964Y-10866390D02*
X13100000Y-10988426D01*
X13123158Y-10965268D01*
X13184143Y-11026253D01*
X13174476Y-11057301D01*
X13193358Y-11264532D01*
X13123158Y-11334732D01*
X13100000Y-11311574D01*
X13076842Y-11334732D01*
X12915268Y-11173158D01*
X12938426Y-11150000D01*
X12749900Y-10961474D01*
X12744353Y-10900594D01*
X12693499Y-10777822D01*
X12977964Y-10866390D01*
X12977964Y-10866390D01*
G37*
X12977964Y-10866390D02*
X13100000Y-10988426D01*
X13123158Y-10965268D01*
X13184143Y-11026253D01*
X13174476Y-11057301D01*
X13193358Y-11264532D01*
X13123158Y-11334732D01*
X13100000Y-11311574D01*
X13076842Y-11334732D01*
X12915268Y-11173158D01*
X12938426Y-11150000D01*
X12749900Y-10961474D01*
X12744353Y-10900594D01*
X12693499Y-10777822D01*
X12977964Y-10866390D01*
G36*
X12977964Y-9716390D02*
X13100000Y-9838426D01*
X13123158Y-9815268D01*
X13184143Y-9876253D01*
X13174476Y-9907301D01*
X13193358Y-10114532D01*
X13123158Y-10184732D01*
X13100000Y-10161574D01*
X12966487Y-10295087D01*
X12850594Y-10305647D01*
X12688291Y-10372875D01*
X12743784Y-10194642D01*
X12938426Y-10000000D01*
X12749900Y-9811474D01*
X12744353Y-9750594D01*
X12693499Y-9627822D01*
X12977964Y-9716390D01*
X12977964Y-9716390D01*
G37*
X12977964Y-9716390D02*
X13100000Y-9838426D01*
X13123158Y-9815268D01*
X13184143Y-9876253D01*
X13174476Y-9907301D01*
X13193358Y-10114532D01*
X13123158Y-10184732D01*
X13100000Y-10161574D01*
X12966487Y-10295087D01*
X12850594Y-10305647D01*
X12688291Y-10372875D01*
X12743784Y-10194642D01*
X12938426Y-10000000D01*
X12749900Y-9811474D01*
X12744353Y-9750594D01*
X12693499Y-9627822D01*
X12977964Y-9716390D01*
G36*
X13184143Y-8726253D02*
X13174476Y-8757301D01*
X13193358Y-8964532D01*
X13123158Y-9034732D01*
X13100000Y-9011574D01*
X12966487Y-9145087D01*
X12850594Y-9155647D01*
X12679309Y-9226596D01*
X12676927Y-9415353D01*
X12686574Y-9425000D01*
X12676927Y-9434647D01*
X12678921Y-9592627D01*
X12673404Y-9579309D01*
X12515745Y-9577319D01*
X12515353Y-9576927D01*
X12500000Y-9577121D01*
X12484647Y-9576927D01*
X12484255Y-9577319D01*
X12326596Y-9579309D01*
X12256216Y-9805358D01*
X12061574Y-10000000D01*
X12250100Y-10188526D01*
X12255647Y-10249406D01*
X12306501Y-10372178D01*
X12022036Y-10283610D01*
X11900000Y-10161574D01*
X11876842Y-10184732D01*
X11815857Y-10123747D01*
X11825524Y-10092699D01*
X11806642Y-9885468D01*
X11876842Y-9815268D01*
X11900000Y-9838426D01*
X12038526Y-9699900D01*
X12099406Y-9694353D01*
X12270691Y-9623404D01*
X12272681Y-9465745D01*
X12323073Y-9415353D01*
X12321079Y-9257373D01*
X12326596Y-9270691D01*
X12433616Y-9272042D01*
X12434647Y-9273073D01*
X12475000Y-9272564D01*
X12515353Y-9273073D01*
X12516384Y-9272042D01*
X12623404Y-9270691D01*
X12671178Y-9117248D01*
X12938426Y-8850000D01*
X12915268Y-8826842D01*
X13076842Y-8665268D01*
X13100000Y-8688426D01*
X13123158Y-8665268D01*
X13184143Y-8726253D01*
X13184143Y-8726253D01*
G37*
X13184143Y-8726253D02*
X13174476Y-8757301D01*
X13193358Y-8964532D01*
X13123158Y-9034732D01*
X13100000Y-9011574D01*
X12966487Y-9145087D01*
X12850594Y-9155647D01*
X12679309Y-9226596D01*
X12676927Y-9415353D01*
X12686574Y-9425000D01*
X12676927Y-9434647D01*
X12678921Y-9592627D01*
X12673404Y-9579309D01*
X12515745Y-9577319D01*
X12515353Y-9576927D01*
X12500000Y-9577121D01*
X12484647Y-9576927D01*
X12484255Y-9577319D01*
X12326596Y-9579309D01*
X12256216Y-9805358D01*
X12061574Y-10000000D01*
X12250100Y-10188526D01*
X12255647Y-10249406D01*
X12306501Y-10372178D01*
X12022036Y-10283610D01*
X11900000Y-10161574D01*
X11876842Y-10184732D01*
X11815857Y-10123747D01*
X11825524Y-10092699D01*
X11806642Y-9885468D01*
X11876842Y-9815268D01*
X11900000Y-9838426D01*
X12038526Y-9699900D01*
X12099406Y-9694353D01*
X12270691Y-9623404D01*
X12272681Y-9465745D01*
X12323073Y-9415353D01*
X12321079Y-9257373D01*
X12326596Y-9270691D01*
X12433616Y-9272042D01*
X12434647Y-9273073D01*
X12475000Y-9272564D01*
X12515353Y-9273073D01*
X12516384Y-9272042D01*
X12623404Y-9270691D01*
X12671178Y-9117248D01*
X12938426Y-8850000D01*
X12915268Y-8826842D01*
X13076842Y-8665268D01*
X13100000Y-8688426D01*
X13123158Y-8665268D01*
X13184143Y-8726253D01*
G36*
X12034732Y-8826842D02*
X12011574Y-8850000D01*
X12255112Y-9093538D01*
X12255647Y-9099406D01*
X12306501Y-9222178D01*
X11992699Y-9124476D01*
X11965390Y-9126964D01*
X11850000Y-9011574D01*
X11826842Y-9034732D01*
X11803986Y-9011876D01*
X11825524Y-8942699D01*
X11802467Y-8689643D01*
X11826842Y-8665268D01*
X11850000Y-8688426D01*
X11873158Y-8665268D01*
X12034732Y-8826842D01*
X12034732Y-8826842D01*
G37*
X12034732Y-8826842D02*
X12011574Y-8850000D01*
X12255112Y-9093538D01*
X12255647Y-9099406D01*
X12306501Y-9222178D01*
X11992699Y-9124476D01*
X11965390Y-9126964D01*
X11850000Y-9011574D01*
X11826842Y-9034732D01*
X11803986Y-9011876D01*
X11825524Y-8942699D01*
X11802467Y-8689643D01*
X11826842Y-8665268D01*
X11850000Y-8688426D01*
X11873158Y-8665268D01*
X12034732Y-8826842D01*
G04 #@! TD*
M02*
