G04 #@! TF.GenerationSoftware,KiCad,Pcbnew,5.0.2+dfsg1-1~bpo9+1*
G04 #@! TF.CreationDate,2019-10-10T14:21:37+02:00*
G04 #@! TF.ProjectId,zglue-dragon-adapter,7a676c75-652d-4647-9261-676f6e2d6164,rev?*
G04 #@! TF.SameCoordinates,Original*
G04 #@! TF.FileFunction,Soldermask,Top*
G04 #@! TF.FilePolarity,Negative*
%FSLAX46Y46*%
G04 Gerber Fmt 4.6, Leading zero omitted, Abs format (unit mm)*
G04 Created by KiCad (PCBNEW 5.0.2+dfsg1-1~bpo9+1) date Thu 10 Oct 2019 02:21:37 PM CEST*
%MOMM*%
%LPD*%
G01*
G04 APERTURE LIST*
%ADD10C,0.100000*%
G04 APERTURE END LIST*
D10*
G36*
X22840719Y-18289374D02*
X22840722Y-18289375D01*
X22840721Y-18289375D01*
X22940996Y-18330910D01*
X23031242Y-18391210D01*
X23107990Y-18467958D01*
X23168290Y-18558204D01*
X23168290Y-18558205D01*
X23209826Y-18658481D01*
X23231000Y-18764930D01*
X23231000Y-18873470D01*
X23209826Y-18979919D01*
X23209825Y-18979921D01*
X23168290Y-19080196D01*
X23107990Y-19170442D01*
X23031242Y-19247190D01*
X22940996Y-19307490D01*
X22870090Y-19336860D01*
X22840719Y-19349026D01*
X22734270Y-19370200D01*
X22625730Y-19370200D01*
X22519281Y-19349026D01*
X22489910Y-19336860D01*
X22419004Y-19307490D01*
X22328758Y-19247190D01*
X22252010Y-19170442D01*
X22191710Y-19080196D01*
X22150175Y-18979921D01*
X22150174Y-18979919D01*
X22129000Y-18873470D01*
X22129000Y-18764930D01*
X22150174Y-18658481D01*
X22191710Y-18558205D01*
X22191710Y-18558204D01*
X22252010Y-18467958D01*
X22328758Y-18391210D01*
X22419004Y-18330910D01*
X22519279Y-18289375D01*
X22519278Y-18289375D01*
X22519281Y-18289374D01*
X22625730Y-18268200D01*
X22734270Y-18268200D01*
X22840719Y-18289374D01*
X22840719Y-18289374D01*
G37*
G36*
X19770719Y-18289374D02*
X19770722Y-18289375D01*
X19770721Y-18289375D01*
X19870996Y-18330910D01*
X19961242Y-18391210D01*
X20037990Y-18467958D01*
X20098290Y-18558204D01*
X20098290Y-18558205D01*
X20139826Y-18658481D01*
X20161000Y-18764930D01*
X20161000Y-18873470D01*
X20139826Y-18979919D01*
X20139825Y-18979921D01*
X20098290Y-19080196D01*
X20037990Y-19170442D01*
X19961242Y-19247190D01*
X19870996Y-19307490D01*
X19800090Y-19336860D01*
X19770719Y-19349026D01*
X19664270Y-19370200D01*
X19555730Y-19370200D01*
X19449281Y-19349026D01*
X19419910Y-19336860D01*
X19349004Y-19307490D01*
X19258758Y-19247190D01*
X19182010Y-19170442D01*
X19121710Y-19080196D01*
X19080175Y-18979921D01*
X19080174Y-18979919D01*
X19059000Y-18873470D01*
X19059000Y-18764930D01*
X19080174Y-18658481D01*
X19121710Y-18558205D01*
X19121710Y-18558204D01*
X19182010Y-18467958D01*
X19258758Y-18391210D01*
X19349004Y-18330910D01*
X19449279Y-18289375D01*
X19449278Y-18289375D01*
X19449281Y-18289374D01*
X19555730Y-18268200D01*
X19664270Y-18268200D01*
X19770719Y-18289374D01*
X19770719Y-18289374D01*
G37*
G36*
X21290719Y-18289374D02*
X21290722Y-18289375D01*
X21290721Y-18289375D01*
X21390996Y-18330910D01*
X21481242Y-18391210D01*
X21557990Y-18467958D01*
X21618290Y-18558204D01*
X21618290Y-18558205D01*
X21659826Y-18658481D01*
X21681000Y-18764930D01*
X21681000Y-18873470D01*
X21659826Y-18979919D01*
X21659825Y-18979921D01*
X21618290Y-19080196D01*
X21557990Y-19170442D01*
X21481242Y-19247190D01*
X21390996Y-19307490D01*
X21320090Y-19336860D01*
X21290719Y-19349026D01*
X21184270Y-19370200D01*
X21075730Y-19370200D01*
X20969281Y-19349026D01*
X20939910Y-19336860D01*
X20869004Y-19307490D01*
X20778758Y-19247190D01*
X20702010Y-19170442D01*
X20641710Y-19080196D01*
X20600175Y-18979921D01*
X20600174Y-18979919D01*
X20579000Y-18873470D01*
X20579000Y-18764930D01*
X20600174Y-18658481D01*
X20641710Y-18558205D01*
X20641710Y-18558204D01*
X20702010Y-18467958D01*
X20778758Y-18391210D01*
X20869004Y-18330910D01*
X20969279Y-18289375D01*
X20969278Y-18289375D01*
X20969281Y-18289374D01*
X21075730Y-18268200D01*
X21184270Y-18268200D01*
X21290719Y-18289374D01*
X21290719Y-18289374D01*
G37*
G36*
X8310719Y-18039374D02*
X8310722Y-18039375D01*
X8310721Y-18039375D01*
X8410996Y-18080910D01*
X8501242Y-18141210D01*
X8577990Y-18217958D01*
X8638290Y-18308204D01*
X8638290Y-18308205D01*
X8679826Y-18408481D01*
X8701000Y-18514930D01*
X8701000Y-18623470D01*
X8679826Y-18729919D01*
X8679825Y-18729921D01*
X8638290Y-18830196D01*
X8577990Y-18920442D01*
X8501242Y-18997190D01*
X8410996Y-19057490D01*
X8340090Y-19086860D01*
X8310719Y-19099026D01*
X8204270Y-19120200D01*
X8095730Y-19120200D01*
X7989281Y-19099026D01*
X7959910Y-19086860D01*
X7889004Y-19057490D01*
X7798758Y-18997190D01*
X7722010Y-18920442D01*
X7661710Y-18830196D01*
X7620175Y-18729921D01*
X7620174Y-18729919D01*
X7599000Y-18623470D01*
X7599000Y-18514930D01*
X7620174Y-18408481D01*
X7661710Y-18308205D01*
X7661710Y-18308204D01*
X7722010Y-18217958D01*
X7798758Y-18141210D01*
X7889004Y-18080910D01*
X7989279Y-18039375D01*
X7989278Y-18039375D01*
X7989281Y-18039374D01*
X8095730Y-18018200D01*
X8204270Y-18018200D01*
X8310719Y-18039374D01*
X8310719Y-18039374D01*
G37*
G36*
X14660719Y-17340174D02*
X14660722Y-17340175D01*
X14660721Y-17340175D01*
X14760996Y-17381710D01*
X14851242Y-17442010D01*
X14927990Y-17518758D01*
X14988290Y-17609004D01*
X14988290Y-17609005D01*
X15029826Y-17709281D01*
X15051000Y-17815730D01*
X15051000Y-17924270D01*
X15029826Y-18030719D01*
X15017660Y-18060090D01*
X14988290Y-18130996D01*
X14927990Y-18221242D01*
X14851242Y-18297990D01*
X14760996Y-18358290D01*
X14690090Y-18387660D01*
X14660719Y-18399826D01*
X14554270Y-18421000D01*
X14445730Y-18421000D01*
X14339281Y-18399826D01*
X14309910Y-18387660D01*
X14239004Y-18358290D01*
X14148758Y-18297990D01*
X14072010Y-18221242D01*
X14011710Y-18130996D01*
X13982340Y-18060090D01*
X13970174Y-18030719D01*
X13949000Y-17924270D01*
X13949000Y-17815730D01*
X13970174Y-17709281D01*
X14011710Y-17609005D01*
X14011710Y-17609004D01*
X14072010Y-17518758D01*
X14148758Y-17442010D01*
X14239004Y-17381710D01*
X14339279Y-17340175D01*
X14339278Y-17340175D01*
X14339281Y-17340174D01*
X14445730Y-17319000D01*
X14554270Y-17319000D01*
X14660719Y-17340174D01*
X14660719Y-17340174D01*
G37*
G36*
X12081825Y-17142081D02*
X12109546Y-17150490D01*
X12135089Y-17164143D01*
X12157481Y-17182519D01*
X12175857Y-17204911D01*
X12189510Y-17230454D01*
X12197919Y-17258175D01*
X12201000Y-17289454D01*
X12201000Y-17680546D01*
X12197919Y-17711825D01*
X12189510Y-17739546D01*
X12175857Y-17765089D01*
X12157481Y-17787481D01*
X12135089Y-17805857D01*
X12109546Y-17819510D01*
X12081825Y-17827919D01*
X12050546Y-17831000D01*
X11609454Y-17831000D01*
X11578175Y-17827919D01*
X11550454Y-17819510D01*
X11524911Y-17805857D01*
X11502519Y-17787481D01*
X11484143Y-17765089D01*
X11470490Y-17739546D01*
X11462081Y-17711825D01*
X11459000Y-17680546D01*
X11459000Y-17289454D01*
X11462081Y-17258175D01*
X11470490Y-17230454D01*
X11484143Y-17204911D01*
X11502519Y-17182519D01*
X11524911Y-17164143D01*
X11550454Y-17150490D01*
X11578175Y-17142081D01*
X11609454Y-17139000D01*
X12050546Y-17139000D01*
X12081825Y-17142081D01*
X12081825Y-17142081D01*
G37*
G36*
X11071825Y-17142081D02*
X11099546Y-17150490D01*
X11125089Y-17164143D01*
X11147481Y-17182519D01*
X11165857Y-17204911D01*
X11179510Y-17230454D01*
X11187919Y-17258175D01*
X11191000Y-17289454D01*
X11191000Y-17680546D01*
X11187919Y-17711825D01*
X11179510Y-17739546D01*
X11165857Y-17765089D01*
X11147481Y-17787481D01*
X11125089Y-17805857D01*
X11099546Y-17819510D01*
X11071825Y-17827919D01*
X11040546Y-17831000D01*
X10599454Y-17831000D01*
X10568175Y-17827919D01*
X10540454Y-17819510D01*
X10514911Y-17805857D01*
X10492519Y-17787481D01*
X10474143Y-17765089D01*
X10460490Y-17739546D01*
X10452081Y-17711825D01*
X10449000Y-17680546D01*
X10449000Y-17289454D01*
X10452081Y-17258175D01*
X10460490Y-17230454D01*
X10474143Y-17204911D01*
X10492519Y-17182519D01*
X10514911Y-17164143D01*
X10540454Y-17150490D01*
X10568175Y-17142081D01*
X10599454Y-17139000D01*
X11040546Y-17139000D01*
X11071825Y-17142081D01*
X11071825Y-17142081D01*
G37*
G36*
X10061825Y-17142081D02*
X10089546Y-17150490D01*
X10115089Y-17164143D01*
X10137481Y-17182519D01*
X10155857Y-17204911D01*
X10169510Y-17230454D01*
X10177919Y-17258175D01*
X10181000Y-17289454D01*
X10181000Y-17680546D01*
X10177919Y-17711825D01*
X10169510Y-17739546D01*
X10155857Y-17765089D01*
X10137481Y-17787481D01*
X10115089Y-17805857D01*
X10089546Y-17819510D01*
X10061825Y-17827919D01*
X10030546Y-17831000D01*
X9589454Y-17831000D01*
X9558175Y-17827919D01*
X9530454Y-17819510D01*
X9504911Y-17805857D01*
X9482519Y-17787481D01*
X9464143Y-17765089D01*
X9450490Y-17739546D01*
X9442081Y-17711825D01*
X9439000Y-17680546D01*
X9439000Y-17289454D01*
X9442081Y-17258175D01*
X9450490Y-17230454D01*
X9464143Y-17204911D01*
X9482519Y-17182519D01*
X9504911Y-17164143D01*
X9530454Y-17150490D01*
X9558175Y-17142081D01*
X9589454Y-17139000D01*
X10030546Y-17139000D01*
X10061825Y-17142081D01*
X10061825Y-17142081D01*
G37*
G36*
X13501825Y-17092081D02*
X13529546Y-17100490D01*
X13555089Y-17114143D01*
X13577481Y-17132519D01*
X13595857Y-17154911D01*
X13609510Y-17180454D01*
X13617919Y-17208175D01*
X13621000Y-17239454D01*
X13621000Y-17630546D01*
X13617919Y-17661825D01*
X13609510Y-17689546D01*
X13595857Y-17715089D01*
X13577481Y-17737481D01*
X13555089Y-17755857D01*
X13529546Y-17769510D01*
X13501825Y-17777919D01*
X13470546Y-17781000D01*
X13029454Y-17781000D01*
X12998175Y-17777919D01*
X12970454Y-17769510D01*
X12944911Y-17755857D01*
X12922519Y-17737481D01*
X12904143Y-17715089D01*
X12890490Y-17689546D01*
X12882081Y-17661825D01*
X12879000Y-17630546D01*
X12879000Y-17239454D01*
X12882081Y-17208175D01*
X12890490Y-17180454D01*
X12904143Y-17154911D01*
X12922519Y-17132519D01*
X12944911Y-17114143D01*
X12970454Y-17100490D01*
X12998175Y-17092081D01*
X13029454Y-17089000D01*
X13470546Y-17089000D01*
X13501825Y-17092081D01*
X13501825Y-17092081D01*
G37*
G36*
X8310719Y-16679374D02*
X8310722Y-16679375D01*
X8310721Y-16679375D01*
X8410996Y-16720910D01*
X8501242Y-16781210D01*
X8577990Y-16857958D01*
X8638290Y-16948204D01*
X8667130Y-17017831D01*
X8679826Y-17048481D01*
X8701000Y-17154930D01*
X8701000Y-17263470D01*
X8679826Y-17369919D01*
X8679825Y-17369921D01*
X8638290Y-17470196D01*
X8577990Y-17560442D01*
X8501242Y-17637190D01*
X8410996Y-17697490D01*
X8376388Y-17711825D01*
X8310719Y-17739026D01*
X8204270Y-17760200D01*
X8095730Y-17760200D01*
X7989281Y-17739026D01*
X7923612Y-17711825D01*
X7889004Y-17697490D01*
X7798758Y-17637190D01*
X7722010Y-17560442D01*
X7661710Y-17470196D01*
X7620175Y-17369921D01*
X7620174Y-17369919D01*
X7599000Y-17263470D01*
X7599000Y-17154930D01*
X7620174Y-17048481D01*
X7632870Y-17017831D01*
X7661710Y-16948204D01*
X7722010Y-16857958D01*
X7798758Y-16781210D01*
X7889004Y-16720910D01*
X7989279Y-16679375D01*
X7989278Y-16679375D01*
X7989281Y-16679374D01*
X8095730Y-16658200D01*
X8204270Y-16658200D01*
X8310719Y-16679374D01*
X8310719Y-16679374D01*
G37*
G36*
X7011825Y-16342081D02*
X7039546Y-16350490D01*
X7065089Y-16364143D01*
X7087481Y-16382519D01*
X7105857Y-16404911D01*
X7119510Y-16430454D01*
X7127919Y-16458175D01*
X7131000Y-16489454D01*
X7131000Y-16880546D01*
X7127919Y-16911825D01*
X7119510Y-16939546D01*
X7105857Y-16965089D01*
X7087481Y-16987481D01*
X7065089Y-17005857D01*
X7039546Y-17019510D01*
X7011825Y-17027919D01*
X6980546Y-17031000D01*
X6539454Y-17031000D01*
X6508175Y-17027919D01*
X6480454Y-17019510D01*
X6454911Y-17005857D01*
X6432519Y-16987481D01*
X6414143Y-16965089D01*
X6400490Y-16939546D01*
X6392081Y-16911825D01*
X6389000Y-16880546D01*
X6389000Y-16489454D01*
X6392081Y-16458175D01*
X6400490Y-16430454D01*
X6414143Y-16404911D01*
X6432519Y-16382519D01*
X6454911Y-16364143D01*
X6480454Y-16350490D01*
X6508175Y-16342081D01*
X6539454Y-16339000D01*
X6980546Y-16339000D01*
X7011825Y-16342081D01*
X7011825Y-16342081D01*
G37*
G36*
X12081825Y-16172081D02*
X12109546Y-16180490D01*
X12135089Y-16194143D01*
X12157481Y-16212519D01*
X12175857Y-16234911D01*
X12189510Y-16260454D01*
X12197919Y-16288175D01*
X12201000Y-16319454D01*
X12201000Y-16710546D01*
X12197919Y-16741825D01*
X12189510Y-16769546D01*
X12175857Y-16795089D01*
X12157481Y-16817481D01*
X12135089Y-16835857D01*
X12109546Y-16849510D01*
X12081825Y-16857919D01*
X12050546Y-16861000D01*
X11609454Y-16861000D01*
X11578175Y-16857919D01*
X11550454Y-16849510D01*
X11524911Y-16835857D01*
X11502519Y-16817481D01*
X11484143Y-16795089D01*
X11470490Y-16769546D01*
X11462081Y-16741825D01*
X11459000Y-16710546D01*
X11459000Y-16319454D01*
X11462081Y-16288175D01*
X11470490Y-16260454D01*
X11484143Y-16234911D01*
X11502519Y-16212519D01*
X11524911Y-16194143D01*
X11550454Y-16180490D01*
X11578175Y-16172081D01*
X11609454Y-16169000D01*
X12050546Y-16169000D01*
X12081825Y-16172081D01*
X12081825Y-16172081D01*
G37*
G36*
X10061825Y-16172081D02*
X10089546Y-16180490D01*
X10115089Y-16194143D01*
X10137481Y-16212519D01*
X10155857Y-16234911D01*
X10169510Y-16260454D01*
X10177919Y-16288175D01*
X10181000Y-16319454D01*
X10181000Y-16710546D01*
X10177919Y-16741825D01*
X10169510Y-16769546D01*
X10155857Y-16795089D01*
X10137481Y-16817481D01*
X10115089Y-16835857D01*
X10089546Y-16849510D01*
X10061825Y-16857919D01*
X10030546Y-16861000D01*
X9589454Y-16861000D01*
X9558175Y-16857919D01*
X9530454Y-16849510D01*
X9504911Y-16835857D01*
X9482519Y-16817481D01*
X9464143Y-16795089D01*
X9450490Y-16769546D01*
X9442081Y-16741825D01*
X9439000Y-16710546D01*
X9439000Y-16319454D01*
X9442081Y-16288175D01*
X9450490Y-16260454D01*
X9464143Y-16234911D01*
X9482519Y-16212519D01*
X9504911Y-16194143D01*
X9530454Y-16180490D01*
X9558175Y-16172081D01*
X9589454Y-16169000D01*
X10030546Y-16169000D01*
X10061825Y-16172081D01*
X10061825Y-16172081D01*
G37*
G36*
X11071825Y-16172081D02*
X11099546Y-16180490D01*
X11125089Y-16194143D01*
X11147481Y-16212519D01*
X11165857Y-16234911D01*
X11179510Y-16260454D01*
X11187919Y-16288175D01*
X11191000Y-16319454D01*
X11191000Y-16710546D01*
X11187919Y-16741825D01*
X11179510Y-16769546D01*
X11165857Y-16795089D01*
X11147481Y-16817481D01*
X11125089Y-16835857D01*
X11099546Y-16849510D01*
X11071825Y-16857919D01*
X11040546Y-16861000D01*
X10599454Y-16861000D01*
X10568175Y-16857919D01*
X10540454Y-16849510D01*
X10514911Y-16835857D01*
X10492519Y-16817481D01*
X10474143Y-16795089D01*
X10460490Y-16769546D01*
X10452081Y-16741825D01*
X10449000Y-16710546D01*
X10449000Y-16319454D01*
X10452081Y-16288175D01*
X10460490Y-16260454D01*
X10474143Y-16234911D01*
X10492519Y-16212519D01*
X10514911Y-16194143D01*
X10540454Y-16180490D01*
X10568175Y-16172081D01*
X10599454Y-16169000D01*
X11040546Y-16169000D01*
X11071825Y-16172081D01*
X11071825Y-16172081D01*
G37*
G36*
X13501825Y-16122081D02*
X13529546Y-16130490D01*
X13555089Y-16144143D01*
X13577481Y-16162519D01*
X13595857Y-16184911D01*
X13609510Y-16210454D01*
X13617919Y-16238175D01*
X13621000Y-16269454D01*
X13621000Y-16660546D01*
X13617919Y-16691825D01*
X13609510Y-16719546D01*
X13595857Y-16745089D01*
X13577481Y-16767481D01*
X13555089Y-16785857D01*
X13529546Y-16799510D01*
X13501825Y-16807919D01*
X13470546Y-16811000D01*
X13029454Y-16811000D01*
X12998175Y-16807919D01*
X12970454Y-16799510D01*
X12944911Y-16785857D01*
X12922519Y-16767481D01*
X12904143Y-16745089D01*
X12890490Y-16719546D01*
X12882081Y-16691825D01*
X12879000Y-16660546D01*
X12879000Y-16269454D01*
X12882081Y-16238175D01*
X12890490Y-16210454D01*
X12904143Y-16184911D01*
X12922519Y-16162519D01*
X12944911Y-16144143D01*
X12970454Y-16130490D01*
X12998175Y-16122081D01*
X13029454Y-16119000D01*
X13470546Y-16119000D01*
X13501825Y-16122081D01*
X13501825Y-16122081D01*
G37*
G36*
X16651825Y-16062081D02*
X16679546Y-16070490D01*
X16705089Y-16084143D01*
X16727481Y-16102519D01*
X16745857Y-16124911D01*
X16759510Y-16150454D01*
X16767919Y-16178175D01*
X16771000Y-16209454D01*
X16771000Y-16600546D01*
X16767919Y-16631825D01*
X16759510Y-16659546D01*
X16745857Y-16685089D01*
X16727481Y-16707481D01*
X16705089Y-16725857D01*
X16679546Y-16739510D01*
X16651825Y-16747919D01*
X16620546Y-16751000D01*
X16179454Y-16751000D01*
X16148175Y-16747919D01*
X16120454Y-16739510D01*
X16094911Y-16725857D01*
X16072519Y-16707481D01*
X16054143Y-16685089D01*
X16040490Y-16659546D01*
X16032081Y-16631825D01*
X16029000Y-16600546D01*
X16029000Y-16209454D01*
X16032081Y-16178175D01*
X16040490Y-16150454D01*
X16054143Y-16124911D01*
X16072519Y-16102519D01*
X16094911Y-16084143D01*
X16120454Y-16070490D01*
X16148175Y-16062081D01*
X16179454Y-16059000D01*
X16620546Y-16059000D01*
X16651825Y-16062081D01*
X16651825Y-16062081D01*
G37*
G36*
X17661825Y-16062081D02*
X17689546Y-16070490D01*
X17715089Y-16084143D01*
X17737481Y-16102519D01*
X17755857Y-16124911D01*
X17769510Y-16150454D01*
X17777919Y-16178175D01*
X17781000Y-16209454D01*
X17781000Y-16600546D01*
X17777919Y-16631825D01*
X17769510Y-16659546D01*
X17755857Y-16685089D01*
X17737481Y-16707481D01*
X17715089Y-16725857D01*
X17689546Y-16739510D01*
X17661825Y-16747919D01*
X17630546Y-16751000D01*
X17189454Y-16751000D01*
X17158175Y-16747919D01*
X17130454Y-16739510D01*
X17104911Y-16725857D01*
X17082519Y-16707481D01*
X17064143Y-16685089D01*
X17050490Y-16659546D01*
X17042081Y-16631825D01*
X17039000Y-16600546D01*
X17039000Y-16209454D01*
X17042081Y-16178175D01*
X17050490Y-16150454D01*
X17064143Y-16124911D01*
X17082519Y-16102519D01*
X17104911Y-16084143D01*
X17130454Y-16070490D01*
X17158175Y-16062081D01*
X17189454Y-16059000D01*
X17630546Y-16059000D01*
X17661825Y-16062081D01*
X17661825Y-16062081D01*
G37*
G36*
X15631825Y-16062081D02*
X15659546Y-16070490D01*
X15685089Y-16084143D01*
X15707481Y-16102519D01*
X15725857Y-16124911D01*
X15739510Y-16150454D01*
X15747919Y-16178175D01*
X15751000Y-16209454D01*
X15751000Y-16600546D01*
X15747919Y-16631825D01*
X15739510Y-16659546D01*
X15725857Y-16685089D01*
X15707481Y-16707481D01*
X15685089Y-16725857D01*
X15659546Y-16739510D01*
X15631825Y-16747919D01*
X15600546Y-16751000D01*
X15159454Y-16751000D01*
X15128175Y-16747919D01*
X15100454Y-16739510D01*
X15074911Y-16725857D01*
X15052519Y-16707481D01*
X15034143Y-16685089D01*
X15020490Y-16659546D01*
X15012081Y-16631825D01*
X15009000Y-16600546D01*
X15009000Y-16209454D01*
X15012081Y-16178175D01*
X15020490Y-16150454D01*
X15034143Y-16124911D01*
X15052519Y-16102519D01*
X15074911Y-16084143D01*
X15100454Y-16070490D01*
X15128175Y-16062081D01*
X15159454Y-16059000D01*
X15600546Y-16059000D01*
X15631825Y-16062081D01*
X15631825Y-16062081D01*
G37*
G36*
X3961825Y-15382081D02*
X3989546Y-15390490D01*
X4015089Y-15404143D01*
X4037481Y-15422519D01*
X4055857Y-15444911D01*
X4069510Y-15470454D01*
X4077919Y-15498175D01*
X4081000Y-15529454D01*
X4081000Y-15970546D01*
X4077919Y-16001825D01*
X4069510Y-16029546D01*
X4055857Y-16055089D01*
X4037481Y-16077481D01*
X4015089Y-16095857D01*
X3989546Y-16109510D01*
X3961825Y-16117919D01*
X3930546Y-16121000D01*
X3539454Y-16121000D01*
X3508175Y-16117919D01*
X3480454Y-16109510D01*
X3454911Y-16095857D01*
X3432519Y-16077481D01*
X3414143Y-16055089D01*
X3400490Y-16029546D01*
X3392081Y-16001825D01*
X3389000Y-15970546D01*
X3389000Y-15529454D01*
X3392081Y-15498175D01*
X3400490Y-15470454D01*
X3414143Y-15444911D01*
X3432519Y-15422519D01*
X3454911Y-15404143D01*
X3480454Y-15390490D01*
X3508175Y-15382081D01*
X3539454Y-15379000D01*
X3930546Y-15379000D01*
X3961825Y-15382081D01*
X3961825Y-15382081D01*
G37*
G36*
X2991825Y-15382081D02*
X3019546Y-15390490D01*
X3045089Y-15404143D01*
X3067481Y-15422519D01*
X3085857Y-15444911D01*
X3099510Y-15470454D01*
X3107919Y-15498175D01*
X3111000Y-15529454D01*
X3111000Y-15970546D01*
X3107919Y-16001825D01*
X3099510Y-16029546D01*
X3085857Y-16055089D01*
X3067481Y-16077481D01*
X3045089Y-16095857D01*
X3019546Y-16109510D01*
X2991825Y-16117919D01*
X2960546Y-16121000D01*
X2569454Y-16121000D01*
X2538175Y-16117919D01*
X2510454Y-16109510D01*
X2484911Y-16095857D01*
X2462519Y-16077481D01*
X2444143Y-16055089D01*
X2430490Y-16029546D01*
X2422081Y-16001825D01*
X2419000Y-15970546D01*
X2419000Y-15529454D01*
X2422081Y-15498175D01*
X2430490Y-15470454D01*
X2444143Y-15444911D01*
X2462519Y-15422519D01*
X2484911Y-15404143D01*
X2510454Y-15390490D01*
X2538175Y-15382081D01*
X2569454Y-15379000D01*
X2960546Y-15379000D01*
X2991825Y-15382081D01*
X2991825Y-15382081D01*
G37*
G36*
X7011825Y-15372081D02*
X7039546Y-15380490D01*
X7065089Y-15394143D01*
X7087481Y-15412519D01*
X7105857Y-15434911D01*
X7119510Y-15460454D01*
X7127919Y-15488175D01*
X7131000Y-15519454D01*
X7131000Y-15910546D01*
X7127919Y-15941825D01*
X7119510Y-15969546D01*
X7105857Y-15995089D01*
X7087481Y-16017481D01*
X7065089Y-16035857D01*
X7039546Y-16049510D01*
X7011825Y-16057919D01*
X6980546Y-16061000D01*
X6539454Y-16061000D01*
X6508175Y-16057919D01*
X6480454Y-16049510D01*
X6454911Y-16035857D01*
X6432519Y-16017481D01*
X6414143Y-15995089D01*
X6400490Y-15969546D01*
X6392081Y-15941825D01*
X6389000Y-15910546D01*
X6389000Y-15519454D01*
X6392081Y-15488175D01*
X6400490Y-15460454D01*
X6414143Y-15434911D01*
X6432519Y-15412519D01*
X6454911Y-15394143D01*
X6480454Y-15380490D01*
X6508175Y-15372081D01*
X6539454Y-15369000D01*
X6980546Y-15369000D01*
X7011825Y-15372081D01*
X7011825Y-15372081D01*
G37*
G36*
X8011825Y-15302081D02*
X8039546Y-15310490D01*
X8065089Y-15324143D01*
X8087481Y-15342519D01*
X8105857Y-15364911D01*
X8119510Y-15390454D01*
X8127919Y-15418175D01*
X8131000Y-15449454D01*
X8131000Y-15890546D01*
X8127919Y-15921825D01*
X8119510Y-15949546D01*
X8105857Y-15975089D01*
X8087481Y-15997481D01*
X8065089Y-16015857D01*
X8039546Y-16029510D01*
X8011825Y-16037919D01*
X7980546Y-16041000D01*
X7589454Y-16041000D01*
X7558175Y-16037919D01*
X7530454Y-16029510D01*
X7504911Y-16015857D01*
X7482519Y-15997481D01*
X7464143Y-15975089D01*
X7450490Y-15949546D01*
X7442081Y-15921825D01*
X7439000Y-15890546D01*
X7439000Y-15449454D01*
X7442081Y-15418175D01*
X7450490Y-15390454D01*
X7464143Y-15364911D01*
X7482519Y-15342519D01*
X7504911Y-15324143D01*
X7530454Y-15310490D01*
X7558175Y-15302081D01*
X7589454Y-15299000D01*
X7980546Y-15299000D01*
X8011825Y-15302081D01*
X8011825Y-15302081D01*
G37*
G36*
X8981825Y-15302081D02*
X9009546Y-15310490D01*
X9035089Y-15324143D01*
X9057481Y-15342519D01*
X9075857Y-15364911D01*
X9089510Y-15390454D01*
X9097919Y-15418175D01*
X9101000Y-15449454D01*
X9101000Y-15890546D01*
X9097919Y-15921825D01*
X9089510Y-15949546D01*
X9075857Y-15975089D01*
X9057481Y-15997481D01*
X9035089Y-16015857D01*
X9009546Y-16029510D01*
X8981825Y-16037919D01*
X8950546Y-16041000D01*
X8559454Y-16041000D01*
X8528175Y-16037919D01*
X8500454Y-16029510D01*
X8474911Y-16015857D01*
X8452519Y-15997481D01*
X8434143Y-15975089D01*
X8420490Y-15949546D01*
X8412081Y-15921825D01*
X8409000Y-15890546D01*
X8409000Y-15449454D01*
X8412081Y-15418175D01*
X8420490Y-15390454D01*
X8434143Y-15364911D01*
X8452519Y-15342519D01*
X8474911Y-15324143D01*
X8500454Y-15310490D01*
X8528175Y-15302081D01*
X8559454Y-15299000D01*
X8950546Y-15299000D01*
X8981825Y-15302081D01*
X8981825Y-15302081D01*
G37*
G36*
X17661825Y-15092081D02*
X17689546Y-15100490D01*
X17715089Y-15114143D01*
X17737481Y-15132519D01*
X17755857Y-15154911D01*
X17769510Y-15180454D01*
X17777919Y-15208175D01*
X17781000Y-15239454D01*
X17781000Y-15630546D01*
X17777919Y-15661825D01*
X17769510Y-15689546D01*
X17755857Y-15715089D01*
X17737481Y-15737481D01*
X17715089Y-15755857D01*
X17689546Y-15769510D01*
X17661825Y-15777919D01*
X17630546Y-15781000D01*
X17189454Y-15781000D01*
X17158175Y-15777919D01*
X17130454Y-15769510D01*
X17104911Y-15755857D01*
X17082519Y-15737481D01*
X17064143Y-15715089D01*
X17050490Y-15689546D01*
X17042081Y-15661825D01*
X17039000Y-15630546D01*
X17039000Y-15239454D01*
X17042081Y-15208175D01*
X17050490Y-15180454D01*
X17064143Y-15154911D01*
X17082519Y-15132519D01*
X17104911Y-15114143D01*
X17130454Y-15100490D01*
X17158175Y-15092081D01*
X17189454Y-15089000D01*
X17630546Y-15089000D01*
X17661825Y-15092081D01*
X17661825Y-15092081D01*
G37*
G36*
X16651825Y-15092081D02*
X16679546Y-15100490D01*
X16705089Y-15114143D01*
X16727481Y-15132519D01*
X16745857Y-15154911D01*
X16759510Y-15180454D01*
X16767919Y-15208175D01*
X16771000Y-15239454D01*
X16771000Y-15630546D01*
X16767919Y-15661825D01*
X16759510Y-15689546D01*
X16745857Y-15715089D01*
X16727481Y-15737481D01*
X16705089Y-15755857D01*
X16679546Y-15769510D01*
X16651825Y-15777919D01*
X16620546Y-15781000D01*
X16179454Y-15781000D01*
X16148175Y-15777919D01*
X16120454Y-15769510D01*
X16094911Y-15755857D01*
X16072519Y-15737481D01*
X16054143Y-15715089D01*
X16040490Y-15689546D01*
X16032081Y-15661825D01*
X16029000Y-15630546D01*
X16029000Y-15239454D01*
X16032081Y-15208175D01*
X16040490Y-15180454D01*
X16054143Y-15154911D01*
X16072519Y-15132519D01*
X16094911Y-15114143D01*
X16120454Y-15100490D01*
X16148175Y-15092081D01*
X16179454Y-15089000D01*
X16620546Y-15089000D01*
X16651825Y-15092081D01*
X16651825Y-15092081D01*
G37*
G36*
X15631825Y-15092081D02*
X15659546Y-15100490D01*
X15685089Y-15114143D01*
X15707481Y-15132519D01*
X15725857Y-15154911D01*
X15739510Y-15180454D01*
X15747919Y-15208175D01*
X15751000Y-15239454D01*
X15751000Y-15630546D01*
X15747919Y-15661825D01*
X15739510Y-15689546D01*
X15725857Y-15715089D01*
X15707481Y-15737481D01*
X15685089Y-15755857D01*
X15659546Y-15769510D01*
X15631825Y-15777919D01*
X15600546Y-15781000D01*
X15159454Y-15781000D01*
X15128175Y-15777919D01*
X15100454Y-15769510D01*
X15074911Y-15755857D01*
X15052519Y-15737481D01*
X15034143Y-15715089D01*
X15020490Y-15689546D01*
X15012081Y-15661825D01*
X15009000Y-15630546D01*
X15009000Y-15239454D01*
X15012081Y-15208175D01*
X15020490Y-15180454D01*
X15034143Y-15154911D01*
X15052519Y-15132519D01*
X15074911Y-15114143D01*
X15100454Y-15100490D01*
X15128175Y-15092081D01*
X15159454Y-15089000D01*
X15600546Y-15089000D01*
X15631825Y-15092081D01*
X15631825Y-15092081D01*
G37*
G36*
X21920719Y-14389374D02*
X21950090Y-14401540D01*
X22020996Y-14430910D01*
X22111242Y-14491210D01*
X22187990Y-14567958D01*
X22248290Y-14658204D01*
X22248290Y-14658205D01*
X22289826Y-14758481D01*
X22311000Y-14864930D01*
X22311000Y-14973470D01*
X22289826Y-15079919D01*
X22289825Y-15079921D01*
X22248290Y-15180196D01*
X22187990Y-15270442D01*
X22111242Y-15347190D01*
X22020996Y-15407490D01*
X21967446Y-15429671D01*
X21920719Y-15449026D01*
X21814270Y-15470200D01*
X21705730Y-15470200D01*
X21599281Y-15449026D01*
X21552554Y-15429671D01*
X21499004Y-15407490D01*
X21408758Y-15347190D01*
X21332010Y-15270442D01*
X21271710Y-15180196D01*
X21230175Y-15079921D01*
X21230174Y-15079919D01*
X21209000Y-14973470D01*
X21209000Y-14864930D01*
X21230174Y-14758481D01*
X21271710Y-14658205D01*
X21271710Y-14658204D01*
X21332010Y-14567958D01*
X21408758Y-14491210D01*
X21499004Y-14430910D01*
X21569910Y-14401540D01*
X21599281Y-14389374D01*
X21705730Y-14368200D01*
X21814270Y-14368200D01*
X21920719Y-14389374D01*
X21920719Y-14389374D01*
G37*
G36*
X3961825Y-14382081D02*
X3989546Y-14390490D01*
X4015089Y-14404143D01*
X4037481Y-14422519D01*
X4055857Y-14444911D01*
X4069510Y-14470454D01*
X4077919Y-14498175D01*
X4081000Y-14529454D01*
X4081000Y-14970546D01*
X4077919Y-15001825D01*
X4069510Y-15029546D01*
X4055857Y-15055089D01*
X4037481Y-15077481D01*
X4015089Y-15095857D01*
X3989546Y-15109510D01*
X3961825Y-15117919D01*
X3930546Y-15121000D01*
X3539454Y-15121000D01*
X3508175Y-15117919D01*
X3480454Y-15109510D01*
X3454911Y-15095857D01*
X3432519Y-15077481D01*
X3414143Y-15055089D01*
X3400490Y-15029546D01*
X3392081Y-15001825D01*
X3389000Y-14970546D01*
X3389000Y-14529454D01*
X3392081Y-14498175D01*
X3400490Y-14470454D01*
X3414143Y-14444911D01*
X3432519Y-14422519D01*
X3454911Y-14404143D01*
X3480454Y-14390490D01*
X3508175Y-14382081D01*
X3539454Y-14379000D01*
X3930546Y-14379000D01*
X3961825Y-14382081D01*
X3961825Y-14382081D01*
G37*
G36*
X2991825Y-14382081D02*
X3019546Y-14390490D01*
X3045089Y-14404143D01*
X3067481Y-14422519D01*
X3085857Y-14444911D01*
X3099510Y-14470454D01*
X3107919Y-14498175D01*
X3111000Y-14529454D01*
X3111000Y-14970546D01*
X3107919Y-15001825D01*
X3099510Y-15029546D01*
X3085857Y-15055089D01*
X3067481Y-15077481D01*
X3045089Y-15095857D01*
X3019546Y-15109510D01*
X2991825Y-15117919D01*
X2960546Y-15121000D01*
X2569454Y-15121000D01*
X2538175Y-15117919D01*
X2510454Y-15109510D01*
X2484911Y-15095857D01*
X2462519Y-15077481D01*
X2444143Y-15055089D01*
X2430490Y-15029546D01*
X2422081Y-15001825D01*
X2419000Y-14970546D01*
X2419000Y-14529454D01*
X2422081Y-14498175D01*
X2430490Y-14470454D01*
X2444143Y-14444911D01*
X2462519Y-14422519D01*
X2484911Y-14404143D01*
X2510454Y-14390490D01*
X2538175Y-14382081D01*
X2569454Y-14379000D01*
X2960546Y-14379000D01*
X2991825Y-14382081D01*
X2991825Y-14382081D01*
G37*
G36*
X14326000Y-14426000D02*
X13924000Y-14426000D01*
X13924000Y-14024000D01*
X14326000Y-14024000D01*
X14326000Y-14426000D01*
X14326000Y-14426000D01*
G37*
G36*
X14976000Y-14426000D02*
X14574000Y-14426000D01*
X14574000Y-14024000D01*
X14976000Y-14024000D01*
X14976000Y-14426000D01*
X14976000Y-14426000D01*
G37*
G36*
X15626000Y-14426000D02*
X15224000Y-14426000D01*
X15224000Y-14024000D01*
X15626000Y-14024000D01*
X15626000Y-14426000D01*
X15626000Y-14426000D01*
G37*
G36*
X9776000Y-14426000D02*
X9374000Y-14426000D01*
X9374000Y-14024000D01*
X9776000Y-14024000D01*
X9776000Y-14426000D01*
X9776000Y-14426000D01*
G37*
G36*
X11076000Y-14426000D02*
X10674000Y-14426000D01*
X10674000Y-14024000D01*
X11076000Y-14024000D01*
X11076000Y-14426000D01*
X11076000Y-14426000D01*
G37*
G36*
X11726000Y-14426000D02*
X11324000Y-14426000D01*
X11324000Y-14024000D01*
X11726000Y-14024000D01*
X11726000Y-14426000D01*
X11726000Y-14426000D01*
G37*
G36*
X10426000Y-14426000D02*
X10024000Y-14426000D01*
X10024000Y-14024000D01*
X10426000Y-14024000D01*
X10426000Y-14426000D01*
X10426000Y-14426000D01*
G37*
G36*
X13026000Y-14426000D02*
X12624000Y-14426000D01*
X12624000Y-14024000D01*
X13026000Y-14024000D01*
X13026000Y-14426000D01*
X13026000Y-14426000D01*
G37*
G36*
X12376000Y-14426000D02*
X11974000Y-14426000D01*
X11974000Y-14024000D01*
X12376000Y-14024000D01*
X12376000Y-14426000D01*
X12376000Y-14426000D01*
G37*
G36*
X13676000Y-14426000D02*
X13274000Y-14426000D01*
X13274000Y-14024000D01*
X13676000Y-14024000D01*
X13676000Y-14426000D01*
X13676000Y-14426000D01*
G37*
G36*
X8751825Y-13642081D02*
X8779546Y-13650490D01*
X8805089Y-13664143D01*
X8827481Y-13682519D01*
X8845857Y-13704911D01*
X8859510Y-13730454D01*
X8867919Y-13758175D01*
X8871000Y-13789454D01*
X8871000Y-14180546D01*
X8867919Y-14211825D01*
X8859510Y-14239546D01*
X8845857Y-14265089D01*
X8827481Y-14287481D01*
X8805089Y-14305857D01*
X8779546Y-14319510D01*
X8751825Y-14327919D01*
X8720546Y-14331000D01*
X8279454Y-14331000D01*
X8248175Y-14327919D01*
X8220454Y-14319510D01*
X8194911Y-14305857D01*
X8172519Y-14287481D01*
X8154143Y-14265089D01*
X8140490Y-14239546D01*
X8132081Y-14211825D01*
X8129000Y-14180546D01*
X8129000Y-13789454D01*
X8132081Y-13758175D01*
X8140490Y-13730454D01*
X8154143Y-13704911D01*
X8172519Y-13682519D01*
X8194911Y-13664143D01*
X8220454Y-13650490D01*
X8248175Y-13642081D01*
X8279454Y-13639000D01*
X8720546Y-13639000D01*
X8751825Y-13642081D01*
X8751825Y-13642081D01*
G37*
G36*
X3961825Y-13382081D02*
X3989546Y-13390490D01*
X4015089Y-13404143D01*
X4037481Y-13422519D01*
X4055857Y-13444911D01*
X4069510Y-13470454D01*
X4077919Y-13498175D01*
X4081000Y-13529454D01*
X4081000Y-13970546D01*
X4077919Y-14001825D01*
X4069510Y-14029546D01*
X4055857Y-14055089D01*
X4037481Y-14077481D01*
X4015089Y-14095857D01*
X3989546Y-14109510D01*
X3961825Y-14117919D01*
X3930546Y-14121000D01*
X3539454Y-14121000D01*
X3508175Y-14117919D01*
X3480454Y-14109510D01*
X3454911Y-14095857D01*
X3432519Y-14077481D01*
X3414143Y-14055089D01*
X3400490Y-14029546D01*
X3392081Y-14001825D01*
X3389000Y-13970546D01*
X3389000Y-13529454D01*
X3392081Y-13498175D01*
X3400490Y-13470454D01*
X3414143Y-13444911D01*
X3432519Y-13422519D01*
X3454911Y-13404143D01*
X3480454Y-13390490D01*
X3508175Y-13382081D01*
X3539454Y-13379000D01*
X3930546Y-13379000D01*
X3961825Y-13382081D01*
X3961825Y-13382081D01*
G37*
G36*
X2991825Y-13382081D02*
X3019546Y-13390490D01*
X3045089Y-13404143D01*
X3067481Y-13422519D01*
X3085857Y-13444911D01*
X3099510Y-13470454D01*
X3107919Y-13498175D01*
X3111000Y-13529454D01*
X3111000Y-13970546D01*
X3107919Y-14001825D01*
X3099510Y-14029546D01*
X3085857Y-14055089D01*
X3067481Y-14077481D01*
X3045089Y-14095857D01*
X3019546Y-14109510D01*
X2991825Y-14117919D01*
X2960546Y-14121000D01*
X2569454Y-14121000D01*
X2538175Y-14117919D01*
X2510454Y-14109510D01*
X2484911Y-14095857D01*
X2462519Y-14077481D01*
X2444143Y-14055089D01*
X2430490Y-14029546D01*
X2422081Y-14001825D01*
X2419000Y-13970546D01*
X2419000Y-13529454D01*
X2422081Y-13498175D01*
X2430490Y-13470454D01*
X2444143Y-13444911D01*
X2462519Y-13422519D01*
X2484911Y-13404143D01*
X2510454Y-13390490D01*
X2538175Y-13382081D01*
X2569454Y-13379000D01*
X2960546Y-13379000D01*
X2991825Y-13382081D01*
X2991825Y-13382081D01*
G37*
G36*
X14976000Y-13776000D02*
X14574000Y-13776000D01*
X14574000Y-13374000D01*
X14976000Y-13374000D01*
X14976000Y-13776000D01*
X14976000Y-13776000D01*
G37*
G36*
X9776000Y-13776000D02*
X9374000Y-13776000D01*
X9374000Y-13374000D01*
X9776000Y-13374000D01*
X9776000Y-13776000D01*
X9776000Y-13776000D01*
G37*
G36*
X15626000Y-13776000D02*
X15224000Y-13776000D01*
X15224000Y-13374000D01*
X15626000Y-13374000D01*
X15626000Y-13776000D01*
X15626000Y-13776000D01*
G37*
G36*
X10426000Y-13776000D02*
X10024000Y-13776000D01*
X10024000Y-13374000D01*
X10426000Y-13374000D01*
X10426000Y-13776000D01*
X10426000Y-13776000D01*
G37*
G36*
X13676000Y-13776000D02*
X13274000Y-13776000D01*
X13274000Y-13374000D01*
X13676000Y-13374000D01*
X13676000Y-13776000D01*
X13676000Y-13776000D01*
G37*
G36*
X11076000Y-13776000D02*
X10674000Y-13776000D01*
X10674000Y-13374000D01*
X11076000Y-13374000D01*
X11076000Y-13776000D01*
X11076000Y-13776000D01*
G37*
G36*
X13026000Y-13776000D02*
X12624000Y-13776000D01*
X12624000Y-13374000D01*
X13026000Y-13374000D01*
X13026000Y-13776000D01*
X13026000Y-13776000D01*
G37*
G36*
X11726000Y-13776000D02*
X11324000Y-13776000D01*
X11324000Y-13374000D01*
X11726000Y-13374000D01*
X11726000Y-13776000D01*
X11726000Y-13776000D01*
G37*
G36*
X12376000Y-13776000D02*
X11974000Y-13776000D01*
X11974000Y-13374000D01*
X12376000Y-13374000D01*
X12376000Y-13776000D01*
X12376000Y-13776000D01*
G37*
G36*
X14326000Y-13776000D02*
X13924000Y-13776000D01*
X13924000Y-13374000D01*
X14326000Y-13374000D01*
X14326000Y-13776000D01*
X14326000Y-13776000D01*
G37*
G36*
X18951825Y-12912081D02*
X18979546Y-12920490D01*
X19005089Y-12934143D01*
X19027481Y-12952519D01*
X19045857Y-12974911D01*
X19059510Y-13000454D01*
X19067919Y-13028175D01*
X19071000Y-13059454D01*
X19071000Y-13450546D01*
X19067919Y-13481825D01*
X19059510Y-13509546D01*
X19045857Y-13535089D01*
X19027481Y-13557481D01*
X19005089Y-13575857D01*
X18979546Y-13589510D01*
X18951825Y-13597919D01*
X18920546Y-13601000D01*
X18479454Y-13601000D01*
X18448175Y-13597919D01*
X18420454Y-13589510D01*
X18394911Y-13575857D01*
X18372519Y-13557481D01*
X18354143Y-13535089D01*
X18340490Y-13509546D01*
X18332081Y-13481825D01*
X18329000Y-13450546D01*
X18329000Y-13059454D01*
X18332081Y-13028175D01*
X18340490Y-13000454D01*
X18354143Y-12974911D01*
X18372519Y-12952519D01*
X18394911Y-12934143D01*
X18420454Y-12920490D01*
X18448175Y-12912081D01*
X18479454Y-12909000D01*
X18920546Y-12909000D01*
X18951825Y-12912081D01*
X18951825Y-12912081D01*
G37*
G36*
X16901825Y-12912081D02*
X16929546Y-12920490D01*
X16955089Y-12934143D01*
X16977481Y-12952519D01*
X16995857Y-12974911D01*
X17009510Y-13000454D01*
X17017919Y-13028175D01*
X17021000Y-13059454D01*
X17021000Y-13450546D01*
X17017919Y-13481825D01*
X17009510Y-13509546D01*
X16995857Y-13535089D01*
X16977481Y-13557481D01*
X16955089Y-13575857D01*
X16929546Y-13589510D01*
X16901825Y-13597919D01*
X16870546Y-13601000D01*
X16429454Y-13601000D01*
X16398175Y-13597919D01*
X16370454Y-13589510D01*
X16344911Y-13575857D01*
X16322519Y-13557481D01*
X16304143Y-13535089D01*
X16290490Y-13509546D01*
X16282081Y-13481825D01*
X16279000Y-13450546D01*
X16279000Y-13059454D01*
X16282081Y-13028175D01*
X16290490Y-13000454D01*
X16304143Y-12974911D01*
X16322519Y-12952519D01*
X16344911Y-12934143D01*
X16370454Y-12920490D01*
X16398175Y-12912081D01*
X16429454Y-12909000D01*
X16870546Y-12909000D01*
X16901825Y-12912081D01*
X16901825Y-12912081D01*
G37*
G36*
X17951825Y-12912081D02*
X17979546Y-12920490D01*
X18005089Y-12934143D01*
X18027481Y-12952519D01*
X18045857Y-12974911D01*
X18059510Y-13000454D01*
X18067919Y-13028175D01*
X18071000Y-13059454D01*
X18071000Y-13450546D01*
X18067919Y-13481825D01*
X18059510Y-13509546D01*
X18045857Y-13535089D01*
X18027481Y-13557481D01*
X18005089Y-13575857D01*
X17979546Y-13589510D01*
X17951825Y-13597919D01*
X17920546Y-13601000D01*
X17479454Y-13601000D01*
X17448175Y-13597919D01*
X17420454Y-13589510D01*
X17394911Y-13575857D01*
X17372519Y-13557481D01*
X17354143Y-13535089D01*
X17340490Y-13509546D01*
X17332081Y-13481825D01*
X17329000Y-13450546D01*
X17329000Y-13059454D01*
X17332081Y-13028175D01*
X17340490Y-13000454D01*
X17354143Y-12974911D01*
X17372519Y-12952519D01*
X17394911Y-12934143D01*
X17420454Y-12920490D01*
X17448175Y-12912081D01*
X17479454Y-12909000D01*
X17920546Y-12909000D01*
X17951825Y-12912081D01*
X17951825Y-12912081D01*
G37*
G36*
X8751825Y-12672081D02*
X8779546Y-12680490D01*
X8805089Y-12694143D01*
X8827481Y-12712519D01*
X8845857Y-12734911D01*
X8859510Y-12760454D01*
X8867919Y-12788175D01*
X8871000Y-12819454D01*
X8871000Y-13210546D01*
X8867919Y-13241825D01*
X8859510Y-13269546D01*
X8845857Y-13295089D01*
X8827481Y-13317481D01*
X8805089Y-13335857D01*
X8779546Y-13349510D01*
X8751825Y-13357919D01*
X8720546Y-13361000D01*
X8279454Y-13361000D01*
X8248175Y-13357919D01*
X8220454Y-13349510D01*
X8194911Y-13335857D01*
X8172519Y-13317481D01*
X8154143Y-13295089D01*
X8140490Y-13269546D01*
X8132081Y-13241825D01*
X8129000Y-13210546D01*
X8129000Y-12819454D01*
X8132081Y-12788175D01*
X8140490Y-12760454D01*
X8154143Y-12734911D01*
X8172519Y-12712519D01*
X8194911Y-12694143D01*
X8220454Y-12680490D01*
X8248175Y-12672081D01*
X8279454Y-12669000D01*
X8720546Y-12669000D01*
X8751825Y-12672081D01*
X8751825Y-12672081D01*
G37*
G36*
X11726000Y-13126000D02*
X11324000Y-13126000D01*
X11324000Y-12724000D01*
X11726000Y-12724000D01*
X11726000Y-13126000D01*
X11726000Y-13126000D01*
G37*
G36*
X14976000Y-13126000D02*
X14574000Y-13126000D01*
X14574000Y-12724000D01*
X14976000Y-12724000D01*
X14976000Y-13126000D01*
X14976000Y-13126000D01*
G37*
G36*
X12376000Y-13126000D02*
X11974000Y-13126000D01*
X11974000Y-12724000D01*
X12376000Y-12724000D01*
X12376000Y-13126000D01*
X12376000Y-13126000D01*
G37*
G36*
X11076000Y-13126000D02*
X10674000Y-13126000D01*
X10674000Y-12724000D01*
X11076000Y-12724000D01*
X11076000Y-13126000D01*
X11076000Y-13126000D01*
G37*
G36*
X9776000Y-13126000D02*
X9374000Y-13126000D01*
X9374000Y-12724000D01*
X9776000Y-12724000D01*
X9776000Y-13126000D01*
X9776000Y-13126000D01*
G37*
G36*
X10426000Y-13126000D02*
X10024000Y-13126000D01*
X10024000Y-12724000D01*
X10426000Y-12724000D01*
X10426000Y-13126000D01*
X10426000Y-13126000D01*
G37*
G36*
X13026000Y-13126000D02*
X12624000Y-13126000D01*
X12624000Y-12724000D01*
X13026000Y-12724000D01*
X13026000Y-13126000D01*
X13026000Y-13126000D01*
G37*
G36*
X13676000Y-13126000D02*
X13274000Y-13126000D01*
X13274000Y-12724000D01*
X13676000Y-12724000D01*
X13676000Y-13126000D01*
X13676000Y-13126000D01*
G37*
G36*
X14326000Y-13126000D02*
X13924000Y-13126000D01*
X13924000Y-12724000D01*
X14326000Y-12724000D01*
X14326000Y-13126000D01*
X14326000Y-13126000D01*
G37*
G36*
X15626000Y-13126000D02*
X15224000Y-13126000D01*
X15224000Y-12724000D01*
X15626000Y-12724000D01*
X15626000Y-13126000D01*
X15626000Y-13126000D01*
G37*
G36*
X2991825Y-12382081D02*
X3019546Y-12390490D01*
X3045089Y-12404143D01*
X3067481Y-12422519D01*
X3085857Y-12444911D01*
X3099510Y-12470454D01*
X3107919Y-12498175D01*
X3111000Y-12529454D01*
X3111000Y-12970546D01*
X3107919Y-13001825D01*
X3099510Y-13029546D01*
X3085857Y-13055089D01*
X3067481Y-13077481D01*
X3045089Y-13095857D01*
X3019546Y-13109510D01*
X2991825Y-13117919D01*
X2960546Y-13121000D01*
X2569454Y-13121000D01*
X2538175Y-13117919D01*
X2510454Y-13109510D01*
X2484911Y-13095857D01*
X2462519Y-13077481D01*
X2444143Y-13055089D01*
X2430490Y-13029546D01*
X2422081Y-13001825D01*
X2419000Y-12970546D01*
X2419000Y-12529454D01*
X2422081Y-12498175D01*
X2430490Y-12470454D01*
X2444143Y-12444911D01*
X2462519Y-12422519D01*
X2484911Y-12404143D01*
X2510454Y-12390490D01*
X2538175Y-12382081D01*
X2569454Y-12379000D01*
X2960546Y-12379000D01*
X2991825Y-12382081D01*
X2991825Y-12382081D01*
G37*
G36*
X3961825Y-12382081D02*
X3989546Y-12390490D01*
X4015089Y-12404143D01*
X4037481Y-12422519D01*
X4055857Y-12444911D01*
X4069510Y-12470454D01*
X4077919Y-12498175D01*
X4081000Y-12529454D01*
X4081000Y-12970546D01*
X4077919Y-13001825D01*
X4069510Y-13029546D01*
X4055857Y-13055089D01*
X4037481Y-13077481D01*
X4015089Y-13095857D01*
X3989546Y-13109510D01*
X3961825Y-13117919D01*
X3930546Y-13121000D01*
X3539454Y-13121000D01*
X3508175Y-13117919D01*
X3480454Y-13109510D01*
X3454911Y-13095857D01*
X3432519Y-13077481D01*
X3414143Y-13055089D01*
X3400490Y-13029546D01*
X3392081Y-13001825D01*
X3389000Y-12970546D01*
X3389000Y-12529454D01*
X3392081Y-12498175D01*
X3400490Y-12470454D01*
X3414143Y-12444911D01*
X3432519Y-12422519D01*
X3454911Y-12404143D01*
X3480454Y-12390490D01*
X3508175Y-12382081D01*
X3539454Y-12379000D01*
X3930546Y-12379000D01*
X3961825Y-12382081D01*
X3961825Y-12382081D01*
G37*
G36*
X20491825Y-12292081D02*
X20519546Y-12300490D01*
X20545089Y-12314143D01*
X20567481Y-12332519D01*
X20585857Y-12354911D01*
X20599510Y-12380454D01*
X20607919Y-12408175D01*
X20611000Y-12439454D01*
X20611000Y-12830546D01*
X20607919Y-12861825D01*
X20599510Y-12889546D01*
X20585857Y-12915089D01*
X20567481Y-12937481D01*
X20545089Y-12955857D01*
X20519546Y-12969510D01*
X20491825Y-12977919D01*
X20460546Y-12981000D01*
X20019454Y-12981000D01*
X19988175Y-12977919D01*
X19960454Y-12969510D01*
X19934911Y-12955857D01*
X19912519Y-12937481D01*
X19894143Y-12915089D01*
X19880490Y-12889546D01*
X19872081Y-12861825D01*
X19869000Y-12830546D01*
X19869000Y-12439454D01*
X19872081Y-12408175D01*
X19880490Y-12380454D01*
X19894143Y-12354911D01*
X19912519Y-12332519D01*
X19934911Y-12314143D01*
X19960454Y-12300490D01*
X19988175Y-12292081D01*
X20019454Y-12289000D01*
X20460546Y-12289000D01*
X20491825Y-12292081D01*
X20491825Y-12292081D01*
G37*
G36*
X16901825Y-11942081D02*
X16929546Y-11950490D01*
X16955089Y-11964143D01*
X16977481Y-11982519D01*
X16995857Y-12004911D01*
X17009510Y-12030454D01*
X17017919Y-12058175D01*
X17021000Y-12089454D01*
X17021000Y-12480546D01*
X17017919Y-12511825D01*
X17009510Y-12539546D01*
X16995857Y-12565089D01*
X16977481Y-12587481D01*
X16955089Y-12605857D01*
X16929546Y-12619510D01*
X16901825Y-12627919D01*
X16870546Y-12631000D01*
X16429454Y-12631000D01*
X16398175Y-12627919D01*
X16370454Y-12619510D01*
X16344911Y-12605857D01*
X16322519Y-12587481D01*
X16304143Y-12565089D01*
X16290490Y-12539546D01*
X16282081Y-12511825D01*
X16279000Y-12480546D01*
X16279000Y-12089454D01*
X16282081Y-12058175D01*
X16290490Y-12030454D01*
X16304143Y-12004911D01*
X16322519Y-11982519D01*
X16344911Y-11964143D01*
X16370454Y-11950490D01*
X16398175Y-11942081D01*
X16429454Y-11939000D01*
X16870546Y-11939000D01*
X16901825Y-11942081D01*
X16901825Y-11942081D01*
G37*
G36*
X17951825Y-11942081D02*
X17979546Y-11950490D01*
X18005089Y-11964143D01*
X18027481Y-11982519D01*
X18045857Y-12004911D01*
X18059510Y-12030454D01*
X18067919Y-12058175D01*
X18071000Y-12089454D01*
X18071000Y-12480546D01*
X18067919Y-12511825D01*
X18059510Y-12539546D01*
X18045857Y-12565089D01*
X18027481Y-12587481D01*
X18005089Y-12605857D01*
X17979546Y-12619510D01*
X17951825Y-12627919D01*
X17920546Y-12631000D01*
X17479454Y-12631000D01*
X17448175Y-12627919D01*
X17420454Y-12619510D01*
X17394911Y-12605857D01*
X17372519Y-12587481D01*
X17354143Y-12565089D01*
X17340490Y-12539546D01*
X17332081Y-12511825D01*
X17329000Y-12480546D01*
X17329000Y-12089454D01*
X17332081Y-12058175D01*
X17340490Y-12030454D01*
X17354143Y-12004911D01*
X17372519Y-11982519D01*
X17394911Y-11964143D01*
X17420454Y-11950490D01*
X17448175Y-11942081D01*
X17479454Y-11939000D01*
X17920546Y-11939000D01*
X17951825Y-11942081D01*
X17951825Y-11942081D01*
G37*
G36*
X18951825Y-11942081D02*
X18979546Y-11950490D01*
X19005089Y-11964143D01*
X19027481Y-11982519D01*
X19045857Y-12004911D01*
X19059510Y-12030454D01*
X19067919Y-12058175D01*
X19071000Y-12089454D01*
X19071000Y-12480546D01*
X19067919Y-12511825D01*
X19059510Y-12539546D01*
X19045857Y-12565089D01*
X19027481Y-12587481D01*
X19005089Y-12605857D01*
X18979546Y-12619510D01*
X18951825Y-12627919D01*
X18920546Y-12631000D01*
X18479454Y-12631000D01*
X18448175Y-12627919D01*
X18420454Y-12619510D01*
X18394911Y-12605857D01*
X18372519Y-12587481D01*
X18354143Y-12565089D01*
X18340490Y-12539546D01*
X18332081Y-12511825D01*
X18329000Y-12480546D01*
X18329000Y-12089454D01*
X18332081Y-12058175D01*
X18340490Y-12030454D01*
X18354143Y-12004911D01*
X18372519Y-11982519D01*
X18394911Y-11964143D01*
X18420454Y-11950490D01*
X18448175Y-11942081D01*
X18479454Y-11939000D01*
X18920546Y-11939000D01*
X18951825Y-11942081D01*
X18951825Y-11942081D01*
G37*
G36*
X9776000Y-12476000D02*
X9374000Y-12476000D01*
X9374000Y-12074000D01*
X9776000Y-12074000D01*
X9776000Y-12476000D01*
X9776000Y-12476000D01*
G37*
G36*
X15626000Y-12476000D02*
X15224000Y-12476000D01*
X15224000Y-12074000D01*
X15626000Y-12074000D01*
X15626000Y-12476000D01*
X15626000Y-12476000D01*
G37*
G36*
X11076000Y-12476000D02*
X10674000Y-12476000D01*
X10674000Y-12074000D01*
X11076000Y-12074000D01*
X11076000Y-12476000D01*
X11076000Y-12476000D01*
G37*
G36*
X10426000Y-12476000D02*
X10024000Y-12476000D01*
X10024000Y-12074000D01*
X10426000Y-12074000D01*
X10426000Y-12476000D01*
X10426000Y-12476000D01*
G37*
G36*
X14326000Y-12476000D02*
X13924000Y-12476000D01*
X13924000Y-12074000D01*
X14326000Y-12074000D01*
X14326000Y-12476000D01*
X14326000Y-12476000D01*
G37*
G36*
X14976000Y-12476000D02*
X14574000Y-12476000D01*
X14574000Y-12074000D01*
X14976000Y-12074000D01*
X14976000Y-12476000D01*
X14976000Y-12476000D01*
G37*
G36*
X2991825Y-11382081D02*
X3019546Y-11390490D01*
X3045089Y-11404143D01*
X3067481Y-11422519D01*
X3085857Y-11444911D01*
X3099510Y-11470454D01*
X3107919Y-11498175D01*
X3111000Y-11529454D01*
X3111000Y-11970546D01*
X3107919Y-12001825D01*
X3099510Y-12029546D01*
X3085857Y-12055089D01*
X3067481Y-12077481D01*
X3045089Y-12095857D01*
X3019546Y-12109510D01*
X2991825Y-12117919D01*
X2960546Y-12121000D01*
X2569454Y-12121000D01*
X2538175Y-12117919D01*
X2510454Y-12109510D01*
X2484911Y-12095857D01*
X2462519Y-12077481D01*
X2444143Y-12055089D01*
X2430490Y-12029546D01*
X2422081Y-12001825D01*
X2419000Y-11970546D01*
X2419000Y-11529454D01*
X2422081Y-11498175D01*
X2430490Y-11470454D01*
X2444143Y-11444911D01*
X2462519Y-11422519D01*
X2484911Y-11404143D01*
X2510454Y-11390490D01*
X2538175Y-11382081D01*
X2569454Y-11379000D01*
X2960546Y-11379000D01*
X2991825Y-11382081D01*
X2991825Y-11382081D01*
G37*
G36*
X3961825Y-11382081D02*
X3989546Y-11390490D01*
X4015089Y-11404143D01*
X4037481Y-11422519D01*
X4055857Y-11444911D01*
X4069510Y-11470454D01*
X4077919Y-11498175D01*
X4081000Y-11529454D01*
X4081000Y-11970546D01*
X4077919Y-12001825D01*
X4069510Y-12029546D01*
X4055857Y-12055089D01*
X4037481Y-12077481D01*
X4015089Y-12095857D01*
X3989546Y-12109510D01*
X3961825Y-12117919D01*
X3930546Y-12121000D01*
X3539454Y-12121000D01*
X3508175Y-12117919D01*
X3480454Y-12109510D01*
X3454911Y-12095857D01*
X3432519Y-12077481D01*
X3414143Y-12055089D01*
X3400490Y-12029546D01*
X3392081Y-12001825D01*
X3389000Y-11970546D01*
X3389000Y-11529454D01*
X3392081Y-11498175D01*
X3400490Y-11470454D01*
X3414143Y-11444911D01*
X3432519Y-11422519D01*
X3454911Y-11404143D01*
X3480454Y-11390490D01*
X3508175Y-11382081D01*
X3539454Y-11379000D01*
X3930546Y-11379000D01*
X3961825Y-11382081D01*
X3961825Y-11382081D01*
G37*
G36*
X20491825Y-11322081D02*
X20519546Y-11330490D01*
X20545089Y-11344143D01*
X20567481Y-11362519D01*
X20585857Y-11384911D01*
X20599510Y-11410454D01*
X20607919Y-11438175D01*
X20611000Y-11469454D01*
X20611000Y-11860546D01*
X20607919Y-11891825D01*
X20599510Y-11919546D01*
X20585857Y-11945089D01*
X20567481Y-11967481D01*
X20545089Y-11985857D01*
X20519546Y-11999510D01*
X20491825Y-12007919D01*
X20460546Y-12011000D01*
X20019454Y-12011000D01*
X19988175Y-12007919D01*
X19960454Y-11999510D01*
X19934911Y-11985857D01*
X19912519Y-11967481D01*
X19894143Y-11945089D01*
X19880490Y-11919546D01*
X19872081Y-11891825D01*
X19869000Y-11860546D01*
X19869000Y-11469454D01*
X19872081Y-11438175D01*
X19880490Y-11410454D01*
X19894143Y-11384911D01*
X19912519Y-11362519D01*
X19934911Y-11344143D01*
X19960454Y-11330490D01*
X19988175Y-11322081D01*
X20019454Y-11319000D01*
X20460546Y-11319000D01*
X20491825Y-11322081D01*
X20491825Y-11322081D01*
G37*
G36*
X15626000Y-11826000D02*
X15224000Y-11826000D01*
X15224000Y-11424000D01*
X15626000Y-11424000D01*
X15626000Y-11826000D01*
X15626000Y-11826000D01*
G37*
G36*
X10426000Y-11826000D02*
X10024000Y-11826000D01*
X10024000Y-11424000D01*
X10426000Y-11424000D01*
X10426000Y-11826000D01*
X10426000Y-11826000D01*
G37*
G36*
X14976000Y-11826000D02*
X14574000Y-11826000D01*
X14574000Y-11424000D01*
X14976000Y-11424000D01*
X14976000Y-11826000D01*
X14976000Y-11826000D01*
G37*
G36*
X9776000Y-11826000D02*
X9374000Y-11826000D01*
X9374000Y-11424000D01*
X9776000Y-11424000D01*
X9776000Y-11826000D01*
X9776000Y-11826000D01*
G37*
G36*
X16891825Y-10952081D02*
X16919546Y-10960490D01*
X16945089Y-10974143D01*
X16967481Y-10992519D01*
X16985857Y-11014911D01*
X16999510Y-11040454D01*
X17007919Y-11068175D01*
X17011000Y-11099454D01*
X17011000Y-11540546D01*
X17007919Y-11571825D01*
X16999510Y-11599546D01*
X16985857Y-11625089D01*
X16967481Y-11647481D01*
X16945089Y-11665857D01*
X16919546Y-11679510D01*
X16891825Y-11687919D01*
X16860546Y-11691000D01*
X16469454Y-11691000D01*
X16438175Y-11687919D01*
X16410454Y-11679510D01*
X16384911Y-11665857D01*
X16362519Y-11647481D01*
X16344143Y-11625089D01*
X16330490Y-11599546D01*
X16322081Y-11571825D01*
X16319000Y-11540546D01*
X16319000Y-11099454D01*
X16322081Y-11068175D01*
X16330490Y-11040454D01*
X16344143Y-11014911D01*
X16362519Y-10992519D01*
X16384911Y-10974143D01*
X16410454Y-10960490D01*
X16438175Y-10952081D01*
X16469454Y-10949000D01*
X16860546Y-10949000D01*
X16891825Y-10952081D01*
X16891825Y-10952081D01*
G37*
G36*
X17861825Y-10952081D02*
X17889546Y-10960490D01*
X17915089Y-10974143D01*
X17937481Y-10992519D01*
X17955857Y-11014911D01*
X17969510Y-11040454D01*
X17977919Y-11068175D01*
X17981000Y-11099454D01*
X17981000Y-11540546D01*
X17977919Y-11571825D01*
X17969510Y-11599546D01*
X17955857Y-11625089D01*
X17937481Y-11647481D01*
X17915089Y-11665857D01*
X17889546Y-11679510D01*
X17861825Y-11687919D01*
X17830546Y-11691000D01*
X17439454Y-11691000D01*
X17408175Y-11687919D01*
X17380454Y-11679510D01*
X17354911Y-11665857D01*
X17332519Y-11647481D01*
X17314143Y-11625089D01*
X17300490Y-11599546D01*
X17292081Y-11571825D01*
X17289000Y-11540546D01*
X17289000Y-11099454D01*
X17292081Y-11068175D01*
X17300490Y-11040454D01*
X17314143Y-11014911D01*
X17332519Y-10992519D01*
X17354911Y-10974143D01*
X17380454Y-10960490D01*
X17408175Y-10952081D01*
X17439454Y-10949000D01*
X17830546Y-10949000D01*
X17861825Y-10952081D01*
X17861825Y-10952081D01*
G37*
G36*
X8751825Y-10892081D02*
X8779546Y-10900490D01*
X8805089Y-10914143D01*
X8827481Y-10932519D01*
X8845857Y-10954911D01*
X8859510Y-10980454D01*
X8867919Y-11008175D01*
X8871000Y-11039454D01*
X8871000Y-11430546D01*
X8867919Y-11461825D01*
X8859510Y-11489546D01*
X8845857Y-11515089D01*
X8827481Y-11537481D01*
X8805089Y-11555857D01*
X8779546Y-11569510D01*
X8751825Y-11577919D01*
X8720546Y-11581000D01*
X8279454Y-11581000D01*
X8248175Y-11577919D01*
X8220454Y-11569510D01*
X8194911Y-11555857D01*
X8172519Y-11537481D01*
X8154143Y-11515089D01*
X8140490Y-11489546D01*
X8132081Y-11461825D01*
X8129000Y-11430546D01*
X8129000Y-11039454D01*
X8132081Y-11008175D01*
X8140490Y-10980454D01*
X8154143Y-10954911D01*
X8172519Y-10932519D01*
X8194911Y-10914143D01*
X8220454Y-10900490D01*
X8248175Y-10892081D01*
X8279454Y-10889000D01*
X8720546Y-10889000D01*
X8751825Y-10892081D01*
X8751825Y-10892081D01*
G37*
G36*
X14351000Y-11451000D02*
X10649000Y-11451000D01*
X10649000Y-8549000D01*
X14351000Y-8549000D01*
X14351000Y-11451000D01*
X14351000Y-11451000D01*
G37*
G36*
X14976000Y-11176000D02*
X14574000Y-11176000D01*
X14574000Y-10774000D01*
X14976000Y-10774000D01*
X14976000Y-11176000D01*
X14976000Y-11176000D01*
G37*
G36*
X9776000Y-11176000D02*
X9374000Y-11176000D01*
X9374000Y-10774000D01*
X9776000Y-10774000D01*
X9776000Y-11176000D01*
X9776000Y-11176000D01*
G37*
G36*
X15626000Y-11176000D02*
X15224000Y-11176000D01*
X15224000Y-10774000D01*
X15626000Y-10774000D01*
X15626000Y-11176000D01*
X15626000Y-11176000D01*
G37*
G36*
X10426000Y-11176000D02*
X10024000Y-11176000D01*
X10024000Y-10774000D01*
X10426000Y-10774000D01*
X10426000Y-11176000D01*
X10426000Y-11176000D01*
G37*
G36*
X3961825Y-10382081D02*
X3989546Y-10390490D01*
X4015089Y-10404143D01*
X4037481Y-10422519D01*
X4055857Y-10444911D01*
X4069510Y-10470454D01*
X4077919Y-10498175D01*
X4081000Y-10529454D01*
X4081000Y-10970546D01*
X4077919Y-11001825D01*
X4069510Y-11029546D01*
X4055857Y-11055089D01*
X4037481Y-11077481D01*
X4015089Y-11095857D01*
X3989546Y-11109510D01*
X3961825Y-11117919D01*
X3930546Y-11121000D01*
X3539454Y-11121000D01*
X3508175Y-11117919D01*
X3480454Y-11109510D01*
X3454911Y-11095857D01*
X3432519Y-11077481D01*
X3414143Y-11055089D01*
X3400490Y-11029546D01*
X3392081Y-11001825D01*
X3389000Y-10970546D01*
X3389000Y-10529454D01*
X3392081Y-10498175D01*
X3400490Y-10470454D01*
X3414143Y-10444911D01*
X3432519Y-10422519D01*
X3454911Y-10404143D01*
X3480454Y-10390490D01*
X3508175Y-10382081D01*
X3539454Y-10379000D01*
X3930546Y-10379000D01*
X3961825Y-10382081D01*
X3961825Y-10382081D01*
G37*
G36*
X2991825Y-10382081D02*
X3019546Y-10390490D01*
X3045089Y-10404143D01*
X3067481Y-10422519D01*
X3085857Y-10444911D01*
X3099510Y-10470454D01*
X3107919Y-10498175D01*
X3111000Y-10529454D01*
X3111000Y-10970546D01*
X3107919Y-11001825D01*
X3099510Y-11029546D01*
X3085857Y-11055089D01*
X3067481Y-11077481D01*
X3045089Y-11095857D01*
X3019546Y-11109510D01*
X2991825Y-11117919D01*
X2960546Y-11121000D01*
X2569454Y-11121000D01*
X2538175Y-11117919D01*
X2510454Y-11109510D01*
X2484911Y-11095857D01*
X2462519Y-11077481D01*
X2444143Y-11055089D01*
X2430490Y-11029546D01*
X2422081Y-11001825D01*
X2419000Y-10970546D01*
X2419000Y-10529454D01*
X2422081Y-10498175D01*
X2430490Y-10470454D01*
X2444143Y-10444911D01*
X2462519Y-10422519D01*
X2484911Y-10404143D01*
X2510454Y-10390490D01*
X2538175Y-10382081D01*
X2569454Y-10379000D01*
X2960546Y-10379000D01*
X2991825Y-10382081D01*
X2991825Y-10382081D01*
G37*
G36*
X8751825Y-9922081D02*
X8779546Y-9930490D01*
X8805089Y-9944143D01*
X8827481Y-9962519D01*
X8845857Y-9984911D01*
X8859510Y-10010454D01*
X8867919Y-10038175D01*
X8871000Y-10069454D01*
X8871000Y-10460546D01*
X8867919Y-10491825D01*
X8859510Y-10519546D01*
X8845857Y-10545089D01*
X8827481Y-10567481D01*
X8805089Y-10585857D01*
X8779546Y-10599510D01*
X8751825Y-10607919D01*
X8720546Y-10611000D01*
X8279454Y-10611000D01*
X8248175Y-10607919D01*
X8220454Y-10599510D01*
X8194911Y-10585857D01*
X8172519Y-10567481D01*
X8154143Y-10545089D01*
X8140490Y-10519546D01*
X8132081Y-10491825D01*
X8129000Y-10460546D01*
X8129000Y-10069454D01*
X8132081Y-10038175D01*
X8140490Y-10010454D01*
X8154143Y-9984911D01*
X8172519Y-9962519D01*
X8194911Y-9944143D01*
X8220454Y-9930490D01*
X8248175Y-9922081D01*
X8279454Y-9919000D01*
X8720546Y-9919000D01*
X8751825Y-9922081D01*
X8751825Y-9922081D01*
G37*
G36*
X9776000Y-10526000D02*
X9374000Y-10526000D01*
X9374000Y-10124000D01*
X9776000Y-10124000D01*
X9776000Y-10526000D01*
X9776000Y-10526000D01*
G37*
G36*
X15626000Y-10526000D02*
X15224000Y-10526000D01*
X15224000Y-10124000D01*
X15626000Y-10124000D01*
X15626000Y-10526000D01*
X15626000Y-10526000D01*
G37*
G36*
X14976000Y-10526000D02*
X14574000Y-10526000D01*
X14574000Y-10124000D01*
X14976000Y-10124000D01*
X14976000Y-10526000D01*
X14976000Y-10526000D01*
G37*
G36*
X10426000Y-10526000D02*
X10024000Y-10526000D01*
X10024000Y-10124000D01*
X10426000Y-10124000D01*
X10426000Y-10526000D01*
X10426000Y-10526000D01*
G37*
G36*
X2991825Y-9382081D02*
X3019546Y-9390490D01*
X3045089Y-9404143D01*
X3067481Y-9422519D01*
X3085857Y-9444911D01*
X3099510Y-9470454D01*
X3107919Y-9498175D01*
X3111000Y-9529454D01*
X3111000Y-9970546D01*
X3107919Y-10001825D01*
X3099510Y-10029546D01*
X3085857Y-10055089D01*
X3067481Y-10077481D01*
X3045089Y-10095857D01*
X3019546Y-10109510D01*
X2991825Y-10117919D01*
X2960546Y-10121000D01*
X2569454Y-10121000D01*
X2538175Y-10117919D01*
X2510454Y-10109510D01*
X2484911Y-10095857D01*
X2462519Y-10077481D01*
X2444143Y-10055089D01*
X2430490Y-10029546D01*
X2422081Y-10001825D01*
X2419000Y-9970546D01*
X2419000Y-9529454D01*
X2422081Y-9498175D01*
X2430490Y-9470454D01*
X2444143Y-9444911D01*
X2462519Y-9422519D01*
X2484911Y-9404143D01*
X2510454Y-9390490D01*
X2538175Y-9382081D01*
X2569454Y-9379000D01*
X2960546Y-9379000D01*
X2991825Y-9382081D01*
X2991825Y-9382081D01*
G37*
G36*
X3961825Y-9382081D02*
X3989546Y-9390490D01*
X4015089Y-9404143D01*
X4037481Y-9422519D01*
X4055857Y-9444911D01*
X4069510Y-9470454D01*
X4077919Y-9498175D01*
X4081000Y-9529454D01*
X4081000Y-9970546D01*
X4077919Y-10001825D01*
X4069510Y-10029546D01*
X4055857Y-10055089D01*
X4037481Y-10077481D01*
X4015089Y-10095857D01*
X3989546Y-10109510D01*
X3961825Y-10117919D01*
X3930546Y-10121000D01*
X3539454Y-10121000D01*
X3508175Y-10117919D01*
X3480454Y-10109510D01*
X3454911Y-10095857D01*
X3432519Y-10077481D01*
X3414143Y-10055089D01*
X3400490Y-10029546D01*
X3392081Y-10001825D01*
X3389000Y-9970546D01*
X3389000Y-9529454D01*
X3392081Y-9498175D01*
X3400490Y-9470454D01*
X3414143Y-9444911D01*
X3432519Y-9422519D01*
X3454911Y-9404143D01*
X3480454Y-9390490D01*
X3508175Y-9382081D01*
X3539454Y-9379000D01*
X3930546Y-9379000D01*
X3961825Y-9382081D01*
X3961825Y-9382081D01*
G37*
G36*
X10426000Y-9876000D02*
X10024000Y-9876000D01*
X10024000Y-9474000D01*
X10426000Y-9474000D01*
X10426000Y-9876000D01*
X10426000Y-9876000D01*
G37*
G36*
X14976000Y-9876000D02*
X14574000Y-9876000D01*
X14574000Y-9474000D01*
X14976000Y-9474000D01*
X14976000Y-9876000D01*
X14976000Y-9876000D01*
G37*
G36*
X15626000Y-9876000D02*
X15224000Y-9876000D01*
X15224000Y-9474000D01*
X15626000Y-9474000D01*
X15626000Y-9876000D01*
X15626000Y-9876000D01*
G37*
G36*
X9776000Y-9876000D02*
X9374000Y-9876000D01*
X9374000Y-9474000D01*
X9776000Y-9474000D01*
X9776000Y-9876000D01*
X9776000Y-9876000D01*
G37*
G36*
X10426000Y-9226000D02*
X10024000Y-9226000D01*
X10024000Y-8824000D01*
X10426000Y-8824000D01*
X10426000Y-9226000D01*
X10426000Y-9226000D01*
G37*
G36*
X9776000Y-9226000D02*
X9374000Y-9226000D01*
X9374000Y-8824000D01*
X9776000Y-8824000D01*
X9776000Y-9226000D01*
X9776000Y-9226000D01*
G37*
G36*
X14976000Y-9226000D02*
X14574000Y-9226000D01*
X14574000Y-8824000D01*
X14976000Y-8824000D01*
X14976000Y-9226000D01*
X14976000Y-9226000D01*
G37*
G36*
X15626000Y-9226000D02*
X15224000Y-9226000D01*
X15224000Y-8824000D01*
X15626000Y-8824000D01*
X15626000Y-9226000D01*
X15626000Y-9226000D01*
G37*
G36*
X8091825Y-8472081D02*
X8119546Y-8480490D01*
X8145089Y-8494143D01*
X8167481Y-8512519D01*
X8185857Y-8534911D01*
X8199510Y-8560454D01*
X8207919Y-8588175D01*
X8211000Y-8619454D01*
X8211000Y-9010546D01*
X8207919Y-9041825D01*
X8199510Y-9069546D01*
X8185857Y-9095089D01*
X8167481Y-9117481D01*
X8145089Y-9135857D01*
X8119546Y-9149510D01*
X8091825Y-9157919D01*
X8060546Y-9161000D01*
X7619454Y-9161000D01*
X7588175Y-9157919D01*
X7560454Y-9149510D01*
X7534911Y-9135857D01*
X7512519Y-9117481D01*
X7494143Y-9095089D01*
X7480490Y-9069546D01*
X7472081Y-9041825D01*
X7469000Y-9010546D01*
X7469000Y-8619454D01*
X7472081Y-8588175D01*
X7480490Y-8560454D01*
X7494143Y-8534911D01*
X7512519Y-8512519D01*
X7534911Y-8494143D01*
X7560454Y-8480490D01*
X7588175Y-8472081D01*
X7619454Y-8469000D01*
X8060546Y-8469000D01*
X8091825Y-8472081D01*
X8091825Y-8472081D01*
G37*
G36*
X6001825Y-8472081D02*
X6029546Y-8480490D01*
X6055089Y-8494143D01*
X6077481Y-8512519D01*
X6095857Y-8534911D01*
X6109510Y-8560454D01*
X6117919Y-8588175D01*
X6121000Y-8619454D01*
X6121000Y-9010546D01*
X6117919Y-9041825D01*
X6109510Y-9069546D01*
X6095857Y-9095089D01*
X6077481Y-9117481D01*
X6055089Y-9135857D01*
X6029546Y-9149510D01*
X6001825Y-9157919D01*
X5970546Y-9161000D01*
X5529454Y-9161000D01*
X5498175Y-9157919D01*
X5470454Y-9149510D01*
X5444911Y-9135857D01*
X5422519Y-9117481D01*
X5404143Y-9095089D01*
X5390490Y-9069546D01*
X5382081Y-9041825D01*
X5379000Y-9010546D01*
X5379000Y-8619454D01*
X5382081Y-8588175D01*
X5390490Y-8560454D01*
X5404143Y-8534911D01*
X5422519Y-8512519D01*
X5444911Y-8494143D01*
X5470454Y-8480490D01*
X5498175Y-8472081D01*
X5529454Y-8469000D01*
X5970546Y-8469000D01*
X6001825Y-8472081D01*
X6001825Y-8472081D01*
G37*
G36*
X7041825Y-8472081D02*
X7069546Y-8480490D01*
X7095089Y-8494143D01*
X7117481Y-8512519D01*
X7135857Y-8534911D01*
X7149510Y-8560454D01*
X7157919Y-8588175D01*
X7161000Y-8619454D01*
X7161000Y-9010546D01*
X7157919Y-9041825D01*
X7149510Y-9069546D01*
X7135857Y-9095089D01*
X7117481Y-9117481D01*
X7095089Y-9135857D01*
X7069546Y-9149510D01*
X7041825Y-9157919D01*
X7010546Y-9161000D01*
X6569454Y-9161000D01*
X6538175Y-9157919D01*
X6510454Y-9149510D01*
X6484911Y-9135857D01*
X6462519Y-9117481D01*
X6444143Y-9095089D01*
X6430490Y-9069546D01*
X6422081Y-9041825D01*
X6419000Y-9010546D01*
X6419000Y-8619454D01*
X6422081Y-8588175D01*
X6430490Y-8560454D01*
X6444143Y-8534911D01*
X6462519Y-8512519D01*
X6484911Y-8494143D01*
X6510454Y-8480490D01*
X6538175Y-8472081D01*
X6569454Y-8469000D01*
X7010546Y-8469000D01*
X7041825Y-8472081D01*
X7041825Y-8472081D01*
G37*
G36*
X2991825Y-8382081D02*
X3019546Y-8390490D01*
X3045089Y-8404143D01*
X3067481Y-8422519D01*
X3085857Y-8444911D01*
X3099510Y-8470454D01*
X3107919Y-8498175D01*
X3111000Y-8529454D01*
X3111000Y-8970546D01*
X3107919Y-9001825D01*
X3099510Y-9029546D01*
X3085857Y-9055089D01*
X3067481Y-9077481D01*
X3045089Y-9095857D01*
X3019546Y-9109510D01*
X2991825Y-9117919D01*
X2960546Y-9121000D01*
X2569454Y-9121000D01*
X2538175Y-9117919D01*
X2510454Y-9109510D01*
X2484911Y-9095857D01*
X2462519Y-9077481D01*
X2444143Y-9055089D01*
X2430490Y-9029546D01*
X2422081Y-9001825D01*
X2419000Y-8970546D01*
X2419000Y-8529454D01*
X2422081Y-8498175D01*
X2430490Y-8470454D01*
X2444143Y-8444911D01*
X2462519Y-8422519D01*
X2484911Y-8404143D01*
X2510454Y-8390490D01*
X2538175Y-8382081D01*
X2569454Y-8379000D01*
X2960546Y-8379000D01*
X2991825Y-8382081D01*
X2991825Y-8382081D01*
G37*
G36*
X3961825Y-8382081D02*
X3989546Y-8390490D01*
X4015089Y-8404143D01*
X4037481Y-8422519D01*
X4055857Y-8444911D01*
X4069510Y-8470454D01*
X4077919Y-8498175D01*
X4081000Y-8529454D01*
X4081000Y-8970546D01*
X4077919Y-9001825D01*
X4069510Y-9029546D01*
X4055857Y-9055089D01*
X4037481Y-9077481D01*
X4015089Y-9095857D01*
X3989546Y-9109510D01*
X3961825Y-9117919D01*
X3930546Y-9121000D01*
X3539454Y-9121000D01*
X3508175Y-9117919D01*
X3480454Y-9109510D01*
X3454911Y-9095857D01*
X3432519Y-9077481D01*
X3414143Y-9055089D01*
X3400490Y-9029546D01*
X3392081Y-9001825D01*
X3389000Y-8970546D01*
X3389000Y-8529454D01*
X3392081Y-8498175D01*
X3400490Y-8470454D01*
X3414143Y-8444911D01*
X3432519Y-8422519D01*
X3454911Y-8404143D01*
X3480454Y-8390490D01*
X3508175Y-8382081D01*
X3539454Y-8379000D01*
X3930546Y-8379000D01*
X3961825Y-8382081D01*
X3961825Y-8382081D01*
G37*
G36*
X16801825Y-8012081D02*
X16829546Y-8020490D01*
X16855089Y-8034143D01*
X16877481Y-8052519D01*
X16895857Y-8074911D01*
X16909510Y-8100454D01*
X16917919Y-8128175D01*
X16921000Y-8159454D01*
X16921000Y-8550546D01*
X16917919Y-8581825D01*
X16909510Y-8609546D01*
X16895857Y-8635089D01*
X16877481Y-8657481D01*
X16855089Y-8675857D01*
X16829546Y-8689510D01*
X16801825Y-8697919D01*
X16770546Y-8701000D01*
X16329454Y-8701000D01*
X16298175Y-8697919D01*
X16270454Y-8689510D01*
X16244911Y-8675857D01*
X16222519Y-8657481D01*
X16204143Y-8635089D01*
X16190490Y-8609546D01*
X16182081Y-8581825D01*
X16179000Y-8550546D01*
X16179000Y-8159454D01*
X16182081Y-8128175D01*
X16190490Y-8100454D01*
X16204143Y-8074911D01*
X16222519Y-8052519D01*
X16244911Y-8034143D01*
X16270454Y-8020490D01*
X16298175Y-8012081D01*
X16329454Y-8009000D01*
X16770546Y-8009000D01*
X16801825Y-8012081D01*
X16801825Y-8012081D01*
G37*
G36*
X15626000Y-8576000D02*
X15224000Y-8576000D01*
X15224000Y-8174000D01*
X15626000Y-8174000D01*
X15626000Y-8576000D01*
X15626000Y-8576000D01*
G37*
G36*
X14976000Y-8576000D02*
X14574000Y-8576000D01*
X14574000Y-8174000D01*
X14976000Y-8174000D01*
X14976000Y-8576000D01*
X14976000Y-8576000D01*
G37*
G36*
X9776000Y-8576000D02*
X9374000Y-8576000D01*
X9374000Y-8174000D01*
X9776000Y-8174000D01*
X9776000Y-8576000D01*
X9776000Y-8576000D01*
G37*
G36*
X10426000Y-8576000D02*
X10024000Y-8576000D01*
X10024000Y-8174000D01*
X10426000Y-8174000D01*
X10426000Y-8576000D01*
X10426000Y-8576000D01*
G37*
G36*
X6001825Y-7502081D02*
X6029546Y-7510490D01*
X6055089Y-7524143D01*
X6077481Y-7542519D01*
X6095857Y-7564911D01*
X6109510Y-7590454D01*
X6117919Y-7618175D01*
X6121000Y-7649454D01*
X6121000Y-8040546D01*
X6117919Y-8071825D01*
X6109510Y-8099546D01*
X6095857Y-8125089D01*
X6077481Y-8147481D01*
X6055089Y-8165857D01*
X6029546Y-8179510D01*
X6001825Y-8187919D01*
X5970546Y-8191000D01*
X5529454Y-8191000D01*
X5498175Y-8187919D01*
X5470454Y-8179510D01*
X5444911Y-8165857D01*
X5422519Y-8147481D01*
X5404143Y-8125089D01*
X5390490Y-8099546D01*
X5382081Y-8071825D01*
X5379000Y-8040546D01*
X5379000Y-7649454D01*
X5382081Y-7618175D01*
X5390490Y-7590454D01*
X5404143Y-7564911D01*
X5422519Y-7542519D01*
X5444911Y-7524143D01*
X5470454Y-7510490D01*
X5498175Y-7502081D01*
X5529454Y-7499000D01*
X5970546Y-7499000D01*
X6001825Y-7502081D01*
X6001825Y-7502081D01*
G37*
G36*
X7041825Y-7502081D02*
X7069546Y-7510490D01*
X7095089Y-7524143D01*
X7117481Y-7542519D01*
X7135857Y-7564911D01*
X7149510Y-7590454D01*
X7157919Y-7618175D01*
X7161000Y-7649454D01*
X7161000Y-8040546D01*
X7157919Y-8071825D01*
X7149510Y-8099546D01*
X7135857Y-8125089D01*
X7117481Y-8147481D01*
X7095089Y-8165857D01*
X7069546Y-8179510D01*
X7041825Y-8187919D01*
X7010546Y-8191000D01*
X6569454Y-8191000D01*
X6538175Y-8187919D01*
X6510454Y-8179510D01*
X6484911Y-8165857D01*
X6462519Y-8147481D01*
X6444143Y-8125089D01*
X6430490Y-8099546D01*
X6422081Y-8071825D01*
X6419000Y-8040546D01*
X6419000Y-7649454D01*
X6422081Y-7618175D01*
X6430490Y-7590454D01*
X6444143Y-7564911D01*
X6462519Y-7542519D01*
X6484911Y-7524143D01*
X6510454Y-7510490D01*
X6538175Y-7502081D01*
X6569454Y-7499000D01*
X7010546Y-7499000D01*
X7041825Y-7502081D01*
X7041825Y-7502081D01*
G37*
G36*
X8091825Y-7502081D02*
X8119546Y-7510490D01*
X8145089Y-7524143D01*
X8167481Y-7542519D01*
X8185857Y-7564911D01*
X8199510Y-7590454D01*
X8207919Y-7618175D01*
X8211000Y-7649454D01*
X8211000Y-8040546D01*
X8207919Y-8071825D01*
X8199510Y-8099546D01*
X8185857Y-8125089D01*
X8167481Y-8147481D01*
X8145089Y-8165857D01*
X8119546Y-8179510D01*
X8091825Y-8187919D01*
X8060546Y-8191000D01*
X7619454Y-8191000D01*
X7588175Y-8187919D01*
X7560454Y-8179510D01*
X7534911Y-8165857D01*
X7512519Y-8147481D01*
X7494143Y-8125089D01*
X7480490Y-8099546D01*
X7472081Y-8071825D01*
X7469000Y-8040546D01*
X7469000Y-7649454D01*
X7472081Y-7618175D01*
X7480490Y-7590454D01*
X7494143Y-7564911D01*
X7512519Y-7542519D01*
X7534911Y-7524143D01*
X7560454Y-7510490D01*
X7588175Y-7502081D01*
X7619454Y-7499000D01*
X8060546Y-7499000D01*
X8091825Y-7502081D01*
X8091825Y-7502081D01*
G37*
G36*
X9776000Y-7926000D02*
X9374000Y-7926000D01*
X9374000Y-7524000D01*
X9776000Y-7524000D01*
X9776000Y-7926000D01*
X9776000Y-7926000D01*
G37*
G36*
X10426000Y-7926000D02*
X10024000Y-7926000D01*
X10024000Y-7524000D01*
X10426000Y-7524000D01*
X10426000Y-7926000D01*
X10426000Y-7926000D01*
G37*
G36*
X11076000Y-7926000D02*
X10674000Y-7926000D01*
X10674000Y-7524000D01*
X11076000Y-7524000D01*
X11076000Y-7926000D01*
X11076000Y-7926000D01*
G37*
G36*
X14326000Y-7926000D02*
X13924000Y-7926000D01*
X13924000Y-7524000D01*
X14326000Y-7524000D01*
X14326000Y-7926000D01*
X14326000Y-7926000D01*
G37*
G36*
X14976000Y-7926000D02*
X14574000Y-7926000D01*
X14574000Y-7524000D01*
X14976000Y-7524000D01*
X14976000Y-7926000D01*
X14976000Y-7926000D01*
G37*
G36*
X15626000Y-7926000D02*
X15224000Y-7926000D01*
X15224000Y-7524000D01*
X15626000Y-7524000D01*
X15626000Y-7926000D01*
X15626000Y-7926000D01*
G37*
G36*
X16801825Y-7042081D02*
X16829546Y-7050490D01*
X16855089Y-7064143D01*
X16877481Y-7082519D01*
X16895857Y-7104911D01*
X16909510Y-7130454D01*
X16917919Y-7158175D01*
X16921000Y-7189454D01*
X16921000Y-7580546D01*
X16917919Y-7611825D01*
X16909510Y-7639546D01*
X16895857Y-7665089D01*
X16877481Y-7687481D01*
X16855089Y-7705857D01*
X16829546Y-7719510D01*
X16801825Y-7727919D01*
X16770546Y-7731000D01*
X16329454Y-7731000D01*
X16298175Y-7727919D01*
X16270454Y-7719510D01*
X16244911Y-7705857D01*
X16222519Y-7687481D01*
X16204143Y-7665089D01*
X16190490Y-7639546D01*
X16182081Y-7611825D01*
X16179000Y-7580546D01*
X16179000Y-7189454D01*
X16182081Y-7158175D01*
X16190490Y-7130454D01*
X16204143Y-7104911D01*
X16222519Y-7082519D01*
X16244911Y-7064143D01*
X16270454Y-7050490D01*
X16298175Y-7042081D01*
X16329454Y-7039000D01*
X16770546Y-7039000D01*
X16801825Y-7042081D01*
X16801825Y-7042081D01*
G37*
G36*
X12376000Y-7276000D02*
X11974000Y-7276000D01*
X11974000Y-6874000D01*
X12376000Y-6874000D01*
X12376000Y-7276000D01*
X12376000Y-7276000D01*
G37*
G36*
X11726000Y-7276000D02*
X11324000Y-7276000D01*
X11324000Y-6874000D01*
X11726000Y-6874000D01*
X11726000Y-7276000D01*
X11726000Y-7276000D01*
G37*
G36*
X13026000Y-7276000D02*
X12624000Y-7276000D01*
X12624000Y-6874000D01*
X13026000Y-6874000D01*
X13026000Y-7276000D01*
X13026000Y-7276000D01*
G37*
G36*
X13676000Y-7276000D02*
X13274000Y-7276000D01*
X13274000Y-6874000D01*
X13676000Y-6874000D01*
X13676000Y-7276000D01*
X13676000Y-7276000D01*
G37*
G36*
X11076000Y-7276000D02*
X10674000Y-7276000D01*
X10674000Y-6874000D01*
X11076000Y-6874000D01*
X11076000Y-7276000D01*
X11076000Y-7276000D01*
G37*
G36*
X10426000Y-7276000D02*
X10024000Y-7276000D01*
X10024000Y-6874000D01*
X10426000Y-6874000D01*
X10426000Y-7276000D01*
X10426000Y-7276000D01*
G37*
G36*
X9776000Y-7276000D02*
X9374000Y-7276000D01*
X9374000Y-6874000D01*
X9776000Y-6874000D01*
X9776000Y-7276000D01*
X9776000Y-7276000D01*
G37*
G36*
X14326000Y-7276000D02*
X13924000Y-7276000D01*
X13924000Y-6874000D01*
X14326000Y-6874000D01*
X14326000Y-7276000D01*
X14326000Y-7276000D01*
G37*
G36*
X14976000Y-7276000D02*
X14574000Y-7276000D01*
X14574000Y-6874000D01*
X14976000Y-6874000D01*
X14976000Y-7276000D01*
X14976000Y-7276000D01*
G37*
G36*
X15626000Y-7276000D02*
X15224000Y-7276000D01*
X15224000Y-6874000D01*
X15626000Y-6874000D01*
X15626000Y-7276000D01*
X15626000Y-7276000D01*
G37*
G36*
X21271825Y-6462081D02*
X21299546Y-6470490D01*
X21325089Y-6484143D01*
X21347481Y-6502519D01*
X21365857Y-6524911D01*
X21379510Y-6550454D01*
X21387919Y-6578175D01*
X21391000Y-6609454D01*
X21391000Y-7050546D01*
X21387919Y-7081825D01*
X21379510Y-7109546D01*
X21365857Y-7135089D01*
X21347481Y-7157481D01*
X21325089Y-7175857D01*
X21299546Y-7189510D01*
X21271825Y-7197919D01*
X21240546Y-7201000D01*
X20849454Y-7201000D01*
X20818175Y-7197919D01*
X20790454Y-7189510D01*
X20764911Y-7175857D01*
X20742519Y-7157481D01*
X20724143Y-7135089D01*
X20710490Y-7109546D01*
X20702081Y-7081825D01*
X20699000Y-7050546D01*
X20699000Y-6609454D01*
X20702081Y-6578175D01*
X20710490Y-6550454D01*
X20724143Y-6524911D01*
X20742519Y-6502519D01*
X20764911Y-6484143D01*
X20790454Y-6470490D01*
X20818175Y-6462081D01*
X20849454Y-6459000D01*
X21240546Y-6459000D01*
X21271825Y-6462081D01*
X21271825Y-6462081D01*
G37*
G36*
X20301825Y-6462081D02*
X20329546Y-6470490D01*
X20355089Y-6484143D01*
X20377481Y-6502519D01*
X20395857Y-6524911D01*
X20409510Y-6550454D01*
X20417919Y-6578175D01*
X20421000Y-6609454D01*
X20421000Y-7050546D01*
X20417919Y-7081825D01*
X20409510Y-7109546D01*
X20395857Y-7135089D01*
X20377481Y-7157481D01*
X20355089Y-7175857D01*
X20329546Y-7189510D01*
X20301825Y-7197919D01*
X20270546Y-7201000D01*
X19879454Y-7201000D01*
X19848175Y-7197919D01*
X19820454Y-7189510D01*
X19794911Y-7175857D01*
X19772519Y-7157481D01*
X19754143Y-7135089D01*
X19740490Y-7109546D01*
X19732081Y-7081825D01*
X19729000Y-7050546D01*
X19729000Y-6609454D01*
X19732081Y-6578175D01*
X19740490Y-6550454D01*
X19754143Y-6524911D01*
X19772519Y-6502519D01*
X19794911Y-6484143D01*
X19820454Y-6470490D01*
X19848175Y-6462081D01*
X19879454Y-6459000D01*
X20270546Y-6459000D01*
X20301825Y-6462081D01*
X20301825Y-6462081D01*
G37*
G36*
X6001825Y-6422081D02*
X6029546Y-6430490D01*
X6055089Y-6444143D01*
X6077481Y-6462519D01*
X6095857Y-6484911D01*
X6109510Y-6510454D01*
X6117919Y-6538175D01*
X6121000Y-6569454D01*
X6121000Y-6960546D01*
X6117919Y-6991825D01*
X6109510Y-7019546D01*
X6095857Y-7045089D01*
X6077481Y-7067481D01*
X6055089Y-7085857D01*
X6029546Y-7099510D01*
X6001825Y-7107919D01*
X5970546Y-7111000D01*
X5529454Y-7111000D01*
X5498175Y-7107919D01*
X5470454Y-7099510D01*
X5444911Y-7085857D01*
X5422519Y-7067481D01*
X5404143Y-7045089D01*
X5390490Y-7019546D01*
X5382081Y-6991825D01*
X5379000Y-6960546D01*
X5379000Y-6569454D01*
X5382081Y-6538175D01*
X5390490Y-6510454D01*
X5404143Y-6484911D01*
X5422519Y-6462519D01*
X5444911Y-6444143D01*
X5470454Y-6430490D01*
X5498175Y-6422081D01*
X5529454Y-6419000D01*
X5970546Y-6419000D01*
X6001825Y-6422081D01*
X6001825Y-6422081D01*
G37*
G36*
X8101825Y-6422081D02*
X8129546Y-6430490D01*
X8155089Y-6444143D01*
X8177481Y-6462519D01*
X8195857Y-6484911D01*
X8209510Y-6510454D01*
X8217919Y-6538175D01*
X8221000Y-6569454D01*
X8221000Y-6960546D01*
X8217919Y-6991825D01*
X8209510Y-7019546D01*
X8195857Y-7045089D01*
X8177481Y-7067481D01*
X8155089Y-7085857D01*
X8129546Y-7099510D01*
X8101825Y-7107919D01*
X8070546Y-7111000D01*
X7629454Y-7111000D01*
X7598175Y-7107919D01*
X7570454Y-7099510D01*
X7544911Y-7085857D01*
X7522519Y-7067481D01*
X7504143Y-7045089D01*
X7490490Y-7019546D01*
X7482081Y-6991825D01*
X7479000Y-6960546D01*
X7479000Y-6569454D01*
X7482081Y-6538175D01*
X7490490Y-6510454D01*
X7504143Y-6484911D01*
X7522519Y-6462519D01*
X7544911Y-6444143D01*
X7570454Y-6430490D01*
X7598175Y-6422081D01*
X7629454Y-6419000D01*
X8070546Y-6419000D01*
X8101825Y-6422081D01*
X8101825Y-6422081D01*
G37*
G36*
X7051825Y-6422081D02*
X7079546Y-6430490D01*
X7105089Y-6444143D01*
X7127481Y-6462519D01*
X7145857Y-6484911D01*
X7159510Y-6510454D01*
X7167919Y-6538175D01*
X7171000Y-6569454D01*
X7171000Y-6960546D01*
X7167919Y-6991825D01*
X7159510Y-7019546D01*
X7145857Y-7045089D01*
X7127481Y-7067481D01*
X7105089Y-7085857D01*
X7079546Y-7099510D01*
X7051825Y-7107919D01*
X7020546Y-7111000D01*
X6579454Y-7111000D01*
X6548175Y-7107919D01*
X6520454Y-7099510D01*
X6494911Y-7085857D01*
X6472519Y-7067481D01*
X6454143Y-7045089D01*
X6440490Y-7019546D01*
X6432081Y-6991825D01*
X6429000Y-6960546D01*
X6429000Y-6569454D01*
X6432081Y-6538175D01*
X6440490Y-6510454D01*
X6454143Y-6484911D01*
X6472519Y-6462519D01*
X6494911Y-6444143D01*
X6520454Y-6430490D01*
X6548175Y-6422081D01*
X6579454Y-6419000D01*
X7020546Y-6419000D01*
X7051825Y-6422081D01*
X7051825Y-6422081D01*
G37*
G36*
X15626000Y-6626000D02*
X15224000Y-6626000D01*
X15224000Y-6224000D01*
X15626000Y-6224000D01*
X15626000Y-6626000D01*
X15626000Y-6626000D01*
G37*
G36*
X9776000Y-6626000D02*
X9374000Y-6626000D01*
X9374000Y-6224000D01*
X9776000Y-6224000D01*
X9776000Y-6626000D01*
X9776000Y-6626000D01*
G37*
G36*
X10426000Y-6626000D02*
X10024000Y-6626000D01*
X10024000Y-6224000D01*
X10426000Y-6224000D01*
X10426000Y-6626000D01*
X10426000Y-6626000D01*
G37*
G36*
X13676000Y-6626000D02*
X13274000Y-6626000D01*
X13274000Y-6224000D01*
X13676000Y-6224000D01*
X13676000Y-6626000D01*
X13676000Y-6626000D01*
G37*
G36*
X11726000Y-6626000D02*
X11324000Y-6626000D01*
X11324000Y-6224000D01*
X11726000Y-6224000D01*
X11726000Y-6626000D01*
X11726000Y-6626000D01*
G37*
G36*
X13026000Y-6626000D02*
X12624000Y-6626000D01*
X12624000Y-6224000D01*
X13026000Y-6224000D01*
X13026000Y-6626000D01*
X13026000Y-6626000D01*
G37*
G36*
X14326000Y-6626000D02*
X13924000Y-6626000D01*
X13924000Y-6224000D01*
X14326000Y-6224000D01*
X14326000Y-6626000D01*
X14326000Y-6626000D01*
G37*
G36*
X11076000Y-6626000D02*
X10674000Y-6626000D01*
X10674000Y-6224000D01*
X11076000Y-6224000D01*
X11076000Y-6626000D01*
X11076000Y-6626000D01*
G37*
G36*
X14976000Y-6626000D02*
X14574000Y-6626000D01*
X14574000Y-6224000D01*
X14976000Y-6224000D01*
X14976000Y-6626000D01*
X14976000Y-6626000D01*
G37*
G36*
X12376000Y-6626000D02*
X11974000Y-6626000D01*
X11974000Y-6224000D01*
X12376000Y-6224000D01*
X12376000Y-6626000D01*
X12376000Y-6626000D01*
G37*
G36*
X6001825Y-5452081D02*
X6029546Y-5460490D01*
X6055089Y-5474143D01*
X6077481Y-5492519D01*
X6095857Y-5514911D01*
X6109510Y-5540454D01*
X6117919Y-5568175D01*
X6121000Y-5599454D01*
X6121000Y-5990546D01*
X6117919Y-6021825D01*
X6109510Y-6049546D01*
X6095857Y-6075089D01*
X6077481Y-6097481D01*
X6055089Y-6115857D01*
X6029546Y-6129510D01*
X6001825Y-6137919D01*
X5970546Y-6141000D01*
X5529454Y-6141000D01*
X5498175Y-6137919D01*
X5470454Y-6129510D01*
X5444911Y-6115857D01*
X5422519Y-6097481D01*
X5404143Y-6075089D01*
X5390490Y-6049546D01*
X5382081Y-6021825D01*
X5379000Y-5990546D01*
X5379000Y-5599454D01*
X5382081Y-5568175D01*
X5390490Y-5540454D01*
X5404143Y-5514911D01*
X5422519Y-5492519D01*
X5444911Y-5474143D01*
X5470454Y-5460490D01*
X5498175Y-5452081D01*
X5529454Y-5449000D01*
X5970546Y-5449000D01*
X6001825Y-5452081D01*
X6001825Y-5452081D01*
G37*
G36*
X8101825Y-5452081D02*
X8129546Y-5460490D01*
X8155089Y-5474143D01*
X8177481Y-5492519D01*
X8195857Y-5514911D01*
X8209510Y-5540454D01*
X8217919Y-5568175D01*
X8221000Y-5599454D01*
X8221000Y-5990546D01*
X8217919Y-6021825D01*
X8209510Y-6049546D01*
X8195857Y-6075089D01*
X8177481Y-6097481D01*
X8155089Y-6115857D01*
X8129546Y-6129510D01*
X8101825Y-6137919D01*
X8070546Y-6141000D01*
X7629454Y-6141000D01*
X7598175Y-6137919D01*
X7570454Y-6129510D01*
X7544911Y-6115857D01*
X7522519Y-6097481D01*
X7504143Y-6075089D01*
X7490490Y-6049546D01*
X7482081Y-6021825D01*
X7479000Y-5990546D01*
X7479000Y-5599454D01*
X7482081Y-5568175D01*
X7490490Y-5540454D01*
X7504143Y-5514911D01*
X7522519Y-5492519D01*
X7544911Y-5474143D01*
X7570454Y-5460490D01*
X7598175Y-5452081D01*
X7629454Y-5449000D01*
X8070546Y-5449000D01*
X8101825Y-5452081D01*
X8101825Y-5452081D01*
G37*
G36*
X7051825Y-5452081D02*
X7079546Y-5460490D01*
X7105089Y-5474143D01*
X7127481Y-5492519D01*
X7145857Y-5514911D01*
X7159510Y-5540454D01*
X7167919Y-5568175D01*
X7171000Y-5599454D01*
X7171000Y-5990546D01*
X7167919Y-6021825D01*
X7159510Y-6049546D01*
X7145857Y-6075089D01*
X7127481Y-6097481D01*
X7105089Y-6115857D01*
X7079546Y-6129510D01*
X7051825Y-6137919D01*
X7020546Y-6141000D01*
X6579454Y-6141000D01*
X6548175Y-6137919D01*
X6520454Y-6129510D01*
X6494911Y-6115857D01*
X6472519Y-6097481D01*
X6454143Y-6075089D01*
X6440490Y-6049546D01*
X6432081Y-6021825D01*
X6429000Y-5990546D01*
X6429000Y-5599454D01*
X6432081Y-5568175D01*
X6440490Y-5540454D01*
X6454143Y-5514911D01*
X6472519Y-5492519D01*
X6494911Y-5474143D01*
X6520454Y-5460490D01*
X6548175Y-5452081D01*
X6579454Y-5449000D01*
X7020546Y-5449000D01*
X7051825Y-5452081D01*
X7051825Y-5452081D01*
G37*
G36*
X13676000Y-5976000D02*
X13274000Y-5976000D01*
X13274000Y-5574000D01*
X13676000Y-5574000D01*
X13676000Y-5976000D01*
X13676000Y-5976000D01*
G37*
G36*
X14976000Y-5976000D02*
X14574000Y-5976000D01*
X14574000Y-5574000D01*
X14976000Y-5574000D01*
X14976000Y-5976000D01*
X14976000Y-5976000D01*
G37*
G36*
X14326000Y-5976000D02*
X13924000Y-5976000D01*
X13924000Y-5574000D01*
X14326000Y-5574000D01*
X14326000Y-5976000D01*
X14326000Y-5976000D01*
G37*
G36*
X13026000Y-5976000D02*
X12624000Y-5976000D01*
X12624000Y-5574000D01*
X13026000Y-5574000D01*
X13026000Y-5976000D01*
X13026000Y-5976000D01*
G37*
G36*
X12376000Y-5976000D02*
X11974000Y-5976000D01*
X11974000Y-5574000D01*
X12376000Y-5574000D01*
X12376000Y-5976000D01*
X12376000Y-5976000D01*
G37*
G36*
X11076000Y-5976000D02*
X10674000Y-5976000D01*
X10674000Y-5574000D01*
X11076000Y-5574000D01*
X11076000Y-5976000D01*
X11076000Y-5976000D01*
G37*
G36*
X10426000Y-5976000D02*
X10024000Y-5976000D01*
X10024000Y-5574000D01*
X10426000Y-5574000D01*
X10426000Y-5976000D01*
X10426000Y-5976000D01*
G37*
G36*
X9776000Y-5976000D02*
X9374000Y-5976000D01*
X9374000Y-5574000D01*
X9776000Y-5574000D01*
X9776000Y-5976000D01*
X9776000Y-5976000D01*
G37*
G36*
X15626000Y-5976000D02*
X15224000Y-5976000D01*
X15224000Y-5574000D01*
X15626000Y-5574000D01*
X15626000Y-5976000D01*
X15626000Y-5976000D01*
G37*
G36*
X11726000Y-5976000D02*
X11324000Y-5976000D01*
X11324000Y-5574000D01*
X11726000Y-5574000D01*
X11726000Y-5976000D01*
X11726000Y-5976000D01*
G37*
G36*
X17741825Y-5062081D02*
X17769546Y-5070490D01*
X17795089Y-5084143D01*
X17817481Y-5102519D01*
X17835857Y-5124911D01*
X17849510Y-5150454D01*
X17857919Y-5178175D01*
X17861000Y-5209454D01*
X17861000Y-5650546D01*
X17857919Y-5681825D01*
X17849510Y-5709546D01*
X17835857Y-5735089D01*
X17817481Y-5757481D01*
X17795089Y-5775857D01*
X17769546Y-5789510D01*
X17741825Y-5797919D01*
X17710546Y-5801000D01*
X17319454Y-5801000D01*
X17288175Y-5797919D01*
X17260454Y-5789510D01*
X17234911Y-5775857D01*
X17212519Y-5757481D01*
X17194143Y-5735089D01*
X17180490Y-5709546D01*
X17172081Y-5681825D01*
X17169000Y-5650546D01*
X17169000Y-5209454D01*
X17172081Y-5178175D01*
X17180490Y-5150454D01*
X17194143Y-5124911D01*
X17212519Y-5102519D01*
X17234911Y-5084143D01*
X17260454Y-5070490D01*
X17288175Y-5062081D01*
X17319454Y-5059000D01*
X17710546Y-5059000D01*
X17741825Y-5062081D01*
X17741825Y-5062081D01*
G37*
G36*
X18711825Y-5062081D02*
X18739546Y-5070490D01*
X18765089Y-5084143D01*
X18787481Y-5102519D01*
X18805857Y-5124911D01*
X18819510Y-5150454D01*
X18827919Y-5178175D01*
X18831000Y-5209454D01*
X18831000Y-5650546D01*
X18827919Y-5681825D01*
X18819510Y-5709546D01*
X18805857Y-5735089D01*
X18787481Y-5757481D01*
X18765089Y-5775857D01*
X18739546Y-5789510D01*
X18711825Y-5797919D01*
X18680546Y-5801000D01*
X18289454Y-5801000D01*
X18258175Y-5797919D01*
X18230454Y-5789510D01*
X18204911Y-5775857D01*
X18182519Y-5757481D01*
X18164143Y-5735089D01*
X18150490Y-5709546D01*
X18142081Y-5681825D01*
X18139000Y-5650546D01*
X18139000Y-5209454D01*
X18142081Y-5178175D01*
X18150490Y-5150454D01*
X18164143Y-5124911D01*
X18182519Y-5102519D01*
X18204911Y-5084143D01*
X18230454Y-5070490D01*
X18258175Y-5062081D01*
X18289454Y-5059000D01*
X18680546Y-5059000D01*
X18711825Y-5062081D01*
X18711825Y-5062081D01*
G37*
G36*
X14921825Y-4292081D02*
X14949546Y-4300490D01*
X14975089Y-4314143D01*
X14997481Y-4332519D01*
X15015857Y-4354911D01*
X15029510Y-4380454D01*
X15037919Y-4408175D01*
X15041000Y-4439454D01*
X15041000Y-4830546D01*
X15037919Y-4861825D01*
X15029510Y-4889546D01*
X15015857Y-4915089D01*
X14997481Y-4937481D01*
X14975089Y-4955857D01*
X14949546Y-4969510D01*
X14921825Y-4977919D01*
X14890546Y-4981000D01*
X14449454Y-4981000D01*
X14418175Y-4977919D01*
X14390454Y-4969510D01*
X14364911Y-4955857D01*
X14342519Y-4937481D01*
X14324143Y-4915089D01*
X14310490Y-4889546D01*
X14302081Y-4861825D01*
X14299000Y-4830546D01*
X14299000Y-4439454D01*
X14302081Y-4408175D01*
X14310490Y-4380454D01*
X14324143Y-4354911D01*
X14342519Y-4332519D01*
X14364911Y-4314143D01*
X14390454Y-4300490D01*
X14418175Y-4292081D01*
X14449454Y-4289000D01*
X14890546Y-4289000D01*
X14921825Y-4292081D01*
X14921825Y-4292081D01*
G37*
G36*
X18701825Y-3972081D02*
X18729546Y-3980490D01*
X18755089Y-3994143D01*
X18777481Y-4012519D01*
X18795857Y-4034911D01*
X18809510Y-4060454D01*
X18817919Y-4088175D01*
X18821000Y-4119454D01*
X18821000Y-4560546D01*
X18817919Y-4591825D01*
X18809510Y-4619546D01*
X18795857Y-4645089D01*
X18777481Y-4667481D01*
X18755089Y-4685857D01*
X18729546Y-4699510D01*
X18701825Y-4707919D01*
X18670546Y-4711000D01*
X18279454Y-4711000D01*
X18248175Y-4707919D01*
X18220454Y-4699510D01*
X18194911Y-4685857D01*
X18172519Y-4667481D01*
X18154143Y-4645089D01*
X18140490Y-4619546D01*
X18132081Y-4591825D01*
X18129000Y-4560546D01*
X18129000Y-4119454D01*
X18132081Y-4088175D01*
X18140490Y-4060454D01*
X18154143Y-4034911D01*
X18172519Y-4012519D01*
X18194911Y-3994143D01*
X18220454Y-3980490D01*
X18248175Y-3972081D01*
X18279454Y-3969000D01*
X18670546Y-3969000D01*
X18701825Y-3972081D01*
X18701825Y-3972081D01*
G37*
G36*
X17731825Y-3972081D02*
X17759546Y-3980490D01*
X17785089Y-3994143D01*
X17807481Y-4012519D01*
X17825857Y-4034911D01*
X17839510Y-4060454D01*
X17847919Y-4088175D01*
X17851000Y-4119454D01*
X17851000Y-4560546D01*
X17847919Y-4591825D01*
X17839510Y-4619546D01*
X17825857Y-4645089D01*
X17807481Y-4667481D01*
X17785089Y-4685857D01*
X17759546Y-4699510D01*
X17731825Y-4707919D01*
X17700546Y-4711000D01*
X17309454Y-4711000D01*
X17278175Y-4707919D01*
X17250454Y-4699510D01*
X17224911Y-4685857D01*
X17202519Y-4667481D01*
X17184143Y-4645089D01*
X17170490Y-4619546D01*
X17162081Y-4591825D01*
X17159000Y-4560546D01*
X17159000Y-4119454D01*
X17162081Y-4088175D01*
X17170490Y-4060454D01*
X17184143Y-4034911D01*
X17202519Y-4012519D01*
X17224911Y-3994143D01*
X17250454Y-3980490D01*
X17278175Y-3972081D01*
X17309454Y-3969000D01*
X17700546Y-3969000D01*
X17731825Y-3972081D01*
X17731825Y-3972081D01*
G37*
G36*
X12431825Y-3352081D02*
X12459546Y-3360490D01*
X12485089Y-3374143D01*
X12507481Y-3392519D01*
X12525857Y-3414911D01*
X12539510Y-3440454D01*
X12547919Y-3468175D01*
X12551000Y-3499454D01*
X12551000Y-3890546D01*
X12547919Y-3921825D01*
X12539510Y-3949546D01*
X12525857Y-3975089D01*
X12507481Y-3997481D01*
X12485089Y-4015857D01*
X12459546Y-4029510D01*
X12431825Y-4037919D01*
X12400546Y-4041000D01*
X11959454Y-4041000D01*
X11928175Y-4037919D01*
X11900454Y-4029510D01*
X11874911Y-4015857D01*
X11852519Y-3997481D01*
X11834143Y-3975089D01*
X11820490Y-3949546D01*
X11812081Y-3921825D01*
X11809000Y-3890546D01*
X11809000Y-3499454D01*
X11812081Y-3468175D01*
X11820490Y-3440454D01*
X11834143Y-3414911D01*
X11852519Y-3392519D01*
X11874911Y-3374143D01*
X11900454Y-3360490D01*
X11928175Y-3352081D01*
X11959454Y-3349000D01*
X12400546Y-3349000D01*
X12431825Y-3352081D01*
X12431825Y-3352081D01*
G37*
G36*
X14921825Y-3322081D02*
X14949546Y-3330490D01*
X14975089Y-3344143D01*
X14997481Y-3362519D01*
X15015857Y-3384911D01*
X15029510Y-3410454D01*
X15037919Y-3438175D01*
X15041000Y-3469454D01*
X15041000Y-3860546D01*
X15037919Y-3891825D01*
X15029510Y-3919546D01*
X15015857Y-3945089D01*
X14997481Y-3967481D01*
X14975089Y-3985857D01*
X14949546Y-3999510D01*
X14921825Y-4007919D01*
X14890546Y-4011000D01*
X14449454Y-4011000D01*
X14418175Y-4007919D01*
X14390454Y-3999510D01*
X14364911Y-3985857D01*
X14342519Y-3967481D01*
X14324143Y-3945089D01*
X14310490Y-3919546D01*
X14302081Y-3891825D01*
X14299000Y-3860546D01*
X14299000Y-3469454D01*
X14302081Y-3438175D01*
X14310490Y-3410454D01*
X14324143Y-3384911D01*
X14342519Y-3362519D01*
X14364911Y-3344143D01*
X14390454Y-3330490D01*
X14418175Y-3322081D01*
X14449454Y-3319000D01*
X14890546Y-3319000D01*
X14921825Y-3322081D01*
X14921825Y-3322081D01*
G37*
G36*
X22960719Y-2179374D02*
X22960722Y-2179375D01*
X22960721Y-2179375D01*
X23060996Y-2220910D01*
X23151242Y-2281210D01*
X23227990Y-2357958D01*
X23288290Y-2448204D01*
X23317303Y-2518249D01*
X23329826Y-2548481D01*
X23351000Y-2654930D01*
X23351000Y-2763470D01*
X23329826Y-2869919D01*
X23329825Y-2869921D01*
X23288290Y-2970196D01*
X23227990Y-3060442D01*
X23151242Y-3137190D01*
X23060996Y-3197490D01*
X22990090Y-3226860D01*
X22960719Y-3239026D01*
X22854270Y-3260200D01*
X22745730Y-3260200D01*
X22639281Y-3239026D01*
X22609910Y-3226860D01*
X22539004Y-3197490D01*
X22448758Y-3137190D01*
X22372010Y-3060442D01*
X22311710Y-2970196D01*
X22270175Y-2869921D01*
X22270174Y-2869919D01*
X22249000Y-2763470D01*
X22249000Y-2654930D01*
X22270174Y-2548481D01*
X22282697Y-2518249D01*
X22311710Y-2448204D01*
X22372010Y-2357958D01*
X22448758Y-2281210D01*
X22539004Y-2220910D01*
X22639279Y-2179375D01*
X22639278Y-2179375D01*
X22639281Y-2179374D01*
X22745730Y-2158200D01*
X22854270Y-2158200D01*
X22960719Y-2179374D01*
X22960719Y-2179374D01*
G37*
G36*
X18640719Y-2179374D02*
X18640722Y-2179375D01*
X18640721Y-2179375D01*
X18740996Y-2220910D01*
X18831242Y-2281210D01*
X18907990Y-2357958D01*
X18968290Y-2448204D01*
X18997303Y-2518249D01*
X19009826Y-2548481D01*
X19031000Y-2654930D01*
X19031000Y-2763470D01*
X19009826Y-2869919D01*
X19009825Y-2869921D01*
X18968290Y-2970196D01*
X18907990Y-3060442D01*
X18831242Y-3137190D01*
X18740996Y-3197490D01*
X18670090Y-3226860D01*
X18640719Y-3239026D01*
X18534270Y-3260200D01*
X18425730Y-3260200D01*
X18319281Y-3239026D01*
X18289910Y-3226860D01*
X18219004Y-3197490D01*
X18128758Y-3137190D01*
X18052010Y-3060442D01*
X17991710Y-2970196D01*
X17950175Y-2869921D01*
X17950174Y-2869919D01*
X17929000Y-2763470D01*
X17929000Y-2654930D01*
X17950174Y-2548481D01*
X17962697Y-2518249D01*
X17991710Y-2448204D01*
X18052010Y-2357958D01*
X18128758Y-2281210D01*
X18219004Y-2220910D01*
X18319279Y-2179375D01*
X18319278Y-2179375D01*
X18319281Y-2179374D01*
X18425730Y-2158200D01*
X18534270Y-2158200D01*
X18640719Y-2179374D01*
X18640719Y-2179374D01*
G37*
G36*
X20150719Y-2179374D02*
X20150722Y-2179375D01*
X20150721Y-2179375D01*
X20250996Y-2220910D01*
X20341242Y-2281210D01*
X20417990Y-2357958D01*
X20478290Y-2448204D01*
X20507303Y-2518249D01*
X20519826Y-2548481D01*
X20541000Y-2654930D01*
X20541000Y-2763470D01*
X20519826Y-2869919D01*
X20519825Y-2869921D01*
X20478290Y-2970196D01*
X20417990Y-3060442D01*
X20341242Y-3137190D01*
X20250996Y-3197490D01*
X20180090Y-3226860D01*
X20150719Y-3239026D01*
X20044270Y-3260200D01*
X19935730Y-3260200D01*
X19829281Y-3239026D01*
X19799910Y-3226860D01*
X19729004Y-3197490D01*
X19638758Y-3137190D01*
X19562010Y-3060442D01*
X19501710Y-2970196D01*
X19460175Y-2869921D01*
X19460174Y-2869919D01*
X19439000Y-2763470D01*
X19439000Y-2654930D01*
X19460174Y-2548481D01*
X19472697Y-2518249D01*
X19501710Y-2448204D01*
X19562010Y-2357958D01*
X19638758Y-2281210D01*
X19729004Y-2220910D01*
X19829279Y-2179375D01*
X19829278Y-2179375D01*
X19829281Y-2179374D01*
X19935730Y-2158200D01*
X20044270Y-2158200D01*
X20150719Y-2179374D01*
X20150719Y-2179374D01*
G37*
G36*
X21580719Y-2179374D02*
X21580722Y-2179375D01*
X21580721Y-2179375D01*
X21680996Y-2220910D01*
X21771242Y-2281210D01*
X21847990Y-2357958D01*
X21908290Y-2448204D01*
X21937303Y-2518249D01*
X21949826Y-2548481D01*
X21971000Y-2654930D01*
X21971000Y-2763470D01*
X21949826Y-2869919D01*
X21949825Y-2869921D01*
X21908290Y-2970196D01*
X21847990Y-3060442D01*
X21771242Y-3137190D01*
X21680996Y-3197490D01*
X21610090Y-3226860D01*
X21580719Y-3239026D01*
X21474270Y-3260200D01*
X21365730Y-3260200D01*
X21259281Y-3239026D01*
X21229910Y-3226860D01*
X21159004Y-3197490D01*
X21068758Y-3137190D01*
X20992010Y-3060442D01*
X20931710Y-2970196D01*
X20890175Y-2869921D01*
X20890174Y-2869919D01*
X20869000Y-2763470D01*
X20869000Y-2654930D01*
X20890174Y-2548481D01*
X20902697Y-2518249D01*
X20931710Y-2448204D01*
X20992010Y-2357958D01*
X21068758Y-2281210D01*
X21159004Y-2220910D01*
X21259279Y-2179375D01*
X21259278Y-2179375D01*
X21259281Y-2179374D01*
X21365730Y-2158200D01*
X21474270Y-2158200D01*
X21580719Y-2179374D01*
X21580719Y-2179374D01*
G37*
G36*
X12431825Y-2382081D02*
X12459546Y-2390490D01*
X12485089Y-2404143D01*
X12507481Y-2422519D01*
X12525857Y-2444911D01*
X12539510Y-2470454D01*
X12547919Y-2498175D01*
X12551000Y-2529454D01*
X12551000Y-2920546D01*
X12547919Y-2951825D01*
X12539510Y-2979546D01*
X12525857Y-3005089D01*
X12507481Y-3027481D01*
X12485089Y-3045857D01*
X12459546Y-3059510D01*
X12431825Y-3067919D01*
X12400546Y-3071000D01*
X11959454Y-3071000D01*
X11928175Y-3067919D01*
X11900454Y-3059510D01*
X11874911Y-3045857D01*
X11852519Y-3027481D01*
X11834143Y-3005089D01*
X11820490Y-2979546D01*
X11812081Y-2951825D01*
X11809000Y-2920546D01*
X11809000Y-2529454D01*
X11812081Y-2498175D01*
X11820490Y-2470454D01*
X11834143Y-2444911D01*
X11852519Y-2422519D01*
X11874911Y-2404143D01*
X11900454Y-2390490D01*
X11928175Y-2382081D01*
X11959454Y-2379000D01*
X12400546Y-2379000D01*
X12431825Y-2382081D01*
X12431825Y-2382081D01*
G37*
G36*
X13511825Y-2282081D02*
X13539546Y-2290490D01*
X13565089Y-2304143D01*
X13587481Y-2322519D01*
X13605857Y-2344911D01*
X13619510Y-2370454D01*
X13627919Y-2398175D01*
X13631000Y-2429454D01*
X13631000Y-2820546D01*
X13627919Y-2851825D01*
X13619510Y-2879546D01*
X13605857Y-2905089D01*
X13587481Y-2927481D01*
X13565089Y-2945857D01*
X13539546Y-2959510D01*
X13511825Y-2967919D01*
X13480546Y-2971000D01*
X13039454Y-2971000D01*
X13008175Y-2967919D01*
X12980454Y-2959510D01*
X12954911Y-2945857D01*
X12932519Y-2927481D01*
X12914143Y-2905089D01*
X12900490Y-2879546D01*
X12892081Y-2851825D01*
X12889000Y-2820546D01*
X12889000Y-2429454D01*
X12892081Y-2398175D01*
X12900490Y-2370454D01*
X12914143Y-2344911D01*
X12932519Y-2322519D01*
X12954911Y-2304143D01*
X12980454Y-2290490D01*
X13008175Y-2282081D01*
X13039454Y-2279000D01*
X13480546Y-2279000D01*
X13511825Y-2282081D01*
X13511825Y-2282081D01*
G37*
G36*
X15511825Y-2202081D02*
X15539546Y-2210490D01*
X15565089Y-2224143D01*
X15587481Y-2242519D01*
X15605857Y-2264911D01*
X15619510Y-2290454D01*
X15627919Y-2318175D01*
X15631000Y-2349454D01*
X15631000Y-2790546D01*
X15627919Y-2821825D01*
X15619510Y-2849546D01*
X15605857Y-2875089D01*
X15587481Y-2897481D01*
X15565089Y-2915857D01*
X15539546Y-2929510D01*
X15511825Y-2937919D01*
X15480546Y-2941000D01*
X15089454Y-2941000D01*
X15058175Y-2937919D01*
X15030454Y-2929510D01*
X15004911Y-2915857D01*
X14982519Y-2897481D01*
X14964143Y-2875089D01*
X14950490Y-2849546D01*
X14942081Y-2821825D01*
X14939000Y-2790546D01*
X14939000Y-2349454D01*
X14942081Y-2318175D01*
X14950490Y-2290454D01*
X14964143Y-2264911D01*
X14982519Y-2242519D01*
X15004911Y-2224143D01*
X15030454Y-2210490D01*
X15058175Y-2202081D01*
X15089454Y-2199000D01*
X15480546Y-2199000D01*
X15511825Y-2202081D01*
X15511825Y-2202081D01*
G37*
G36*
X14541825Y-2202081D02*
X14569546Y-2210490D01*
X14595089Y-2224143D01*
X14617481Y-2242519D01*
X14635857Y-2264911D01*
X14649510Y-2290454D01*
X14657919Y-2318175D01*
X14661000Y-2349454D01*
X14661000Y-2790546D01*
X14657919Y-2821825D01*
X14649510Y-2849546D01*
X14635857Y-2875089D01*
X14617481Y-2897481D01*
X14595089Y-2915857D01*
X14569546Y-2929510D01*
X14541825Y-2937919D01*
X14510546Y-2941000D01*
X14119454Y-2941000D01*
X14088175Y-2937919D01*
X14060454Y-2929510D01*
X14034911Y-2915857D01*
X14012519Y-2897481D01*
X13994143Y-2875089D01*
X13980490Y-2849546D01*
X13972081Y-2821825D01*
X13969000Y-2790546D01*
X13969000Y-2349454D01*
X13972081Y-2318175D01*
X13980490Y-2290454D01*
X13994143Y-2264911D01*
X14012519Y-2242519D01*
X14034911Y-2224143D01*
X14060454Y-2210490D01*
X14088175Y-2202081D01*
X14119454Y-2199000D01*
X14510546Y-2199000D01*
X14541825Y-2202081D01*
X14541825Y-2202081D01*
G37*
G36*
X13511825Y-1312081D02*
X13539546Y-1320490D01*
X13565089Y-1334143D01*
X13587481Y-1352519D01*
X13605857Y-1374911D01*
X13619510Y-1400454D01*
X13627919Y-1428175D01*
X13631000Y-1459454D01*
X13631000Y-1850546D01*
X13627919Y-1881825D01*
X13619510Y-1909546D01*
X13605857Y-1935089D01*
X13587481Y-1957481D01*
X13565089Y-1975857D01*
X13539546Y-1989510D01*
X13511825Y-1997919D01*
X13480546Y-2001000D01*
X13039454Y-2001000D01*
X13008175Y-1997919D01*
X12980454Y-1989510D01*
X12954911Y-1975857D01*
X12932519Y-1957481D01*
X12914143Y-1935089D01*
X12900490Y-1909546D01*
X12892081Y-1881825D01*
X12889000Y-1850546D01*
X12889000Y-1459454D01*
X12892081Y-1428175D01*
X12900490Y-1400454D01*
X12914143Y-1374911D01*
X12932519Y-1352519D01*
X12954911Y-1334143D01*
X12980454Y-1320490D01*
X13008175Y-1312081D01*
X13039454Y-1309000D01*
X13480546Y-1309000D01*
X13511825Y-1312081D01*
X13511825Y-1312081D01*
G37*
G36*
X15511825Y-1202081D02*
X15539546Y-1210490D01*
X15565089Y-1224143D01*
X15587481Y-1242519D01*
X15605857Y-1264911D01*
X15619510Y-1290454D01*
X15627919Y-1318175D01*
X15631000Y-1349454D01*
X15631000Y-1790546D01*
X15627919Y-1821825D01*
X15619510Y-1849546D01*
X15605857Y-1875089D01*
X15587481Y-1897481D01*
X15565089Y-1915857D01*
X15539546Y-1929510D01*
X15511825Y-1937919D01*
X15480546Y-1941000D01*
X15089454Y-1941000D01*
X15058175Y-1937919D01*
X15030454Y-1929510D01*
X15004911Y-1915857D01*
X14982519Y-1897481D01*
X14964143Y-1875089D01*
X14950490Y-1849546D01*
X14942081Y-1821825D01*
X14939000Y-1790546D01*
X14939000Y-1349454D01*
X14942081Y-1318175D01*
X14950490Y-1290454D01*
X14964143Y-1264911D01*
X14982519Y-1242519D01*
X15004911Y-1224143D01*
X15030454Y-1210490D01*
X15058175Y-1202081D01*
X15089454Y-1199000D01*
X15480546Y-1199000D01*
X15511825Y-1202081D01*
X15511825Y-1202081D01*
G37*
G36*
X14541825Y-1202081D02*
X14569546Y-1210490D01*
X14595089Y-1224143D01*
X14617481Y-1242519D01*
X14635857Y-1264911D01*
X14649510Y-1290454D01*
X14657919Y-1318175D01*
X14661000Y-1349454D01*
X14661000Y-1790546D01*
X14657919Y-1821825D01*
X14649510Y-1849546D01*
X14635857Y-1875089D01*
X14617481Y-1897481D01*
X14595089Y-1915857D01*
X14569546Y-1929510D01*
X14541825Y-1937919D01*
X14510546Y-1941000D01*
X14119454Y-1941000D01*
X14088175Y-1937919D01*
X14060454Y-1929510D01*
X14034911Y-1915857D01*
X14012519Y-1897481D01*
X13994143Y-1875089D01*
X13980490Y-1849546D01*
X13972081Y-1821825D01*
X13969000Y-1790546D01*
X13969000Y-1349454D01*
X13972081Y-1318175D01*
X13980490Y-1290454D01*
X13994143Y-1264911D01*
X14012519Y-1242519D01*
X14034911Y-1224143D01*
X14060454Y-1210490D01*
X14088175Y-1202081D01*
X14119454Y-1199000D01*
X14510546Y-1199000D01*
X14541825Y-1202081D01*
X14541825Y-1202081D01*
G37*
G36*
X11020719Y-809374D02*
X11020722Y-809375D01*
X11020721Y-809375D01*
X11120996Y-850910D01*
X11211242Y-911210D01*
X11287990Y-987958D01*
X11348290Y-1078204D01*
X11348290Y-1078205D01*
X11389826Y-1178481D01*
X11411000Y-1284930D01*
X11411000Y-1393470D01*
X11389826Y-1499919D01*
X11389825Y-1499921D01*
X11348290Y-1600196D01*
X11287990Y-1690442D01*
X11211242Y-1767190D01*
X11120996Y-1827490D01*
X11050090Y-1856860D01*
X11020719Y-1869026D01*
X10914270Y-1890200D01*
X10805730Y-1890200D01*
X10699281Y-1869026D01*
X10669910Y-1856860D01*
X10599004Y-1827490D01*
X10508758Y-1767190D01*
X10432010Y-1690442D01*
X10371710Y-1600196D01*
X10330175Y-1499921D01*
X10330174Y-1499919D01*
X10309000Y-1393470D01*
X10309000Y-1284930D01*
X10330174Y-1178481D01*
X10371710Y-1078205D01*
X10371710Y-1078204D01*
X10432010Y-987958D01*
X10508758Y-911210D01*
X10599004Y-850910D01*
X10699279Y-809375D01*
X10699278Y-809375D01*
X10699281Y-809374D01*
X10805730Y-788200D01*
X10914270Y-788200D01*
X11020719Y-809374D01*
X11020719Y-809374D01*
G37*
G36*
X8430719Y-799374D02*
X8430722Y-799375D01*
X8430721Y-799375D01*
X8530996Y-840910D01*
X8621242Y-901210D01*
X8697990Y-977958D01*
X8758290Y-1068204D01*
X8787660Y-1139110D01*
X8799826Y-1168481D01*
X8821000Y-1274930D01*
X8821000Y-1383470D01*
X8799826Y-1489919D01*
X8799825Y-1489921D01*
X8758290Y-1590196D01*
X8697990Y-1680442D01*
X8621242Y-1757190D01*
X8530996Y-1817490D01*
X8460090Y-1846860D01*
X8430719Y-1859026D01*
X8324270Y-1880200D01*
X8215730Y-1880200D01*
X8109281Y-1859026D01*
X8079910Y-1846860D01*
X8009004Y-1817490D01*
X7918758Y-1757190D01*
X7842010Y-1680442D01*
X7781710Y-1590196D01*
X7740175Y-1489921D01*
X7740174Y-1489919D01*
X7719000Y-1383470D01*
X7719000Y-1274930D01*
X7740174Y-1168481D01*
X7752340Y-1139110D01*
X7781710Y-1068204D01*
X7842010Y-977958D01*
X7918758Y-901210D01*
X8009004Y-840910D01*
X8109279Y-799375D01*
X8109278Y-799375D01*
X8109281Y-799374D01*
X8215730Y-778200D01*
X8324270Y-778200D01*
X8430719Y-799374D01*
X8430719Y-799374D01*
G37*
G36*
X9730719Y-799374D02*
X9730722Y-799375D01*
X9730721Y-799375D01*
X9830996Y-840910D01*
X9921242Y-901210D01*
X9997990Y-977958D01*
X10058290Y-1068204D01*
X10087660Y-1139110D01*
X10099826Y-1168481D01*
X10121000Y-1274930D01*
X10121000Y-1383470D01*
X10099826Y-1489919D01*
X10099825Y-1489921D01*
X10058290Y-1590196D01*
X9997990Y-1680442D01*
X9921242Y-1757190D01*
X9830996Y-1817490D01*
X9760090Y-1846860D01*
X9730719Y-1859026D01*
X9624270Y-1880200D01*
X9515730Y-1880200D01*
X9409281Y-1859026D01*
X9379910Y-1846860D01*
X9309004Y-1817490D01*
X9218758Y-1757190D01*
X9142010Y-1680442D01*
X9081710Y-1590196D01*
X9040175Y-1489921D01*
X9040174Y-1489919D01*
X9019000Y-1383470D01*
X9019000Y-1274930D01*
X9040174Y-1168481D01*
X9052340Y-1139110D01*
X9081710Y-1068204D01*
X9142010Y-977958D01*
X9218758Y-901210D01*
X9309004Y-840910D01*
X9409279Y-799375D01*
X9409278Y-799375D01*
X9409281Y-799374D01*
X9515730Y-778200D01*
X9624270Y-778200D01*
X9730719Y-799374D01*
X9730719Y-799374D01*
G37*
M02*
