G04 #@! TF.GenerationSoftware,KiCad,Pcbnew,5.0.2+dfsg1-1~bpo9+1*
G04 #@! TF.CreationDate,2019-10-16T17:32:00+02:00*
G04 #@! TF.ProjectId,zglue-dragon-adapter,7a676c75-652d-4647-9261-676f6e2d6164,rev?*
G04 #@! TF.SameCoordinates,Original*
G04 #@! TF.FileFunction,Soldermask,Top*
G04 #@! TF.FilePolarity,Negative*
%FSLAX46Y46*%
G04 Gerber Fmt 4.6, Leading zero omitted, Abs format (unit mm)*
G04 Created by KiCad (PCBNEW 5.0.2+dfsg1-1~bpo9+1) date Wed 16 Oct 2019 05:32:00 PM CEST*
%MOMM*%
%LPD*%
G01*
G04 APERTURE LIST*
%ADD10C,0.100000*%
G04 APERTURE END LIST*
D10*
G36*
X22840719Y-18289374D02*
X22840722Y-18289375D01*
X22840721Y-18289375D01*
X22940996Y-18330910D01*
X23031242Y-18391210D01*
X23107990Y-18467958D01*
X23168290Y-18558204D01*
X23168290Y-18558205D01*
X23209826Y-18658481D01*
X23231000Y-18764930D01*
X23231000Y-18873470D01*
X23209826Y-18979919D01*
X23209825Y-18979921D01*
X23168290Y-19080196D01*
X23107990Y-19170442D01*
X23031242Y-19247190D01*
X22940996Y-19307490D01*
X22870090Y-19336860D01*
X22840719Y-19349026D01*
X22734270Y-19370200D01*
X22625730Y-19370200D01*
X22519281Y-19349026D01*
X22489910Y-19336860D01*
X22419004Y-19307490D01*
X22328758Y-19247190D01*
X22252010Y-19170442D01*
X22191710Y-19080196D01*
X22150175Y-18979921D01*
X22150174Y-18979919D01*
X22129000Y-18873470D01*
X22129000Y-18764930D01*
X22150174Y-18658481D01*
X22191710Y-18558205D01*
X22191710Y-18558204D01*
X22252010Y-18467958D01*
X22328758Y-18391210D01*
X22419004Y-18330910D01*
X22519279Y-18289375D01*
X22519278Y-18289375D01*
X22519281Y-18289374D01*
X22625730Y-18268200D01*
X22734270Y-18268200D01*
X22840719Y-18289374D01*
X22840719Y-18289374D01*
G37*
G36*
X21290719Y-18289374D02*
X21290722Y-18289375D01*
X21290721Y-18289375D01*
X21390996Y-18330910D01*
X21481242Y-18391210D01*
X21557990Y-18467958D01*
X21618290Y-18558204D01*
X21618290Y-18558205D01*
X21659826Y-18658481D01*
X21681000Y-18764930D01*
X21681000Y-18873470D01*
X21659826Y-18979919D01*
X21659825Y-18979921D01*
X21618290Y-19080196D01*
X21557990Y-19170442D01*
X21481242Y-19247190D01*
X21390996Y-19307490D01*
X21320090Y-19336860D01*
X21290719Y-19349026D01*
X21184270Y-19370200D01*
X21075730Y-19370200D01*
X20969281Y-19349026D01*
X20939910Y-19336860D01*
X20869004Y-19307490D01*
X20778758Y-19247190D01*
X20702010Y-19170442D01*
X20641710Y-19080196D01*
X20600175Y-18979921D01*
X20600174Y-18979919D01*
X20579000Y-18873470D01*
X20579000Y-18764930D01*
X20600174Y-18658481D01*
X20641710Y-18558205D01*
X20641710Y-18558204D01*
X20702010Y-18467958D01*
X20778758Y-18391210D01*
X20869004Y-18330910D01*
X20969279Y-18289375D01*
X20969278Y-18289375D01*
X20969281Y-18289374D01*
X21075730Y-18268200D01*
X21184270Y-18268200D01*
X21290719Y-18289374D01*
X21290719Y-18289374D01*
G37*
G36*
X19770719Y-18289374D02*
X19770722Y-18289375D01*
X19770721Y-18289375D01*
X19870996Y-18330910D01*
X19961242Y-18391210D01*
X20037990Y-18467958D01*
X20098290Y-18558204D01*
X20098290Y-18558205D01*
X20139826Y-18658481D01*
X20161000Y-18764930D01*
X20161000Y-18873470D01*
X20139826Y-18979919D01*
X20139825Y-18979921D01*
X20098290Y-19080196D01*
X20037990Y-19170442D01*
X19961242Y-19247190D01*
X19870996Y-19307490D01*
X19800090Y-19336860D01*
X19770719Y-19349026D01*
X19664270Y-19370200D01*
X19555730Y-19370200D01*
X19449281Y-19349026D01*
X19419910Y-19336860D01*
X19349004Y-19307490D01*
X19258758Y-19247190D01*
X19182010Y-19170442D01*
X19121710Y-19080196D01*
X19080175Y-18979921D01*
X19080174Y-18979919D01*
X19059000Y-18873470D01*
X19059000Y-18764930D01*
X19080174Y-18658481D01*
X19121710Y-18558205D01*
X19121710Y-18558204D01*
X19182010Y-18467958D01*
X19258758Y-18391210D01*
X19349004Y-18330910D01*
X19449279Y-18289375D01*
X19449278Y-18289375D01*
X19449281Y-18289374D01*
X19555730Y-18268200D01*
X19664270Y-18268200D01*
X19770719Y-18289374D01*
X19770719Y-18289374D01*
G37*
G36*
X8310719Y-18039374D02*
X8310722Y-18039375D01*
X8310721Y-18039375D01*
X8410996Y-18080910D01*
X8501242Y-18141210D01*
X8577990Y-18217958D01*
X8638290Y-18308204D01*
X8638290Y-18308205D01*
X8679826Y-18408481D01*
X8701000Y-18514930D01*
X8701000Y-18623470D01*
X8679826Y-18729919D01*
X8679825Y-18729921D01*
X8638290Y-18830196D01*
X8577990Y-18920442D01*
X8501242Y-18997190D01*
X8410996Y-19057490D01*
X8340090Y-19086860D01*
X8310719Y-19099026D01*
X8204270Y-19120200D01*
X8095730Y-19120200D01*
X7989281Y-19099026D01*
X7959910Y-19086860D01*
X7889004Y-19057490D01*
X7798758Y-18997190D01*
X7722010Y-18920442D01*
X7661710Y-18830196D01*
X7620175Y-18729921D01*
X7620174Y-18729919D01*
X7599000Y-18623470D01*
X7599000Y-18514930D01*
X7620174Y-18408481D01*
X7661710Y-18308205D01*
X7661710Y-18308204D01*
X7722010Y-18217958D01*
X7798758Y-18141210D01*
X7889004Y-18080910D01*
X7989279Y-18039375D01*
X7989278Y-18039375D01*
X7989281Y-18039374D01*
X8095730Y-18018200D01*
X8204270Y-18018200D01*
X8310719Y-18039374D01*
X8310719Y-18039374D01*
G37*
G36*
X14660719Y-17340174D02*
X14660722Y-17340175D01*
X14660721Y-17340175D01*
X14760996Y-17381710D01*
X14851242Y-17442010D01*
X14927990Y-17518758D01*
X14988290Y-17609004D01*
X14988290Y-17609005D01*
X15029826Y-17709281D01*
X15051000Y-17815730D01*
X15051000Y-17924270D01*
X15029826Y-18030719D01*
X15017660Y-18060090D01*
X14988290Y-18130996D01*
X14927990Y-18221242D01*
X14851242Y-18297990D01*
X14760996Y-18358290D01*
X14690090Y-18387660D01*
X14660719Y-18399826D01*
X14554270Y-18421000D01*
X14445730Y-18421000D01*
X14339281Y-18399826D01*
X14309910Y-18387660D01*
X14239004Y-18358290D01*
X14148758Y-18297990D01*
X14072010Y-18221242D01*
X14011710Y-18130996D01*
X13982340Y-18060090D01*
X13970174Y-18030719D01*
X13949000Y-17924270D01*
X13949000Y-17815730D01*
X13970174Y-17709281D01*
X14011710Y-17609005D01*
X14011710Y-17609004D01*
X14072010Y-17518758D01*
X14148758Y-17442010D01*
X14239004Y-17381710D01*
X14339279Y-17340175D01*
X14339278Y-17340175D01*
X14339281Y-17340174D01*
X14445730Y-17319000D01*
X14554270Y-17319000D01*
X14660719Y-17340174D01*
X14660719Y-17340174D01*
G37*
G36*
X12081825Y-17142081D02*
X12109546Y-17150490D01*
X12135089Y-17164143D01*
X12157481Y-17182519D01*
X12175857Y-17204911D01*
X12189510Y-17230454D01*
X12197919Y-17258175D01*
X12201000Y-17289454D01*
X12201000Y-17680546D01*
X12197919Y-17711825D01*
X12189510Y-17739546D01*
X12175857Y-17765089D01*
X12157481Y-17787481D01*
X12135089Y-17805857D01*
X12109546Y-17819510D01*
X12081825Y-17827919D01*
X12050546Y-17831000D01*
X11609454Y-17831000D01*
X11578175Y-17827919D01*
X11550454Y-17819510D01*
X11524911Y-17805857D01*
X11502519Y-17787481D01*
X11484143Y-17765089D01*
X11470490Y-17739546D01*
X11462081Y-17711825D01*
X11459000Y-17680546D01*
X11459000Y-17289454D01*
X11462081Y-17258175D01*
X11470490Y-17230454D01*
X11484143Y-17204911D01*
X11502519Y-17182519D01*
X11524911Y-17164143D01*
X11550454Y-17150490D01*
X11578175Y-17142081D01*
X11609454Y-17139000D01*
X12050546Y-17139000D01*
X12081825Y-17142081D01*
X12081825Y-17142081D01*
G37*
G36*
X11071825Y-17142081D02*
X11099546Y-17150490D01*
X11125089Y-17164143D01*
X11147481Y-17182519D01*
X11165857Y-17204911D01*
X11179510Y-17230454D01*
X11187919Y-17258175D01*
X11191000Y-17289454D01*
X11191000Y-17680546D01*
X11187919Y-17711825D01*
X11179510Y-17739546D01*
X11165857Y-17765089D01*
X11147481Y-17787481D01*
X11125089Y-17805857D01*
X11099546Y-17819510D01*
X11071825Y-17827919D01*
X11040546Y-17831000D01*
X10599454Y-17831000D01*
X10568175Y-17827919D01*
X10540454Y-17819510D01*
X10514911Y-17805857D01*
X10492519Y-17787481D01*
X10474143Y-17765089D01*
X10460490Y-17739546D01*
X10452081Y-17711825D01*
X10449000Y-17680546D01*
X10449000Y-17289454D01*
X10452081Y-17258175D01*
X10460490Y-17230454D01*
X10474143Y-17204911D01*
X10492519Y-17182519D01*
X10514911Y-17164143D01*
X10540454Y-17150490D01*
X10568175Y-17142081D01*
X10599454Y-17139000D01*
X11040546Y-17139000D01*
X11071825Y-17142081D01*
X11071825Y-17142081D01*
G37*
G36*
X10061825Y-17142081D02*
X10089546Y-17150490D01*
X10115089Y-17164143D01*
X10137481Y-17182519D01*
X10155857Y-17204911D01*
X10169510Y-17230454D01*
X10177919Y-17258175D01*
X10181000Y-17289454D01*
X10181000Y-17680546D01*
X10177919Y-17711825D01*
X10169510Y-17739546D01*
X10155857Y-17765089D01*
X10137481Y-17787481D01*
X10115089Y-17805857D01*
X10089546Y-17819510D01*
X10061825Y-17827919D01*
X10030546Y-17831000D01*
X9589454Y-17831000D01*
X9558175Y-17827919D01*
X9530454Y-17819510D01*
X9504911Y-17805857D01*
X9482519Y-17787481D01*
X9464143Y-17765089D01*
X9450490Y-17739546D01*
X9442081Y-17711825D01*
X9439000Y-17680546D01*
X9439000Y-17289454D01*
X9442081Y-17258175D01*
X9450490Y-17230454D01*
X9464143Y-17204911D01*
X9482519Y-17182519D01*
X9504911Y-17164143D01*
X9530454Y-17150490D01*
X9558175Y-17142081D01*
X9589454Y-17139000D01*
X10030546Y-17139000D01*
X10061825Y-17142081D01*
X10061825Y-17142081D01*
G37*
G36*
X13501825Y-17092081D02*
X13529546Y-17100490D01*
X13555089Y-17114143D01*
X13577481Y-17132519D01*
X13595857Y-17154911D01*
X13609510Y-17180454D01*
X13617919Y-17208175D01*
X13621000Y-17239454D01*
X13621000Y-17630546D01*
X13617919Y-17661825D01*
X13609510Y-17689546D01*
X13595857Y-17715089D01*
X13577481Y-17737481D01*
X13555089Y-17755857D01*
X13529546Y-17769510D01*
X13501825Y-17777919D01*
X13470546Y-17781000D01*
X13029454Y-17781000D01*
X12998175Y-17777919D01*
X12970454Y-17769510D01*
X12944911Y-17755857D01*
X12922519Y-17737481D01*
X12904143Y-17715089D01*
X12890490Y-17689546D01*
X12882081Y-17661825D01*
X12879000Y-17630546D01*
X12879000Y-17239454D01*
X12882081Y-17208175D01*
X12890490Y-17180454D01*
X12904143Y-17154911D01*
X12922519Y-17132519D01*
X12944911Y-17114143D01*
X12970454Y-17100490D01*
X12998175Y-17092081D01*
X13029454Y-17089000D01*
X13470546Y-17089000D01*
X13501825Y-17092081D01*
X13501825Y-17092081D01*
G37*
G36*
X8310719Y-16679374D02*
X8310722Y-16679375D01*
X8310721Y-16679375D01*
X8410996Y-16720910D01*
X8501242Y-16781210D01*
X8577990Y-16857958D01*
X8638290Y-16948204D01*
X8667660Y-17019110D01*
X8679826Y-17048481D01*
X8701000Y-17154930D01*
X8701000Y-17263470D01*
X8679826Y-17369919D01*
X8679825Y-17369921D01*
X8638290Y-17470196D01*
X8577990Y-17560442D01*
X8501242Y-17637190D01*
X8410996Y-17697490D01*
X8376388Y-17711825D01*
X8310719Y-17739026D01*
X8204270Y-17760200D01*
X8095730Y-17760200D01*
X7989281Y-17739026D01*
X7923612Y-17711825D01*
X7889004Y-17697490D01*
X7798758Y-17637190D01*
X7722010Y-17560442D01*
X7661710Y-17470196D01*
X7620175Y-17369921D01*
X7620174Y-17369919D01*
X7599000Y-17263470D01*
X7599000Y-17154930D01*
X7620174Y-17048481D01*
X7632340Y-17019110D01*
X7661710Y-16948204D01*
X7722010Y-16857958D01*
X7798758Y-16781210D01*
X7889004Y-16720910D01*
X7989279Y-16679375D01*
X7989278Y-16679375D01*
X7989281Y-16679374D01*
X8095730Y-16658200D01*
X8204270Y-16658200D01*
X8310719Y-16679374D01*
X8310719Y-16679374D01*
G37*
G36*
X6236825Y-16442081D02*
X6264546Y-16450490D01*
X6290089Y-16464143D01*
X6312481Y-16482519D01*
X6330857Y-16504911D01*
X6344510Y-16530454D01*
X6352919Y-16558175D01*
X6356000Y-16589454D01*
X6356000Y-16980546D01*
X6352919Y-17011825D01*
X6344510Y-17039546D01*
X6330857Y-17065089D01*
X6312481Y-17087481D01*
X6290089Y-17105857D01*
X6264546Y-17119510D01*
X6236825Y-17127919D01*
X6205546Y-17131000D01*
X5764454Y-17131000D01*
X5733175Y-17127919D01*
X5705454Y-17119510D01*
X5679911Y-17105857D01*
X5657519Y-17087481D01*
X5639143Y-17065089D01*
X5625490Y-17039546D01*
X5617081Y-17011825D01*
X5614000Y-16980546D01*
X5614000Y-16589454D01*
X5617081Y-16558175D01*
X5625490Y-16530454D01*
X5639143Y-16504911D01*
X5657519Y-16482519D01*
X5679911Y-16464143D01*
X5705454Y-16450490D01*
X5733175Y-16442081D01*
X5764454Y-16439000D01*
X6205546Y-16439000D01*
X6236825Y-16442081D01*
X6236825Y-16442081D01*
G37*
G36*
X17611825Y-16437081D02*
X17639546Y-16445490D01*
X17665089Y-16459143D01*
X17687481Y-16477519D01*
X17705857Y-16499911D01*
X17719510Y-16525454D01*
X17727919Y-16553175D01*
X17731000Y-16584454D01*
X17731000Y-16975546D01*
X17727919Y-17006825D01*
X17719510Y-17034546D01*
X17705857Y-17060089D01*
X17687481Y-17082481D01*
X17665089Y-17100857D01*
X17639546Y-17114510D01*
X17611825Y-17122919D01*
X17580546Y-17126000D01*
X17139454Y-17126000D01*
X17108175Y-17122919D01*
X17080454Y-17114510D01*
X17054911Y-17100857D01*
X17032519Y-17082481D01*
X17014143Y-17060089D01*
X17000490Y-17034546D01*
X16992081Y-17006825D01*
X16989000Y-16975546D01*
X16989000Y-16584454D01*
X16992081Y-16553175D01*
X17000490Y-16525454D01*
X17014143Y-16499911D01*
X17032519Y-16477519D01*
X17054911Y-16459143D01*
X17080454Y-16445490D01*
X17108175Y-16437081D01*
X17139454Y-16434000D01*
X17580546Y-16434000D01*
X17611825Y-16437081D01*
X17611825Y-16437081D01*
G37*
G36*
X15581825Y-16437081D02*
X15609546Y-16445490D01*
X15635089Y-16459143D01*
X15657481Y-16477519D01*
X15675857Y-16499911D01*
X15689510Y-16525454D01*
X15697919Y-16553175D01*
X15701000Y-16584454D01*
X15701000Y-16975546D01*
X15697919Y-17006825D01*
X15689510Y-17034546D01*
X15675857Y-17060089D01*
X15657481Y-17082481D01*
X15635089Y-17100857D01*
X15609546Y-17114510D01*
X15581825Y-17122919D01*
X15550546Y-17126000D01*
X15109454Y-17126000D01*
X15078175Y-17122919D01*
X15050454Y-17114510D01*
X15024911Y-17100857D01*
X15002519Y-17082481D01*
X14984143Y-17060089D01*
X14970490Y-17034546D01*
X14962081Y-17006825D01*
X14959000Y-16975546D01*
X14959000Y-16584454D01*
X14962081Y-16553175D01*
X14970490Y-16525454D01*
X14984143Y-16499911D01*
X15002519Y-16477519D01*
X15024911Y-16459143D01*
X15050454Y-16445490D01*
X15078175Y-16437081D01*
X15109454Y-16434000D01*
X15550546Y-16434000D01*
X15581825Y-16437081D01*
X15581825Y-16437081D01*
G37*
G36*
X16601825Y-16437081D02*
X16629546Y-16445490D01*
X16655089Y-16459143D01*
X16677481Y-16477519D01*
X16695857Y-16499911D01*
X16709510Y-16525454D01*
X16717919Y-16553175D01*
X16721000Y-16584454D01*
X16721000Y-16975546D01*
X16717919Y-17006825D01*
X16709510Y-17034546D01*
X16695857Y-17060089D01*
X16677481Y-17082481D01*
X16655089Y-17100857D01*
X16629546Y-17114510D01*
X16601825Y-17122919D01*
X16570546Y-17126000D01*
X16129454Y-17126000D01*
X16098175Y-17122919D01*
X16070454Y-17114510D01*
X16044911Y-17100857D01*
X16022519Y-17082481D01*
X16004143Y-17060089D01*
X15990490Y-17034546D01*
X15982081Y-17006825D01*
X15979000Y-16975546D01*
X15979000Y-16584454D01*
X15982081Y-16553175D01*
X15990490Y-16525454D01*
X16004143Y-16499911D01*
X16022519Y-16477519D01*
X16044911Y-16459143D01*
X16070454Y-16445490D01*
X16098175Y-16437081D01*
X16129454Y-16434000D01*
X16570546Y-16434000D01*
X16601825Y-16437081D01*
X16601825Y-16437081D01*
G37*
G36*
X10061825Y-16172081D02*
X10089546Y-16180490D01*
X10115089Y-16194143D01*
X10137481Y-16212519D01*
X10155857Y-16234911D01*
X10169510Y-16260454D01*
X10177919Y-16288175D01*
X10181000Y-16319454D01*
X10181000Y-16710546D01*
X10177919Y-16741825D01*
X10169510Y-16769546D01*
X10155857Y-16795089D01*
X10137481Y-16817481D01*
X10115089Y-16835857D01*
X10089546Y-16849510D01*
X10061825Y-16857919D01*
X10030546Y-16861000D01*
X9589454Y-16861000D01*
X9558175Y-16857919D01*
X9530454Y-16849510D01*
X9504911Y-16835857D01*
X9482519Y-16817481D01*
X9464143Y-16795089D01*
X9450490Y-16769546D01*
X9442081Y-16741825D01*
X9439000Y-16710546D01*
X9439000Y-16319454D01*
X9442081Y-16288175D01*
X9450490Y-16260454D01*
X9464143Y-16234911D01*
X9482519Y-16212519D01*
X9504911Y-16194143D01*
X9530454Y-16180490D01*
X9558175Y-16172081D01*
X9589454Y-16169000D01*
X10030546Y-16169000D01*
X10061825Y-16172081D01*
X10061825Y-16172081D01*
G37*
G36*
X11071825Y-16172081D02*
X11099546Y-16180490D01*
X11125089Y-16194143D01*
X11147481Y-16212519D01*
X11165857Y-16234911D01*
X11179510Y-16260454D01*
X11187919Y-16288175D01*
X11191000Y-16319454D01*
X11191000Y-16710546D01*
X11187919Y-16741825D01*
X11179510Y-16769546D01*
X11165857Y-16795089D01*
X11147481Y-16817481D01*
X11125089Y-16835857D01*
X11099546Y-16849510D01*
X11071825Y-16857919D01*
X11040546Y-16861000D01*
X10599454Y-16861000D01*
X10568175Y-16857919D01*
X10540454Y-16849510D01*
X10514911Y-16835857D01*
X10492519Y-16817481D01*
X10474143Y-16795089D01*
X10460490Y-16769546D01*
X10452081Y-16741825D01*
X10449000Y-16710546D01*
X10449000Y-16319454D01*
X10452081Y-16288175D01*
X10460490Y-16260454D01*
X10474143Y-16234911D01*
X10492519Y-16212519D01*
X10514911Y-16194143D01*
X10540454Y-16180490D01*
X10568175Y-16172081D01*
X10599454Y-16169000D01*
X11040546Y-16169000D01*
X11071825Y-16172081D01*
X11071825Y-16172081D01*
G37*
G36*
X12081825Y-16172081D02*
X12109546Y-16180490D01*
X12135089Y-16194143D01*
X12157481Y-16212519D01*
X12175857Y-16234911D01*
X12189510Y-16260454D01*
X12197919Y-16288175D01*
X12201000Y-16319454D01*
X12201000Y-16710546D01*
X12197919Y-16741825D01*
X12189510Y-16769546D01*
X12175857Y-16795089D01*
X12157481Y-16817481D01*
X12135089Y-16835857D01*
X12109546Y-16849510D01*
X12081825Y-16857919D01*
X12050546Y-16861000D01*
X11609454Y-16861000D01*
X11578175Y-16857919D01*
X11550454Y-16849510D01*
X11524911Y-16835857D01*
X11502519Y-16817481D01*
X11484143Y-16795089D01*
X11470490Y-16769546D01*
X11462081Y-16741825D01*
X11459000Y-16710546D01*
X11459000Y-16319454D01*
X11462081Y-16288175D01*
X11470490Y-16260454D01*
X11484143Y-16234911D01*
X11502519Y-16212519D01*
X11524911Y-16194143D01*
X11550454Y-16180490D01*
X11578175Y-16172081D01*
X11609454Y-16169000D01*
X12050546Y-16169000D01*
X12081825Y-16172081D01*
X12081825Y-16172081D01*
G37*
G36*
X13501825Y-16122081D02*
X13529546Y-16130490D01*
X13555089Y-16144143D01*
X13577481Y-16162519D01*
X13595857Y-16184911D01*
X13609510Y-16210454D01*
X13617919Y-16238175D01*
X13621000Y-16269454D01*
X13621000Y-16660546D01*
X13617919Y-16691825D01*
X13609510Y-16719546D01*
X13595857Y-16745089D01*
X13577481Y-16767481D01*
X13555089Y-16785857D01*
X13529546Y-16799510D01*
X13501825Y-16807919D01*
X13470546Y-16811000D01*
X13029454Y-16811000D01*
X12998175Y-16807919D01*
X12970454Y-16799510D01*
X12944911Y-16785857D01*
X12922519Y-16767481D01*
X12904143Y-16745089D01*
X12890490Y-16719546D01*
X12882081Y-16691825D01*
X12879000Y-16660546D01*
X12879000Y-16269454D01*
X12882081Y-16238175D01*
X12890490Y-16210454D01*
X12904143Y-16184911D01*
X12922519Y-16162519D01*
X12944911Y-16144143D01*
X12970454Y-16130490D01*
X12998175Y-16122081D01*
X13029454Y-16119000D01*
X13470546Y-16119000D01*
X13501825Y-16122081D01*
X13501825Y-16122081D01*
G37*
G36*
X6236825Y-15472081D02*
X6264546Y-15480490D01*
X6290089Y-15494143D01*
X6312481Y-15512519D01*
X6330857Y-15534911D01*
X6344510Y-15560454D01*
X6352919Y-15588175D01*
X6356000Y-15619454D01*
X6356000Y-16010546D01*
X6352919Y-16041825D01*
X6344510Y-16069546D01*
X6330857Y-16095089D01*
X6312481Y-16117481D01*
X6290089Y-16135857D01*
X6264546Y-16149510D01*
X6236825Y-16157919D01*
X6205546Y-16161000D01*
X5764454Y-16161000D01*
X5733175Y-16157919D01*
X5705454Y-16149510D01*
X5679911Y-16135857D01*
X5657519Y-16117481D01*
X5639143Y-16095089D01*
X5625490Y-16069546D01*
X5617081Y-16041825D01*
X5614000Y-16010546D01*
X5614000Y-15619454D01*
X5617081Y-15588175D01*
X5625490Y-15560454D01*
X5639143Y-15534911D01*
X5657519Y-15512519D01*
X5679911Y-15494143D01*
X5705454Y-15480490D01*
X5733175Y-15472081D01*
X5764454Y-15469000D01*
X6205546Y-15469000D01*
X6236825Y-15472081D01*
X6236825Y-15472081D01*
G37*
G36*
X17611825Y-15467081D02*
X17639546Y-15475490D01*
X17665089Y-15489143D01*
X17687481Y-15507519D01*
X17705857Y-15529911D01*
X17719510Y-15555454D01*
X17727919Y-15583175D01*
X17731000Y-15614454D01*
X17731000Y-16005546D01*
X17727919Y-16036825D01*
X17719510Y-16064546D01*
X17705857Y-16090089D01*
X17687481Y-16112481D01*
X17665089Y-16130857D01*
X17639546Y-16144510D01*
X17611825Y-16152919D01*
X17580546Y-16156000D01*
X17139454Y-16156000D01*
X17108175Y-16152919D01*
X17080454Y-16144510D01*
X17054911Y-16130857D01*
X17032519Y-16112481D01*
X17014143Y-16090089D01*
X17000490Y-16064546D01*
X16992081Y-16036825D01*
X16989000Y-16005546D01*
X16989000Y-15614454D01*
X16992081Y-15583175D01*
X17000490Y-15555454D01*
X17014143Y-15529911D01*
X17032519Y-15507519D01*
X17054911Y-15489143D01*
X17080454Y-15475490D01*
X17108175Y-15467081D01*
X17139454Y-15464000D01*
X17580546Y-15464000D01*
X17611825Y-15467081D01*
X17611825Y-15467081D01*
G37*
G36*
X15581825Y-15467081D02*
X15609546Y-15475490D01*
X15635089Y-15489143D01*
X15657481Y-15507519D01*
X15675857Y-15529911D01*
X15689510Y-15555454D01*
X15697919Y-15583175D01*
X15701000Y-15614454D01*
X15701000Y-16005546D01*
X15697919Y-16036825D01*
X15689510Y-16064546D01*
X15675857Y-16090089D01*
X15657481Y-16112481D01*
X15635089Y-16130857D01*
X15609546Y-16144510D01*
X15581825Y-16152919D01*
X15550546Y-16156000D01*
X15109454Y-16156000D01*
X15078175Y-16152919D01*
X15050454Y-16144510D01*
X15024911Y-16130857D01*
X15002519Y-16112481D01*
X14984143Y-16090089D01*
X14970490Y-16064546D01*
X14962081Y-16036825D01*
X14959000Y-16005546D01*
X14959000Y-15614454D01*
X14962081Y-15583175D01*
X14970490Y-15555454D01*
X14984143Y-15529911D01*
X15002519Y-15507519D01*
X15024911Y-15489143D01*
X15050454Y-15475490D01*
X15078175Y-15467081D01*
X15109454Y-15464000D01*
X15550546Y-15464000D01*
X15581825Y-15467081D01*
X15581825Y-15467081D01*
G37*
G36*
X16601825Y-15467081D02*
X16629546Y-15475490D01*
X16655089Y-15489143D01*
X16677481Y-15507519D01*
X16695857Y-15529911D01*
X16709510Y-15555454D01*
X16717919Y-15583175D01*
X16721000Y-15614454D01*
X16721000Y-16005546D01*
X16717919Y-16036825D01*
X16709510Y-16064546D01*
X16695857Y-16090089D01*
X16677481Y-16112481D01*
X16655089Y-16130857D01*
X16629546Y-16144510D01*
X16601825Y-16152919D01*
X16570546Y-16156000D01*
X16129454Y-16156000D01*
X16098175Y-16152919D01*
X16070454Y-16144510D01*
X16044911Y-16130857D01*
X16022519Y-16112481D01*
X16004143Y-16090089D01*
X15990490Y-16064546D01*
X15982081Y-16036825D01*
X15979000Y-16005546D01*
X15979000Y-15614454D01*
X15982081Y-15583175D01*
X15990490Y-15555454D01*
X16004143Y-15529911D01*
X16022519Y-15507519D01*
X16044911Y-15489143D01*
X16070454Y-15475490D01*
X16098175Y-15467081D01*
X16129454Y-15464000D01*
X16570546Y-15464000D01*
X16601825Y-15467081D01*
X16601825Y-15467081D01*
G37*
G36*
X7236825Y-15402081D02*
X7264546Y-15410490D01*
X7290089Y-15424143D01*
X7312481Y-15442519D01*
X7330857Y-15464911D01*
X7344510Y-15490454D01*
X7352919Y-15518175D01*
X7356000Y-15549454D01*
X7356000Y-15990546D01*
X7352919Y-16021825D01*
X7344510Y-16049546D01*
X7330857Y-16075089D01*
X7312481Y-16097481D01*
X7290089Y-16115857D01*
X7264546Y-16129510D01*
X7236825Y-16137919D01*
X7205546Y-16141000D01*
X6814454Y-16141000D01*
X6783175Y-16137919D01*
X6755454Y-16129510D01*
X6729911Y-16115857D01*
X6707519Y-16097481D01*
X6689143Y-16075089D01*
X6675490Y-16049546D01*
X6667081Y-16021825D01*
X6664000Y-15990546D01*
X6664000Y-15549454D01*
X6667081Y-15518175D01*
X6675490Y-15490454D01*
X6689143Y-15464911D01*
X6707519Y-15442519D01*
X6729911Y-15424143D01*
X6755454Y-15410490D01*
X6783175Y-15402081D01*
X6814454Y-15399000D01*
X7205546Y-15399000D01*
X7236825Y-15402081D01*
X7236825Y-15402081D01*
G37*
G36*
X8206825Y-15402081D02*
X8234546Y-15410490D01*
X8260089Y-15424143D01*
X8282481Y-15442519D01*
X8300857Y-15464911D01*
X8314510Y-15490454D01*
X8322919Y-15518175D01*
X8326000Y-15549454D01*
X8326000Y-15990546D01*
X8322919Y-16021825D01*
X8314510Y-16049546D01*
X8300857Y-16075089D01*
X8282481Y-16097481D01*
X8260089Y-16115857D01*
X8234546Y-16129510D01*
X8206825Y-16137919D01*
X8175546Y-16141000D01*
X7784454Y-16141000D01*
X7753175Y-16137919D01*
X7725454Y-16129510D01*
X7699911Y-16115857D01*
X7677519Y-16097481D01*
X7659143Y-16075089D01*
X7645490Y-16049546D01*
X7637081Y-16021825D01*
X7634000Y-15990546D01*
X7634000Y-15549454D01*
X7637081Y-15518175D01*
X7645490Y-15490454D01*
X7659143Y-15464911D01*
X7677519Y-15442519D01*
X7699911Y-15424143D01*
X7725454Y-15410490D01*
X7753175Y-15402081D01*
X7784454Y-15399000D01*
X8175546Y-15399000D01*
X8206825Y-15402081D01*
X8206825Y-15402081D01*
G37*
G36*
X3961825Y-15382081D02*
X3989546Y-15390490D01*
X4015089Y-15404143D01*
X4037481Y-15422519D01*
X4055857Y-15444911D01*
X4069510Y-15470454D01*
X4077919Y-15498175D01*
X4081000Y-15529454D01*
X4081000Y-15970546D01*
X4077919Y-16001825D01*
X4069510Y-16029546D01*
X4055857Y-16055089D01*
X4037481Y-16077481D01*
X4015089Y-16095857D01*
X3989546Y-16109510D01*
X3961825Y-16117919D01*
X3930546Y-16121000D01*
X3539454Y-16121000D01*
X3508175Y-16117919D01*
X3480454Y-16109510D01*
X3454911Y-16095857D01*
X3432519Y-16077481D01*
X3414143Y-16055089D01*
X3400490Y-16029546D01*
X3392081Y-16001825D01*
X3389000Y-15970546D01*
X3389000Y-15529454D01*
X3392081Y-15498175D01*
X3400490Y-15470454D01*
X3414143Y-15444911D01*
X3432519Y-15422519D01*
X3454911Y-15404143D01*
X3480454Y-15390490D01*
X3508175Y-15382081D01*
X3539454Y-15379000D01*
X3930546Y-15379000D01*
X3961825Y-15382081D01*
X3961825Y-15382081D01*
G37*
G36*
X2991825Y-15382081D02*
X3019546Y-15390490D01*
X3045089Y-15404143D01*
X3067481Y-15422519D01*
X3085857Y-15444911D01*
X3099510Y-15470454D01*
X3107919Y-15498175D01*
X3111000Y-15529454D01*
X3111000Y-15970546D01*
X3107919Y-16001825D01*
X3099510Y-16029546D01*
X3085857Y-16055089D01*
X3067481Y-16077481D01*
X3045089Y-16095857D01*
X3019546Y-16109510D01*
X2991825Y-16117919D01*
X2960546Y-16121000D01*
X2569454Y-16121000D01*
X2538175Y-16117919D01*
X2510454Y-16109510D01*
X2484911Y-16095857D01*
X2462519Y-16077481D01*
X2444143Y-16055089D01*
X2430490Y-16029546D01*
X2422081Y-16001825D01*
X2419000Y-15970546D01*
X2419000Y-15529454D01*
X2422081Y-15498175D01*
X2430490Y-15470454D01*
X2444143Y-15444911D01*
X2462519Y-15422519D01*
X2484911Y-15404143D01*
X2510454Y-15390490D01*
X2538175Y-15382081D01*
X2569454Y-15379000D01*
X2960546Y-15379000D01*
X2991825Y-15382081D01*
X2991825Y-15382081D01*
G37*
G36*
X21920719Y-14389374D02*
X21950090Y-14401540D01*
X22020996Y-14430910D01*
X22111242Y-14491210D01*
X22187990Y-14567958D01*
X22248290Y-14658204D01*
X22248290Y-14658205D01*
X22289826Y-14758481D01*
X22311000Y-14864930D01*
X22311000Y-14973470D01*
X22289826Y-15079919D01*
X22289825Y-15079921D01*
X22248290Y-15180196D01*
X22187990Y-15270442D01*
X22111242Y-15347190D01*
X22020996Y-15407490D01*
X21967446Y-15429671D01*
X21920719Y-15449026D01*
X21814270Y-15470200D01*
X21705730Y-15470200D01*
X21599281Y-15449026D01*
X21552554Y-15429671D01*
X21499004Y-15407490D01*
X21408758Y-15347190D01*
X21332010Y-15270442D01*
X21271710Y-15180196D01*
X21230175Y-15079921D01*
X21230174Y-15079919D01*
X21209000Y-14973470D01*
X21209000Y-14864930D01*
X21230174Y-14758481D01*
X21271710Y-14658205D01*
X21271710Y-14658204D01*
X21332010Y-14567958D01*
X21408758Y-14491210D01*
X21499004Y-14430910D01*
X21569910Y-14401540D01*
X21599281Y-14389374D01*
X21705730Y-14368200D01*
X21814270Y-14368200D01*
X21920719Y-14389374D01*
X21920719Y-14389374D01*
G37*
G36*
X2991825Y-14382081D02*
X3019546Y-14390490D01*
X3045089Y-14404143D01*
X3067481Y-14422519D01*
X3085857Y-14444911D01*
X3099510Y-14470454D01*
X3107919Y-14498175D01*
X3111000Y-14529454D01*
X3111000Y-14970546D01*
X3107919Y-15001825D01*
X3099510Y-15029546D01*
X3085857Y-15055089D01*
X3067481Y-15077481D01*
X3045089Y-15095857D01*
X3019546Y-15109510D01*
X2991825Y-15117919D01*
X2960546Y-15121000D01*
X2569454Y-15121000D01*
X2538175Y-15117919D01*
X2510454Y-15109510D01*
X2484911Y-15095857D01*
X2462519Y-15077481D01*
X2444143Y-15055089D01*
X2430490Y-15029546D01*
X2422081Y-15001825D01*
X2419000Y-14970546D01*
X2419000Y-14529454D01*
X2422081Y-14498175D01*
X2430490Y-14470454D01*
X2444143Y-14444911D01*
X2462519Y-14422519D01*
X2484911Y-14404143D01*
X2510454Y-14390490D01*
X2538175Y-14382081D01*
X2569454Y-14379000D01*
X2960546Y-14379000D01*
X2991825Y-14382081D01*
X2991825Y-14382081D01*
G37*
G36*
X3961825Y-14382081D02*
X3989546Y-14390490D01*
X4015089Y-14404143D01*
X4037481Y-14422519D01*
X4055857Y-14444911D01*
X4069510Y-14470454D01*
X4077919Y-14498175D01*
X4081000Y-14529454D01*
X4081000Y-14970546D01*
X4077919Y-15001825D01*
X4069510Y-15029546D01*
X4055857Y-15055089D01*
X4037481Y-15077481D01*
X4015089Y-15095857D01*
X3989546Y-15109510D01*
X3961825Y-15117919D01*
X3930546Y-15121000D01*
X3539454Y-15121000D01*
X3508175Y-15117919D01*
X3480454Y-15109510D01*
X3454911Y-15095857D01*
X3432519Y-15077481D01*
X3414143Y-15055089D01*
X3400490Y-15029546D01*
X3392081Y-15001825D01*
X3389000Y-14970546D01*
X3389000Y-14529454D01*
X3392081Y-14498175D01*
X3400490Y-14470454D01*
X3414143Y-14444911D01*
X3432519Y-14422519D01*
X3454911Y-14404143D01*
X3480454Y-14390490D01*
X3508175Y-14382081D01*
X3539454Y-14379000D01*
X3930546Y-14379000D01*
X3961825Y-14382081D01*
X3961825Y-14382081D01*
G37*
G36*
X13026000Y-14426000D02*
X12624000Y-14426000D01*
X12624000Y-14024000D01*
X13026000Y-14024000D01*
X13026000Y-14426000D01*
X13026000Y-14426000D01*
G37*
G36*
X14326000Y-14426000D02*
X13924000Y-14426000D01*
X13924000Y-14024000D01*
X14326000Y-14024000D01*
X14326000Y-14426000D01*
X14326000Y-14426000D01*
G37*
G36*
X11076000Y-14426000D02*
X10674000Y-14426000D01*
X10674000Y-14024000D01*
X11076000Y-14024000D01*
X11076000Y-14426000D01*
X11076000Y-14426000D01*
G37*
G36*
X9776000Y-14426000D02*
X9374000Y-14426000D01*
X9374000Y-14024000D01*
X9776000Y-14024000D01*
X9776000Y-14426000D01*
X9776000Y-14426000D01*
G37*
G36*
X12376000Y-14426000D02*
X11974000Y-14426000D01*
X11974000Y-14024000D01*
X12376000Y-14024000D01*
X12376000Y-14426000D01*
X12376000Y-14426000D01*
G37*
G36*
X13676000Y-14426000D02*
X13274000Y-14426000D01*
X13274000Y-14024000D01*
X13676000Y-14024000D01*
X13676000Y-14426000D01*
X13676000Y-14426000D01*
G37*
G36*
X15626000Y-14426000D02*
X15224000Y-14426000D01*
X15224000Y-14024000D01*
X15626000Y-14024000D01*
X15626000Y-14426000D01*
X15626000Y-14426000D01*
G37*
G36*
X11726000Y-14426000D02*
X11324000Y-14426000D01*
X11324000Y-14024000D01*
X11726000Y-14024000D01*
X11726000Y-14426000D01*
X11726000Y-14426000D01*
G37*
G36*
X14976000Y-14426000D02*
X14574000Y-14426000D01*
X14574000Y-14024000D01*
X14976000Y-14024000D01*
X14976000Y-14426000D01*
X14976000Y-14426000D01*
G37*
G36*
X10426000Y-14426000D02*
X10024000Y-14426000D01*
X10024000Y-14024000D01*
X10426000Y-14024000D01*
X10426000Y-14426000D01*
X10426000Y-14426000D01*
G37*
G36*
X8026825Y-13642081D02*
X8054546Y-13650490D01*
X8080089Y-13664143D01*
X8102481Y-13682519D01*
X8120857Y-13704911D01*
X8134510Y-13730454D01*
X8142919Y-13758175D01*
X8146000Y-13789454D01*
X8146000Y-14180546D01*
X8142919Y-14211825D01*
X8134510Y-14239546D01*
X8120857Y-14265089D01*
X8102481Y-14287481D01*
X8080089Y-14305857D01*
X8054546Y-14319510D01*
X8026825Y-14327919D01*
X7995546Y-14331000D01*
X7554454Y-14331000D01*
X7523175Y-14327919D01*
X7495454Y-14319510D01*
X7469911Y-14305857D01*
X7447519Y-14287481D01*
X7429143Y-14265089D01*
X7415490Y-14239546D01*
X7407081Y-14211825D01*
X7404000Y-14180546D01*
X7404000Y-13789454D01*
X7407081Y-13758175D01*
X7415490Y-13730454D01*
X7429143Y-13704911D01*
X7447519Y-13682519D01*
X7469911Y-13664143D01*
X7495454Y-13650490D01*
X7523175Y-13642081D01*
X7554454Y-13639000D01*
X7995546Y-13639000D01*
X8026825Y-13642081D01*
X8026825Y-13642081D01*
G37*
G36*
X3961825Y-13382081D02*
X3989546Y-13390490D01*
X4015089Y-13404143D01*
X4037481Y-13422519D01*
X4055857Y-13444911D01*
X4069510Y-13470454D01*
X4077919Y-13498175D01*
X4081000Y-13529454D01*
X4081000Y-13970546D01*
X4077919Y-14001825D01*
X4069510Y-14029546D01*
X4055857Y-14055089D01*
X4037481Y-14077481D01*
X4015089Y-14095857D01*
X3989546Y-14109510D01*
X3961825Y-14117919D01*
X3930546Y-14121000D01*
X3539454Y-14121000D01*
X3508175Y-14117919D01*
X3480454Y-14109510D01*
X3454911Y-14095857D01*
X3432519Y-14077481D01*
X3414143Y-14055089D01*
X3400490Y-14029546D01*
X3392081Y-14001825D01*
X3389000Y-13970546D01*
X3389000Y-13529454D01*
X3392081Y-13498175D01*
X3400490Y-13470454D01*
X3414143Y-13444911D01*
X3432519Y-13422519D01*
X3454911Y-13404143D01*
X3480454Y-13390490D01*
X3508175Y-13382081D01*
X3539454Y-13379000D01*
X3930546Y-13379000D01*
X3961825Y-13382081D01*
X3961825Y-13382081D01*
G37*
G36*
X2991825Y-13382081D02*
X3019546Y-13390490D01*
X3045089Y-13404143D01*
X3067481Y-13422519D01*
X3085857Y-13444911D01*
X3099510Y-13470454D01*
X3107919Y-13498175D01*
X3111000Y-13529454D01*
X3111000Y-13970546D01*
X3107919Y-14001825D01*
X3099510Y-14029546D01*
X3085857Y-14055089D01*
X3067481Y-14077481D01*
X3045089Y-14095857D01*
X3019546Y-14109510D01*
X2991825Y-14117919D01*
X2960546Y-14121000D01*
X2569454Y-14121000D01*
X2538175Y-14117919D01*
X2510454Y-14109510D01*
X2484911Y-14095857D01*
X2462519Y-14077481D01*
X2444143Y-14055089D01*
X2430490Y-14029546D01*
X2422081Y-14001825D01*
X2419000Y-13970546D01*
X2419000Y-13529454D01*
X2422081Y-13498175D01*
X2430490Y-13470454D01*
X2444143Y-13444911D01*
X2462519Y-13422519D01*
X2484911Y-13404143D01*
X2510454Y-13390490D01*
X2538175Y-13382081D01*
X2569454Y-13379000D01*
X2960546Y-13379000D01*
X2991825Y-13382081D01*
X2991825Y-13382081D01*
G37*
G36*
X15626000Y-13776000D02*
X15224000Y-13776000D01*
X15224000Y-13374000D01*
X15626000Y-13374000D01*
X15626000Y-13776000D01*
X15626000Y-13776000D01*
G37*
G36*
X13026000Y-13776000D02*
X12624000Y-13776000D01*
X12624000Y-13374000D01*
X13026000Y-13374000D01*
X13026000Y-13776000D01*
X13026000Y-13776000D01*
G37*
G36*
X9776000Y-13776000D02*
X9374000Y-13776000D01*
X9374000Y-13374000D01*
X9776000Y-13374000D01*
X9776000Y-13776000D01*
X9776000Y-13776000D01*
G37*
G36*
X14326000Y-13776000D02*
X13924000Y-13776000D01*
X13924000Y-13374000D01*
X14326000Y-13374000D01*
X14326000Y-13776000D01*
X14326000Y-13776000D01*
G37*
G36*
X12376000Y-13776000D02*
X11974000Y-13776000D01*
X11974000Y-13374000D01*
X12376000Y-13374000D01*
X12376000Y-13776000D01*
X12376000Y-13776000D01*
G37*
G36*
X13676000Y-13776000D02*
X13274000Y-13776000D01*
X13274000Y-13374000D01*
X13676000Y-13374000D01*
X13676000Y-13776000D01*
X13676000Y-13776000D01*
G37*
G36*
X11076000Y-13776000D02*
X10674000Y-13776000D01*
X10674000Y-13374000D01*
X11076000Y-13374000D01*
X11076000Y-13776000D01*
X11076000Y-13776000D01*
G37*
G36*
X11726000Y-13776000D02*
X11324000Y-13776000D01*
X11324000Y-13374000D01*
X11726000Y-13374000D01*
X11726000Y-13776000D01*
X11726000Y-13776000D01*
G37*
G36*
X14976000Y-13776000D02*
X14574000Y-13776000D01*
X14574000Y-13374000D01*
X14976000Y-13374000D01*
X14976000Y-13776000D01*
X14976000Y-13776000D01*
G37*
G36*
X10426000Y-13776000D02*
X10024000Y-13776000D01*
X10024000Y-13374000D01*
X10426000Y-13374000D01*
X10426000Y-13776000D01*
X10426000Y-13776000D01*
G37*
G36*
X19676825Y-12937081D02*
X19704546Y-12945490D01*
X19730089Y-12959143D01*
X19752481Y-12977519D01*
X19770857Y-12999911D01*
X19784510Y-13025454D01*
X19792919Y-13053175D01*
X19796000Y-13084454D01*
X19796000Y-13475546D01*
X19792919Y-13506825D01*
X19784510Y-13534546D01*
X19770857Y-13560089D01*
X19752481Y-13582481D01*
X19730089Y-13600857D01*
X19704546Y-13614510D01*
X19676825Y-13622919D01*
X19645546Y-13626000D01*
X19204454Y-13626000D01*
X19173175Y-13622919D01*
X19145454Y-13614510D01*
X19119911Y-13600857D01*
X19097519Y-13582481D01*
X19079143Y-13560089D01*
X19065490Y-13534546D01*
X19057081Y-13506825D01*
X19054000Y-13475546D01*
X19054000Y-13084454D01*
X19057081Y-13053175D01*
X19065490Y-13025454D01*
X19079143Y-12999911D01*
X19097519Y-12977519D01*
X19119911Y-12959143D01*
X19145454Y-12945490D01*
X19173175Y-12937081D01*
X19204454Y-12934000D01*
X19645546Y-12934000D01*
X19676825Y-12937081D01*
X19676825Y-12937081D01*
G37*
G36*
X18676825Y-12937081D02*
X18704546Y-12945490D01*
X18730089Y-12959143D01*
X18752481Y-12977519D01*
X18770857Y-12999911D01*
X18784510Y-13025454D01*
X18792919Y-13053175D01*
X18796000Y-13084454D01*
X18796000Y-13475546D01*
X18792919Y-13506825D01*
X18784510Y-13534546D01*
X18770857Y-13560089D01*
X18752481Y-13582481D01*
X18730089Y-13600857D01*
X18704546Y-13614510D01*
X18676825Y-13622919D01*
X18645546Y-13626000D01*
X18204454Y-13626000D01*
X18173175Y-13622919D01*
X18145454Y-13614510D01*
X18119911Y-13600857D01*
X18097519Y-13582481D01*
X18079143Y-13560089D01*
X18065490Y-13534546D01*
X18057081Y-13506825D01*
X18054000Y-13475546D01*
X18054000Y-13084454D01*
X18057081Y-13053175D01*
X18065490Y-13025454D01*
X18079143Y-12999911D01*
X18097519Y-12977519D01*
X18119911Y-12959143D01*
X18145454Y-12945490D01*
X18173175Y-12937081D01*
X18204454Y-12934000D01*
X18645546Y-12934000D01*
X18676825Y-12937081D01*
X18676825Y-12937081D01*
G37*
G36*
X17626825Y-12937081D02*
X17654546Y-12945490D01*
X17680089Y-12959143D01*
X17702481Y-12977519D01*
X17720857Y-12999911D01*
X17734510Y-13025454D01*
X17742919Y-13053175D01*
X17746000Y-13084454D01*
X17746000Y-13475546D01*
X17742919Y-13506825D01*
X17734510Y-13534546D01*
X17720857Y-13560089D01*
X17702481Y-13582481D01*
X17680089Y-13600857D01*
X17654546Y-13614510D01*
X17626825Y-13622919D01*
X17595546Y-13626000D01*
X17154454Y-13626000D01*
X17123175Y-13622919D01*
X17095454Y-13614510D01*
X17069911Y-13600857D01*
X17047519Y-13582481D01*
X17029143Y-13560089D01*
X17015490Y-13534546D01*
X17007081Y-13506825D01*
X17004000Y-13475546D01*
X17004000Y-13084454D01*
X17007081Y-13053175D01*
X17015490Y-13025454D01*
X17029143Y-12999911D01*
X17047519Y-12977519D01*
X17069911Y-12959143D01*
X17095454Y-12945490D01*
X17123175Y-12937081D01*
X17154454Y-12934000D01*
X17595546Y-12934000D01*
X17626825Y-12937081D01*
X17626825Y-12937081D01*
G37*
G36*
X8026825Y-12672081D02*
X8054546Y-12680490D01*
X8080089Y-12694143D01*
X8102481Y-12712519D01*
X8120857Y-12734911D01*
X8134510Y-12760454D01*
X8142919Y-12788175D01*
X8146000Y-12819454D01*
X8146000Y-13210546D01*
X8142919Y-13241825D01*
X8134510Y-13269546D01*
X8120857Y-13295089D01*
X8102481Y-13317481D01*
X8080089Y-13335857D01*
X8054546Y-13349510D01*
X8026825Y-13357919D01*
X7995546Y-13361000D01*
X7554454Y-13361000D01*
X7523175Y-13357919D01*
X7495454Y-13349510D01*
X7469911Y-13335857D01*
X7447519Y-13317481D01*
X7429143Y-13295089D01*
X7415490Y-13269546D01*
X7407081Y-13241825D01*
X7404000Y-13210546D01*
X7404000Y-12819454D01*
X7407081Y-12788175D01*
X7415490Y-12760454D01*
X7429143Y-12734911D01*
X7447519Y-12712519D01*
X7469911Y-12694143D01*
X7495454Y-12680490D01*
X7523175Y-12672081D01*
X7554454Y-12669000D01*
X7995546Y-12669000D01*
X8026825Y-12672081D01*
X8026825Y-12672081D01*
G37*
G36*
X10426000Y-13126000D02*
X10024000Y-13126000D01*
X10024000Y-12724000D01*
X10426000Y-12724000D01*
X10426000Y-13126000D01*
X10426000Y-13126000D01*
G37*
G36*
X14976000Y-13126000D02*
X14574000Y-13126000D01*
X14574000Y-12724000D01*
X14976000Y-12724000D01*
X14976000Y-13126000D01*
X14976000Y-13126000D01*
G37*
G36*
X13676000Y-13126000D02*
X13274000Y-13126000D01*
X13274000Y-12724000D01*
X13676000Y-12724000D01*
X13676000Y-13126000D01*
X13676000Y-13126000D01*
G37*
G36*
X14326000Y-13126000D02*
X13924000Y-13126000D01*
X13924000Y-12724000D01*
X14326000Y-12724000D01*
X14326000Y-13126000D01*
X14326000Y-13126000D01*
G37*
G36*
X15626000Y-13126000D02*
X15224000Y-13126000D01*
X15224000Y-12724000D01*
X15626000Y-12724000D01*
X15626000Y-13126000D01*
X15626000Y-13126000D01*
G37*
G36*
X9776000Y-13126000D02*
X9374000Y-13126000D01*
X9374000Y-12724000D01*
X9776000Y-12724000D01*
X9776000Y-13126000D01*
X9776000Y-13126000D01*
G37*
G36*
X13026000Y-13126000D02*
X12624000Y-13126000D01*
X12624000Y-12724000D01*
X13026000Y-12724000D01*
X13026000Y-13126000D01*
X13026000Y-13126000D01*
G37*
G36*
X11076000Y-13126000D02*
X10674000Y-13126000D01*
X10674000Y-12724000D01*
X11076000Y-12724000D01*
X11076000Y-13126000D01*
X11076000Y-13126000D01*
G37*
G36*
X12376000Y-13126000D02*
X11974000Y-13126000D01*
X11974000Y-12724000D01*
X12376000Y-12724000D01*
X12376000Y-13126000D01*
X12376000Y-13126000D01*
G37*
G36*
X11726000Y-13126000D02*
X11324000Y-13126000D01*
X11324000Y-12724000D01*
X11726000Y-12724000D01*
X11726000Y-13126000D01*
X11726000Y-13126000D01*
G37*
G36*
X3961825Y-12382081D02*
X3989546Y-12390490D01*
X4015089Y-12404143D01*
X4037481Y-12422519D01*
X4055857Y-12444911D01*
X4069510Y-12470454D01*
X4077919Y-12498175D01*
X4081000Y-12529454D01*
X4081000Y-12970546D01*
X4077919Y-13001825D01*
X4069510Y-13029546D01*
X4055857Y-13055089D01*
X4037481Y-13077481D01*
X4015089Y-13095857D01*
X3989546Y-13109510D01*
X3961825Y-13117919D01*
X3930546Y-13121000D01*
X3539454Y-13121000D01*
X3508175Y-13117919D01*
X3480454Y-13109510D01*
X3454911Y-13095857D01*
X3432519Y-13077481D01*
X3414143Y-13055089D01*
X3400490Y-13029546D01*
X3392081Y-13001825D01*
X3389000Y-12970546D01*
X3389000Y-12529454D01*
X3392081Y-12498175D01*
X3400490Y-12470454D01*
X3414143Y-12444911D01*
X3432519Y-12422519D01*
X3454911Y-12404143D01*
X3480454Y-12390490D01*
X3508175Y-12382081D01*
X3539454Y-12379000D01*
X3930546Y-12379000D01*
X3961825Y-12382081D01*
X3961825Y-12382081D01*
G37*
G36*
X2991825Y-12382081D02*
X3019546Y-12390490D01*
X3045089Y-12404143D01*
X3067481Y-12422519D01*
X3085857Y-12444911D01*
X3099510Y-12470454D01*
X3107919Y-12498175D01*
X3111000Y-12529454D01*
X3111000Y-12970546D01*
X3107919Y-13001825D01*
X3099510Y-13029546D01*
X3085857Y-13055089D01*
X3067481Y-13077481D01*
X3045089Y-13095857D01*
X3019546Y-13109510D01*
X2991825Y-13117919D01*
X2960546Y-13121000D01*
X2569454Y-13121000D01*
X2538175Y-13117919D01*
X2510454Y-13109510D01*
X2484911Y-13095857D01*
X2462519Y-13077481D01*
X2444143Y-13055089D01*
X2430490Y-13029546D01*
X2422081Y-13001825D01*
X2419000Y-12970546D01*
X2419000Y-12529454D01*
X2422081Y-12498175D01*
X2430490Y-12470454D01*
X2444143Y-12444911D01*
X2462519Y-12422519D01*
X2484911Y-12404143D01*
X2510454Y-12390490D01*
X2538175Y-12382081D01*
X2569454Y-12379000D01*
X2960546Y-12379000D01*
X2991825Y-12382081D01*
X2991825Y-12382081D01*
G37*
G36*
X21216825Y-12317081D02*
X21244546Y-12325490D01*
X21270089Y-12339143D01*
X21292481Y-12357519D01*
X21310857Y-12379911D01*
X21324510Y-12405454D01*
X21332919Y-12433175D01*
X21336000Y-12464454D01*
X21336000Y-12855546D01*
X21332919Y-12886825D01*
X21324510Y-12914546D01*
X21310857Y-12940089D01*
X21292481Y-12962481D01*
X21270089Y-12980857D01*
X21244546Y-12994510D01*
X21216825Y-13002919D01*
X21185546Y-13006000D01*
X20744454Y-13006000D01*
X20713175Y-13002919D01*
X20685454Y-12994510D01*
X20659911Y-12980857D01*
X20637519Y-12962481D01*
X20619143Y-12940089D01*
X20605490Y-12914546D01*
X20597081Y-12886825D01*
X20594000Y-12855546D01*
X20594000Y-12464454D01*
X20597081Y-12433175D01*
X20605490Y-12405454D01*
X20619143Y-12379911D01*
X20637519Y-12357519D01*
X20659911Y-12339143D01*
X20685454Y-12325490D01*
X20713175Y-12317081D01*
X20744454Y-12314000D01*
X21185546Y-12314000D01*
X21216825Y-12317081D01*
X21216825Y-12317081D01*
G37*
G36*
X17626825Y-11967081D02*
X17654546Y-11975490D01*
X17680089Y-11989143D01*
X17702481Y-12007519D01*
X17720857Y-12029911D01*
X17734510Y-12055454D01*
X17742919Y-12083175D01*
X17746000Y-12114454D01*
X17746000Y-12505546D01*
X17742919Y-12536825D01*
X17734510Y-12564546D01*
X17720857Y-12590089D01*
X17702481Y-12612481D01*
X17680089Y-12630857D01*
X17654546Y-12644510D01*
X17626825Y-12652919D01*
X17595546Y-12656000D01*
X17154454Y-12656000D01*
X17123175Y-12652919D01*
X17095454Y-12644510D01*
X17069911Y-12630857D01*
X17047519Y-12612481D01*
X17029143Y-12590089D01*
X17015490Y-12564546D01*
X17007081Y-12536825D01*
X17004000Y-12505546D01*
X17004000Y-12114454D01*
X17007081Y-12083175D01*
X17015490Y-12055454D01*
X17029143Y-12029911D01*
X17047519Y-12007519D01*
X17069911Y-11989143D01*
X17095454Y-11975490D01*
X17123175Y-11967081D01*
X17154454Y-11964000D01*
X17595546Y-11964000D01*
X17626825Y-11967081D01*
X17626825Y-11967081D01*
G37*
G36*
X18676825Y-11967081D02*
X18704546Y-11975490D01*
X18730089Y-11989143D01*
X18752481Y-12007519D01*
X18770857Y-12029911D01*
X18784510Y-12055454D01*
X18792919Y-12083175D01*
X18796000Y-12114454D01*
X18796000Y-12505546D01*
X18792919Y-12536825D01*
X18784510Y-12564546D01*
X18770857Y-12590089D01*
X18752481Y-12612481D01*
X18730089Y-12630857D01*
X18704546Y-12644510D01*
X18676825Y-12652919D01*
X18645546Y-12656000D01*
X18204454Y-12656000D01*
X18173175Y-12652919D01*
X18145454Y-12644510D01*
X18119911Y-12630857D01*
X18097519Y-12612481D01*
X18079143Y-12590089D01*
X18065490Y-12564546D01*
X18057081Y-12536825D01*
X18054000Y-12505546D01*
X18054000Y-12114454D01*
X18057081Y-12083175D01*
X18065490Y-12055454D01*
X18079143Y-12029911D01*
X18097519Y-12007519D01*
X18119911Y-11989143D01*
X18145454Y-11975490D01*
X18173175Y-11967081D01*
X18204454Y-11964000D01*
X18645546Y-11964000D01*
X18676825Y-11967081D01*
X18676825Y-11967081D01*
G37*
G36*
X19676825Y-11967081D02*
X19704546Y-11975490D01*
X19730089Y-11989143D01*
X19752481Y-12007519D01*
X19770857Y-12029911D01*
X19784510Y-12055454D01*
X19792919Y-12083175D01*
X19796000Y-12114454D01*
X19796000Y-12505546D01*
X19792919Y-12536825D01*
X19784510Y-12564546D01*
X19770857Y-12590089D01*
X19752481Y-12612481D01*
X19730089Y-12630857D01*
X19704546Y-12644510D01*
X19676825Y-12652919D01*
X19645546Y-12656000D01*
X19204454Y-12656000D01*
X19173175Y-12652919D01*
X19145454Y-12644510D01*
X19119911Y-12630857D01*
X19097519Y-12612481D01*
X19079143Y-12590089D01*
X19065490Y-12564546D01*
X19057081Y-12536825D01*
X19054000Y-12505546D01*
X19054000Y-12114454D01*
X19057081Y-12083175D01*
X19065490Y-12055454D01*
X19079143Y-12029911D01*
X19097519Y-12007519D01*
X19119911Y-11989143D01*
X19145454Y-11975490D01*
X19173175Y-11967081D01*
X19204454Y-11964000D01*
X19645546Y-11964000D01*
X19676825Y-11967081D01*
X19676825Y-11967081D01*
G37*
G36*
X15626000Y-12476000D02*
X15224000Y-12476000D01*
X15224000Y-12074000D01*
X15626000Y-12074000D01*
X15626000Y-12476000D01*
X15626000Y-12476000D01*
G37*
G36*
X10426000Y-12476000D02*
X10024000Y-12476000D01*
X10024000Y-12074000D01*
X10426000Y-12074000D01*
X10426000Y-12476000D01*
X10426000Y-12476000D01*
G37*
G36*
X14326000Y-12476000D02*
X13924000Y-12476000D01*
X13924000Y-12074000D01*
X14326000Y-12074000D01*
X14326000Y-12476000D01*
X14326000Y-12476000D01*
G37*
G36*
X11076000Y-12476000D02*
X10674000Y-12476000D01*
X10674000Y-12074000D01*
X11076000Y-12074000D01*
X11076000Y-12476000D01*
X11076000Y-12476000D01*
G37*
G36*
X9776000Y-12476000D02*
X9374000Y-12476000D01*
X9374000Y-12074000D01*
X9776000Y-12074000D01*
X9776000Y-12476000D01*
X9776000Y-12476000D01*
G37*
G36*
X14976000Y-12476000D02*
X14574000Y-12476000D01*
X14574000Y-12074000D01*
X14976000Y-12074000D01*
X14976000Y-12476000D01*
X14976000Y-12476000D01*
G37*
G36*
X3961825Y-11382081D02*
X3989546Y-11390490D01*
X4015089Y-11404143D01*
X4037481Y-11422519D01*
X4055857Y-11444911D01*
X4069510Y-11470454D01*
X4077919Y-11498175D01*
X4081000Y-11529454D01*
X4081000Y-11970546D01*
X4077919Y-12001825D01*
X4069510Y-12029546D01*
X4055857Y-12055089D01*
X4037481Y-12077481D01*
X4015089Y-12095857D01*
X3989546Y-12109510D01*
X3961825Y-12117919D01*
X3930546Y-12121000D01*
X3539454Y-12121000D01*
X3508175Y-12117919D01*
X3480454Y-12109510D01*
X3454911Y-12095857D01*
X3432519Y-12077481D01*
X3414143Y-12055089D01*
X3400490Y-12029546D01*
X3392081Y-12001825D01*
X3389000Y-11970546D01*
X3389000Y-11529454D01*
X3392081Y-11498175D01*
X3400490Y-11470454D01*
X3414143Y-11444911D01*
X3432519Y-11422519D01*
X3454911Y-11404143D01*
X3480454Y-11390490D01*
X3508175Y-11382081D01*
X3539454Y-11379000D01*
X3930546Y-11379000D01*
X3961825Y-11382081D01*
X3961825Y-11382081D01*
G37*
G36*
X2991825Y-11382081D02*
X3019546Y-11390490D01*
X3045089Y-11404143D01*
X3067481Y-11422519D01*
X3085857Y-11444911D01*
X3099510Y-11470454D01*
X3107919Y-11498175D01*
X3111000Y-11529454D01*
X3111000Y-11970546D01*
X3107919Y-12001825D01*
X3099510Y-12029546D01*
X3085857Y-12055089D01*
X3067481Y-12077481D01*
X3045089Y-12095857D01*
X3019546Y-12109510D01*
X2991825Y-12117919D01*
X2960546Y-12121000D01*
X2569454Y-12121000D01*
X2538175Y-12117919D01*
X2510454Y-12109510D01*
X2484911Y-12095857D01*
X2462519Y-12077481D01*
X2444143Y-12055089D01*
X2430490Y-12029546D01*
X2422081Y-12001825D01*
X2419000Y-11970546D01*
X2419000Y-11529454D01*
X2422081Y-11498175D01*
X2430490Y-11470454D01*
X2444143Y-11444911D01*
X2462519Y-11422519D01*
X2484911Y-11404143D01*
X2510454Y-11390490D01*
X2538175Y-11382081D01*
X2569454Y-11379000D01*
X2960546Y-11379000D01*
X2991825Y-11382081D01*
X2991825Y-11382081D01*
G37*
G36*
X21216825Y-11347081D02*
X21244546Y-11355490D01*
X21270089Y-11369143D01*
X21292481Y-11387519D01*
X21310857Y-11409911D01*
X21324510Y-11435454D01*
X21332919Y-11463175D01*
X21336000Y-11494454D01*
X21336000Y-11885546D01*
X21332919Y-11916825D01*
X21324510Y-11944546D01*
X21310857Y-11970089D01*
X21292481Y-11992481D01*
X21270089Y-12010857D01*
X21244546Y-12024510D01*
X21216825Y-12032919D01*
X21185546Y-12036000D01*
X20744454Y-12036000D01*
X20713175Y-12032919D01*
X20685454Y-12024510D01*
X20659911Y-12010857D01*
X20637519Y-11992481D01*
X20619143Y-11970089D01*
X20605490Y-11944546D01*
X20597081Y-11916825D01*
X20594000Y-11885546D01*
X20594000Y-11494454D01*
X20597081Y-11463175D01*
X20605490Y-11435454D01*
X20619143Y-11409911D01*
X20637519Y-11387519D01*
X20659911Y-11369143D01*
X20685454Y-11355490D01*
X20713175Y-11347081D01*
X20744454Y-11344000D01*
X21185546Y-11344000D01*
X21216825Y-11347081D01*
X21216825Y-11347081D01*
G37*
G36*
X10426000Y-11826000D02*
X10024000Y-11826000D01*
X10024000Y-11424000D01*
X10426000Y-11424000D01*
X10426000Y-11826000D01*
X10426000Y-11826000D01*
G37*
G36*
X15626000Y-11826000D02*
X15224000Y-11826000D01*
X15224000Y-11424000D01*
X15626000Y-11424000D01*
X15626000Y-11826000D01*
X15626000Y-11826000D01*
G37*
G36*
X14976000Y-11826000D02*
X14574000Y-11826000D01*
X14574000Y-11424000D01*
X14976000Y-11424000D01*
X14976000Y-11826000D01*
X14976000Y-11826000D01*
G37*
G36*
X9776000Y-11826000D02*
X9374000Y-11826000D01*
X9374000Y-11424000D01*
X9776000Y-11424000D01*
X9776000Y-11826000D01*
X9776000Y-11826000D01*
G37*
G36*
X18586825Y-10977081D02*
X18614546Y-10985490D01*
X18640089Y-10999143D01*
X18662481Y-11017519D01*
X18680857Y-11039911D01*
X18694510Y-11065454D01*
X18702919Y-11093175D01*
X18706000Y-11124454D01*
X18706000Y-11565546D01*
X18702919Y-11596825D01*
X18694510Y-11624546D01*
X18680857Y-11650089D01*
X18662481Y-11672481D01*
X18640089Y-11690857D01*
X18614546Y-11704510D01*
X18586825Y-11712919D01*
X18555546Y-11716000D01*
X18164454Y-11716000D01*
X18133175Y-11712919D01*
X18105454Y-11704510D01*
X18079911Y-11690857D01*
X18057519Y-11672481D01*
X18039143Y-11650089D01*
X18025490Y-11624546D01*
X18017081Y-11596825D01*
X18014000Y-11565546D01*
X18014000Y-11124454D01*
X18017081Y-11093175D01*
X18025490Y-11065454D01*
X18039143Y-11039911D01*
X18057519Y-11017519D01*
X18079911Y-10999143D01*
X18105454Y-10985490D01*
X18133175Y-10977081D01*
X18164454Y-10974000D01*
X18555546Y-10974000D01*
X18586825Y-10977081D01*
X18586825Y-10977081D01*
G37*
G36*
X17616825Y-10977081D02*
X17644546Y-10985490D01*
X17670089Y-10999143D01*
X17692481Y-11017519D01*
X17710857Y-11039911D01*
X17724510Y-11065454D01*
X17732919Y-11093175D01*
X17736000Y-11124454D01*
X17736000Y-11565546D01*
X17732919Y-11596825D01*
X17724510Y-11624546D01*
X17710857Y-11650089D01*
X17692481Y-11672481D01*
X17670089Y-11690857D01*
X17644546Y-11704510D01*
X17616825Y-11712919D01*
X17585546Y-11716000D01*
X17194454Y-11716000D01*
X17163175Y-11712919D01*
X17135454Y-11704510D01*
X17109911Y-11690857D01*
X17087519Y-11672481D01*
X17069143Y-11650089D01*
X17055490Y-11624546D01*
X17047081Y-11596825D01*
X17044000Y-11565546D01*
X17044000Y-11124454D01*
X17047081Y-11093175D01*
X17055490Y-11065454D01*
X17069143Y-11039911D01*
X17087519Y-11017519D01*
X17109911Y-10999143D01*
X17135454Y-10985490D01*
X17163175Y-10977081D01*
X17194454Y-10974000D01*
X17585546Y-10974000D01*
X17616825Y-10977081D01*
X17616825Y-10977081D01*
G37*
G36*
X8026825Y-10892081D02*
X8054546Y-10900490D01*
X8080089Y-10914143D01*
X8102481Y-10932519D01*
X8120857Y-10954911D01*
X8134510Y-10980454D01*
X8142919Y-11008175D01*
X8146000Y-11039454D01*
X8146000Y-11430546D01*
X8142919Y-11461825D01*
X8134510Y-11489546D01*
X8120857Y-11515089D01*
X8102481Y-11537481D01*
X8080089Y-11555857D01*
X8054546Y-11569510D01*
X8026825Y-11577919D01*
X7995546Y-11581000D01*
X7554454Y-11581000D01*
X7523175Y-11577919D01*
X7495454Y-11569510D01*
X7469911Y-11555857D01*
X7447519Y-11537481D01*
X7429143Y-11515089D01*
X7415490Y-11489546D01*
X7407081Y-11461825D01*
X7404000Y-11430546D01*
X7404000Y-11039454D01*
X7407081Y-11008175D01*
X7415490Y-10980454D01*
X7429143Y-10954911D01*
X7447519Y-10932519D01*
X7469911Y-10914143D01*
X7495454Y-10900490D01*
X7523175Y-10892081D01*
X7554454Y-10889000D01*
X7995546Y-10889000D01*
X8026825Y-10892081D01*
X8026825Y-10892081D01*
G37*
G36*
X14351000Y-11451000D02*
X10649000Y-11451000D01*
X10649000Y-8549000D01*
X14351000Y-8549000D01*
X14351000Y-11451000D01*
X14351000Y-11451000D01*
G37*
G36*
X15626000Y-11176000D02*
X15224000Y-11176000D01*
X15224000Y-10774000D01*
X15626000Y-10774000D01*
X15626000Y-11176000D01*
X15626000Y-11176000D01*
G37*
G36*
X9776000Y-11176000D02*
X9374000Y-11176000D01*
X9374000Y-10774000D01*
X9776000Y-10774000D01*
X9776000Y-11176000D01*
X9776000Y-11176000D01*
G37*
G36*
X10426000Y-11176000D02*
X10024000Y-11176000D01*
X10024000Y-10774000D01*
X10426000Y-10774000D01*
X10426000Y-11176000D01*
X10426000Y-11176000D01*
G37*
G36*
X14976000Y-11176000D02*
X14574000Y-11176000D01*
X14574000Y-10774000D01*
X14976000Y-10774000D01*
X14976000Y-11176000D01*
X14976000Y-11176000D01*
G37*
G36*
X3961825Y-10382081D02*
X3989546Y-10390490D01*
X4015089Y-10404143D01*
X4037481Y-10422519D01*
X4055857Y-10444911D01*
X4069510Y-10470454D01*
X4077919Y-10498175D01*
X4081000Y-10529454D01*
X4081000Y-10970546D01*
X4077919Y-11001825D01*
X4069510Y-11029546D01*
X4055857Y-11055089D01*
X4037481Y-11077481D01*
X4015089Y-11095857D01*
X3989546Y-11109510D01*
X3961825Y-11117919D01*
X3930546Y-11121000D01*
X3539454Y-11121000D01*
X3508175Y-11117919D01*
X3480454Y-11109510D01*
X3454911Y-11095857D01*
X3432519Y-11077481D01*
X3414143Y-11055089D01*
X3400490Y-11029546D01*
X3392081Y-11001825D01*
X3389000Y-10970546D01*
X3389000Y-10529454D01*
X3392081Y-10498175D01*
X3400490Y-10470454D01*
X3414143Y-10444911D01*
X3432519Y-10422519D01*
X3454911Y-10404143D01*
X3480454Y-10390490D01*
X3508175Y-10382081D01*
X3539454Y-10379000D01*
X3930546Y-10379000D01*
X3961825Y-10382081D01*
X3961825Y-10382081D01*
G37*
G36*
X2991825Y-10382081D02*
X3019546Y-10390490D01*
X3045089Y-10404143D01*
X3067481Y-10422519D01*
X3085857Y-10444911D01*
X3099510Y-10470454D01*
X3107919Y-10498175D01*
X3111000Y-10529454D01*
X3111000Y-10970546D01*
X3107919Y-11001825D01*
X3099510Y-11029546D01*
X3085857Y-11055089D01*
X3067481Y-11077481D01*
X3045089Y-11095857D01*
X3019546Y-11109510D01*
X2991825Y-11117919D01*
X2960546Y-11121000D01*
X2569454Y-11121000D01*
X2538175Y-11117919D01*
X2510454Y-11109510D01*
X2484911Y-11095857D01*
X2462519Y-11077481D01*
X2444143Y-11055089D01*
X2430490Y-11029546D01*
X2422081Y-11001825D01*
X2419000Y-10970546D01*
X2419000Y-10529454D01*
X2422081Y-10498175D01*
X2430490Y-10470454D01*
X2444143Y-10444911D01*
X2462519Y-10422519D01*
X2484911Y-10404143D01*
X2510454Y-10390490D01*
X2538175Y-10382081D01*
X2569454Y-10379000D01*
X2960546Y-10379000D01*
X2991825Y-10382081D01*
X2991825Y-10382081D01*
G37*
G36*
X8026825Y-9922081D02*
X8054546Y-9930490D01*
X8080089Y-9944143D01*
X8102481Y-9962519D01*
X8120857Y-9984911D01*
X8134510Y-10010454D01*
X8142919Y-10038175D01*
X8146000Y-10069454D01*
X8146000Y-10460546D01*
X8142919Y-10491825D01*
X8134510Y-10519546D01*
X8120857Y-10545089D01*
X8102481Y-10567481D01*
X8080089Y-10585857D01*
X8054546Y-10599510D01*
X8026825Y-10607919D01*
X7995546Y-10611000D01*
X7554454Y-10611000D01*
X7523175Y-10607919D01*
X7495454Y-10599510D01*
X7469911Y-10585857D01*
X7447519Y-10567481D01*
X7429143Y-10545089D01*
X7415490Y-10519546D01*
X7407081Y-10491825D01*
X7404000Y-10460546D01*
X7404000Y-10069454D01*
X7407081Y-10038175D01*
X7415490Y-10010454D01*
X7429143Y-9984911D01*
X7447519Y-9962519D01*
X7469911Y-9944143D01*
X7495454Y-9930490D01*
X7523175Y-9922081D01*
X7554454Y-9919000D01*
X7995546Y-9919000D01*
X8026825Y-9922081D01*
X8026825Y-9922081D01*
G37*
G36*
X9776000Y-10526000D02*
X9374000Y-10526000D01*
X9374000Y-10124000D01*
X9776000Y-10124000D01*
X9776000Y-10526000D01*
X9776000Y-10526000D01*
G37*
G36*
X15626000Y-10526000D02*
X15224000Y-10526000D01*
X15224000Y-10124000D01*
X15626000Y-10124000D01*
X15626000Y-10526000D01*
X15626000Y-10526000D01*
G37*
G36*
X10426000Y-10526000D02*
X10024000Y-10526000D01*
X10024000Y-10124000D01*
X10426000Y-10124000D01*
X10426000Y-10526000D01*
X10426000Y-10526000D01*
G37*
G36*
X14976000Y-10526000D02*
X14574000Y-10526000D01*
X14574000Y-10124000D01*
X14976000Y-10124000D01*
X14976000Y-10526000D01*
X14976000Y-10526000D01*
G37*
G36*
X2991825Y-9382081D02*
X3019546Y-9390490D01*
X3045089Y-9404143D01*
X3067481Y-9422519D01*
X3085857Y-9444911D01*
X3099510Y-9470454D01*
X3107919Y-9498175D01*
X3111000Y-9529454D01*
X3111000Y-9970546D01*
X3107919Y-10001825D01*
X3099510Y-10029546D01*
X3085857Y-10055089D01*
X3067481Y-10077481D01*
X3045089Y-10095857D01*
X3019546Y-10109510D01*
X2991825Y-10117919D01*
X2960546Y-10121000D01*
X2569454Y-10121000D01*
X2538175Y-10117919D01*
X2510454Y-10109510D01*
X2484911Y-10095857D01*
X2462519Y-10077481D01*
X2444143Y-10055089D01*
X2430490Y-10029546D01*
X2422081Y-10001825D01*
X2419000Y-9970546D01*
X2419000Y-9529454D01*
X2422081Y-9498175D01*
X2430490Y-9470454D01*
X2444143Y-9444911D01*
X2462519Y-9422519D01*
X2484911Y-9404143D01*
X2510454Y-9390490D01*
X2538175Y-9382081D01*
X2569454Y-9379000D01*
X2960546Y-9379000D01*
X2991825Y-9382081D01*
X2991825Y-9382081D01*
G37*
G36*
X3961825Y-9382081D02*
X3989546Y-9390490D01*
X4015089Y-9404143D01*
X4037481Y-9422519D01*
X4055857Y-9444911D01*
X4069510Y-9470454D01*
X4077919Y-9498175D01*
X4081000Y-9529454D01*
X4081000Y-9970546D01*
X4077919Y-10001825D01*
X4069510Y-10029546D01*
X4055857Y-10055089D01*
X4037481Y-10077481D01*
X4015089Y-10095857D01*
X3989546Y-10109510D01*
X3961825Y-10117919D01*
X3930546Y-10121000D01*
X3539454Y-10121000D01*
X3508175Y-10117919D01*
X3480454Y-10109510D01*
X3454911Y-10095857D01*
X3432519Y-10077481D01*
X3414143Y-10055089D01*
X3400490Y-10029546D01*
X3392081Y-10001825D01*
X3389000Y-9970546D01*
X3389000Y-9529454D01*
X3392081Y-9498175D01*
X3400490Y-9470454D01*
X3414143Y-9444911D01*
X3432519Y-9422519D01*
X3454911Y-9404143D01*
X3480454Y-9390490D01*
X3508175Y-9382081D01*
X3539454Y-9379000D01*
X3930546Y-9379000D01*
X3961825Y-9382081D01*
X3961825Y-9382081D01*
G37*
G36*
X15626000Y-9876000D02*
X15224000Y-9876000D01*
X15224000Y-9474000D01*
X15626000Y-9474000D01*
X15626000Y-9876000D01*
X15626000Y-9876000D01*
G37*
G36*
X14976000Y-9876000D02*
X14574000Y-9876000D01*
X14574000Y-9474000D01*
X14976000Y-9474000D01*
X14976000Y-9876000D01*
X14976000Y-9876000D01*
G37*
G36*
X10426000Y-9876000D02*
X10024000Y-9876000D01*
X10024000Y-9474000D01*
X10426000Y-9474000D01*
X10426000Y-9876000D01*
X10426000Y-9876000D01*
G37*
G36*
X9776000Y-9876000D02*
X9374000Y-9876000D01*
X9374000Y-9474000D01*
X9776000Y-9474000D01*
X9776000Y-9876000D01*
X9776000Y-9876000D01*
G37*
G36*
X9776000Y-9226000D02*
X9374000Y-9226000D01*
X9374000Y-8824000D01*
X9776000Y-8824000D01*
X9776000Y-9226000D01*
X9776000Y-9226000D01*
G37*
G36*
X15626000Y-9226000D02*
X15224000Y-9226000D01*
X15224000Y-8824000D01*
X15626000Y-8824000D01*
X15626000Y-9226000D01*
X15626000Y-9226000D01*
G37*
G36*
X14976000Y-9226000D02*
X14574000Y-9226000D01*
X14574000Y-8824000D01*
X14976000Y-8824000D01*
X14976000Y-9226000D01*
X14976000Y-9226000D01*
G37*
G36*
X10426000Y-9226000D02*
X10024000Y-9226000D01*
X10024000Y-8824000D01*
X10426000Y-8824000D01*
X10426000Y-9226000D01*
X10426000Y-9226000D01*
G37*
G36*
X7041825Y-8472081D02*
X7069546Y-8480490D01*
X7095089Y-8494143D01*
X7117481Y-8512519D01*
X7135857Y-8534911D01*
X7149510Y-8560454D01*
X7157919Y-8588175D01*
X7161000Y-8619454D01*
X7161000Y-9010546D01*
X7157919Y-9041825D01*
X7149510Y-9069546D01*
X7135857Y-9095089D01*
X7117481Y-9117481D01*
X7095089Y-9135857D01*
X7069546Y-9149510D01*
X7041825Y-9157919D01*
X7010546Y-9161000D01*
X6569454Y-9161000D01*
X6538175Y-9157919D01*
X6510454Y-9149510D01*
X6484911Y-9135857D01*
X6462519Y-9117481D01*
X6444143Y-9095089D01*
X6430490Y-9069546D01*
X6422081Y-9041825D01*
X6419000Y-9010546D01*
X6419000Y-8619454D01*
X6422081Y-8588175D01*
X6430490Y-8560454D01*
X6444143Y-8534911D01*
X6462519Y-8512519D01*
X6484911Y-8494143D01*
X6510454Y-8480490D01*
X6538175Y-8472081D01*
X6569454Y-8469000D01*
X7010546Y-8469000D01*
X7041825Y-8472081D01*
X7041825Y-8472081D01*
G37*
G36*
X8091825Y-8472081D02*
X8119546Y-8480490D01*
X8145089Y-8494143D01*
X8167481Y-8512519D01*
X8185857Y-8534911D01*
X8199510Y-8560454D01*
X8207919Y-8588175D01*
X8211000Y-8619454D01*
X8211000Y-9010546D01*
X8207919Y-9041825D01*
X8199510Y-9069546D01*
X8185857Y-9095089D01*
X8167481Y-9117481D01*
X8145089Y-9135857D01*
X8119546Y-9149510D01*
X8091825Y-9157919D01*
X8060546Y-9161000D01*
X7619454Y-9161000D01*
X7588175Y-9157919D01*
X7560454Y-9149510D01*
X7534911Y-9135857D01*
X7512519Y-9117481D01*
X7494143Y-9095089D01*
X7480490Y-9069546D01*
X7472081Y-9041825D01*
X7469000Y-9010546D01*
X7469000Y-8619454D01*
X7472081Y-8588175D01*
X7480490Y-8560454D01*
X7494143Y-8534911D01*
X7512519Y-8512519D01*
X7534911Y-8494143D01*
X7560454Y-8480490D01*
X7588175Y-8472081D01*
X7619454Y-8469000D01*
X8060546Y-8469000D01*
X8091825Y-8472081D01*
X8091825Y-8472081D01*
G37*
G36*
X6001825Y-8472081D02*
X6029546Y-8480490D01*
X6055089Y-8494143D01*
X6077481Y-8512519D01*
X6095857Y-8534911D01*
X6109510Y-8560454D01*
X6117919Y-8588175D01*
X6121000Y-8619454D01*
X6121000Y-9010546D01*
X6117919Y-9041825D01*
X6109510Y-9069546D01*
X6095857Y-9095089D01*
X6077481Y-9117481D01*
X6055089Y-9135857D01*
X6029546Y-9149510D01*
X6001825Y-9157919D01*
X5970546Y-9161000D01*
X5529454Y-9161000D01*
X5498175Y-9157919D01*
X5470454Y-9149510D01*
X5444911Y-9135857D01*
X5422519Y-9117481D01*
X5404143Y-9095089D01*
X5390490Y-9069546D01*
X5382081Y-9041825D01*
X5379000Y-9010546D01*
X5379000Y-8619454D01*
X5382081Y-8588175D01*
X5390490Y-8560454D01*
X5404143Y-8534911D01*
X5422519Y-8512519D01*
X5444911Y-8494143D01*
X5470454Y-8480490D01*
X5498175Y-8472081D01*
X5529454Y-8469000D01*
X5970546Y-8469000D01*
X6001825Y-8472081D01*
X6001825Y-8472081D01*
G37*
G36*
X3961825Y-8382081D02*
X3989546Y-8390490D01*
X4015089Y-8404143D01*
X4037481Y-8422519D01*
X4055857Y-8444911D01*
X4069510Y-8470454D01*
X4077919Y-8498175D01*
X4081000Y-8529454D01*
X4081000Y-8970546D01*
X4077919Y-9001825D01*
X4069510Y-9029546D01*
X4055857Y-9055089D01*
X4037481Y-9077481D01*
X4015089Y-9095857D01*
X3989546Y-9109510D01*
X3961825Y-9117919D01*
X3930546Y-9121000D01*
X3539454Y-9121000D01*
X3508175Y-9117919D01*
X3480454Y-9109510D01*
X3454911Y-9095857D01*
X3432519Y-9077481D01*
X3414143Y-9055089D01*
X3400490Y-9029546D01*
X3392081Y-9001825D01*
X3389000Y-8970546D01*
X3389000Y-8529454D01*
X3392081Y-8498175D01*
X3400490Y-8470454D01*
X3414143Y-8444911D01*
X3432519Y-8422519D01*
X3454911Y-8404143D01*
X3480454Y-8390490D01*
X3508175Y-8382081D01*
X3539454Y-8379000D01*
X3930546Y-8379000D01*
X3961825Y-8382081D01*
X3961825Y-8382081D01*
G37*
G36*
X2991825Y-8382081D02*
X3019546Y-8390490D01*
X3045089Y-8404143D01*
X3067481Y-8422519D01*
X3085857Y-8444911D01*
X3099510Y-8470454D01*
X3107919Y-8498175D01*
X3111000Y-8529454D01*
X3111000Y-8970546D01*
X3107919Y-9001825D01*
X3099510Y-9029546D01*
X3085857Y-9055089D01*
X3067481Y-9077481D01*
X3045089Y-9095857D01*
X3019546Y-9109510D01*
X2991825Y-9117919D01*
X2960546Y-9121000D01*
X2569454Y-9121000D01*
X2538175Y-9117919D01*
X2510454Y-9109510D01*
X2484911Y-9095857D01*
X2462519Y-9077481D01*
X2444143Y-9055089D01*
X2430490Y-9029546D01*
X2422081Y-9001825D01*
X2419000Y-8970546D01*
X2419000Y-8529454D01*
X2422081Y-8498175D01*
X2430490Y-8470454D01*
X2444143Y-8444911D01*
X2462519Y-8422519D01*
X2484911Y-8404143D01*
X2510454Y-8390490D01*
X2538175Y-8382081D01*
X2569454Y-8379000D01*
X2960546Y-8379000D01*
X2991825Y-8382081D01*
X2991825Y-8382081D01*
G37*
G36*
X17526825Y-8037081D02*
X17554546Y-8045490D01*
X17580089Y-8059143D01*
X17602481Y-8077519D01*
X17620857Y-8099911D01*
X17634510Y-8125454D01*
X17642919Y-8153175D01*
X17646000Y-8184454D01*
X17646000Y-8575546D01*
X17642919Y-8606825D01*
X17634510Y-8634546D01*
X17620857Y-8660089D01*
X17602481Y-8682481D01*
X17580089Y-8700857D01*
X17554546Y-8714510D01*
X17526825Y-8722919D01*
X17495546Y-8726000D01*
X17054454Y-8726000D01*
X17023175Y-8722919D01*
X16995454Y-8714510D01*
X16969911Y-8700857D01*
X16947519Y-8682481D01*
X16929143Y-8660089D01*
X16915490Y-8634546D01*
X16907081Y-8606825D01*
X16904000Y-8575546D01*
X16904000Y-8184454D01*
X16907081Y-8153175D01*
X16915490Y-8125454D01*
X16929143Y-8099911D01*
X16947519Y-8077519D01*
X16969911Y-8059143D01*
X16995454Y-8045490D01*
X17023175Y-8037081D01*
X17054454Y-8034000D01*
X17495546Y-8034000D01*
X17526825Y-8037081D01*
X17526825Y-8037081D01*
G37*
G36*
X10426000Y-8576000D02*
X10024000Y-8576000D01*
X10024000Y-8174000D01*
X10426000Y-8174000D01*
X10426000Y-8576000D01*
X10426000Y-8576000D01*
G37*
G36*
X14976000Y-8576000D02*
X14574000Y-8576000D01*
X14574000Y-8174000D01*
X14976000Y-8174000D01*
X14976000Y-8576000D01*
X14976000Y-8576000D01*
G37*
G36*
X9776000Y-8576000D02*
X9374000Y-8576000D01*
X9374000Y-8174000D01*
X9776000Y-8174000D01*
X9776000Y-8576000D01*
X9776000Y-8576000D01*
G37*
G36*
X15626000Y-8576000D02*
X15224000Y-8576000D01*
X15224000Y-8174000D01*
X15626000Y-8174000D01*
X15626000Y-8576000D01*
X15626000Y-8576000D01*
G37*
G36*
X6001825Y-7502081D02*
X6029546Y-7510490D01*
X6055089Y-7524143D01*
X6077481Y-7542519D01*
X6095857Y-7564911D01*
X6109510Y-7590454D01*
X6117919Y-7618175D01*
X6121000Y-7649454D01*
X6121000Y-8040546D01*
X6117919Y-8071825D01*
X6109510Y-8099546D01*
X6095857Y-8125089D01*
X6077481Y-8147481D01*
X6055089Y-8165857D01*
X6029546Y-8179510D01*
X6001825Y-8187919D01*
X5970546Y-8191000D01*
X5529454Y-8191000D01*
X5498175Y-8187919D01*
X5470454Y-8179510D01*
X5444911Y-8165857D01*
X5422519Y-8147481D01*
X5404143Y-8125089D01*
X5390490Y-8099546D01*
X5382081Y-8071825D01*
X5379000Y-8040546D01*
X5379000Y-7649454D01*
X5382081Y-7618175D01*
X5390490Y-7590454D01*
X5404143Y-7564911D01*
X5422519Y-7542519D01*
X5444911Y-7524143D01*
X5470454Y-7510490D01*
X5498175Y-7502081D01*
X5529454Y-7499000D01*
X5970546Y-7499000D01*
X6001825Y-7502081D01*
X6001825Y-7502081D01*
G37*
G36*
X7041825Y-7502081D02*
X7069546Y-7510490D01*
X7095089Y-7524143D01*
X7117481Y-7542519D01*
X7135857Y-7564911D01*
X7149510Y-7590454D01*
X7157919Y-7618175D01*
X7161000Y-7649454D01*
X7161000Y-8040546D01*
X7157919Y-8071825D01*
X7149510Y-8099546D01*
X7135857Y-8125089D01*
X7117481Y-8147481D01*
X7095089Y-8165857D01*
X7069546Y-8179510D01*
X7041825Y-8187919D01*
X7010546Y-8191000D01*
X6569454Y-8191000D01*
X6538175Y-8187919D01*
X6510454Y-8179510D01*
X6484911Y-8165857D01*
X6462519Y-8147481D01*
X6444143Y-8125089D01*
X6430490Y-8099546D01*
X6422081Y-8071825D01*
X6419000Y-8040546D01*
X6419000Y-7649454D01*
X6422081Y-7618175D01*
X6430490Y-7590454D01*
X6444143Y-7564911D01*
X6462519Y-7542519D01*
X6484911Y-7524143D01*
X6510454Y-7510490D01*
X6538175Y-7502081D01*
X6569454Y-7499000D01*
X7010546Y-7499000D01*
X7041825Y-7502081D01*
X7041825Y-7502081D01*
G37*
G36*
X8091825Y-7502081D02*
X8119546Y-7510490D01*
X8145089Y-7524143D01*
X8167481Y-7542519D01*
X8185857Y-7564911D01*
X8199510Y-7590454D01*
X8207919Y-7618175D01*
X8211000Y-7649454D01*
X8211000Y-8040546D01*
X8207919Y-8071825D01*
X8199510Y-8099546D01*
X8185857Y-8125089D01*
X8167481Y-8147481D01*
X8145089Y-8165857D01*
X8119546Y-8179510D01*
X8091825Y-8187919D01*
X8060546Y-8191000D01*
X7619454Y-8191000D01*
X7588175Y-8187919D01*
X7560454Y-8179510D01*
X7534911Y-8165857D01*
X7512519Y-8147481D01*
X7494143Y-8125089D01*
X7480490Y-8099546D01*
X7472081Y-8071825D01*
X7469000Y-8040546D01*
X7469000Y-7649454D01*
X7472081Y-7618175D01*
X7480490Y-7590454D01*
X7494143Y-7564911D01*
X7512519Y-7542519D01*
X7534911Y-7524143D01*
X7560454Y-7510490D01*
X7588175Y-7502081D01*
X7619454Y-7499000D01*
X8060546Y-7499000D01*
X8091825Y-7502081D01*
X8091825Y-7502081D01*
G37*
G36*
X10426000Y-7926000D02*
X10024000Y-7926000D01*
X10024000Y-7524000D01*
X10426000Y-7524000D01*
X10426000Y-7926000D01*
X10426000Y-7926000D01*
G37*
G36*
X11076000Y-7926000D02*
X10674000Y-7926000D01*
X10674000Y-7524000D01*
X11076000Y-7524000D01*
X11076000Y-7926000D01*
X11076000Y-7926000D01*
G37*
G36*
X14976000Y-7926000D02*
X14574000Y-7926000D01*
X14574000Y-7524000D01*
X14976000Y-7524000D01*
X14976000Y-7926000D01*
X14976000Y-7926000D01*
G37*
G36*
X15626000Y-7926000D02*
X15224000Y-7926000D01*
X15224000Y-7524000D01*
X15626000Y-7524000D01*
X15626000Y-7926000D01*
X15626000Y-7926000D01*
G37*
G36*
X9776000Y-7926000D02*
X9374000Y-7926000D01*
X9374000Y-7524000D01*
X9776000Y-7524000D01*
X9776000Y-7926000D01*
X9776000Y-7926000D01*
G37*
G36*
X14326000Y-7926000D02*
X13924000Y-7926000D01*
X13924000Y-7524000D01*
X14326000Y-7524000D01*
X14326000Y-7926000D01*
X14326000Y-7926000D01*
G37*
G36*
X17526825Y-7067081D02*
X17554546Y-7075490D01*
X17580089Y-7089143D01*
X17602481Y-7107519D01*
X17620857Y-7129911D01*
X17634510Y-7155454D01*
X17642919Y-7183175D01*
X17646000Y-7214454D01*
X17646000Y-7605546D01*
X17642919Y-7636825D01*
X17634510Y-7664546D01*
X17620857Y-7690089D01*
X17602481Y-7712481D01*
X17580089Y-7730857D01*
X17554546Y-7744510D01*
X17526825Y-7752919D01*
X17495546Y-7756000D01*
X17054454Y-7756000D01*
X17023175Y-7752919D01*
X16995454Y-7744510D01*
X16969911Y-7730857D01*
X16947519Y-7712481D01*
X16929143Y-7690089D01*
X16915490Y-7664546D01*
X16907081Y-7636825D01*
X16904000Y-7605546D01*
X16904000Y-7214454D01*
X16907081Y-7183175D01*
X16915490Y-7155454D01*
X16929143Y-7129911D01*
X16947519Y-7107519D01*
X16969911Y-7089143D01*
X16995454Y-7075490D01*
X17023175Y-7067081D01*
X17054454Y-7064000D01*
X17495546Y-7064000D01*
X17526825Y-7067081D01*
X17526825Y-7067081D01*
G37*
G36*
X13026000Y-7276000D02*
X12624000Y-7276000D01*
X12624000Y-6874000D01*
X13026000Y-6874000D01*
X13026000Y-7276000D01*
X13026000Y-7276000D01*
G37*
G36*
X11726000Y-7276000D02*
X11324000Y-7276000D01*
X11324000Y-6874000D01*
X11726000Y-6874000D01*
X11726000Y-7276000D01*
X11726000Y-7276000D01*
G37*
G36*
X11076000Y-7276000D02*
X10674000Y-7276000D01*
X10674000Y-6874000D01*
X11076000Y-6874000D01*
X11076000Y-7276000D01*
X11076000Y-7276000D01*
G37*
G36*
X10426000Y-7276000D02*
X10024000Y-7276000D01*
X10024000Y-6874000D01*
X10426000Y-6874000D01*
X10426000Y-7276000D01*
X10426000Y-7276000D01*
G37*
G36*
X9776000Y-7276000D02*
X9374000Y-7276000D01*
X9374000Y-6874000D01*
X9776000Y-6874000D01*
X9776000Y-7276000D01*
X9776000Y-7276000D01*
G37*
G36*
X12376000Y-7276000D02*
X11974000Y-7276000D01*
X11974000Y-6874000D01*
X12376000Y-6874000D01*
X12376000Y-7276000D01*
X12376000Y-7276000D01*
G37*
G36*
X13676000Y-7276000D02*
X13274000Y-7276000D01*
X13274000Y-6874000D01*
X13676000Y-6874000D01*
X13676000Y-7276000D01*
X13676000Y-7276000D01*
G37*
G36*
X14976000Y-7276000D02*
X14574000Y-7276000D01*
X14574000Y-6874000D01*
X14976000Y-6874000D01*
X14976000Y-7276000D01*
X14976000Y-7276000D01*
G37*
G36*
X15626000Y-7276000D02*
X15224000Y-7276000D01*
X15224000Y-6874000D01*
X15626000Y-6874000D01*
X15626000Y-7276000D01*
X15626000Y-7276000D01*
G37*
G36*
X14326000Y-7276000D02*
X13924000Y-7276000D01*
X13924000Y-6874000D01*
X14326000Y-6874000D01*
X14326000Y-7276000D01*
X14326000Y-7276000D01*
G37*
G36*
X21271825Y-6462081D02*
X21299546Y-6470490D01*
X21325089Y-6484143D01*
X21347481Y-6502519D01*
X21365857Y-6524911D01*
X21379510Y-6550454D01*
X21387919Y-6578175D01*
X21391000Y-6609454D01*
X21391000Y-7050546D01*
X21387919Y-7081825D01*
X21379510Y-7109546D01*
X21365857Y-7135089D01*
X21347481Y-7157481D01*
X21325089Y-7175857D01*
X21299546Y-7189510D01*
X21271825Y-7197919D01*
X21240546Y-7201000D01*
X20849454Y-7201000D01*
X20818175Y-7197919D01*
X20790454Y-7189510D01*
X20764911Y-7175857D01*
X20742519Y-7157481D01*
X20724143Y-7135089D01*
X20710490Y-7109546D01*
X20702081Y-7081825D01*
X20699000Y-7050546D01*
X20699000Y-6609454D01*
X20702081Y-6578175D01*
X20710490Y-6550454D01*
X20724143Y-6524911D01*
X20742519Y-6502519D01*
X20764911Y-6484143D01*
X20790454Y-6470490D01*
X20818175Y-6462081D01*
X20849454Y-6459000D01*
X21240546Y-6459000D01*
X21271825Y-6462081D01*
X21271825Y-6462081D01*
G37*
G36*
X20301825Y-6462081D02*
X20329546Y-6470490D01*
X20355089Y-6484143D01*
X20377481Y-6502519D01*
X20395857Y-6524911D01*
X20409510Y-6550454D01*
X20417919Y-6578175D01*
X20421000Y-6609454D01*
X20421000Y-7050546D01*
X20417919Y-7081825D01*
X20409510Y-7109546D01*
X20395857Y-7135089D01*
X20377481Y-7157481D01*
X20355089Y-7175857D01*
X20329546Y-7189510D01*
X20301825Y-7197919D01*
X20270546Y-7201000D01*
X19879454Y-7201000D01*
X19848175Y-7197919D01*
X19820454Y-7189510D01*
X19794911Y-7175857D01*
X19772519Y-7157481D01*
X19754143Y-7135089D01*
X19740490Y-7109546D01*
X19732081Y-7081825D01*
X19729000Y-7050546D01*
X19729000Y-6609454D01*
X19732081Y-6578175D01*
X19740490Y-6550454D01*
X19754143Y-6524911D01*
X19772519Y-6502519D01*
X19794911Y-6484143D01*
X19820454Y-6470490D01*
X19848175Y-6462081D01*
X19879454Y-6459000D01*
X20270546Y-6459000D01*
X20301825Y-6462081D01*
X20301825Y-6462081D01*
G37*
G36*
X6001825Y-6422081D02*
X6029546Y-6430490D01*
X6055089Y-6444143D01*
X6077481Y-6462519D01*
X6095857Y-6484911D01*
X6109510Y-6510454D01*
X6117919Y-6538175D01*
X6121000Y-6569454D01*
X6121000Y-6960546D01*
X6117919Y-6991825D01*
X6109510Y-7019546D01*
X6095857Y-7045089D01*
X6077481Y-7067481D01*
X6055089Y-7085857D01*
X6029546Y-7099510D01*
X6001825Y-7107919D01*
X5970546Y-7111000D01*
X5529454Y-7111000D01*
X5498175Y-7107919D01*
X5470454Y-7099510D01*
X5444911Y-7085857D01*
X5422519Y-7067481D01*
X5404143Y-7045089D01*
X5390490Y-7019546D01*
X5382081Y-6991825D01*
X5379000Y-6960546D01*
X5379000Y-6569454D01*
X5382081Y-6538175D01*
X5390490Y-6510454D01*
X5404143Y-6484911D01*
X5422519Y-6462519D01*
X5444911Y-6444143D01*
X5470454Y-6430490D01*
X5498175Y-6422081D01*
X5529454Y-6419000D01*
X5970546Y-6419000D01*
X6001825Y-6422081D01*
X6001825Y-6422081D01*
G37*
G36*
X7051825Y-6422081D02*
X7079546Y-6430490D01*
X7105089Y-6444143D01*
X7127481Y-6462519D01*
X7145857Y-6484911D01*
X7159510Y-6510454D01*
X7167919Y-6538175D01*
X7171000Y-6569454D01*
X7171000Y-6960546D01*
X7167919Y-6991825D01*
X7159510Y-7019546D01*
X7145857Y-7045089D01*
X7127481Y-7067481D01*
X7105089Y-7085857D01*
X7079546Y-7099510D01*
X7051825Y-7107919D01*
X7020546Y-7111000D01*
X6579454Y-7111000D01*
X6548175Y-7107919D01*
X6520454Y-7099510D01*
X6494911Y-7085857D01*
X6472519Y-7067481D01*
X6454143Y-7045089D01*
X6440490Y-7019546D01*
X6432081Y-6991825D01*
X6429000Y-6960546D01*
X6429000Y-6569454D01*
X6432081Y-6538175D01*
X6440490Y-6510454D01*
X6454143Y-6484911D01*
X6472519Y-6462519D01*
X6494911Y-6444143D01*
X6520454Y-6430490D01*
X6548175Y-6422081D01*
X6579454Y-6419000D01*
X7020546Y-6419000D01*
X7051825Y-6422081D01*
X7051825Y-6422081D01*
G37*
G36*
X8101825Y-6422081D02*
X8129546Y-6430490D01*
X8155089Y-6444143D01*
X8177481Y-6462519D01*
X8195857Y-6484911D01*
X8209510Y-6510454D01*
X8217919Y-6538175D01*
X8221000Y-6569454D01*
X8221000Y-6960546D01*
X8217919Y-6991825D01*
X8209510Y-7019546D01*
X8195857Y-7045089D01*
X8177481Y-7067481D01*
X8155089Y-7085857D01*
X8129546Y-7099510D01*
X8101825Y-7107919D01*
X8070546Y-7111000D01*
X7629454Y-7111000D01*
X7598175Y-7107919D01*
X7570454Y-7099510D01*
X7544911Y-7085857D01*
X7522519Y-7067481D01*
X7504143Y-7045089D01*
X7490490Y-7019546D01*
X7482081Y-6991825D01*
X7479000Y-6960546D01*
X7479000Y-6569454D01*
X7482081Y-6538175D01*
X7490490Y-6510454D01*
X7504143Y-6484911D01*
X7522519Y-6462519D01*
X7544911Y-6444143D01*
X7570454Y-6430490D01*
X7598175Y-6422081D01*
X7629454Y-6419000D01*
X8070546Y-6419000D01*
X8101825Y-6422081D01*
X8101825Y-6422081D01*
G37*
G36*
X12376000Y-6626000D02*
X11974000Y-6626000D01*
X11974000Y-6224000D01*
X12376000Y-6224000D01*
X12376000Y-6626000D01*
X12376000Y-6626000D01*
G37*
G36*
X13026000Y-6626000D02*
X12624000Y-6626000D01*
X12624000Y-6224000D01*
X13026000Y-6224000D01*
X13026000Y-6626000D01*
X13026000Y-6626000D01*
G37*
G36*
X14326000Y-6626000D02*
X13924000Y-6626000D01*
X13924000Y-6224000D01*
X14326000Y-6224000D01*
X14326000Y-6626000D01*
X14326000Y-6626000D01*
G37*
G36*
X11726000Y-6626000D02*
X11324000Y-6626000D01*
X11324000Y-6224000D01*
X11726000Y-6224000D01*
X11726000Y-6626000D01*
X11726000Y-6626000D01*
G37*
G36*
X9776000Y-6626000D02*
X9374000Y-6626000D01*
X9374000Y-6224000D01*
X9776000Y-6224000D01*
X9776000Y-6626000D01*
X9776000Y-6626000D01*
G37*
G36*
X10426000Y-6626000D02*
X10024000Y-6626000D01*
X10024000Y-6224000D01*
X10426000Y-6224000D01*
X10426000Y-6626000D01*
X10426000Y-6626000D01*
G37*
G36*
X13676000Y-6626000D02*
X13274000Y-6626000D01*
X13274000Y-6224000D01*
X13676000Y-6224000D01*
X13676000Y-6626000D01*
X13676000Y-6626000D01*
G37*
G36*
X15626000Y-6626000D02*
X15224000Y-6626000D01*
X15224000Y-6224000D01*
X15626000Y-6224000D01*
X15626000Y-6626000D01*
X15626000Y-6626000D01*
G37*
G36*
X11076000Y-6626000D02*
X10674000Y-6626000D01*
X10674000Y-6224000D01*
X11076000Y-6224000D01*
X11076000Y-6626000D01*
X11076000Y-6626000D01*
G37*
G36*
X14976000Y-6626000D02*
X14574000Y-6626000D01*
X14574000Y-6224000D01*
X14976000Y-6224000D01*
X14976000Y-6626000D01*
X14976000Y-6626000D01*
G37*
G36*
X6001825Y-5452081D02*
X6029546Y-5460490D01*
X6055089Y-5474143D01*
X6077481Y-5492519D01*
X6095857Y-5514911D01*
X6109510Y-5540454D01*
X6117919Y-5568175D01*
X6121000Y-5599454D01*
X6121000Y-5990546D01*
X6117919Y-6021825D01*
X6109510Y-6049546D01*
X6095857Y-6075089D01*
X6077481Y-6097481D01*
X6055089Y-6115857D01*
X6029546Y-6129510D01*
X6001825Y-6137919D01*
X5970546Y-6141000D01*
X5529454Y-6141000D01*
X5498175Y-6137919D01*
X5470454Y-6129510D01*
X5444911Y-6115857D01*
X5422519Y-6097481D01*
X5404143Y-6075089D01*
X5390490Y-6049546D01*
X5382081Y-6021825D01*
X5379000Y-5990546D01*
X5379000Y-5599454D01*
X5382081Y-5568175D01*
X5390490Y-5540454D01*
X5404143Y-5514911D01*
X5422519Y-5492519D01*
X5444911Y-5474143D01*
X5470454Y-5460490D01*
X5498175Y-5452081D01*
X5529454Y-5449000D01*
X5970546Y-5449000D01*
X6001825Y-5452081D01*
X6001825Y-5452081D01*
G37*
G36*
X7051825Y-5452081D02*
X7079546Y-5460490D01*
X7105089Y-5474143D01*
X7127481Y-5492519D01*
X7145857Y-5514911D01*
X7159510Y-5540454D01*
X7167919Y-5568175D01*
X7171000Y-5599454D01*
X7171000Y-5990546D01*
X7167919Y-6021825D01*
X7159510Y-6049546D01*
X7145857Y-6075089D01*
X7127481Y-6097481D01*
X7105089Y-6115857D01*
X7079546Y-6129510D01*
X7051825Y-6137919D01*
X7020546Y-6141000D01*
X6579454Y-6141000D01*
X6548175Y-6137919D01*
X6520454Y-6129510D01*
X6494911Y-6115857D01*
X6472519Y-6097481D01*
X6454143Y-6075089D01*
X6440490Y-6049546D01*
X6432081Y-6021825D01*
X6429000Y-5990546D01*
X6429000Y-5599454D01*
X6432081Y-5568175D01*
X6440490Y-5540454D01*
X6454143Y-5514911D01*
X6472519Y-5492519D01*
X6494911Y-5474143D01*
X6520454Y-5460490D01*
X6548175Y-5452081D01*
X6579454Y-5449000D01*
X7020546Y-5449000D01*
X7051825Y-5452081D01*
X7051825Y-5452081D01*
G37*
G36*
X8101825Y-5452081D02*
X8129546Y-5460490D01*
X8155089Y-5474143D01*
X8177481Y-5492519D01*
X8195857Y-5514911D01*
X8209510Y-5540454D01*
X8217919Y-5568175D01*
X8221000Y-5599454D01*
X8221000Y-5990546D01*
X8217919Y-6021825D01*
X8209510Y-6049546D01*
X8195857Y-6075089D01*
X8177481Y-6097481D01*
X8155089Y-6115857D01*
X8129546Y-6129510D01*
X8101825Y-6137919D01*
X8070546Y-6141000D01*
X7629454Y-6141000D01*
X7598175Y-6137919D01*
X7570454Y-6129510D01*
X7544911Y-6115857D01*
X7522519Y-6097481D01*
X7504143Y-6075089D01*
X7490490Y-6049546D01*
X7482081Y-6021825D01*
X7479000Y-5990546D01*
X7479000Y-5599454D01*
X7482081Y-5568175D01*
X7490490Y-5540454D01*
X7504143Y-5514911D01*
X7522519Y-5492519D01*
X7544911Y-5474143D01*
X7570454Y-5460490D01*
X7598175Y-5452081D01*
X7629454Y-5449000D01*
X8070546Y-5449000D01*
X8101825Y-5452081D01*
X8101825Y-5452081D01*
G37*
G36*
X14976000Y-5976000D02*
X14574000Y-5976000D01*
X14574000Y-5574000D01*
X14976000Y-5574000D01*
X14976000Y-5976000D01*
X14976000Y-5976000D01*
G37*
G36*
X10426000Y-5976000D02*
X10024000Y-5976000D01*
X10024000Y-5574000D01*
X10426000Y-5574000D01*
X10426000Y-5976000D01*
X10426000Y-5976000D01*
G37*
G36*
X15626000Y-5976000D02*
X15224000Y-5976000D01*
X15224000Y-5574000D01*
X15626000Y-5574000D01*
X15626000Y-5976000D01*
X15626000Y-5976000D01*
G37*
G36*
X14326000Y-5976000D02*
X13924000Y-5976000D01*
X13924000Y-5574000D01*
X14326000Y-5574000D01*
X14326000Y-5976000D01*
X14326000Y-5976000D01*
G37*
G36*
X13676000Y-5976000D02*
X13274000Y-5976000D01*
X13274000Y-5574000D01*
X13676000Y-5574000D01*
X13676000Y-5976000D01*
X13676000Y-5976000D01*
G37*
G36*
X12376000Y-5976000D02*
X11974000Y-5976000D01*
X11974000Y-5574000D01*
X12376000Y-5574000D01*
X12376000Y-5976000D01*
X12376000Y-5976000D01*
G37*
G36*
X11726000Y-5976000D02*
X11324000Y-5976000D01*
X11324000Y-5574000D01*
X11726000Y-5574000D01*
X11726000Y-5976000D01*
X11726000Y-5976000D01*
G37*
G36*
X11076000Y-5976000D02*
X10674000Y-5976000D01*
X10674000Y-5574000D01*
X11076000Y-5574000D01*
X11076000Y-5976000D01*
X11076000Y-5976000D01*
G37*
G36*
X9776000Y-5976000D02*
X9374000Y-5976000D01*
X9374000Y-5574000D01*
X9776000Y-5574000D01*
X9776000Y-5976000D01*
X9776000Y-5976000D01*
G37*
G36*
X13026000Y-5976000D02*
X12624000Y-5976000D01*
X12624000Y-5574000D01*
X13026000Y-5574000D01*
X13026000Y-5976000D01*
X13026000Y-5976000D01*
G37*
G36*
X18711825Y-5062081D02*
X18739546Y-5070490D01*
X18765089Y-5084143D01*
X18787481Y-5102519D01*
X18805857Y-5124911D01*
X18819510Y-5150454D01*
X18827919Y-5178175D01*
X18831000Y-5209454D01*
X18831000Y-5650546D01*
X18827919Y-5681825D01*
X18819510Y-5709546D01*
X18805857Y-5735089D01*
X18787481Y-5757481D01*
X18765089Y-5775857D01*
X18739546Y-5789510D01*
X18711825Y-5797919D01*
X18680546Y-5801000D01*
X18289454Y-5801000D01*
X18258175Y-5797919D01*
X18230454Y-5789510D01*
X18204911Y-5775857D01*
X18182519Y-5757481D01*
X18164143Y-5735089D01*
X18150490Y-5709546D01*
X18142081Y-5681825D01*
X18139000Y-5650546D01*
X18139000Y-5209454D01*
X18142081Y-5178175D01*
X18150490Y-5150454D01*
X18164143Y-5124911D01*
X18182519Y-5102519D01*
X18204911Y-5084143D01*
X18230454Y-5070490D01*
X18258175Y-5062081D01*
X18289454Y-5059000D01*
X18680546Y-5059000D01*
X18711825Y-5062081D01*
X18711825Y-5062081D01*
G37*
G36*
X17741825Y-5062081D02*
X17769546Y-5070490D01*
X17795089Y-5084143D01*
X17817481Y-5102519D01*
X17835857Y-5124911D01*
X17849510Y-5150454D01*
X17857919Y-5178175D01*
X17861000Y-5209454D01*
X17861000Y-5650546D01*
X17857919Y-5681825D01*
X17849510Y-5709546D01*
X17835857Y-5735089D01*
X17817481Y-5757481D01*
X17795089Y-5775857D01*
X17769546Y-5789510D01*
X17741825Y-5797919D01*
X17710546Y-5801000D01*
X17319454Y-5801000D01*
X17288175Y-5797919D01*
X17260454Y-5789510D01*
X17234911Y-5775857D01*
X17212519Y-5757481D01*
X17194143Y-5735089D01*
X17180490Y-5709546D01*
X17172081Y-5681825D01*
X17169000Y-5650546D01*
X17169000Y-5209454D01*
X17172081Y-5178175D01*
X17180490Y-5150454D01*
X17194143Y-5124911D01*
X17212519Y-5102519D01*
X17234911Y-5084143D01*
X17260454Y-5070490D01*
X17288175Y-5062081D01*
X17319454Y-5059000D01*
X17710546Y-5059000D01*
X17741825Y-5062081D01*
X17741825Y-5062081D01*
G37*
G36*
X17731825Y-3972081D02*
X17759546Y-3980490D01*
X17785089Y-3994143D01*
X17807481Y-4012519D01*
X17825857Y-4034911D01*
X17839510Y-4060454D01*
X17847919Y-4088175D01*
X17851000Y-4119454D01*
X17851000Y-4560546D01*
X17847919Y-4591825D01*
X17839510Y-4619546D01*
X17825857Y-4645089D01*
X17807481Y-4667481D01*
X17785089Y-4685857D01*
X17759546Y-4699510D01*
X17731825Y-4707919D01*
X17700546Y-4711000D01*
X17309454Y-4711000D01*
X17278175Y-4707919D01*
X17250454Y-4699510D01*
X17224911Y-4685857D01*
X17202519Y-4667481D01*
X17184143Y-4645089D01*
X17170490Y-4619546D01*
X17162081Y-4591825D01*
X17159000Y-4560546D01*
X17159000Y-4119454D01*
X17162081Y-4088175D01*
X17170490Y-4060454D01*
X17184143Y-4034911D01*
X17202519Y-4012519D01*
X17224911Y-3994143D01*
X17250454Y-3980490D01*
X17278175Y-3972081D01*
X17309454Y-3969000D01*
X17700546Y-3969000D01*
X17731825Y-3972081D01*
X17731825Y-3972081D01*
G37*
G36*
X18701825Y-3972081D02*
X18729546Y-3980490D01*
X18755089Y-3994143D01*
X18777481Y-4012519D01*
X18795857Y-4034911D01*
X18809510Y-4060454D01*
X18817919Y-4088175D01*
X18821000Y-4119454D01*
X18821000Y-4560546D01*
X18817919Y-4591825D01*
X18809510Y-4619546D01*
X18795857Y-4645089D01*
X18777481Y-4667481D01*
X18755089Y-4685857D01*
X18729546Y-4699510D01*
X18701825Y-4707919D01*
X18670546Y-4711000D01*
X18279454Y-4711000D01*
X18248175Y-4707919D01*
X18220454Y-4699510D01*
X18194911Y-4685857D01*
X18172519Y-4667481D01*
X18154143Y-4645089D01*
X18140490Y-4619546D01*
X18132081Y-4591825D01*
X18129000Y-4560546D01*
X18129000Y-4119454D01*
X18132081Y-4088175D01*
X18140490Y-4060454D01*
X18154143Y-4034911D01*
X18172519Y-4012519D01*
X18194911Y-3994143D01*
X18220454Y-3980490D01*
X18248175Y-3972081D01*
X18279454Y-3969000D01*
X18670546Y-3969000D01*
X18701825Y-3972081D01*
X18701825Y-3972081D01*
G37*
G36*
X14996825Y-3567081D02*
X15024546Y-3575490D01*
X15050089Y-3589143D01*
X15072481Y-3607519D01*
X15090857Y-3629911D01*
X15104510Y-3655454D01*
X15112919Y-3683175D01*
X15116000Y-3714454D01*
X15116000Y-4105546D01*
X15112919Y-4136825D01*
X15104510Y-4164546D01*
X15090857Y-4190089D01*
X15072481Y-4212481D01*
X15050089Y-4230857D01*
X15024546Y-4244510D01*
X14996825Y-4252919D01*
X14965546Y-4256000D01*
X14524454Y-4256000D01*
X14493175Y-4252919D01*
X14465454Y-4244510D01*
X14439911Y-4230857D01*
X14417519Y-4212481D01*
X14399143Y-4190089D01*
X14385490Y-4164546D01*
X14377081Y-4136825D01*
X14374000Y-4105546D01*
X14374000Y-3714454D01*
X14377081Y-3683175D01*
X14385490Y-3655454D01*
X14399143Y-3629911D01*
X14417519Y-3607519D01*
X14439911Y-3589143D01*
X14465454Y-3575490D01*
X14493175Y-3567081D01*
X14524454Y-3564000D01*
X14965546Y-3564000D01*
X14996825Y-3567081D01*
X14996825Y-3567081D01*
G37*
G36*
X12431825Y-3352081D02*
X12459546Y-3360490D01*
X12485089Y-3374143D01*
X12507481Y-3392519D01*
X12525857Y-3414911D01*
X12539510Y-3440454D01*
X12547919Y-3468175D01*
X12551000Y-3499454D01*
X12551000Y-3890546D01*
X12547919Y-3921825D01*
X12539510Y-3949546D01*
X12525857Y-3975089D01*
X12507481Y-3997481D01*
X12485089Y-4015857D01*
X12459546Y-4029510D01*
X12431825Y-4037919D01*
X12400546Y-4041000D01*
X11959454Y-4041000D01*
X11928175Y-4037919D01*
X11900454Y-4029510D01*
X11874911Y-4015857D01*
X11852519Y-3997481D01*
X11834143Y-3975089D01*
X11820490Y-3949546D01*
X11812081Y-3921825D01*
X11809000Y-3890546D01*
X11809000Y-3499454D01*
X11812081Y-3468175D01*
X11820490Y-3440454D01*
X11834143Y-3414911D01*
X11852519Y-3392519D01*
X11874911Y-3374143D01*
X11900454Y-3360490D01*
X11928175Y-3352081D01*
X11959454Y-3349000D01*
X12400546Y-3349000D01*
X12431825Y-3352081D01*
X12431825Y-3352081D01*
G37*
G36*
X14996825Y-2597081D02*
X15024546Y-2605490D01*
X15050089Y-2619143D01*
X15072481Y-2637519D01*
X15090857Y-2659911D01*
X15104510Y-2685454D01*
X15112919Y-2713175D01*
X15116000Y-2744454D01*
X15116000Y-3135546D01*
X15112919Y-3166825D01*
X15104510Y-3194546D01*
X15090857Y-3220089D01*
X15072481Y-3242481D01*
X15050089Y-3260857D01*
X15024546Y-3274510D01*
X14996825Y-3282919D01*
X14965546Y-3286000D01*
X14524454Y-3286000D01*
X14493175Y-3282919D01*
X14465454Y-3274510D01*
X14439911Y-3260857D01*
X14417519Y-3242481D01*
X14399143Y-3220089D01*
X14385490Y-3194546D01*
X14377081Y-3166825D01*
X14374000Y-3135546D01*
X14374000Y-2744454D01*
X14377081Y-2713175D01*
X14385490Y-2685454D01*
X14399143Y-2659911D01*
X14417519Y-2637519D01*
X14439911Y-2619143D01*
X14465454Y-2605490D01*
X14493175Y-2597081D01*
X14524454Y-2594000D01*
X14965546Y-2594000D01*
X14996825Y-2597081D01*
X14996825Y-2597081D01*
G37*
G36*
X18640719Y-2179374D02*
X18640722Y-2179375D01*
X18640721Y-2179375D01*
X18740996Y-2220910D01*
X18831242Y-2281210D01*
X18907990Y-2357958D01*
X18968290Y-2448204D01*
X18997303Y-2518249D01*
X19009826Y-2548481D01*
X19031000Y-2654930D01*
X19031000Y-2763470D01*
X19009826Y-2869919D01*
X19009825Y-2869921D01*
X18968290Y-2970196D01*
X18907990Y-3060442D01*
X18831242Y-3137190D01*
X18740996Y-3197490D01*
X18686437Y-3220089D01*
X18640719Y-3239026D01*
X18534270Y-3260200D01*
X18425730Y-3260200D01*
X18319281Y-3239026D01*
X18273563Y-3220089D01*
X18219004Y-3197490D01*
X18128758Y-3137190D01*
X18052010Y-3060442D01*
X17991710Y-2970196D01*
X17950175Y-2869921D01*
X17950174Y-2869919D01*
X17929000Y-2763470D01*
X17929000Y-2654930D01*
X17950174Y-2548481D01*
X17962697Y-2518249D01*
X17991710Y-2448204D01*
X18052010Y-2357958D01*
X18128758Y-2281210D01*
X18219004Y-2220910D01*
X18319279Y-2179375D01*
X18319278Y-2179375D01*
X18319281Y-2179374D01*
X18425730Y-2158200D01*
X18534270Y-2158200D01*
X18640719Y-2179374D01*
X18640719Y-2179374D01*
G37*
G36*
X22960719Y-2179374D02*
X22960722Y-2179375D01*
X22960721Y-2179375D01*
X23060996Y-2220910D01*
X23151242Y-2281210D01*
X23227990Y-2357958D01*
X23288290Y-2448204D01*
X23317303Y-2518249D01*
X23329826Y-2548481D01*
X23351000Y-2654930D01*
X23351000Y-2763470D01*
X23329826Y-2869919D01*
X23329825Y-2869921D01*
X23288290Y-2970196D01*
X23227990Y-3060442D01*
X23151242Y-3137190D01*
X23060996Y-3197490D01*
X23006437Y-3220089D01*
X22960719Y-3239026D01*
X22854270Y-3260200D01*
X22745730Y-3260200D01*
X22639281Y-3239026D01*
X22593563Y-3220089D01*
X22539004Y-3197490D01*
X22448758Y-3137190D01*
X22372010Y-3060442D01*
X22311710Y-2970196D01*
X22270175Y-2869921D01*
X22270174Y-2869919D01*
X22249000Y-2763470D01*
X22249000Y-2654930D01*
X22270174Y-2548481D01*
X22282697Y-2518249D01*
X22311710Y-2448204D01*
X22372010Y-2357958D01*
X22448758Y-2281210D01*
X22539004Y-2220910D01*
X22639279Y-2179375D01*
X22639278Y-2179375D01*
X22639281Y-2179374D01*
X22745730Y-2158200D01*
X22854270Y-2158200D01*
X22960719Y-2179374D01*
X22960719Y-2179374D01*
G37*
G36*
X21580719Y-2179374D02*
X21580722Y-2179375D01*
X21580721Y-2179375D01*
X21680996Y-2220910D01*
X21771242Y-2281210D01*
X21847990Y-2357958D01*
X21908290Y-2448204D01*
X21937303Y-2518249D01*
X21949826Y-2548481D01*
X21971000Y-2654930D01*
X21971000Y-2763470D01*
X21949826Y-2869919D01*
X21949825Y-2869921D01*
X21908290Y-2970196D01*
X21847990Y-3060442D01*
X21771242Y-3137190D01*
X21680996Y-3197490D01*
X21626437Y-3220089D01*
X21580719Y-3239026D01*
X21474270Y-3260200D01*
X21365730Y-3260200D01*
X21259281Y-3239026D01*
X21213563Y-3220089D01*
X21159004Y-3197490D01*
X21068758Y-3137190D01*
X20992010Y-3060442D01*
X20931710Y-2970196D01*
X20890175Y-2869921D01*
X20890174Y-2869919D01*
X20869000Y-2763470D01*
X20869000Y-2654930D01*
X20890174Y-2548481D01*
X20902697Y-2518249D01*
X20931710Y-2448204D01*
X20992010Y-2357958D01*
X21068758Y-2281210D01*
X21159004Y-2220910D01*
X21259279Y-2179375D01*
X21259278Y-2179375D01*
X21259281Y-2179374D01*
X21365730Y-2158200D01*
X21474270Y-2158200D01*
X21580719Y-2179374D01*
X21580719Y-2179374D01*
G37*
G36*
X20150719Y-2179374D02*
X20150722Y-2179375D01*
X20150721Y-2179375D01*
X20250996Y-2220910D01*
X20341242Y-2281210D01*
X20417990Y-2357958D01*
X20478290Y-2448204D01*
X20507303Y-2518249D01*
X20519826Y-2548481D01*
X20541000Y-2654930D01*
X20541000Y-2763470D01*
X20519826Y-2869919D01*
X20519825Y-2869921D01*
X20478290Y-2970196D01*
X20417990Y-3060442D01*
X20341242Y-3137190D01*
X20250996Y-3197490D01*
X20196437Y-3220089D01*
X20150719Y-3239026D01*
X20044270Y-3260200D01*
X19935730Y-3260200D01*
X19829281Y-3239026D01*
X19783563Y-3220089D01*
X19729004Y-3197490D01*
X19638758Y-3137190D01*
X19562010Y-3060442D01*
X19501710Y-2970196D01*
X19460175Y-2869921D01*
X19460174Y-2869919D01*
X19439000Y-2763470D01*
X19439000Y-2654930D01*
X19460174Y-2548481D01*
X19472697Y-2518249D01*
X19501710Y-2448204D01*
X19562010Y-2357958D01*
X19638758Y-2281210D01*
X19729004Y-2220910D01*
X19829279Y-2179375D01*
X19829278Y-2179375D01*
X19829281Y-2179374D01*
X19935730Y-2158200D01*
X20044270Y-2158200D01*
X20150719Y-2179374D01*
X20150719Y-2179374D01*
G37*
G36*
X12431825Y-2382081D02*
X12459546Y-2390490D01*
X12485089Y-2404143D01*
X12507481Y-2422519D01*
X12525857Y-2444911D01*
X12539510Y-2470454D01*
X12547919Y-2498175D01*
X12551000Y-2529454D01*
X12551000Y-2920546D01*
X12547919Y-2951825D01*
X12539510Y-2979546D01*
X12525857Y-3005089D01*
X12507481Y-3027481D01*
X12485089Y-3045857D01*
X12459546Y-3059510D01*
X12431825Y-3067919D01*
X12400546Y-3071000D01*
X11959454Y-3071000D01*
X11928175Y-3067919D01*
X11900454Y-3059510D01*
X11874911Y-3045857D01*
X11852519Y-3027481D01*
X11834143Y-3005089D01*
X11820490Y-2979546D01*
X11812081Y-2951825D01*
X11809000Y-2920546D01*
X11809000Y-2529454D01*
X11812081Y-2498175D01*
X11820490Y-2470454D01*
X11834143Y-2444911D01*
X11852519Y-2422519D01*
X11874911Y-2404143D01*
X11900454Y-2390490D01*
X11928175Y-2382081D01*
X11959454Y-2379000D01*
X12400546Y-2379000D01*
X12431825Y-2382081D01*
X12431825Y-2382081D01*
G37*
G36*
X13511825Y-2282081D02*
X13539546Y-2290490D01*
X13565089Y-2304143D01*
X13587481Y-2322519D01*
X13605857Y-2344911D01*
X13619510Y-2370454D01*
X13627919Y-2398175D01*
X13631000Y-2429454D01*
X13631000Y-2820546D01*
X13627919Y-2851825D01*
X13619510Y-2879546D01*
X13605857Y-2905089D01*
X13587481Y-2927481D01*
X13565089Y-2945857D01*
X13539546Y-2959510D01*
X13511825Y-2967919D01*
X13480546Y-2971000D01*
X13039454Y-2971000D01*
X13008175Y-2967919D01*
X12980454Y-2959510D01*
X12954911Y-2945857D01*
X12932519Y-2927481D01*
X12914143Y-2905089D01*
X12900490Y-2879546D01*
X12892081Y-2851825D01*
X12889000Y-2820546D01*
X12889000Y-2429454D01*
X12892081Y-2398175D01*
X12900490Y-2370454D01*
X12914143Y-2344911D01*
X12932519Y-2322519D01*
X12954911Y-2304143D01*
X12980454Y-2290490D01*
X13008175Y-2282081D01*
X13039454Y-2279000D01*
X13480546Y-2279000D01*
X13511825Y-2282081D01*
X13511825Y-2282081D01*
G37*
G36*
X15586825Y-1477081D02*
X15614546Y-1485490D01*
X15640089Y-1499143D01*
X15662481Y-1517519D01*
X15680857Y-1539911D01*
X15694510Y-1565454D01*
X15702919Y-1593175D01*
X15706000Y-1624454D01*
X15706000Y-2065546D01*
X15702919Y-2096825D01*
X15694510Y-2124546D01*
X15680857Y-2150089D01*
X15662481Y-2172481D01*
X15640089Y-2190857D01*
X15614546Y-2204510D01*
X15586825Y-2212919D01*
X15555546Y-2216000D01*
X15164454Y-2216000D01*
X15133175Y-2212919D01*
X15105454Y-2204510D01*
X15079911Y-2190857D01*
X15057519Y-2172481D01*
X15039143Y-2150089D01*
X15025490Y-2124546D01*
X15017081Y-2096825D01*
X15014000Y-2065546D01*
X15014000Y-1624454D01*
X15017081Y-1593175D01*
X15025490Y-1565454D01*
X15039143Y-1539911D01*
X15057519Y-1517519D01*
X15079911Y-1499143D01*
X15105454Y-1485490D01*
X15133175Y-1477081D01*
X15164454Y-1474000D01*
X15555546Y-1474000D01*
X15586825Y-1477081D01*
X15586825Y-1477081D01*
G37*
G36*
X14616825Y-1477081D02*
X14644546Y-1485490D01*
X14670089Y-1499143D01*
X14692481Y-1517519D01*
X14710857Y-1539911D01*
X14724510Y-1565454D01*
X14732919Y-1593175D01*
X14736000Y-1624454D01*
X14736000Y-2065546D01*
X14732919Y-2096825D01*
X14724510Y-2124546D01*
X14710857Y-2150089D01*
X14692481Y-2172481D01*
X14670089Y-2190857D01*
X14644546Y-2204510D01*
X14616825Y-2212919D01*
X14585546Y-2216000D01*
X14194454Y-2216000D01*
X14163175Y-2212919D01*
X14135454Y-2204510D01*
X14109911Y-2190857D01*
X14087519Y-2172481D01*
X14069143Y-2150089D01*
X14055490Y-2124546D01*
X14047081Y-2096825D01*
X14044000Y-2065546D01*
X14044000Y-1624454D01*
X14047081Y-1593175D01*
X14055490Y-1565454D01*
X14069143Y-1539911D01*
X14087519Y-1517519D01*
X14109911Y-1499143D01*
X14135454Y-1485490D01*
X14163175Y-1477081D01*
X14194454Y-1474000D01*
X14585546Y-1474000D01*
X14616825Y-1477081D01*
X14616825Y-1477081D01*
G37*
G36*
X13511825Y-1312081D02*
X13539546Y-1320490D01*
X13565089Y-1334143D01*
X13587481Y-1352519D01*
X13605857Y-1374911D01*
X13619510Y-1400454D01*
X13627919Y-1428175D01*
X13631000Y-1459454D01*
X13631000Y-1850546D01*
X13627919Y-1881825D01*
X13619510Y-1909546D01*
X13605857Y-1935089D01*
X13587481Y-1957481D01*
X13565089Y-1975857D01*
X13539546Y-1989510D01*
X13511825Y-1997919D01*
X13480546Y-2001000D01*
X13039454Y-2001000D01*
X13008175Y-1997919D01*
X12980454Y-1989510D01*
X12954911Y-1975857D01*
X12932519Y-1957481D01*
X12914143Y-1935089D01*
X12900490Y-1909546D01*
X12892081Y-1881825D01*
X12889000Y-1850546D01*
X12889000Y-1459454D01*
X12892081Y-1428175D01*
X12900490Y-1400454D01*
X12914143Y-1374911D01*
X12932519Y-1352519D01*
X12954911Y-1334143D01*
X12980454Y-1320490D01*
X13008175Y-1312081D01*
X13039454Y-1309000D01*
X13480546Y-1309000D01*
X13511825Y-1312081D01*
X13511825Y-1312081D01*
G37*
G36*
X11020719Y-809374D02*
X11020722Y-809375D01*
X11020721Y-809375D01*
X11120996Y-850910D01*
X11211242Y-911210D01*
X11287990Y-987958D01*
X11348290Y-1078204D01*
X11367485Y-1124546D01*
X11389826Y-1178481D01*
X11411000Y-1284930D01*
X11411000Y-1393470D01*
X11389826Y-1499919D01*
X11389825Y-1499921D01*
X11348290Y-1600196D01*
X11287990Y-1690442D01*
X11211242Y-1767190D01*
X11120996Y-1827490D01*
X11050090Y-1856860D01*
X11020719Y-1869026D01*
X10914270Y-1890200D01*
X10805730Y-1890200D01*
X10699281Y-1869026D01*
X10669910Y-1856860D01*
X10599004Y-1827490D01*
X10508758Y-1767190D01*
X10432010Y-1690442D01*
X10371710Y-1600196D01*
X10330175Y-1499921D01*
X10330174Y-1499919D01*
X10309000Y-1393470D01*
X10309000Y-1284930D01*
X10330174Y-1178481D01*
X10352515Y-1124546D01*
X10371710Y-1078204D01*
X10432010Y-987958D01*
X10508758Y-911210D01*
X10599004Y-850910D01*
X10699279Y-809375D01*
X10699278Y-809375D01*
X10699281Y-809374D01*
X10805730Y-788200D01*
X10914270Y-788200D01*
X11020719Y-809374D01*
X11020719Y-809374D01*
G37*
G36*
X9730719Y-799374D02*
X9730722Y-799375D01*
X9730721Y-799375D01*
X9830996Y-840910D01*
X9921242Y-901210D01*
X9997990Y-977958D01*
X10058290Y-1068204D01*
X10081627Y-1124546D01*
X10099826Y-1168481D01*
X10121000Y-1274930D01*
X10121000Y-1383470D01*
X10099826Y-1489919D01*
X10099825Y-1489921D01*
X10058290Y-1590196D01*
X9997990Y-1680442D01*
X9921242Y-1757190D01*
X9830996Y-1817490D01*
X9805622Y-1828000D01*
X9730719Y-1859026D01*
X9624270Y-1880200D01*
X9515730Y-1880200D01*
X9409281Y-1859026D01*
X9334378Y-1828000D01*
X9309004Y-1817490D01*
X9218758Y-1757190D01*
X9142010Y-1680442D01*
X9081710Y-1590196D01*
X9040175Y-1489921D01*
X9040174Y-1489919D01*
X9019000Y-1383470D01*
X9019000Y-1274930D01*
X9040174Y-1168481D01*
X9058373Y-1124546D01*
X9081710Y-1068204D01*
X9142010Y-977958D01*
X9218758Y-901210D01*
X9309004Y-840910D01*
X9409279Y-799375D01*
X9409278Y-799375D01*
X9409281Y-799374D01*
X9515730Y-778200D01*
X9624270Y-778200D01*
X9730719Y-799374D01*
X9730719Y-799374D01*
G37*
G36*
X8430719Y-799374D02*
X8430722Y-799375D01*
X8430721Y-799375D01*
X8530996Y-840910D01*
X8621242Y-901210D01*
X8697990Y-977958D01*
X8758290Y-1068204D01*
X8781627Y-1124546D01*
X8799826Y-1168481D01*
X8821000Y-1274930D01*
X8821000Y-1383470D01*
X8799826Y-1489919D01*
X8799825Y-1489921D01*
X8758290Y-1590196D01*
X8697990Y-1680442D01*
X8621242Y-1757190D01*
X8530996Y-1817490D01*
X8505622Y-1828000D01*
X8430719Y-1859026D01*
X8324270Y-1880200D01*
X8215730Y-1880200D01*
X8109281Y-1859026D01*
X8034378Y-1828000D01*
X8009004Y-1817490D01*
X7918758Y-1757190D01*
X7842010Y-1680442D01*
X7781710Y-1590196D01*
X7740175Y-1489921D01*
X7740174Y-1489919D01*
X7719000Y-1383470D01*
X7719000Y-1274930D01*
X7740174Y-1168481D01*
X7758373Y-1124546D01*
X7781710Y-1068204D01*
X7842010Y-977958D01*
X7918758Y-901210D01*
X8009004Y-840910D01*
X8109279Y-799375D01*
X8109278Y-799375D01*
X8109281Y-799374D01*
X8215730Y-778200D01*
X8324270Y-778200D01*
X8430719Y-799374D01*
X8430719Y-799374D01*
G37*
G36*
X15586825Y-477081D02*
X15614546Y-485490D01*
X15640089Y-499143D01*
X15662481Y-517519D01*
X15680857Y-539911D01*
X15694510Y-565454D01*
X15702919Y-593175D01*
X15706000Y-624454D01*
X15706000Y-1065546D01*
X15702919Y-1096825D01*
X15694510Y-1124546D01*
X15680857Y-1150089D01*
X15662481Y-1172481D01*
X15640089Y-1190857D01*
X15614546Y-1204510D01*
X15586825Y-1212919D01*
X15555546Y-1216000D01*
X15164454Y-1216000D01*
X15133175Y-1212919D01*
X15105454Y-1204510D01*
X15079911Y-1190857D01*
X15057519Y-1172481D01*
X15039143Y-1150089D01*
X15025490Y-1124546D01*
X15017081Y-1096825D01*
X15014000Y-1065546D01*
X15014000Y-624454D01*
X15017081Y-593175D01*
X15025490Y-565454D01*
X15039143Y-539911D01*
X15057519Y-517519D01*
X15079911Y-499143D01*
X15105454Y-485490D01*
X15133175Y-477081D01*
X15164454Y-474000D01*
X15555546Y-474000D01*
X15586825Y-477081D01*
X15586825Y-477081D01*
G37*
G36*
X14616825Y-477081D02*
X14644546Y-485490D01*
X14670089Y-499143D01*
X14692481Y-517519D01*
X14710857Y-539911D01*
X14724510Y-565454D01*
X14732919Y-593175D01*
X14736000Y-624454D01*
X14736000Y-1065546D01*
X14732919Y-1096825D01*
X14724510Y-1124546D01*
X14710857Y-1150089D01*
X14692481Y-1172481D01*
X14670089Y-1190857D01*
X14644546Y-1204510D01*
X14616825Y-1212919D01*
X14585546Y-1216000D01*
X14194454Y-1216000D01*
X14163175Y-1212919D01*
X14135454Y-1204510D01*
X14109911Y-1190857D01*
X14087519Y-1172481D01*
X14069143Y-1150089D01*
X14055490Y-1124546D01*
X14047081Y-1096825D01*
X14044000Y-1065546D01*
X14044000Y-624454D01*
X14047081Y-593175D01*
X14055490Y-565454D01*
X14069143Y-539911D01*
X14087519Y-517519D01*
X14109911Y-499143D01*
X14135454Y-485490D01*
X14163175Y-477081D01*
X14194454Y-474000D01*
X14585546Y-474000D01*
X14616825Y-477081D01*
X14616825Y-477081D01*
G37*
M02*
