M48
;DRILL file {KiCad 5.0.2+dfsg1-1~bpo9+1} date Thu 17 Oct 2019 05:45:36 PM CEST
;FORMAT={-:-/ absolute / metric / decimal}
FMAT,2
METRIC,TZ
T1C0.200
%
G90
G05
T1
X8.376Y-9.734
X8.764Y-9.346
X10.413Y-4.893
X10.6Y-4.39
X10.868Y-11.75
X10.875Y-8.22
X11.12Y-4.82
X11.377Y-4.31
X11.4Y-11.75
X11.475Y-8.215
X11.87Y-4.51
X12.16Y-11.75
X12.17Y-12.39
X12.175Y-7.525
X12.175Y-8.21
X12.65Y-4.82
X12.825Y-7.525
X12.83Y-12.39
X12.85Y-8.225
X12.87Y-11.75
X13.475Y-8.2
X13.6Y-11.75
X14.125Y-8.205
X14.132Y-11.75
T0
M30
