G04 #@! TF.GenerationSoftware,KiCad,Pcbnew,5.0.2+dfsg1-1~bpo9+1*
G04 #@! TF.CreationDate,2019-10-16T17:32:00+02:00*
G04 #@! TF.ProjectId,zglue-dragon-adapter,7a676c75-652d-4647-9261-676f6e2d6164,rev?*
G04 #@! TF.SameCoordinates,Original*
G04 #@! TF.FileFunction,Copper,L3,Inr*
G04 #@! TF.FilePolarity,Positive*
%FSLAX46Y46*%
G04 Gerber Fmt 4.6, Leading zero omitted, Abs format (unit mm)*
G04 Created by KiCad (PCBNEW 5.0.2+dfsg1-1~bpo9+1) date Wed 16 Oct 2019 05:32:00 PM CEST*
%MOMM*%
%LPD*%
G01*
G04 APERTURE LIST*
G04 #@! TA.AperFunction,ViaPad*
%ADD10C,0.400000*%
G04 #@! TD*
G04 #@! TA.AperFunction,Conductor*
%ADD11C,0.100000*%
G04 #@! TD*
G04 APERTURE END LIST*
D10*
G04 #@! TO.N,GND*
X8600000Y-5120000D03*
X8000000Y-4620000D03*
G04 #@! TO.N,/CSI_CLK_IN_P*
X16624455Y-10265545D03*
X19935545Y-14504455D03*
G04 #@! TO.N,/CSI_CLK_IN_N*
X16235545Y-10654455D03*
X20324455Y-14115545D03*
G04 #@! TO.N,Net-(U1-PadD8)*
X10875000Y-11795000D03*
G04 #@! TO.N,/ULPM_WAKE*
X14125000Y-11780000D03*
G04 #@! TO.N,/CSI_INT*
X11525000Y-11800000D03*
G04 #@! TO.N,/CTRL_OUT*
X13150000Y-15020000D03*
G04 #@! TO.N,/PROC_SCK*
X12825000Y-12475000D03*
G04 #@! TO.N,/MIPI_SEL*
X12150000Y-11775000D03*
G04 #@! TO.N,/PROC_SI*
X12175000Y-12475000D03*
G04 #@! TO.N,/PROC_OUT_0*
X14500000Y-15020000D03*
G04 #@! TO.N,/USB_DET*
X13450000Y-15420000D03*
G04 #@! TO.N,/PIO1*
X13525000Y-11785000D03*
G04 #@! TO.N,/CTRL_RST*
X12825000Y-11790000D03*
G04 #@! TO.N,/PIO2*
X14100000Y-15370000D03*
G04 #@! TO.N,/PROC_RST*
X13800000Y-14970000D03*
G04 #@! TD*
D11*
G04 #@! TO.N,/CSI_CLK_IN_P*
X16624455Y-10527175D02*
X16800000Y-10702720D01*
X16624455Y-10265545D02*
X16624455Y-10527175D01*
X16800000Y-10702720D02*
X16800000Y-15222720D01*
X16800000Y-15222720D02*
X17307280Y-15730000D01*
X17307280Y-15730000D02*
X19472720Y-15730000D01*
X19935545Y-14504455D02*
X20197175Y-14504455D01*
X20197175Y-14504455D02*
X20350000Y-14657280D01*
X20350000Y-14657280D02*
X20350000Y-15312720D01*
X20350000Y-15312720D02*
X19932720Y-15730000D01*
X19932720Y-15730000D02*
X19350000Y-15730000D01*
G04 #@! TO.N,/CSI_CLK_IN_N*
X16497175Y-10654455D02*
X16620000Y-10777280D01*
X16235545Y-10654455D02*
X16497175Y-10654455D01*
X16620000Y-10777280D02*
X16620000Y-15297280D01*
X16620000Y-15297280D02*
X17232720Y-15910000D01*
X17232720Y-15910000D02*
X19547280Y-15910000D01*
X20324455Y-14377175D02*
X20530000Y-14582720D01*
X20324455Y-14115545D02*
X20324455Y-14377175D01*
X20530000Y-14582720D02*
X20530000Y-15387280D01*
X20530000Y-15387280D02*
X20007280Y-15910000D01*
X20007280Y-15910000D02*
X19350000Y-15910000D01*
G04 #@! TD*
M02*
