G04 #@! TF.GenerationSoftware,KiCad,Pcbnew,5.0.2+dfsg1-1~bpo9+1*
G04 #@! TF.CreationDate,2019-10-17T17:45:34+02:00*
G04 #@! TF.ProjectId,zglue-dragon-adapter,7a676c75-652d-4647-9261-676f6e2d6164,rev?*
G04 #@! TF.SameCoordinates,Original*
G04 #@! TF.FileFunction,Legend,Top*
G04 #@! TF.FilePolarity,Positive*
%FSLAX46Y46*%
G04 Gerber Fmt 4.6, Leading zero omitted, Abs format (unit mm)*
G04 Created by KiCad (PCBNEW 5.0.2+dfsg1-1~bpo9+1) date Thu 17 Oct 2019 05:45:34 PM CEST*
%MOMM*%
%LPD*%
G01*
G04 APERTURE LIST*
%ADD10C,0.200000*%
%ADD11C,0.100000*%
%ADD12C,0.150000*%
G04 APERTURE END LIST*
D10*
X8750000Y-5400000D02*
G75*
G03X8750000Y-5400000I-150000J0D01*
G01*
D11*
G04 #@! TO.C,U1*
X15900000Y-14750000D02*
X15900000Y-5250000D01*
X9100000Y-14750000D02*
X9100000Y-5250000D01*
X15900000Y-14750000D02*
X9100000Y-14750000D01*
X15900000Y-5250000D02*
X9100000Y-5250000D01*
D12*
X7786666Y-13316666D02*
X7786666Y-13883333D01*
X7820000Y-13950000D01*
X7853333Y-13983333D01*
X7920000Y-14016666D01*
X8053333Y-14016666D01*
X8120000Y-13983333D01*
X8153333Y-13950000D01*
X8186666Y-13883333D01*
X8186666Y-13316666D01*
X8886666Y-14016666D02*
X8486666Y-14016666D01*
X8686666Y-14016666D02*
X8686666Y-13316666D01*
X8620000Y-13416666D01*
X8553333Y-13483333D01*
X8486666Y-13516666D01*
G04 #@! TO.C,C8*
X12150000Y-1396666D02*
X12183333Y-1430000D01*
X12216666Y-1530000D01*
X12216666Y-1596666D01*
X12183333Y-1696666D01*
X12116666Y-1763333D01*
X12050000Y-1796666D01*
X11916666Y-1830000D01*
X11816666Y-1830000D01*
X11683333Y-1796666D01*
X11616666Y-1763333D01*
X11550000Y-1696666D01*
X11516666Y-1596666D01*
X11516666Y-1530000D01*
X11550000Y-1430000D01*
X11583333Y-1396666D01*
X11816666Y-996666D02*
X11783333Y-1063333D01*
X11750000Y-1096666D01*
X11683333Y-1130000D01*
X11650000Y-1130000D01*
X11583333Y-1096666D01*
X11550000Y-1063333D01*
X11516666Y-996666D01*
X11516666Y-863333D01*
X11550000Y-796666D01*
X11583333Y-763333D01*
X11650000Y-730000D01*
X11683333Y-730000D01*
X11750000Y-763333D01*
X11783333Y-796666D01*
X11816666Y-863333D01*
X11816666Y-996666D01*
X11850000Y-1063333D01*
X11883333Y-1096666D01*
X11950000Y-1130000D01*
X12083333Y-1130000D01*
X12150000Y-1096666D01*
X12183333Y-1063333D01*
X12216666Y-996666D01*
X12216666Y-863333D01*
X12183333Y-796666D01*
X12150000Y-763333D01*
X12083333Y-730000D01*
X11950000Y-730000D01*
X11883333Y-763333D01*
X11850000Y-796666D01*
X11816666Y-863333D01*
G04 #@! TO.C,C7*
X6815000Y-5741666D02*
X6848333Y-5775000D01*
X6881666Y-5875000D01*
X6881666Y-5941666D01*
X6848333Y-6041666D01*
X6781666Y-6108333D01*
X6715000Y-6141666D01*
X6581666Y-6175000D01*
X6481666Y-6175000D01*
X6348333Y-6141666D01*
X6281666Y-6108333D01*
X6215000Y-6041666D01*
X6181666Y-5941666D01*
X6181666Y-5875000D01*
X6215000Y-5775000D01*
X6248333Y-5741666D01*
X6181666Y-5508333D02*
X6181666Y-5041666D01*
X6881666Y-5341666D01*
G04 #@! TO.C,C6*
X17440000Y-15706666D02*
X17473333Y-15740000D01*
X17506666Y-15840000D01*
X17506666Y-15906666D01*
X17473333Y-16006666D01*
X17406666Y-16073333D01*
X17340000Y-16106666D01*
X17206666Y-16140000D01*
X17106666Y-16140000D01*
X16973333Y-16106666D01*
X16906666Y-16073333D01*
X16840000Y-16006666D01*
X16806666Y-15906666D01*
X16806666Y-15840000D01*
X16840000Y-15740000D01*
X16873333Y-15706666D01*
X16806666Y-15106666D02*
X16806666Y-15240000D01*
X16840000Y-15306666D01*
X16873333Y-15340000D01*
X16973333Y-15406666D01*
X17106666Y-15440000D01*
X17373333Y-15440000D01*
X17440000Y-15406666D01*
X17473333Y-15373333D01*
X17506666Y-15306666D01*
X17506666Y-15173333D01*
X17473333Y-15106666D01*
X17440000Y-15073333D01*
X17373333Y-15040000D01*
X17206666Y-15040000D01*
X17140000Y-15073333D01*
X17106666Y-15106666D01*
X17073333Y-15173333D01*
X17073333Y-15306666D01*
X17106666Y-15373333D01*
X17140000Y-15406666D01*
X17206666Y-15440000D01*
G04 #@! TO.C,C5*
X17690000Y-10146666D02*
X17723333Y-10180000D01*
X17756666Y-10280000D01*
X17756666Y-10346666D01*
X17723333Y-10446666D01*
X17656666Y-10513333D01*
X17590000Y-10546666D01*
X17456666Y-10580000D01*
X17356666Y-10580000D01*
X17223333Y-10546666D01*
X17156666Y-10513333D01*
X17090000Y-10446666D01*
X17056666Y-10346666D01*
X17056666Y-10280000D01*
X17090000Y-10180000D01*
X17123333Y-10146666D01*
X17056666Y-9513333D02*
X17056666Y-9846666D01*
X17390000Y-9880000D01*
X17356666Y-9846666D01*
X17323333Y-9780000D01*
X17323333Y-9613333D01*
X17356666Y-9546666D01*
X17390000Y-9513333D01*
X17456666Y-9480000D01*
X17623333Y-9480000D01*
X17690000Y-9513333D01*
X17723333Y-9546666D01*
X17756666Y-9613333D01*
X17756666Y-9780000D01*
X17723333Y-9846666D01*
X17690000Y-9880000D01*
G04 #@! TO.C,C4*
X11870000Y-16116666D02*
X11903333Y-16150000D01*
X11936666Y-16250000D01*
X11936666Y-16316666D01*
X11903333Y-16416666D01*
X11836666Y-16483333D01*
X11770000Y-16516666D01*
X11636666Y-16550000D01*
X11536666Y-16550000D01*
X11403333Y-16516666D01*
X11336666Y-16483333D01*
X11270000Y-16416666D01*
X11236666Y-16316666D01*
X11236666Y-16250000D01*
X11270000Y-16150000D01*
X11303333Y-16116666D01*
X11470000Y-15516666D02*
X11936666Y-15516666D01*
X11203333Y-15683333D02*
X11703333Y-15850000D01*
X11703333Y-15416666D01*
G04 #@! TO.C,C3*
X7905000Y-5751666D02*
X7938333Y-5785000D01*
X7971666Y-5885000D01*
X7971666Y-5951666D01*
X7938333Y-6051666D01*
X7871666Y-6118333D01*
X7805000Y-6151666D01*
X7671666Y-6185000D01*
X7571666Y-6185000D01*
X7438333Y-6151666D01*
X7371666Y-6118333D01*
X7305000Y-6051666D01*
X7271666Y-5951666D01*
X7271666Y-5885000D01*
X7305000Y-5785000D01*
X7338333Y-5751666D01*
X7271666Y-5518333D02*
X7271666Y-5085000D01*
X7538333Y-5318333D01*
X7538333Y-5218333D01*
X7571666Y-5151666D01*
X7605000Y-5118333D01*
X7671666Y-5085000D01*
X7838333Y-5085000D01*
X7905000Y-5118333D01*
X7938333Y-5151666D01*
X7971666Y-5218333D01*
X7971666Y-5418333D01*
X7938333Y-5485000D01*
X7905000Y-5518333D01*
G04 #@! TO.C,C2*
X18490000Y-15726666D02*
X18523333Y-15760000D01*
X18556666Y-15860000D01*
X18556666Y-15926666D01*
X18523333Y-16026666D01*
X18456666Y-16093333D01*
X18390000Y-16126666D01*
X18256666Y-16160000D01*
X18156666Y-16160000D01*
X18023333Y-16126666D01*
X17956666Y-16093333D01*
X17890000Y-16026666D01*
X17856666Y-15926666D01*
X17856666Y-15860000D01*
X17890000Y-15760000D01*
X17923333Y-15726666D01*
X17923333Y-15460000D02*
X17890000Y-15426666D01*
X17856666Y-15360000D01*
X17856666Y-15193333D01*
X17890000Y-15126666D01*
X17923333Y-15093333D01*
X17990000Y-15060000D01*
X18056666Y-15060000D01*
X18156666Y-15093333D01*
X18556666Y-15493333D01*
X18556666Y-15060000D01*
G04 #@! TO.C,C10*
X9365000Y-17085000D02*
X9398333Y-17118333D01*
X9431666Y-17218333D01*
X9431666Y-17285000D01*
X9398333Y-17385000D01*
X9331666Y-17451666D01*
X9265000Y-17485000D01*
X9131666Y-17518333D01*
X9031666Y-17518333D01*
X8898333Y-17485000D01*
X8831666Y-17451666D01*
X8765000Y-17385000D01*
X8731666Y-17285000D01*
X8731666Y-17218333D01*
X8765000Y-17118333D01*
X8798333Y-17085000D01*
X9431666Y-16418333D02*
X9431666Y-16818333D01*
X9431666Y-16618333D02*
X8731666Y-16618333D01*
X8831666Y-16685000D01*
X8898333Y-16751666D01*
X8931666Y-16818333D01*
X8731666Y-15985000D02*
X8731666Y-15918333D01*
X8765000Y-15851666D01*
X8798333Y-15818333D01*
X8865000Y-15785000D01*
X8998333Y-15751666D01*
X9165000Y-15751666D01*
X9298333Y-15785000D01*
X9365000Y-15818333D01*
X9398333Y-15851666D01*
X9431666Y-15918333D01*
X9431666Y-15985000D01*
X9398333Y-16051666D01*
X9365000Y-16085000D01*
X9298333Y-16118333D01*
X9165000Y-16151666D01*
X8998333Y-16151666D01*
X8865000Y-16118333D01*
X8798333Y-16085000D01*
X8765000Y-16051666D01*
X8731666Y-15985000D01*
G04 #@! TO.C,C12*
X13350000Y-1500000D02*
X13383333Y-1533333D01*
X13416666Y-1633333D01*
X13416666Y-1700000D01*
X13383333Y-1800000D01*
X13316666Y-1866666D01*
X13250000Y-1900000D01*
X13116666Y-1933333D01*
X13016666Y-1933333D01*
X12883333Y-1900000D01*
X12816666Y-1866666D01*
X12750000Y-1800000D01*
X12716666Y-1700000D01*
X12716666Y-1633333D01*
X12750000Y-1533333D01*
X12783333Y-1500000D01*
X13416666Y-833333D02*
X13416666Y-1233333D01*
X13416666Y-1033333D02*
X12716666Y-1033333D01*
X12816666Y-1100000D01*
X12883333Y-1166666D01*
X12916666Y-1233333D01*
X12783333Y-566666D02*
X12750000Y-533333D01*
X12716666Y-466666D01*
X12716666Y-300000D01*
X12750000Y-233333D01*
X12783333Y-200000D01*
X12850000Y-166666D01*
X12916666Y-166666D01*
X13016666Y-200000D01*
X13416666Y-600000D01*
X13416666Y-166666D01*
G04 #@! TO.C,C13*
X14380000Y-1500000D02*
X14413333Y-1533333D01*
X14446666Y-1633333D01*
X14446666Y-1700000D01*
X14413333Y-1800000D01*
X14346666Y-1866666D01*
X14280000Y-1900000D01*
X14146666Y-1933333D01*
X14046666Y-1933333D01*
X13913333Y-1900000D01*
X13846666Y-1866666D01*
X13780000Y-1800000D01*
X13746666Y-1700000D01*
X13746666Y-1633333D01*
X13780000Y-1533333D01*
X13813333Y-1500000D01*
X14446666Y-833333D02*
X14446666Y-1233333D01*
X14446666Y-1033333D02*
X13746666Y-1033333D01*
X13846666Y-1100000D01*
X13913333Y-1166666D01*
X13946666Y-1233333D01*
X13746666Y-600000D02*
X13746666Y-166666D01*
X14013333Y-400000D01*
X14013333Y-300000D01*
X14046666Y-233333D01*
X14080000Y-200000D01*
X14146666Y-166666D01*
X14313333Y-166666D01*
X14380000Y-200000D01*
X14413333Y-233333D01*
X14446666Y-300000D01*
X14446666Y-500000D01*
X14413333Y-566666D01*
X14380000Y-600000D01*
G04 #@! TO.C,C14*
X9040000Y-1664999D02*
X9073333Y-1698333D01*
X9106666Y-1798333D01*
X9106666Y-1864999D01*
X9073333Y-1964999D01*
X9006666Y-2031666D01*
X8940000Y-2064999D01*
X8806666Y-2098333D01*
X8706666Y-2098333D01*
X8573333Y-2064999D01*
X8506666Y-2031666D01*
X8440000Y-1964999D01*
X8406666Y-1864999D01*
X8406666Y-1798333D01*
X8440000Y-1698333D01*
X8473333Y-1664999D01*
X9106666Y-998333D02*
X9106666Y-1398333D01*
X9106666Y-1198333D02*
X8406666Y-1198333D01*
X8506666Y-1265000D01*
X8573333Y-1331666D01*
X8606666Y-1398333D01*
X8640000Y-398333D02*
X9106666Y-398333D01*
X8373333Y-565000D02*
X8873333Y-731666D01*
X8873333Y-298333D01*
G04 #@! TO.C,C1*
X18740000Y-10136666D02*
X18773333Y-10170000D01*
X18806666Y-10270000D01*
X18806666Y-10336666D01*
X18773333Y-10436666D01*
X18706666Y-10503333D01*
X18640000Y-10536666D01*
X18506666Y-10570000D01*
X18406666Y-10570000D01*
X18273333Y-10536666D01*
X18206666Y-10503333D01*
X18140000Y-10436666D01*
X18106666Y-10336666D01*
X18106666Y-10270000D01*
X18140000Y-10170000D01*
X18173333Y-10136666D01*
X18806666Y-9470000D02*
X18806666Y-9870000D01*
X18806666Y-9670000D02*
X18106666Y-9670000D01*
X18206666Y-9736666D01*
X18273333Y-9803333D01*
X18306666Y-9870000D01*
G04 #@! TO.C,R11*
X1990000Y-13446666D02*
X1756666Y-13113333D01*
X1590000Y-13446666D02*
X1590000Y-12746666D01*
X1856666Y-12746666D01*
X1923333Y-12780000D01*
X1956666Y-12813333D01*
X1990000Y-12880000D01*
X1990000Y-12980000D01*
X1956666Y-13046666D01*
X1923333Y-13080000D01*
X1856666Y-13113333D01*
X1590000Y-13113333D01*
X2656666Y-13446666D02*
X2256666Y-13446666D01*
X2456666Y-13446666D02*
X2456666Y-12746666D01*
X2390000Y-12846666D01*
X2323333Y-12913333D01*
X2256666Y-12946666D01*
X3323333Y-13446666D02*
X2923333Y-13446666D01*
X3123333Y-13446666D02*
X3123333Y-12746666D01*
X3056666Y-12846666D01*
X2990000Y-12913333D01*
X2923333Y-12946666D01*
G04 #@! TO.C,R24*
X3181666Y-8275000D02*
X2848333Y-8508333D01*
X3181666Y-8675000D02*
X2481666Y-8675000D01*
X2481666Y-8408333D01*
X2515000Y-8341666D01*
X2548333Y-8308333D01*
X2615000Y-8275000D01*
X2715000Y-8275000D01*
X2781666Y-8308333D01*
X2815000Y-8341666D01*
X2848333Y-8408333D01*
X2848333Y-8675000D01*
X2548333Y-8008333D02*
X2515000Y-7975000D01*
X2481666Y-7908333D01*
X2481666Y-7741666D01*
X2515000Y-7675000D01*
X2548333Y-7641666D01*
X2615000Y-7608333D01*
X2681666Y-7608333D01*
X2781666Y-7641666D01*
X3181666Y-8041666D01*
X3181666Y-7608333D01*
X2715000Y-7008333D02*
X3181666Y-7008333D01*
X2448333Y-7175000D02*
X2948333Y-7341666D01*
X2948333Y-6908333D01*
G04 #@! TO.C,R10*
X15566666Y-1500000D02*
X15233333Y-1733333D01*
X15566666Y-1900000D02*
X14866666Y-1900000D01*
X14866666Y-1633333D01*
X14900000Y-1566666D01*
X14933333Y-1533333D01*
X15000000Y-1500000D01*
X15100000Y-1500000D01*
X15166666Y-1533333D01*
X15200000Y-1566666D01*
X15233333Y-1633333D01*
X15233333Y-1900000D01*
X15566666Y-833333D02*
X15566666Y-1233333D01*
X15566666Y-1033333D02*
X14866666Y-1033333D01*
X14966666Y-1100000D01*
X15033333Y-1166666D01*
X15066666Y-1233333D01*
X14866666Y-400000D02*
X14866666Y-333333D01*
X14900000Y-266666D01*
X14933333Y-233333D01*
X15000000Y-200000D01*
X15133333Y-166666D01*
X15300000Y-166666D01*
X15433333Y-200000D01*
X15500000Y-233333D01*
X15533333Y-266666D01*
X15566666Y-333333D01*
X15566666Y-400000D01*
X15533333Y-466666D01*
X15500000Y-500000D01*
X15433333Y-533333D01*
X15300000Y-566666D01*
X15133333Y-566666D01*
X15000000Y-533333D01*
X14933333Y-500000D01*
X14900000Y-466666D01*
X14866666Y-400000D01*
G04 #@! TO.C,R9*
X6996666Y-1071666D02*
X6663333Y-1305000D01*
X6996666Y-1471666D02*
X6296666Y-1471666D01*
X6296666Y-1205000D01*
X6330000Y-1138333D01*
X6363333Y-1105000D01*
X6430000Y-1071666D01*
X6530000Y-1071666D01*
X6596666Y-1105000D01*
X6630000Y-1138333D01*
X6663333Y-1205000D01*
X6663333Y-1471666D01*
X6996666Y-738333D02*
X6996666Y-605000D01*
X6963333Y-538333D01*
X6930000Y-505000D01*
X6830000Y-438333D01*
X6696666Y-405000D01*
X6430000Y-405000D01*
X6363333Y-438333D01*
X6330000Y-471666D01*
X6296666Y-538333D01*
X6296666Y-671666D01*
X6330000Y-738333D01*
X6363333Y-771666D01*
X6430000Y-805000D01*
X6596666Y-805000D01*
X6663333Y-771666D01*
X6696666Y-738333D01*
X6730000Y-671666D01*
X6730000Y-538333D01*
X6696666Y-471666D01*
X6663333Y-438333D01*
X6596666Y-405000D01*
G04 #@! TO.C,R8*
X5053333Y-15996666D02*
X4820000Y-15663333D01*
X4653333Y-15996666D02*
X4653333Y-15296666D01*
X4920000Y-15296666D01*
X4986666Y-15330000D01*
X5020000Y-15363333D01*
X5053333Y-15430000D01*
X5053333Y-15530000D01*
X5020000Y-15596666D01*
X4986666Y-15630000D01*
X4920000Y-15663333D01*
X4653333Y-15663333D01*
X5453333Y-15596666D02*
X5386666Y-15563333D01*
X5353333Y-15530000D01*
X5320000Y-15463333D01*
X5320000Y-15430000D01*
X5353333Y-15363333D01*
X5386666Y-15330000D01*
X5453333Y-15296666D01*
X5586666Y-15296666D01*
X5653333Y-15330000D01*
X5686666Y-15363333D01*
X5720000Y-15430000D01*
X5720000Y-15463333D01*
X5686666Y-15530000D01*
X5653333Y-15563333D01*
X5586666Y-15596666D01*
X5453333Y-15596666D01*
X5386666Y-15630000D01*
X5353333Y-15663333D01*
X5320000Y-15730000D01*
X5320000Y-15863333D01*
X5353333Y-15930000D01*
X5386666Y-15963333D01*
X5453333Y-15996666D01*
X5586666Y-15996666D01*
X5653333Y-15963333D01*
X5686666Y-15930000D01*
X5720000Y-15863333D01*
X5720000Y-15730000D01*
X5686666Y-15663333D01*
X5653333Y-15630000D01*
X5586666Y-15596666D01*
G04 #@! TO.C,R7*
X5033333Y-14786666D02*
X4800000Y-14453333D01*
X4633333Y-14786666D02*
X4633333Y-14086666D01*
X4900000Y-14086666D01*
X4966666Y-14120000D01*
X5000000Y-14153333D01*
X5033333Y-14220000D01*
X5033333Y-14320000D01*
X5000000Y-14386666D01*
X4966666Y-14420000D01*
X4900000Y-14453333D01*
X4633333Y-14453333D01*
X5266666Y-14086666D02*
X5733333Y-14086666D01*
X5433333Y-14786666D01*
G04 #@! TO.C,R6*
X8008333Y-18221666D02*
X7775000Y-17888333D01*
X7608333Y-18221666D02*
X7608333Y-17521666D01*
X7875000Y-17521666D01*
X7941666Y-17555000D01*
X7975000Y-17588333D01*
X8008333Y-17655000D01*
X8008333Y-17755000D01*
X7975000Y-17821666D01*
X7941666Y-17855000D01*
X7875000Y-17888333D01*
X7608333Y-17888333D01*
X8608333Y-17521666D02*
X8475000Y-17521666D01*
X8408333Y-17555000D01*
X8375000Y-17588333D01*
X8308333Y-17688333D01*
X8275000Y-17821666D01*
X8275000Y-18088333D01*
X8308333Y-18155000D01*
X8341666Y-18188333D01*
X8408333Y-18221666D01*
X8541666Y-18221666D01*
X8608333Y-18188333D01*
X8641666Y-18155000D01*
X8675000Y-18088333D01*
X8675000Y-17921666D01*
X8641666Y-17855000D01*
X8608333Y-17821666D01*
X8541666Y-17788333D01*
X8408333Y-17788333D01*
X8341666Y-17821666D01*
X8308333Y-17855000D01*
X8275000Y-17921666D01*
G04 #@! TO.C,R5*
X8058333Y-19571666D02*
X7825000Y-19238333D01*
X7658333Y-19571666D02*
X7658333Y-18871666D01*
X7925000Y-18871666D01*
X7991666Y-18905000D01*
X8025000Y-18938333D01*
X8058333Y-19005000D01*
X8058333Y-19105000D01*
X8025000Y-19171666D01*
X7991666Y-19205000D01*
X7925000Y-19238333D01*
X7658333Y-19238333D01*
X8691666Y-18871666D02*
X8358333Y-18871666D01*
X8325000Y-19205000D01*
X8358333Y-19171666D01*
X8425000Y-19138333D01*
X8591666Y-19138333D01*
X8658333Y-19171666D01*
X8691666Y-19205000D01*
X8725000Y-19271666D01*
X8725000Y-19438333D01*
X8691666Y-19505000D01*
X8658333Y-19538333D01*
X8591666Y-19571666D01*
X8425000Y-19571666D01*
X8358333Y-19538333D01*
X8325000Y-19505000D01*
G04 #@! TO.C,R4*
X13056666Y-18686666D02*
X12723333Y-18920000D01*
X13056666Y-19086666D02*
X12356666Y-19086666D01*
X12356666Y-18820000D01*
X12390000Y-18753333D01*
X12423333Y-18720000D01*
X12490000Y-18686666D01*
X12590000Y-18686666D01*
X12656666Y-18720000D01*
X12690000Y-18753333D01*
X12723333Y-18820000D01*
X12723333Y-19086666D01*
X12590000Y-18086666D02*
X13056666Y-18086666D01*
X12323333Y-18253333D02*
X12823333Y-18420000D01*
X12823333Y-17986666D01*
G04 #@! TO.C,R3*
X5841666Y-5731666D02*
X5508333Y-5965000D01*
X5841666Y-6131666D02*
X5141666Y-6131666D01*
X5141666Y-5865000D01*
X5175000Y-5798333D01*
X5208333Y-5765000D01*
X5275000Y-5731666D01*
X5375000Y-5731666D01*
X5441666Y-5765000D01*
X5475000Y-5798333D01*
X5508333Y-5865000D01*
X5508333Y-6131666D01*
X5141666Y-5498333D02*
X5141666Y-5065000D01*
X5408333Y-5298333D01*
X5408333Y-5198333D01*
X5441666Y-5131666D01*
X5475000Y-5098333D01*
X5541666Y-5065000D01*
X5708333Y-5065000D01*
X5775000Y-5098333D01*
X5808333Y-5131666D01*
X5841666Y-5198333D01*
X5841666Y-5398333D01*
X5808333Y-5465000D01*
X5775000Y-5498333D01*
G04 #@! TO.C,R2*
X19606666Y-15726666D02*
X19273333Y-15960000D01*
X19606666Y-16126666D02*
X18906666Y-16126666D01*
X18906666Y-15860000D01*
X18940000Y-15793333D01*
X18973333Y-15760000D01*
X19040000Y-15726666D01*
X19140000Y-15726666D01*
X19206666Y-15760000D01*
X19240000Y-15793333D01*
X19273333Y-15860000D01*
X19273333Y-16126666D01*
X18973333Y-15460000D02*
X18940000Y-15426666D01*
X18906666Y-15360000D01*
X18906666Y-15193333D01*
X18940000Y-15126666D01*
X18973333Y-15093333D01*
X19040000Y-15060000D01*
X19106666Y-15060000D01*
X19206666Y-15093333D01*
X19606666Y-15493333D01*
X19606666Y-15060000D01*
G04 #@! TO.C,R1*
X19926666Y-10166666D02*
X19593333Y-10400000D01*
X19926666Y-10566666D02*
X19226666Y-10566666D01*
X19226666Y-10300000D01*
X19260000Y-10233333D01*
X19293333Y-10200000D01*
X19360000Y-10166666D01*
X19460000Y-10166666D01*
X19526666Y-10200000D01*
X19560000Y-10233333D01*
X19593333Y-10300000D01*
X19593333Y-10566666D01*
X19926666Y-9500000D02*
X19926666Y-9900000D01*
X19926666Y-9700000D02*
X19226666Y-9700000D01*
X19326666Y-9766666D01*
X19393333Y-9833333D01*
X19426666Y-9900000D01*
G04 #@! TO.C,R13*
X20421666Y-4240000D02*
X20088333Y-4473333D01*
X20421666Y-4640000D02*
X19721666Y-4640000D01*
X19721666Y-4373333D01*
X19755000Y-4306666D01*
X19788333Y-4273333D01*
X19855000Y-4240000D01*
X19955000Y-4240000D01*
X20021666Y-4273333D01*
X20055000Y-4306666D01*
X20088333Y-4373333D01*
X20088333Y-4640000D01*
X20421666Y-3573333D02*
X20421666Y-3973333D01*
X20421666Y-3773333D02*
X19721666Y-3773333D01*
X19821666Y-3840000D01*
X19888333Y-3906666D01*
X19921666Y-3973333D01*
X19721666Y-3340000D02*
X19721666Y-2906666D01*
X19988333Y-3140000D01*
X19988333Y-3040000D01*
X20021666Y-2973333D01*
X20055000Y-2940000D01*
X20121666Y-2906666D01*
X20288333Y-2906666D01*
X20355000Y-2940000D01*
X20388333Y-2973333D01*
X20421666Y-3040000D01*
X20421666Y-3240000D01*
X20388333Y-3306666D01*
X20355000Y-3340000D01*
G04 #@! TO.C,TP4*
X4586666Y-19743333D02*
X4586666Y-19343333D01*
X5286666Y-19543333D02*
X4586666Y-19543333D01*
X5286666Y-19110000D02*
X4586666Y-19110000D01*
X4586666Y-18843333D01*
X4620000Y-18776666D01*
X4653333Y-18743333D01*
X4720000Y-18710000D01*
X4820000Y-18710000D01*
X4886666Y-18743333D01*
X4920000Y-18776666D01*
X4953333Y-18843333D01*
X4953333Y-19110000D01*
X4820000Y-18110000D02*
X5286666Y-18110000D01*
X4553333Y-18276666D02*
X5053333Y-18443333D01*
X5053333Y-18010000D01*
G04 #@! TO.C,TP9*
X1886666Y-2066666D02*
X2286666Y-2066666D01*
X2086666Y-2766666D02*
X2086666Y-2066666D01*
X2520000Y-2766666D02*
X2520000Y-2066666D01*
X2786666Y-2066666D01*
X2853333Y-2100000D01*
X2886666Y-2133333D01*
X2920000Y-2200000D01*
X2920000Y-2300000D01*
X2886666Y-2366666D01*
X2853333Y-2400000D01*
X2786666Y-2433333D01*
X2520000Y-2433333D01*
X3253333Y-2766666D02*
X3386666Y-2766666D01*
X3453333Y-2733333D01*
X3486666Y-2700000D01*
X3553333Y-2600000D01*
X3586666Y-2466666D01*
X3586666Y-2200000D01*
X3553333Y-2133333D01*
X3519999Y-2100000D01*
X3453333Y-2066666D01*
X3319999Y-2066666D01*
X3253333Y-2100000D01*
X3220000Y-2133333D01*
X3186666Y-2200000D01*
X3186666Y-2366666D01*
X3220000Y-2433333D01*
X3253333Y-2466666D01*
X3319999Y-2500000D01*
X3453333Y-2500000D01*
X3519999Y-2466666D01*
X3553333Y-2433333D01*
X3586666Y-2366666D01*
G04 #@! TO.C,TP7*
X6066666Y-19723333D02*
X6066666Y-19323333D01*
X6766666Y-19523333D02*
X6066666Y-19523333D01*
X6766666Y-19090000D02*
X6066666Y-19090000D01*
X6066666Y-18823333D01*
X6100000Y-18756666D01*
X6133333Y-18723333D01*
X6200000Y-18690000D01*
X6300000Y-18690000D01*
X6366666Y-18723333D01*
X6400000Y-18756666D01*
X6433333Y-18823333D01*
X6433333Y-19090000D01*
X6066666Y-18456666D02*
X6066666Y-17990000D01*
X6766666Y-18290000D01*
G04 #@! TO.C,TP3*
X1786666Y-19743333D02*
X1786666Y-19343333D01*
X2486666Y-19543333D02*
X1786666Y-19543333D01*
X2486666Y-19110000D02*
X1786666Y-19110000D01*
X1786666Y-18843333D01*
X1820000Y-18776666D01*
X1853333Y-18743333D01*
X1920000Y-18710000D01*
X2020000Y-18710000D01*
X2086666Y-18743333D01*
X2120000Y-18776666D01*
X2153333Y-18843333D01*
X2153333Y-19110000D01*
X1786666Y-18476666D02*
X1786666Y-18043333D01*
X2053333Y-18276666D01*
X2053333Y-18176666D01*
X2086666Y-18110000D01*
X2120000Y-18076666D01*
X2186666Y-18043333D01*
X2353333Y-18043333D01*
X2420000Y-18076666D01*
X2453333Y-18110000D01*
X2486666Y-18176666D01*
X2486666Y-18376666D01*
X2453333Y-18443333D01*
X2420000Y-18476666D01*
G04 #@! TO.C,TP1*
X17656666Y-586666D02*
X18056666Y-586666D01*
X17856666Y-1286666D02*
X17856666Y-586666D01*
X18290000Y-1286666D02*
X18290000Y-586666D01*
X18556666Y-586666D01*
X18623333Y-620000D01*
X18656666Y-653333D01*
X18690000Y-720000D01*
X18690000Y-820000D01*
X18656666Y-886666D01*
X18623333Y-920000D01*
X18556666Y-953333D01*
X18290000Y-953333D01*
X19356666Y-1286666D02*
X18956666Y-1286666D01*
X19156666Y-1286666D02*
X19156666Y-586666D01*
X19090000Y-686666D01*
X19023333Y-753333D01*
X18956666Y-786666D01*
G04 #@! TO.C,TP2*
X9486666Y-356666D02*
X9886666Y-356666D01*
X9686666Y-1056666D02*
X9686666Y-356666D01*
X10120000Y-1056666D02*
X10120000Y-356666D01*
X10386666Y-356666D01*
X10453333Y-390000D01*
X10486666Y-423333D01*
X10520000Y-490000D01*
X10520000Y-590000D01*
X10486666Y-656666D01*
X10453333Y-690000D01*
X10386666Y-723333D01*
X10120000Y-723333D01*
X10786666Y-423333D02*
X10820000Y-390000D01*
X10886666Y-356666D01*
X11053333Y-356666D01*
X11120000Y-390000D01*
X11153333Y-423333D01*
X11186666Y-490000D01*
X11186666Y-556666D01*
X11153333Y-656666D01*
X10753333Y-1056666D01*
X11186666Y-1056666D01*
G04 #@! TO.C,TP8*
X3106666Y-19743333D02*
X3106666Y-19343333D01*
X3806666Y-19543333D02*
X3106666Y-19543333D01*
X3806666Y-19110000D02*
X3106666Y-19110000D01*
X3106666Y-18843333D01*
X3140000Y-18776666D01*
X3173333Y-18743333D01*
X3240000Y-18710000D01*
X3340000Y-18710000D01*
X3406666Y-18743333D01*
X3440000Y-18776666D01*
X3473333Y-18843333D01*
X3473333Y-19110000D01*
X3406666Y-18310000D02*
X3373333Y-18376666D01*
X3340000Y-18410000D01*
X3273333Y-18443333D01*
X3240000Y-18443333D01*
X3173333Y-18410000D01*
X3140000Y-18376666D01*
X3106666Y-18310000D01*
X3106666Y-18176666D01*
X3140000Y-18110000D01*
X3173333Y-18076666D01*
X3240000Y-18043333D01*
X3273333Y-18043333D01*
X3340000Y-18076666D01*
X3373333Y-18110000D01*
X3406666Y-18176666D01*
X3406666Y-18310000D01*
X3440000Y-18376666D01*
X3473333Y-18410000D01*
X3540000Y-18443333D01*
X3673333Y-18443333D01*
X3740000Y-18410000D01*
X3773333Y-18376666D01*
X3806666Y-18310000D01*
X3806666Y-18176666D01*
X3773333Y-18110000D01*
X3740000Y-18076666D01*
X3673333Y-18043333D01*
X3540000Y-18043333D01*
X3473333Y-18076666D01*
X3440000Y-18110000D01*
X3406666Y-18176666D01*
G04 #@! TO.C,TP11*
X356666Y-2866666D02*
X356666Y-2466666D01*
X1056666Y-2666666D02*
X356666Y-2666666D01*
X1056666Y-2233333D02*
X356666Y-2233333D01*
X356666Y-1966666D01*
X390000Y-1900000D01*
X423333Y-1866666D01*
X490000Y-1833333D01*
X590000Y-1833333D01*
X656666Y-1866666D01*
X690000Y-1900000D01*
X723333Y-1966666D01*
X723333Y-2233333D01*
X1056666Y-1166666D02*
X1056666Y-1566666D01*
X1056666Y-1366666D02*
X356666Y-1366666D01*
X456666Y-1433333D01*
X523333Y-1500000D01*
X556666Y-1566666D01*
X1056666Y-500000D02*
X1056666Y-900000D01*
X1056666Y-700000D02*
X356666Y-700000D01*
X456666Y-766666D01*
X523333Y-833333D01*
X556666Y-900000D01*
G04 #@! TO.C,TP12*
X723333Y-5706666D02*
X1123333Y-5706666D01*
X923333Y-6406666D02*
X923333Y-5706666D01*
X1356666Y-6406666D02*
X1356666Y-5706666D01*
X1623333Y-5706666D01*
X1689999Y-5740000D01*
X1723333Y-5773333D01*
X1756666Y-5840000D01*
X1756666Y-5940000D01*
X1723333Y-6006666D01*
X1689999Y-6040000D01*
X1623333Y-6073333D01*
X1356666Y-6073333D01*
X2423333Y-6406666D02*
X2023333Y-6406666D01*
X2223333Y-6406666D02*
X2223333Y-5706666D01*
X2156666Y-5806666D01*
X2089999Y-5873333D01*
X2023333Y-5906666D01*
X2689999Y-5773333D02*
X2723333Y-5740000D01*
X2789999Y-5706666D01*
X2956666Y-5706666D01*
X3023333Y-5740000D01*
X3056666Y-5773333D01*
X3089999Y-5840000D01*
X3089999Y-5906666D01*
X3056666Y-6006666D01*
X2656666Y-6406666D01*
X3089999Y-6406666D01*
G04 #@! TO.C,TP14*
X13726666Y-17987466D02*
X13726666Y-17587466D01*
X14426666Y-17787466D02*
X13726666Y-17787466D01*
X14426666Y-17354133D02*
X13726666Y-17354133D01*
X13726666Y-17087466D01*
X13760000Y-17020800D01*
X13793333Y-16987466D01*
X13860000Y-16954133D01*
X13960000Y-16954133D01*
X14026666Y-16987466D01*
X14060000Y-17020800D01*
X14093333Y-17087466D01*
X14093333Y-17354133D01*
X14426666Y-16287466D02*
X14426666Y-16687466D01*
X14426666Y-16487466D02*
X13726666Y-16487466D01*
X13826666Y-16554133D01*
X13893333Y-16620800D01*
X13926666Y-16687466D01*
X13960000Y-15687466D02*
X14426666Y-15687466D01*
X13693333Y-15854133D02*
X14193333Y-16020800D01*
X14193333Y-15587466D01*
G04 #@! TO.C,TP15*
X14976666Y-17896666D02*
X14976666Y-17496666D01*
X15676666Y-17696666D02*
X14976666Y-17696666D01*
X15676666Y-17263333D02*
X14976666Y-17263333D01*
X14976666Y-16996666D01*
X15010000Y-16930000D01*
X15043333Y-16896666D01*
X15110000Y-16863333D01*
X15210000Y-16863333D01*
X15276666Y-16896666D01*
X15310000Y-16930000D01*
X15343333Y-16996666D01*
X15343333Y-17263333D01*
X15676666Y-16196666D02*
X15676666Y-16596666D01*
X15676666Y-16396666D02*
X14976666Y-16396666D01*
X15076666Y-16463333D01*
X15143333Y-16530000D01*
X15176666Y-16596666D01*
X14976666Y-15563333D02*
X14976666Y-15896666D01*
X15310000Y-15930000D01*
X15276666Y-15896666D01*
X15243333Y-15830000D01*
X15243333Y-15663333D01*
X15276666Y-15596666D01*
X15310000Y-15563333D01*
X15376666Y-15530000D01*
X15543333Y-15530000D01*
X15610000Y-15563333D01*
X15643333Y-15596666D01*
X15676666Y-15663333D01*
X15676666Y-15830000D01*
X15643333Y-15896666D01*
X15610000Y-15930000D01*
G04 #@! TO.C,TP16*
X17813333Y-18296666D02*
X18213333Y-18296666D01*
X18013333Y-18996666D02*
X18013333Y-18296666D01*
X18446666Y-18996666D02*
X18446666Y-18296666D01*
X18713333Y-18296666D01*
X18780000Y-18330000D01*
X18813333Y-18363333D01*
X18846666Y-18430000D01*
X18846666Y-18530000D01*
X18813333Y-18596666D01*
X18780000Y-18630000D01*
X18713333Y-18663333D01*
X18446666Y-18663333D01*
X19513333Y-18996666D02*
X19113333Y-18996666D01*
X19313333Y-18996666D02*
X19313333Y-18296666D01*
X19246666Y-18396666D01*
X19180000Y-18463333D01*
X19113333Y-18496666D01*
X20113333Y-18296666D02*
X19980000Y-18296666D01*
X19913333Y-18330000D01*
X19880000Y-18363333D01*
X19813333Y-18463333D01*
X19780000Y-18596666D01*
X19780000Y-18863333D01*
X19813333Y-18930000D01*
X19846666Y-18963333D01*
X19913333Y-18996666D01*
X20046666Y-18996666D01*
X20113333Y-18963333D01*
X20146666Y-18930000D01*
X20180000Y-18863333D01*
X20180000Y-18696666D01*
X20146666Y-18630000D01*
X20113333Y-18596666D01*
X20046666Y-18563333D01*
X19913333Y-18563333D01*
X19846666Y-18596666D01*
X19813333Y-18630000D01*
X19780000Y-18696666D01*
G04 #@! TO.C,TP10*
X4163333Y-2096666D02*
X4563333Y-2096666D01*
X4363333Y-2796666D02*
X4363333Y-2096666D01*
X4796666Y-2796666D02*
X4796666Y-2096666D01*
X5063333Y-2096666D01*
X5130000Y-2130000D01*
X5163333Y-2163333D01*
X5196666Y-2230000D01*
X5196666Y-2330000D01*
X5163333Y-2396666D01*
X5130000Y-2430000D01*
X5063333Y-2463333D01*
X4796666Y-2463333D01*
X5863333Y-2796666D02*
X5463333Y-2796666D01*
X5663333Y-2796666D02*
X5663333Y-2096666D01*
X5596666Y-2196666D01*
X5530000Y-2263333D01*
X5463333Y-2296666D01*
X6296666Y-2096666D02*
X6363333Y-2096666D01*
X6430000Y-2130000D01*
X6463333Y-2163333D01*
X6496666Y-2230000D01*
X6530000Y-2363333D01*
X6530000Y-2530000D01*
X6496666Y-2663333D01*
X6463333Y-2730000D01*
X6430000Y-2763333D01*
X6363333Y-2796666D01*
X6296666Y-2796666D01*
X6230000Y-2763333D01*
X6196666Y-2730000D01*
X6163333Y-2663333D01*
X6129999Y-2530000D01*
X6129999Y-2363333D01*
X6163333Y-2230000D01*
X6196666Y-2163333D01*
X6230000Y-2130000D01*
X6296666Y-2096666D01*
G04 #@! TO.C,C15*
X8030000Y-1694999D02*
X8063333Y-1728333D01*
X8096666Y-1828333D01*
X8096666Y-1894999D01*
X8063333Y-1994999D01*
X7996666Y-2061666D01*
X7930000Y-2094999D01*
X7796666Y-2128333D01*
X7696666Y-2128333D01*
X7563333Y-2094999D01*
X7496666Y-2061666D01*
X7430000Y-1994999D01*
X7396666Y-1894999D01*
X7396666Y-1828333D01*
X7430000Y-1728333D01*
X7463333Y-1694999D01*
X8096666Y-1028333D02*
X8096666Y-1428333D01*
X8096666Y-1228333D02*
X7396666Y-1228333D01*
X7496666Y-1294999D01*
X7563333Y-1361666D01*
X7596666Y-1428333D01*
X7396666Y-395000D02*
X7396666Y-728333D01*
X7730000Y-761666D01*
X7696666Y-728333D01*
X7663333Y-661666D01*
X7663333Y-495000D01*
X7696666Y-428333D01*
X7730000Y-395000D01*
X7796666Y-361666D01*
X7963333Y-361666D01*
X8030000Y-395000D01*
X8063333Y-428333D01*
X8096666Y-495000D01*
X8096666Y-661666D01*
X8063333Y-728333D01*
X8030000Y-761666D01*
G04 #@! TO.C,C9*
X7008333Y-10065000D02*
X6975000Y-10098333D01*
X6875000Y-10131666D01*
X6808333Y-10131666D01*
X6708333Y-10098333D01*
X6641666Y-10031666D01*
X6608333Y-9965000D01*
X6575000Y-9831666D01*
X6575000Y-9731666D01*
X6608333Y-9598333D01*
X6641666Y-9531666D01*
X6708333Y-9465000D01*
X6808333Y-9431666D01*
X6875000Y-9431666D01*
X6975000Y-9465000D01*
X7008333Y-9498333D01*
X7341666Y-10131666D02*
X7475000Y-10131666D01*
X7541666Y-10098333D01*
X7575000Y-10065000D01*
X7641666Y-9965000D01*
X7675000Y-9831666D01*
X7675000Y-9565000D01*
X7641666Y-9498333D01*
X7608333Y-9465000D01*
X7541666Y-9431666D01*
X7408333Y-9431666D01*
X7341666Y-9465000D01*
X7308333Y-9498333D01*
X7275000Y-9565000D01*
X7275000Y-9731666D01*
X7308333Y-9798333D01*
X7341666Y-9831666D01*
X7408333Y-9865000D01*
X7541666Y-9865000D01*
X7608333Y-9831666D01*
X7641666Y-9798333D01*
X7675000Y-9731666D01*
G04 #@! TO.C,C11*
X6675000Y-12755000D02*
X6708333Y-12788333D01*
X6741666Y-12888333D01*
X6741666Y-12955000D01*
X6708333Y-13055000D01*
X6641666Y-13121666D01*
X6575000Y-13155000D01*
X6441666Y-13188333D01*
X6341666Y-13188333D01*
X6208333Y-13155000D01*
X6141666Y-13121666D01*
X6075000Y-13055000D01*
X6041666Y-12955000D01*
X6041666Y-12888333D01*
X6075000Y-12788333D01*
X6108333Y-12755000D01*
X6741666Y-12088333D02*
X6741666Y-12488333D01*
X6741666Y-12288333D02*
X6041666Y-12288333D01*
X6141666Y-12354999D01*
X6208333Y-12421666D01*
X6241666Y-12488333D01*
X6741666Y-11421666D02*
X6741666Y-11821666D01*
X6741666Y-11621666D02*
X6041666Y-11621666D01*
X6141666Y-11688333D01*
X6208333Y-11755000D01*
X6241666Y-11821666D01*
G04 #@! TO.C,R23*
X14965000Y-4716666D02*
X14731666Y-4383333D01*
X14565000Y-4716666D02*
X14565000Y-4016666D01*
X14831666Y-4016666D01*
X14898333Y-4050000D01*
X14931666Y-4083333D01*
X14965000Y-4150000D01*
X14965000Y-4250000D01*
X14931666Y-4316666D01*
X14898333Y-4350000D01*
X14831666Y-4383333D01*
X14565000Y-4383333D01*
X15231666Y-4083333D02*
X15265000Y-4050000D01*
X15331666Y-4016666D01*
X15498333Y-4016666D01*
X15565000Y-4050000D01*
X15598333Y-4083333D01*
X15631666Y-4150000D01*
X15631666Y-4216666D01*
X15598333Y-4316666D01*
X15198333Y-4716666D01*
X15631666Y-4716666D01*
X15865000Y-4016666D02*
X16298333Y-4016666D01*
X16065000Y-4283333D01*
X16165000Y-4283333D01*
X16231666Y-4316666D01*
X16265000Y-4350000D01*
X16298333Y-4416666D01*
X16298333Y-4583333D01*
X16265000Y-4650000D01*
X16231666Y-4683333D01*
X16165000Y-4716666D01*
X15965000Y-4716666D01*
X15898333Y-4683333D01*
X15865000Y-4650000D01*
G04 #@! TO.C,R22*
X23340000Y-11516666D02*
X23106666Y-11183333D01*
X22940000Y-11516666D02*
X22940000Y-10816666D01*
X23206666Y-10816666D01*
X23273333Y-10850000D01*
X23306666Y-10883333D01*
X23340000Y-10950000D01*
X23340000Y-11050000D01*
X23306666Y-11116666D01*
X23273333Y-11150000D01*
X23206666Y-11183333D01*
X22940000Y-11183333D01*
X23606666Y-10883333D02*
X23640000Y-10850000D01*
X23706666Y-10816666D01*
X23873333Y-10816666D01*
X23940000Y-10850000D01*
X23973333Y-10883333D01*
X24006666Y-10950000D01*
X24006666Y-11016666D01*
X23973333Y-11116666D01*
X23573333Y-11516666D01*
X24006666Y-11516666D01*
X24273333Y-10883333D02*
X24306666Y-10850000D01*
X24373333Y-10816666D01*
X24540000Y-10816666D01*
X24606666Y-10850000D01*
X24640000Y-10883333D01*
X24673333Y-10950000D01*
X24673333Y-11016666D01*
X24640000Y-11116666D01*
X24240000Y-11516666D01*
X24673333Y-11516666D01*
G04 #@! TO.C,R21*
X23320000Y-10446666D02*
X23086666Y-10113333D01*
X22920000Y-10446666D02*
X22920000Y-9746666D01*
X23186666Y-9746666D01*
X23253333Y-9780000D01*
X23286666Y-9813333D01*
X23320000Y-9880000D01*
X23320000Y-9980000D01*
X23286666Y-10046666D01*
X23253333Y-10080000D01*
X23186666Y-10113333D01*
X22920000Y-10113333D01*
X23586666Y-9813333D02*
X23620000Y-9780000D01*
X23686666Y-9746666D01*
X23853333Y-9746666D01*
X23920000Y-9780000D01*
X23953333Y-9813333D01*
X23986666Y-9880000D01*
X23986666Y-9946666D01*
X23953333Y-10046666D01*
X23553333Y-10446666D01*
X23986666Y-10446666D01*
X24653333Y-10446666D02*
X24253333Y-10446666D01*
X24453333Y-10446666D02*
X24453333Y-9746666D01*
X24386666Y-9846666D01*
X24320000Y-9913333D01*
X24253333Y-9946666D01*
G04 #@! TO.C,R20*
X23335000Y-9506666D02*
X23101666Y-9173333D01*
X22935000Y-9506666D02*
X22935000Y-8806666D01*
X23201666Y-8806666D01*
X23268333Y-8840000D01*
X23301666Y-8873333D01*
X23335000Y-8940000D01*
X23335000Y-9040000D01*
X23301666Y-9106666D01*
X23268333Y-9140000D01*
X23201666Y-9173333D01*
X22935000Y-9173333D01*
X23601666Y-8873333D02*
X23635000Y-8840000D01*
X23701666Y-8806666D01*
X23868333Y-8806666D01*
X23935000Y-8840000D01*
X23968333Y-8873333D01*
X24001666Y-8940000D01*
X24001666Y-9006666D01*
X23968333Y-9106666D01*
X23568333Y-9506666D01*
X24001666Y-9506666D01*
X24435000Y-8806666D02*
X24501666Y-8806666D01*
X24568333Y-8840000D01*
X24601666Y-8873333D01*
X24635000Y-8940000D01*
X24668333Y-9073333D01*
X24668333Y-9240000D01*
X24635000Y-9373333D01*
X24601666Y-9440000D01*
X24568333Y-9473333D01*
X24501666Y-9506666D01*
X24435000Y-9506666D01*
X24368333Y-9473333D01*
X24335000Y-9440000D01*
X24301666Y-9373333D01*
X24268333Y-9240000D01*
X24268333Y-9073333D01*
X24301666Y-8940000D01*
X24335000Y-8873333D01*
X24368333Y-8840000D01*
X24435000Y-8806666D01*
G04 #@! TO.C,R19*
X23290000Y-8446666D02*
X23056666Y-8113333D01*
X22890000Y-8446666D02*
X22890000Y-7746666D01*
X23156666Y-7746666D01*
X23223333Y-7780000D01*
X23256666Y-7813333D01*
X23290000Y-7880000D01*
X23290000Y-7980000D01*
X23256666Y-8046666D01*
X23223333Y-8080000D01*
X23156666Y-8113333D01*
X22890000Y-8113333D01*
X23956666Y-8446666D02*
X23556666Y-8446666D01*
X23756666Y-8446666D02*
X23756666Y-7746666D01*
X23690000Y-7846666D01*
X23623333Y-7913333D01*
X23556666Y-7946666D01*
X24290000Y-8446666D02*
X24423333Y-8446666D01*
X24490000Y-8413333D01*
X24523333Y-8380000D01*
X24590000Y-8280000D01*
X24623333Y-8146666D01*
X24623333Y-7880000D01*
X24590000Y-7813333D01*
X24556666Y-7780000D01*
X24490000Y-7746666D01*
X24356666Y-7746666D01*
X24290000Y-7780000D01*
X24256666Y-7813333D01*
X24223333Y-7880000D01*
X24223333Y-8046666D01*
X24256666Y-8113333D01*
X24290000Y-8146666D01*
X24356666Y-8180000D01*
X24490000Y-8180000D01*
X24556666Y-8146666D01*
X24590000Y-8113333D01*
X24623333Y-8046666D01*
G04 #@! TO.C,R18*
X23310000Y-7376666D02*
X23076666Y-7043333D01*
X22910000Y-7376666D02*
X22910000Y-6676666D01*
X23176666Y-6676666D01*
X23243333Y-6710000D01*
X23276666Y-6743333D01*
X23310000Y-6810000D01*
X23310000Y-6910000D01*
X23276666Y-6976666D01*
X23243333Y-7010000D01*
X23176666Y-7043333D01*
X22910000Y-7043333D01*
X23976666Y-7376666D02*
X23576666Y-7376666D01*
X23776666Y-7376666D02*
X23776666Y-6676666D01*
X23710000Y-6776666D01*
X23643333Y-6843333D01*
X23576666Y-6876666D01*
X24376666Y-6976666D02*
X24310000Y-6943333D01*
X24276666Y-6910000D01*
X24243333Y-6843333D01*
X24243333Y-6810000D01*
X24276666Y-6743333D01*
X24310000Y-6710000D01*
X24376666Y-6676666D01*
X24510000Y-6676666D01*
X24576666Y-6710000D01*
X24610000Y-6743333D01*
X24643333Y-6810000D01*
X24643333Y-6843333D01*
X24610000Y-6910000D01*
X24576666Y-6943333D01*
X24510000Y-6976666D01*
X24376666Y-6976666D01*
X24310000Y-7010000D01*
X24276666Y-7043333D01*
X24243333Y-7110000D01*
X24243333Y-7243333D01*
X24276666Y-7310000D01*
X24310000Y-7343333D01*
X24376666Y-7376666D01*
X24510000Y-7376666D01*
X24576666Y-7343333D01*
X24610000Y-7310000D01*
X24643333Y-7243333D01*
X24643333Y-7110000D01*
X24610000Y-7043333D01*
X24576666Y-7010000D01*
X24510000Y-6976666D01*
G04 #@! TO.C,R17*
X23320000Y-6356666D02*
X23086666Y-6023333D01*
X22920000Y-6356666D02*
X22920000Y-5656666D01*
X23186666Y-5656666D01*
X23253333Y-5690000D01*
X23286666Y-5723333D01*
X23320000Y-5790000D01*
X23320000Y-5890000D01*
X23286666Y-5956666D01*
X23253333Y-5990000D01*
X23186666Y-6023333D01*
X22920000Y-6023333D01*
X23986666Y-6356666D02*
X23586666Y-6356666D01*
X23786666Y-6356666D02*
X23786666Y-5656666D01*
X23720000Y-5756666D01*
X23653333Y-5823333D01*
X23586666Y-5856666D01*
X24220000Y-5656666D02*
X24686666Y-5656666D01*
X24386666Y-6356666D01*
G04 #@! TO.C,R16*
X23340000Y-5366666D02*
X23106666Y-5033333D01*
X22940000Y-5366666D02*
X22940000Y-4666666D01*
X23206666Y-4666666D01*
X23273333Y-4700000D01*
X23306666Y-4733333D01*
X23340000Y-4800000D01*
X23340000Y-4900000D01*
X23306666Y-4966666D01*
X23273333Y-5000000D01*
X23206666Y-5033333D01*
X22940000Y-5033333D01*
X24006666Y-5366666D02*
X23606666Y-5366666D01*
X23806666Y-5366666D02*
X23806666Y-4666666D01*
X23740000Y-4766666D01*
X23673333Y-4833333D01*
X23606666Y-4866666D01*
X24606666Y-4666666D02*
X24473333Y-4666666D01*
X24406666Y-4700000D01*
X24373333Y-4733333D01*
X24306666Y-4833333D01*
X24273333Y-4966666D01*
X24273333Y-5233333D01*
X24306666Y-5300000D01*
X24340000Y-5333333D01*
X24406666Y-5366666D01*
X24540000Y-5366666D01*
X24606666Y-5333333D01*
X24640000Y-5300000D01*
X24673333Y-5233333D01*
X24673333Y-5066666D01*
X24640000Y-5000000D01*
X24606666Y-4966666D01*
X24540000Y-4933333D01*
X24406666Y-4933333D01*
X24340000Y-4966666D01*
X24306666Y-5000000D01*
X24273333Y-5066666D01*
G04 #@! TO.C,R15*
X23340000Y-4386666D02*
X23106666Y-4053333D01*
X22940000Y-4386666D02*
X22940000Y-3686666D01*
X23206666Y-3686666D01*
X23273333Y-3720000D01*
X23306666Y-3753333D01*
X23340000Y-3820000D01*
X23340000Y-3920000D01*
X23306666Y-3986666D01*
X23273333Y-4020000D01*
X23206666Y-4053333D01*
X22940000Y-4053333D01*
X24006666Y-4386666D02*
X23606666Y-4386666D01*
X23806666Y-4386666D02*
X23806666Y-3686666D01*
X23740000Y-3786666D01*
X23673333Y-3853333D01*
X23606666Y-3886666D01*
X24640000Y-3686666D02*
X24306666Y-3686666D01*
X24273333Y-4020000D01*
X24306666Y-3986666D01*
X24373333Y-3953333D01*
X24540000Y-3953333D01*
X24606666Y-3986666D01*
X24640000Y-4020000D01*
X24673333Y-4086666D01*
X24673333Y-4253333D01*
X24640000Y-4320000D01*
X24606666Y-4353333D01*
X24540000Y-4386666D01*
X24373333Y-4386666D01*
X24306666Y-4353333D01*
X24273333Y-4320000D01*
G04 #@! TO.C,R14*
X18315000Y-8636666D02*
X18081666Y-8303333D01*
X17915000Y-8636666D02*
X17915000Y-7936666D01*
X18181666Y-7936666D01*
X18248333Y-7970000D01*
X18281666Y-8003333D01*
X18315000Y-8070000D01*
X18315000Y-8170000D01*
X18281666Y-8236666D01*
X18248333Y-8270000D01*
X18181666Y-8303333D01*
X17915000Y-8303333D01*
X18981666Y-8636666D02*
X18581666Y-8636666D01*
X18781666Y-8636666D02*
X18781666Y-7936666D01*
X18715000Y-8036666D01*
X18648333Y-8103333D01*
X18581666Y-8136666D01*
X19581666Y-8170000D02*
X19581666Y-8636666D01*
X19415000Y-7903333D02*
X19248333Y-8403333D01*
X19681666Y-8403333D01*
G04 #@! TO.C,R12*
X18355000Y-6296666D02*
X18121666Y-5963333D01*
X17955000Y-6296666D02*
X17955000Y-5596666D01*
X18221666Y-5596666D01*
X18288333Y-5630000D01*
X18321666Y-5663333D01*
X18355000Y-5730000D01*
X18355000Y-5830000D01*
X18321666Y-5896666D01*
X18288333Y-5930000D01*
X18221666Y-5963333D01*
X17955000Y-5963333D01*
X19021666Y-6296666D02*
X18621666Y-6296666D01*
X18821666Y-6296666D02*
X18821666Y-5596666D01*
X18755000Y-5696666D01*
X18688333Y-5763333D01*
X18621666Y-5796666D01*
X19288333Y-5663333D02*
X19321666Y-5630000D01*
X19388333Y-5596666D01*
X19555000Y-5596666D01*
X19621666Y-5630000D01*
X19655000Y-5663333D01*
X19688333Y-5730000D01*
X19688333Y-5796666D01*
X19655000Y-5896666D01*
X19255000Y-6296666D01*
X19688333Y-6296666D01*
G04 #@! TO.C,TP17*
X17453333Y-1686666D02*
X17853333Y-1686666D01*
X17653333Y-2386666D02*
X17653333Y-1686666D01*
X18086666Y-2386666D02*
X18086666Y-1686666D01*
X18353333Y-1686666D01*
X18420000Y-1720000D01*
X18453333Y-1753333D01*
X18486666Y-1820000D01*
X18486666Y-1920000D01*
X18453333Y-1986666D01*
X18420000Y-2020000D01*
X18353333Y-2053333D01*
X18086666Y-2053333D01*
X19153333Y-2386666D02*
X18753333Y-2386666D01*
X18953333Y-2386666D02*
X18953333Y-1686666D01*
X18886666Y-1786666D01*
X18820000Y-1853333D01*
X18753333Y-1886666D01*
X19386666Y-1686666D02*
X19853333Y-1686666D01*
X19553333Y-2386666D01*
G04 #@! TD*
M02*
