G04 #@! TF.GenerationSoftware,KiCad,Pcbnew,5.0.2+dfsg1-1~bpo9+1*
G04 #@! TF.CreationDate,2019-10-10T14:21:37+02:00*
G04 #@! TF.ProjectId,zglue-dragon-adapter,7a676c75-652d-4647-9261-676f6e2d6164,rev?*
G04 #@! TF.SameCoordinates,Original*
G04 #@! TF.FileFunction,Other,User*
%FSLAX46Y46*%
G04 Gerber Fmt 4.6, Leading zero omitted, Abs format (unit mm)*
G04 Created by KiCad (PCBNEW 5.0.2+dfsg1-1~bpo9+1) date Thu 10 Oct 2019 02:21:37 PM CEST*
%MOMM*%
%LPD*%
G01*
G04 APERTURE LIST*
%ADD10C,0.050000*%
G04 APERTURE END LIST*
D10*
G04 #@! TO.C,C8*
X12780000Y-17880000D02*
X12780000Y-16020000D01*
X13720000Y-17880000D02*
X12780000Y-17880000D01*
X13720000Y-16020000D02*
X13720000Y-17880000D01*
X12780000Y-16020000D02*
X13720000Y-16020000D01*
G04 #@! TO.C,C7*
X17230000Y-13700000D02*
X17230000Y-11840000D01*
X18170000Y-13700000D02*
X17230000Y-13700000D01*
X18170000Y-11840000D02*
X18170000Y-13700000D01*
X17230000Y-11840000D02*
X18170000Y-11840000D01*
G04 #@! TO.C,C6*
X8320000Y-5350000D02*
X8320000Y-7210000D01*
X7380000Y-5350000D02*
X8320000Y-5350000D01*
X7380000Y-7210000D02*
X7380000Y-5350000D01*
X8320000Y-7210000D02*
X7380000Y-7210000D01*
G04 #@! TO.C,C5*
X7370000Y-9260000D02*
X7370000Y-7400000D01*
X8310000Y-9260000D02*
X7370000Y-9260000D01*
X8310000Y-7400000D02*
X8310000Y-9260000D01*
X7370000Y-7400000D02*
X8310000Y-7400000D01*
G04 #@! TO.C,C4*
X13730000Y-1210000D02*
X13730000Y-3070000D01*
X12790000Y-1210000D02*
X13730000Y-1210000D01*
X12790000Y-3070000D02*
X12790000Y-1210000D01*
X13730000Y-3070000D02*
X12790000Y-3070000D01*
G04 #@! TO.C,C3*
X16180000Y-13700000D02*
X16180000Y-11840000D01*
X17120000Y-13700000D02*
X16180000Y-13700000D01*
X17120000Y-11840000D02*
X17120000Y-13700000D01*
X16180000Y-11840000D02*
X17120000Y-11840000D01*
G04 #@! TO.C,C2*
X7270000Y-5350000D02*
X7270000Y-7210000D01*
X6330000Y-5350000D02*
X7270000Y-5350000D01*
X6330000Y-7210000D02*
X6330000Y-5350000D01*
X7270000Y-7210000D02*
X6330000Y-7210000D01*
G04 #@! TO.C,C10*
X15140000Y-3220000D02*
X15140000Y-5080000D01*
X14200000Y-3220000D02*
X15140000Y-3220000D01*
X14200000Y-5080000D02*
X14200000Y-3220000D01*
X15140000Y-5080000D02*
X14200000Y-5080000D01*
G04 #@! TO.C,C12*
X11360000Y-17930000D02*
X11360000Y-16070000D01*
X12300000Y-17930000D02*
X11360000Y-17930000D01*
X12300000Y-16070000D02*
X12300000Y-17930000D01*
X11360000Y-16070000D02*
X12300000Y-16070000D01*
G04 #@! TO.C,C13*
X10350000Y-17930000D02*
X10350000Y-16070000D01*
X11290000Y-17930000D02*
X10350000Y-17930000D01*
X11290000Y-16070000D02*
X11290000Y-17930000D01*
X10350000Y-16070000D02*
X11290000Y-16070000D01*
G04 #@! TO.C,C14*
X14910000Y-16850000D02*
X14910000Y-14990000D01*
X15850000Y-16850000D02*
X14910000Y-16850000D01*
X15850000Y-14990000D02*
X15850000Y-16850000D01*
X14910000Y-14990000D02*
X15850000Y-14990000D01*
G04 #@! TO.C,C1*
X6320000Y-9260000D02*
X6320000Y-7400000D01*
X7260000Y-9260000D02*
X6320000Y-9260000D01*
X7260000Y-7400000D02*
X7260000Y-9260000D01*
X6320000Y-7400000D02*
X7260000Y-7400000D01*
G04 #@! TO.C,R11*
X19630000Y-6360000D02*
X21490000Y-6360000D01*
X19630000Y-7300000D02*
X19630000Y-6360000D01*
X21490000Y-7300000D02*
X19630000Y-7300000D01*
X21490000Y-6360000D02*
X21490000Y-7300000D01*
G04 #@! TO.C,R24*
X19770000Y-13080000D02*
X19770000Y-11220000D01*
X20710000Y-13080000D02*
X19770000Y-13080000D01*
X20710000Y-11220000D02*
X20710000Y-13080000D01*
X19770000Y-11220000D02*
X20710000Y-11220000D01*
G04 #@! TO.C,R10*
X10280000Y-16070000D02*
X10280000Y-17930000D01*
X9340000Y-16070000D02*
X10280000Y-16070000D01*
X9340000Y-17930000D02*
X9340000Y-16070000D01*
X10280000Y-17930000D02*
X9340000Y-17930000D01*
G04 #@! TO.C,R9*
X17880000Y-14990000D02*
X17880000Y-16850000D01*
X16940000Y-14990000D02*
X17880000Y-14990000D01*
X16940000Y-16850000D02*
X16940000Y-14990000D01*
X17880000Y-16850000D02*
X16940000Y-16850000D01*
G04 #@! TO.C,R8*
X17060000Y-3870000D02*
X18920000Y-3870000D01*
X17060000Y-4810000D02*
X17060000Y-3870000D01*
X18920000Y-4810000D02*
X17060000Y-4810000D01*
X18920000Y-3870000D02*
X18920000Y-4810000D01*
G04 #@! TO.C,R7*
X17070000Y-4960000D02*
X18930000Y-4960000D01*
X17070000Y-5900000D02*
X17070000Y-4960000D01*
X18930000Y-5900000D02*
X17070000Y-5900000D01*
X18930000Y-4960000D02*
X18930000Y-5900000D01*
G04 #@! TO.C,R6*
X15730000Y-3040000D02*
X13870000Y-3040000D01*
X15730000Y-2100000D02*
X15730000Y-3040000D01*
X13870000Y-2100000D02*
X15730000Y-2100000D01*
X13870000Y-3040000D02*
X13870000Y-2100000D01*
G04 #@! TO.C,R5*
X15730000Y-2040000D02*
X13870000Y-2040000D01*
X15730000Y-1100000D02*
X15730000Y-2040000D01*
X13870000Y-1100000D02*
X15730000Y-1100000D01*
X13870000Y-2040000D02*
X13870000Y-1100000D01*
G04 #@! TO.C,R4*
X12650000Y-2280000D02*
X12650000Y-4140000D01*
X11710000Y-2280000D02*
X12650000Y-2280000D01*
X11710000Y-4140000D02*
X11710000Y-2280000D01*
X12650000Y-4140000D02*
X11710000Y-4140000D01*
G04 #@! TO.C,R3*
X19170000Y-11840000D02*
X19170000Y-13700000D01*
X18230000Y-11840000D02*
X19170000Y-11840000D01*
X18230000Y-13700000D02*
X18230000Y-11840000D01*
X19170000Y-13700000D02*
X18230000Y-13700000D01*
G04 #@! TO.C,R2*
X6220000Y-5350000D02*
X6220000Y-7210000D01*
X5280000Y-5350000D02*
X6220000Y-5350000D01*
X5280000Y-7210000D02*
X5280000Y-5350000D01*
X6220000Y-7210000D02*
X5280000Y-7210000D01*
G04 #@! TO.C,R1*
X5280000Y-9260000D02*
X5280000Y-7400000D01*
X6220000Y-9260000D02*
X5280000Y-9260000D01*
X6220000Y-7400000D02*
X6220000Y-9260000D01*
X5280000Y-7400000D02*
X6220000Y-7400000D01*
G04 #@! TO.C,R13*
X6290000Y-17130000D02*
X6290000Y-15270000D01*
X7230000Y-17130000D02*
X6290000Y-17130000D01*
X7230000Y-15270000D02*
X7230000Y-17130000D01*
X6290000Y-15270000D02*
X7230000Y-15270000D01*
G04 #@! TO.C,C15*
X15930000Y-16850000D02*
X15930000Y-14990000D01*
X16870000Y-16850000D02*
X15930000Y-16850000D01*
X16870000Y-14990000D02*
X16870000Y-16850000D01*
X15930000Y-14990000D02*
X16870000Y-14990000D01*
G04 #@! TO.C,C9*
X18080000Y-11790000D02*
X16220000Y-11790000D01*
X18080000Y-10850000D02*
X18080000Y-11790000D01*
X16220000Y-10850000D02*
X18080000Y-10850000D01*
X16220000Y-11790000D02*
X16220000Y-10850000D01*
G04 #@! TO.C,C11*
X17020000Y-6940000D02*
X17020000Y-8800000D01*
X16080000Y-6940000D02*
X17020000Y-6940000D01*
X16080000Y-8800000D02*
X16080000Y-6940000D01*
X17020000Y-8800000D02*
X16080000Y-8800000D01*
G04 #@! TO.C,R23*
X7340000Y-15200000D02*
X9200000Y-15200000D01*
X7340000Y-16140000D02*
X7340000Y-15200000D01*
X9200000Y-16140000D02*
X7340000Y-16140000D01*
X9200000Y-15200000D02*
X9200000Y-16140000D01*
G04 #@! TO.C,R22*
X2320000Y-8280000D02*
X4180000Y-8280000D01*
X2320000Y-9220000D02*
X2320000Y-8280000D01*
X4180000Y-9220000D02*
X2320000Y-9220000D01*
X4180000Y-8280000D02*
X4180000Y-9220000D01*
G04 #@! TO.C,R21*
X2320000Y-9280000D02*
X4180000Y-9280000D01*
X2320000Y-10220000D02*
X2320000Y-9280000D01*
X4180000Y-10220000D02*
X2320000Y-10220000D01*
X4180000Y-9280000D02*
X4180000Y-10220000D01*
G04 #@! TO.C,R20*
X2320000Y-10280000D02*
X4180000Y-10280000D01*
X2320000Y-11220000D02*
X2320000Y-10280000D01*
X4180000Y-11220000D02*
X2320000Y-11220000D01*
X4180000Y-10280000D02*
X4180000Y-11220000D01*
G04 #@! TO.C,R19*
X2320000Y-11280000D02*
X4180000Y-11280000D01*
X2320000Y-12220000D02*
X2320000Y-11280000D01*
X4180000Y-12220000D02*
X2320000Y-12220000D01*
X4180000Y-11280000D02*
X4180000Y-12220000D01*
G04 #@! TO.C,R18*
X2320000Y-12280000D02*
X4180000Y-12280000D01*
X2320000Y-13220000D02*
X2320000Y-12280000D01*
X4180000Y-13220000D02*
X2320000Y-13220000D01*
X4180000Y-12280000D02*
X4180000Y-13220000D01*
G04 #@! TO.C,R17*
X2320000Y-13280000D02*
X4180000Y-13280000D01*
X2320000Y-14220000D02*
X2320000Y-13280000D01*
X4180000Y-14220000D02*
X2320000Y-14220000D01*
X4180000Y-13280000D02*
X4180000Y-14220000D01*
G04 #@! TO.C,R16*
X2320000Y-14280000D02*
X4180000Y-14280000D01*
X2320000Y-15220000D02*
X2320000Y-14280000D01*
X4180000Y-15220000D02*
X2320000Y-15220000D01*
X4180000Y-14280000D02*
X4180000Y-15220000D01*
G04 #@! TO.C,R15*
X2320000Y-15280000D02*
X4180000Y-15280000D01*
X2320000Y-16220000D02*
X2320000Y-15280000D01*
X4180000Y-16220000D02*
X2320000Y-16220000D01*
X4180000Y-15280000D02*
X4180000Y-16220000D01*
G04 #@! TO.C,R14*
X8030000Y-11680000D02*
X8030000Y-9820000D01*
X8970000Y-11680000D02*
X8030000Y-11680000D01*
X8970000Y-9820000D02*
X8970000Y-11680000D01*
X8030000Y-9820000D02*
X8970000Y-9820000D01*
G04 #@! TO.C,R12*
X8970000Y-12570000D02*
X8970000Y-14430000D01*
X8030000Y-12570000D02*
X8970000Y-12570000D01*
X8030000Y-14430000D02*
X8030000Y-12570000D01*
X8970000Y-14430000D02*
X8030000Y-14430000D01*
G04 #@! TD*
M02*
