G04 #@! TF.GenerationSoftware,KiCad,Pcbnew,5.0.2+dfsg1-1~bpo9+1*
G04 #@! TF.CreationDate,2019-10-17T14:06:53+02:00*
G04 #@! TF.ProjectId,zglue-dragon-adapter,7a676c75-652d-4647-9261-676f6e2d6164,rev?*
G04 #@! TF.SameCoordinates,Original*
G04 #@! TF.FileFunction,Soldermask,Top*
G04 #@! TF.FilePolarity,Negative*
%FSLAX46Y46*%
G04 Gerber Fmt 4.6, Leading zero omitted, Abs format (unit mm)*
G04 Created by KiCad (PCBNEW 5.0.2+dfsg1-1~bpo9+1) date Thu 17 Oct 2019 02:06:53 PM CEST*
%MOMM*%
%LPD*%
G01*
G04 APERTURE LIST*
%ADD10C,0.100000*%
G04 APERTURE END LIST*
D10*
G36*
X10836825Y-18787081D02*
X10864546Y-18795490D01*
X10890089Y-18809143D01*
X10912481Y-18827519D01*
X10930857Y-18849911D01*
X10944510Y-18875454D01*
X10952919Y-18903175D01*
X10956000Y-18934454D01*
X10956000Y-19375546D01*
X10952919Y-19406825D01*
X10944510Y-19434546D01*
X10930857Y-19460089D01*
X10912481Y-19482481D01*
X10890089Y-19500857D01*
X10864546Y-19514510D01*
X10836825Y-19522919D01*
X10805546Y-19526000D01*
X10414454Y-19526000D01*
X10383175Y-19522919D01*
X10355454Y-19514510D01*
X10329911Y-19500857D01*
X10307519Y-19482481D01*
X10289143Y-19460089D01*
X10275490Y-19434546D01*
X10267081Y-19406825D01*
X10264000Y-19375546D01*
X10264000Y-18934454D01*
X10267081Y-18903175D01*
X10275490Y-18875454D01*
X10289143Y-18849911D01*
X10307519Y-18827519D01*
X10329911Y-18809143D01*
X10355454Y-18795490D01*
X10383175Y-18787081D01*
X10414454Y-18784000D01*
X10805546Y-18784000D01*
X10836825Y-18787081D01*
X10836825Y-18787081D01*
G37*
G36*
X9866825Y-18787081D02*
X9894546Y-18795490D01*
X9920089Y-18809143D01*
X9942481Y-18827519D01*
X9960857Y-18849911D01*
X9974510Y-18875454D01*
X9982919Y-18903175D01*
X9986000Y-18934454D01*
X9986000Y-19375546D01*
X9982919Y-19406825D01*
X9974510Y-19434546D01*
X9960857Y-19460089D01*
X9942481Y-19482481D01*
X9920089Y-19500857D01*
X9894546Y-19514510D01*
X9866825Y-19522919D01*
X9835546Y-19526000D01*
X9444454Y-19526000D01*
X9413175Y-19522919D01*
X9385454Y-19514510D01*
X9359911Y-19500857D01*
X9337519Y-19482481D01*
X9319143Y-19460089D01*
X9305490Y-19434546D01*
X9297081Y-19406825D01*
X9294000Y-19375546D01*
X9294000Y-18934454D01*
X9297081Y-18903175D01*
X9305490Y-18875454D01*
X9319143Y-18849911D01*
X9337519Y-18827519D01*
X9359911Y-18809143D01*
X9385454Y-18795490D01*
X9413175Y-18787081D01*
X9444454Y-18784000D01*
X9835546Y-18784000D01*
X9866825Y-18787081D01*
X9866825Y-18787081D01*
G37*
G36*
X15590719Y-18140974D02*
X15590722Y-18140975D01*
X15590721Y-18140975D01*
X15690996Y-18182510D01*
X15781242Y-18242810D01*
X15857990Y-18319558D01*
X15918290Y-18409804D01*
X15945431Y-18475329D01*
X15959826Y-18510081D01*
X15981000Y-18616530D01*
X15981000Y-18725070D01*
X15959826Y-18831519D01*
X15959825Y-18831521D01*
X15918290Y-18931796D01*
X15857990Y-19022042D01*
X15781242Y-19098790D01*
X15690996Y-19159090D01*
X15620090Y-19188460D01*
X15590719Y-19200626D01*
X15484270Y-19221800D01*
X15375730Y-19221800D01*
X15269281Y-19200626D01*
X15239910Y-19188460D01*
X15169004Y-19159090D01*
X15078758Y-19098790D01*
X15002010Y-19022042D01*
X14941710Y-18931796D01*
X14900175Y-18831521D01*
X14900174Y-18831519D01*
X14879000Y-18725070D01*
X14879000Y-18616530D01*
X14900174Y-18510081D01*
X14914569Y-18475329D01*
X14941710Y-18409804D01*
X15002010Y-18319558D01*
X15078758Y-18242810D01*
X15169004Y-18182510D01*
X15269279Y-18140975D01*
X15269278Y-18140975D01*
X15269281Y-18140974D01*
X15375730Y-18119800D01*
X15484270Y-18119800D01*
X15590719Y-18140974D01*
X15590719Y-18140974D01*
G37*
G36*
X16890719Y-18140974D02*
X16890722Y-18140975D01*
X16890721Y-18140975D01*
X16990996Y-18182510D01*
X17081242Y-18242810D01*
X17157990Y-18319558D01*
X17218290Y-18409804D01*
X17245431Y-18475329D01*
X17259826Y-18510081D01*
X17281000Y-18616530D01*
X17281000Y-18725070D01*
X17259826Y-18831519D01*
X17259825Y-18831521D01*
X17218290Y-18931796D01*
X17157990Y-19022042D01*
X17081242Y-19098790D01*
X16990996Y-19159090D01*
X16920090Y-19188460D01*
X16890719Y-19200626D01*
X16784270Y-19221800D01*
X16675730Y-19221800D01*
X16569281Y-19200626D01*
X16539910Y-19188460D01*
X16469004Y-19159090D01*
X16378758Y-19098790D01*
X16302010Y-19022042D01*
X16241710Y-18931796D01*
X16200175Y-18831521D01*
X16200174Y-18831519D01*
X16179000Y-18725070D01*
X16179000Y-18616530D01*
X16200174Y-18510081D01*
X16214569Y-18475329D01*
X16241710Y-18409804D01*
X16302010Y-18319558D01*
X16378758Y-18242810D01*
X16469004Y-18182510D01*
X16569279Y-18140975D01*
X16569278Y-18140975D01*
X16569281Y-18140974D01*
X16675730Y-18119800D01*
X16784270Y-18119800D01*
X16890719Y-18140974D01*
X16890719Y-18140974D01*
G37*
G36*
X14300719Y-18130974D02*
X14300722Y-18130975D01*
X14300721Y-18130975D01*
X14400996Y-18172510D01*
X14491242Y-18232810D01*
X14567990Y-18309558D01*
X14628290Y-18399804D01*
X14648715Y-18449114D01*
X14669826Y-18500081D01*
X14691000Y-18606530D01*
X14691000Y-18715070D01*
X14669826Y-18821519D01*
X14669825Y-18821521D01*
X14628290Y-18921796D01*
X14567990Y-19012042D01*
X14491242Y-19088790D01*
X14400996Y-19149090D01*
X14330090Y-19178460D01*
X14300719Y-19190626D01*
X14194270Y-19211800D01*
X14085730Y-19211800D01*
X13979281Y-19190626D01*
X13949910Y-19178460D01*
X13879004Y-19149090D01*
X13788758Y-19088790D01*
X13712010Y-19012042D01*
X13651710Y-18921796D01*
X13610175Y-18821521D01*
X13610174Y-18821519D01*
X13589000Y-18715070D01*
X13589000Y-18606530D01*
X13610174Y-18500081D01*
X13631285Y-18449114D01*
X13651710Y-18399804D01*
X13712010Y-18309558D01*
X13788758Y-18232810D01*
X13879004Y-18172510D01*
X13979279Y-18130975D01*
X13979278Y-18130975D01*
X13979281Y-18130974D01*
X14085730Y-18109800D01*
X14194270Y-18109800D01*
X14300719Y-18130974D01*
X14300719Y-18130974D01*
G37*
G36*
X11991825Y-18002081D02*
X12019546Y-18010490D01*
X12045089Y-18024143D01*
X12067481Y-18042519D01*
X12085857Y-18064911D01*
X12099510Y-18090454D01*
X12107919Y-18118175D01*
X12111000Y-18149454D01*
X12111000Y-18540546D01*
X12107919Y-18571825D01*
X12099510Y-18599546D01*
X12085857Y-18625089D01*
X12067481Y-18647481D01*
X12045089Y-18665857D01*
X12019546Y-18679510D01*
X11991825Y-18687919D01*
X11960546Y-18691000D01*
X11519454Y-18691000D01*
X11488175Y-18687919D01*
X11460454Y-18679510D01*
X11434911Y-18665857D01*
X11412519Y-18647481D01*
X11394143Y-18625089D01*
X11380490Y-18599546D01*
X11372081Y-18571825D01*
X11369000Y-18540546D01*
X11369000Y-18149454D01*
X11372081Y-18118175D01*
X11380490Y-18090454D01*
X11394143Y-18064911D01*
X11412519Y-18042519D01*
X11434911Y-18024143D01*
X11460454Y-18010490D01*
X11488175Y-18002081D01*
X11519454Y-17999000D01*
X11960546Y-17999000D01*
X11991825Y-18002081D01*
X11991825Y-18002081D01*
G37*
G36*
X9866825Y-17787081D02*
X9894546Y-17795490D01*
X9920089Y-17809143D01*
X9942481Y-17827519D01*
X9960857Y-17849911D01*
X9974510Y-17875454D01*
X9982919Y-17903175D01*
X9986000Y-17934454D01*
X9986000Y-18375546D01*
X9982919Y-18406825D01*
X9974510Y-18434546D01*
X9960857Y-18460089D01*
X9942481Y-18482481D01*
X9920089Y-18500857D01*
X9894546Y-18514510D01*
X9866825Y-18522919D01*
X9835546Y-18526000D01*
X9444454Y-18526000D01*
X9413175Y-18522919D01*
X9385454Y-18514510D01*
X9359911Y-18500857D01*
X9337519Y-18482481D01*
X9319143Y-18460089D01*
X9305490Y-18434546D01*
X9297081Y-18406825D01*
X9294000Y-18375546D01*
X9294000Y-17934454D01*
X9297081Y-17903175D01*
X9305490Y-17875454D01*
X9319143Y-17849911D01*
X9337519Y-17827519D01*
X9359911Y-17809143D01*
X9385454Y-17795490D01*
X9413175Y-17787081D01*
X9444454Y-17784000D01*
X9835546Y-17784000D01*
X9866825Y-17787081D01*
X9866825Y-17787081D01*
G37*
G36*
X10836825Y-17787081D02*
X10864546Y-17795490D01*
X10890089Y-17809143D01*
X10912481Y-17827519D01*
X10930857Y-17849911D01*
X10944510Y-17875454D01*
X10952919Y-17903175D01*
X10956000Y-17934454D01*
X10956000Y-18375546D01*
X10952919Y-18406825D01*
X10944510Y-18434546D01*
X10930857Y-18460089D01*
X10912481Y-18482481D01*
X10890089Y-18500857D01*
X10864546Y-18514510D01*
X10836825Y-18522919D01*
X10805546Y-18526000D01*
X10414454Y-18526000D01*
X10383175Y-18522919D01*
X10355454Y-18514510D01*
X10329911Y-18500857D01*
X10307519Y-18482481D01*
X10289143Y-18460089D01*
X10275490Y-18434546D01*
X10267081Y-18406825D01*
X10264000Y-18375546D01*
X10264000Y-17934454D01*
X10267081Y-17903175D01*
X10275490Y-17875454D01*
X10289143Y-17849911D01*
X10307519Y-17827519D01*
X10329911Y-17809143D01*
X10355454Y-17795490D01*
X10383175Y-17787081D01*
X10414454Y-17784000D01*
X10805546Y-17784000D01*
X10836825Y-17787081D01*
X10836825Y-17787081D01*
G37*
G36*
X5170719Y-16760974D02*
X5170722Y-16760975D01*
X5170721Y-16760975D01*
X5270996Y-16802510D01*
X5361242Y-16862810D01*
X5437990Y-16939558D01*
X5498290Y-17029804D01*
X5518945Y-17079671D01*
X5539826Y-17130081D01*
X5561000Y-17236530D01*
X5561000Y-17345070D01*
X5539826Y-17451519D01*
X5539825Y-17451521D01*
X5498290Y-17551796D01*
X5437990Y-17642042D01*
X5361242Y-17718790D01*
X5270996Y-17779090D01*
X5227349Y-17797169D01*
X5170719Y-17820626D01*
X5064270Y-17841800D01*
X4955730Y-17841800D01*
X4849281Y-17820626D01*
X4792651Y-17797169D01*
X4749004Y-17779090D01*
X4658758Y-17718790D01*
X4582010Y-17642042D01*
X4521710Y-17551796D01*
X4480175Y-17451521D01*
X4480174Y-17451519D01*
X4459000Y-17345070D01*
X4459000Y-17236530D01*
X4480174Y-17130081D01*
X4501055Y-17079671D01*
X4521710Y-17029804D01*
X4582010Y-16939558D01*
X4658758Y-16862810D01*
X4749004Y-16802510D01*
X4849279Y-16760975D01*
X4849278Y-16760975D01*
X4849281Y-16760974D01*
X4955730Y-16739800D01*
X5064270Y-16739800D01*
X5170719Y-16760974D01*
X5170719Y-16760974D01*
G37*
G36*
X6680719Y-16760974D02*
X6680722Y-16760975D01*
X6680721Y-16760975D01*
X6780996Y-16802510D01*
X6871242Y-16862810D01*
X6947990Y-16939558D01*
X7008290Y-17029804D01*
X7028945Y-17079671D01*
X7049826Y-17130081D01*
X7071000Y-17236530D01*
X7071000Y-17345070D01*
X7049826Y-17451519D01*
X7049825Y-17451521D01*
X7008290Y-17551796D01*
X6947990Y-17642042D01*
X6871242Y-17718790D01*
X6780996Y-17779090D01*
X6737349Y-17797169D01*
X6680719Y-17820626D01*
X6574270Y-17841800D01*
X6465730Y-17841800D01*
X6359281Y-17820626D01*
X6302651Y-17797169D01*
X6259004Y-17779090D01*
X6168758Y-17718790D01*
X6092010Y-17642042D01*
X6031710Y-17551796D01*
X5990175Y-17451521D01*
X5990174Y-17451519D01*
X5969000Y-17345070D01*
X5969000Y-17236530D01*
X5990174Y-17130081D01*
X6011055Y-17079671D01*
X6031710Y-17029804D01*
X6092010Y-16939558D01*
X6168758Y-16862810D01*
X6259004Y-16802510D01*
X6359279Y-16760975D01*
X6359278Y-16760975D01*
X6359281Y-16760974D01*
X6465730Y-16739800D01*
X6574270Y-16739800D01*
X6680719Y-16760974D01*
X6680719Y-16760974D01*
G37*
G36*
X2360719Y-16760974D02*
X2360722Y-16760975D01*
X2360721Y-16760975D01*
X2460996Y-16802510D01*
X2551242Y-16862810D01*
X2627990Y-16939558D01*
X2688290Y-17029804D01*
X2708945Y-17079671D01*
X2729826Y-17130081D01*
X2751000Y-17236530D01*
X2751000Y-17345070D01*
X2729826Y-17451519D01*
X2729825Y-17451521D01*
X2688290Y-17551796D01*
X2627990Y-17642042D01*
X2551242Y-17718790D01*
X2460996Y-17779090D01*
X2417349Y-17797169D01*
X2360719Y-17820626D01*
X2254270Y-17841800D01*
X2145730Y-17841800D01*
X2039281Y-17820626D01*
X1982651Y-17797169D01*
X1939004Y-17779090D01*
X1848758Y-17718790D01*
X1772010Y-17642042D01*
X1711710Y-17551796D01*
X1670175Y-17451521D01*
X1670174Y-17451519D01*
X1649000Y-17345070D01*
X1649000Y-17236530D01*
X1670174Y-17130081D01*
X1691055Y-17079671D01*
X1711710Y-17029804D01*
X1772010Y-16939558D01*
X1848758Y-16862810D01*
X1939004Y-16802510D01*
X2039279Y-16760975D01*
X2039278Y-16760975D01*
X2039281Y-16760974D01*
X2145730Y-16739800D01*
X2254270Y-16739800D01*
X2360719Y-16760974D01*
X2360719Y-16760974D01*
G37*
G36*
X3740719Y-16760974D02*
X3740722Y-16760975D01*
X3740721Y-16760975D01*
X3840996Y-16802510D01*
X3931242Y-16862810D01*
X4007990Y-16939558D01*
X4068290Y-17029804D01*
X4088945Y-17079671D01*
X4109826Y-17130081D01*
X4131000Y-17236530D01*
X4131000Y-17345070D01*
X4109826Y-17451519D01*
X4109825Y-17451521D01*
X4068290Y-17551796D01*
X4007990Y-17642042D01*
X3931242Y-17718790D01*
X3840996Y-17779090D01*
X3797349Y-17797169D01*
X3740719Y-17820626D01*
X3634270Y-17841800D01*
X3525730Y-17841800D01*
X3419281Y-17820626D01*
X3362651Y-17797169D01*
X3319004Y-17779090D01*
X3228758Y-17718790D01*
X3152010Y-17642042D01*
X3091710Y-17551796D01*
X3050175Y-17451521D01*
X3050174Y-17451519D01*
X3029000Y-17345070D01*
X3029000Y-17236530D01*
X3050174Y-17130081D01*
X3071055Y-17079671D01*
X3091710Y-17029804D01*
X3152010Y-16939558D01*
X3228758Y-16862810D01*
X3319004Y-16802510D01*
X3419279Y-16760975D01*
X3419278Y-16760975D01*
X3419281Y-16760974D01*
X3525730Y-16739800D01*
X3634270Y-16739800D01*
X3740719Y-16760974D01*
X3740719Y-16760974D01*
G37*
G36*
X11991825Y-17032081D02*
X12019546Y-17040490D01*
X12045089Y-17054143D01*
X12067481Y-17072519D01*
X12085857Y-17094911D01*
X12099510Y-17120454D01*
X12107919Y-17148175D01*
X12111000Y-17179454D01*
X12111000Y-17570546D01*
X12107919Y-17601825D01*
X12099510Y-17629546D01*
X12085857Y-17655089D01*
X12067481Y-17677481D01*
X12045089Y-17695857D01*
X12019546Y-17709510D01*
X11991825Y-17717919D01*
X11960546Y-17721000D01*
X11519454Y-17721000D01*
X11488175Y-17717919D01*
X11460454Y-17709510D01*
X11434911Y-17695857D01*
X11412519Y-17677481D01*
X11394143Y-17655089D01*
X11380490Y-17629546D01*
X11372081Y-17601825D01*
X11369000Y-17570546D01*
X11369000Y-17179454D01*
X11372081Y-17148175D01*
X11380490Y-17120454D01*
X11394143Y-17094911D01*
X11412519Y-17072519D01*
X11434911Y-17054143D01*
X11460454Y-17040490D01*
X11488175Y-17032081D01*
X11519454Y-17029000D01*
X11960546Y-17029000D01*
X11991825Y-17032081D01*
X11991825Y-17032081D01*
G37*
G36*
X13071825Y-16932081D02*
X13099546Y-16940490D01*
X13125089Y-16954143D01*
X13147481Y-16972519D01*
X13165857Y-16994911D01*
X13179510Y-17020454D01*
X13187919Y-17048175D01*
X13191000Y-17079454D01*
X13191000Y-17470546D01*
X13187919Y-17501825D01*
X13179510Y-17529546D01*
X13165857Y-17555089D01*
X13147481Y-17577481D01*
X13125089Y-17595857D01*
X13099546Y-17609510D01*
X13071825Y-17617919D01*
X13040546Y-17621000D01*
X12599454Y-17621000D01*
X12568175Y-17617919D01*
X12540454Y-17609510D01*
X12514911Y-17595857D01*
X12492519Y-17577481D01*
X12474143Y-17555089D01*
X12460490Y-17529546D01*
X12452081Y-17501825D01*
X12449000Y-17470546D01*
X12449000Y-17079454D01*
X12452081Y-17048175D01*
X12460490Y-17020454D01*
X12474143Y-16994911D01*
X12492519Y-16972519D01*
X12514911Y-16954143D01*
X12540454Y-16940490D01*
X12568175Y-16932081D01*
X12599454Y-16929000D01*
X13040546Y-16929000D01*
X13071825Y-16932081D01*
X13071825Y-16932081D01*
G37*
G36*
X10506825Y-16717081D02*
X10534546Y-16725490D01*
X10560089Y-16739143D01*
X10582481Y-16757519D01*
X10600857Y-16779911D01*
X10614510Y-16805454D01*
X10622919Y-16833175D01*
X10626000Y-16864454D01*
X10626000Y-17255546D01*
X10622919Y-17286825D01*
X10614510Y-17314546D01*
X10600857Y-17340089D01*
X10582481Y-17362481D01*
X10560089Y-17380857D01*
X10534546Y-17394510D01*
X10506825Y-17402919D01*
X10475546Y-17406000D01*
X10034454Y-17406000D01*
X10003175Y-17402919D01*
X9975454Y-17394510D01*
X9949911Y-17380857D01*
X9927519Y-17362481D01*
X9909143Y-17340089D01*
X9895490Y-17314546D01*
X9887081Y-17286825D01*
X9884000Y-17255546D01*
X9884000Y-16864454D01*
X9887081Y-16833175D01*
X9895490Y-16805454D01*
X9909143Y-16779911D01*
X9927519Y-16757519D01*
X9949911Y-16739143D01*
X9975454Y-16725490D01*
X10003175Y-16717081D01*
X10034454Y-16714000D01*
X10475546Y-16714000D01*
X10506825Y-16717081D01*
X10506825Y-16717081D01*
G37*
G36*
X13071825Y-15962081D02*
X13099546Y-15970490D01*
X13125089Y-15984143D01*
X13147481Y-16002519D01*
X13165857Y-16024911D01*
X13179510Y-16050454D01*
X13187919Y-16078175D01*
X13191000Y-16109454D01*
X13191000Y-16500546D01*
X13187919Y-16531825D01*
X13179510Y-16559546D01*
X13165857Y-16585089D01*
X13147481Y-16607481D01*
X13125089Y-16625857D01*
X13099546Y-16639510D01*
X13071825Y-16647919D01*
X13040546Y-16651000D01*
X12599454Y-16651000D01*
X12568175Y-16647919D01*
X12540454Y-16639510D01*
X12514911Y-16625857D01*
X12492519Y-16607481D01*
X12474143Y-16585089D01*
X12460490Y-16559546D01*
X12452081Y-16531825D01*
X12449000Y-16500546D01*
X12449000Y-16109454D01*
X12452081Y-16078175D01*
X12460490Y-16050454D01*
X12474143Y-16024911D01*
X12492519Y-16002519D01*
X12514911Y-15984143D01*
X12540454Y-15970490D01*
X12568175Y-15962081D01*
X12599454Y-15959000D01*
X13040546Y-15959000D01*
X13071825Y-15962081D01*
X13071825Y-15962081D01*
G37*
G36*
X10506825Y-15747081D02*
X10534546Y-15755490D01*
X10560089Y-15769143D01*
X10582481Y-15787519D01*
X10600857Y-15809911D01*
X10614510Y-15835454D01*
X10622919Y-15863175D01*
X10626000Y-15894454D01*
X10626000Y-16285546D01*
X10622919Y-16316825D01*
X10614510Y-16344546D01*
X10600857Y-16370089D01*
X10582481Y-16392481D01*
X10560089Y-16410857D01*
X10534546Y-16424510D01*
X10506825Y-16432919D01*
X10475546Y-16436000D01*
X10034454Y-16436000D01*
X10003175Y-16432919D01*
X9975454Y-16424510D01*
X9949911Y-16410857D01*
X9927519Y-16392481D01*
X9909143Y-16370089D01*
X9895490Y-16344546D01*
X9887081Y-16316825D01*
X9884000Y-16285546D01*
X9884000Y-15894454D01*
X9887081Y-15863175D01*
X9895490Y-15835454D01*
X9909143Y-15809911D01*
X9927519Y-15787519D01*
X9949911Y-15769143D01*
X9975454Y-15755490D01*
X10003175Y-15747081D01*
X10034454Y-15744000D01*
X10475546Y-15744000D01*
X10506825Y-15747081D01*
X10506825Y-15747081D01*
G37*
G36*
X6751825Y-15292081D02*
X6779546Y-15300490D01*
X6805089Y-15314143D01*
X6827481Y-15332519D01*
X6845857Y-15354911D01*
X6859510Y-15380454D01*
X6867919Y-15408175D01*
X6871000Y-15439454D01*
X6871000Y-15880546D01*
X6867919Y-15911825D01*
X6859510Y-15939546D01*
X6845857Y-15965089D01*
X6827481Y-15987481D01*
X6805089Y-16005857D01*
X6779546Y-16019510D01*
X6751825Y-16027919D01*
X6720546Y-16031000D01*
X6329454Y-16031000D01*
X6298175Y-16027919D01*
X6270454Y-16019510D01*
X6244911Y-16005857D01*
X6222519Y-15987481D01*
X6204143Y-15965089D01*
X6190490Y-15939546D01*
X6182081Y-15911825D01*
X6179000Y-15880546D01*
X6179000Y-15439454D01*
X6182081Y-15408175D01*
X6190490Y-15380454D01*
X6204143Y-15354911D01*
X6222519Y-15332519D01*
X6244911Y-15314143D01*
X6270454Y-15300490D01*
X6298175Y-15292081D01*
X6329454Y-15289000D01*
X6720546Y-15289000D01*
X6751825Y-15292081D01*
X6751825Y-15292081D01*
G37*
G36*
X7721825Y-15292081D02*
X7749546Y-15300490D01*
X7775089Y-15314143D01*
X7797481Y-15332519D01*
X7815857Y-15354911D01*
X7829510Y-15380454D01*
X7837919Y-15408175D01*
X7841000Y-15439454D01*
X7841000Y-15880546D01*
X7837919Y-15911825D01*
X7829510Y-15939546D01*
X7815857Y-15965089D01*
X7797481Y-15987481D01*
X7775089Y-16005857D01*
X7749546Y-16019510D01*
X7721825Y-16027919D01*
X7690546Y-16031000D01*
X7299454Y-16031000D01*
X7268175Y-16027919D01*
X7240454Y-16019510D01*
X7214911Y-16005857D01*
X7192519Y-15987481D01*
X7174143Y-15965089D01*
X7160490Y-15939546D01*
X7152081Y-15911825D01*
X7149000Y-15880546D01*
X7149000Y-15439454D01*
X7152081Y-15408175D01*
X7160490Y-15380454D01*
X7174143Y-15354911D01*
X7192519Y-15332519D01*
X7214911Y-15314143D01*
X7240454Y-15300490D01*
X7268175Y-15292081D01*
X7299454Y-15289000D01*
X7690546Y-15289000D01*
X7721825Y-15292081D01*
X7721825Y-15292081D01*
G37*
G36*
X6741825Y-14202081D02*
X6769546Y-14210490D01*
X6795089Y-14224143D01*
X6817481Y-14242519D01*
X6835857Y-14264911D01*
X6849510Y-14290454D01*
X6857919Y-14318175D01*
X6861000Y-14349454D01*
X6861000Y-14790546D01*
X6857919Y-14821825D01*
X6849510Y-14849546D01*
X6835857Y-14875089D01*
X6817481Y-14897481D01*
X6795089Y-14915857D01*
X6769546Y-14929510D01*
X6741825Y-14937919D01*
X6710546Y-14941000D01*
X6319454Y-14941000D01*
X6288175Y-14937919D01*
X6260454Y-14929510D01*
X6234911Y-14915857D01*
X6212519Y-14897481D01*
X6194143Y-14875089D01*
X6180490Y-14849546D01*
X6172081Y-14821825D01*
X6169000Y-14790546D01*
X6169000Y-14349454D01*
X6172081Y-14318175D01*
X6180490Y-14290454D01*
X6194143Y-14264911D01*
X6212519Y-14242519D01*
X6234911Y-14224143D01*
X6260454Y-14210490D01*
X6288175Y-14202081D01*
X6319454Y-14199000D01*
X6710546Y-14199000D01*
X6741825Y-14202081D01*
X6741825Y-14202081D01*
G37*
G36*
X7711825Y-14202081D02*
X7739546Y-14210490D01*
X7765089Y-14224143D01*
X7787481Y-14242519D01*
X7805857Y-14264911D01*
X7819510Y-14290454D01*
X7827919Y-14318175D01*
X7831000Y-14349454D01*
X7831000Y-14790546D01*
X7827919Y-14821825D01*
X7819510Y-14849546D01*
X7805857Y-14875089D01*
X7787481Y-14897481D01*
X7765089Y-14915857D01*
X7739546Y-14929510D01*
X7711825Y-14937919D01*
X7680546Y-14941000D01*
X7289454Y-14941000D01*
X7258175Y-14937919D01*
X7230454Y-14929510D01*
X7204911Y-14915857D01*
X7182519Y-14897481D01*
X7164143Y-14875089D01*
X7150490Y-14849546D01*
X7142081Y-14821825D01*
X7139000Y-14790546D01*
X7139000Y-14349454D01*
X7142081Y-14318175D01*
X7150490Y-14290454D01*
X7164143Y-14264911D01*
X7182519Y-14242519D01*
X7204911Y-14224143D01*
X7230454Y-14210490D01*
X7258175Y-14202081D01*
X7289454Y-14199000D01*
X7680546Y-14199000D01*
X7711825Y-14202081D01*
X7711825Y-14202081D01*
G37*
G36*
X18451825Y-13862081D02*
X18479546Y-13870490D01*
X18505089Y-13884143D01*
X18527481Y-13902519D01*
X18545857Y-13924911D01*
X18559510Y-13950454D01*
X18567919Y-13978175D01*
X18571000Y-14009454D01*
X18571000Y-14400546D01*
X18567919Y-14431825D01*
X18559510Y-14459546D01*
X18545857Y-14485089D01*
X18527481Y-14507481D01*
X18505089Y-14525857D01*
X18479546Y-14539510D01*
X18451825Y-14547919D01*
X18420546Y-14551000D01*
X17979454Y-14551000D01*
X17948175Y-14547919D01*
X17920454Y-14539510D01*
X17894911Y-14525857D01*
X17872519Y-14507481D01*
X17854143Y-14485089D01*
X17840490Y-14459546D01*
X17832081Y-14431825D01*
X17829000Y-14400546D01*
X17829000Y-14009454D01*
X17832081Y-13978175D01*
X17840490Y-13950454D01*
X17854143Y-13924911D01*
X17872519Y-13902519D01*
X17894911Y-13884143D01*
X17920454Y-13870490D01*
X17948175Y-13862081D01*
X17979454Y-13859000D01*
X18420546Y-13859000D01*
X18451825Y-13862081D01*
X18451825Y-13862081D01*
G37*
G36*
X17401825Y-13862081D02*
X17429546Y-13870490D01*
X17455089Y-13884143D01*
X17477481Y-13902519D01*
X17495857Y-13924911D01*
X17509510Y-13950454D01*
X17517919Y-13978175D01*
X17521000Y-14009454D01*
X17521000Y-14400546D01*
X17517919Y-14431825D01*
X17509510Y-14459546D01*
X17495857Y-14485089D01*
X17477481Y-14507481D01*
X17455089Y-14525857D01*
X17429546Y-14539510D01*
X17401825Y-14547919D01*
X17370546Y-14551000D01*
X16929454Y-14551000D01*
X16898175Y-14547919D01*
X16870454Y-14539510D01*
X16844911Y-14525857D01*
X16822519Y-14507481D01*
X16804143Y-14485089D01*
X16790490Y-14459546D01*
X16782081Y-14431825D01*
X16779000Y-14400546D01*
X16779000Y-14009454D01*
X16782081Y-13978175D01*
X16790490Y-13950454D01*
X16804143Y-13924911D01*
X16822519Y-13902519D01*
X16844911Y-13884143D01*
X16870454Y-13870490D01*
X16898175Y-13862081D01*
X16929454Y-13859000D01*
X17370546Y-13859000D01*
X17401825Y-13862081D01*
X17401825Y-13862081D01*
G37*
G36*
X19501825Y-13862081D02*
X19529546Y-13870490D01*
X19555089Y-13884143D01*
X19577481Y-13902519D01*
X19595857Y-13924911D01*
X19609510Y-13950454D01*
X19617919Y-13978175D01*
X19621000Y-14009454D01*
X19621000Y-14400546D01*
X19617919Y-14431825D01*
X19609510Y-14459546D01*
X19595857Y-14485089D01*
X19577481Y-14507481D01*
X19555089Y-14525857D01*
X19529546Y-14539510D01*
X19501825Y-14547919D01*
X19470546Y-14551000D01*
X19029454Y-14551000D01*
X18998175Y-14547919D01*
X18970454Y-14539510D01*
X18944911Y-14525857D01*
X18922519Y-14507481D01*
X18904143Y-14485089D01*
X18890490Y-14459546D01*
X18882081Y-14431825D01*
X18879000Y-14400546D01*
X18879000Y-14009454D01*
X18882081Y-13978175D01*
X18890490Y-13950454D01*
X18904143Y-13924911D01*
X18922519Y-13902519D01*
X18944911Y-13884143D01*
X18970454Y-13870490D01*
X18998175Y-13862081D01*
X19029454Y-13859000D01*
X19470546Y-13859000D01*
X19501825Y-13862081D01*
X19501825Y-13862081D01*
G37*
G36*
X9776000Y-14426000D02*
X9374000Y-14426000D01*
X9374000Y-14024000D01*
X9776000Y-14024000D01*
X9776000Y-14426000D01*
X9776000Y-14426000D01*
G37*
G36*
X10426000Y-14426000D02*
X10024000Y-14426000D01*
X10024000Y-14024000D01*
X10426000Y-14024000D01*
X10426000Y-14426000D01*
X10426000Y-14426000D01*
G37*
G36*
X11076000Y-14426000D02*
X10674000Y-14426000D01*
X10674000Y-14024000D01*
X11076000Y-14024000D01*
X11076000Y-14426000D01*
X11076000Y-14426000D01*
G37*
G36*
X11726000Y-14426000D02*
X11324000Y-14426000D01*
X11324000Y-14024000D01*
X11726000Y-14024000D01*
X11726000Y-14426000D01*
X11726000Y-14426000D01*
G37*
G36*
X12376000Y-14426000D02*
X11974000Y-14426000D01*
X11974000Y-14024000D01*
X12376000Y-14024000D01*
X12376000Y-14426000D01*
X12376000Y-14426000D01*
G37*
G36*
X13026000Y-14426000D02*
X12624000Y-14426000D01*
X12624000Y-14024000D01*
X13026000Y-14024000D01*
X13026000Y-14426000D01*
X13026000Y-14426000D01*
G37*
G36*
X13676000Y-14426000D02*
X13274000Y-14426000D01*
X13274000Y-14024000D01*
X13676000Y-14024000D01*
X13676000Y-14426000D01*
X13676000Y-14426000D01*
G37*
G36*
X14326000Y-14426000D02*
X13924000Y-14426000D01*
X13924000Y-14024000D01*
X14326000Y-14024000D01*
X14326000Y-14426000D01*
X14326000Y-14426000D01*
G37*
G36*
X14976000Y-14426000D02*
X14574000Y-14426000D01*
X14574000Y-14024000D01*
X14976000Y-14024000D01*
X14976000Y-14426000D01*
X14976000Y-14426000D01*
G37*
G36*
X15626000Y-14426000D02*
X15224000Y-14426000D01*
X15224000Y-14024000D01*
X15626000Y-14024000D01*
X15626000Y-14426000D01*
X15626000Y-14426000D01*
G37*
G36*
X9776000Y-13776000D02*
X9374000Y-13776000D01*
X9374000Y-13374000D01*
X9776000Y-13374000D01*
X9776000Y-13776000D01*
X9776000Y-13776000D01*
G37*
G36*
X10426000Y-13776000D02*
X10024000Y-13776000D01*
X10024000Y-13374000D01*
X10426000Y-13374000D01*
X10426000Y-13776000D01*
X10426000Y-13776000D01*
G37*
G36*
X13676000Y-13776000D02*
X13274000Y-13776000D01*
X13274000Y-13374000D01*
X13676000Y-13374000D01*
X13676000Y-13776000D01*
X13676000Y-13776000D01*
G37*
G36*
X12376000Y-13776000D02*
X11974000Y-13776000D01*
X11974000Y-13374000D01*
X12376000Y-13374000D01*
X12376000Y-13776000D01*
X12376000Y-13776000D01*
G37*
G36*
X11076000Y-13776000D02*
X10674000Y-13776000D01*
X10674000Y-13374000D01*
X11076000Y-13374000D01*
X11076000Y-13776000D01*
X11076000Y-13776000D01*
G37*
G36*
X13026000Y-13776000D02*
X12624000Y-13776000D01*
X12624000Y-13374000D01*
X13026000Y-13374000D01*
X13026000Y-13776000D01*
X13026000Y-13776000D01*
G37*
G36*
X15626000Y-13776000D02*
X15224000Y-13776000D01*
X15224000Y-13374000D01*
X15626000Y-13374000D01*
X15626000Y-13776000D01*
X15626000Y-13776000D01*
G37*
G36*
X14976000Y-13776000D02*
X14574000Y-13776000D01*
X14574000Y-13374000D01*
X14976000Y-13374000D01*
X14976000Y-13776000D01*
X14976000Y-13776000D01*
G37*
G36*
X11726000Y-13776000D02*
X11324000Y-13776000D01*
X11324000Y-13374000D01*
X11726000Y-13374000D01*
X11726000Y-13776000D01*
X11726000Y-13776000D01*
G37*
G36*
X14326000Y-13776000D02*
X13924000Y-13776000D01*
X13924000Y-13374000D01*
X14326000Y-13374000D01*
X14326000Y-13776000D01*
X14326000Y-13776000D01*
G37*
G36*
X17401825Y-12892081D02*
X17429546Y-12900490D01*
X17455089Y-12914143D01*
X17477481Y-12932519D01*
X17495857Y-12954911D01*
X17509510Y-12980454D01*
X17517919Y-13008175D01*
X17521000Y-13039454D01*
X17521000Y-13430546D01*
X17517919Y-13461825D01*
X17509510Y-13489546D01*
X17495857Y-13515089D01*
X17477481Y-13537481D01*
X17455089Y-13555857D01*
X17429546Y-13569510D01*
X17401825Y-13577919D01*
X17370546Y-13581000D01*
X16929454Y-13581000D01*
X16898175Y-13577919D01*
X16870454Y-13569510D01*
X16844911Y-13555857D01*
X16822519Y-13537481D01*
X16804143Y-13515089D01*
X16790490Y-13489546D01*
X16782081Y-13461825D01*
X16779000Y-13430546D01*
X16779000Y-13039454D01*
X16782081Y-13008175D01*
X16790490Y-12980454D01*
X16804143Y-12954911D01*
X16822519Y-12932519D01*
X16844911Y-12914143D01*
X16870454Y-12900490D01*
X16898175Y-12892081D01*
X16929454Y-12889000D01*
X17370546Y-12889000D01*
X17401825Y-12892081D01*
X17401825Y-12892081D01*
G37*
G36*
X19501825Y-12892081D02*
X19529546Y-12900490D01*
X19555089Y-12914143D01*
X19577481Y-12932519D01*
X19595857Y-12954911D01*
X19609510Y-12980454D01*
X19617919Y-13008175D01*
X19621000Y-13039454D01*
X19621000Y-13430546D01*
X19617919Y-13461825D01*
X19609510Y-13489546D01*
X19595857Y-13515089D01*
X19577481Y-13537481D01*
X19555089Y-13555857D01*
X19529546Y-13569510D01*
X19501825Y-13577919D01*
X19470546Y-13581000D01*
X19029454Y-13581000D01*
X18998175Y-13577919D01*
X18970454Y-13569510D01*
X18944911Y-13555857D01*
X18922519Y-13537481D01*
X18904143Y-13515089D01*
X18890490Y-13489546D01*
X18882081Y-13461825D01*
X18879000Y-13430546D01*
X18879000Y-13039454D01*
X18882081Y-13008175D01*
X18890490Y-12980454D01*
X18904143Y-12954911D01*
X18922519Y-12932519D01*
X18944911Y-12914143D01*
X18970454Y-12900490D01*
X18998175Y-12892081D01*
X19029454Y-12889000D01*
X19470546Y-12889000D01*
X19501825Y-12892081D01*
X19501825Y-12892081D01*
G37*
G36*
X18451825Y-12892081D02*
X18479546Y-12900490D01*
X18505089Y-12914143D01*
X18527481Y-12932519D01*
X18545857Y-12954911D01*
X18559510Y-12980454D01*
X18567919Y-13008175D01*
X18571000Y-13039454D01*
X18571000Y-13430546D01*
X18567919Y-13461825D01*
X18559510Y-13489546D01*
X18545857Y-13515089D01*
X18527481Y-13537481D01*
X18505089Y-13555857D01*
X18479546Y-13569510D01*
X18451825Y-13577919D01*
X18420546Y-13581000D01*
X17979454Y-13581000D01*
X17948175Y-13577919D01*
X17920454Y-13569510D01*
X17894911Y-13555857D01*
X17872519Y-13537481D01*
X17854143Y-13515089D01*
X17840490Y-13489546D01*
X17832081Y-13461825D01*
X17829000Y-13430546D01*
X17829000Y-13039454D01*
X17832081Y-13008175D01*
X17840490Y-12980454D01*
X17854143Y-12954911D01*
X17872519Y-12932519D01*
X17894911Y-12914143D01*
X17920454Y-12900490D01*
X17948175Y-12892081D01*
X17979454Y-12889000D01*
X18420546Y-12889000D01*
X18451825Y-12892081D01*
X18451825Y-12892081D01*
G37*
G36*
X4181825Y-12802081D02*
X4209546Y-12810490D01*
X4235089Y-12824143D01*
X4257481Y-12842519D01*
X4275857Y-12864911D01*
X4289510Y-12890454D01*
X4297919Y-12918175D01*
X4301000Y-12949454D01*
X4301000Y-13390546D01*
X4297919Y-13421825D01*
X4289510Y-13449546D01*
X4275857Y-13475089D01*
X4257481Y-13497481D01*
X4235089Y-13515857D01*
X4209546Y-13529510D01*
X4181825Y-13537919D01*
X4150546Y-13541000D01*
X3759454Y-13541000D01*
X3728175Y-13537919D01*
X3700454Y-13529510D01*
X3674911Y-13515857D01*
X3652519Y-13497481D01*
X3634143Y-13475089D01*
X3620490Y-13449546D01*
X3612081Y-13421825D01*
X3609000Y-13390546D01*
X3609000Y-12949454D01*
X3612081Y-12918175D01*
X3620490Y-12890454D01*
X3634143Y-12864911D01*
X3652519Y-12842519D01*
X3674911Y-12824143D01*
X3700454Y-12810490D01*
X3728175Y-12802081D01*
X3759454Y-12799000D01*
X4150546Y-12799000D01*
X4181825Y-12802081D01*
X4181825Y-12802081D01*
G37*
G36*
X5151825Y-12802081D02*
X5179546Y-12810490D01*
X5205089Y-12824143D01*
X5227481Y-12842519D01*
X5245857Y-12864911D01*
X5259510Y-12890454D01*
X5267919Y-12918175D01*
X5271000Y-12949454D01*
X5271000Y-13390546D01*
X5267919Y-13421825D01*
X5259510Y-13449546D01*
X5245857Y-13475089D01*
X5227481Y-13497481D01*
X5205089Y-13515857D01*
X5179546Y-13529510D01*
X5151825Y-13537919D01*
X5120546Y-13541000D01*
X4729454Y-13541000D01*
X4698175Y-13537919D01*
X4670454Y-13529510D01*
X4644911Y-13515857D01*
X4622519Y-13497481D01*
X4604143Y-13475089D01*
X4590490Y-13449546D01*
X4582081Y-13421825D01*
X4579000Y-13390546D01*
X4579000Y-12949454D01*
X4582081Y-12918175D01*
X4590490Y-12890454D01*
X4604143Y-12864911D01*
X4622519Y-12842519D01*
X4644911Y-12824143D01*
X4670454Y-12810490D01*
X4698175Y-12802081D01*
X4729454Y-12799000D01*
X5120546Y-12799000D01*
X5151825Y-12802081D01*
X5151825Y-12802081D01*
G37*
G36*
X11076000Y-13126000D02*
X10674000Y-13126000D01*
X10674000Y-12724000D01*
X11076000Y-12724000D01*
X11076000Y-13126000D01*
X11076000Y-13126000D01*
G37*
G36*
X15626000Y-13126000D02*
X15224000Y-13126000D01*
X15224000Y-12724000D01*
X15626000Y-12724000D01*
X15626000Y-13126000D01*
X15626000Y-13126000D01*
G37*
G36*
X14976000Y-13126000D02*
X14574000Y-13126000D01*
X14574000Y-12724000D01*
X14976000Y-12724000D01*
X14976000Y-13126000D01*
X14976000Y-13126000D01*
G37*
G36*
X14326000Y-13126000D02*
X13924000Y-13126000D01*
X13924000Y-12724000D01*
X14326000Y-12724000D01*
X14326000Y-13126000D01*
X14326000Y-13126000D01*
G37*
G36*
X13676000Y-13126000D02*
X13274000Y-13126000D01*
X13274000Y-12724000D01*
X13676000Y-12724000D01*
X13676000Y-13126000D01*
X13676000Y-13126000D01*
G37*
G36*
X13026000Y-13126000D02*
X12624000Y-13126000D01*
X12624000Y-12724000D01*
X13026000Y-12724000D01*
X13026000Y-13126000D01*
X13026000Y-13126000D01*
G37*
G36*
X12376000Y-13126000D02*
X11974000Y-13126000D01*
X11974000Y-12724000D01*
X12376000Y-12724000D01*
X12376000Y-13126000D01*
X12376000Y-13126000D01*
G37*
G36*
X10426000Y-13126000D02*
X10024000Y-13126000D01*
X10024000Y-12724000D01*
X10426000Y-12724000D01*
X10426000Y-13126000D01*
X10426000Y-13126000D01*
G37*
G36*
X9776000Y-13126000D02*
X9374000Y-13126000D01*
X9374000Y-12724000D01*
X9776000Y-12724000D01*
X9776000Y-13126000D01*
X9776000Y-13126000D01*
G37*
G36*
X11726000Y-13126000D02*
X11324000Y-13126000D01*
X11324000Y-12724000D01*
X11726000Y-12724000D01*
X11726000Y-13126000D01*
X11726000Y-13126000D01*
G37*
G36*
X7976825Y-12247081D02*
X8004546Y-12255490D01*
X8030089Y-12269143D01*
X8052481Y-12287519D01*
X8070857Y-12309911D01*
X8084510Y-12335454D01*
X8092919Y-12363175D01*
X8096000Y-12394454D01*
X8096000Y-12785546D01*
X8092919Y-12816825D01*
X8084510Y-12844546D01*
X8070857Y-12870089D01*
X8052481Y-12892481D01*
X8030089Y-12910857D01*
X8004546Y-12924510D01*
X7976825Y-12932919D01*
X7945546Y-12936000D01*
X7504454Y-12936000D01*
X7473175Y-12932919D01*
X7445454Y-12924510D01*
X7419911Y-12910857D01*
X7397519Y-12892481D01*
X7379143Y-12870089D01*
X7365490Y-12844546D01*
X7357081Y-12816825D01*
X7354000Y-12785546D01*
X7354000Y-12394454D01*
X7357081Y-12363175D01*
X7365490Y-12335454D01*
X7379143Y-12309911D01*
X7397519Y-12287519D01*
X7419911Y-12269143D01*
X7445454Y-12255490D01*
X7473175Y-12247081D01*
X7504454Y-12244000D01*
X7945546Y-12244000D01*
X7976825Y-12247081D01*
X7976825Y-12247081D01*
G37*
G36*
X18461825Y-11812081D02*
X18489546Y-11820490D01*
X18515089Y-11834143D01*
X18537481Y-11852519D01*
X18555857Y-11874911D01*
X18569510Y-11900454D01*
X18577919Y-11928175D01*
X18581000Y-11959454D01*
X18581000Y-12350546D01*
X18577919Y-12381825D01*
X18569510Y-12409546D01*
X18555857Y-12435089D01*
X18537481Y-12457481D01*
X18515089Y-12475857D01*
X18489546Y-12489510D01*
X18461825Y-12497919D01*
X18430546Y-12501000D01*
X17989454Y-12501000D01*
X17958175Y-12497919D01*
X17930454Y-12489510D01*
X17904911Y-12475857D01*
X17882519Y-12457481D01*
X17864143Y-12435089D01*
X17850490Y-12409546D01*
X17842081Y-12381825D01*
X17839000Y-12350546D01*
X17839000Y-11959454D01*
X17842081Y-11928175D01*
X17850490Y-11900454D01*
X17864143Y-11874911D01*
X17882519Y-11852519D01*
X17904911Y-11834143D01*
X17930454Y-11820490D01*
X17958175Y-11812081D01*
X17989454Y-11809000D01*
X18430546Y-11809000D01*
X18461825Y-11812081D01*
X18461825Y-11812081D01*
G37*
G36*
X19501825Y-11812081D02*
X19529546Y-11820490D01*
X19555089Y-11834143D01*
X19577481Y-11852519D01*
X19595857Y-11874911D01*
X19609510Y-11900454D01*
X19617919Y-11928175D01*
X19621000Y-11959454D01*
X19621000Y-12350546D01*
X19617919Y-12381825D01*
X19609510Y-12409546D01*
X19595857Y-12435089D01*
X19577481Y-12457481D01*
X19555089Y-12475857D01*
X19529546Y-12489510D01*
X19501825Y-12497919D01*
X19470546Y-12501000D01*
X19029454Y-12501000D01*
X18998175Y-12497919D01*
X18970454Y-12489510D01*
X18944911Y-12475857D01*
X18922519Y-12457481D01*
X18904143Y-12435089D01*
X18890490Y-12409546D01*
X18882081Y-12381825D01*
X18879000Y-12350546D01*
X18879000Y-11959454D01*
X18882081Y-11928175D01*
X18890490Y-11900454D01*
X18904143Y-11874911D01*
X18922519Y-11852519D01*
X18944911Y-11834143D01*
X18970454Y-11820490D01*
X18998175Y-11812081D01*
X19029454Y-11809000D01*
X19470546Y-11809000D01*
X19501825Y-11812081D01*
X19501825Y-11812081D01*
G37*
G36*
X17411825Y-11812081D02*
X17439546Y-11820490D01*
X17465089Y-11834143D01*
X17487481Y-11852519D01*
X17505857Y-11874911D01*
X17519510Y-11900454D01*
X17527919Y-11928175D01*
X17531000Y-11959454D01*
X17531000Y-12350546D01*
X17527919Y-12381825D01*
X17519510Y-12409546D01*
X17505857Y-12435089D01*
X17487481Y-12457481D01*
X17465089Y-12475857D01*
X17439546Y-12489510D01*
X17411825Y-12497919D01*
X17380546Y-12501000D01*
X16939454Y-12501000D01*
X16908175Y-12497919D01*
X16880454Y-12489510D01*
X16854911Y-12475857D01*
X16832519Y-12457481D01*
X16814143Y-12435089D01*
X16800490Y-12409546D01*
X16792081Y-12381825D01*
X16789000Y-12350546D01*
X16789000Y-11959454D01*
X16792081Y-11928175D01*
X16800490Y-11900454D01*
X16814143Y-11874911D01*
X16832519Y-11852519D01*
X16854911Y-11834143D01*
X16880454Y-11820490D01*
X16908175Y-11812081D01*
X16939454Y-11809000D01*
X17380546Y-11809000D01*
X17411825Y-11812081D01*
X17411825Y-11812081D01*
G37*
G36*
X14326000Y-12476000D02*
X13924000Y-12476000D01*
X13924000Y-12074000D01*
X14326000Y-12074000D01*
X14326000Y-12476000D01*
X14326000Y-12476000D01*
G37*
G36*
X9776000Y-12476000D02*
X9374000Y-12476000D01*
X9374000Y-12074000D01*
X9776000Y-12074000D01*
X9776000Y-12476000D01*
X9776000Y-12476000D01*
G37*
G36*
X15626000Y-12476000D02*
X15224000Y-12476000D01*
X15224000Y-12074000D01*
X15626000Y-12074000D01*
X15626000Y-12476000D01*
X15626000Y-12476000D01*
G37*
G36*
X11076000Y-12476000D02*
X10674000Y-12476000D01*
X10674000Y-12074000D01*
X11076000Y-12074000D01*
X11076000Y-12476000D01*
X11076000Y-12476000D01*
G37*
G36*
X14976000Y-12476000D02*
X14574000Y-12476000D01*
X14574000Y-12074000D01*
X14976000Y-12074000D01*
X14976000Y-12476000D01*
X14976000Y-12476000D01*
G37*
G36*
X10426000Y-12476000D02*
X10024000Y-12476000D01*
X10024000Y-12074000D01*
X10426000Y-12074000D01*
X10426000Y-12476000D01*
X10426000Y-12476000D01*
G37*
G36*
X7976825Y-11277081D02*
X8004546Y-11285490D01*
X8030089Y-11299143D01*
X8052481Y-11317519D01*
X8070857Y-11339911D01*
X8084510Y-11365454D01*
X8092919Y-11393175D01*
X8096000Y-11424454D01*
X8096000Y-11815546D01*
X8092919Y-11846825D01*
X8084510Y-11874546D01*
X8070857Y-11900089D01*
X8052481Y-11922481D01*
X8030089Y-11940857D01*
X8004546Y-11954510D01*
X7976825Y-11962919D01*
X7945546Y-11966000D01*
X7504454Y-11966000D01*
X7473175Y-11962919D01*
X7445454Y-11954510D01*
X7419911Y-11940857D01*
X7397519Y-11922481D01*
X7379143Y-11900089D01*
X7365490Y-11874546D01*
X7357081Y-11846825D01*
X7354000Y-11815546D01*
X7354000Y-11424454D01*
X7357081Y-11393175D01*
X7365490Y-11365454D01*
X7379143Y-11339911D01*
X7397519Y-11317519D01*
X7419911Y-11299143D01*
X7445454Y-11285490D01*
X7473175Y-11277081D01*
X7504454Y-11274000D01*
X7945546Y-11274000D01*
X7976825Y-11277081D01*
X7976825Y-11277081D01*
G37*
G36*
X15626000Y-11826000D02*
X15224000Y-11826000D01*
X15224000Y-11424000D01*
X15626000Y-11424000D01*
X15626000Y-11826000D01*
X15626000Y-11826000D01*
G37*
G36*
X14976000Y-11826000D02*
X14574000Y-11826000D01*
X14574000Y-11424000D01*
X14976000Y-11424000D01*
X14976000Y-11826000D01*
X14976000Y-11826000D01*
G37*
G36*
X9776000Y-11826000D02*
X9374000Y-11826000D01*
X9374000Y-11424000D01*
X9776000Y-11424000D01*
X9776000Y-11826000D01*
X9776000Y-11826000D01*
G37*
G36*
X10426000Y-11826000D02*
X10024000Y-11826000D01*
X10024000Y-11424000D01*
X10426000Y-11424000D01*
X10426000Y-11826000D01*
X10426000Y-11826000D01*
G37*
G36*
X22461825Y-10882081D02*
X22489546Y-10890490D01*
X22515089Y-10904143D01*
X22537481Y-10922519D01*
X22555857Y-10944911D01*
X22569510Y-10970454D01*
X22577919Y-10998175D01*
X22581000Y-11029454D01*
X22581000Y-11470546D01*
X22577919Y-11501825D01*
X22569510Y-11529546D01*
X22555857Y-11555089D01*
X22537481Y-11577481D01*
X22515089Y-11595857D01*
X22489546Y-11609510D01*
X22461825Y-11617919D01*
X22430546Y-11621000D01*
X22039454Y-11621000D01*
X22008175Y-11617919D01*
X21980454Y-11609510D01*
X21954911Y-11595857D01*
X21932519Y-11577481D01*
X21914143Y-11555089D01*
X21900490Y-11529546D01*
X21892081Y-11501825D01*
X21889000Y-11470546D01*
X21889000Y-11029454D01*
X21892081Y-10998175D01*
X21900490Y-10970454D01*
X21914143Y-10944911D01*
X21932519Y-10922519D01*
X21954911Y-10904143D01*
X21980454Y-10890490D01*
X22008175Y-10882081D01*
X22039454Y-10879000D01*
X22430546Y-10879000D01*
X22461825Y-10882081D01*
X22461825Y-10882081D01*
G37*
G36*
X21491825Y-10882081D02*
X21519546Y-10890490D01*
X21545089Y-10904143D01*
X21567481Y-10922519D01*
X21585857Y-10944911D01*
X21599510Y-10970454D01*
X21607919Y-10998175D01*
X21611000Y-11029454D01*
X21611000Y-11470546D01*
X21607919Y-11501825D01*
X21599510Y-11529546D01*
X21585857Y-11555089D01*
X21567481Y-11577481D01*
X21545089Y-11595857D01*
X21519546Y-11609510D01*
X21491825Y-11617919D01*
X21460546Y-11621000D01*
X21069454Y-11621000D01*
X21038175Y-11617919D01*
X21010454Y-11609510D01*
X20984911Y-11595857D01*
X20962519Y-11577481D01*
X20944143Y-11555089D01*
X20930490Y-11529546D01*
X20922081Y-11501825D01*
X20919000Y-11470546D01*
X20919000Y-11029454D01*
X20922081Y-10998175D01*
X20930490Y-10970454D01*
X20944143Y-10944911D01*
X20962519Y-10922519D01*
X20984911Y-10904143D01*
X21010454Y-10890490D01*
X21038175Y-10882081D01*
X21069454Y-10879000D01*
X21460546Y-10879000D01*
X21491825Y-10882081D01*
X21491825Y-10882081D01*
G37*
G36*
X18461825Y-10842081D02*
X18489546Y-10850490D01*
X18515089Y-10864143D01*
X18537481Y-10882519D01*
X18555857Y-10904911D01*
X18569510Y-10930454D01*
X18577919Y-10958175D01*
X18581000Y-10989454D01*
X18581000Y-11380546D01*
X18577919Y-11411825D01*
X18569510Y-11439546D01*
X18555857Y-11465089D01*
X18537481Y-11487481D01*
X18515089Y-11505857D01*
X18489546Y-11519510D01*
X18461825Y-11527919D01*
X18430546Y-11531000D01*
X17989454Y-11531000D01*
X17958175Y-11527919D01*
X17930454Y-11519510D01*
X17904911Y-11505857D01*
X17882519Y-11487481D01*
X17864143Y-11465089D01*
X17850490Y-11439546D01*
X17842081Y-11411825D01*
X17839000Y-11380546D01*
X17839000Y-10989454D01*
X17842081Y-10958175D01*
X17850490Y-10930454D01*
X17864143Y-10904911D01*
X17882519Y-10882519D01*
X17904911Y-10864143D01*
X17930454Y-10850490D01*
X17958175Y-10842081D01*
X17989454Y-10839000D01*
X18430546Y-10839000D01*
X18461825Y-10842081D01*
X18461825Y-10842081D01*
G37*
G36*
X17411825Y-10842081D02*
X17439546Y-10850490D01*
X17465089Y-10864143D01*
X17487481Y-10882519D01*
X17505857Y-10904911D01*
X17519510Y-10930454D01*
X17527919Y-10958175D01*
X17531000Y-10989454D01*
X17531000Y-11380546D01*
X17527919Y-11411825D01*
X17519510Y-11439546D01*
X17505857Y-11465089D01*
X17487481Y-11487481D01*
X17465089Y-11505857D01*
X17439546Y-11519510D01*
X17411825Y-11527919D01*
X17380546Y-11531000D01*
X16939454Y-11531000D01*
X16908175Y-11527919D01*
X16880454Y-11519510D01*
X16854911Y-11505857D01*
X16832519Y-11487481D01*
X16814143Y-11465089D01*
X16800490Y-11439546D01*
X16792081Y-11411825D01*
X16789000Y-11380546D01*
X16789000Y-10989454D01*
X16792081Y-10958175D01*
X16800490Y-10930454D01*
X16814143Y-10904911D01*
X16832519Y-10882519D01*
X16854911Y-10864143D01*
X16880454Y-10850490D01*
X16908175Y-10842081D01*
X16939454Y-10839000D01*
X17380546Y-10839000D01*
X17411825Y-10842081D01*
X17411825Y-10842081D01*
G37*
G36*
X19501825Y-10842081D02*
X19529546Y-10850490D01*
X19555089Y-10864143D01*
X19577481Y-10882519D01*
X19595857Y-10904911D01*
X19609510Y-10930454D01*
X19617919Y-10958175D01*
X19621000Y-10989454D01*
X19621000Y-11380546D01*
X19617919Y-11411825D01*
X19609510Y-11439546D01*
X19595857Y-11465089D01*
X19577481Y-11487481D01*
X19555089Y-11505857D01*
X19529546Y-11519510D01*
X19501825Y-11527919D01*
X19470546Y-11531000D01*
X19029454Y-11531000D01*
X18998175Y-11527919D01*
X18970454Y-11519510D01*
X18944911Y-11505857D01*
X18922519Y-11487481D01*
X18904143Y-11465089D01*
X18890490Y-11439546D01*
X18882081Y-11411825D01*
X18879000Y-11380546D01*
X18879000Y-10989454D01*
X18882081Y-10958175D01*
X18890490Y-10930454D01*
X18904143Y-10904911D01*
X18922519Y-10882519D01*
X18944911Y-10864143D01*
X18970454Y-10850490D01*
X18998175Y-10842081D01*
X19029454Y-10839000D01*
X19470546Y-10839000D01*
X19501825Y-10842081D01*
X19501825Y-10842081D01*
G37*
G36*
X14351000Y-11451000D02*
X10649000Y-11451000D01*
X10649000Y-8549000D01*
X14351000Y-8549000D01*
X14351000Y-11451000D01*
X14351000Y-11451000D01*
G37*
G36*
X10426000Y-11176000D02*
X10024000Y-11176000D01*
X10024000Y-10774000D01*
X10426000Y-10774000D01*
X10426000Y-11176000D01*
X10426000Y-11176000D01*
G37*
G36*
X14976000Y-11176000D02*
X14574000Y-11176000D01*
X14574000Y-10774000D01*
X14976000Y-10774000D01*
X14976000Y-11176000D01*
X14976000Y-11176000D01*
G37*
G36*
X15626000Y-11176000D02*
X15224000Y-11176000D01*
X15224000Y-10774000D01*
X15626000Y-10774000D01*
X15626000Y-11176000D01*
X15626000Y-11176000D01*
G37*
G36*
X9776000Y-11176000D02*
X9374000Y-11176000D01*
X9374000Y-10774000D01*
X9776000Y-10774000D01*
X9776000Y-11176000D01*
X9776000Y-11176000D01*
G37*
G36*
X22461825Y-9882081D02*
X22489546Y-9890490D01*
X22515089Y-9904143D01*
X22537481Y-9922519D01*
X22555857Y-9944911D01*
X22569510Y-9970454D01*
X22577919Y-9998175D01*
X22581000Y-10029454D01*
X22581000Y-10470546D01*
X22577919Y-10501825D01*
X22569510Y-10529546D01*
X22555857Y-10555089D01*
X22537481Y-10577481D01*
X22515089Y-10595857D01*
X22489546Y-10609510D01*
X22461825Y-10617919D01*
X22430546Y-10621000D01*
X22039454Y-10621000D01*
X22008175Y-10617919D01*
X21980454Y-10609510D01*
X21954911Y-10595857D01*
X21932519Y-10577481D01*
X21914143Y-10555089D01*
X21900490Y-10529546D01*
X21892081Y-10501825D01*
X21889000Y-10470546D01*
X21889000Y-10029454D01*
X21892081Y-9998175D01*
X21900490Y-9970454D01*
X21914143Y-9944911D01*
X21932519Y-9922519D01*
X21954911Y-9904143D01*
X21980454Y-9890490D01*
X22008175Y-9882081D01*
X22039454Y-9879000D01*
X22430546Y-9879000D01*
X22461825Y-9882081D01*
X22461825Y-9882081D01*
G37*
G36*
X21491825Y-9882081D02*
X21519546Y-9890490D01*
X21545089Y-9904143D01*
X21567481Y-9922519D01*
X21585857Y-9944911D01*
X21599510Y-9970454D01*
X21607919Y-9998175D01*
X21611000Y-10029454D01*
X21611000Y-10470546D01*
X21607919Y-10501825D01*
X21599510Y-10529546D01*
X21585857Y-10555089D01*
X21567481Y-10577481D01*
X21545089Y-10595857D01*
X21519546Y-10609510D01*
X21491825Y-10617919D01*
X21460546Y-10621000D01*
X21069454Y-10621000D01*
X21038175Y-10617919D01*
X21010454Y-10609510D01*
X20984911Y-10595857D01*
X20962519Y-10577481D01*
X20944143Y-10555089D01*
X20930490Y-10529546D01*
X20922081Y-10501825D01*
X20919000Y-10470546D01*
X20919000Y-10029454D01*
X20922081Y-9998175D01*
X20930490Y-9970454D01*
X20944143Y-9944911D01*
X20962519Y-9922519D01*
X20984911Y-9904143D01*
X21010454Y-9890490D01*
X21038175Y-9882081D01*
X21069454Y-9879000D01*
X21460546Y-9879000D01*
X21491825Y-9882081D01*
X21491825Y-9882081D01*
G37*
G36*
X15626000Y-10526000D02*
X15224000Y-10526000D01*
X15224000Y-10124000D01*
X15626000Y-10124000D01*
X15626000Y-10526000D01*
X15626000Y-10526000D01*
G37*
G36*
X10426000Y-10526000D02*
X10024000Y-10526000D01*
X10024000Y-10124000D01*
X10426000Y-10124000D01*
X10426000Y-10526000D01*
X10426000Y-10526000D01*
G37*
G36*
X14976000Y-10526000D02*
X14574000Y-10526000D01*
X14574000Y-10124000D01*
X14976000Y-10124000D01*
X14976000Y-10526000D01*
X14976000Y-10526000D01*
G37*
G36*
X9776000Y-10526000D02*
X9374000Y-10526000D01*
X9374000Y-10124000D01*
X9776000Y-10124000D01*
X9776000Y-10526000D01*
X9776000Y-10526000D01*
G37*
G36*
X17476825Y-9392081D02*
X17504546Y-9400490D01*
X17530089Y-9414143D01*
X17552481Y-9432519D01*
X17570857Y-9454911D01*
X17584510Y-9480454D01*
X17592919Y-9508175D01*
X17596000Y-9539454D01*
X17596000Y-9930546D01*
X17592919Y-9961825D01*
X17584510Y-9989546D01*
X17570857Y-10015089D01*
X17552481Y-10037481D01*
X17530089Y-10055857D01*
X17504546Y-10069510D01*
X17476825Y-10077919D01*
X17445546Y-10081000D01*
X17004454Y-10081000D01*
X16973175Y-10077919D01*
X16945454Y-10069510D01*
X16919911Y-10055857D01*
X16897519Y-10037481D01*
X16879143Y-10015089D01*
X16865490Y-9989546D01*
X16857081Y-9961825D01*
X16854000Y-9930546D01*
X16854000Y-9539454D01*
X16857081Y-9508175D01*
X16865490Y-9480454D01*
X16879143Y-9454911D01*
X16897519Y-9432519D01*
X16919911Y-9414143D01*
X16945454Y-9400490D01*
X16973175Y-9392081D01*
X17004454Y-9389000D01*
X17445546Y-9389000D01*
X17476825Y-9392081D01*
X17476825Y-9392081D01*
G37*
G36*
X15626000Y-9876000D02*
X15224000Y-9876000D01*
X15224000Y-9474000D01*
X15626000Y-9474000D01*
X15626000Y-9876000D01*
X15626000Y-9876000D01*
G37*
G36*
X14976000Y-9876000D02*
X14574000Y-9876000D01*
X14574000Y-9474000D01*
X14976000Y-9474000D01*
X14976000Y-9876000D01*
X14976000Y-9876000D01*
G37*
G36*
X9776000Y-9876000D02*
X9374000Y-9876000D01*
X9374000Y-9474000D01*
X9776000Y-9474000D01*
X9776000Y-9876000D01*
X9776000Y-9876000D01*
G37*
G36*
X10426000Y-9876000D02*
X10024000Y-9876000D01*
X10024000Y-9474000D01*
X10426000Y-9474000D01*
X10426000Y-9876000D01*
X10426000Y-9876000D01*
G37*
G36*
X21491825Y-8882081D02*
X21519546Y-8890490D01*
X21545089Y-8904143D01*
X21567481Y-8922519D01*
X21585857Y-8944911D01*
X21599510Y-8970454D01*
X21607919Y-8998175D01*
X21611000Y-9029454D01*
X21611000Y-9470546D01*
X21607919Y-9501825D01*
X21599510Y-9529546D01*
X21585857Y-9555089D01*
X21567481Y-9577481D01*
X21545089Y-9595857D01*
X21519546Y-9609510D01*
X21491825Y-9617919D01*
X21460546Y-9621000D01*
X21069454Y-9621000D01*
X21038175Y-9617919D01*
X21010454Y-9609510D01*
X20984911Y-9595857D01*
X20962519Y-9577481D01*
X20944143Y-9555089D01*
X20930490Y-9529546D01*
X20922081Y-9501825D01*
X20919000Y-9470546D01*
X20919000Y-9029454D01*
X20922081Y-8998175D01*
X20930490Y-8970454D01*
X20944143Y-8944911D01*
X20962519Y-8922519D01*
X20984911Y-8904143D01*
X21010454Y-8890490D01*
X21038175Y-8882081D01*
X21069454Y-8879000D01*
X21460546Y-8879000D01*
X21491825Y-8882081D01*
X21491825Y-8882081D01*
G37*
G36*
X22461825Y-8882081D02*
X22489546Y-8890490D01*
X22515089Y-8904143D01*
X22537481Y-8922519D01*
X22555857Y-8944911D01*
X22569510Y-8970454D01*
X22577919Y-8998175D01*
X22581000Y-9029454D01*
X22581000Y-9470546D01*
X22577919Y-9501825D01*
X22569510Y-9529546D01*
X22555857Y-9555089D01*
X22537481Y-9577481D01*
X22515089Y-9595857D01*
X22489546Y-9609510D01*
X22461825Y-9617919D01*
X22430546Y-9621000D01*
X22039454Y-9621000D01*
X22008175Y-9617919D01*
X21980454Y-9609510D01*
X21954911Y-9595857D01*
X21932519Y-9577481D01*
X21914143Y-9555089D01*
X21900490Y-9529546D01*
X21892081Y-9501825D01*
X21889000Y-9470546D01*
X21889000Y-9029454D01*
X21892081Y-8998175D01*
X21900490Y-8970454D01*
X21914143Y-8944911D01*
X21932519Y-8922519D01*
X21954911Y-8904143D01*
X21980454Y-8890490D01*
X22008175Y-8882081D01*
X22039454Y-8879000D01*
X22430546Y-8879000D01*
X22461825Y-8882081D01*
X22461825Y-8882081D01*
G37*
G36*
X9776000Y-9226000D02*
X9374000Y-9226000D01*
X9374000Y-8824000D01*
X9776000Y-8824000D01*
X9776000Y-9226000D01*
X9776000Y-9226000D01*
G37*
G36*
X10426000Y-9226000D02*
X10024000Y-9226000D01*
X10024000Y-8824000D01*
X10426000Y-8824000D01*
X10426000Y-9226000D01*
X10426000Y-9226000D01*
G37*
G36*
X15626000Y-9226000D02*
X15224000Y-9226000D01*
X15224000Y-8824000D01*
X15626000Y-8824000D01*
X15626000Y-9226000D01*
X15626000Y-9226000D01*
G37*
G36*
X14976000Y-9226000D02*
X14574000Y-9226000D01*
X14574000Y-8824000D01*
X14976000Y-8824000D01*
X14976000Y-9226000D01*
X14976000Y-9226000D01*
G37*
G36*
X17476825Y-8422081D02*
X17504546Y-8430490D01*
X17530089Y-8444143D01*
X17552481Y-8462519D01*
X17570857Y-8484911D01*
X17584510Y-8510454D01*
X17592919Y-8538175D01*
X17596000Y-8569454D01*
X17596000Y-8960546D01*
X17592919Y-8991825D01*
X17584510Y-9019546D01*
X17570857Y-9045089D01*
X17552481Y-9067481D01*
X17530089Y-9085857D01*
X17504546Y-9099510D01*
X17476825Y-9107919D01*
X17445546Y-9111000D01*
X17004454Y-9111000D01*
X16973175Y-9107919D01*
X16945454Y-9099510D01*
X16919911Y-9085857D01*
X16897519Y-9067481D01*
X16879143Y-9045089D01*
X16865490Y-9019546D01*
X16857081Y-8991825D01*
X16854000Y-8960546D01*
X16854000Y-8569454D01*
X16857081Y-8538175D01*
X16865490Y-8510454D01*
X16879143Y-8484911D01*
X16897519Y-8462519D01*
X16919911Y-8444143D01*
X16945454Y-8430490D01*
X16973175Y-8422081D01*
X17004454Y-8419000D01*
X17445546Y-8419000D01*
X17476825Y-8422081D01*
X17476825Y-8422081D01*
G37*
G36*
X6866825Y-8287081D02*
X6894546Y-8295490D01*
X6920089Y-8309143D01*
X6942481Y-8327519D01*
X6960857Y-8349911D01*
X6974510Y-8375454D01*
X6982919Y-8403175D01*
X6986000Y-8434454D01*
X6986000Y-8875546D01*
X6982919Y-8906825D01*
X6974510Y-8934546D01*
X6960857Y-8960089D01*
X6942481Y-8982481D01*
X6920089Y-9000857D01*
X6894546Y-9014510D01*
X6866825Y-9022919D01*
X6835546Y-9026000D01*
X6444454Y-9026000D01*
X6413175Y-9022919D01*
X6385454Y-9014510D01*
X6359911Y-9000857D01*
X6337519Y-8982481D01*
X6319143Y-8960089D01*
X6305490Y-8934546D01*
X6297081Y-8906825D01*
X6294000Y-8875546D01*
X6294000Y-8434454D01*
X6297081Y-8403175D01*
X6305490Y-8375454D01*
X6319143Y-8349911D01*
X6337519Y-8327519D01*
X6359911Y-8309143D01*
X6385454Y-8295490D01*
X6413175Y-8287081D01*
X6444454Y-8284000D01*
X6835546Y-8284000D01*
X6866825Y-8287081D01*
X6866825Y-8287081D01*
G37*
G36*
X7836825Y-8287081D02*
X7864546Y-8295490D01*
X7890089Y-8309143D01*
X7912481Y-8327519D01*
X7930857Y-8349911D01*
X7944510Y-8375454D01*
X7952919Y-8403175D01*
X7956000Y-8434454D01*
X7956000Y-8875546D01*
X7952919Y-8906825D01*
X7944510Y-8934546D01*
X7930857Y-8960089D01*
X7912481Y-8982481D01*
X7890089Y-9000857D01*
X7864546Y-9014510D01*
X7836825Y-9022919D01*
X7805546Y-9026000D01*
X7414454Y-9026000D01*
X7383175Y-9022919D01*
X7355454Y-9014510D01*
X7329911Y-9000857D01*
X7307519Y-8982481D01*
X7289143Y-8960089D01*
X7275490Y-8934546D01*
X7267081Y-8906825D01*
X7264000Y-8875546D01*
X7264000Y-8434454D01*
X7267081Y-8403175D01*
X7275490Y-8375454D01*
X7289143Y-8349911D01*
X7307519Y-8327519D01*
X7329911Y-8309143D01*
X7355454Y-8295490D01*
X7383175Y-8287081D01*
X7414454Y-8284000D01*
X7805546Y-8284000D01*
X7836825Y-8287081D01*
X7836825Y-8287081D01*
G37*
G36*
X4286825Y-7967081D02*
X4314546Y-7975490D01*
X4340089Y-7989143D01*
X4362481Y-8007519D01*
X4380857Y-8029911D01*
X4394510Y-8055454D01*
X4402919Y-8083175D01*
X4406000Y-8114454D01*
X4406000Y-8505546D01*
X4402919Y-8536825D01*
X4394510Y-8564546D01*
X4380857Y-8590089D01*
X4362481Y-8612481D01*
X4340089Y-8630857D01*
X4314546Y-8644510D01*
X4286825Y-8652919D01*
X4255546Y-8656000D01*
X3814454Y-8656000D01*
X3783175Y-8652919D01*
X3755454Y-8644510D01*
X3729911Y-8630857D01*
X3707519Y-8612481D01*
X3689143Y-8590089D01*
X3675490Y-8564546D01*
X3667081Y-8536825D01*
X3664000Y-8505546D01*
X3664000Y-8114454D01*
X3667081Y-8083175D01*
X3675490Y-8055454D01*
X3689143Y-8029911D01*
X3707519Y-8007519D01*
X3729911Y-7989143D01*
X3755454Y-7975490D01*
X3783175Y-7967081D01*
X3814454Y-7964000D01*
X4255546Y-7964000D01*
X4286825Y-7967081D01*
X4286825Y-7967081D01*
G37*
G36*
X22461825Y-7882081D02*
X22489546Y-7890490D01*
X22515089Y-7904143D01*
X22537481Y-7922519D01*
X22555857Y-7944911D01*
X22569510Y-7970454D01*
X22577919Y-7998175D01*
X22581000Y-8029454D01*
X22581000Y-8470546D01*
X22577919Y-8501825D01*
X22569510Y-8529546D01*
X22555857Y-8555089D01*
X22537481Y-8577481D01*
X22515089Y-8595857D01*
X22489546Y-8609510D01*
X22461825Y-8617919D01*
X22430546Y-8621000D01*
X22039454Y-8621000D01*
X22008175Y-8617919D01*
X21980454Y-8609510D01*
X21954911Y-8595857D01*
X21932519Y-8577481D01*
X21914143Y-8555089D01*
X21900490Y-8529546D01*
X21892081Y-8501825D01*
X21889000Y-8470546D01*
X21889000Y-8029454D01*
X21892081Y-7998175D01*
X21900490Y-7970454D01*
X21914143Y-7944911D01*
X21932519Y-7922519D01*
X21954911Y-7904143D01*
X21980454Y-7890490D01*
X22008175Y-7882081D01*
X22039454Y-7879000D01*
X22430546Y-7879000D01*
X22461825Y-7882081D01*
X22461825Y-7882081D01*
G37*
G36*
X21491825Y-7882081D02*
X21519546Y-7890490D01*
X21545089Y-7904143D01*
X21567481Y-7922519D01*
X21585857Y-7944911D01*
X21599510Y-7970454D01*
X21607919Y-7998175D01*
X21611000Y-8029454D01*
X21611000Y-8470546D01*
X21607919Y-8501825D01*
X21599510Y-8529546D01*
X21585857Y-8555089D01*
X21567481Y-8577481D01*
X21545089Y-8595857D01*
X21519546Y-8609510D01*
X21491825Y-8617919D01*
X21460546Y-8621000D01*
X21069454Y-8621000D01*
X21038175Y-8617919D01*
X21010454Y-8609510D01*
X20984911Y-8595857D01*
X20962519Y-8577481D01*
X20944143Y-8555089D01*
X20930490Y-8529546D01*
X20922081Y-8501825D01*
X20919000Y-8470546D01*
X20919000Y-8029454D01*
X20922081Y-7998175D01*
X20930490Y-7970454D01*
X20944143Y-7944911D01*
X20962519Y-7922519D01*
X20984911Y-7904143D01*
X21010454Y-7890490D01*
X21038175Y-7882081D01*
X21069454Y-7879000D01*
X21460546Y-7879000D01*
X21491825Y-7882081D01*
X21491825Y-7882081D01*
G37*
G36*
X10426000Y-8576000D02*
X10024000Y-8576000D01*
X10024000Y-8174000D01*
X10426000Y-8174000D01*
X10426000Y-8576000D01*
X10426000Y-8576000D01*
G37*
G36*
X9776000Y-8576000D02*
X9374000Y-8576000D01*
X9374000Y-8174000D01*
X9776000Y-8174000D01*
X9776000Y-8576000D01*
X9776000Y-8576000D01*
G37*
G36*
X15626000Y-8576000D02*
X15224000Y-8576000D01*
X15224000Y-8174000D01*
X15626000Y-8174000D01*
X15626000Y-8576000D01*
X15626000Y-8576000D01*
G37*
G36*
X14976000Y-8576000D02*
X14574000Y-8576000D01*
X14574000Y-8174000D01*
X14976000Y-8174000D01*
X14976000Y-8576000D01*
X14976000Y-8576000D01*
G37*
G36*
X6826825Y-7347081D02*
X6854546Y-7355490D01*
X6880089Y-7369143D01*
X6902481Y-7387519D01*
X6920857Y-7409911D01*
X6934510Y-7435454D01*
X6942919Y-7463175D01*
X6946000Y-7494454D01*
X6946000Y-7885546D01*
X6942919Y-7916825D01*
X6934510Y-7944546D01*
X6920857Y-7970089D01*
X6902481Y-7992481D01*
X6880089Y-8010857D01*
X6854546Y-8024510D01*
X6826825Y-8032919D01*
X6795546Y-8036000D01*
X6354454Y-8036000D01*
X6323175Y-8032919D01*
X6295454Y-8024510D01*
X6269911Y-8010857D01*
X6247519Y-7992481D01*
X6229143Y-7970089D01*
X6215490Y-7944546D01*
X6207081Y-7916825D01*
X6204000Y-7885546D01*
X6204000Y-7494454D01*
X6207081Y-7463175D01*
X6215490Y-7435454D01*
X6229143Y-7409911D01*
X6247519Y-7387519D01*
X6269911Y-7369143D01*
X6295454Y-7355490D01*
X6323175Y-7347081D01*
X6354454Y-7344000D01*
X6795546Y-7344000D01*
X6826825Y-7347081D01*
X6826825Y-7347081D01*
G37*
G36*
X7876825Y-7347081D02*
X7904546Y-7355490D01*
X7930089Y-7369143D01*
X7952481Y-7387519D01*
X7970857Y-7409911D01*
X7984510Y-7435454D01*
X7992919Y-7463175D01*
X7996000Y-7494454D01*
X7996000Y-7885546D01*
X7992919Y-7916825D01*
X7984510Y-7944546D01*
X7970857Y-7970089D01*
X7952481Y-7992481D01*
X7930089Y-8010857D01*
X7904546Y-8024510D01*
X7876825Y-8032919D01*
X7845546Y-8036000D01*
X7404454Y-8036000D01*
X7373175Y-8032919D01*
X7345454Y-8024510D01*
X7319911Y-8010857D01*
X7297519Y-7992481D01*
X7279143Y-7970089D01*
X7265490Y-7944546D01*
X7257081Y-7916825D01*
X7254000Y-7885546D01*
X7254000Y-7494454D01*
X7257081Y-7463175D01*
X7265490Y-7435454D01*
X7279143Y-7409911D01*
X7297519Y-7387519D01*
X7319911Y-7369143D01*
X7345454Y-7355490D01*
X7373175Y-7347081D01*
X7404454Y-7344000D01*
X7845546Y-7344000D01*
X7876825Y-7347081D01*
X7876825Y-7347081D01*
G37*
G36*
X5826825Y-7347081D02*
X5854546Y-7355490D01*
X5880089Y-7369143D01*
X5902481Y-7387519D01*
X5920857Y-7409911D01*
X5934510Y-7435454D01*
X5942919Y-7463175D01*
X5946000Y-7494454D01*
X5946000Y-7885546D01*
X5942919Y-7916825D01*
X5934510Y-7944546D01*
X5920857Y-7970089D01*
X5902481Y-7992481D01*
X5880089Y-8010857D01*
X5854546Y-8024510D01*
X5826825Y-8032919D01*
X5795546Y-8036000D01*
X5354454Y-8036000D01*
X5323175Y-8032919D01*
X5295454Y-8024510D01*
X5269911Y-8010857D01*
X5247519Y-7992481D01*
X5229143Y-7970089D01*
X5215490Y-7944546D01*
X5207081Y-7916825D01*
X5204000Y-7885546D01*
X5204000Y-7494454D01*
X5207081Y-7463175D01*
X5215490Y-7435454D01*
X5229143Y-7409911D01*
X5247519Y-7387519D01*
X5269911Y-7369143D01*
X5295454Y-7355490D01*
X5323175Y-7347081D01*
X5354454Y-7344000D01*
X5795546Y-7344000D01*
X5826825Y-7347081D01*
X5826825Y-7347081D01*
G37*
G36*
X10426000Y-7926000D02*
X10024000Y-7926000D01*
X10024000Y-7524000D01*
X10426000Y-7524000D01*
X10426000Y-7926000D01*
X10426000Y-7926000D01*
G37*
G36*
X9776000Y-7926000D02*
X9374000Y-7926000D01*
X9374000Y-7524000D01*
X9776000Y-7524000D01*
X9776000Y-7926000D01*
X9776000Y-7926000D01*
G37*
G36*
X11076000Y-7926000D02*
X10674000Y-7926000D01*
X10674000Y-7524000D01*
X11076000Y-7524000D01*
X11076000Y-7926000D01*
X11076000Y-7926000D01*
G37*
G36*
X15626000Y-7926000D02*
X15224000Y-7926000D01*
X15224000Y-7524000D01*
X15626000Y-7524000D01*
X15626000Y-7926000D01*
X15626000Y-7926000D01*
G37*
G36*
X14976000Y-7926000D02*
X14574000Y-7926000D01*
X14574000Y-7524000D01*
X14976000Y-7524000D01*
X14976000Y-7926000D01*
X14976000Y-7926000D01*
G37*
G36*
X14326000Y-7926000D02*
X13924000Y-7926000D01*
X13924000Y-7524000D01*
X14326000Y-7524000D01*
X14326000Y-7926000D01*
X14326000Y-7926000D01*
G37*
G36*
X4286825Y-6997081D02*
X4314546Y-7005490D01*
X4340089Y-7019143D01*
X4362481Y-7037519D01*
X4380857Y-7059911D01*
X4394510Y-7085454D01*
X4402919Y-7113175D01*
X4406000Y-7144454D01*
X4406000Y-7535546D01*
X4402919Y-7566825D01*
X4394510Y-7594546D01*
X4380857Y-7620089D01*
X4362481Y-7642481D01*
X4340089Y-7660857D01*
X4314546Y-7674510D01*
X4286825Y-7682919D01*
X4255546Y-7686000D01*
X3814454Y-7686000D01*
X3783175Y-7682919D01*
X3755454Y-7674510D01*
X3729911Y-7660857D01*
X3707519Y-7642481D01*
X3689143Y-7620089D01*
X3675490Y-7594546D01*
X3667081Y-7566825D01*
X3664000Y-7535546D01*
X3664000Y-7144454D01*
X3667081Y-7113175D01*
X3675490Y-7085454D01*
X3689143Y-7059911D01*
X3707519Y-7037519D01*
X3729911Y-7019143D01*
X3755454Y-7005490D01*
X3783175Y-6997081D01*
X3814454Y-6994000D01*
X4255546Y-6994000D01*
X4286825Y-6997081D01*
X4286825Y-6997081D01*
G37*
G36*
X22461825Y-6882081D02*
X22489546Y-6890490D01*
X22515089Y-6904143D01*
X22537481Y-6922519D01*
X22555857Y-6944911D01*
X22569510Y-6970454D01*
X22577919Y-6998175D01*
X22581000Y-7029454D01*
X22581000Y-7470546D01*
X22577919Y-7501825D01*
X22569510Y-7529546D01*
X22555857Y-7555089D01*
X22537481Y-7577481D01*
X22515089Y-7595857D01*
X22489546Y-7609510D01*
X22461825Y-7617919D01*
X22430546Y-7621000D01*
X22039454Y-7621000D01*
X22008175Y-7617919D01*
X21980454Y-7609510D01*
X21954911Y-7595857D01*
X21932519Y-7577481D01*
X21914143Y-7555089D01*
X21900490Y-7529546D01*
X21892081Y-7501825D01*
X21889000Y-7470546D01*
X21889000Y-7029454D01*
X21892081Y-6998175D01*
X21900490Y-6970454D01*
X21914143Y-6944911D01*
X21932519Y-6922519D01*
X21954911Y-6904143D01*
X21980454Y-6890490D01*
X22008175Y-6882081D01*
X22039454Y-6879000D01*
X22430546Y-6879000D01*
X22461825Y-6882081D01*
X22461825Y-6882081D01*
G37*
G36*
X21491825Y-6882081D02*
X21519546Y-6890490D01*
X21545089Y-6904143D01*
X21567481Y-6922519D01*
X21585857Y-6944911D01*
X21599510Y-6970454D01*
X21607919Y-6998175D01*
X21611000Y-7029454D01*
X21611000Y-7470546D01*
X21607919Y-7501825D01*
X21599510Y-7529546D01*
X21585857Y-7555089D01*
X21567481Y-7577481D01*
X21545089Y-7595857D01*
X21519546Y-7609510D01*
X21491825Y-7617919D01*
X21460546Y-7621000D01*
X21069454Y-7621000D01*
X21038175Y-7617919D01*
X21010454Y-7609510D01*
X20984911Y-7595857D01*
X20962519Y-7577481D01*
X20944143Y-7555089D01*
X20930490Y-7529546D01*
X20922081Y-7501825D01*
X20919000Y-7470546D01*
X20919000Y-7029454D01*
X20922081Y-6998175D01*
X20930490Y-6970454D01*
X20944143Y-6944911D01*
X20962519Y-6922519D01*
X20984911Y-6904143D01*
X21010454Y-6890490D01*
X21038175Y-6882081D01*
X21069454Y-6879000D01*
X21460546Y-6879000D01*
X21491825Y-6882081D01*
X21491825Y-6882081D01*
G37*
G36*
X17476825Y-6642081D02*
X17504546Y-6650490D01*
X17530089Y-6664143D01*
X17552481Y-6682519D01*
X17570857Y-6704911D01*
X17584510Y-6730454D01*
X17592919Y-6758175D01*
X17596000Y-6789454D01*
X17596000Y-7180546D01*
X17592919Y-7211825D01*
X17584510Y-7239546D01*
X17570857Y-7265089D01*
X17552481Y-7287481D01*
X17530089Y-7305857D01*
X17504546Y-7319510D01*
X17476825Y-7327919D01*
X17445546Y-7331000D01*
X17004454Y-7331000D01*
X16973175Y-7327919D01*
X16945454Y-7319510D01*
X16919911Y-7305857D01*
X16897519Y-7287481D01*
X16879143Y-7265089D01*
X16865490Y-7239546D01*
X16857081Y-7211825D01*
X16854000Y-7180546D01*
X16854000Y-6789454D01*
X16857081Y-6758175D01*
X16865490Y-6730454D01*
X16879143Y-6704911D01*
X16897519Y-6682519D01*
X16919911Y-6664143D01*
X16945454Y-6650490D01*
X16973175Y-6642081D01*
X17004454Y-6639000D01*
X17445546Y-6639000D01*
X17476825Y-6642081D01*
X17476825Y-6642081D01*
G37*
G36*
X14976000Y-7276000D02*
X14574000Y-7276000D01*
X14574000Y-6874000D01*
X14976000Y-6874000D01*
X14976000Y-7276000D01*
X14976000Y-7276000D01*
G37*
G36*
X10426000Y-7276000D02*
X10024000Y-7276000D01*
X10024000Y-6874000D01*
X10426000Y-6874000D01*
X10426000Y-7276000D01*
X10426000Y-7276000D01*
G37*
G36*
X12376000Y-7276000D02*
X11974000Y-7276000D01*
X11974000Y-6874000D01*
X12376000Y-6874000D01*
X12376000Y-7276000D01*
X12376000Y-7276000D01*
G37*
G36*
X15626000Y-7276000D02*
X15224000Y-7276000D01*
X15224000Y-6874000D01*
X15626000Y-6874000D01*
X15626000Y-7276000D01*
X15626000Y-7276000D01*
G37*
G36*
X14326000Y-7276000D02*
X13924000Y-7276000D01*
X13924000Y-6874000D01*
X14326000Y-6874000D01*
X14326000Y-7276000D01*
X14326000Y-7276000D01*
G37*
G36*
X11726000Y-7276000D02*
X11324000Y-7276000D01*
X11324000Y-6874000D01*
X11726000Y-6874000D01*
X11726000Y-7276000D01*
X11726000Y-7276000D01*
G37*
G36*
X11076000Y-7276000D02*
X10674000Y-7276000D01*
X10674000Y-6874000D01*
X11076000Y-6874000D01*
X11076000Y-7276000D01*
X11076000Y-7276000D01*
G37*
G36*
X9776000Y-7276000D02*
X9374000Y-7276000D01*
X9374000Y-6874000D01*
X9776000Y-6874000D01*
X9776000Y-7276000D01*
X9776000Y-7276000D01*
G37*
G36*
X13676000Y-7276000D02*
X13274000Y-7276000D01*
X13274000Y-6874000D01*
X13676000Y-6874000D01*
X13676000Y-7276000D01*
X13676000Y-7276000D01*
G37*
G36*
X13026000Y-7276000D02*
X12624000Y-7276000D01*
X12624000Y-6874000D01*
X13026000Y-6874000D01*
X13026000Y-7276000D01*
X13026000Y-7276000D01*
G37*
G36*
X5826825Y-6377081D02*
X5854546Y-6385490D01*
X5880089Y-6399143D01*
X5902481Y-6417519D01*
X5920857Y-6439911D01*
X5934510Y-6465454D01*
X5942919Y-6493175D01*
X5946000Y-6524454D01*
X5946000Y-6915546D01*
X5942919Y-6946825D01*
X5934510Y-6974546D01*
X5920857Y-7000089D01*
X5902481Y-7022481D01*
X5880089Y-7040857D01*
X5854546Y-7054510D01*
X5826825Y-7062919D01*
X5795546Y-7066000D01*
X5354454Y-7066000D01*
X5323175Y-7062919D01*
X5295454Y-7054510D01*
X5269911Y-7040857D01*
X5247519Y-7022481D01*
X5229143Y-7000089D01*
X5215490Y-6974546D01*
X5207081Y-6946825D01*
X5204000Y-6915546D01*
X5204000Y-6524454D01*
X5207081Y-6493175D01*
X5215490Y-6465454D01*
X5229143Y-6439911D01*
X5247519Y-6417519D01*
X5269911Y-6399143D01*
X5295454Y-6385490D01*
X5323175Y-6377081D01*
X5354454Y-6374000D01*
X5795546Y-6374000D01*
X5826825Y-6377081D01*
X5826825Y-6377081D01*
G37*
G36*
X6826825Y-6377081D02*
X6854546Y-6385490D01*
X6880089Y-6399143D01*
X6902481Y-6417519D01*
X6920857Y-6439911D01*
X6934510Y-6465454D01*
X6942919Y-6493175D01*
X6946000Y-6524454D01*
X6946000Y-6915546D01*
X6942919Y-6946825D01*
X6934510Y-6974546D01*
X6920857Y-7000089D01*
X6902481Y-7022481D01*
X6880089Y-7040857D01*
X6854546Y-7054510D01*
X6826825Y-7062919D01*
X6795546Y-7066000D01*
X6354454Y-7066000D01*
X6323175Y-7062919D01*
X6295454Y-7054510D01*
X6269911Y-7040857D01*
X6247519Y-7022481D01*
X6229143Y-7000089D01*
X6215490Y-6974546D01*
X6207081Y-6946825D01*
X6204000Y-6915546D01*
X6204000Y-6524454D01*
X6207081Y-6493175D01*
X6215490Y-6465454D01*
X6229143Y-6439911D01*
X6247519Y-6417519D01*
X6269911Y-6399143D01*
X6295454Y-6385490D01*
X6323175Y-6377081D01*
X6354454Y-6374000D01*
X6795546Y-6374000D01*
X6826825Y-6377081D01*
X6826825Y-6377081D01*
G37*
G36*
X7876825Y-6377081D02*
X7904546Y-6385490D01*
X7930089Y-6399143D01*
X7952481Y-6417519D01*
X7970857Y-6439911D01*
X7984510Y-6465454D01*
X7992919Y-6493175D01*
X7996000Y-6524454D01*
X7996000Y-6915546D01*
X7992919Y-6946825D01*
X7984510Y-6974546D01*
X7970857Y-7000089D01*
X7952481Y-7022481D01*
X7930089Y-7040857D01*
X7904546Y-7054510D01*
X7876825Y-7062919D01*
X7845546Y-7066000D01*
X7404454Y-7066000D01*
X7373175Y-7062919D01*
X7345454Y-7054510D01*
X7319911Y-7040857D01*
X7297519Y-7022481D01*
X7279143Y-7000089D01*
X7265490Y-6974546D01*
X7257081Y-6946825D01*
X7254000Y-6915546D01*
X7254000Y-6524454D01*
X7257081Y-6493175D01*
X7265490Y-6465454D01*
X7279143Y-6439911D01*
X7297519Y-6417519D01*
X7319911Y-6399143D01*
X7345454Y-6385490D01*
X7373175Y-6377081D01*
X7404454Y-6374000D01*
X7845546Y-6374000D01*
X7876825Y-6377081D01*
X7876825Y-6377081D01*
G37*
G36*
X13026000Y-6626000D02*
X12624000Y-6626000D01*
X12624000Y-6224000D01*
X13026000Y-6224000D01*
X13026000Y-6626000D01*
X13026000Y-6626000D01*
G37*
G36*
X14326000Y-6626000D02*
X13924000Y-6626000D01*
X13924000Y-6224000D01*
X14326000Y-6224000D01*
X14326000Y-6626000D01*
X14326000Y-6626000D01*
G37*
G36*
X15626000Y-6626000D02*
X15224000Y-6626000D01*
X15224000Y-6224000D01*
X15626000Y-6224000D01*
X15626000Y-6626000D01*
X15626000Y-6626000D01*
G37*
G36*
X13676000Y-6626000D02*
X13274000Y-6626000D01*
X13274000Y-6224000D01*
X13676000Y-6224000D01*
X13676000Y-6626000D01*
X13676000Y-6626000D01*
G37*
G36*
X12376000Y-6626000D02*
X11974000Y-6626000D01*
X11974000Y-6224000D01*
X12376000Y-6224000D01*
X12376000Y-6626000D01*
X12376000Y-6626000D01*
G37*
G36*
X11076000Y-6626000D02*
X10674000Y-6626000D01*
X10674000Y-6224000D01*
X11076000Y-6224000D01*
X11076000Y-6626000D01*
X11076000Y-6626000D01*
G37*
G36*
X14976000Y-6626000D02*
X14574000Y-6626000D01*
X14574000Y-6224000D01*
X14976000Y-6224000D01*
X14976000Y-6626000D01*
X14976000Y-6626000D01*
G37*
G36*
X11726000Y-6626000D02*
X11324000Y-6626000D01*
X11324000Y-6224000D01*
X11726000Y-6224000D01*
X11726000Y-6626000D01*
X11726000Y-6626000D01*
G37*
G36*
X10426000Y-6626000D02*
X10024000Y-6626000D01*
X10024000Y-6224000D01*
X10426000Y-6224000D01*
X10426000Y-6626000D01*
X10426000Y-6626000D01*
G37*
G36*
X9776000Y-6626000D02*
X9374000Y-6626000D01*
X9374000Y-6224000D01*
X9776000Y-6224000D01*
X9776000Y-6626000D01*
X9776000Y-6626000D01*
G37*
G36*
X22461825Y-5882081D02*
X22489546Y-5890490D01*
X22515089Y-5904143D01*
X22537481Y-5922519D01*
X22555857Y-5944911D01*
X22569510Y-5970454D01*
X22577919Y-5998175D01*
X22581000Y-6029454D01*
X22581000Y-6470546D01*
X22577919Y-6501825D01*
X22569510Y-6529546D01*
X22555857Y-6555089D01*
X22537481Y-6577481D01*
X22515089Y-6595857D01*
X22489546Y-6609510D01*
X22461825Y-6617919D01*
X22430546Y-6621000D01*
X22039454Y-6621000D01*
X22008175Y-6617919D01*
X21980454Y-6609510D01*
X21954911Y-6595857D01*
X21932519Y-6577481D01*
X21914143Y-6555089D01*
X21900490Y-6529546D01*
X21892081Y-6501825D01*
X21889000Y-6470546D01*
X21889000Y-6029454D01*
X21892081Y-5998175D01*
X21900490Y-5970454D01*
X21914143Y-5944911D01*
X21932519Y-5922519D01*
X21954911Y-5904143D01*
X21980454Y-5890490D01*
X22008175Y-5882081D01*
X22039454Y-5879000D01*
X22430546Y-5879000D01*
X22461825Y-5882081D01*
X22461825Y-5882081D01*
G37*
G36*
X21491825Y-5882081D02*
X21519546Y-5890490D01*
X21545089Y-5904143D01*
X21567481Y-5922519D01*
X21585857Y-5944911D01*
X21599510Y-5970454D01*
X21607919Y-5998175D01*
X21611000Y-6029454D01*
X21611000Y-6470546D01*
X21607919Y-6501825D01*
X21599510Y-6529546D01*
X21585857Y-6555089D01*
X21567481Y-6577481D01*
X21545089Y-6595857D01*
X21519546Y-6609510D01*
X21491825Y-6617919D01*
X21460546Y-6621000D01*
X21069454Y-6621000D01*
X21038175Y-6617919D01*
X21010454Y-6609510D01*
X20984911Y-6595857D01*
X20962519Y-6577481D01*
X20944143Y-6555089D01*
X20930490Y-6529546D01*
X20922081Y-6501825D01*
X20919000Y-6470546D01*
X20919000Y-6029454D01*
X20922081Y-5998175D01*
X20930490Y-5970454D01*
X20944143Y-5944911D01*
X20962519Y-5922519D01*
X20984911Y-5904143D01*
X21010454Y-5890490D01*
X21038175Y-5882081D01*
X21069454Y-5879000D01*
X21460546Y-5879000D01*
X21491825Y-5882081D01*
X21491825Y-5882081D01*
G37*
G36*
X17476825Y-5672081D02*
X17504546Y-5680490D01*
X17530089Y-5694143D01*
X17552481Y-5712519D01*
X17570857Y-5734911D01*
X17584510Y-5760454D01*
X17592919Y-5788175D01*
X17596000Y-5819454D01*
X17596000Y-6210546D01*
X17592919Y-6241825D01*
X17584510Y-6269546D01*
X17570857Y-6295089D01*
X17552481Y-6317481D01*
X17530089Y-6335857D01*
X17504546Y-6349510D01*
X17476825Y-6357919D01*
X17445546Y-6361000D01*
X17004454Y-6361000D01*
X16973175Y-6357919D01*
X16945454Y-6349510D01*
X16919911Y-6335857D01*
X16897519Y-6317481D01*
X16879143Y-6295089D01*
X16865490Y-6269546D01*
X16857081Y-6241825D01*
X16854000Y-6210546D01*
X16854000Y-5819454D01*
X16857081Y-5788175D01*
X16865490Y-5760454D01*
X16879143Y-5734911D01*
X16897519Y-5712519D01*
X16919911Y-5694143D01*
X16945454Y-5680490D01*
X16973175Y-5672081D01*
X17004454Y-5669000D01*
X17445546Y-5669000D01*
X17476825Y-5672081D01*
X17476825Y-5672081D01*
G37*
G36*
X13026000Y-5976000D02*
X12624000Y-5976000D01*
X12624000Y-5574000D01*
X13026000Y-5574000D01*
X13026000Y-5976000D01*
X13026000Y-5976000D01*
G37*
G36*
X9776000Y-5976000D02*
X9374000Y-5976000D01*
X9374000Y-5574000D01*
X9776000Y-5574000D01*
X9776000Y-5976000D01*
X9776000Y-5976000D01*
G37*
G36*
X10426000Y-5976000D02*
X10024000Y-5976000D01*
X10024000Y-5574000D01*
X10426000Y-5574000D01*
X10426000Y-5976000D01*
X10426000Y-5976000D01*
G37*
G36*
X11726000Y-5976000D02*
X11324000Y-5976000D01*
X11324000Y-5574000D01*
X11726000Y-5574000D01*
X11726000Y-5976000D01*
X11726000Y-5976000D01*
G37*
G36*
X12376000Y-5976000D02*
X11974000Y-5976000D01*
X11974000Y-5574000D01*
X12376000Y-5574000D01*
X12376000Y-5976000D01*
X12376000Y-5976000D01*
G37*
G36*
X13676000Y-5976000D02*
X13274000Y-5976000D01*
X13274000Y-5574000D01*
X13676000Y-5574000D01*
X13676000Y-5976000D01*
X13676000Y-5976000D01*
G37*
G36*
X14976000Y-5976000D02*
X14574000Y-5976000D01*
X14574000Y-5574000D01*
X14976000Y-5574000D01*
X14976000Y-5976000D01*
X14976000Y-5976000D01*
G37*
G36*
X14326000Y-5976000D02*
X13924000Y-5976000D01*
X13924000Y-5574000D01*
X14326000Y-5574000D01*
X14326000Y-5976000D01*
X14326000Y-5976000D01*
G37*
G36*
X11076000Y-5976000D02*
X10674000Y-5976000D01*
X10674000Y-5574000D01*
X11076000Y-5574000D01*
X11076000Y-5976000D01*
X11076000Y-5976000D01*
G37*
G36*
X15626000Y-5976000D02*
X15224000Y-5976000D01*
X15224000Y-5574000D01*
X15626000Y-5574000D01*
X15626000Y-5976000D01*
X15626000Y-5976000D01*
G37*
G36*
X3400719Y-4550974D02*
X3400722Y-4550975D01*
X3400721Y-4550975D01*
X3500996Y-4592510D01*
X3591242Y-4652810D01*
X3667990Y-4729558D01*
X3728290Y-4819804D01*
X3728290Y-4819805D01*
X3769826Y-4920081D01*
X3791000Y-5026530D01*
X3791000Y-5135070D01*
X3769826Y-5241519D01*
X3769825Y-5241521D01*
X3728290Y-5341796D01*
X3667990Y-5432042D01*
X3591242Y-5508790D01*
X3500996Y-5569090D01*
X3436374Y-5595857D01*
X3400719Y-5610626D01*
X3294270Y-5631800D01*
X3185730Y-5631800D01*
X3079281Y-5610626D01*
X3043626Y-5595857D01*
X2979004Y-5569090D01*
X2888758Y-5508790D01*
X2812010Y-5432042D01*
X2751710Y-5341796D01*
X2710175Y-5241521D01*
X2710174Y-5241519D01*
X2689000Y-5135070D01*
X2689000Y-5026530D01*
X2710174Y-4920081D01*
X2751710Y-4819805D01*
X2751710Y-4819804D01*
X2812010Y-4729558D01*
X2888758Y-4652810D01*
X2979004Y-4592510D01*
X3079279Y-4550975D01*
X3079278Y-4550975D01*
X3079281Y-4550974D01*
X3185730Y-4529800D01*
X3294270Y-4529800D01*
X3400719Y-4550974D01*
X3400719Y-4550974D01*
G37*
G36*
X21491825Y-4882081D02*
X21519546Y-4890490D01*
X21545089Y-4904143D01*
X21567481Y-4922519D01*
X21585857Y-4944911D01*
X21599510Y-4970454D01*
X21607919Y-4998175D01*
X21611000Y-5029454D01*
X21611000Y-5470546D01*
X21607919Y-5501825D01*
X21599510Y-5529546D01*
X21585857Y-5555089D01*
X21567481Y-5577481D01*
X21545089Y-5595857D01*
X21519546Y-5609510D01*
X21491825Y-5617919D01*
X21460546Y-5621000D01*
X21069454Y-5621000D01*
X21038175Y-5617919D01*
X21010454Y-5609510D01*
X20984911Y-5595857D01*
X20962519Y-5577481D01*
X20944143Y-5555089D01*
X20930490Y-5529546D01*
X20922081Y-5501825D01*
X20919000Y-5470546D01*
X20919000Y-5029454D01*
X20922081Y-4998175D01*
X20930490Y-4970454D01*
X20944143Y-4944911D01*
X20962519Y-4922519D01*
X20984911Y-4904143D01*
X21010454Y-4890490D01*
X21038175Y-4882081D01*
X21069454Y-4879000D01*
X21460546Y-4879000D01*
X21491825Y-4882081D01*
X21491825Y-4882081D01*
G37*
G36*
X22461825Y-4882081D02*
X22489546Y-4890490D01*
X22515089Y-4904143D01*
X22537481Y-4922519D01*
X22555857Y-4944911D01*
X22569510Y-4970454D01*
X22577919Y-4998175D01*
X22581000Y-5029454D01*
X22581000Y-5470546D01*
X22577919Y-5501825D01*
X22569510Y-5529546D01*
X22555857Y-5555089D01*
X22537481Y-5577481D01*
X22515089Y-5595857D01*
X22489546Y-5609510D01*
X22461825Y-5617919D01*
X22430546Y-5621000D01*
X22039454Y-5621000D01*
X22008175Y-5617919D01*
X21980454Y-5609510D01*
X21954911Y-5595857D01*
X21932519Y-5577481D01*
X21914143Y-5555089D01*
X21900490Y-5529546D01*
X21892081Y-5501825D01*
X21889000Y-5470546D01*
X21889000Y-5029454D01*
X21892081Y-4998175D01*
X21900490Y-4970454D01*
X21914143Y-4944911D01*
X21932519Y-4922519D01*
X21954911Y-4904143D01*
X21980454Y-4890490D01*
X22008175Y-4882081D01*
X22039454Y-4879000D01*
X22430546Y-4879000D01*
X22461825Y-4882081D01*
X22461825Y-4882081D01*
G37*
G36*
X22461825Y-3882081D02*
X22489546Y-3890490D01*
X22515089Y-3904143D01*
X22537481Y-3922519D01*
X22555857Y-3944911D01*
X22569510Y-3970454D01*
X22577919Y-3998175D01*
X22581000Y-4029454D01*
X22581000Y-4470546D01*
X22577919Y-4501825D01*
X22569510Y-4529546D01*
X22555857Y-4555089D01*
X22537481Y-4577481D01*
X22515089Y-4595857D01*
X22489546Y-4609510D01*
X22461825Y-4617919D01*
X22430546Y-4621000D01*
X22039454Y-4621000D01*
X22008175Y-4617919D01*
X21980454Y-4609510D01*
X21954911Y-4595857D01*
X21932519Y-4577481D01*
X21914143Y-4555089D01*
X21900490Y-4529546D01*
X21892081Y-4501825D01*
X21889000Y-4470546D01*
X21889000Y-4029454D01*
X21892081Y-3998175D01*
X21900490Y-3970454D01*
X21914143Y-3944911D01*
X21932519Y-3922519D01*
X21954911Y-3904143D01*
X21980454Y-3890490D01*
X22008175Y-3882081D01*
X22039454Y-3879000D01*
X22430546Y-3879000D01*
X22461825Y-3882081D01*
X22461825Y-3882081D01*
G37*
G36*
X21491825Y-3882081D02*
X21519546Y-3890490D01*
X21545089Y-3904143D01*
X21567481Y-3922519D01*
X21585857Y-3944911D01*
X21599510Y-3970454D01*
X21607919Y-3998175D01*
X21611000Y-4029454D01*
X21611000Y-4470546D01*
X21607919Y-4501825D01*
X21599510Y-4529546D01*
X21585857Y-4555089D01*
X21567481Y-4577481D01*
X21545089Y-4595857D01*
X21519546Y-4609510D01*
X21491825Y-4617919D01*
X21460546Y-4621000D01*
X21069454Y-4621000D01*
X21038175Y-4617919D01*
X21010454Y-4609510D01*
X20984911Y-4595857D01*
X20962519Y-4577481D01*
X20944143Y-4555089D01*
X20930490Y-4529546D01*
X20922081Y-4501825D01*
X20919000Y-4470546D01*
X20919000Y-4029454D01*
X20922081Y-3998175D01*
X20930490Y-3970454D01*
X20944143Y-3944911D01*
X20962519Y-3922519D01*
X20984911Y-3904143D01*
X21010454Y-3890490D01*
X21038175Y-3882081D01*
X21069454Y-3879000D01*
X21460546Y-3879000D01*
X21491825Y-3882081D01*
X21491825Y-3882081D01*
G37*
G36*
X18216825Y-3862081D02*
X18244546Y-3870490D01*
X18270089Y-3884143D01*
X18292481Y-3902519D01*
X18310857Y-3924911D01*
X18324510Y-3950454D01*
X18332919Y-3978175D01*
X18336000Y-4009454D01*
X18336000Y-4450546D01*
X18332919Y-4481825D01*
X18324510Y-4509546D01*
X18310857Y-4535089D01*
X18292481Y-4557481D01*
X18270089Y-4575857D01*
X18244546Y-4589510D01*
X18216825Y-4597919D01*
X18185546Y-4601000D01*
X17794454Y-4601000D01*
X17763175Y-4597919D01*
X17735454Y-4589510D01*
X17709911Y-4575857D01*
X17687519Y-4557481D01*
X17669143Y-4535089D01*
X17655490Y-4509546D01*
X17647081Y-4481825D01*
X17644000Y-4450546D01*
X17644000Y-4009454D01*
X17647081Y-3978175D01*
X17655490Y-3950454D01*
X17669143Y-3924911D01*
X17687519Y-3902519D01*
X17709911Y-3884143D01*
X17735454Y-3870490D01*
X17763175Y-3862081D01*
X17794454Y-3859000D01*
X18185546Y-3859000D01*
X18216825Y-3862081D01*
X18216825Y-3862081D01*
G37*
G36*
X17246825Y-3862081D02*
X17274546Y-3870490D01*
X17300089Y-3884143D01*
X17322481Y-3902519D01*
X17340857Y-3924911D01*
X17354510Y-3950454D01*
X17362919Y-3978175D01*
X17366000Y-4009454D01*
X17366000Y-4450546D01*
X17362919Y-4481825D01*
X17354510Y-4509546D01*
X17340857Y-4535089D01*
X17322481Y-4557481D01*
X17300089Y-4575857D01*
X17274546Y-4589510D01*
X17246825Y-4597919D01*
X17215546Y-4601000D01*
X16824454Y-4601000D01*
X16793175Y-4597919D01*
X16765454Y-4589510D01*
X16739911Y-4575857D01*
X16717519Y-4557481D01*
X16699143Y-4535089D01*
X16685490Y-4509546D01*
X16677081Y-4481825D01*
X16674000Y-4450546D01*
X16674000Y-4009454D01*
X16677081Y-3978175D01*
X16685490Y-3950454D01*
X16699143Y-3924911D01*
X16717519Y-3902519D01*
X16739911Y-3884143D01*
X16765454Y-3870490D01*
X16793175Y-3862081D01*
X16824454Y-3859000D01*
X17215546Y-3859000D01*
X17246825Y-3862081D01*
X17246825Y-3862081D01*
G37*
G36*
X7891825Y-3847081D02*
X7919546Y-3855490D01*
X7945089Y-3869143D01*
X7967481Y-3887519D01*
X7985857Y-3909911D01*
X7999510Y-3935454D01*
X8007919Y-3963175D01*
X8011000Y-3994454D01*
X8011000Y-4385546D01*
X8007919Y-4416825D01*
X7999510Y-4444546D01*
X7985857Y-4470089D01*
X7967481Y-4492481D01*
X7945089Y-4510857D01*
X7919546Y-4524510D01*
X7891825Y-4532919D01*
X7860546Y-4536000D01*
X7419454Y-4536000D01*
X7388175Y-4532919D01*
X7360454Y-4524510D01*
X7334911Y-4510857D01*
X7312519Y-4492481D01*
X7294143Y-4470089D01*
X7280490Y-4444546D01*
X7272081Y-4416825D01*
X7269000Y-4385546D01*
X7269000Y-3994454D01*
X7272081Y-3963175D01*
X7280490Y-3935454D01*
X7294143Y-3909911D01*
X7312519Y-3887519D01*
X7334911Y-3869143D01*
X7360454Y-3855490D01*
X7388175Y-3847081D01*
X7419454Y-3844000D01*
X7860546Y-3844000D01*
X7891825Y-3847081D01*
X7891825Y-3847081D01*
G37*
G36*
X9921825Y-3847081D02*
X9949546Y-3855490D01*
X9975089Y-3869143D01*
X9997481Y-3887519D01*
X10015857Y-3909911D01*
X10029510Y-3935454D01*
X10037919Y-3963175D01*
X10041000Y-3994454D01*
X10041000Y-4385546D01*
X10037919Y-4416825D01*
X10029510Y-4444546D01*
X10015857Y-4470089D01*
X9997481Y-4492481D01*
X9975089Y-4510857D01*
X9949546Y-4524510D01*
X9921825Y-4532919D01*
X9890546Y-4536000D01*
X9449454Y-4536000D01*
X9418175Y-4532919D01*
X9390454Y-4524510D01*
X9364911Y-4510857D01*
X9342519Y-4492481D01*
X9324143Y-4470089D01*
X9310490Y-4444546D01*
X9302081Y-4416825D01*
X9299000Y-4385546D01*
X9299000Y-3994454D01*
X9302081Y-3963175D01*
X9310490Y-3935454D01*
X9324143Y-3909911D01*
X9342519Y-3887519D01*
X9364911Y-3869143D01*
X9390454Y-3855490D01*
X9418175Y-3847081D01*
X9449454Y-3844000D01*
X9890546Y-3844000D01*
X9921825Y-3847081D01*
X9921825Y-3847081D01*
G37*
G36*
X8901825Y-3847081D02*
X8929546Y-3855490D01*
X8955089Y-3869143D01*
X8977481Y-3887519D01*
X8995857Y-3909911D01*
X9009510Y-3935454D01*
X9017919Y-3963175D01*
X9021000Y-3994454D01*
X9021000Y-4385546D01*
X9017919Y-4416825D01*
X9009510Y-4444546D01*
X8995857Y-4470089D01*
X8977481Y-4492481D01*
X8955089Y-4510857D01*
X8929546Y-4524510D01*
X8901825Y-4532919D01*
X8870546Y-4536000D01*
X8429454Y-4536000D01*
X8398175Y-4532919D01*
X8370454Y-4524510D01*
X8344911Y-4510857D01*
X8322519Y-4492481D01*
X8304143Y-4470089D01*
X8290490Y-4444546D01*
X8282081Y-4416825D01*
X8279000Y-4385546D01*
X8279000Y-3994454D01*
X8282081Y-3963175D01*
X8290490Y-3935454D01*
X8304143Y-3909911D01*
X8322519Y-3887519D01*
X8344911Y-3869143D01*
X8370454Y-3855490D01*
X8398175Y-3847081D01*
X8429454Y-3844000D01*
X8870546Y-3844000D01*
X8901825Y-3847081D01*
X8901825Y-3847081D01*
G37*
G36*
X19266825Y-3842081D02*
X19294546Y-3850490D01*
X19320089Y-3864143D01*
X19342481Y-3882519D01*
X19360857Y-3904911D01*
X19374510Y-3930454D01*
X19382919Y-3958175D01*
X19386000Y-3989454D01*
X19386000Y-4380546D01*
X19382919Y-4411825D01*
X19374510Y-4439546D01*
X19360857Y-4465089D01*
X19342481Y-4487481D01*
X19320089Y-4505857D01*
X19294546Y-4519510D01*
X19266825Y-4527919D01*
X19235546Y-4531000D01*
X18794454Y-4531000D01*
X18763175Y-4527919D01*
X18735454Y-4519510D01*
X18709911Y-4505857D01*
X18687519Y-4487481D01*
X18669143Y-4465089D01*
X18655490Y-4439546D01*
X18647081Y-4411825D01*
X18644000Y-4380546D01*
X18644000Y-3989454D01*
X18647081Y-3958175D01*
X18655490Y-3930454D01*
X18669143Y-3904911D01*
X18687519Y-3882519D01*
X18709911Y-3864143D01*
X18735454Y-3850490D01*
X18763175Y-3842081D01*
X18794454Y-3839000D01*
X19235546Y-3839000D01*
X19266825Y-3842081D01*
X19266825Y-3842081D01*
G37*
G36*
X12001825Y-3192081D02*
X12029546Y-3200490D01*
X12055089Y-3214143D01*
X12077481Y-3232519D01*
X12095857Y-3254911D01*
X12109510Y-3280454D01*
X12117919Y-3308175D01*
X12121000Y-3339454D01*
X12121000Y-3730546D01*
X12117919Y-3761825D01*
X12109510Y-3789546D01*
X12095857Y-3815089D01*
X12077481Y-3837481D01*
X12055089Y-3855857D01*
X12029546Y-3869510D01*
X12001825Y-3877919D01*
X11970546Y-3881000D01*
X11529454Y-3881000D01*
X11498175Y-3877919D01*
X11470454Y-3869510D01*
X11444911Y-3855857D01*
X11422519Y-3837481D01*
X11404143Y-3815089D01*
X11390490Y-3789546D01*
X11382081Y-3761825D01*
X11379000Y-3730546D01*
X11379000Y-3339454D01*
X11382081Y-3308175D01*
X11390490Y-3280454D01*
X11404143Y-3254911D01*
X11422519Y-3232519D01*
X11444911Y-3214143D01*
X11470454Y-3200490D01*
X11498175Y-3192081D01*
X11529454Y-3189000D01*
X11970546Y-3189000D01*
X12001825Y-3192081D01*
X12001825Y-3192081D01*
G37*
G36*
X14431825Y-3142081D02*
X14459546Y-3150490D01*
X14485089Y-3164143D01*
X14507481Y-3182519D01*
X14525857Y-3204911D01*
X14539510Y-3230454D01*
X14547919Y-3258175D01*
X14551000Y-3289454D01*
X14551000Y-3680546D01*
X14547919Y-3711825D01*
X14539510Y-3739546D01*
X14525857Y-3765089D01*
X14507481Y-3787481D01*
X14485089Y-3805857D01*
X14459546Y-3819510D01*
X14431825Y-3827919D01*
X14400546Y-3831000D01*
X13959454Y-3831000D01*
X13928175Y-3827919D01*
X13900454Y-3819510D01*
X13874911Y-3805857D01*
X13852519Y-3787481D01*
X13834143Y-3765089D01*
X13820490Y-3739546D01*
X13812081Y-3711825D01*
X13809000Y-3680546D01*
X13809000Y-3289454D01*
X13812081Y-3258175D01*
X13820490Y-3230454D01*
X13834143Y-3204911D01*
X13852519Y-3182519D01*
X13874911Y-3164143D01*
X13900454Y-3150490D01*
X13928175Y-3142081D01*
X13959454Y-3139000D01*
X14400546Y-3139000D01*
X14431825Y-3142081D01*
X14431825Y-3142081D01*
G37*
G36*
X15441825Y-3142081D02*
X15469546Y-3150490D01*
X15495089Y-3164143D01*
X15517481Y-3182519D01*
X15535857Y-3204911D01*
X15549510Y-3230454D01*
X15557919Y-3258175D01*
X15561000Y-3289454D01*
X15561000Y-3680546D01*
X15557919Y-3711825D01*
X15549510Y-3739546D01*
X15535857Y-3765089D01*
X15517481Y-3787481D01*
X15495089Y-3805857D01*
X15469546Y-3819510D01*
X15441825Y-3827919D01*
X15410546Y-3831000D01*
X14969454Y-3831000D01*
X14938175Y-3827919D01*
X14910454Y-3819510D01*
X14884911Y-3805857D01*
X14862519Y-3787481D01*
X14844143Y-3765089D01*
X14830490Y-3739546D01*
X14822081Y-3711825D01*
X14819000Y-3680546D01*
X14819000Y-3289454D01*
X14822081Y-3258175D01*
X14830490Y-3230454D01*
X14844143Y-3204911D01*
X14862519Y-3182519D01*
X14884911Y-3164143D01*
X14910454Y-3150490D01*
X14938175Y-3142081D01*
X14969454Y-3139000D01*
X15410546Y-3139000D01*
X15441825Y-3142081D01*
X15441825Y-3142081D01*
G37*
G36*
X13421825Y-3142081D02*
X13449546Y-3150490D01*
X13475089Y-3164143D01*
X13497481Y-3182519D01*
X13515857Y-3204911D01*
X13529510Y-3230454D01*
X13537919Y-3258175D01*
X13541000Y-3289454D01*
X13541000Y-3680546D01*
X13537919Y-3711825D01*
X13529510Y-3739546D01*
X13515857Y-3765089D01*
X13497481Y-3787481D01*
X13475089Y-3805857D01*
X13449546Y-3819510D01*
X13421825Y-3827919D01*
X13390546Y-3831000D01*
X12949454Y-3831000D01*
X12918175Y-3827919D01*
X12890454Y-3819510D01*
X12864911Y-3805857D01*
X12842519Y-3787481D01*
X12824143Y-3765089D01*
X12810490Y-3739546D01*
X12802081Y-3711825D01*
X12799000Y-3680546D01*
X12799000Y-3289454D01*
X12802081Y-3258175D01*
X12810490Y-3230454D01*
X12824143Y-3204911D01*
X12842519Y-3182519D01*
X12864911Y-3164143D01*
X12890454Y-3150490D01*
X12918175Y-3142081D01*
X12949454Y-3139000D01*
X13390546Y-3139000D01*
X13421825Y-3142081D01*
X13421825Y-3142081D01*
G37*
G36*
X7891825Y-2877081D02*
X7919546Y-2885490D01*
X7945089Y-2899143D01*
X7967481Y-2917519D01*
X7985857Y-2939911D01*
X7999510Y-2965454D01*
X8007919Y-2993175D01*
X8011000Y-3024454D01*
X8011000Y-3415546D01*
X8007919Y-3446825D01*
X7999510Y-3474546D01*
X7985857Y-3500089D01*
X7967481Y-3522481D01*
X7945089Y-3540857D01*
X7919546Y-3554510D01*
X7891825Y-3562919D01*
X7860546Y-3566000D01*
X7419454Y-3566000D01*
X7388175Y-3562919D01*
X7360454Y-3554510D01*
X7334911Y-3540857D01*
X7312519Y-3522481D01*
X7294143Y-3500089D01*
X7280490Y-3474546D01*
X7272081Y-3446825D01*
X7269000Y-3415546D01*
X7269000Y-3024454D01*
X7272081Y-2993175D01*
X7280490Y-2965454D01*
X7294143Y-2939911D01*
X7312519Y-2917519D01*
X7334911Y-2899143D01*
X7360454Y-2885490D01*
X7388175Y-2877081D01*
X7419454Y-2874000D01*
X7860546Y-2874000D01*
X7891825Y-2877081D01*
X7891825Y-2877081D01*
G37*
G36*
X9921825Y-2877081D02*
X9949546Y-2885490D01*
X9975089Y-2899143D01*
X9997481Y-2917519D01*
X10015857Y-2939911D01*
X10029510Y-2965454D01*
X10037919Y-2993175D01*
X10041000Y-3024454D01*
X10041000Y-3415546D01*
X10037919Y-3446825D01*
X10029510Y-3474546D01*
X10015857Y-3500089D01*
X9997481Y-3522481D01*
X9975089Y-3540857D01*
X9949546Y-3554510D01*
X9921825Y-3562919D01*
X9890546Y-3566000D01*
X9449454Y-3566000D01*
X9418175Y-3562919D01*
X9390454Y-3554510D01*
X9364911Y-3540857D01*
X9342519Y-3522481D01*
X9324143Y-3500089D01*
X9310490Y-3474546D01*
X9302081Y-3446825D01*
X9299000Y-3415546D01*
X9299000Y-3024454D01*
X9302081Y-2993175D01*
X9310490Y-2965454D01*
X9324143Y-2939911D01*
X9342519Y-2917519D01*
X9364911Y-2899143D01*
X9390454Y-2885490D01*
X9418175Y-2877081D01*
X9449454Y-2874000D01*
X9890546Y-2874000D01*
X9921825Y-2877081D01*
X9921825Y-2877081D01*
G37*
G36*
X8901825Y-2877081D02*
X8929546Y-2885490D01*
X8955089Y-2899143D01*
X8977481Y-2917519D01*
X8995857Y-2939911D01*
X9009510Y-2965454D01*
X9017919Y-2993175D01*
X9021000Y-3024454D01*
X9021000Y-3415546D01*
X9017919Y-3446825D01*
X9009510Y-3474546D01*
X8995857Y-3500089D01*
X8977481Y-3522481D01*
X8955089Y-3540857D01*
X8929546Y-3554510D01*
X8901825Y-3562919D01*
X8870546Y-3566000D01*
X8429454Y-3566000D01*
X8398175Y-3562919D01*
X8370454Y-3554510D01*
X8344911Y-3540857D01*
X8322519Y-3522481D01*
X8304143Y-3500089D01*
X8290490Y-3474546D01*
X8282081Y-3446825D01*
X8279000Y-3415546D01*
X8279000Y-3024454D01*
X8282081Y-2993175D01*
X8290490Y-2965454D01*
X8304143Y-2939911D01*
X8322519Y-2917519D01*
X8344911Y-2899143D01*
X8370454Y-2885490D01*
X8398175Y-2877081D01*
X8429454Y-2874000D01*
X8870546Y-2874000D01*
X8901825Y-2877081D01*
X8901825Y-2877081D01*
G37*
G36*
X19266825Y-2872081D02*
X19294546Y-2880490D01*
X19320089Y-2894143D01*
X19342481Y-2912519D01*
X19360857Y-2934911D01*
X19374510Y-2960454D01*
X19382919Y-2988175D01*
X19386000Y-3019454D01*
X19386000Y-3410546D01*
X19382919Y-3441825D01*
X19374510Y-3469546D01*
X19360857Y-3495089D01*
X19342481Y-3517481D01*
X19320089Y-3535857D01*
X19294546Y-3549510D01*
X19266825Y-3557919D01*
X19235546Y-3561000D01*
X18794454Y-3561000D01*
X18763175Y-3557919D01*
X18735454Y-3549510D01*
X18709911Y-3535857D01*
X18687519Y-3517481D01*
X18669143Y-3495089D01*
X18655490Y-3469546D01*
X18647081Y-3441825D01*
X18644000Y-3410546D01*
X18644000Y-3019454D01*
X18647081Y-2988175D01*
X18655490Y-2960454D01*
X18669143Y-2934911D01*
X18687519Y-2912519D01*
X18709911Y-2894143D01*
X18735454Y-2880490D01*
X18763175Y-2872081D01*
X18794454Y-2869000D01*
X19235546Y-2869000D01*
X19266825Y-2872081D01*
X19266825Y-2872081D01*
G37*
G36*
X17010719Y-2260974D02*
X17010722Y-2260975D01*
X17010721Y-2260975D01*
X17110996Y-2302510D01*
X17201242Y-2362810D01*
X17277990Y-2439558D01*
X17338290Y-2529804D01*
X17338290Y-2529805D01*
X17379826Y-2630081D01*
X17401000Y-2736530D01*
X17401000Y-2845070D01*
X17379826Y-2951519D01*
X17379825Y-2951521D01*
X17338290Y-3051796D01*
X17277990Y-3142042D01*
X17201242Y-3218790D01*
X17110996Y-3279090D01*
X17040778Y-3308175D01*
X17010719Y-3320626D01*
X16904270Y-3341800D01*
X16795730Y-3341800D01*
X16689281Y-3320626D01*
X16659222Y-3308175D01*
X16589004Y-3279090D01*
X16498758Y-3218790D01*
X16422010Y-3142042D01*
X16361710Y-3051796D01*
X16320175Y-2951521D01*
X16320174Y-2951519D01*
X16299000Y-2845070D01*
X16299000Y-2736530D01*
X16320174Y-2630081D01*
X16361710Y-2529805D01*
X16361710Y-2529804D01*
X16422010Y-2439558D01*
X16498758Y-2362810D01*
X16589004Y-2302510D01*
X16689279Y-2260975D01*
X16689278Y-2260975D01*
X16689281Y-2260974D01*
X16795730Y-2239800D01*
X16904270Y-2239800D01*
X17010719Y-2260974D01*
X17010719Y-2260974D01*
G37*
G36*
X12001825Y-2222081D02*
X12029546Y-2230490D01*
X12055089Y-2244143D01*
X12077481Y-2262519D01*
X12095857Y-2284911D01*
X12109510Y-2310454D01*
X12117919Y-2338175D01*
X12121000Y-2369454D01*
X12121000Y-2760546D01*
X12117919Y-2791825D01*
X12109510Y-2819546D01*
X12095857Y-2845089D01*
X12077481Y-2867481D01*
X12055089Y-2885857D01*
X12029546Y-2899510D01*
X12001825Y-2907919D01*
X11970546Y-2911000D01*
X11529454Y-2911000D01*
X11498175Y-2907919D01*
X11470454Y-2899510D01*
X11444911Y-2885857D01*
X11422519Y-2867481D01*
X11404143Y-2845089D01*
X11390490Y-2819546D01*
X11382081Y-2791825D01*
X11379000Y-2760546D01*
X11379000Y-2369454D01*
X11382081Y-2338175D01*
X11390490Y-2310454D01*
X11404143Y-2284911D01*
X11422519Y-2262519D01*
X11444911Y-2244143D01*
X11470454Y-2230490D01*
X11498175Y-2222081D01*
X11529454Y-2219000D01*
X11970546Y-2219000D01*
X12001825Y-2222081D01*
X12001825Y-2222081D01*
G37*
G36*
X15441825Y-2172081D02*
X15469546Y-2180490D01*
X15495089Y-2194143D01*
X15517481Y-2212519D01*
X15535857Y-2234911D01*
X15549510Y-2260454D01*
X15557919Y-2288175D01*
X15561000Y-2319454D01*
X15561000Y-2710546D01*
X15557919Y-2741825D01*
X15549510Y-2769546D01*
X15535857Y-2795089D01*
X15517481Y-2817481D01*
X15495089Y-2835857D01*
X15469546Y-2849510D01*
X15441825Y-2857919D01*
X15410546Y-2861000D01*
X14969454Y-2861000D01*
X14938175Y-2857919D01*
X14910454Y-2849510D01*
X14884911Y-2835857D01*
X14862519Y-2817481D01*
X14844143Y-2795089D01*
X14830490Y-2769546D01*
X14822081Y-2741825D01*
X14819000Y-2710546D01*
X14819000Y-2319454D01*
X14822081Y-2288175D01*
X14830490Y-2260454D01*
X14844143Y-2234911D01*
X14862519Y-2212519D01*
X14884911Y-2194143D01*
X14910454Y-2180490D01*
X14938175Y-2172081D01*
X14969454Y-2169000D01*
X15410546Y-2169000D01*
X15441825Y-2172081D01*
X15441825Y-2172081D01*
G37*
G36*
X14431825Y-2172081D02*
X14459546Y-2180490D01*
X14485089Y-2194143D01*
X14507481Y-2212519D01*
X14525857Y-2234911D01*
X14539510Y-2260454D01*
X14547919Y-2288175D01*
X14551000Y-2319454D01*
X14551000Y-2710546D01*
X14547919Y-2741825D01*
X14539510Y-2769546D01*
X14525857Y-2795089D01*
X14507481Y-2817481D01*
X14485089Y-2835857D01*
X14459546Y-2849510D01*
X14431825Y-2857919D01*
X14400546Y-2861000D01*
X13959454Y-2861000D01*
X13928175Y-2857919D01*
X13900454Y-2849510D01*
X13874911Y-2835857D01*
X13852519Y-2817481D01*
X13834143Y-2795089D01*
X13820490Y-2769546D01*
X13812081Y-2741825D01*
X13809000Y-2710546D01*
X13809000Y-2319454D01*
X13812081Y-2288175D01*
X13820490Y-2260454D01*
X13834143Y-2234911D01*
X13852519Y-2212519D01*
X13874911Y-2194143D01*
X13900454Y-2180490D01*
X13928175Y-2172081D01*
X13959454Y-2169000D01*
X14400546Y-2169000D01*
X14431825Y-2172081D01*
X14431825Y-2172081D01*
G37*
G36*
X13421825Y-2172081D02*
X13449546Y-2180490D01*
X13475089Y-2194143D01*
X13497481Y-2212519D01*
X13515857Y-2234911D01*
X13529510Y-2260454D01*
X13537919Y-2288175D01*
X13541000Y-2319454D01*
X13541000Y-2710546D01*
X13537919Y-2741825D01*
X13529510Y-2769546D01*
X13515857Y-2795089D01*
X13497481Y-2817481D01*
X13475089Y-2835857D01*
X13449546Y-2849510D01*
X13421825Y-2857919D01*
X13390546Y-2861000D01*
X12949454Y-2861000D01*
X12918175Y-2857919D01*
X12890454Y-2849510D01*
X12864911Y-2835857D01*
X12842519Y-2817481D01*
X12824143Y-2795089D01*
X12810490Y-2769546D01*
X12802081Y-2741825D01*
X12799000Y-2710546D01*
X12799000Y-2319454D01*
X12802081Y-2288175D01*
X12810490Y-2260454D01*
X12824143Y-2234911D01*
X12842519Y-2212519D01*
X12864911Y-2194143D01*
X12890454Y-2180490D01*
X12918175Y-2172081D01*
X12949454Y-2169000D01*
X13390546Y-2169000D01*
X13421825Y-2172081D01*
X13421825Y-2172081D01*
G37*
G36*
X10660719Y-1600174D02*
X10660722Y-1600175D01*
X10660721Y-1600175D01*
X10760996Y-1641710D01*
X10851242Y-1702010D01*
X10927990Y-1778758D01*
X10988290Y-1869004D01*
X10988290Y-1869005D01*
X11029826Y-1969281D01*
X11051000Y-2075730D01*
X11051000Y-2184270D01*
X11029826Y-2290719D01*
X11029825Y-2290721D01*
X10988290Y-2390996D01*
X10927990Y-2481242D01*
X10851242Y-2557990D01*
X10760996Y-2618290D01*
X10690090Y-2647660D01*
X10660719Y-2659826D01*
X10554270Y-2681000D01*
X10445730Y-2681000D01*
X10339281Y-2659826D01*
X10309910Y-2647660D01*
X10239004Y-2618290D01*
X10148758Y-2557990D01*
X10072010Y-2481242D01*
X10011710Y-2390996D01*
X9970175Y-2290721D01*
X9970174Y-2290719D01*
X9949000Y-2184270D01*
X9949000Y-2075730D01*
X9970174Y-1969281D01*
X10011710Y-1869005D01*
X10011710Y-1869004D01*
X10072010Y-1778758D01*
X10148758Y-1702010D01*
X10239004Y-1641710D01*
X10339279Y-1600175D01*
X10339278Y-1600175D01*
X10339281Y-1600174D01*
X10445730Y-1579000D01*
X10554270Y-1579000D01*
X10660719Y-1600174D01*
X10660719Y-1600174D01*
G37*
G36*
X17010719Y-900974D02*
X17010722Y-900975D01*
X17010721Y-900975D01*
X17110996Y-942510D01*
X17201242Y-1002810D01*
X17277990Y-1079558D01*
X17338290Y-1169804D01*
X17338290Y-1169805D01*
X17379826Y-1270081D01*
X17401000Y-1376530D01*
X17401000Y-1485070D01*
X17379826Y-1591519D01*
X17372673Y-1608788D01*
X17338290Y-1691796D01*
X17277990Y-1782042D01*
X17201242Y-1858790D01*
X17110996Y-1919090D01*
X17040090Y-1948460D01*
X17010719Y-1960626D01*
X16904270Y-1981800D01*
X16795730Y-1981800D01*
X16689281Y-1960626D01*
X16659910Y-1948460D01*
X16589004Y-1919090D01*
X16498758Y-1858790D01*
X16422010Y-1782042D01*
X16361710Y-1691796D01*
X16327327Y-1608788D01*
X16320174Y-1591519D01*
X16299000Y-1485070D01*
X16299000Y-1376530D01*
X16320174Y-1270081D01*
X16361710Y-1169805D01*
X16361710Y-1169804D01*
X16422010Y-1079558D01*
X16498758Y-1002810D01*
X16589004Y-942510D01*
X16689279Y-900975D01*
X16689278Y-900975D01*
X16689281Y-900974D01*
X16795730Y-879800D01*
X16904270Y-879800D01*
X17010719Y-900974D01*
X17010719Y-900974D01*
G37*
G36*
X2480719Y-650974D02*
X2480722Y-650975D01*
X2480721Y-650975D01*
X2580996Y-692510D01*
X2671242Y-752810D01*
X2747990Y-829558D01*
X2808290Y-919804D01*
X2808290Y-919805D01*
X2849826Y-1020081D01*
X2871000Y-1126530D01*
X2871000Y-1235070D01*
X2849826Y-1341519D01*
X2849825Y-1341521D01*
X2808290Y-1441796D01*
X2747990Y-1532042D01*
X2671242Y-1608790D01*
X2580996Y-1669090D01*
X2510090Y-1698460D01*
X2480719Y-1710626D01*
X2374270Y-1731800D01*
X2265730Y-1731800D01*
X2159281Y-1710626D01*
X2129910Y-1698460D01*
X2059004Y-1669090D01*
X1968758Y-1608790D01*
X1892010Y-1532042D01*
X1831710Y-1441796D01*
X1790175Y-1341521D01*
X1790174Y-1341519D01*
X1769000Y-1235070D01*
X1769000Y-1126530D01*
X1790174Y-1020081D01*
X1831710Y-919805D01*
X1831710Y-919804D01*
X1892010Y-829558D01*
X1968758Y-752810D01*
X2059004Y-692510D01*
X2159279Y-650975D01*
X2159278Y-650975D01*
X2159281Y-650974D01*
X2265730Y-629800D01*
X2374270Y-629800D01*
X2480719Y-650974D01*
X2480719Y-650974D01*
G37*
G36*
X5550719Y-650974D02*
X5550722Y-650975D01*
X5550721Y-650975D01*
X5650996Y-692510D01*
X5741242Y-752810D01*
X5817990Y-829558D01*
X5878290Y-919804D01*
X5878290Y-919805D01*
X5919826Y-1020081D01*
X5941000Y-1126530D01*
X5941000Y-1235070D01*
X5919826Y-1341519D01*
X5919825Y-1341521D01*
X5878290Y-1441796D01*
X5817990Y-1532042D01*
X5741242Y-1608790D01*
X5650996Y-1669090D01*
X5580090Y-1698460D01*
X5550719Y-1710626D01*
X5444270Y-1731800D01*
X5335730Y-1731800D01*
X5229281Y-1710626D01*
X5199910Y-1698460D01*
X5129004Y-1669090D01*
X5038758Y-1608790D01*
X4962010Y-1532042D01*
X4901710Y-1441796D01*
X4860175Y-1341521D01*
X4860174Y-1341519D01*
X4839000Y-1235070D01*
X4839000Y-1126530D01*
X4860174Y-1020081D01*
X4901710Y-919805D01*
X4901710Y-919804D01*
X4962010Y-829558D01*
X5038758Y-752810D01*
X5129004Y-692510D01*
X5229279Y-650975D01*
X5229278Y-650975D01*
X5229281Y-650974D01*
X5335730Y-629800D01*
X5444270Y-629800D01*
X5550719Y-650974D01*
X5550719Y-650974D01*
G37*
G36*
X4030719Y-650974D02*
X4030722Y-650975D01*
X4030721Y-650975D01*
X4130996Y-692510D01*
X4221242Y-752810D01*
X4297990Y-829558D01*
X4358290Y-919804D01*
X4358290Y-919805D01*
X4399826Y-1020081D01*
X4421000Y-1126530D01*
X4421000Y-1235070D01*
X4399826Y-1341519D01*
X4399825Y-1341521D01*
X4358290Y-1441796D01*
X4297990Y-1532042D01*
X4221242Y-1608790D01*
X4130996Y-1669090D01*
X4060090Y-1698460D01*
X4030719Y-1710626D01*
X3924270Y-1731800D01*
X3815730Y-1731800D01*
X3709281Y-1710626D01*
X3679910Y-1698460D01*
X3609004Y-1669090D01*
X3518758Y-1608790D01*
X3442010Y-1532042D01*
X3381710Y-1441796D01*
X3340175Y-1341521D01*
X3340174Y-1341519D01*
X3319000Y-1235070D01*
X3319000Y-1126530D01*
X3340174Y-1020081D01*
X3381710Y-919805D01*
X3381710Y-919804D01*
X3442010Y-829558D01*
X3518758Y-752810D01*
X3609004Y-692510D01*
X3709279Y-650975D01*
X3709278Y-650975D01*
X3709281Y-650974D01*
X3815730Y-629800D01*
X3924270Y-629800D01*
X4030719Y-650974D01*
X4030719Y-650974D01*
G37*
M02*
