G04 #@! TF.GenerationSoftware,KiCad,Pcbnew,5.0.2+dfsg1-1~bpo9+1*
G04 #@! TF.CreationDate,2019-10-24T14:32:07+02:00*
G04 #@! TF.ProjectId,zglue-dragon-adapter,7a676c75-652d-4647-9261-676f6e2d6164,rev?*
G04 #@! TF.SameCoordinates,Original*
G04 #@! TF.FileFunction,Legend,Top*
G04 #@! TF.FilePolarity,Positive*
%FSLAX46Y46*%
G04 Gerber Fmt 4.6, Leading zero omitted, Abs format (unit mm)*
G04 Created by KiCad (PCBNEW 5.0.2+dfsg1-1~bpo9+1) date Thu 24 Oct 2019 02:32:07 PM CEST*
%MOMM*%
%LPD*%
G01*
G04 APERTURE LIST*
%ADD10C,0.150000*%
%ADD11C,0.200000*%
%ADD12C,0.100000*%
G04 APERTURE END LIST*
D10*
X20336666Y-19306666D02*
X19936666Y-19306666D01*
X20136666Y-19306666D02*
X20136666Y-18606666D01*
X20070000Y-18706666D01*
X20003333Y-18773333D01*
X19936666Y-18806666D01*
X20770000Y-18606666D02*
X20836666Y-18606666D01*
X20903333Y-18640000D01*
X20936666Y-18673333D01*
X20970000Y-18740000D01*
X21003333Y-18873333D01*
X21003333Y-19040000D01*
X20970000Y-19173333D01*
X20936666Y-19240000D01*
X20903333Y-19273333D01*
X20836666Y-19306666D01*
X20770000Y-19306666D01*
X20703333Y-19273333D01*
X20670000Y-19240000D01*
X20636666Y-19173333D01*
X20603333Y-19040000D01*
X20603333Y-18873333D01*
X20636666Y-18740000D01*
X20670000Y-18673333D01*
X20703333Y-18640000D01*
X20770000Y-18606666D01*
X21803333Y-18573333D02*
X21203333Y-19473333D01*
X22003333Y-18673333D02*
X22036666Y-18640000D01*
X22103333Y-18606666D01*
X22270000Y-18606666D01*
X22336666Y-18640000D01*
X22370000Y-18673333D01*
X22403333Y-18740000D01*
X22403333Y-18806666D01*
X22370000Y-18906666D01*
X21970000Y-19306666D01*
X22403333Y-19306666D01*
X22836666Y-18606666D02*
X22903333Y-18606666D01*
X22970000Y-18640000D01*
X23003333Y-18673333D01*
X23036666Y-18740000D01*
X23070000Y-18873333D01*
X23070000Y-19040000D01*
X23036666Y-19173333D01*
X23003333Y-19240000D01*
X22970000Y-19273333D01*
X22903333Y-19306666D01*
X22836666Y-19306666D01*
X22770000Y-19273333D01*
X22736666Y-19240000D01*
X22703333Y-19173333D01*
X22670000Y-19040000D01*
X22670000Y-18873333D01*
X22703333Y-18740000D01*
X22736666Y-18673333D01*
X22770000Y-18640000D01*
X22836666Y-18606666D01*
X23736666Y-19306666D02*
X23336666Y-19306666D01*
X23536666Y-19306666D02*
X23536666Y-18606666D01*
X23470000Y-18706666D01*
X23403333Y-18773333D01*
X23336666Y-18806666D01*
X24070000Y-19306666D02*
X24203333Y-19306666D01*
X24270000Y-19273333D01*
X24303333Y-19240000D01*
X24370000Y-19140000D01*
X24403333Y-19006666D01*
X24403333Y-18740000D01*
X24370000Y-18673333D01*
X24336666Y-18640000D01*
X24270000Y-18606666D01*
X24136666Y-18606666D01*
X24070000Y-18640000D01*
X24036666Y-18673333D01*
X24003333Y-18740000D01*
X24003333Y-18906666D01*
X24036666Y-18973333D01*
X24070000Y-19006666D01*
X24136666Y-19040000D01*
X24270000Y-19040000D01*
X24336666Y-19006666D01*
X24370000Y-18973333D01*
X24403333Y-18906666D01*
X20353333Y-18026666D02*
X20120000Y-17693333D01*
X19953333Y-18026666D02*
X19953333Y-17326666D01*
X20220000Y-17326666D01*
X20286666Y-17360000D01*
X20320000Y-17393333D01*
X20353333Y-17460000D01*
X20353333Y-17560000D01*
X20320000Y-17626666D01*
X20286666Y-17660000D01*
X20220000Y-17693333D01*
X19953333Y-17693333D01*
X20920000Y-17993333D02*
X20853333Y-18026666D01*
X20720000Y-18026666D01*
X20653333Y-17993333D01*
X20620000Y-17926666D01*
X20620000Y-17660000D01*
X20653333Y-17593333D01*
X20720000Y-17560000D01*
X20853333Y-17560000D01*
X20920000Y-17593333D01*
X20953333Y-17660000D01*
X20953333Y-17726666D01*
X20620000Y-17793333D01*
X21186666Y-17560000D02*
X21353333Y-18026666D01*
X21520000Y-17560000D01*
X21786666Y-17960000D02*
X21820000Y-17993333D01*
X21786666Y-18026666D01*
X21753333Y-17993333D01*
X21786666Y-17960000D01*
X21786666Y-18026666D01*
X23020000Y-18026666D02*
X22620000Y-18026666D01*
X22820000Y-18026666D02*
X22820000Y-17326666D01*
X22753333Y-17426666D01*
X22686666Y-17493333D01*
X22620000Y-17526666D01*
X23320000Y-17960000D02*
X23353333Y-17993333D01*
X23320000Y-18026666D01*
X23286666Y-17993333D01*
X23320000Y-17960000D01*
X23320000Y-18026666D01*
X23786666Y-17326666D02*
X23853333Y-17326666D01*
X23920000Y-17360000D01*
X23953333Y-17393333D01*
X23986666Y-17460000D01*
X24020000Y-17593333D01*
X24020000Y-17760000D01*
X23986666Y-17893333D01*
X23953333Y-17960000D01*
X23920000Y-17993333D01*
X23853333Y-18026666D01*
X23786666Y-18026666D01*
X23720000Y-17993333D01*
X23686666Y-17960000D01*
X23653333Y-17893333D01*
X23620000Y-17760000D01*
X23620000Y-17593333D01*
X23653333Y-17460000D01*
X23686666Y-17393333D01*
X23720000Y-17360000D01*
X23786666Y-17326666D01*
D11*
X8750000Y-5400000D02*
G75*
G03X8750000Y-5400000I-150000J0D01*
G01*
D12*
G04 #@! TO.C,U1*
X15900000Y-14750000D02*
X15900000Y-5250000D01*
X9100000Y-14750000D02*
X9100000Y-5250000D01*
X15900000Y-14750000D02*
X9100000Y-14750000D01*
X15900000Y-5250000D02*
X9100000Y-5250000D01*
D10*
X16156666Y-14283333D02*
X16723333Y-14283333D01*
X16790000Y-14250000D01*
X16823333Y-14216666D01*
X16856666Y-14150000D01*
X16856666Y-14016666D01*
X16823333Y-13950000D01*
X16790000Y-13916666D01*
X16723333Y-13883333D01*
X16156666Y-13883333D01*
X16856666Y-13183333D02*
X16856666Y-13583333D01*
X16856666Y-13383333D02*
X16156666Y-13383333D01*
X16256666Y-13450000D01*
X16323333Y-13516666D01*
X16356666Y-13583333D01*
G04 #@! TO.C,TP5*
X18366666Y-18063333D02*
X18366666Y-17663333D01*
X19066666Y-17863333D02*
X18366666Y-17863333D01*
X19066666Y-17430000D02*
X18366666Y-17430000D01*
X18366666Y-17163333D01*
X18400000Y-17096666D01*
X18433333Y-17063333D01*
X18500000Y-17030000D01*
X18600000Y-17030000D01*
X18666666Y-17063333D01*
X18700000Y-17096666D01*
X18733333Y-17163333D01*
X18733333Y-17430000D01*
X18366666Y-16396666D02*
X18366666Y-16730000D01*
X18700000Y-16763333D01*
X18666666Y-16730000D01*
X18633333Y-16663333D01*
X18633333Y-16496666D01*
X18666666Y-16430000D01*
X18700000Y-16396666D01*
X18766666Y-16363333D01*
X18933333Y-16363333D01*
X19000000Y-16396666D01*
X19033333Y-16430000D01*
X19066666Y-16496666D01*
X19066666Y-16663333D01*
X19033333Y-16730000D01*
X19000000Y-16763333D01*
G04 #@! TO.C,R25*
X22970000Y-1126666D02*
X22736666Y-793333D01*
X22570000Y-1126666D02*
X22570000Y-426666D01*
X22836666Y-426666D01*
X22903333Y-460000D01*
X22936666Y-493333D01*
X22970000Y-560000D01*
X22970000Y-660000D01*
X22936666Y-726666D01*
X22903333Y-760000D01*
X22836666Y-793333D01*
X22570000Y-793333D01*
X23236666Y-493333D02*
X23270000Y-460000D01*
X23336666Y-426666D01*
X23503333Y-426666D01*
X23570000Y-460000D01*
X23603333Y-493333D01*
X23636666Y-560000D01*
X23636666Y-626666D01*
X23603333Y-726666D01*
X23203333Y-1126666D01*
X23636666Y-1126666D01*
X24270000Y-426666D02*
X23936666Y-426666D01*
X23903333Y-760000D01*
X23936666Y-726666D01*
X24003333Y-693333D01*
X24170000Y-693333D01*
X24236666Y-726666D01*
X24270000Y-760000D01*
X24303333Y-826666D01*
X24303333Y-993333D01*
X24270000Y-1060000D01*
X24236666Y-1093333D01*
X24170000Y-1126666D01*
X24003333Y-1126666D01*
X23936666Y-1093333D01*
X23903333Y-1060000D01*
G04 #@! TO.C,R26*
X23010000Y-2306666D02*
X22776666Y-1973333D01*
X22610000Y-2306666D02*
X22610000Y-1606666D01*
X22876666Y-1606666D01*
X22943333Y-1640000D01*
X22976666Y-1673333D01*
X23010000Y-1740000D01*
X23010000Y-1840000D01*
X22976666Y-1906666D01*
X22943333Y-1940000D01*
X22876666Y-1973333D01*
X22610000Y-1973333D01*
X23276666Y-1673333D02*
X23310000Y-1640000D01*
X23376666Y-1606666D01*
X23543333Y-1606666D01*
X23610000Y-1640000D01*
X23643333Y-1673333D01*
X23676666Y-1740000D01*
X23676666Y-1806666D01*
X23643333Y-1906666D01*
X23243333Y-2306666D01*
X23676666Y-2306666D01*
X24276666Y-1606666D02*
X24143333Y-1606666D01*
X24076666Y-1640000D01*
X24043333Y-1673333D01*
X23976666Y-1773333D01*
X23943333Y-1906666D01*
X23943333Y-2173333D01*
X23976666Y-2240000D01*
X24010000Y-2273333D01*
X24076666Y-2306666D01*
X24210000Y-2306666D01*
X24276666Y-2273333D01*
X24310000Y-2240000D01*
X24343333Y-2173333D01*
X24343333Y-2006666D01*
X24310000Y-1940000D01*
X24276666Y-1906666D01*
X24210000Y-1873333D01*
X24076666Y-1873333D01*
X24010000Y-1906666D01*
X23976666Y-1940000D01*
X23943333Y-2006666D01*
G04 #@! TO.C,C10*
X9310000Y-16730000D02*
X9343333Y-16763333D01*
X9376666Y-16863333D01*
X9376666Y-16930000D01*
X9343333Y-17030000D01*
X9276666Y-17096666D01*
X9210000Y-17130000D01*
X9076666Y-17163333D01*
X8976666Y-17163333D01*
X8843333Y-17130000D01*
X8776666Y-17096666D01*
X8710000Y-17030000D01*
X8676666Y-16930000D01*
X8676666Y-16863333D01*
X8710000Y-16763333D01*
X8743333Y-16730000D01*
X9376666Y-16063333D02*
X9376666Y-16463333D01*
X9376666Y-16263333D02*
X8676666Y-16263333D01*
X8776666Y-16330000D01*
X8843333Y-16396666D01*
X8876666Y-16463333D01*
X8676666Y-15630000D02*
X8676666Y-15563333D01*
X8710000Y-15496666D01*
X8743333Y-15463333D01*
X8810000Y-15430000D01*
X8943333Y-15396666D01*
X9110000Y-15396666D01*
X9243333Y-15430000D01*
X9310000Y-15463333D01*
X9343333Y-15496666D01*
X9376666Y-15563333D01*
X9376666Y-15630000D01*
X9343333Y-15696666D01*
X9310000Y-15730000D01*
X9243333Y-15763333D01*
X9110000Y-15796666D01*
X8943333Y-15796666D01*
X8810000Y-15763333D01*
X8743333Y-15730000D01*
X8710000Y-15696666D01*
X8676666Y-15630000D01*
G04 #@! TO.C,TP16*
X17406666Y-18096666D02*
X17406666Y-17696666D01*
X18106666Y-17896666D02*
X17406666Y-17896666D01*
X18106666Y-17463333D02*
X17406666Y-17463333D01*
X17406666Y-17196666D01*
X17440000Y-17130000D01*
X17473333Y-17096666D01*
X17540000Y-17063333D01*
X17640000Y-17063333D01*
X17706666Y-17096666D01*
X17740000Y-17130000D01*
X17773333Y-17196666D01*
X17773333Y-17463333D01*
X18106666Y-16396666D02*
X18106666Y-16796666D01*
X18106666Y-16596666D02*
X17406666Y-16596666D01*
X17506666Y-16663333D01*
X17573333Y-16730000D01*
X17606666Y-16796666D01*
X17406666Y-15796666D02*
X17406666Y-15930000D01*
X17440000Y-15996666D01*
X17473333Y-16030000D01*
X17573333Y-16096666D01*
X17706666Y-16130000D01*
X17973333Y-16130000D01*
X18040000Y-16096666D01*
X18073333Y-16063333D01*
X18106666Y-15996666D01*
X18106666Y-15863333D01*
X18073333Y-15796666D01*
X18040000Y-15763333D01*
X17973333Y-15730000D01*
X17806666Y-15730000D01*
X17740000Y-15763333D01*
X17706666Y-15796666D01*
X17673333Y-15863333D01*
X17673333Y-15996666D01*
X17706666Y-16063333D01*
X17740000Y-16096666D01*
X17806666Y-16130000D01*
G04 #@! TO.C,TP14*
X15356666Y-17996666D02*
X15356666Y-17596666D01*
X16056666Y-17796666D02*
X15356666Y-17796666D01*
X16056666Y-17363333D02*
X15356666Y-17363333D01*
X15356666Y-17096666D01*
X15390000Y-17030000D01*
X15423333Y-16996666D01*
X15490000Y-16963333D01*
X15590000Y-16963333D01*
X15656666Y-16996666D01*
X15690000Y-17030000D01*
X15723333Y-17096666D01*
X15723333Y-17363333D01*
X16056666Y-16296666D02*
X16056666Y-16696666D01*
X16056666Y-16496666D02*
X15356666Y-16496666D01*
X15456666Y-16563333D01*
X15523333Y-16630000D01*
X15556666Y-16696666D01*
X15590000Y-15696666D02*
X16056666Y-15696666D01*
X15323333Y-15863333D02*
X15823333Y-16030000D01*
X15823333Y-15596666D01*
G04 #@! TO.C,TP15*
X16436666Y-18046666D02*
X16436666Y-17646666D01*
X17136666Y-17846666D02*
X16436666Y-17846666D01*
X17136666Y-17413333D02*
X16436666Y-17413333D01*
X16436666Y-17146666D01*
X16470000Y-17080000D01*
X16503333Y-17046666D01*
X16570000Y-17013333D01*
X16670000Y-17013333D01*
X16736666Y-17046666D01*
X16770000Y-17080000D01*
X16803333Y-17146666D01*
X16803333Y-17413333D01*
X17136666Y-16346666D02*
X17136666Y-16746666D01*
X17136666Y-16546666D02*
X16436666Y-16546666D01*
X16536666Y-16613333D01*
X16603333Y-16680000D01*
X16636666Y-16746666D01*
X16436666Y-15713333D02*
X16436666Y-16046666D01*
X16770000Y-16080000D01*
X16736666Y-16046666D01*
X16703333Y-15980000D01*
X16703333Y-15813333D01*
X16736666Y-15746666D01*
X16770000Y-15713333D01*
X16836666Y-15680000D01*
X17003333Y-15680000D01*
X17070000Y-15713333D01*
X17103333Y-15746666D01*
X17136666Y-15813333D01*
X17136666Y-15980000D01*
X17103333Y-16046666D01*
X17070000Y-16080000D01*
G04 #@! TO.C,R15*
X23030000Y-3696666D02*
X22796666Y-3363333D01*
X22630000Y-3696666D02*
X22630000Y-2996666D01*
X22896666Y-2996666D01*
X22963333Y-3030000D01*
X22996666Y-3063333D01*
X23030000Y-3130000D01*
X23030000Y-3230000D01*
X22996666Y-3296666D01*
X22963333Y-3330000D01*
X22896666Y-3363333D01*
X22630000Y-3363333D01*
X23696666Y-3696666D02*
X23296666Y-3696666D01*
X23496666Y-3696666D02*
X23496666Y-2996666D01*
X23430000Y-3096666D01*
X23363333Y-3163333D01*
X23296666Y-3196666D01*
X24330000Y-2996666D02*
X23996666Y-2996666D01*
X23963333Y-3330000D01*
X23996666Y-3296666D01*
X24063333Y-3263333D01*
X24230000Y-3263333D01*
X24296666Y-3296666D01*
X24330000Y-3330000D01*
X24363333Y-3396666D01*
X24363333Y-3563333D01*
X24330000Y-3630000D01*
X24296666Y-3663333D01*
X24230000Y-3696666D01*
X24063333Y-3696666D01*
X23996666Y-3663333D01*
X23963333Y-3630000D01*
G04 #@! TO.C,R17*
X23010000Y-5666666D02*
X22776666Y-5333333D01*
X22610000Y-5666666D02*
X22610000Y-4966666D01*
X22876666Y-4966666D01*
X22943333Y-5000000D01*
X22976666Y-5033333D01*
X23010000Y-5100000D01*
X23010000Y-5200000D01*
X22976666Y-5266666D01*
X22943333Y-5300000D01*
X22876666Y-5333333D01*
X22610000Y-5333333D01*
X23676666Y-5666666D02*
X23276666Y-5666666D01*
X23476666Y-5666666D02*
X23476666Y-4966666D01*
X23410000Y-5066666D01*
X23343333Y-5133333D01*
X23276666Y-5166666D01*
X23910000Y-4966666D02*
X24376666Y-4966666D01*
X24076666Y-5666666D01*
G04 #@! TO.C,R16*
X23030000Y-4676666D02*
X22796666Y-4343333D01*
X22630000Y-4676666D02*
X22630000Y-3976666D01*
X22896666Y-3976666D01*
X22963333Y-4010000D01*
X22996666Y-4043333D01*
X23030000Y-4110000D01*
X23030000Y-4210000D01*
X22996666Y-4276666D01*
X22963333Y-4310000D01*
X22896666Y-4343333D01*
X22630000Y-4343333D01*
X23696666Y-4676666D02*
X23296666Y-4676666D01*
X23496666Y-4676666D02*
X23496666Y-3976666D01*
X23430000Y-4076666D01*
X23363333Y-4143333D01*
X23296666Y-4176666D01*
X24296666Y-3976666D02*
X24163333Y-3976666D01*
X24096666Y-4010000D01*
X24063333Y-4043333D01*
X23996666Y-4143333D01*
X23963333Y-4276666D01*
X23963333Y-4543333D01*
X23996666Y-4610000D01*
X24030000Y-4643333D01*
X24096666Y-4676666D01*
X24230000Y-4676666D01*
X24296666Y-4643333D01*
X24330000Y-4610000D01*
X24363333Y-4543333D01*
X24363333Y-4376666D01*
X24330000Y-4310000D01*
X24296666Y-4276666D01*
X24230000Y-4243333D01*
X24096666Y-4243333D01*
X24030000Y-4276666D01*
X23996666Y-4310000D01*
X23963333Y-4376666D01*
G04 #@! TO.C,R3*
X5811666Y-5541666D02*
X5478333Y-5775000D01*
X5811666Y-5941666D02*
X5111666Y-5941666D01*
X5111666Y-5675000D01*
X5145000Y-5608333D01*
X5178333Y-5575000D01*
X5245000Y-5541666D01*
X5345000Y-5541666D01*
X5411666Y-5575000D01*
X5445000Y-5608333D01*
X5478333Y-5675000D01*
X5478333Y-5941666D01*
X5111666Y-5308333D02*
X5111666Y-4875000D01*
X5378333Y-5108333D01*
X5378333Y-5008333D01*
X5411666Y-4941666D01*
X5445000Y-4908333D01*
X5511666Y-4875000D01*
X5678333Y-4875000D01*
X5745000Y-4908333D01*
X5778333Y-4941666D01*
X5811666Y-5008333D01*
X5811666Y-5208333D01*
X5778333Y-5275000D01*
X5745000Y-5308333D01*
G04 #@! TO.C,R4*
X13416666Y-19246666D02*
X13083333Y-19480000D01*
X13416666Y-19646666D02*
X12716666Y-19646666D01*
X12716666Y-19380000D01*
X12750000Y-19313333D01*
X12783333Y-19280000D01*
X12850000Y-19246666D01*
X12950000Y-19246666D01*
X13016666Y-19280000D01*
X13050000Y-19313333D01*
X13083333Y-19380000D01*
X13083333Y-19646666D01*
X12950000Y-18646666D02*
X13416666Y-18646666D01*
X12683333Y-18813333D02*
X13183333Y-18980000D01*
X13183333Y-18546666D01*
G04 #@! TO.C,C8*
X12150000Y-1396666D02*
X12183333Y-1430000D01*
X12216666Y-1530000D01*
X12216666Y-1596666D01*
X12183333Y-1696666D01*
X12116666Y-1763333D01*
X12050000Y-1796666D01*
X11916666Y-1830000D01*
X11816666Y-1830000D01*
X11683333Y-1796666D01*
X11616666Y-1763333D01*
X11550000Y-1696666D01*
X11516666Y-1596666D01*
X11516666Y-1530000D01*
X11550000Y-1430000D01*
X11583333Y-1396666D01*
X11816666Y-996666D02*
X11783333Y-1063333D01*
X11750000Y-1096666D01*
X11683333Y-1130000D01*
X11650000Y-1130000D01*
X11583333Y-1096666D01*
X11550000Y-1063333D01*
X11516666Y-996666D01*
X11516666Y-863333D01*
X11550000Y-796666D01*
X11583333Y-763333D01*
X11650000Y-730000D01*
X11683333Y-730000D01*
X11750000Y-763333D01*
X11783333Y-796666D01*
X11816666Y-863333D01*
X11816666Y-996666D01*
X11850000Y-1063333D01*
X11883333Y-1096666D01*
X11950000Y-1130000D01*
X12083333Y-1130000D01*
X12150000Y-1096666D01*
X12183333Y-1063333D01*
X12216666Y-996666D01*
X12216666Y-863333D01*
X12183333Y-796666D01*
X12150000Y-763333D01*
X12083333Y-730000D01*
X11950000Y-730000D01*
X11883333Y-763333D01*
X11850000Y-796666D01*
X11816666Y-863333D01*
G04 #@! TO.C,C7*
X7440000Y-5556666D02*
X7473333Y-5590000D01*
X7506666Y-5690000D01*
X7506666Y-5756666D01*
X7473333Y-5856666D01*
X7406666Y-5923333D01*
X7340000Y-5956666D01*
X7206666Y-5990000D01*
X7106666Y-5990000D01*
X6973333Y-5956666D01*
X6906666Y-5923333D01*
X6840000Y-5856666D01*
X6806666Y-5756666D01*
X6806666Y-5690000D01*
X6840000Y-5590000D01*
X6873333Y-5556666D01*
X6806666Y-5323333D02*
X6806666Y-4856666D01*
X7506666Y-5156666D01*
G04 #@! TO.C,C6*
X18750000Y-12626666D02*
X18783333Y-12660000D01*
X18816666Y-12760000D01*
X18816666Y-12826666D01*
X18783333Y-12926666D01*
X18716666Y-12993333D01*
X18650000Y-13026666D01*
X18516666Y-13060000D01*
X18416666Y-13060000D01*
X18283333Y-13026666D01*
X18216666Y-12993333D01*
X18150000Y-12926666D01*
X18116666Y-12826666D01*
X18116666Y-12760000D01*
X18150000Y-12660000D01*
X18183333Y-12626666D01*
X18116666Y-12026666D02*
X18116666Y-12160000D01*
X18150000Y-12226666D01*
X18183333Y-12260000D01*
X18283333Y-12326666D01*
X18416666Y-12360000D01*
X18683333Y-12360000D01*
X18750000Y-12326666D01*
X18783333Y-12293333D01*
X18816666Y-12226666D01*
X18816666Y-12093333D01*
X18783333Y-12026666D01*
X18750000Y-11993333D01*
X18683333Y-11960000D01*
X18516666Y-11960000D01*
X18450000Y-11993333D01*
X18416666Y-12026666D01*
X18383333Y-12093333D01*
X18383333Y-12226666D01*
X18416666Y-12293333D01*
X18450000Y-12326666D01*
X18516666Y-12360000D01*
G04 #@! TO.C,C5*
X16690000Y-12206666D02*
X16723333Y-12240000D01*
X16756666Y-12340000D01*
X16756666Y-12406666D01*
X16723333Y-12506666D01*
X16656666Y-12573333D01*
X16590000Y-12606666D01*
X16456666Y-12640000D01*
X16356666Y-12640000D01*
X16223333Y-12606666D01*
X16156666Y-12573333D01*
X16090000Y-12506666D01*
X16056666Y-12406666D01*
X16056666Y-12340000D01*
X16090000Y-12240000D01*
X16123333Y-12206666D01*
X16056666Y-11573333D02*
X16056666Y-11906666D01*
X16390000Y-11940000D01*
X16356666Y-11906666D01*
X16323333Y-11840000D01*
X16323333Y-11673333D01*
X16356666Y-11606666D01*
X16390000Y-11573333D01*
X16456666Y-11540000D01*
X16623333Y-11540000D01*
X16690000Y-11573333D01*
X16723333Y-11606666D01*
X16756666Y-11673333D01*
X16756666Y-11840000D01*
X16723333Y-11906666D01*
X16690000Y-11940000D01*
G04 #@! TO.C,C4*
X11633333Y-15580000D02*
X11600000Y-15613333D01*
X11500000Y-15646666D01*
X11433333Y-15646666D01*
X11333333Y-15613333D01*
X11266666Y-15546666D01*
X11233333Y-15480000D01*
X11200000Y-15346666D01*
X11200000Y-15246666D01*
X11233333Y-15113333D01*
X11266666Y-15046666D01*
X11333333Y-14980000D01*
X11433333Y-14946666D01*
X11500000Y-14946666D01*
X11600000Y-14980000D01*
X11633333Y-15013333D01*
X12233333Y-15180000D02*
X12233333Y-15646666D01*
X12066666Y-14913333D02*
X11900000Y-15413333D01*
X12333333Y-15413333D01*
G04 #@! TO.C,C3*
X14083333Y-15570000D02*
X14050000Y-15603333D01*
X13950000Y-15636666D01*
X13883333Y-15636666D01*
X13783333Y-15603333D01*
X13716666Y-15536666D01*
X13683333Y-15470000D01*
X13650000Y-15336666D01*
X13650000Y-15236666D01*
X13683333Y-15103333D01*
X13716666Y-15036666D01*
X13783333Y-14970000D01*
X13883333Y-14936666D01*
X13950000Y-14936666D01*
X14050000Y-14970000D01*
X14083333Y-15003333D01*
X14316666Y-14936666D02*
X14750000Y-14936666D01*
X14516666Y-15203333D01*
X14616666Y-15203333D01*
X14683333Y-15236666D01*
X14716666Y-15270000D01*
X14750000Y-15336666D01*
X14750000Y-15503333D01*
X14716666Y-15570000D01*
X14683333Y-15603333D01*
X14616666Y-15636666D01*
X14416666Y-15636666D01*
X14350000Y-15603333D01*
X14316666Y-15570000D01*
G04 #@! TO.C,C2*
X12520000Y-18216666D02*
X12553333Y-18250000D01*
X12586666Y-18350000D01*
X12586666Y-18416666D01*
X12553333Y-18516666D01*
X12486666Y-18583333D01*
X12420000Y-18616666D01*
X12286666Y-18650000D01*
X12186666Y-18650000D01*
X12053333Y-18616666D01*
X11986666Y-18583333D01*
X11920000Y-18516666D01*
X11886666Y-18416666D01*
X11886666Y-18350000D01*
X11920000Y-18250000D01*
X11953333Y-18216666D01*
X11953333Y-17950000D02*
X11920000Y-17916666D01*
X11886666Y-17850000D01*
X11886666Y-17683333D01*
X11920000Y-17616666D01*
X11953333Y-17583333D01*
X12020000Y-17550000D01*
X12086666Y-17550000D01*
X12186666Y-17583333D01*
X12586666Y-17983333D01*
X12586666Y-17550000D01*
G04 #@! TO.C,C12*
X13350000Y-1500000D02*
X13383333Y-1533333D01*
X13416666Y-1633333D01*
X13416666Y-1700000D01*
X13383333Y-1800000D01*
X13316666Y-1866666D01*
X13250000Y-1900000D01*
X13116666Y-1933333D01*
X13016666Y-1933333D01*
X12883333Y-1900000D01*
X12816666Y-1866666D01*
X12750000Y-1800000D01*
X12716666Y-1700000D01*
X12716666Y-1633333D01*
X12750000Y-1533333D01*
X12783333Y-1500000D01*
X13416666Y-833333D02*
X13416666Y-1233333D01*
X13416666Y-1033333D02*
X12716666Y-1033333D01*
X12816666Y-1100000D01*
X12883333Y-1166666D01*
X12916666Y-1233333D01*
X12783333Y-566666D02*
X12750000Y-533333D01*
X12716666Y-466666D01*
X12716666Y-300000D01*
X12750000Y-233333D01*
X12783333Y-200000D01*
X12850000Y-166666D01*
X12916666Y-166666D01*
X13016666Y-200000D01*
X13416666Y-600000D01*
X13416666Y-166666D01*
G04 #@! TO.C,C13*
X14380000Y-1500000D02*
X14413333Y-1533333D01*
X14446666Y-1633333D01*
X14446666Y-1700000D01*
X14413333Y-1800000D01*
X14346666Y-1866666D01*
X14280000Y-1900000D01*
X14146666Y-1933333D01*
X14046666Y-1933333D01*
X13913333Y-1900000D01*
X13846666Y-1866666D01*
X13780000Y-1800000D01*
X13746666Y-1700000D01*
X13746666Y-1633333D01*
X13780000Y-1533333D01*
X13813333Y-1500000D01*
X14446666Y-833333D02*
X14446666Y-1233333D01*
X14446666Y-1033333D02*
X13746666Y-1033333D01*
X13846666Y-1100000D01*
X13913333Y-1166666D01*
X13946666Y-1233333D01*
X13746666Y-600000D02*
X13746666Y-166666D01*
X14013333Y-400000D01*
X14013333Y-300000D01*
X14046666Y-233333D01*
X14080000Y-200000D01*
X14146666Y-166666D01*
X14313333Y-166666D01*
X14380000Y-200000D01*
X14413333Y-233333D01*
X14446666Y-300000D01*
X14446666Y-500000D01*
X14413333Y-566666D01*
X14380000Y-600000D01*
G04 #@! TO.C,C14*
X9040000Y-1664999D02*
X9073333Y-1698333D01*
X9106666Y-1798333D01*
X9106666Y-1864999D01*
X9073333Y-1964999D01*
X9006666Y-2031666D01*
X8940000Y-2064999D01*
X8806666Y-2098333D01*
X8706666Y-2098333D01*
X8573333Y-2064999D01*
X8506666Y-2031666D01*
X8440000Y-1964999D01*
X8406666Y-1864999D01*
X8406666Y-1798333D01*
X8440000Y-1698333D01*
X8473333Y-1664999D01*
X9106666Y-998333D02*
X9106666Y-1398333D01*
X9106666Y-1198333D02*
X8406666Y-1198333D01*
X8506666Y-1265000D01*
X8573333Y-1331666D01*
X8606666Y-1398333D01*
X8640000Y-398333D02*
X9106666Y-398333D01*
X8373333Y-565000D02*
X8873333Y-731666D01*
X8873333Y-298333D01*
G04 #@! TO.C,C1*
X7980000Y-11376666D02*
X8013333Y-11410000D01*
X8046666Y-11510000D01*
X8046666Y-11576666D01*
X8013333Y-11676666D01*
X7946666Y-11743333D01*
X7880000Y-11776666D01*
X7746666Y-11810000D01*
X7646666Y-11810000D01*
X7513333Y-11776666D01*
X7446666Y-11743333D01*
X7380000Y-11676666D01*
X7346666Y-11576666D01*
X7346666Y-11510000D01*
X7380000Y-11410000D01*
X7413333Y-11376666D01*
X8046666Y-10710000D02*
X8046666Y-11110000D01*
X8046666Y-10910000D02*
X7346666Y-10910000D01*
X7446666Y-10976666D01*
X7513333Y-11043333D01*
X7546666Y-11110000D01*
G04 #@! TO.C,R11*
X2906666Y-16040000D02*
X2573333Y-16273333D01*
X2906666Y-16440000D02*
X2206666Y-16440000D01*
X2206666Y-16173333D01*
X2240000Y-16106666D01*
X2273333Y-16073333D01*
X2340000Y-16040000D01*
X2440000Y-16040000D01*
X2506666Y-16073333D01*
X2540000Y-16106666D01*
X2573333Y-16173333D01*
X2573333Y-16440000D01*
X2906666Y-15373333D02*
X2906666Y-15773333D01*
X2906666Y-15573333D02*
X2206666Y-15573333D01*
X2306666Y-15640000D01*
X2373333Y-15706666D01*
X2406666Y-15773333D01*
X2906666Y-14706666D02*
X2906666Y-15106666D01*
X2906666Y-14906666D02*
X2206666Y-14906666D01*
X2306666Y-14973333D01*
X2373333Y-15040000D01*
X2406666Y-15106666D01*
G04 #@! TO.C,R24*
X2946666Y-7010000D02*
X2613333Y-7243333D01*
X2946666Y-7410000D02*
X2246666Y-7410000D01*
X2246666Y-7143333D01*
X2280000Y-7076666D01*
X2313333Y-7043333D01*
X2380000Y-7010000D01*
X2480000Y-7010000D01*
X2546666Y-7043333D01*
X2580000Y-7076666D01*
X2613333Y-7143333D01*
X2613333Y-7410000D01*
X2313333Y-6743333D02*
X2280000Y-6710000D01*
X2246666Y-6643333D01*
X2246666Y-6476666D01*
X2280000Y-6410000D01*
X2313333Y-6376666D01*
X2380000Y-6343333D01*
X2446666Y-6343333D01*
X2546666Y-6376666D01*
X2946666Y-6776666D01*
X2946666Y-6343333D01*
X2480000Y-5743333D02*
X2946666Y-5743333D01*
X2213333Y-5910000D02*
X2713333Y-6076666D01*
X2713333Y-5643333D01*
G04 #@! TO.C,R10*
X15566666Y-1500000D02*
X15233333Y-1733333D01*
X15566666Y-1900000D02*
X14866666Y-1900000D01*
X14866666Y-1633333D01*
X14900000Y-1566666D01*
X14933333Y-1533333D01*
X15000000Y-1500000D01*
X15100000Y-1500000D01*
X15166666Y-1533333D01*
X15200000Y-1566666D01*
X15233333Y-1633333D01*
X15233333Y-1900000D01*
X15566666Y-833333D02*
X15566666Y-1233333D01*
X15566666Y-1033333D02*
X14866666Y-1033333D01*
X14966666Y-1100000D01*
X15033333Y-1166666D01*
X15066666Y-1233333D01*
X14866666Y-400000D02*
X14866666Y-333333D01*
X14900000Y-266666D01*
X14933333Y-233333D01*
X15000000Y-200000D01*
X15133333Y-166666D01*
X15300000Y-166666D01*
X15433333Y-200000D01*
X15500000Y-233333D01*
X15533333Y-266666D01*
X15566666Y-333333D01*
X15566666Y-400000D01*
X15533333Y-466666D01*
X15500000Y-500000D01*
X15433333Y-533333D01*
X15300000Y-566666D01*
X15133333Y-566666D01*
X15000000Y-533333D01*
X14933333Y-500000D01*
X14900000Y-466666D01*
X14866666Y-400000D01*
G04 #@! TO.C,R9*
X6996666Y-1071666D02*
X6663333Y-1305000D01*
X6996666Y-1471666D02*
X6296666Y-1471666D01*
X6296666Y-1205000D01*
X6330000Y-1138333D01*
X6363333Y-1105000D01*
X6430000Y-1071666D01*
X6530000Y-1071666D01*
X6596666Y-1105000D01*
X6630000Y-1138333D01*
X6663333Y-1205000D01*
X6663333Y-1471666D01*
X6996666Y-738333D02*
X6996666Y-605000D01*
X6963333Y-538333D01*
X6930000Y-505000D01*
X6830000Y-438333D01*
X6696666Y-405000D01*
X6430000Y-405000D01*
X6363333Y-438333D01*
X6330000Y-471666D01*
X6296666Y-538333D01*
X6296666Y-671666D01*
X6330000Y-738333D01*
X6363333Y-771666D01*
X6430000Y-805000D01*
X6596666Y-805000D01*
X6663333Y-771666D01*
X6696666Y-738333D01*
X6730000Y-671666D01*
X6730000Y-538333D01*
X6696666Y-471666D01*
X6663333Y-438333D01*
X6596666Y-405000D01*
G04 #@! TO.C,R8*
X5053333Y-15996666D02*
X4820000Y-15663333D01*
X4653333Y-15996666D02*
X4653333Y-15296666D01*
X4920000Y-15296666D01*
X4986666Y-15330000D01*
X5020000Y-15363333D01*
X5053333Y-15430000D01*
X5053333Y-15530000D01*
X5020000Y-15596666D01*
X4986666Y-15630000D01*
X4920000Y-15663333D01*
X4653333Y-15663333D01*
X5453333Y-15596666D02*
X5386666Y-15563333D01*
X5353333Y-15530000D01*
X5320000Y-15463333D01*
X5320000Y-15430000D01*
X5353333Y-15363333D01*
X5386666Y-15330000D01*
X5453333Y-15296666D01*
X5586666Y-15296666D01*
X5653333Y-15330000D01*
X5686666Y-15363333D01*
X5720000Y-15430000D01*
X5720000Y-15463333D01*
X5686666Y-15530000D01*
X5653333Y-15563333D01*
X5586666Y-15596666D01*
X5453333Y-15596666D01*
X5386666Y-15630000D01*
X5353333Y-15663333D01*
X5320000Y-15730000D01*
X5320000Y-15863333D01*
X5353333Y-15930000D01*
X5386666Y-15963333D01*
X5453333Y-15996666D01*
X5586666Y-15996666D01*
X5653333Y-15963333D01*
X5686666Y-15930000D01*
X5720000Y-15863333D01*
X5720000Y-15730000D01*
X5686666Y-15663333D01*
X5653333Y-15630000D01*
X5586666Y-15596666D01*
G04 #@! TO.C,R7*
X5033333Y-14786666D02*
X4800000Y-14453333D01*
X4633333Y-14786666D02*
X4633333Y-14086666D01*
X4900000Y-14086666D01*
X4966666Y-14120000D01*
X5000000Y-14153333D01*
X5033333Y-14220000D01*
X5033333Y-14320000D01*
X5000000Y-14386666D01*
X4966666Y-14420000D01*
X4900000Y-14453333D01*
X4633333Y-14453333D01*
X5266666Y-14086666D02*
X5733333Y-14086666D01*
X5433333Y-14786666D01*
G04 #@! TO.C,R6*
X8008333Y-18221666D02*
X7775000Y-17888333D01*
X7608333Y-18221666D02*
X7608333Y-17521666D01*
X7875000Y-17521666D01*
X7941666Y-17555000D01*
X7975000Y-17588333D01*
X8008333Y-17655000D01*
X8008333Y-17755000D01*
X7975000Y-17821666D01*
X7941666Y-17855000D01*
X7875000Y-17888333D01*
X7608333Y-17888333D01*
X8608333Y-17521666D02*
X8475000Y-17521666D01*
X8408333Y-17555000D01*
X8375000Y-17588333D01*
X8308333Y-17688333D01*
X8275000Y-17821666D01*
X8275000Y-18088333D01*
X8308333Y-18155000D01*
X8341666Y-18188333D01*
X8408333Y-18221666D01*
X8541666Y-18221666D01*
X8608333Y-18188333D01*
X8641666Y-18155000D01*
X8675000Y-18088333D01*
X8675000Y-17921666D01*
X8641666Y-17855000D01*
X8608333Y-17821666D01*
X8541666Y-17788333D01*
X8408333Y-17788333D01*
X8341666Y-17821666D01*
X8308333Y-17855000D01*
X8275000Y-17921666D01*
G04 #@! TO.C,R5*
X8058333Y-19571666D02*
X7825000Y-19238333D01*
X7658333Y-19571666D02*
X7658333Y-18871666D01*
X7925000Y-18871666D01*
X7991666Y-18905000D01*
X8025000Y-18938333D01*
X8058333Y-19005000D01*
X8058333Y-19105000D01*
X8025000Y-19171666D01*
X7991666Y-19205000D01*
X7925000Y-19238333D01*
X7658333Y-19238333D01*
X8691666Y-18871666D02*
X8358333Y-18871666D01*
X8325000Y-19205000D01*
X8358333Y-19171666D01*
X8425000Y-19138333D01*
X8591666Y-19138333D01*
X8658333Y-19171666D01*
X8691666Y-19205000D01*
X8725000Y-19271666D01*
X8725000Y-19438333D01*
X8691666Y-19505000D01*
X8658333Y-19538333D01*
X8591666Y-19571666D01*
X8425000Y-19571666D01*
X8358333Y-19538333D01*
X8325000Y-19505000D01*
G04 #@! TO.C,R2*
X21236666Y-14556666D02*
X20903333Y-14790000D01*
X21236666Y-14956666D02*
X20536666Y-14956666D01*
X20536666Y-14690000D01*
X20570000Y-14623333D01*
X20603333Y-14590000D01*
X20670000Y-14556666D01*
X20770000Y-14556666D01*
X20836666Y-14590000D01*
X20870000Y-14623333D01*
X20903333Y-14690000D01*
X20903333Y-14956666D01*
X20603333Y-14290000D02*
X20570000Y-14256666D01*
X20536666Y-14190000D01*
X20536666Y-14023333D01*
X20570000Y-13956666D01*
X20603333Y-13923333D01*
X20670000Y-13890000D01*
X20736666Y-13890000D01*
X20836666Y-13923333D01*
X21236666Y-14323333D01*
X21236666Y-13890000D01*
G04 #@! TO.C,R1*
X20166666Y-10556666D02*
X19833333Y-10790000D01*
X20166666Y-10956666D02*
X19466666Y-10956666D01*
X19466666Y-10690000D01*
X19500000Y-10623333D01*
X19533333Y-10590000D01*
X19600000Y-10556666D01*
X19700000Y-10556666D01*
X19766666Y-10590000D01*
X19800000Y-10623333D01*
X19833333Y-10690000D01*
X19833333Y-10956666D01*
X20166666Y-9890000D02*
X20166666Y-10290000D01*
X20166666Y-10090000D02*
X19466666Y-10090000D01*
X19566666Y-10156666D01*
X19633333Y-10223333D01*
X19666666Y-10290000D01*
G04 #@! TO.C,R13*
X20421666Y-4240000D02*
X20088333Y-4473333D01*
X20421666Y-4640000D02*
X19721666Y-4640000D01*
X19721666Y-4373333D01*
X19755000Y-4306666D01*
X19788333Y-4273333D01*
X19855000Y-4240000D01*
X19955000Y-4240000D01*
X20021666Y-4273333D01*
X20055000Y-4306666D01*
X20088333Y-4373333D01*
X20088333Y-4640000D01*
X20421666Y-3573333D02*
X20421666Y-3973333D01*
X20421666Y-3773333D02*
X19721666Y-3773333D01*
X19821666Y-3840000D01*
X19888333Y-3906666D01*
X19921666Y-3973333D01*
X19721666Y-3340000D02*
X19721666Y-2906666D01*
X19988333Y-3140000D01*
X19988333Y-3040000D01*
X20021666Y-2973333D01*
X20055000Y-2940000D01*
X20121666Y-2906666D01*
X20288333Y-2906666D01*
X20355000Y-2940000D01*
X20388333Y-2973333D01*
X20421666Y-3040000D01*
X20421666Y-3240000D01*
X20388333Y-3306666D01*
X20355000Y-3340000D01*
G04 #@! TO.C,TP4*
X4586666Y-19743333D02*
X4586666Y-19343333D01*
X5286666Y-19543333D02*
X4586666Y-19543333D01*
X5286666Y-19110000D02*
X4586666Y-19110000D01*
X4586666Y-18843333D01*
X4620000Y-18776666D01*
X4653333Y-18743333D01*
X4720000Y-18710000D01*
X4820000Y-18710000D01*
X4886666Y-18743333D01*
X4920000Y-18776666D01*
X4953333Y-18843333D01*
X4953333Y-19110000D01*
X4820000Y-18110000D02*
X5286666Y-18110000D01*
X4553333Y-18276666D02*
X5053333Y-18443333D01*
X5053333Y-18010000D01*
G04 #@! TO.C,TP9*
X1886666Y-2066666D02*
X2286666Y-2066666D01*
X2086666Y-2766666D02*
X2086666Y-2066666D01*
X2520000Y-2766666D02*
X2520000Y-2066666D01*
X2786666Y-2066666D01*
X2853333Y-2100000D01*
X2886666Y-2133333D01*
X2920000Y-2200000D01*
X2920000Y-2300000D01*
X2886666Y-2366666D01*
X2853333Y-2400000D01*
X2786666Y-2433333D01*
X2520000Y-2433333D01*
X3253333Y-2766666D02*
X3386666Y-2766666D01*
X3453333Y-2733333D01*
X3486666Y-2700000D01*
X3553333Y-2600000D01*
X3586666Y-2466666D01*
X3586666Y-2200000D01*
X3553333Y-2133333D01*
X3519999Y-2100000D01*
X3453333Y-2066666D01*
X3319999Y-2066666D01*
X3253333Y-2100000D01*
X3220000Y-2133333D01*
X3186666Y-2200000D01*
X3186666Y-2366666D01*
X3220000Y-2433333D01*
X3253333Y-2466666D01*
X3319999Y-2500000D01*
X3453333Y-2500000D01*
X3519999Y-2466666D01*
X3553333Y-2433333D01*
X3586666Y-2366666D01*
G04 #@! TO.C,TP7*
X6066666Y-19723333D02*
X6066666Y-19323333D01*
X6766666Y-19523333D02*
X6066666Y-19523333D01*
X6766666Y-19090000D02*
X6066666Y-19090000D01*
X6066666Y-18823333D01*
X6100000Y-18756666D01*
X6133333Y-18723333D01*
X6200000Y-18690000D01*
X6300000Y-18690000D01*
X6366666Y-18723333D01*
X6400000Y-18756666D01*
X6433333Y-18823333D01*
X6433333Y-19090000D01*
X6066666Y-18456666D02*
X6066666Y-17990000D01*
X6766666Y-18290000D01*
G04 #@! TO.C,TP3*
X1786666Y-19743333D02*
X1786666Y-19343333D01*
X2486666Y-19543333D02*
X1786666Y-19543333D01*
X2486666Y-19110000D02*
X1786666Y-19110000D01*
X1786666Y-18843333D01*
X1820000Y-18776666D01*
X1853333Y-18743333D01*
X1920000Y-18710000D01*
X2020000Y-18710000D01*
X2086666Y-18743333D01*
X2120000Y-18776666D01*
X2153333Y-18843333D01*
X2153333Y-19110000D01*
X1786666Y-18476666D02*
X1786666Y-18043333D01*
X2053333Y-18276666D01*
X2053333Y-18176666D01*
X2086666Y-18110000D01*
X2120000Y-18076666D01*
X2186666Y-18043333D01*
X2353333Y-18043333D01*
X2420000Y-18076666D01*
X2453333Y-18110000D01*
X2486666Y-18176666D01*
X2486666Y-18376666D01*
X2453333Y-18443333D01*
X2420000Y-18476666D01*
G04 #@! TO.C,TP1*
X17376666Y-416666D02*
X17776666Y-416666D01*
X17576666Y-1116666D02*
X17576666Y-416666D01*
X18010000Y-1116666D02*
X18010000Y-416666D01*
X18276666Y-416666D01*
X18343333Y-450000D01*
X18376666Y-483333D01*
X18410000Y-550000D01*
X18410000Y-650000D01*
X18376666Y-716666D01*
X18343333Y-750000D01*
X18276666Y-783333D01*
X18010000Y-783333D01*
X19076666Y-1116666D02*
X18676666Y-1116666D01*
X18876666Y-1116666D02*
X18876666Y-416666D01*
X18810000Y-516666D01*
X18743333Y-583333D01*
X18676666Y-616666D01*
G04 #@! TO.C,TP2*
X9486666Y-356666D02*
X9886666Y-356666D01*
X9686666Y-1056666D02*
X9686666Y-356666D01*
X10120000Y-1056666D02*
X10120000Y-356666D01*
X10386666Y-356666D01*
X10453333Y-390000D01*
X10486666Y-423333D01*
X10520000Y-490000D01*
X10520000Y-590000D01*
X10486666Y-656666D01*
X10453333Y-690000D01*
X10386666Y-723333D01*
X10120000Y-723333D01*
X10786666Y-423333D02*
X10820000Y-390000D01*
X10886666Y-356666D01*
X11053333Y-356666D01*
X11120000Y-390000D01*
X11153333Y-423333D01*
X11186666Y-490000D01*
X11186666Y-556666D01*
X11153333Y-656666D01*
X10753333Y-1056666D01*
X11186666Y-1056666D01*
G04 #@! TO.C,TP8*
X3106666Y-19743333D02*
X3106666Y-19343333D01*
X3806666Y-19543333D02*
X3106666Y-19543333D01*
X3806666Y-19110000D02*
X3106666Y-19110000D01*
X3106666Y-18843333D01*
X3140000Y-18776666D01*
X3173333Y-18743333D01*
X3240000Y-18710000D01*
X3340000Y-18710000D01*
X3406666Y-18743333D01*
X3440000Y-18776666D01*
X3473333Y-18843333D01*
X3473333Y-19110000D01*
X3406666Y-18310000D02*
X3373333Y-18376666D01*
X3340000Y-18410000D01*
X3273333Y-18443333D01*
X3240000Y-18443333D01*
X3173333Y-18410000D01*
X3140000Y-18376666D01*
X3106666Y-18310000D01*
X3106666Y-18176666D01*
X3140000Y-18110000D01*
X3173333Y-18076666D01*
X3240000Y-18043333D01*
X3273333Y-18043333D01*
X3340000Y-18076666D01*
X3373333Y-18110000D01*
X3406666Y-18176666D01*
X3406666Y-18310000D01*
X3440000Y-18376666D01*
X3473333Y-18410000D01*
X3540000Y-18443333D01*
X3673333Y-18443333D01*
X3740000Y-18410000D01*
X3773333Y-18376666D01*
X3806666Y-18310000D01*
X3806666Y-18176666D01*
X3773333Y-18110000D01*
X3740000Y-18076666D01*
X3673333Y-18043333D01*
X3540000Y-18043333D01*
X3473333Y-18076666D01*
X3440000Y-18110000D01*
X3406666Y-18176666D01*
G04 #@! TO.C,TP11*
X716666Y-3036666D02*
X716666Y-2636666D01*
X1416666Y-2836666D02*
X716666Y-2836666D01*
X1416666Y-2403333D02*
X716666Y-2403333D01*
X716666Y-2136666D01*
X750000Y-2070000D01*
X783333Y-2036666D01*
X850000Y-2003333D01*
X950000Y-2003333D01*
X1016666Y-2036666D01*
X1050000Y-2070000D01*
X1083333Y-2136666D01*
X1083333Y-2403333D01*
X1416666Y-1336666D02*
X1416666Y-1736666D01*
X1416666Y-1536666D02*
X716666Y-1536666D01*
X816666Y-1603333D01*
X883333Y-1670000D01*
X916666Y-1736666D01*
X1416666Y-670000D02*
X1416666Y-1070000D01*
X1416666Y-870000D02*
X716666Y-870000D01*
X816666Y-936666D01*
X883333Y-1003333D01*
X916666Y-1070000D01*
G04 #@! TO.C,TP12*
X393333Y-4536666D02*
X793333Y-4536666D01*
X593333Y-5236666D02*
X593333Y-4536666D01*
X1026666Y-5236666D02*
X1026666Y-4536666D01*
X1293333Y-4536666D01*
X1359999Y-4570000D01*
X1393333Y-4603333D01*
X1426666Y-4670000D01*
X1426666Y-4770000D01*
X1393333Y-4836666D01*
X1359999Y-4870000D01*
X1293333Y-4903333D01*
X1026666Y-4903333D01*
X2093333Y-5236666D02*
X1693333Y-5236666D01*
X1893333Y-5236666D02*
X1893333Y-4536666D01*
X1826666Y-4636666D01*
X1759999Y-4703333D01*
X1693333Y-4736666D01*
X2359999Y-4603333D02*
X2393333Y-4570000D01*
X2459999Y-4536666D01*
X2626666Y-4536666D01*
X2693333Y-4570000D01*
X2726666Y-4603333D01*
X2759999Y-4670000D01*
X2759999Y-4736666D01*
X2726666Y-4836666D01*
X2326666Y-5236666D01*
X2759999Y-5236666D01*
G04 #@! TO.C,TP10*
X4163333Y-2096666D02*
X4563333Y-2096666D01*
X4363333Y-2796666D02*
X4363333Y-2096666D01*
X4796666Y-2796666D02*
X4796666Y-2096666D01*
X5063333Y-2096666D01*
X5130000Y-2130000D01*
X5163333Y-2163333D01*
X5196666Y-2230000D01*
X5196666Y-2330000D01*
X5163333Y-2396666D01*
X5130000Y-2430000D01*
X5063333Y-2463333D01*
X4796666Y-2463333D01*
X5863333Y-2796666D02*
X5463333Y-2796666D01*
X5663333Y-2796666D02*
X5663333Y-2096666D01*
X5596666Y-2196666D01*
X5530000Y-2263333D01*
X5463333Y-2296666D01*
X6296666Y-2096666D02*
X6363333Y-2096666D01*
X6430000Y-2130000D01*
X6463333Y-2163333D01*
X6496666Y-2230000D01*
X6530000Y-2363333D01*
X6530000Y-2530000D01*
X6496666Y-2663333D01*
X6463333Y-2730000D01*
X6430000Y-2763333D01*
X6363333Y-2796666D01*
X6296666Y-2796666D01*
X6230000Y-2763333D01*
X6196666Y-2730000D01*
X6163333Y-2663333D01*
X6129999Y-2530000D01*
X6129999Y-2363333D01*
X6163333Y-2230000D01*
X6196666Y-2163333D01*
X6230000Y-2130000D01*
X6296666Y-2096666D01*
G04 #@! TO.C,C15*
X8030000Y-1694999D02*
X8063333Y-1728333D01*
X8096666Y-1828333D01*
X8096666Y-1894999D01*
X8063333Y-1994999D01*
X7996666Y-2061666D01*
X7930000Y-2094999D01*
X7796666Y-2128333D01*
X7696666Y-2128333D01*
X7563333Y-2094999D01*
X7496666Y-2061666D01*
X7430000Y-1994999D01*
X7396666Y-1894999D01*
X7396666Y-1828333D01*
X7430000Y-1728333D01*
X7463333Y-1694999D01*
X8096666Y-1028333D02*
X8096666Y-1428333D01*
X8096666Y-1228333D02*
X7396666Y-1228333D01*
X7496666Y-1294999D01*
X7563333Y-1361666D01*
X7596666Y-1428333D01*
X7396666Y-395000D02*
X7396666Y-728333D01*
X7730000Y-761666D01*
X7696666Y-728333D01*
X7663333Y-661666D01*
X7663333Y-495000D01*
X7696666Y-428333D01*
X7730000Y-395000D01*
X7796666Y-361666D01*
X7963333Y-361666D01*
X8030000Y-395000D01*
X8063333Y-428333D01*
X8096666Y-495000D01*
X8096666Y-661666D01*
X8063333Y-728333D01*
X8030000Y-761666D01*
G04 #@! TO.C,C9*
X7013333Y-9850000D02*
X6980000Y-9883333D01*
X6880000Y-9916666D01*
X6813333Y-9916666D01*
X6713333Y-9883333D01*
X6646666Y-9816666D01*
X6613333Y-9750000D01*
X6580000Y-9616666D01*
X6580000Y-9516666D01*
X6613333Y-9383333D01*
X6646666Y-9316666D01*
X6713333Y-9250000D01*
X6813333Y-9216666D01*
X6880000Y-9216666D01*
X6980000Y-9250000D01*
X7013333Y-9283333D01*
X7346666Y-9916666D02*
X7480000Y-9916666D01*
X7546666Y-9883333D01*
X7580000Y-9850000D01*
X7646666Y-9750000D01*
X7680000Y-9616666D01*
X7680000Y-9350000D01*
X7646666Y-9283333D01*
X7613333Y-9250000D01*
X7546666Y-9216666D01*
X7413333Y-9216666D01*
X7346666Y-9250000D01*
X7313333Y-9283333D01*
X7280000Y-9350000D01*
X7280000Y-9516666D01*
X7313333Y-9583333D01*
X7346666Y-9616666D01*
X7413333Y-9650000D01*
X7546666Y-9650000D01*
X7613333Y-9616666D01*
X7646666Y-9583333D01*
X7680000Y-9516666D01*
G04 #@! TO.C,C11*
X5250000Y-12870000D02*
X5283333Y-12903333D01*
X5316666Y-13003333D01*
X5316666Y-13070000D01*
X5283333Y-13170000D01*
X5216666Y-13236666D01*
X5150000Y-13270000D01*
X5016666Y-13303333D01*
X4916666Y-13303333D01*
X4783333Y-13270000D01*
X4716666Y-13236666D01*
X4650000Y-13170000D01*
X4616666Y-13070000D01*
X4616666Y-13003333D01*
X4650000Y-12903333D01*
X4683333Y-12870000D01*
X5316666Y-12203333D02*
X5316666Y-12603333D01*
X5316666Y-12403333D02*
X4616666Y-12403333D01*
X4716666Y-12470000D01*
X4783333Y-12536666D01*
X4816666Y-12603333D01*
X5316666Y-11536666D02*
X5316666Y-11936666D01*
X5316666Y-11736666D02*
X4616666Y-11736666D01*
X4716666Y-11803333D01*
X4783333Y-11870000D01*
X4816666Y-11936666D01*
G04 #@! TO.C,R23*
X14990000Y-4896666D02*
X14756666Y-4563333D01*
X14590000Y-4896666D02*
X14590000Y-4196666D01*
X14856666Y-4196666D01*
X14923333Y-4230000D01*
X14956666Y-4263333D01*
X14990000Y-4330000D01*
X14990000Y-4430000D01*
X14956666Y-4496666D01*
X14923333Y-4530000D01*
X14856666Y-4563333D01*
X14590000Y-4563333D01*
X15256666Y-4263333D02*
X15290000Y-4230000D01*
X15356666Y-4196666D01*
X15523333Y-4196666D01*
X15590000Y-4230000D01*
X15623333Y-4263333D01*
X15656666Y-4330000D01*
X15656666Y-4396666D01*
X15623333Y-4496666D01*
X15223333Y-4896666D01*
X15656666Y-4896666D01*
X15890000Y-4196666D02*
X16323333Y-4196666D01*
X16090000Y-4463333D01*
X16190000Y-4463333D01*
X16256666Y-4496666D01*
X16290000Y-4530000D01*
X16323333Y-4596666D01*
X16323333Y-4763333D01*
X16290000Y-4830000D01*
X16256666Y-4863333D01*
X16190000Y-4896666D01*
X15990000Y-4896666D01*
X15923333Y-4863333D01*
X15890000Y-4830000D01*
G04 #@! TO.C,R22*
X23080000Y-13096666D02*
X22846666Y-12763333D01*
X22680000Y-13096666D02*
X22680000Y-12396666D01*
X22946666Y-12396666D01*
X23013333Y-12430000D01*
X23046666Y-12463333D01*
X23080000Y-12530000D01*
X23080000Y-12630000D01*
X23046666Y-12696666D01*
X23013333Y-12730000D01*
X22946666Y-12763333D01*
X22680000Y-12763333D01*
X23346666Y-12463333D02*
X23380000Y-12430000D01*
X23446666Y-12396666D01*
X23613333Y-12396666D01*
X23680000Y-12430000D01*
X23713333Y-12463333D01*
X23746666Y-12530000D01*
X23746666Y-12596666D01*
X23713333Y-12696666D01*
X23313333Y-13096666D01*
X23746666Y-13096666D01*
X24013333Y-12463333D02*
X24046666Y-12430000D01*
X24113333Y-12396666D01*
X24280000Y-12396666D01*
X24346666Y-12430000D01*
X24380000Y-12463333D01*
X24413333Y-12530000D01*
X24413333Y-12596666D01*
X24380000Y-12696666D01*
X23980000Y-13096666D01*
X24413333Y-13096666D01*
G04 #@! TO.C,R21*
X23060000Y-12026666D02*
X22826666Y-11693333D01*
X22660000Y-12026666D02*
X22660000Y-11326666D01*
X22926666Y-11326666D01*
X22993333Y-11360000D01*
X23026666Y-11393333D01*
X23060000Y-11460000D01*
X23060000Y-11560000D01*
X23026666Y-11626666D01*
X22993333Y-11660000D01*
X22926666Y-11693333D01*
X22660000Y-11693333D01*
X23326666Y-11393333D02*
X23360000Y-11360000D01*
X23426666Y-11326666D01*
X23593333Y-11326666D01*
X23660000Y-11360000D01*
X23693333Y-11393333D01*
X23726666Y-11460000D01*
X23726666Y-11526666D01*
X23693333Y-11626666D01*
X23293333Y-12026666D01*
X23726666Y-12026666D01*
X24393333Y-12026666D02*
X23993333Y-12026666D01*
X24193333Y-12026666D02*
X24193333Y-11326666D01*
X24126666Y-11426666D01*
X24060000Y-11493333D01*
X23993333Y-11526666D01*
G04 #@! TO.C,R20*
X23075000Y-11086666D02*
X22841666Y-10753333D01*
X22675000Y-11086666D02*
X22675000Y-10386666D01*
X22941666Y-10386666D01*
X23008333Y-10420000D01*
X23041666Y-10453333D01*
X23075000Y-10520000D01*
X23075000Y-10620000D01*
X23041666Y-10686666D01*
X23008333Y-10720000D01*
X22941666Y-10753333D01*
X22675000Y-10753333D01*
X23341666Y-10453333D02*
X23375000Y-10420000D01*
X23441666Y-10386666D01*
X23608333Y-10386666D01*
X23675000Y-10420000D01*
X23708333Y-10453333D01*
X23741666Y-10520000D01*
X23741666Y-10586666D01*
X23708333Y-10686666D01*
X23308333Y-11086666D01*
X23741666Y-11086666D01*
X24175000Y-10386666D02*
X24241666Y-10386666D01*
X24308333Y-10420000D01*
X24341666Y-10453333D01*
X24375000Y-10520000D01*
X24408333Y-10653333D01*
X24408333Y-10820000D01*
X24375000Y-10953333D01*
X24341666Y-11020000D01*
X24308333Y-11053333D01*
X24241666Y-11086666D01*
X24175000Y-11086666D01*
X24108333Y-11053333D01*
X24075000Y-11020000D01*
X24041666Y-10953333D01*
X24008333Y-10820000D01*
X24008333Y-10653333D01*
X24041666Y-10520000D01*
X24075000Y-10453333D01*
X24108333Y-10420000D01*
X24175000Y-10386666D01*
G04 #@! TO.C,R19*
X23030000Y-10026666D02*
X22796666Y-9693333D01*
X22630000Y-10026666D02*
X22630000Y-9326666D01*
X22896666Y-9326666D01*
X22963333Y-9360000D01*
X22996666Y-9393333D01*
X23030000Y-9460000D01*
X23030000Y-9560000D01*
X22996666Y-9626666D01*
X22963333Y-9660000D01*
X22896666Y-9693333D01*
X22630000Y-9693333D01*
X23696666Y-10026666D02*
X23296666Y-10026666D01*
X23496666Y-10026666D02*
X23496666Y-9326666D01*
X23430000Y-9426666D01*
X23363333Y-9493333D01*
X23296666Y-9526666D01*
X24030000Y-10026666D02*
X24163333Y-10026666D01*
X24230000Y-9993333D01*
X24263333Y-9960000D01*
X24330000Y-9860000D01*
X24363333Y-9726666D01*
X24363333Y-9460000D01*
X24330000Y-9393333D01*
X24296666Y-9360000D01*
X24230000Y-9326666D01*
X24096666Y-9326666D01*
X24030000Y-9360000D01*
X23996666Y-9393333D01*
X23963333Y-9460000D01*
X23963333Y-9626666D01*
X23996666Y-9693333D01*
X24030000Y-9726666D01*
X24096666Y-9760000D01*
X24230000Y-9760000D01*
X24296666Y-9726666D01*
X24330000Y-9693333D01*
X24363333Y-9626666D01*
G04 #@! TO.C,R18*
X23000000Y-6686666D02*
X22766666Y-6353333D01*
X22600000Y-6686666D02*
X22600000Y-5986666D01*
X22866666Y-5986666D01*
X22933333Y-6020000D01*
X22966666Y-6053333D01*
X23000000Y-6120000D01*
X23000000Y-6220000D01*
X22966666Y-6286666D01*
X22933333Y-6320000D01*
X22866666Y-6353333D01*
X22600000Y-6353333D01*
X23666666Y-6686666D02*
X23266666Y-6686666D01*
X23466666Y-6686666D02*
X23466666Y-5986666D01*
X23400000Y-6086666D01*
X23333333Y-6153333D01*
X23266666Y-6186666D01*
X24066666Y-6286666D02*
X24000000Y-6253333D01*
X23966666Y-6220000D01*
X23933333Y-6153333D01*
X23933333Y-6120000D01*
X23966666Y-6053333D01*
X24000000Y-6020000D01*
X24066666Y-5986666D01*
X24200000Y-5986666D01*
X24266666Y-6020000D01*
X24300000Y-6053333D01*
X24333333Y-6120000D01*
X24333333Y-6153333D01*
X24300000Y-6220000D01*
X24266666Y-6253333D01*
X24200000Y-6286666D01*
X24066666Y-6286666D01*
X24000000Y-6320000D01*
X23966666Y-6353333D01*
X23933333Y-6420000D01*
X23933333Y-6553333D01*
X23966666Y-6620000D01*
X24000000Y-6653333D01*
X24066666Y-6686666D01*
X24200000Y-6686666D01*
X24266666Y-6653333D01*
X24300000Y-6620000D01*
X24333333Y-6553333D01*
X24333333Y-6420000D01*
X24300000Y-6353333D01*
X24266666Y-6320000D01*
X24200000Y-6286666D01*
G04 #@! TO.C,R14*
X18756666Y-9080000D02*
X18423333Y-9313333D01*
X18756666Y-9480000D02*
X18056666Y-9480000D01*
X18056666Y-9213333D01*
X18090000Y-9146666D01*
X18123333Y-9113333D01*
X18190000Y-9080000D01*
X18290000Y-9080000D01*
X18356666Y-9113333D01*
X18390000Y-9146666D01*
X18423333Y-9213333D01*
X18423333Y-9480000D01*
X18756666Y-8413333D02*
X18756666Y-8813333D01*
X18756666Y-8613333D02*
X18056666Y-8613333D01*
X18156666Y-8680000D01*
X18223333Y-8746666D01*
X18256666Y-8813333D01*
X18290000Y-7813333D02*
X18756666Y-7813333D01*
X18023333Y-7980000D02*
X18523333Y-8146666D01*
X18523333Y-7713333D01*
G04 #@! TO.C,R12*
X18686666Y-6750000D02*
X18353333Y-6983333D01*
X18686666Y-7150000D02*
X17986666Y-7150000D01*
X17986666Y-6883333D01*
X18020000Y-6816666D01*
X18053333Y-6783333D01*
X18120000Y-6750000D01*
X18220000Y-6750000D01*
X18286666Y-6783333D01*
X18320000Y-6816666D01*
X18353333Y-6883333D01*
X18353333Y-7150000D01*
X18686666Y-6083333D02*
X18686666Y-6483333D01*
X18686666Y-6283333D02*
X17986666Y-6283333D01*
X18086666Y-6350000D01*
X18153333Y-6416666D01*
X18186666Y-6483333D01*
X18053333Y-5816666D02*
X18020000Y-5783333D01*
X17986666Y-5716666D01*
X17986666Y-5550000D01*
X18020000Y-5483333D01*
X18053333Y-5450000D01*
X18120000Y-5416666D01*
X18186666Y-5416666D01*
X18286666Y-5450000D01*
X18686666Y-5850000D01*
X18686666Y-5416666D01*
G04 #@! TO.C,TP17*
X17453333Y-1686666D02*
X17853333Y-1686666D01*
X17653333Y-2386666D02*
X17653333Y-1686666D01*
X18086666Y-2386666D02*
X18086666Y-1686666D01*
X18353333Y-1686666D01*
X18420000Y-1720000D01*
X18453333Y-1753333D01*
X18486666Y-1820000D01*
X18486666Y-1920000D01*
X18453333Y-1986666D01*
X18420000Y-2020000D01*
X18353333Y-2053333D01*
X18086666Y-2053333D01*
X19153333Y-2386666D02*
X18753333Y-2386666D01*
X18953333Y-2386666D02*
X18953333Y-1686666D01*
X18886666Y-1786666D01*
X18820000Y-1853333D01*
X18753333Y-1886666D01*
X19386666Y-1686666D02*
X19853333Y-1686666D01*
X19553333Y-2386666D01*
G04 #@! TD*
M02*
