G04 #@! TF.GenerationSoftware,KiCad,Pcbnew,5.0.2+dfsg1-1~bpo9+1*
G04 #@! TF.CreationDate,2019-10-17T17:45:34+02:00*
G04 #@! TF.ProjectId,zglue-dragon-adapter,7a676c75-652d-4647-9261-676f6e2d6164,rev?*
G04 #@! TF.SameCoordinates,Original*
G04 #@! TF.FileFunction,Other,User*
%FSLAX46Y46*%
G04 Gerber Fmt 4.6, Leading zero omitted, Abs format (unit mm)*
G04 Created by KiCad (PCBNEW 5.0.2+dfsg1-1~bpo9+1) date Thu 17 Oct 2019 05:45:34 PM CEST*
%MOMM*%
%LPD*%
G01*
G04 APERTURE LIST*
%ADD10C,0.050000*%
G04 APERTURE END LIST*
D10*
G04 #@! TO.C,C8*
X12220000Y-2120000D02*
X12220000Y-3980000D01*
X11280000Y-2120000D02*
X12220000Y-2120000D01*
X11280000Y-3980000D02*
X11280000Y-2120000D01*
X12220000Y-3980000D02*
X11280000Y-3980000D01*
G04 #@! TO.C,C7*
X7045000Y-6275000D02*
X7045000Y-8135000D01*
X6105000Y-6275000D02*
X7045000Y-6275000D01*
X6105000Y-8135000D02*
X6105000Y-6275000D01*
X7045000Y-8135000D02*
X6105000Y-8135000D01*
G04 #@! TO.C,C6*
X16680000Y-14650000D02*
X16680000Y-12790000D01*
X17620000Y-14650000D02*
X16680000Y-14650000D01*
X17620000Y-12790000D02*
X17620000Y-14650000D01*
X16680000Y-12790000D02*
X17620000Y-12790000D01*
G04 #@! TO.C,C5*
X17630000Y-10740000D02*
X17630000Y-12600000D01*
X16690000Y-10740000D02*
X17630000Y-10740000D01*
X16690000Y-12600000D02*
X16690000Y-10740000D01*
X17630000Y-12600000D02*
X16690000Y-12600000D01*
G04 #@! TO.C,C4*
X11270000Y-18790000D02*
X11270000Y-16930000D01*
X12210000Y-18790000D02*
X11270000Y-18790000D01*
X12210000Y-16930000D02*
X12210000Y-18790000D01*
X11270000Y-16930000D02*
X12210000Y-16930000D01*
G04 #@! TO.C,C3*
X8095000Y-6275000D02*
X8095000Y-8135000D01*
X7155000Y-6275000D02*
X8095000Y-6275000D01*
X7155000Y-8135000D02*
X7155000Y-6275000D01*
X8095000Y-8135000D02*
X7155000Y-8135000D01*
G04 #@! TO.C,C2*
X17730000Y-14650000D02*
X17730000Y-12790000D01*
X18670000Y-14650000D02*
X17730000Y-14650000D01*
X18670000Y-12790000D02*
X18670000Y-14650000D01*
X17730000Y-12790000D02*
X18670000Y-12790000D01*
G04 #@! TO.C,C10*
X9785000Y-17505000D02*
X9785000Y-15645000D01*
X10725000Y-17505000D02*
X9785000Y-17505000D01*
X10725000Y-15645000D02*
X10725000Y-17505000D01*
X9785000Y-15645000D02*
X10725000Y-15645000D01*
G04 #@! TO.C,C12*
X13640000Y-2070000D02*
X13640000Y-3930000D01*
X12700000Y-2070000D02*
X13640000Y-2070000D01*
X12700000Y-3930000D02*
X12700000Y-2070000D01*
X13640000Y-3930000D02*
X12700000Y-3930000D01*
G04 #@! TO.C,C13*
X14650000Y-2070000D02*
X14650000Y-3930000D01*
X13710000Y-2070000D02*
X14650000Y-2070000D01*
X13710000Y-3930000D02*
X13710000Y-2070000D01*
X14650000Y-3930000D02*
X13710000Y-3930000D01*
G04 #@! TO.C,C14*
X10140000Y-2775000D02*
X10140000Y-4635000D01*
X9200000Y-2775000D02*
X10140000Y-2775000D01*
X9200000Y-4635000D02*
X9200000Y-2775000D01*
X10140000Y-4635000D02*
X9200000Y-4635000D01*
G04 #@! TO.C,C1*
X18680000Y-10740000D02*
X18680000Y-12600000D01*
X17740000Y-10740000D02*
X18680000Y-10740000D01*
X17740000Y-12600000D02*
X17740000Y-10740000D01*
X18680000Y-12600000D02*
X17740000Y-12600000D01*
G04 #@! TO.C,R11*
X5370000Y-13640000D02*
X3510000Y-13640000D01*
X5370000Y-12700000D02*
X5370000Y-13640000D01*
X3510000Y-12700000D02*
X5370000Y-12700000D01*
X3510000Y-13640000D02*
X3510000Y-12700000D01*
G04 #@! TO.C,R24*
X4505000Y-6895000D02*
X4505000Y-8755000D01*
X3565000Y-6895000D02*
X4505000Y-6895000D01*
X3565000Y-8755000D02*
X3565000Y-6895000D01*
X4505000Y-8755000D02*
X3565000Y-8755000D01*
G04 #@! TO.C,R10*
X14720000Y-3930000D02*
X14720000Y-2070000D01*
X15660000Y-3930000D02*
X14720000Y-3930000D01*
X15660000Y-2070000D02*
X15660000Y-3930000D01*
X14720000Y-2070000D02*
X15660000Y-2070000D01*
G04 #@! TO.C,R9*
X7170000Y-4635000D02*
X7170000Y-2775000D01*
X8110000Y-4635000D02*
X7170000Y-4635000D01*
X8110000Y-2775000D02*
X8110000Y-4635000D01*
X7170000Y-2775000D02*
X8110000Y-2775000D01*
G04 #@! TO.C,R8*
X7940000Y-16130000D02*
X6080000Y-16130000D01*
X7940000Y-15190000D02*
X7940000Y-16130000D01*
X6080000Y-15190000D02*
X7940000Y-15190000D01*
X6080000Y-16130000D02*
X6080000Y-15190000D01*
G04 #@! TO.C,R7*
X7930000Y-15040000D02*
X6070000Y-15040000D01*
X7930000Y-14100000D02*
X7930000Y-15040000D01*
X6070000Y-14100000D02*
X7930000Y-14100000D01*
X6070000Y-15040000D02*
X6070000Y-14100000D01*
G04 #@! TO.C,R6*
X9195000Y-17685000D02*
X11055000Y-17685000D01*
X9195000Y-18625000D02*
X9195000Y-17685000D01*
X11055000Y-18625000D02*
X9195000Y-18625000D01*
X11055000Y-17685000D02*
X11055000Y-18625000D01*
G04 #@! TO.C,R5*
X9195000Y-18685000D02*
X11055000Y-18685000D01*
X9195000Y-19625000D02*
X9195000Y-18685000D01*
X11055000Y-19625000D02*
X9195000Y-19625000D01*
X11055000Y-18685000D02*
X11055000Y-19625000D01*
G04 #@! TO.C,R4*
X12350000Y-17720000D02*
X12350000Y-15860000D01*
X13290000Y-17720000D02*
X12350000Y-17720000D01*
X13290000Y-15860000D02*
X13290000Y-17720000D01*
X12350000Y-15860000D02*
X13290000Y-15860000D01*
G04 #@! TO.C,R3*
X5105000Y-8135000D02*
X5105000Y-6275000D01*
X6045000Y-8135000D02*
X5105000Y-8135000D01*
X6045000Y-6275000D02*
X6045000Y-8135000D01*
X5105000Y-6275000D02*
X6045000Y-6275000D01*
G04 #@! TO.C,R2*
X18780000Y-14650000D02*
X18780000Y-12790000D01*
X19720000Y-14650000D02*
X18780000Y-14650000D01*
X19720000Y-12790000D02*
X19720000Y-14650000D01*
X18780000Y-12790000D02*
X19720000Y-12790000D01*
G04 #@! TO.C,R1*
X19720000Y-10740000D02*
X19720000Y-12600000D01*
X18780000Y-10740000D02*
X19720000Y-10740000D01*
X18780000Y-12600000D02*
X18780000Y-10740000D01*
X19720000Y-12600000D02*
X18780000Y-12600000D01*
G04 #@! TO.C,R13*
X19485000Y-2770000D02*
X19485000Y-4630000D01*
X18545000Y-2770000D02*
X19485000Y-2770000D01*
X18545000Y-4630000D02*
X18545000Y-2770000D01*
X19485000Y-4630000D02*
X18545000Y-4630000D01*
G04 #@! TO.C,C15*
X9120000Y-2775000D02*
X9120000Y-4635000D01*
X8180000Y-2775000D02*
X9120000Y-2775000D01*
X8180000Y-4635000D02*
X8180000Y-2775000D01*
X9120000Y-4635000D02*
X8180000Y-4635000D01*
G04 #@! TO.C,C9*
X6195000Y-8185000D02*
X8055000Y-8185000D01*
X6195000Y-9125000D02*
X6195000Y-8185000D01*
X8055000Y-9125000D02*
X6195000Y-9125000D01*
X8055000Y-8185000D02*
X8055000Y-9125000D01*
G04 #@! TO.C,C11*
X7255000Y-13035000D02*
X7255000Y-11175000D01*
X8195000Y-13035000D02*
X7255000Y-13035000D01*
X8195000Y-11175000D02*
X8195000Y-13035000D01*
X7255000Y-11175000D02*
X8195000Y-11175000D01*
G04 #@! TO.C,R23*
X18435000Y-4700000D02*
X16575000Y-4700000D01*
X18435000Y-3760000D02*
X18435000Y-4700000D01*
X16575000Y-3760000D02*
X18435000Y-3760000D01*
X16575000Y-4700000D02*
X16575000Y-3760000D01*
G04 #@! TO.C,R22*
X22680000Y-11720000D02*
X20820000Y-11720000D01*
X22680000Y-10780000D02*
X22680000Y-11720000D01*
X20820000Y-10780000D02*
X22680000Y-10780000D01*
X20820000Y-11720000D02*
X20820000Y-10780000D01*
G04 #@! TO.C,R21*
X22680000Y-10720000D02*
X20820000Y-10720000D01*
X22680000Y-9780000D02*
X22680000Y-10720000D01*
X20820000Y-9780000D02*
X22680000Y-9780000D01*
X20820000Y-10720000D02*
X20820000Y-9780000D01*
G04 #@! TO.C,R20*
X22680000Y-9720000D02*
X20820000Y-9720000D01*
X22680000Y-8780000D02*
X22680000Y-9720000D01*
X20820000Y-8780000D02*
X22680000Y-8780000D01*
X20820000Y-9720000D02*
X20820000Y-8780000D01*
G04 #@! TO.C,R19*
X22680000Y-8720000D02*
X20820000Y-8720000D01*
X22680000Y-7780000D02*
X22680000Y-8720000D01*
X20820000Y-7780000D02*
X22680000Y-7780000D01*
X20820000Y-8720000D02*
X20820000Y-7780000D01*
G04 #@! TO.C,R18*
X22680000Y-7720000D02*
X20820000Y-7720000D01*
X22680000Y-6780000D02*
X22680000Y-7720000D01*
X20820000Y-6780000D02*
X22680000Y-6780000D01*
X20820000Y-7720000D02*
X20820000Y-6780000D01*
G04 #@! TO.C,R17*
X22680000Y-6720000D02*
X20820000Y-6720000D01*
X22680000Y-5780000D02*
X22680000Y-6720000D01*
X20820000Y-5780000D02*
X22680000Y-5780000D01*
X20820000Y-6720000D02*
X20820000Y-5780000D01*
G04 #@! TO.C,R16*
X22680000Y-5720000D02*
X20820000Y-5720000D01*
X22680000Y-4780000D02*
X22680000Y-5720000D01*
X20820000Y-4780000D02*
X22680000Y-4780000D01*
X20820000Y-5720000D02*
X20820000Y-4780000D01*
G04 #@! TO.C,R15*
X22680000Y-4720000D02*
X20820000Y-4720000D01*
X22680000Y-3780000D02*
X22680000Y-4720000D01*
X20820000Y-3780000D02*
X22680000Y-3780000D01*
X20820000Y-4720000D02*
X20820000Y-3780000D01*
G04 #@! TO.C,R14*
X17695000Y-8320000D02*
X17695000Y-10180000D01*
X16755000Y-8320000D02*
X17695000Y-8320000D01*
X16755000Y-10180000D02*
X16755000Y-8320000D01*
X17695000Y-10180000D02*
X16755000Y-10180000D01*
G04 #@! TO.C,R12*
X16755000Y-7430000D02*
X16755000Y-5570000D01*
X17695000Y-7430000D02*
X16755000Y-7430000D01*
X17695000Y-5570000D02*
X17695000Y-7430000D01*
X16755000Y-5570000D02*
X17695000Y-5570000D01*
G04 #@! TD*
M02*
