G04 #@! TF.GenerationSoftware,KiCad,Pcbnew,5.0.2+dfsg1-1~bpo9+1*
G04 #@! TF.CreationDate,2019-10-17T17:45:34+02:00*
G04 #@! TF.ProjectId,zglue-dragon-adapter,7a676c75-652d-4647-9261-676f6e2d6164,rev?*
G04 #@! TF.SameCoordinates,Original*
G04 #@! TF.FileFunction,Copper,L6,Bot*
G04 #@! TF.FilePolarity,Positive*
%FSLAX46Y46*%
G04 Gerber Fmt 4.6, Leading zero omitted, Abs format (unit mm)*
G04 Created by KiCad (PCBNEW 5.0.2+dfsg1-1~bpo9+1) date Thu 17 Oct 2019 05:45:34 PM CEST*
%MOMM*%
%LPD*%
G01*
G04 APERTURE LIST*
G04 #@! TA.AperFunction,SMDPad,CuDef*
%ADD10R,1.320000X1.300000*%
G04 #@! TD*
G04 #@! TA.AperFunction,SMDPad,CuDef*
%ADD11R,1.100000X0.300000*%
G04 #@! TD*
G04 #@! TA.AperFunction,ViaPad*
%ADD12C,0.457000*%
G04 #@! TD*
G04 #@! TA.AperFunction,Conductor*
%ADD13C,0.100000*%
G04 #@! TD*
G04 APERTURE END LIST*
D10*
G04 #@! TO.P,J2,*
G04 #@! TO.N,*
X18697620Y-4050980D03*
X23818260Y-4050980D03*
X18697620Y-15953420D03*
X23818260Y-15958500D03*
D11*
G04 #@! TO.P,J2,21*
G04 #@! TO.N,GND*
X18507120Y-5252000D03*
G04 #@! TO.P,J2,22*
G04 #@! TO.N,/CSI_CLK_OUT_P*
X18507120Y-5752000D03*
G04 #@! TO.P,J2,23*
G04 #@! TO.N,/CSI_CLK_OUT_N*
X18507120Y-6252000D03*
G04 #@! TO.P,J2,24*
G04 #@! TO.N,GND*
X18507120Y-6752000D03*
G04 #@! TO.P,J2,25*
G04 #@! TO.N,/CSI_D1_OUT_P*
X18507120Y-7252000D03*
G04 #@! TO.P,J2,26*
G04 #@! TO.N,/CSI_D1_OUT_N*
X18507120Y-7752000D03*
G04 #@! TO.P,J2,27*
G04 #@! TO.N,GND*
X18507120Y-8252000D03*
G04 #@! TO.P,J2,28*
G04 #@! TO.N,/CSI_D2_OUT_P*
X18507120Y-8752000D03*
G04 #@! TO.P,J2,29*
G04 #@! TO.N,/CSI_D2_OUT_N*
X18507120Y-9252000D03*
G04 #@! TO.P,J2,30*
G04 #@! TO.N,GND*
X18507120Y-9752000D03*
G04 #@! TO.P,J2,31*
G04 #@! TO.N,/CSI_D3_OUT_P*
X18507120Y-10252000D03*
G04 #@! TO.P,J2,32*
G04 #@! TO.N,/CSI_D3_OUT_N*
X18507120Y-10752000D03*
G04 #@! TO.P,J2,33*
G04 #@! TO.N,GND*
X18507120Y-11252000D03*
G04 #@! TO.P,J2,34*
G04 #@! TO.N,/CSI_D4_OUT_P*
X18507120Y-11752000D03*
G04 #@! TO.P,J2,35*
G04 #@! TO.N,/CSI_D4_OUT_N*
X18507120Y-12252000D03*
G04 #@! TO.P,J2,36*
G04 #@! TO.N,GND*
X18507120Y-12752000D03*
G04 #@! TO.P,J2,37*
G04 #@! TO.N,/CTRL_OUT*
X18507120Y-13252000D03*
G04 #@! TO.P,J2,38*
G04 #@! TO.N,/PROC_OUT_0*
X18507120Y-13752000D03*
G04 #@! TO.P,J2,39*
G04 #@! TO.N,/PROC_OUT_1*
X18507120Y-14252000D03*
G04 #@! TO.P,J2,40*
G04 #@! TO.N,/PROC_OUT_2*
X18507120Y-14752000D03*
G04 #@! TO.P,J2,1*
G04 #@! TO.N,/E_PROC_RST*
X24006220Y-5252000D03*
G04 #@! TO.P,J2,2*
G04 #@! TO.N,/E_PROC_SI*
X24006220Y-5752000D03*
G04 #@! TO.P,J2,3*
G04 #@! TO.N,/E_PROC_SO*
X24006220Y-6252000D03*
G04 #@! TO.P,J2,4*
G04 #@! TO.N,/E_PROC_SCK*
X24006220Y-6752000D03*
G04 #@! TO.P,J2,5*
G04 #@! TO.N,/E_PROC_SS*
X24006220Y-7252000D03*
G04 #@! TO.P,J2,6*
G04 #@! TO.N,GND*
X24006220Y-7752000D03*
G04 #@! TO.P,J2,7*
G04 #@! TO.N,/CTRL_RST_FLASH_SOC_CS*
X24006220Y-8252000D03*
G04 #@! TO.P,J2,8*
G04 #@! TO.N,/E_CTRL_SI*
X24006220Y-8752000D03*
G04 #@! TO.P,J2,9*
G04 #@! TO.N,/E_CTRL_SO*
X24006220Y-9252000D03*
G04 #@! TO.P,J2,10*
G04 #@! TO.N,/E_CTRL_SCK*
X24006220Y-9752000D03*
G04 #@! TO.P,J2,11*
G04 #@! TO.N,/E_CTRL_SS*
X24006220Y-10252000D03*
G04 #@! TO.P,J2,12*
G04 #@! TO.N,GND*
X24006220Y-10752000D03*
G04 #@! TO.P,J2,13*
G04 #@! TO.N,/DONE*
X24006220Y-11252000D03*
G04 #@! TO.P,J2,14*
G04 #@! TO.N,Net-(J2-Pad14)*
X24006220Y-11752000D03*
G04 #@! TO.P,J2,15*
G04 #@! TO.N,Net-(J2-Pad15)*
X24006220Y-12252000D03*
G04 #@! TO.P,J2,16*
G04 #@! TO.N,Net-(J2-Pad16)*
X24006220Y-12752000D03*
G04 #@! TO.P,J2,17*
G04 #@! TO.N,Net-(J2-Pad17)*
X24006220Y-13252000D03*
G04 #@! TO.P,J2,18*
G04 #@! TO.N,Net-(J2-Pad18)*
X24006220Y-13752000D03*
G04 #@! TO.P,J2,19*
G04 #@! TO.N,Net-(J2-Pad19)*
X24006220Y-14252000D03*
G04 #@! TO.P,J2,20*
G04 #@! TO.N,GND*
X24006220Y-14752000D03*
G04 #@! TD*
D10*
G04 #@! TO.P,J1,*
G04 #@! TO.N,*
X1197620Y-4050980D03*
X6318260Y-4050980D03*
X1197620Y-15953420D03*
X6318260Y-15958500D03*
D11*
G04 #@! TO.P,J1,21*
G04 #@! TO.N,/TDI*
X1007120Y-5252000D03*
G04 #@! TO.P,J1,22*
G04 #@! TO.N,/TDO*
X1007120Y-5752000D03*
G04 #@! TO.P,J1,23*
G04 #@! TO.N,/TMS*
X1007120Y-6252000D03*
G04 #@! TO.P,J1,24*
G04 #@! TO.N,/TCK*
X1007120Y-6752000D03*
G04 #@! TO.P,J1,25*
G04 #@! TO.N,/DBG_TX*
X1007120Y-7252000D03*
G04 #@! TO.P,J1,26*
G04 #@! TO.N,/DBG_RX*
X1007120Y-7752000D03*
G04 #@! TO.P,J1,27*
G04 #@! TO.N,GND*
X1007120Y-8252000D03*
G04 #@! TO.P,J1,28*
G04 #@! TO.N,/PWR_BTN*
X1007120Y-8752000D03*
G04 #@! TO.P,J1,29*
G04 #@! TO.N,/LED1_ISINK*
X1007120Y-9252000D03*
G04 #@! TO.P,J1,30*
G04 #@! TO.N,/LED2_ISINK*
X1007120Y-9752000D03*
G04 #@! TO.P,J1,31*
G04 #@! TO.N,/LED3_ISINK*
X1007120Y-10252000D03*
G04 #@! TO.P,J1,32*
G04 #@! TO.N,GND*
X1007120Y-10752000D03*
G04 #@! TO.P,J1,33*
G04 #@! TO.N,/I2C_0_SCL*
X1007120Y-11252000D03*
G04 #@! TO.P,J1,34*
G04 #@! TO.N,/I2C_0_SDA*
X1007120Y-11752000D03*
G04 #@! TO.P,J1,35*
G04 #@! TO.N,/I2C_1_SCL*
X1007120Y-12252000D03*
G04 #@! TO.P,J1,36*
G04 #@! TO.N,/I2C_1_SDA*
X1007120Y-12752000D03*
G04 #@! TO.P,J1,37*
G04 #@! TO.N,/1V2_SYS*
X1007120Y-13252000D03*
G04 #@! TO.P,J1,38*
G04 #@! TO.N,/1V8_SYS*
X1007120Y-13752000D03*
G04 #@! TO.P,J1,39*
G04 #@! TO.N,/2V5_SYS*
X1007120Y-14252000D03*
G04 #@! TO.P,J1,40*
G04 #@! TO.N,/3V3_SYS*
X1007120Y-14752000D03*
G04 #@! TO.P,J1,1*
G04 #@! TO.N,GND*
X6506220Y-5252000D03*
G04 #@! TO.P,J1,2*
G04 #@! TO.N,/CSI_CLK_IN_P*
X6506220Y-5752000D03*
G04 #@! TO.P,J1,3*
G04 #@! TO.N,/CSI_CLK_IN_N*
X6506220Y-6252000D03*
G04 #@! TO.P,J1,4*
G04 #@! TO.N,GND*
X6506220Y-6752000D03*
G04 #@! TO.P,J1,5*
G04 #@! TO.N,/CSI_D1_IN_P*
X6506220Y-7252000D03*
G04 #@! TO.P,J1,6*
G04 #@! TO.N,/CSI_D1_IN_N*
X6506220Y-7752000D03*
G04 #@! TO.P,J1,7*
G04 #@! TO.N,GND*
X6506220Y-8252000D03*
G04 #@! TO.P,J1,8*
G04 #@! TO.N,/CSI_D2_IN_P*
X6506220Y-8752000D03*
G04 #@! TO.P,J1,9*
G04 #@! TO.N,/CSI_D2_IN_N*
X6506220Y-9252000D03*
G04 #@! TO.P,J1,10*
G04 #@! TO.N,GND*
X6506220Y-9752000D03*
G04 #@! TO.P,J1,11*
G04 #@! TO.N,/CSI_D3_IN_P*
X6506220Y-10252000D03*
G04 #@! TO.P,J1,12*
G04 #@! TO.N,/CSI_D3_IN_N*
X6506220Y-10752000D03*
G04 #@! TO.P,J1,13*
G04 #@! TO.N,GND*
X6506220Y-11252000D03*
G04 #@! TO.P,J1,14*
G04 #@! TO.N,/CSI_D4_IN_P*
X6506220Y-11752000D03*
G04 #@! TO.P,J1,15*
G04 #@! TO.N,/CSI_D4_IN_N*
X6506220Y-12252000D03*
G04 #@! TO.P,J1,16*
G04 #@! TO.N,GND*
X6506220Y-12752000D03*
G04 #@! TO.P,J1,17*
G04 #@! TO.N,/USB_D_P*
X6506220Y-13252000D03*
G04 #@! TO.P,J1,18*
G04 #@! TO.N,/USB_D_N*
X6506220Y-13752000D03*
G04 #@! TO.P,J1,19*
G04 #@! TO.N,/VUSB*
X6506220Y-14252000D03*
G04 #@! TO.P,J1,20*
X6506220Y-14752000D03*
G04 #@! TD*
D12*
G04 #@! TO.N,/LED3_ISINK*
X12870000Y-11750000D03*
G04 #@! TO.N,/LED1_ISINK*
X12170000Y-12390000D03*
G04 #@! TO.N,Net-(U1-PadM3)*
X11400000Y-11750000D03*
G04 #@! TO.N,/TMS*
X13600000Y-11750000D03*
G04 #@! TO.N,/VSENSE*
X12160000Y-11750000D03*
G04 #@! TO.N,/LED2_ISINK*
X12830000Y-12390000D03*
G04 #@! TO.N,/EXTCLK_EN*
X10868367Y-11750000D03*
G04 #@! TO.N,/TDO*
X14131917Y-11750000D03*
G04 #@! TO.N,/CSI_CLK_IN_P*
X8375545Y-9734455D03*
G04 #@! TO.N,/CSI_CLK_IN_N*
X8764455Y-9345545D03*
G04 #@! TO.N,Net-(U1-PadD8)*
X14125000Y-8205000D03*
G04 #@! TO.N,/ULPM_WAKE*
X10875000Y-8220000D03*
G04 #@! TO.N,/CSI_INT*
X13475000Y-8200000D03*
G04 #@! TO.N,/CTRL_OUT*
X11870000Y-4510000D03*
G04 #@! TO.N,/PROC_SCK*
X12175000Y-7525000D03*
G04 #@! TO.N,/MIPI_SEL*
X12850000Y-8225000D03*
G04 #@! TO.N,/PROC_SI*
X12825000Y-7525000D03*
G04 #@! TO.N,/PROC_OUT_0*
X10412988Y-4893263D03*
G04 #@! TO.N,/USB_DET*
X11377176Y-4309597D03*
G04 #@! TO.N,/PIO1*
X11475000Y-8215000D03*
G04 #@! TO.N,/CTRL_RST*
X12175000Y-8210000D03*
G04 #@! TO.N,/PIO2*
X10600000Y-4390000D03*
G04 #@! TO.N,/PROC_RST*
X11120000Y-4820000D03*
G04 #@! TO.N,/PROC_SO*
X12650000Y-4820000D03*
G04 #@! TD*
D13*
G04 #@! TO.N,/CSI_CLK_IN_P*
X5064455Y-5757175D02*
X5064455Y-5495545D01*
X5219280Y-5912000D02*
X5064455Y-5757175D01*
X5681219Y-5752000D02*
X5521219Y-5912000D01*
X6506220Y-5752000D02*
X5681219Y-5752000D01*
X5521219Y-5912000D02*
X5219280Y-5912000D01*
G04 #@! TO.N,/CSI_CLK_IN_N*
X5681219Y-6252000D02*
X5521219Y-6092000D01*
X5144720Y-6092000D02*
X4937175Y-5884455D01*
X6506220Y-6252000D02*
X5681219Y-6252000D01*
X5521219Y-6092000D02*
X5144720Y-6092000D01*
X4937175Y-5884455D02*
X4675545Y-5884455D01*
G04 #@! TD*
M02*
