G04 #@! TF.GenerationSoftware,KiCad,Pcbnew,5.0.2+dfsg1-1~bpo9+1*
G04 #@! TF.CreationDate,2019-10-10T14:21:37+02:00*
G04 #@! TF.ProjectId,zglue-dragon-adapter,7a676c75-652d-4647-9261-676f6e2d6164,rev?*
G04 #@! TF.SameCoordinates,Original*
G04 #@! TF.FileFunction,Copper,L1,Top*
G04 #@! TF.FilePolarity,Positive*
%FSLAX46Y46*%
G04 Gerber Fmt 4.6, Leading zero omitted, Abs format (unit mm)*
G04 Created by KiCad (PCBNEW 5.0.2+dfsg1-1~bpo9+1) date Thu 10 Oct 2019 02:21:37 PM CEST*
%MOMM*%
%LPD*%
G01*
G04 APERTURE LIST*
G04 #@! TA.AperFunction,Conductor*
%ADD10C,0.100000*%
G04 #@! TD*
G04 #@! TA.AperFunction,SMDPad,CuDef*
%ADD11C,0.590000*%
G04 #@! TD*
G04 #@! TA.AperFunction,BGAPad,CuDef*
%ADD12C,1.000000*%
G04 #@! TD*
G04 #@! TA.AperFunction,SMDPad,CuDef*
%ADD13R,3.600000X2.800000*%
G04 #@! TD*
G04 #@! TA.AperFunction,SMDPad,CuDef*
%ADD14R,0.300000X0.300000*%
G04 #@! TD*
G04 #@! TA.AperFunction,ViaPad*
%ADD15C,0.400000*%
G04 #@! TD*
G04 #@! TA.AperFunction,Conductor*
%ADD16C,0.080000*%
G04 #@! TD*
G04 APERTURE END LIST*
D10*
G04 #@! TO.N,GND*
G04 #@! TO.C,C8*
G36*
X13436958Y-17140710D02*
X13451276Y-17142834D01*
X13465317Y-17146351D01*
X13478946Y-17151228D01*
X13492031Y-17157417D01*
X13504447Y-17164858D01*
X13516073Y-17173481D01*
X13526798Y-17183202D01*
X13536519Y-17193927D01*
X13545142Y-17205553D01*
X13552583Y-17217969D01*
X13558772Y-17231054D01*
X13563649Y-17244683D01*
X13567166Y-17258724D01*
X13569290Y-17273042D01*
X13570000Y-17287500D01*
X13570000Y-17582500D01*
X13569290Y-17596958D01*
X13567166Y-17611276D01*
X13563649Y-17625317D01*
X13558772Y-17638946D01*
X13552583Y-17652031D01*
X13545142Y-17664447D01*
X13536519Y-17676073D01*
X13526798Y-17686798D01*
X13516073Y-17696519D01*
X13504447Y-17705142D01*
X13492031Y-17712583D01*
X13478946Y-17718772D01*
X13465317Y-17723649D01*
X13451276Y-17727166D01*
X13436958Y-17729290D01*
X13422500Y-17730000D01*
X13077500Y-17730000D01*
X13063042Y-17729290D01*
X13048724Y-17727166D01*
X13034683Y-17723649D01*
X13021054Y-17718772D01*
X13007969Y-17712583D01*
X12995553Y-17705142D01*
X12983927Y-17696519D01*
X12973202Y-17686798D01*
X12963481Y-17676073D01*
X12954858Y-17664447D01*
X12947417Y-17652031D01*
X12941228Y-17638946D01*
X12936351Y-17625317D01*
X12932834Y-17611276D01*
X12930710Y-17596958D01*
X12930000Y-17582500D01*
X12930000Y-17287500D01*
X12930710Y-17273042D01*
X12932834Y-17258724D01*
X12936351Y-17244683D01*
X12941228Y-17231054D01*
X12947417Y-17217969D01*
X12954858Y-17205553D01*
X12963481Y-17193927D01*
X12973202Y-17183202D01*
X12983927Y-17173481D01*
X12995553Y-17164858D01*
X13007969Y-17157417D01*
X13021054Y-17151228D01*
X13034683Y-17146351D01*
X13048724Y-17142834D01*
X13063042Y-17140710D01*
X13077500Y-17140000D01*
X13422500Y-17140000D01*
X13436958Y-17140710D01*
X13436958Y-17140710D01*
G37*
D11*
G04 #@! TD*
G04 #@! TO.P,C8,2*
G04 #@! TO.N,GND*
X13250000Y-17435000D03*
D10*
G04 #@! TO.N,/1V2_SYS_B*
G04 #@! TO.C,C8*
G36*
X13436958Y-16170710D02*
X13451276Y-16172834D01*
X13465317Y-16176351D01*
X13478946Y-16181228D01*
X13492031Y-16187417D01*
X13504447Y-16194858D01*
X13516073Y-16203481D01*
X13526798Y-16213202D01*
X13536519Y-16223927D01*
X13545142Y-16235553D01*
X13552583Y-16247969D01*
X13558772Y-16261054D01*
X13563649Y-16274683D01*
X13567166Y-16288724D01*
X13569290Y-16303042D01*
X13570000Y-16317500D01*
X13570000Y-16612500D01*
X13569290Y-16626958D01*
X13567166Y-16641276D01*
X13563649Y-16655317D01*
X13558772Y-16668946D01*
X13552583Y-16682031D01*
X13545142Y-16694447D01*
X13536519Y-16706073D01*
X13526798Y-16716798D01*
X13516073Y-16726519D01*
X13504447Y-16735142D01*
X13492031Y-16742583D01*
X13478946Y-16748772D01*
X13465317Y-16753649D01*
X13451276Y-16757166D01*
X13436958Y-16759290D01*
X13422500Y-16760000D01*
X13077500Y-16760000D01*
X13063042Y-16759290D01*
X13048724Y-16757166D01*
X13034683Y-16753649D01*
X13021054Y-16748772D01*
X13007969Y-16742583D01*
X12995553Y-16735142D01*
X12983927Y-16726519D01*
X12973202Y-16716798D01*
X12963481Y-16706073D01*
X12954858Y-16694447D01*
X12947417Y-16682031D01*
X12941228Y-16668946D01*
X12936351Y-16655317D01*
X12932834Y-16641276D01*
X12930710Y-16626958D01*
X12930000Y-16612500D01*
X12930000Y-16317500D01*
X12930710Y-16303042D01*
X12932834Y-16288724D01*
X12936351Y-16274683D01*
X12941228Y-16261054D01*
X12947417Y-16247969D01*
X12954858Y-16235553D01*
X12963481Y-16223927D01*
X12973202Y-16213202D01*
X12983927Y-16203481D01*
X12995553Y-16194858D01*
X13007969Y-16187417D01*
X13021054Y-16181228D01*
X13034683Y-16176351D01*
X13048724Y-16172834D01*
X13063042Y-16170710D01*
X13077500Y-16170000D01*
X13422500Y-16170000D01*
X13436958Y-16170710D01*
X13436958Y-16170710D01*
G37*
D11*
G04 #@! TD*
G04 #@! TO.P,C8,1*
G04 #@! TO.N,/1V2_SYS_B*
X13250000Y-16465000D03*
D10*
G04 #@! TO.N,GND*
G04 #@! TO.C,C7*
G36*
X17886958Y-12960710D02*
X17901276Y-12962834D01*
X17915317Y-12966351D01*
X17928946Y-12971228D01*
X17942031Y-12977417D01*
X17954447Y-12984858D01*
X17966073Y-12993481D01*
X17976798Y-13003202D01*
X17986519Y-13013927D01*
X17995142Y-13025553D01*
X18002583Y-13037969D01*
X18008772Y-13051054D01*
X18013649Y-13064683D01*
X18017166Y-13078724D01*
X18019290Y-13093042D01*
X18020000Y-13107500D01*
X18020000Y-13402500D01*
X18019290Y-13416958D01*
X18017166Y-13431276D01*
X18013649Y-13445317D01*
X18008772Y-13458946D01*
X18002583Y-13472031D01*
X17995142Y-13484447D01*
X17986519Y-13496073D01*
X17976798Y-13506798D01*
X17966073Y-13516519D01*
X17954447Y-13525142D01*
X17942031Y-13532583D01*
X17928946Y-13538772D01*
X17915317Y-13543649D01*
X17901276Y-13547166D01*
X17886958Y-13549290D01*
X17872500Y-13550000D01*
X17527500Y-13550000D01*
X17513042Y-13549290D01*
X17498724Y-13547166D01*
X17484683Y-13543649D01*
X17471054Y-13538772D01*
X17457969Y-13532583D01*
X17445553Y-13525142D01*
X17433927Y-13516519D01*
X17423202Y-13506798D01*
X17413481Y-13496073D01*
X17404858Y-13484447D01*
X17397417Y-13472031D01*
X17391228Y-13458946D01*
X17386351Y-13445317D01*
X17382834Y-13431276D01*
X17380710Y-13416958D01*
X17380000Y-13402500D01*
X17380000Y-13107500D01*
X17380710Y-13093042D01*
X17382834Y-13078724D01*
X17386351Y-13064683D01*
X17391228Y-13051054D01*
X17397417Y-13037969D01*
X17404858Y-13025553D01*
X17413481Y-13013927D01*
X17423202Y-13003202D01*
X17433927Y-12993481D01*
X17445553Y-12984858D01*
X17457969Y-12977417D01*
X17471054Y-12971228D01*
X17484683Y-12966351D01*
X17498724Y-12962834D01*
X17513042Y-12960710D01*
X17527500Y-12960000D01*
X17872500Y-12960000D01*
X17886958Y-12960710D01*
X17886958Y-12960710D01*
G37*
D11*
G04 #@! TD*
G04 #@! TO.P,C7,2*
G04 #@! TO.N,GND*
X17700000Y-13255000D03*
D10*
G04 #@! TO.N,/2V5_SYS*
G04 #@! TO.C,C7*
G36*
X17886958Y-11990710D02*
X17901276Y-11992834D01*
X17915317Y-11996351D01*
X17928946Y-12001228D01*
X17942031Y-12007417D01*
X17954447Y-12014858D01*
X17966073Y-12023481D01*
X17976798Y-12033202D01*
X17986519Y-12043927D01*
X17995142Y-12055553D01*
X18002583Y-12067969D01*
X18008772Y-12081054D01*
X18013649Y-12094683D01*
X18017166Y-12108724D01*
X18019290Y-12123042D01*
X18020000Y-12137500D01*
X18020000Y-12432500D01*
X18019290Y-12446958D01*
X18017166Y-12461276D01*
X18013649Y-12475317D01*
X18008772Y-12488946D01*
X18002583Y-12502031D01*
X17995142Y-12514447D01*
X17986519Y-12526073D01*
X17976798Y-12536798D01*
X17966073Y-12546519D01*
X17954447Y-12555142D01*
X17942031Y-12562583D01*
X17928946Y-12568772D01*
X17915317Y-12573649D01*
X17901276Y-12577166D01*
X17886958Y-12579290D01*
X17872500Y-12580000D01*
X17527500Y-12580000D01*
X17513042Y-12579290D01*
X17498724Y-12577166D01*
X17484683Y-12573649D01*
X17471054Y-12568772D01*
X17457969Y-12562583D01*
X17445553Y-12555142D01*
X17433927Y-12546519D01*
X17423202Y-12536798D01*
X17413481Y-12526073D01*
X17404858Y-12514447D01*
X17397417Y-12502031D01*
X17391228Y-12488946D01*
X17386351Y-12475317D01*
X17382834Y-12461276D01*
X17380710Y-12446958D01*
X17380000Y-12432500D01*
X17380000Y-12137500D01*
X17380710Y-12123042D01*
X17382834Y-12108724D01*
X17386351Y-12094683D01*
X17391228Y-12081054D01*
X17397417Y-12067969D01*
X17404858Y-12055553D01*
X17413481Y-12043927D01*
X17423202Y-12033202D01*
X17433927Y-12023481D01*
X17445553Y-12014858D01*
X17457969Y-12007417D01*
X17471054Y-12001228D01*
X17484683Y-11996351D01*
X17498724Y-11992834D01*
X17513042Y-11990710D01*
X17527500Y-11990000D01*
X17872500Y-11990000D01*
X17886958Y-11990710D01*
X17886958Y-11990710D01*
G37*
D11*
G04 #@! TD*
G04 #@! TO.P,C7,1*
G04 #@! TO.N,/2V5_SYS*
X17700000Y-12285000D03*
D10*
G04 #@! TO.N,GND*
G04 #@! TO.C,C6*
G36*
X8036958Y-5500710D02*
X8051276Y-5502834D01*
X8065317Y-5506351D01*
X8078946Y-5511228D01*
X8092031Y-5517417D01*
X8104447Y-5524858D01*
X8116073Y-5533481D01*
X8126798Y-5543202D01*
X8136519Y-5553927D01*
X8145142Y-5565553D01*
X8152583Y-5577969D01*
X8158772Y-5591054D01*
X8163649Y-5604683D01*
X8167166Y-5618724D01*
X8169290Y-5633042D01*
X8170000Y-5647500D01*
X8170000Y-5942500D01*
X8169290Y-5956958D01*
X8167166Y-5971276D01*
X8163649Y-5985317D01*
X8158772Y-5998946D01*
X8152583Y-6012031D01*
X8145142Y-6024447D01*
X8136519Y-6036073D01*
X8126798Y-6046798D01*
X8116073Y-6056519D01*
X8104447Y-6065142D01*
X8092031Y-6072583D01*
X8078946Y-6078772D01*
X8065317Y-6083649D01*
X8051276Y-6087166D01*
X8036958Y-6089290D01*
X8022500Y-6090000D01*
X7677500Y-6090000D01*
X7663042Y-6089290D01*
X7648724Y-6087166D01*
X7634683Y-6083649D01*
X7621054Y-6078772D01*
X7607969Y-6072583D01*
X7595553Y-6065142D01*
X7583927Y-6056519D01*
X7573202Y-6046798D01*
X7563481Y-6036073D01*
X7554858Y-6024447D01*
X7547417Y-6012031D01*
X7541228Y-5998946D01*
X7536351Y-5985317D01*
X7532834Y-5971276D01*
X7530710Y-5956958D01*
X7530000Y-5942500D01*
X7530000Y-5647500D01*
X7530710Y-5633042D01*
X7532834Y-5618724D01*
X7536351Y-5604683D01*
X7541228Y-5591054D01*
X7547417Y-5577969D01*
X7554858Y-5565553D01*
X7563481Y-5553927D01*
X7573202Y-5543202D01*
X7583927Y-5533481D01*
X7595553Y-5524858D01*
X7607969Y-5517417D01*
X7621054Y-5511228D01*
X7634683Y-5506351D01*
X7648724Y-5502834D01*
X7663042Y-5500710D01*
X7677500Y-5500000D01*
X8022500Y-5500000D01*
X8036958Y-5500710D01*
X8036958Y-5500710D01*
G37*
D11*
G04 #@! TD*
G04 #@! TO.P,C6,2*
G04 #@! TO.N,GND*
X7850000Y-5795000D03*
D10*
G04 #@! TO.N,/1V8_SYS*
G04 #@! TO.C,C6*
G36*
X8036958Y-6470710D02*
X8051276Y-6472834D01*
X8065317Y-6476351D01*
X8078946Y-6481228D01*
X8092031Y-6487417D01*
X8104447Y-6494858D01*
X8116073Y-6503481D01*
X8126798Y-6513202D01*
X8136519Y-6523927D01*
X8145142Y-6535553D01*
X8152583Y-6547969D01*
X8158772Y-6561054D01*
X8163649Y-6574683D01*
X8167166Y-6588724D01*
X8169290Y-6603042D01*
X8170000Y-6617500D01*
X8170000Y-6912500D01*
X8169290Y-6926958D01*
X8167166Y-6941276D01*
X8163649Y-6955317D01*
X8158772Y-6968946D01*
X8152583Y-6982031D01*
X8145142Y-6994447D01*
X8136519Y-7006073D01*
X8126798Y-7016798D01*
X8116073Y-7026519D01*
X8104447Y-7035142D01*
X8092031Y-7042583D01*
X8078946Y-7048772D01*
X8065317Y-7053649D01*
X8051276Y-7057166D01*
X8036958Y-7059290D01*
X8022500Y-7060000D01*
X7677500Y-7060000D01*
X7663042Y-7059290D01*
X7648724Y-7057166D01*
X7634683Y-7053649D01*
X7621054Y-7048772D01*
X7607969Y-7042583D01*
X7595553Y-7035142D01*
X7583927Y-7026519D01*
X7573202Y-7016798D01*
X7563481Y-7006073D01*
X7554858Y-6994447D01*
X7547417Y-6982031D01*
X7541228Y-6968946D01*
X7536351Y-6955317D01*
X7532834Y-6941276D01*
X7530710Y-6926958D01*
X7530000Y-6912500D01*
X7530000Y-6617500D01*
X7530710Y-6603042D01*
X7532834Y-6588724D01*
X7536351Y-6574683D01*
X7541228Y-6561054D01*
X7547417Y-6547969D01*
X7554858Y-6535553D01*
X7563481Y-6523927D01*
X7573202Y-6513202D01*
X7583927Y-6503481D01*
X7595553Y-6494858D01*
X7607969Y-6487417D01*
X7621054Y-6481228D01*
X7634683Y-6476351D01*
X7648724Y-6472834D01*
X7663042Y-6470710D01*
X7677500Y-6470000D01*
X8022500Y-6470000D01*
X8036958Y-6470710D01*
X8036958Y-6470710D01*
G37*
D11*
G04 #@! TD*
G04 #@! TO.P,C6,1*
G04 #@! TO.N,/1V8_SYS*
X7850000Y-6765000D03*
D10*
G04 #@! TO.N,GND*
G04 #@! TO.C,C5*
G36*
X8026958Y-8520710D02*
X8041276Y-8522834D01*
X8055317Y-8526351D01*
X8068946Y-8531228D01*
X8082031Y-8537417D01*
X8094447Y-8544858D01*
X8106073Y-8553481D01*
X8116798Y-8563202D01*
X8126519Y-8573927D01*
X8135142Y-8585553D01*
X8142583Y-8597969D01*
X8148772Y-8611054D01*
X8153649Y-8624683D01*
X8157166Y-8638724D01*
X8159290Y-8653042D01*
X8160000Y-8667500D01*
X8160000Y-8962500D01*
X8159290Y-8976958D01*
X8157166Y-8991276D01*
X8153649Y-9005317D01*
X8148772Y-9018946D01*
X8142583Y-9032031D01*
X8135142Y-9044447D01*
X8126519Y-9056073D01*
X8116798Y-9066798D01*
X8106073Y-9076519D01*
X8094447Y-9085142D01*
X8082031Y-9092583D01*
X8068946Y-9098772D01*
X8055317Y-9103649D01*
X8041276Y-9107166D01*
X8026958Y-9109290D01*
X8012500Y-9110000D01*
X7667500Y-9110000D01*
X7653042Y-9109290D01*
X7638724Y-9107166D01*
X7624683Y-9103649D01*
X7611054Y-9098772D01*
X7597969Y-9092583D01*
X7585553Y-9085142D01*
X7573927Y-9076519D01*
X7563202Y-9066798D01*
X7553481Y-9056073D01*
X7544858Y-9044447D01*
X7537417Y-9032031D01*
X7531228Y-9018946D01*
X7526351Y-9005317D01*
X7522834Y-8991276D01*
X7520710Y-8976958D01*
X7520000Y-8962500D01*
X7520000Y-8667500D01*
X7520710Y-8653042D01*
X7522834Y-8638724D01*
X7526351Y-8624683D01*
X7531228Y-8611054D01*
X7537417Y-8597969D01*
X7544858Y-8585553D01*
X7553481Y-8573927D01*
X7563202Y-8563202D01*
X7573927Y-8553481D01*
X7585553Y-8544858D01*
X7597969Y-8537417D01*
X7611054Y-8531228D01*
X7624683Y-8526351D01*
X7638724Y-8522834D01*
X7653042Y-8520710D01*
X7667500Y-8520000D01*
X8012500Y-8520000D01*
X8026958Y-8520710D01*
X8026958Y-8520710D01*
G37*
D11*
G04 #@! TD*
G04 #@! TO.P,C5,2*
G04 #@! TO.N,GND*
X7840000Y-8815000D03*
D10*
G04 #@! TO.N,/3V3_SYS*
G04 #@! TO.C,C5*
G36*
X8026958Y-7550710D02*
X8041276Y-7552834D01*
X8055317Y-7556351D01*
X8068946Y-7561228D01*
X8082031Y-7567417D01*
X8094447Y-7574858D01*
X8106073Y-7583481D01*
X8116798Y-7593202D01*
X8126519Y-7603927D01*
X8135142Y-7615553D01*
X8142583Y-7627969D01*
X8148772Y-7641054D01*
X8153649Y-7654683D01*
X8157166Y-7668724D01*
X8159290Y-7683042D01*
X8160000Y-7697500D01*
X8160000Y-7992500D01*
X8159290Y-8006958D01*
X8157166Y-8021276D01*
X8153649Y-8035317D01*
X8148772Y-8048946D01*
X8142583Y-8062031D01*
X8135142Y-8074447D01*
X8126519Y-8086073D01*
X8116798Y-8096798D01*
X8106073Y-8106519D01*
X8094447Y-8115142D01*
X8082031Y-8122583D01*
X8068946Y-8128772D01*
X8055317Y-8133649D01*
X8041276Y-8137166D01*
X8026958Y-8139290D01*
X8012500Y-8140000D01*
X7667500Y-8140000D01*
X7653042Y-8139290D01*
X7638724Y-8137166D01*
X7624683Y-8133649D01*
X7611054Y-8128772D01*
X7597969Y-8122583D01*
X7585553Y-8115142D01*
X7573927Y-8106519D01*
X7563202Y-8096798D01*
X7553481Y-8086073D01*
X7544858Y-8074447D01*
X7537417Y-8062031D01*
X7531228Y-8048946D01*
X7526351Y-8035317D01*
X7522834Y-8021276D01*
X7520710Y-8006958D01*
X7520000Y-7992500D01*
X7520000Y-7697500D01*
X7520710Y-7683042D01*
X7522834Y-7668724D01*
X7526351Y-7654683D01*
X7531228Y-7641054D01*
X7537417Y-7627969D01*
X7544858Y-7615553D01*
X7553481Y-7603927D01*
X7563202Y-7593202D01*
X7573927Y-7583481D01*
X7585553Y-7574858D01*
X7597969Y-7567417D01*
X7611054Y-7561228D01*
X7624683Y-7556351D01*
X7638724Y-7552834D01*
X7653042Y-7550710D01*
X7667500Y-7550000D01*
X8012500Y-7550000D01*
X8026958Y-7550710D01*
X8026958Y-7550710D01*
G37*
D11*
G04 #@! TD*
G04 #@! TO.P,C5,1*
G04 #@! TO.N,/3V3_SYS*
X7840000Y-7845000D03*
D10*
G04 #@! TO.N,GND*
G04 #@! TO.C,C4*
G36*
X13446958Y-1360710D02*
X13461276Y-1362834D01*
X13475317Y-1366351D01*
X13488946Y-1371228D01*
X13502031Y-1377417D01*
X13514447Y-1384858D01*
X13526073Y-1393481D01*
X13536798Y-1403202D01*
X13546519Y-1413927D01*
X13555142Y-1425553D01*
X13562583Y-1437969D01*
X13568772Y-1451054D01*
X13573649Y-1464683D01*
X13577166Y-1478724D01*
X13579290Y-1493042D01*
X13580000Y-1507500D01*
X13580000Y-1802500D01*
X13579290Y-1816958D01*
X13577166Y-1831276D01*
X13573649Y-1845317D01*
X13568772Y-1858946D01*
X13562583Y-1872031D01*
X13555142Y-1884447D01*
X13546519Y-1896073D01*
X13536798Y-1906798D01*
X13526073Y-1916519D01*
X13514447Y-1925142D01*
X13502031Y-1932583D01*
X13488946Y-1938772D01*
X13475317Y-1943649D01*
X13461276Y-1947166D01*
X13446958Y-1949290D01*
X13432500Y-1950000D01*
X13087500Y-1950000D01*
X13073042Y-1949290D01*
X13058724Y-1947166D01*
X13044683Y-1943649D01*
X13031054Y-1938772D01*
X13017969Y-1932583D01*
X13005553Y-1925142D01*
X12993927Y-1916519D01*
X12983202Y-1906798D01*
X12973481Y-1896073D01*
X12964858Y-1884447D01*
X12957417Y-1872031D01*
X12951228Y-1858946D01*
X12946351Y-1845317D01*
X12942834Y-1831276D01*
X12940710Y-1816958D01*
X12940000Y-1802500D01*
X12940000Y-1507500D01*
X12940710Y-1493042D01*
X12942834Y-1478724D01*
X12946351Y-1464683D01*
X12951228Y-1451054D01*
X12957417Y-1437969D01*
X12964858Y-1425553D01*
X12973481Y-1413927D01*
X12983202Y-1403202D01*
X12993927Y-1393481D01*
X13005553Y-1384858D01*
X13017969Y-1377417D01*
X13031054Y-1371228D01*
X13044683Y-1366351D01*
X13058724Y-1362834D01*
X13073042Y-1360710D01*
X13087500Y-1360000D01*
X13432500Y-1360000D01*
X13446958Y-1360710D01*
X13446958Y-1360710D01*
G37*
D11*
G04 #@! TD*
G04 #@! TO.P,C4,2*
G04 #@! TO.N,GND*
X13260000Y-1655000D03*
D10*
G04 #@! TO.N,/1V2_SYS*
G04 #@! TO.C,C4*
G36*
X13446958Y-2330710D02*
X13461276Y-2332834D01*
X13475317Y-2336351D01*
X13488946Y-2341228D01*
X13502031Y-2347417D01*
X13514447Y-2354858D01*
X13526073Y-2363481D01*
X13536798Y-2373202D01*
X13546519Y-2383927D01*
X13555142Y-2395553D01*
X13562583Y-2407969D01*
X13568772Y-2421054D01*
X13573649Y-2434683D01*
X13577166Y-2448724D01*
X13579290Y-2463042D01*
X13580000Y-2477500D01*
X13580000Y-2772500D01*
X13579290Y-2786958D01*
X13577166Y-2801276D01*
X13573649Y-2815317D01*
X13568772Y-2828946D01*
X13562583Y-2842031D01*
X13555142Y-2854447D01*
X13546519Y-2866073D01*
X13536798Y-2876798D01*
X13526073Y-2886519D01*
X13514447Y-2895142D01*
X13502031Y-2902583D01*
X13488946Y-2908772D01*
X13475317Y-2913649D01*
X13461276Y-2917166D01*
X13446958Y-2919290D01*
X13432500Y-2920000D01*
X13087500Y-2920000D01*
X13073042Y-2919290D01*
X13058724Y-2917166D01*
X13044683Y-2913649D01*
X13031054Y-2908772D01*
X13017969Y-2902583D01*
X13005553Y-2895142D01*
X12993927Y-2886519D01*
X12983202Y-2876798D01*
X12973481Y-2866073D01*
X12964858Y-2854447D01*
X12957417Y-2842031D01*
X12951228Y-2828946D01*
X12946351Y-2815317D01*
X12942834Y-2801276D01*
X12940710Y-2786958D01*
X12940000Y-2772500D01*
X12940000Y-2477500D01*
X12940710Y-2463042D01*
X12942834Y-2448724D01*
X12946351Y-2434683D01*
X12951228Y-2421054D01*
X12957417Y-2407969D01*
X12964858Y-2395553D01*
X12973481Y-2383927D01*
X12983202Y-2373202D01*
X12993927Y-2363481D01*
X13005553Y-2354858D01*
X13017969Y-2347417D01*
X13031054Y-2341228D01*
X13044683Y-2336351D01*
X13058724Y-2332834D01*
X13073042Y-2330710D01*
X13087500Y-2330000D01*
X13432500Y-2330000D01*
X13446958Y-2330710D01*
X13446958Y-2330710D01*
G37*
D11*
G04 #@! TD*
G04 #@! TO.P,C4,1*
G04 #@! TO.N,/1V2_SYS*
X13260000Y-2625000D03*
D10*
G04 #@! TO.N,GND*
G04 #@! TO.C,C3*
G36*
X16836958Y-12960710D02*
X16851276Y-12962834D01*
X16865317Y-12966351D01*
X16878946Y-12971228D01*
X16892031Y-12977417D01*
X16904447Y-12984858D01*
X16916073Y-12993481D01*
X16926798Y-13003202D01*
X16936519Y-13013927D01*
X16945142Y-13025553D01*
X16952583Y-13037969D01*
X16958772Y-13051054D01*
X16963649Y-13064683D01*
X16967166Y-13078724D01*
X16969290Y-13093042D01*
X16970000Y-13107500D01*
X16970000Y-13402500D01*
X16969290Y-13416958D01*
X16967166Y-13431276D01*
X16963649Y-13445317D01*
X16958772Y-13458946D01*
X16952583Y-13472031D01*
X16945142Y-13484447D01*
X16936519Y-13496073D01*
X16926798Y-13506798D01*
X16916073Y-13516519D01*
X16904447Y-13525142D01*
X16892031Y-13532583D01*
X16878946Y-13538772D01*
X16865317Y-13543649D01*
X16851276Y-13547166D01*
X16836958Y-13549290D01*
X16822500Y-13550000D01*
X16477500Y-13550000D01*
X16463042Y-13549290D01*
X16448724Y-13547166D01*
X16434683Y-13543649D01*
X16421054Y-13538772D01*
X16407969Y-13532583D01*
X16395553Y-13525142D01*
X16383927Y-13516519D01*
X16373202Y-13506798D01*
X16363481Y-13496073D01*
X16354858Y-13484447D01*
X16347417Y-13472031D01*
X16341228Y-13458946D01*
X16336351Y-13445317D01*
X16332834Y-13431276D01*
X16330710Y-13416958D01*
X16330000Y-13402500D01*
X16330000Y-13107500D01*
X16330710Y-13093042D01*
X16332834Y-13078724D01*
X16336351Y-13064683D01*
X16341228Y-13051054D01*
X16347417Y-13037969D01*
X16354858Y-13025553D01*
X16363481Y-13013927D01*
X16373202Y-13003202D01*
X16383927Y-12993481D01*
X16395553Y-12984858D01*
X16407969Y-12977417D01*
X16421054Y-12971228D01*
X16434683Y-12966351D01*
X16448724Y-12962834D01*
X16463042Y-12960710D01*
X16477500Y-12960000D01*
X16822500Y-12960000D01*
X16836958Y-12960710D01*
X16836958Y-12960710D01*
G37*
D11*
G04 #@! TD*
G04 #@! TO.P,C3,2*
G04 #@! TO.N,GND*
X16650000Y-13255000D03*
D10*
G04 #@! TO.N,/2V5_SYS*
G04 #@! TO.C,C3*
G36*
X16836958Y-11990710D02*
X16851276Y-11992834D01*
X16865317Y-11996351D01*
X16878946Y-12001228D01*
X16892031Y-12007417D01*
X16904447Y-12014858D01*
X16916073Y-12023481D01*
X16926798Y-12033202D01*
X16936519Y-12043927D01*
X16945142Y-12055553D01*
X16952583Y-12067969D01*
X16958772Y-12081054D01*
X16963649Y-12094683D01*
X16967166Y-12108724D01*
X16969290Y-12123042D01*
X16970000Y-12137500D01*
X16970000Y-12432500D01*
X16969290Y-12446958D01*
X16967166Y-12461276D01*
X16963649Y-12475317D01*
X16958772Y-12488946D01*
X16952583Y-12502031D01*
X16945142Y-12514447D01*
X16936519Y-12526073D01*
X16926798Y-12536798D01*
X16916073Y-12546519D01*
X16904447Y-12555142D01*
X16892031Y-12562583D01*
X16878946Y-12568772D01*
X16865317Y-12573649D01*
X16851276Y-12577166D01*
X16836958Y-12579290D01*
X16822500Y-12580000D01*
X16477500Y-12580000D01*
X16463042Y-12579290D01*
X16448724Y-12577166D01*
X16434683Y-12573649D01*
X16421054Y-12568772D01*
X16407969Y-12562583D01*
X16395553Y-12555142D01*
X16383927Y-12546519D01*
X16373202Y-12536798D01*
X16363481Y-12526073D01*
X16354858Y-12514447D01*
X16347417Y-12502031D01*
X16341228Y-12488946D01*
X16336351Y-12475317D01*
X16332834Y-12461276D01*
X16330710Y-12446958D01*
X16330000Y-12432500D01*
X16330000Y-12137500D01*
X16330710Y-12123042D01*
X16332834Y-12108724D01*
X16336351Y-12094683D01*
X16341228Y-12081054D01*
X16347417Y-12067969D01*
X16354858Y-12055553D01*
X16363481Y-12043927D01*
X16373202Y-12033202D01*
X16383927Y-12023481D01*
X16395553Y-12014858D01*
X16407969Y-12007417D01*
X16421054Y-12001228D01*
X16434683Y-11996351D01*
X16448724Y-11992834D01*
X16463042Y-11990710D01*
X16477500Y-11990000D01*
X16822500Y-11990000D01*
X16836958Y-11990710D01*
X16836958Y-11990710D01*
G37*
D11*
G04 #@! TD*
G04 #@! TO.P,C3,1*
G04 #@! TO.N,/2V5_SYS*
X16650000Y-12285000D03*
D10*
G04 #@! TO.N,GND*
G04 #@! TO.C,C2*
G36*
X6986958Y-5500710D02*
X7001276Y-5502834D01*
X7015317Y-5506351D01*
X7028946Y-5511228D01*
X7042031Y-5517417D01*
X7054447Y-5524858D01*
X7066073Y-5533481D01*
X7076798Y-5543202D01*
X7086519Y-5553927D01*
X7095142Y-5565553D01*
X7102583Y-5577969D01*
X7108772Y-5591054D01*
X7113649Y-5604683D01*
X7117166Y-5618724D01*
X7119290Y-5633042D01*
X7120000Y-5647500D01*
X7120000Y-5942500D01*
X7119290Y-5956958D01*
X7117166Y-5971276D01*
X7113649Y-5985317D01*
X7108772Y-5998946D01*
X7102583Y-6012031D01*
X7095142Y-6024447D01*
X7086519Y-6036073D01*
X7076798Y-6046798D01*
X7066073Y-6056519D01*
X7054447Y-6065142D01*
X7042031Y-6072583D01*
X7028946Y-6078772D01*
X7015317Y-6083649D01*
X7001276Y-6087166D01*
X6986958Y-6089290D01*
X6972500Y-6090000D01*
X6627500Y-6090000D01*
X6613042Y-6089290D01*
X6598724Y-6087166D01*
X6584683Y-6083649D01*
X6571054Y-6078772D01*
X6557969Y-6072583D01*
X6545553Y-6065142D01*
X6533927Y-6056519D01*
X6523202Y-6046798D01*
X6513481Y-6036073D01*
X6504858Y-6024447D01*
X6497417Y-6012031D01*
X6491228Y-5998946D01*
X6486351Y-5985317D01*
X6482834Y-5971276D01*
X6480710Y-5956958D01*
X6480000Y-5942500D01*
X6480000Y-5647500D01*
X6480710Y-5633042D01*
X6482834Y-5618724D01*
X6486351Y-5604683D01*
X6491228Y-5591054D01*
X6497417Y-5577969D01*
X6504858Y-5565553D01*
X6513481Y-5553927D01*
X6523202Y-5543202D01*
X6533927Y-5533481D01*
X6545553Y-5524858D01*
X6557969Y-5517417D01*
X6571054Y-5511228D01*
X6584683Y-5506351D01*
X6598724Y-5502834D01*
X6613042Y-5500710D01*
X6627500Y-5500000D01*
X6972500Y-5500000D01*
X6986958Y-5500710D01*
X6986958Y-5500710D01*
G37*
D11*
G04 #@! TD*
G04 #@! TO.P,C2,2*
G04 #@! TO.N,GND*
X6800000Y-5795000D03*
D10*
G04 #@! TO.N,/1V8_SYS*
G04 #@! TO.C,C2*
G36*
X6986958Y-6470710D02*
X7001276Y-6472834D01*
X7015317Y-6476351D01*
X7028946Y-6481228D01*
X7042031Y-6487417D01*
X7054447Y-6494858D01*
X7066073Y-6503481D01*
X7076798Y-6513202D01*
X7086519Y-6523927D01*
X7095142Y-6535553D01*
X7102583Y-6547969D01*
X7108772Y-6561054D01*
X7113649Y-6574683D01*
X7117166Y-6588724D01*
X7119290Y-6603042D01*
X7120000Y-6617500D01*
X7120000Y-6912500D01*
X7119290Y-6926958D01*
X7117166Y-6941276D01*
X7113649Y-6955317D01*
X7108772Y-6968946D01*
X7102583Y-6982031D01*
X7095142Y-6994447D01*
X7086519Y-7006073D01*
X7076798Y-7016798D01*
X7066073Y-7026519D01*
X7054447Y-7035142D01*
X7042031Y-7042583D01*
X7028946Y-7048772D01*
X7015317Y-7053649D01*
X7001276Y-7057166D01*
X6986958Y-7059290D01*
X6972500Y-7060000D01*
X6627500Y-7060000D01*
X6613042Y-7059290D01*
X6598724Y-7057166D01*
X6584683Y-7053649D01*
X6571054Y-7048772D01*
X6557969Y-7042583D01*
X6545553Y-7035142D01*
X6533927Y-7026519D01*
X6523202Y-7016798D01*
X6513481Y-7006073D01*
X6504858Y-6994447D01*
X6497417Y-6982031D01*
X6491228Y-6968946D01*
X6486351Y-6955317D01*
X6482834Y-6941276D01*
X6480710Y-6926958D01*
X6480000Y-6912500D01*
X6480000Y-6617500D01*
X6480710Y-6603042D01*
X6482834Y-6588724D01*
X6486351Y-6574683D01*
X6491228Y-6561054D01*
X6497417Y-6547969D01*
X6504858Y-6535553D01*
X6513481Y-6523927D01*
X6523202Y-6513202D01*
X6533927Y-6503481D01*
X6545553Y-6494858D01*
X6557969Y-6487417D01*
X6571054Y-6481228D01*
X6584683Y-6476351D01*
X6598724Y-6472834D01*
X6613042Y-6470710D01*
X6627500Y-6470000D01*
X6972500Y-6470000D01*
X6986958Y-6470710D01*
X6986958Y-6470710D01*
G37*
D11*
G04 #@! TD*
G04 #@! TO.P,C2,1*
G04 #@! TO.N,/1V8_SYS*
X6800000Y-6765000D03*
D10*
G04 #@! TO.N,GND*
G04 #@! TO.C,C10*
G36*
X14856958Y-3370710D02*
X14871276Y-3372834D01*
X14885317Y-3376351D01*
X14898946Y-3381228D01*
X14912031Y-3387417D01*
X14924447Y-3394858D01*
X14936073Y-3403481D01*
X14946798Y-3413202D01*
X14956519Y-3423927D01*
X14965142Y-3435553D01*
X14972583Y-3447969D01*
X14978772Y-3461054D01*
X14983649Y-3474683D01*
X14987166Y-3488724D01*
X14989290Y-3503042D01*
X14990000Y-3517500D01*
X14990000Y-3812500D01*
X14989290Y-3826958D01*
X14987166Y-3841276D01*
X14983649Y-3855317D01*
X14978772Y-3868946D01*
X14972583Y-3882031D01*
X14965142Y-3894447D01*
X14956519Y-3906073D01*
X14946798Y-3916798D01*
X14936073Y-3926519D01*
X14924447Y-3935142D01*
X14912031Y-3942583D01*
X14898946Y-3948772D01*
X14885317Y-3953649D01*
X14871276Y-3957166D01*
X14856958Y-3959290D01*
X14842500Y-3960000D01*
X14497500Y-3960000D01*
X14483042Y-3959290D01*
X14468724Y-3957166D01*
X14454683Y-3953649D01*
X14441054Y-3948772D01*
X14427969Y-3942583D01*
X14415553Y-3935142D01*
X14403927Y-3926519D01*
X14393202Y-3916798D01*
X14383481Y-3906073D01*
X14374858Y-3894447D01*
X14367417Y-3882031D01*
X14361228Y-3868946D01*
X14356351Y-3855317D01*
X14352834Y-3841276D01*
X14350710Y-3826958D01*
X14350000Y-3812500D01*
X14350000Y-3517500D01*
X14350710Y-3503042D01*
X14352834Y-3488724D01*
X14356351Y-3474683D01*
X14361228Y-3461054D01*
X14367417Y-3447969D01*
X14374858Y-3435553D01*
X14383481Y-3423927D01*
X14393202Y-3413202D01*
X14403927Y-3403481D01*
X14415553Y-3394858D01*
X14427969Y-3387417D01*
X14441054Y-3381228D01*
X14454683Y-3376351D01*
X14468724Y-3372834D01*
X14483042Y-3370710D01*
X14497500Y-3370000D01*
X14842500Y-3370000D01*
X14856958Y-3370710D01*
X14856958Y-3370710D01*
G37*
D11*
G04 #@! TD*
G04 #@! TO.P,C10,2*
G04 #@! TO.N,GND*
X14670000Y-3665000D03*
D10*
G04 #@! TO.N,/VDDANA*
G04 #@! TO.C,C10*
G36*
X14856958Y-4340710D02*
X14871276Y-4342834D01*
X14885317Y-4346351D01*
X14898946Y-4351228D01*
X14912031Y-4357417D01*
X14924447Y-4364858D01*
X14936073Y-4373481D01*
X14946798Y-4383202D01*
X14956519Y-4393927D01*
X14965142Y-4405553D01*
X14972583Y-4417969D01*
X14978772Y-4431054D01*
X14983649Y-4444683D01*
X14987166Y-4458724D01*
X14989290Y-4473042D01*
X14990000Y-4487500D01*
X14990000Y-4782500D01*
X14989290Y-4796958D01*
X14987166Y-4811276D01*
X14983649Y-4825317D01*
X14978772Y-4838946D01*
X14972583Y-4852031D01*
X14965142Y-4864447D01*
X14956519Y-4876073D01*
X14946798Y-4886798D01*
X14936073Y-4896519D01*
X14924447Y-4905142D01*
X14912031Y-4912583D01*
X14898946Y-4918772D01*
X14885317Y-4923649D01*
X14871276Y-4927166D01*
X14856958Y-4929290D01*
X14842500Y-4930000D01*
X14497500Y-4930000D01*
X14483042Y-4929290D01*
X14468724Y-4927166D01*
X14454683Y-4923649D01*
X14441054Y-4918772D01*
X14427969Y-4912583D01*
X14415553Y-4905142D01*
X14403927Y-4896519D01*
X14393202Y-4886798D01*
X14383481Y-4876073D01*
X14374858Y-4864447D01*
X14367417Y-4852031D01*
X14361228Y-4838946D01*
X14356351Y-4825317D01*
X14352834Y-4811276D01*
X14350710Y-4796958D01*
X14350000Y-4782500D01*
X14350000Y-4487500D01*
X14350710Y-4473042D01*
X14352834Y-4458724D01*
X14356351Y-4444683D01*
X14361228Y-4431054D01*
X14367417Y-4417969D01*
X14374858Y-4405553D01*
X14383481Y-4393927D01*
X14393202Y-4383202D01*
X14403927Y-4373481D01*
X14415553Y-4364858D01*
X14427969Y-4357417D01*
X14441054Y-4351228D01*
X14454683Y-4346351D01*
X14468724Y-4342834D01*
X14483042Y-4340710D01*
X14497500Y-4340000D01*
X14842500Y-4340000D01*
X14856958Y-4340710D01*
X14856958Y-4340710D01*
G37*
D11*
G04 #@! TD*
G04 #@! TO.P,C10,1*
G04 #@! TO.N,/VDDANA*
X14670000Y-4635000D03*
D10*
G04 #@! TO.N,GND*
G04 #@! TO.C,C12*
G36*
X12016958Y-17190710D02*
X12031276Y-17192834D01*
X12045317Y-17196351D01*
X12058946Y-17201228D01*
X12072031Y-17207417D01*
X12084447Y-17214858D01*
X12096073Y-17223481D01*
X12106798Y-17233202D01*
X12116519Y-17243927D01*
X12125142Y-17255553D01*
X12132583Y-17267969D01*
X12138772Y-17281054D01*
X12143649Y-17294683D01*
X12147166Y-17308724D01*
X12149290Y-17323042D01*
X12150000Y-17337500D01*
X12150000Y-17632500D01*
X12149290Y-17646958D01*
X12147166Y-17661276D01*
X12143649Y-17675317D01*
X12138772Y-17688946D01*
X12132583Y-17702031D01*
X12125142Y-17714447D01*
X12116519Y-17726073D01*
X12106798Y-17736798D01*
X12096073Y-17746519D01*
X12084447Y-17755142D01*
X12072031Y-17762583D01*
X12058946Y-17768772D01*
X12045317Y-17773649D01*
X12031276Y-17777166D01*
X12016958Y-17779290D01*
X12002500Y-17780000D01*
X11657500Y-17780000D01*
X11643042Y-17779290D01*
X11628724Y-17777166D01*
X11614683Y-17773649D01*
X11601054Y-17768772D01*
X11587969Y-17762583D01*
X11575553Y-17755142D01*
X11563927Y-17746519D01*
X11553202Y-17736798D01*
X11543481Y-17726073D01*
X11534858Y-17714447D01*
X11527417Y-17702031D01*
X11521228Y-17688946D01*
X11516351Y-17675317D01*
X11512834Y-17661276D01*
X11510710Y-17646958D01*
X11510000Y-17632500D01*
X11510000Y-17337500D01*
X11510710Y-17323042D01*
X11512834Y-17308724D01*
X11516351Y-17294683D01*
X11521228Y-17281054D01*
X11527417Y-17267969D01*
X11534858Y-17255553D01*
X11543481Y-17243927D01*
X11553202Y-17233202D01*
X11563927Y-17223481D01*
X11575553Y-17214858D01*
X11587969Y-17207417D01*
X11601054Y-17201228D01*
X11614683Y-17196351D01*
X11628724Y-17192834D01*
X11643042Y-17190710D01*
X11657500Y-17190000D01*
X12002500Y-17190000D01*
X12016958Y-17190710D01*
X12016958Y-17190710D01*
G37*
D11*
G04 #@! TD*
G04 #@! TO.P,C12,2*
G04 #@! TO.N,GND*
X11830000Y-17485000D03*
D10*
G04 #@! TO.N,/VPLL_B*
G04 #@! TO.C,C12*
G36*
X12016958Y-16220710D02*
X12031276Y-16222834D01*
X12045317Y-16226351D01*
X12058946Y-16231228D01*
X12072031Y-16237417D01*
X12084447Y-16244858D01*
X12096073Y-16253481D01*
X12106798Y-16263202D01*
X12116519Y-16273927D01*
X12125142Y-16285553D01*
X12132583Y-16297969D01*
X12138772Y-16311054D01*
X12143649Y-16324683D01*
X12147166Y-16338724D01*
X12149290Y-16353042D01*
X12150000Y-16367500D01*
X12150000Y-16662500D01*
X12149290Y-16676958D01*
X12147166Y-16691276D01*
X12143649Y-16705317D01*
X12138772Y-16718946D01*
X12132583Y-16732031D01*
X12125142Y-16744447D01*
X12116519Y-16756073D01*
X12106798Y-16766798D01*
X12096073Y-16776519D01*
X12084447Y-16785142D01*
X12072031Y-16792583D01*
X12058946Y-16798772D01*
X12045317Y-16803649D01*
X12031276Y-16807166D01*
X12016958Y-16809290D01*
X12002500Y-16810000D01*
X11657500Y-16810000D01*
X11643042Y-16809290D01*
X11628724Y-16807166D01*
X11614683Y-16803649D01*
X11601054Y-16798772D01*
X11587969Y-16792583D01*
X11575553Y-16785142D01*
X11563927Y-16776519D01*
X11553202Y-16766798D01*
X11543481Y-16756073D01*
X11534858Y-16744447D01*
X11527417Y-16732031D01*
X11521228Y-16718946D01*
X11516351Y-16705317D01*
X11512834Y-16691276D01*
X11510710Y-16676958D01*
X11510000Y-16662500D01*
X11510000Y-16367500D01*
X11510710Y-16353042D01*
X11512834Y-16338724D01*
X11516351Y-16324683D01*
X11521228Y-16311054D01*
X11527417Y-16297969D01*
X11534858Y-16285553D01*
X11543481Y-16273927D01*
X11553202Y-16263202D01*
X11563927Y-16253481D01*
X11575553Y-16244858D01*
X11587969Y-16237417D01*
X11601054Y-16231228D01*
X11614683Y-16226351D01*
X11628724Y-16222834D01*
X11643042Y-16220710D01*
X11657500Y-16220000D01*
X12002500Y-16220000D01*
X12016958Y-16220710D01*
X12016958Y-16220710D01*
G37*
D11*
G04 #@! TD*
G04 #@! TO.P,C12,1*
G04 #@! TO.N,/VPLL_B*
X11830000Y-16515000D03*
D10*
G04 #@! TO.N,GND*
G04 #@! TO.C,C13*
G36*
X11006958Y-17190710D02*
X11021276Y-17192834D01*
X11035317Y-17196351D01*
X11048946Y-17201228D01*
X11062031Y-17207417D01*
X11074447Y-17214858D01*
X11086073Y-17223481D01*
X11096798Y-17233202D01*
X11106519Y-17243927D01*
X11115142Y-17255553D01*
X11122583Y-17267969D01*
X11128772Y-17281054D01*
X11133649Y-17294683D01*
X11137166Y-17308724D01*
X11139290Y-17323042D01*
X11140000Y-17337500D01*
X11140000Y-17632500D01*
X11139290Y-17646958D01*
X11137166Y-17661276D01*
X11133649Y-17675317D01*
X11128772Y-17688946D01*
X11122583Y-17702031D01*
X11115142Y-17714447D01*
X11106519Y-17726073D01*
X11096798Y-17736798D01*
X11086073Y-17746519D01*
X11074447Y-17755142D01*
X11062031Y-17762583D01*
X11048946Y-17768772D01*
X11035317Y-17773649D01*
X11021276Y-17777166D01*
X11006958Y-17779290D01*
X10992500Y-17780000D01*
X10647500Y-17780000D01*
X10633042Y-17779290D01*
X10618724Y-17777166D01*
X10604683Y-17773649D01*
X10591054Y-17768772D01*
X10577969Y-17762583D01*
X10565553Y-17755142D01*
X10553927Y-17746519D01*
X10543202Y-17736798D01*
X10533481Y-17726073D01*
X10524858Y-17714447D01*
X10517417Y-17702031D01*
X10511228Y-17688946D01*
X10506351Y-17675317D01*
X10502834Y-17661276D01*
X10500710Y-17646958D01*
X10500000Y-17632500D01*
X10500000Y-17337500D01*
X10500710Y-17323042D01*
X10502834Y-17308724D01*
X10506351Y-17294683D01*
X10511228Y-17281054D01*
X10517417Y-17267969D01*
X10524858Y-17255553D01*
X10533481Y-17243927D01*
X10543202Y-17233202D01*
X10553927Y-17223481D01*
X10565553Y-17214858D01*
X10577969Y-17207417D01*
X10591054Y-17201228D01*
X10604683Y-17196351D01*
X10618724Y-17192834D01*
X10633042Y-17190710D01*
X10647500Y-17190000D01*
X10992500Y-17190000D01*
X11006958Y-17190710D01*
X11006958Y-17190710D01*
G37*
D11*
G04 #@! TD*
G04 #@! TO.P,C13,2*
G04 #@! TO.N,GND*
X10820000Y-17485000D03*
D10*
G04 #@! TO.N,/VPLL_B*
G04 #@! TO.C,C13*
G36*
X11006958Y-16220710D02*
X11021276Y-16222834D01*
X11035317Y-16226351D01*
X11048946Y-16231228D01*
X11062031Y-16237417D01*
X11074447Y-16244858D01*
X11086073Y-16253481D01*
X11096798Y-16263202D01*
X11106519Y-16273927D01*
X11115142Y-16285553D01*
X11122583Y-16297969D01*
X11128772Y-16311054D01*
X11133649Y-16324683D01*
X11137166Y-16338724D01*
X11139290Y-16353042D01*
X11140000Y-16367500D01*
X11140000Y-16662500D01*
X11139290Y-16676958D01*
X11137166Y-16691276D01*
X11133649Y-16705317D01*
X11128772Y-16718946D01*
X11122583Y-16732031D01*
X11115142Y-16744447D01*
X11106519Y-16756073D01*
X11096798Y-16766798D01*
X11086073Y-16776519D01*
X11074447Y-16785142D01*
X11062031Y-16792583D01*
X11048946Y-16798772D01*
X11035317Y-16803649D01*
X11021276Y-16807166D01*
X11006958Y-16809290D01*
X10992500Y-16810000D01*
X10647500Y-16810000D01*
X10633042Y-16809290D01*
X10618724Y-16807166D01*
X10604683Y-16803649D01*
X10591054Y-16798772D01*
X10577969Y-16792583D01*
X10565553Y-16785142D01*
X10553927Y-16776519D01*
X10543202Y-16766798D01*
X10533481Y-16756073D01*
X10524858Y-16744447D01*
X10517417Y-16732031D01*
X10511228Y-16718946D01*
X10506351Y-16705317D01*
X10502834Y-16691276D01*
X10500710Y-16676958D01*
X10500000Y-16662500D01*
X10500000Y-16367500D01*
X10500710Y-16353042D01*
X10502834Y-16338724D01*
X10506351Y-16324683D01*
X10511228Y-16311054D01*
X10517417Y-16297969D01*
X10524858Y-16285553D01*
X10533481Y-16273927D01*
X10543202Y-16263202D01*
X10553927Y-16253481D01*
X10565553Y-16244858D01*
X10577969Y-16237417D01*
X10591054Y-16231228D01*
X10604683Y-16226351D01*
X10618724Y-16222834D01*
X10633042Y-16220710D01*
X10647500Y-16220000D01*
X10992500Y-16220000D01*
X11006958Y-16220710D01*
X11006958Y-16220710D01*
G37*
D11*
G04 #@! TD*
G04 #@! TO.P,C13,1*
G04 #@! TO.N,/VPLL_B*
X10820000Y-16515000D03*
D10*
G04 #@! TO.N,GND*
G04 #@! TO.C,C14*
G36*
X15566958Y-16110710D02*
X15581276Y-16112834D01*
X15595317Y-16116351D01*
X15608946Y-16121228D01*
X15622031Y-16127417D01*
X15634447Y-16134858D01*
X15646073Y-16143481D01*
X15656798Y-16153202D01*
X15666519Y-16163927D01*
X15675142Y-16175553D01*
X15682583Y-16187969D01*
X15688772Y-16201054D01*
X15693649Y-16214683D01*
X15697166Y-16228724D01*
X15699290Y-16243042D01*
X15700000Y-16257500D01*
X15700000Y-16552500D01*
X15699290Y-16566958D01*
X15697166Y-16581276D01*
X15693649Y-16595317D01*
X15688772Y-16608946D01*
X15682583Y-16622031D01*
X15675142Y-16634447D01*
X15666519Y-16646073D01*
X15656798Y-16656798D01*
X15646073Y-16666519D01*
X15634447Y-16675142D01*
X15622031Y-16682583D01*
X15608946Y-16688772D01*
X15595317Y-16693649D01*
X15581276Y-16697166D01*
X15566958Y-16699290D01*
X15552500Y-16700000D01*
X15207500Y-16700000D01*
X15193042Y-16699290D01*
X15178724Y-16697166D01*
X15164683Y-16693649D01*
X15151054Y-16688772D01*
X15137969Y-16682583D01*
X15125553Y-16675142D01*
X15113927Y-16666519D01*
X15103202Y-16656798D01*
X15093481Y-16646073D01*
X15084858Y-16634447D01*
X15077417Y-16622031D01*
X15071228Y-16608946D01*
X15066351Y-16595317D01*
X15062834Y-16581276D01*
X15060710Y-16566958D01*
X15060000Y-16552500D01*
X15060000Y-16257500D01*
X15060710Y-16243042D01*
X15062834Y-16228724D01*
X15066351Y-16214683D01*
X15071228Y-16201054D01*
X15077417Y-16187969D01*
X15084858Y-16175553D01*
X15093481Y-16163927D01*
X15103202Y-16153202D01*
X15113927Y-16143481D01*
X15125553Y-16134858D01*
X15137969Y-16127417D01*
X15151054Y-16121228D01*
X15164683Y-16116351D01*
X15178724Y-16112834D01*
X15193042Y-16110710D01*
X15207500Y-16110000D01*
X15552500Y-16110000D01*
X15566958Y-16110710D01*
X15566958Y-16110710D01*
G37*
D11*
G04 #@! TD*
G04 #@! TO.P,C14,2*
G04 #@! TO.N,GND*
X15380000Y-16405000D03*
D10*
G04 #@! TO.N,/VPLL_A*
G04 #@! TO.C,C14*
G36*
X15566958Y-15140710D02*
X15581276Y-15142834D01*
X15595317Y-15146351D01*
X15608946Y-15151228D01*
X15622031Y-15157417D01*
X15634447Y-15164858D01*
X15646073Y-15173481D01*
X15656798Y-15183202D01*
X15666519Y-15193927D01*
X15675142Y-15205553D01*
X15682583Y-15217969D01*
X15688772Y-15231054D01*
X15693649Y-15244683D01*
X15697166Y-15258724D01*
X15699290Y-15273042D01*
X15700000Y-15287500D01*
X15700000Y-15582500D01*
X15699290Y-15596958D01*
X15697166Y-15611276D01*
X15693649Y-15625317D01*
X15688772Y-15638946D01*
X15682583Y-15652031D01*
X15675142Y-15664447D01*
X15666519Y-15676073D01*
X15656798Y-15686798D01*
X15646073Y-15696519D01*
X15634447Y-15705142D01*
X15622031Y-15712583D01*
X15608946Y-15718772D01*
X15595317Y-15723649D01*
X15581276Y-15727166D01*
X15566958Y-15729290D01*
X15552500Y-15730000D01*
X15207500Y-15730000D01*
X15193042Y-15729290D01*
X15178724Y-15727166D01*
X15164683Y-15723649D01*
X15151054Y-15718772D01*
X15137969Y-15712583D01*
X15125553Y-15705142D01*
X15113927Y-15696519D01*
X15103202Y-15686798D01*
X15093481Y-15676073D01*
X15084858Y-15664447D01*
X15077417Y-15652031D01*
X15071228Y-15638946D01*
X15066351Y-15625317D01*
X15062834Y-15611276D01*
X15060710Y-15596958D01*
X15060000Y-15582500D01*
X15060000Y-15287500D01*
X15060710Y-15273042D01*
X15062834Y-15258724D01*
X15066351Y-15244683D01*
X15071228Y-15231054D01*
X15077417Y-15217969D01*
X15084858Y-15205553D01*
X15093481Y-15193927D01*
X15103202Y-15183202D01*
X15113927Y-15173481D01*
X15125553Y-15164858D01*
X15137969Y-15157417D01*
X15151054Y-15151228D01*
X15164683Y-15146351D01*
X15178724Y-15142834D01*
X15193042Y-15140710D01*
X15207500Y-15140000D01*
X15552500Y-15140000D01*
X15566958Y-15140710D01*
X15566958Y-15140710D01*
G37*
D11*
G04 #@! TD*
G04 #@! TO.P,C14,1*
G04 #@! TO.N,/VPLL_A*
X15380000Y-15435000D03*
D10*
G04 #@! TO.N,GND*
G04 #@! TO.C,C1*
G36*
X6976958Y-8520710D02*
X6991276Y-8522834D01*
X7005317Y-8526351D01*
X7018946Y-8531228D01*
X7032031Y-8537417D01*
X7044447Y-8544858D01*
X7056073Y-8553481D01*
X7066798Y-8563202D01*
X7076519Y-8573927D01*
X7085142Y-8585553D01*
X7092583Y-8597969D01*
X7098772Y-8611054D01*
X7103649Y-8624683D01*
X7107166Y-8638724D01*
X7109290Y-8653042D01*
X7110000Y-8667500D01*
X7110000Y-8962500D01*
X7109290Y-8976958D01*
X7107166Y-8991276D01*
X7103649Y-9005317D01*
X7098772Y-9018946D01*
X7092583Y-9032031D01*
X7085142Y-9044447D01*
X7076519Y-9056073D01*
X7066798Y-9066798D01*
X7056073Y-9076519D01*
X7044447Y-9085142D01*
X7032031Y-9092583D01*
X7018946Y-9098772D01*
X7005317Y-9103649D01*
X6991276Y-9107166D01*
X6976958Y-9109290D01*
X6962500Y-9110000D01*
X6617500Y-9110000D01*
X6603042Y-9109290D01*
X6588724Y-9107166D01*
X6574683Y-9103649D01*
X6561054Y-9098772D01*
X6547969Y-9092583D01*
X6535553Y-9085142D01*
X6523927Y-9076519D01*
X6513202Y-9066798D01*
X6503481Y-9056073D01*
X6494858Y-9044447D01*
X6487417Y-9032031D01*
X6481228Y-9018946D01*
X6476351Y-9005317D01*
X6472834Y-8991276D01*
X6470710Y-8976958D01*
X6470000Y-8962500D01*
X6470000Y-8667500D01*
X6470710Y-8653042D01*
X6472834Y-8638724D01*
X6476351Y-8624683D01*
X6481228Y-8611054D01*
X6487417Y-8597969D01*
X6494858Y-8585553D01*
X6503481Y-8573927D01*
X6513202Y-8563202D01*
X6523927Y-8553481D01*
X6535553Y-8544858D01*
X6547969Y-8537417D01*
X6561054Y-8531228D01*
X6574683Y-8526351D01*
X6588724Y-8522834D01*
X6603042Y-8520710D01*
X6617500Y-8520000D01*
X6962500Y-8520000D01*
X6976958Y-8520710D01*
X6976958Y-8520710D01*
G37*
D11*
G04 #@! TD*
G04 #@! TO.P,C1,2*
G04 #@! TO.N,GND*
X6790000Y-8815000D03*
D10*
G04 #@! TO.N,/3V3_SYS*
G04 #@! TO.C,C1*
G36*
X6976958Y-7550710D02*
X6991276Y-7552834D01*
X7005317Y-7556351D01*
X7018946Y-7561228D01*
X7032031Y-7567417D01*
X7044447Y-7574858D01*
X7056073Y-7583481D01*
X7066798Y-7593202D01*
X7076519Y-7603927D01*
X7085142Y-7615553D01*
X7092583Y-7627969D01*
X7098772Y-7641054D01*
X7103649Y-7654683D01*
X7107166Y-7668724D01*
X7109290Y-7683042D01*
X7110000Y-7697500D01*
X7110000Y-7992500D01*
X7109290Y-8006958D01*
X7107166Y-8021276D01*
X7103649Y-8035317D01*
X7098772Y-8048946D01*
X7092583Y-8062031D01*
X7085142Y-8074447D01*
X7076519Y-8086073D01*
X7066798Y-8096798D01*
X7056073Y-8106519D01*
X7044447Y-8115142D01*
X7032031Y-8122583D01*
X7018946Y-8128772D01*
X7005317Y-8133649D01*
X6991276Y-8137166D01*
X6976958Y-8139290D01*
X6962500Y-8140000D01*
X6617500Y-8140000D01*
X6603042Y-8139290D01*
X6588724Y-8137166D01*
X6574683Y-8133649D01*
X6561054Y-8128772D01*
X6547969Y-8122583D01*
X6535553Y-8115142D01*
X6523927Y-8106519D01*
X6513202Y-8096798D01*
X6503481Y-8086073D01*
X6494858Y-8074447D01*
X6487417Y-8062031D01*
X6481228Y-8048946D01*
X6476351Y-8035317D01*
X6472834Y-8021276D01*
X6470710Y-8006958D01*
X6470000Y-7992500D01*
X6470000Y-7697500D01*
X6470710Y-7683042D01*
X6472834Y-7668724D01*
X6476351Y-7654683D01*
X6481228Y-7641054D01*
X6487417Y-7627969D01*
X6494858Y-7615553D01*
X6503481Y-7603927D01*
X6513202Y-7593202D01*
X6523927Y-7583481D01*
X6535553Y-7574858D01*
X6547969Y-7567417D01*
X6561054Y-7561228D01*
X6574683Y-7556351D01*
X6588724Y-7552834D01*
X6603042Y-7550710D01*
X6617500Y-7550000D01*
X6962500Y-7550000D01*
X6976958Y-7550710D01*
X6976958Y-7550710D01*
G37*
D11*
G04 #@! TD*
G04 #@! TO.P,C1,1*
G04 #@! TO.N,/3V3_SYS*
X6790000Y-7845000D03*
D10*
G04 #@! TO.N,/USB_D_P*
G04 #@! TO.C,R11*
G36*
X20236958Y-6510710D02*
X20251276Y-6512834D01*
X20265317Y-6516351D01*
X20278946Y-6521228D01*
X20292031Y-6527417D01*
X20304447Y-6534858D01*
X20316073Y-6543481D01*
X20326798Y-6553202D01*
X20336519Y-6563927D01*
X20345142Y-6575553D01*
X20352583Y-6587969D01*
X20358772Y-6601054D01*
X20363649Y-6614683D01*
X20367166Y-6628724D01*
X20369290Y-6643042D01*
X20370000Y-6657500D01*
X20370000Y-7002500D01*
X20369290Y-7016958D01*
X20367166Y-7031276D01*
X20363649Y-7045317D01*
X20358772Y-7058946D01*
X20352583Y-7072031D01*
X20345142Y-7084447D01*
X20336519Y-7096073D01*
X20326798Y-7106798D01*
X20316073Y-7116519D01*
X20304447Y-7125142D01*
X20292031Y-7132583D01*
X20278946Y-7138772D01*
X20265317Y-7143649D01*
X20251276Y-7147166D01*
X20236958Y-7149290D01*
X20222500Y-7150000D01*
X19927500Y-7150000D01*
X19913042Y-7149290D01*
X19898724Y-7147166D01*
X19884683Y-7143649D01*
X19871054Y-7138772D01*
X19857969Y-7132583D01*
X19845553Y-7125142D01*
X19833927Y-7116519D01*
X19823202Y-7106798D01*
X19813481Y-7096073D01*
X19804858Y-7084447D01*
X19797417Y-7072031D01*
X19791228Y-7058946D01*
X19786351Y-7045317D01*
X19782834Y-7031276D01*
X19780710Y-7016958D01*
X19780000Y-7002500D01*
X19780000Y-6657500D01*
X19780710Y-6643042D01*
X19782834Y-6628724D01*
X19786351Y-6614683D01*
X19791228Y-6601054D01*
X19797417Y-6587969D01*
X19804858Y-6575553D01*
X19813481Y-6563927D01*
X19823202Y-6553202D01*
X19833927Y-6543481D01*
X19845553Y-6534858D01*
X19857969Y-6527417D01*
X19871054Y-6521228D01*
X19884683Y-6516351D01*
X19898724Y-6512834D01*
X19913042Y-6510710D01*
X19927500Y-6510000D01*
X20222500Y-6510000D01*
X20236958Y-6510710D01*
X20236958Y-6510710D01*
G37*
D11*
G04 #@! TD*
G04 #@! TO.P,R11,2*
G04 #@! TO.N,/USB_D_P*
X20075000Y-6830000D03*
D10*
G04 #@! TO.N,/USB_DET*
G04 #@! TO.C,R11*
G36*
X21206958Y-6510710D02*
X21221276Y-6512834D01*
X21235317Y-6516351D01*
X21248946Y-6521228D01*
X21262031Y-6527417D01*
X21274447Y-6534858D01*
X21286073Y-6543481D01*
X21296798Y-6553202D01*
X21306519Y-6563927D01*
X21315142Y-6575553D01*
X21322583Y-6587969D01*
X21328772Y-6601054D01*
X21333649Y-6614683D01*
X21337166Y-6628724D01*
X21339290Y-6643042D01*
X21340000Y-6657500D01*
X21340000Y-7002500D01*
X21339290Y-7016958D01*
X21337166Y-7031276D01*
X21333649Y-7045317D01*
X21328772Y-7058946D01*
X21322583Y-7072031D01*
X21315142Y-7084447D01*
X21306519Y-7096073D01*
X21296798Y-7106798D01*
X21286073Y-7116519D01*
X21274447Y-7125142D01*
X21262031Y-7132583D01*
X21248946Y-7138772D01*
X21235317Y-7143649D01*
X21221276Y-7147166D01*
X21206958Y-7149290D01*
X21192500Y-7150000D01*
X20897500Y-7150000D01*
X20883042Y-7149290D01*
X20868724Y-7147166D01*
X20854683Y-7143649D01*
X20841054Y-7138772D01*
X20827969Y-7132583D01*
X20815553Y-7125142D01*
X20803927Y-7116519D01*
X20793202Y-7106798D01*
X20783481Y-7096073D01*
X20774858Y-7084447D01*
X20767417Y-7072031D01*
X20761228Y-7058946D01*
X20756351Y-7045317D01*
X20752834Y-7031276D01*
X20750710Y-7016958D01*
X20750000Y-7002500D01*
X20750000Y-6657500D01*
X20750710Y-6643042D01*
X20752834Y-6628724D01*
X20756351Y-6614683D01*
X20761228Y-6601054D01*
X20767417Y-6587969D01*
X20774858Y-6575553D01*
X20783481Y-6563927D01*
X20793202Y-6553202D01*
X20803927Y-6543481D01*
X20815553Y-6534858D01*
X20827969Y-6527417D01*
X20841054Y-6521228D01*
X20854683Y-6516351D01*
X20868724Y-6512834D01*
X20883042Y-6510710D01*
X20897500Y-6510000D01*
X21192500Y-6510000D01*
X21206958Y-6510710D01*
X21206958Y-6510710D01*
G37*
D11*
G04 #@! TD*
G04 #@! TO.P,R11,1*
G04 #@! TO.N,/USB_DET*
X21045000Y-6830000D03*
D10*
G04 #@! TO.N,/CSI_D1_IN_P*
G04 #@! TO.C,R24*
G36*
X20426958Y-12340710D02*
X20441276Y-12342834D01*
X20455317Y-12346351D01*
X20468946Y-12351228D01*
X20482031Y-12357417D01*
X20494447Y-12364858D01*
X20506073Y-12373481D01*
X20516798Y-12383202D01*
X20526519Y-12393927D01*
X20535142Y-12405553D01*
X20542583Y-12417969D01*
X20548772Y-12431054D01*
X20553649Y-12444683D01*
X20557166Y-12458724D01*
X20559290Y-12473042D01*
X20560000Y-12487500D01*
X20560000Y-12782500D01*
X20559290Y-12796958D01*
X20557166Y-12811276D01*
X20553649Y-12825317D01*
X20548772Y-12838946D01*
X20542583Y-12852031D01*
X20535142Y-12864447D01*
X20526519Y-12876073D01*
X20516798Y-12886798D01*
X20506073Y-12896519D01*
X20494447Y-12905142D01*
X20482031Y-12912583D01*
X20468946Y-12918772D01*
X20455317Y-12923649D01*
X20441276Y-12927166D01*
X20426958Y-12929290D01*
X20412500Y-12930000D01*
X20067500Y-12930000D01*
X20053042Y-12929290D01*
X20038724Y-12927166D01*
X20024683Y-12923649D01*
X20011054Y-12918772D01*
X19997969Y-12912583D01*
X19985553Y-12905142D01*
X19973927Y-12896519D01*
X19963202Y-12886798D01*
X19953481Y-12876073D01*
X19944858Y-12864447D01*
X19937417Y-12852031D01*
X19931228Y-12838946D01*
X19926351Y-12825317D01*
X19922834Y-12811276D01*
X19920710Y-12796958D01*
X19920000Y-12782500D01*
X19920000Y-12487500D01*
X19920710Y-12473042D01*
X19922834Y-12458724D01*
X19926351Y-12444683D01*
X19931228Y-12431054D01*
X19937417Y-12417969D01*
X19944858Y-12405553D01*
X19953481Y-12393927D01*
X19963202Y-12383202D01*
X19973927Y-12373481D01*
X19985553Y-12364858D01*
X19997969Y-12357417D01*
X20011054Y-12351228D01*
X20024683Y-12346351D01*
X20038724Y-12342834D01*
X20053042Y-12340710D01*
X20067500Y-12340000D01*
X20412500Y-12340000D01*
X20426958Y-12340710D01*
X20426958Y-12340710D01*
G37*
D11*
G04 #@! TD*
G04 #@! TO.P,R24,2*
G04 #@! TO.N,/CSI_D1_IN_P*
X20240000Y-12635000D03*
D10*
G04 #@! TO.N,/CSI_INT*
G04 #@! TO.C,R24*
G36*
X20426958Y-11370710D02*
X20441276Y-11372834D01*
X20455317Y-11376351D01*
X20468946Y-11381228D01*
X20482031Y-11387417D01*
X20494447Y-11394858D01*
X20506073Y-11403481D01*
X20516798Y-11413202D01*
X20526519Y-11423927D01*
X20535142Y-11435553D01*
X20542583Y-11447969D01*
X20548772Y-11461054D01*
X20553649Y-11474683D01*
X20557166Y-11488724D01*
X20559290Y-11503042D01*
X20560000Y-11517500D01*
X20560000Y-11812500D01*
X20559290Y-11826958D01*
X20557166Y-11841276D01*
X20553649Y-11855317D01*
X20548772Y-11868946D01*
X20542583Y-11882031D01*
X20535142Y-11894447D01*
X20526519Y-11906073D01*
X20516798Y-11916798D01*
X20506073Y-11926519D01*
X20494447Y-11935142D01*
X20482031Y-11942583D01*
X20468946Y-11948772D01*
X20455317Y-11953649D01*
X20441276Y-11957166D01*
X20426958Y-11959290D01*
X20412500Y-11960000D01*
X20067500Y-11960000D01*
X20053042Y-11959290D01*
X20038724Y-11957166D01*
X20024683Y-11953649D01*
X20011054Y-11948772D01*
X19997969Y-11942583D01*
X19985553Y-11935142D01*
X19973927Y-11926519D01*
X19963202Y-11916798D01*
X19953481Y-11906073D01*
X19944858Y-11894447D01*
X19937417Y-11882031D01*
X19931228Y-11868946D01*
X19926351Y-11855317D01*
X19922834Y-11841276D01*
X19920710Y-11826958D01*
X19920000Y-11812500D01*
X19920000Y-11517500D01*
X19920710Y-11503042D01*
X19922834Y-11488724D01*
X19926351Y-11474683D01*
X19931228Y-11461054D01*
X19937417Y-11447969D01*
X19944858Y-11435553D01*
X19953481Y-11423927D01*
X19963202Y-11413202D01*
X19973927Y-11403481D01*
X19985553Y-11394858D01*
X19997969Y-11387417D01*
X20011054Y-11381228D01*
X20024683Y-11376351D01*
X20038724Y-11372834D01*
X20053042Y-11370710D01*
X20067500Y-11370000D01*
X20412500Y-11370000D01*
X20426958Y-11370710D01*
X20426958Y-11370710D01*
G37*
D11*
G04 #@! TD*
G04 #@! TO.P,R24,1*
G04 #@! TO.N,/CSI_INT*
X20240000Y-11665000D03*
D10*
G04 #@! TO.N,/VPLL_B*
G04 #@! TO.C,R10*
G36*
X9996958Y-16220710D02*
X10011276Y-16222834D01*
X10025317Y-16226351D01*
X10038946Y-16231228D01*
X10052031Y-16237417D01*
X10064447Y-16244858D01*
X10076073Y-16253481D01*
X10086798Y-16263202D01*
X10096519Y-16273927D01*
X10105142Y-16285553D01*
X10112583Y-16297969D01*
X10118772Y-16311054D01*
X10123649Y-16324683D01*
X10127166Y-16338724D01*
X10129290Y-16353042D01*
X10130000Y-16367500D01*
X10130000Y-16662500D01*
X10129290Y-16676958D01*
X10127166Y-16691276D01*
X10123649Y-16705317D01*
X10118772Y-16718946D01*
X10112583Y-16732031D01*
X10105142Y-16744447D01*
X10096519Y-16756073D01*
X10086798Y-16766798D01*
X10076073Y-16776519D01*
X10064447Y-16785142D01*
X10052031Y-16792583D01*
X10038946Y-16798772D01*
X10025317Y-16803649D01*
X10011276Y-16807166D01*
X9996958Y-16809290D01*
X9982500Y-16810000D01*
X9637500Y-16810000D01*
X9623042Y-16809290D01*
X9608724Y-16807166D01*
X9594683Y-16803649D01*
X9581054Y-16798772D01*
X9567969Y-16792583D01*
X9555553Y-16785142D01*
X9543927Y-16776519D01*
X9533202Y-16766798D01*
X9523481Y-16756073D01*
X9514858Y-16744447D01*
X9507417Y-16732031D01*
X9501228Y-16718946D01*
X9496351Y-16705317D01*
X9492834Y-16691276D01*
X9490710Y-16676958D01*
X9490000Y-16662500D01*
X9490000Y-16367500D01*
X9490710Y-16353042D01*
X9492834Y-16338724D01*
X9496351Y-16324683D01*
X9501228Y-16311054D01*
X9507417Y-16297969D01*
X9514858Y-16285553D01*
X9523481Y-16273927D01*
X9533202Y-16263202D01*
X9543927Y-16253481D01*
X9555553Y-16244858D01*
X9567969Y-16237417D01*
X9581054Y-16231228D01*
X9594683Y-16226351D01*
X9608724Y-16222834D01*
X9623042Y-16220710D01*
X9637500Y-16220000D01*
X9982500Y-16220000D01*
X9996958Y-16220710D01*
X9996958Y-16220710D01*
G37*
D11*
G04 #@! TD*
G04 #@! TO.P,R10,2*
G04 #@! TO.N,/VPLL_B*
X9810000Y-16515000D03*
D10*
G04 #@! TO.N,/1V2_SYS*
G04 #@! TO.C,R10*
G36*
X9996958Y-17190710D02*
X10011276Y-17192834D01*
X10025317Y-17196351D01*
X10038946Y-17201228D01*
X10052031Y-17207417D01*
X10064447Y-17214858D01*
X10076073Y-17223481D01*
X10086798Y-17233202D01*
X10096519Y-17243927D01*
X10105142Y-17255553D01*
X10112583Y-17267969D01*
X10118772Y-17281054D01*
X10123649Y-17294683D01*
X10127166Y-17308724D01*
X10129290Y-17323042D01*
X10130000Y-17337500D01*
X10130000Y-17632500D01*
X10129290Y-17646958D01*
X10127166Y-17661276D01*
X10123649Y-17675317D01*
X10118772Y-17688946D01*
X10112583Y-17702031D01*
X10105142Y-17714447D01*
X10096519Y-17726073D01*
X10086798Y-17736798D01*
X10076073Y-17746519D01*
X10064447Y-17755142D01*
X10052031Y-17762583D01*
X10038946Y-17768772D01*
X10025317Y-17773649D01*
X10011276Y-17777166D01*
X9996958Y-17779290D01*
X9982500Y-17780000D01*
X9637500Y-17780000D01*
X9623042Y-17779290D01*
X9608724Y-17777166D01*
X9594683Y-17773649D01*
X9581054Y-17768772D01*
X9567969Y-17762583D01*
X9555553Y-17755142D01*
X9543927Y-17746519D01*
X9533202Y-17736798D01*
X9523481Y-17726073D01*
X9514858Y-17714447D01*
X9507417Y-17702031D01*
X9501228Y-17688946D01*
X9496351Y-17675317D01*
X9492834Y-17661276D01*
X9490710Y-17646958D01*
X9490000Y-17632500D01*
X9490000Y-17337500D01*
X9490710Y-17323042D01*
X9492834Y-17308724D01*
X9496351Y-17294683D01*
X9501228Y-17281054D01*
X9507417Y-17267969D01*
X9514858Y-17255553D01*
X9523481Y-17243927D01*
X9533202Y-17233202D01*
X9543927Y-17223481D01*
X9555553Y-17214858D01*
X9567969Y-17207417D01*
X9581054Y-17201228D01*
X9594683Y-17196351D01*
X9608724Y-17192834D01*
X9623042Y-17190710D01*
X9637500Y-17190000D01*
X9982500Y-17190000D01*
X9996958Y-17190710D01*
X9996958Y-17190710D01*
G37*
D11*
G04 #@! TD*
G04 #@! TO.P,R10,1*
G04 #@! TO.N,/1V2_SYS*
X9810000Y-17485000D03*
D10*
G04 #@! TO.N,/VPLL_A*
G04 #@! TO.C,R9*
G36*
X17596958Y-15140710D02*
X17611276Y-15142834D01*
X17625317Y-15146351D01*
X17638946Y-15151228D01*
X17652031Y-15157417D01*
X17664447Y-15164858D01*
X17676073Y-15173481D01*
X17686798Y-15183202D01*
X17696519Y-15193927D01*
X17705142Y-15205553D01*
X17712583Y-15217969D01*
X17718772Y-15231054D01*
X17723649Y-15244683D01*
X17727166Y-15258724D01*
X17729290Y-15273042D01*
X17730000Y-15287500D01*
X17730000Y-15582500D01*
X17729290Y-15596958D01*
X17727166Y-15611276D01*
X17723649Y-15625317D01*
X17718772Y-15638946D01*
X17712583Y-15652031D01*
X17705142Y-15664447D01*
X17696519Y-15676073D01*
X17686798Y-15686798D01*
X17676073Y-15696519D01*
X17664447Y-15705142D01*
X17652031Y-15712583D01*
X17638946Y-15718772D01*
X17625317Y-15723649D01*
X17611276Y-15727166D01*
X17596958Y-15729290D01*
X17582500Y-15730000D01*
X17237500Y-15730000D01*
X17223042Y-15729290D01*
X17208724Y-15727166D01*
X17194683Y-15723649D01*
X17181054Y-15718772D01*
X17167969Y-15712583D01*
X17155553Y-15705142D01*
X17143927Y-15696519D01*
X17133202Y-15686798D01*
X17123481Y-15676073D01*
X17114858Y-15664447D01*
X17107417Y-15652031D01*
X17101228Y-15638946D01*
X17096351Y-15625317D01*
X17092834Y-15611276D01*
X17090710Y-15596958D01*
X17090000Y-15582500D01*
X17090000Y-15287500D01*
X17090710Y-15273042D01*
X17092834Y-15258724D01*
X17096351Y-15244683D01*
X17101228Y-15231054D01*
X17107417Y-15217969D01*
X17114858Y-15205553D01*
X17123481Y-15193927D01*
X17133202Y-15183202D01*
X17143927Y-15173481D01*
X17155553Y-15164858D01*
X17167969Y-15157417D01*
X17181054Y-15151228D01*
X17194683Y-15146351D01*
X17208724Y-15142834D01*
X17223042Y-15140710D01*
X17237500Y-15140000D01*
X17582500Y-15140000D01*
X17596958Y-15140710D01*
X17596958Y-15140710D01*
G37*
D11*
G04 #@! TD*
G04 #@! TO.P,R9,2*
G04 #@! TO.N,/VPLL_A*
X17410000Y-15435000D03*
D10*
G04 #@! TO.N,/1V2_SYS*
G04 #@! TO.C,R9*
G36*
X17596958Y-16110710D02*
X17611276Y-16112834D01*
X17625317Y-16116351D01*
X17638946Y-16121228D01*
X17652031Y-16127417D01*
X17664447Y-16134858D01*
X17676073Y-16143481D01*
X17686798Y-16153202D01*
X17696519Y-16163927D01*
X17705142Y-16175553D01*
X17712583Y-16187969D01*
X17718772Y-16201054D01*
X17723649Y-16214683D01*
X17727166Y-16228724D01*
X17729290Y-16243042D01*
X17730000Y-16257500D01*
X17730000Y-16552500D01*
X17729290Y-16566958D01*
X17727166Y-16581276D01*
X17723649Y-16595317D01*
X17718772Y-16608946D01*
X17712583Y-16622031D01*
X17705142Y-16634447D01*
X17696519Y-16646073D01*
X17686798Y-16656798D01*
X17676073Y-16666519D01*
X17664447Y-16675142D01*
X17652031Y-16682583D01*
X17638946Y-16688772D01*
X17625317Y-16693649D01*
X17611276Y-16697166D01*
X17596958Y-16699290D01*
X17582500Y-16700000D01*
X17237500Y-16700000D01*
X17223042Y-16699290D01*
X17208724Y-16697166D01*
X17194683Y-16693649D01*
X17181054Y-16688772D01*
X17167969Y-16682583D01*
X17155553Y-16675142D01*
X17143927Y-16666519D01*
X17133202Y-16656798D01*
X17123481Y-16646073D01*
X17114858Y-16634447D01*
X17107417Y-16622031D01*
X17101228Y-16608946D01*
X17096351Y-16595317D01*
X17092834Y-16581276D01*
X17090710Y-16566958D01*
X17090000Y-16552500D01*
X17090000Y-16257500D01*
X17090710Y-16243042D01*
X17092834Y-16228724D01*
X17096351Y-16214683D01*
X17101228Y-16201054D01*
X17107417Y-16187969D01*
X17114858Y-16175553D01*
X17123481Y-16163927D01*
X17133202Y-16153202D01*
X17143927Y-16143481D01*
X17155553Y-16134858D01*
X17167969Y-16127417D01*
X17181054Y-16121228D01*
X17194683Y-16116351D01*
X17208724Y-16112834D01*
X17223042Y-16110710D01*
X17237500Y-16110000D01*
X17582500Y-16110000D01*
X17596958Y-16110710D01*
X17596958Y-16110710D01*
G37*
D11*
G04 #@! TD*
G04 #@! TO.P,R9,1*
G04 #@! TO.N,/1V2_SYS*
X17410000Y-16405000D03*
D10*
G04 #@! TO.N,/VDDANA*
G04 #@! TO.C,R8*
G36*
X17666958Y-4020710D02*
X17681276Y-4022834D01*
X17695317Y-4026351D01*
X17708946Y-4031228D01*
X17722031Y-4037417D01*
X17734447Y-4044858D01*
X17746073Y-4053481D01*
X17756798Y-4063202D01*
X17766519Y-4073927D01*
X17775142Y-4085553D01*
X17782583Y-4097969D01*
X17788772Y-4111054D01*
X17793649Y-4124683D01*
X17797166Y-4138724D01*
X17799290Y-4153042D01*
X17800000Y-4167500D01*
X17800000Y-4512500D01*
X17799290Y-4526958D01*
X17797166Y-4541276D01*
X17793649Y-4555317D01*
X17788772Y-4568946D01*
X17782583Y-4582031D01*
X17775142Y-4594447D01*
X17766519Y-4606073D01*
X17756798Y-4616798D01*
X17746073Y-4626519D01*
X17734447Y-4635142D01*
X17722031Y-4642583D01*
X17708946Y-4648772D01*
X17695317Y-4653649D01*
X17681276Y-4657166D01*
X17666958Y-4659290D01*
X17652500Y-4660000D01*
X17357500Y-4660000D01*
X17343042Y-4659290D01*
X17328724Y-4657166D01*
X17314683Y-4653649D01*
X17301054Y-4648772D01*
X17287969Y-4642583D01*
X17275553Y-4635142D01*
X17263927Y-4626519D01*
X17253202Y-4616798D01*
X17243481Y-4606073D01*
X17234858Y-4594447D01*
X17227417Y-4582031D01*
X17221228Y-4568946D01*
X17216351Y-4555317D01*
X17212834Y-4541276D01*
X17210710Y-4526958D01*
X17210000Y-4512500D01*
X17210000Y-4167500D01*
X17210710Y-4153042D01*
X17212834Y-4138724D01*
X17216351Y-4124683D01*
X17221228Y-4111054D01*
X17227417Y-4097969D01*
X17234858Y-4085553D01*
X17243481Y-4073927D01*
X17253202Y-4063202D01*
X17263927Y-4053481D01*
X17275553Y-4044858D01*
X17287969Y-4037417D01*
X17301054Y-4031228D01*
X17314683Y-4026351D01*
X17328724Y-4022834D01*
X17343042Y-4020710D01*
X17357500Y-4020000D01*
X17652500Y-4020000D01*
X17666958Y-4020710D01*
X17666958Y-4020710D01*
G37*
D11*
G04 #@! TD*
G04 #@! TO.P,R8,2*
G04 #@! TO.N,/VDDANA*
X17505000Y-4340000D03*
D10*
G04 #@! TO.N,/VUSB*
G04 #@! TO.C,R8*
G36*
X18636958Y-4020710D02*
X18651276Y-4022834D01*
X18665317Y-4026351D01*
X18678946Y-4031228D01*
X18692031Y-4037417D01*
X18704447Y-4044858D01*
X18716073Y-4053481D01*
X18726798Y-4063202D01*
X18736519Y-4073927D01*
X18745142Y-4085553D01*
X18752583Y-4097969D01*
X18758772Y-4111054D01*
X18763649Y-4124683D01*
X18767166Y-4138724D01*
X18769290Y-4153042D01*
X18770000Y-4167500D01*
X18770000Y-4512500D01*
X18769290Y-4526958D01*
X18767166Y-4541276D01*
X18763649Y-4555317D01*
X18758772Y-4568946D01*
X18752583Y-4582031D01*
X18745142Y-4594447D01*
X18736519Y-4606073D01*
X18726798Y-4616798D01*
X18716073Y-4626519D01*
X18704447Y-4635142D01*
X18692031Y-4642583D01*
X18678946Y-4648772D01*
X18665317Y-4653649D01*
X18651276Y-4657166D01*
X18636958Y-4659290D01*
X18622500Y-4660000D01*
X18327500Y-4660000D01*
X18313042Y-4659290D01*
X18298724Y-4657166D01*
X18284683Y-4653649D01*
X18271054Y-4648772D01*
X18257969Y-4642583D01*
X18245553Y-4635142D01*
X18233927Y-4626519D01*
X18223202Y-4616798D01*
X18213481Y-4606073D01*
X18204858Y-4594447D01*
X18197417Y-4582031D01*
X18191228Y-4568946D01*
X18186351Y-4555317D01*
X18182834Y-4541276D01*
X18180710Y-4526958D01*
X18180000Y-4512500D01*
X18180000Y-4167500D01*
X18180710Y-4153042D01*
X18182834Y-4138724D01*
X18186351Y-4124683D01*
X18191228Y-4111054D01*
X18197417Y-4097969D01*
X18204858Y-4085553D01*
X18213481Y-4073927D01*
X18223202Y-4063202D01*
X18233927Y-4053481D01*
X18245553Y-4044858D01*
X18257969Y-4037417D01*
X18271054Y-4031228D01*
X18284683Y-4026351D01*
X18298724Y-4022834D01*
X18313042Y-4020710D01*
X18327500Y-4020000D01*
X18622500Y-4020000D01*
X18636958Y-4020710D01*
X18636958Y-4020710D01*
G37*
D11*
G04 #@! TD*
G04 #@! TO.P,R8,1*
G04 #@! TO.N,/VUSB*
X18475000Y-4340000D03*
D10*
G04 #@! TO.N,/VBATH*
G04 #@! TO.C,R7*
G36*
X17676958Y-5110710D02*
X17691276Y-5112834D01*
X17705317Y-5116351D01*
X17718946Y-5121228D01*
X17732031Y-5127417D01*
X17744447Y-5134858D01*
X17756073Y-5143481D01*
X17766798Y-5153202D01*
X17776519Y-5163927D01*
X17785142Y-5175553D01*
X17792583Y-5187969D01*
X17798772Y-5201054D01*
X17803649Y-5214683D01*
X17807166Y-5228724D01*
X17809290Y-5243042D01*
X17810000Y-5257500D01*
X17810000Y-5602500D01*
X17809290Y-5616958D01*
X17807166Y-5631276D01*
X17803649Y-5645317D01*
X17798772Y-5658946D01*
X17792583Y-5672031D01*
X17785142Y-5684447D01*
X17776519Y-5696073D01*
X17766798Y-5706798D01*
X17756073Y-5716519D01*
X17744447Y-5725142D01*
X17732031Y-5732583D01*
X17718946Y-5738772D01*
X17705317Y-5743649D01*
X17691276Y-5747166D01*
X17676958Y-5749290D01*
X17662500Y-5750000D01*
X17367500Y-5750000D01*
X17353042Y-5749290D01*
X17338724Y-5747166D01*
X17324683Y-5743649D01*
X17311054Y-5738772D01*
X17297969Y-5732583D01*
X17285553Y-5725142D01*
X17273927Y-5716519D01*
X17263202Y-5706798D01*
X17253481Y-5696073D01*
X17244858Y-5684447D01*
X17237417Y-5672031D01*
X17231228Y-5658946D01*
X17226351Y-5645317D01*
X17222834Y-5631276D01*
X17220710Y-5616958D01*
X17220000Y-5602500D01*
X17220000Y-5257500D01*
X17220710Y-5243042D01*
X17222834Y-5228724D01*
X17226351Y-5214683D01*
X17231228Y-5201054D01*
X17237417Y-5187969D01*
X17244858Y-5175553D01*
X17253481Y-5163927D01*
X17263202Y-5153202D01*
X17273927Y-5143481D01*
X17285553Y-5134858D01*
X17297969Y-5127417D01*
X17311054Y-5121228D01*
X17324683Y-5116351D01*
X17338724Y-5112834D01*
X17353042Y-5110710D01*
X17367500Y-5110000D01*
X17662500Y-5110000D01*
X17676958Y-5110710D01*
X17676958Y-5110710D01*
G37*
D11*
G04 #@! TD*
G04 #@! TO.P,R7,2*
G04 #@! TO.N,/VBATH*
X17515000Y-5430000D03*
D10*
G04 #@! TO.N,/VUSB*
G04 #@! TO.C,R7*
G36*
X18646958Y-5110710D02*
X18661276Y-5112834D01*
X18675317Y-5116351D01*
X18688946Y-5121228D01*
X18702031Y-5127417D01*
X18714447Y-5134858D01*
X18726073Y-5143481D01*
X18736798Y-5153202D01*
X18746519Y-5163927D01*
X18755142Y-5175553D01*
X18762583Y-5187969D01*
X18768772Y-5201054D01*
X18773649Y-5214683D01*
X18777166Y-5228724D01*
X18779290Y-5243042D01*
X18780000Y-5257500D01*
X18780000Y-5602500D01*
X18779290Y-5616958D01*
X18777166Y-5631276D01*
X18773649Y-5645317D01*
X18768772Y-5658946D01*
X18762583Y-5672031D01*
X18755142Y-5684447D01*
X18746519Y-5696073D01*
X18736798Y-5706798D01*
X18726073Y-5716519D01*
X18714447Y-5725142D01*
X18702031Y-5732583D01*
X18688946Y-5738772D01*
X18675317Y-5743649D01*
X18661276Y-5747166D01*
X18646958Y-5749290D01*
X18632500Y-5750000D01*
X18337500Y-5750000D01*
X18323042Y-5749290D01*
X18308724Y-5747166D01*
X18294683Y-5743649D01*
X18281054Y-5738772D01*
X18267969Y-5732583D01*
X18255553Y-5725142D01*
X18243927Y-5716519D01*
X18233202Y-5706798D01*
X18223481Y-5696073D01*
X18214858Y-5684447D01*
X18207417Y-5672031D01*
X18201228Y-5658946D01*
X18196351Y-5645317D01*
X18192834Y-5631276D01*
X18190710Y-5616958D01*
X18190000Y-5602500D01*
X18190000Y-5257500D01*
X18190710Y-5243042D01*
X18192834Y-5228724D01*
X18196351Y-5214683D01*
X18201228Y-5201054D01*
X18207417Y-5187969D01*
X18214858Y-5175553D01*
X18223481Y-5163927D01*
X18233202Y-5153202D01*
X18243927Y-5143481D01*
X18255553Y-5134858D01*
X18267969Y-5127417D01*
X18281054Y-5121228D01*
X18294683Y-5116351D01*
X18308724Y-5112834D01*
X18323042Y-5110710D01*
X18337500Y-5110000D01*
X18632500Y-5110000D01*
X18646958Y-5110710D01*
X18646958Y-5110710D01*
G37*
D11*
G04 #@! TD*
G04 #@! TO.P,R7,1*
G04 #@! TO.N,/VUSB*
X18485000Y-5430000D03*
D10*
G04 #@! TO.N,/1V2_SYS_B*
G04 #@! TO.C,R6*
G36*
X15446958Y-2250710D02*
X15461276Y-2252834D01*
X15475317Y-2256351D01*
X15488946Y-2261228D01*
X15502031Y-2267417D01*
X15514447Y-2274858D01*
X15526073Y-2283481D01*
X15536798Y-2293202D01*
X15546519Y-2303927D01*
X15555142Y-2315553D01*
X15562583Y-2327969D01*
X15568772Y-2341054D01*
X15573649Y-2354683D01*
X15577166Y-2368724D01*
X15579290Y-2383042D01*
X15580000Y-2397500D01*
X15580000Y-2742500D01*
X15579290Y-2756958D01*
X15577166Y-2771276D01*
X15573649Y-2785317D01*
X15568772Y-2798946D01*
X15562583Y-2812031D01*
X15555142Y-2824447D01*
X15546519Y-2836073D01*
X15536798Y-2846798D01*
X15526073Y-2856519D01*
X15514447Y-2865142D01*
X15502031Y-2872583D01*
X15488946Y-2878772D01*
X15475317Y-2883649D01*
X15461276Y-2887166D01*
X15446958Y-2889290D01*
X15432500Y-2890000D01*
X15137500Y-2890000D01*
X15123042Y-2889290D01*
X15108724Y-2887166D01*
X15094683Y-2883649D01*
X15081054Y-2878772D01*
X15067969Y-2872583D01*
X15055553Y-2865142D01*
X15043927Y-2856519D01*
X15033202Y-2846798D01*
X15023481Y-2836073D01*
X15014858Y-2824447D01*
X15007417Y-2812031D01*
X15001228Y-2798946D01*
X14996351Y-2785317D01*
X14992834Y-2771276D01*
X14990710Y-2756958D01*
X14990000Y-2742500D01*
X14990000Y-2397500D01*
X14990710Y-2383042D01*
X14992834Y-2368724D01*
X14996351Y-2354683D01*
X15001228Y-2341054D01*
X15007417Y-2327969D01*
X15014858Y-2315553D01*
X15023481Y-2303927D01*
X15033202Y-2293202D01*
X15043927Y-2283481D01*
X15055553Y-2274858D01*
X15067969Y-2267417D01*
X15081054Y-2261228D01*
X15094683Y-2256351D01*
X15108724Y-2252834D01*
X15123042Y-2250710D01*
X15137500Y-2250000D01*
X15432500Y-2250000D01*
X15446958Y-2250710D01*
X15446958Y-2250710D01*
G37*
D11*
G04 #@! TD*
G04 #@! TO.P,R6,2*
G04 #@! TO.N,/1V2_SYS_B*
X15285000Y-2570000D03*
D10*
G04 #@! TO.N,/1V2_SYS*
G04 #@! TO.C,R6*
G36*
X14476958Y-2250710D02*
X14491276Y-2252834D01*
X14505317Y-2256351D01*
X14518946Y-2261228D01*
X14532031Y-2267417D01*
X14544447Y-2274858D01*
X14556073Y-2283481D01*
X14566798Y-2293202D01*
X14576519Y-2303927D01*
X14585142Y-2315553D01*
X14592583Y-2327969D01*
X14598772Y-2341054D01*
X14603649Y-2354683D01*
X14607166Y-2368724D01*
X14609290Y-2383042D01*
X14610000Y-2397500D01*
X14610000Y-2742500D01*
X14609290Y-2756958D01*
X14607166Y-2771276D01*
X14603649Y-2785317D01*
X14598772Y-2798946D01*
X14592583Y-2812031D01*
X14585142Y-2824447D01*
X14576519Y-2836073D01*
X14566798Y-2846798D01*
X14556073Y-2856519D01*
X14544447Y-2865142D01*
X14532031Y-2872583D01*
X14518946Y-2878772D01*
X14505317Y-2883649D01*
X14491276Y-2887166D01*
X14476958Y-2889290D01*
X14462500Y-2890000D01*
X14167500Y-2890000D01*
X14153042Y-2889290D01*
X14138724Y-2887166D01*
X14124683Y-2883649D01*
X14111054Y-2878772D01*
X14097969Y-2872583D01*
X14085553Y-2865142D01*
X14073927Y-2856519D01*
X14063202Y-2846798D01*
X14053481Y-2836073D01*
X14044858Y-2824447D01*
X14037417Y-2812031D01*
X14031228Y-2798946D01*
X14026351Y-2785317D01*
X14022834Y-2771276D01*
X14020710Y-2756958D01*
X14020000Y-2742500D01*
X14020000Y-2397500D01*
X14020710Y-2383042D01*
X14022834Y-2368724D01*
X14026351Y-2354683D01*
X14031228Y-2341054D01*
X14037417Y-2327969D01*
X14044858Y-2315553D01*
X14053481Y-2303927D01*
X14063202Y-2293202D01*
X14073927Y-2283481D01*
X14085553Y-2274858D01*
X14097969Y-2267417D01*
X14111054Y-2261228D01*
X14124683Y-2256351D01*
X14138724Y-2252834D01*
X14153042Y-2250710D01*
X14167500Y-2250000D01*
X14462500Y-2250000D01*
X14476958Y-2250710D01*
X14476958Y-2250710D01*
G37*
D11*
G04 #@! TD*
G04 #@! TO.P,R6,1*
G04 #@! TO.N,/1V2_SYS*
X14315000Y-2570000D03*
D10*
G04 #@! TO.N,/1V2_SYS_A*
G04 #@! TO.C,R5*
G36*
X15446958Y-1250710D02*
X15461276Y-1252834D01*
X15475317Y-1256351D01*
X15488946Y-1261228D01*
X15502031Y-1267417D01*
X15514447Y-1274858D01*
X15526073Y-1283481D01*
X15536798Y-1293202D01*
X15546519Y-1303927D01*
X15555142Y-1315553D01*
X15562583Y-1327969D01*
X15568772Y-1341054D01*
X15573649Y-1354683D01*
X15577166Y-1368724D01*
X15579290Y-1383042D01*
X15580000Y-1397500D01*
X15580000Y-1742500D01*
X15579290Y-1756958D01*
X15577166Y-1771276D01*
X15573649Y-1785317D01*
X15568772Y-1798946D01*
X15562583Y-1812031D01*
X15555142Y-1824447D01*
X15546519Y-1836073D01*
X15536798Y-1846798D01*
X15526073Y-1856519D01*
X15514447Y-1865142D01*
X15502031Y-1872583D01*
X15488946Y-1878772D01*
X15475317Y-1883649D01*
X15461276Y-1887166D01*
X15446958Y-1889290D01*
X15432500Y-1890000D01*
X15137500Y-1890000D01*
X15123042Y-1889290D01*
X15108724Y-1887166D01*
X15094683Y-1883649D01*
X15081054Y-1878772D01*
X15067969Y-1872583D01*
X15055553Y-1865142D01*
X15043927Y-1856519D01*
X15033202Y-1846798D01*
X15023481Y-1836073D01*
X15014858Y-1824447D01*
X15007417Y-1812031D01*
X15001228Y-1798946D01*
X14996351Y-1785317D01*
X14992834Y-1771276D01*
X14990710Y-1756958D01*
X14990000Y-1742500D01*
X14990000Y-1397500D01*
X14990710Y-1383042D01*
X14992834Y-1368724D01*
X14996351Y-1354683D01*
X15001228Y-1341054D01*
X15007417Y-1327969D01*
X15014858Y-1315553D01*
X15023481Y-1303927D01*
X15033202Y-1293202D01*
X15043927Y-1283481D01*
X15055553Y-1274858D01*
X15067969Y-1267417D01*
X15081054Y-1261228D01*
X15094683Y-1256351D01*
X15108724Y-1252834D01*
X15123042Y-1250710D01*
X15137500Y-1250000D01*
X15432500Y-1250000D01*
X15446958Y-1250710D01*
X15446958Y-1250710D01*
G37*
D11*
G04 #@! TD*
G04 #@! TO.P,R5,2*
G04 #@! TO.N,/1V2_SYS_A*
X15285000Y-1570000D03*
D10*
G04 #@! TO.N,/1V2_SYS*
G04 #@! TO.C,R5*
G36*
X14476958Y-1250710D02*
X14491276Y-1252834D01*
X14505317Y-1256351D01*
X14518946Y-1261228D01*
X14532031Y-1267417D01*
X14544447Y-1274858D01*
X14556073Y-1283481D01*
X14566798Y-1293202D01*
X14576519Y-1303927D01*
X14585142Y-1315553D01*
X14592583Y-1327969D01*
X14598772Y-1341054D01*
X14603649Y-1354683D01*
X14607166Y-1368724D01*
X14609290Y-1383042D01*
X14610000Y-1397500D01*
X14610000Y-1742500D01*
X14609290Y-1756958D01*
X14607166Y-1771276D01*
X14603649Y-1785317D01*
X14598772Y-1798946D01*
X14592583Y-1812031D01*
X14585142Y-1824447D01*
X14576519Y-1836073D01*
X14566798Y-1846798D01*
X14556073Y-1856519D01*
X14544447Y-1865142D01*
X14532031Y-1872583D01*
X14518946Y-1878772D01*
X14505317Y-1883649D01*
X14491276Y-1887166D01*
X14476958Y-1889290D01*
X14462500Y-1890000D01*
X14167500Y-1890000D01*
X14153042Y-1889290D01*
X14138724Y-1887166D01*
X14124683Y-1883649D01*
X14111054Y-1878772D01*
X14097969Y-1872583D01*
X14085553Y-1865142D01*
X14073927Y-1856519D01*
X14063202Y-1846798D01*
X14053481Y-1836073D01*
X14044858Y-1824447D01*
X14037417Y-1812031D01*
X14031228Y-1798946D01*
X14026351Y-1785317D01*
X14022834Y-1771276D01*
X14020710Y-1756958D01*
X14020000Y-1742500D01*
X14020000Y-1397500D01*
X14020710Y-1383042D01*
X14022834Y-1368724D01*
X14026351Y-1354683D01*
X14031228Y-1341054D01*
X14037417Y-1327969D01*
X14044858Y-1315553D01*
X14053481Y-1303927D01*
X14063202Y-1293202D01*
X14073927Y-1283481D01*
X14085553Y-1274858D01*
X14097969Y-1267417D01*
X14111054Y-1261228D01*
X14124683Y-1256351D01*
X14138724Y-1252834D01*
X14153042Y-1250710D01*
X14167500Y-1250000D01*
X14462500Y-1250000D01*
X14476958Y-1250710D01*
X14476958Y-1250710D01*
G37*
D11*
G04 #@! TD*
G04 #@! TO.P,R5,1*
G04 #@! TO.N,/1V2_SYS*
X14315000Y-1570000D03*
D10*
G04 #@! TO.N,/1V2_SYS*
G04 #@! TO.C,R4*
G36*
X12366958Y-2430710D02*
X12381276Y-2432834D01*
X12395317Y-2436351D01*
X12408946Y-2441228D01*
X12422031Y-2447417D01*
X12434447Y-2454858D01*
X12446073Y-2463481D01*
X12456798Y-2473202D01*
X12466519Y-2483927D01*
X12475142Y-2495553D01*
X12482583Y-2507969D01*
X12488772Y-2521054D01*
X12493649Y-2534683D01*
X12497166Y-2548724D01*
X12499290Y-2563042D01*
X12500000Y-2577500D01*
X12500000Y-2872500D01*
X12499290Y-2886958D01*
X12497166Y-2901276D01*
X12493649Y-2915317D01*
X12488772Y-2928946D01*
X12482583Y-2942031D01*
X12475142Y-2954447D01*
X12466519Y-2966073D01*
X12456798Y-2976798D01*
X12446073Y-2986519D01*
X12434447Y-2995142D01*
X12422031Y-3002583D01*
X12408946Y-3008772D01*
X12395317Y-3013649D01*
X12381276Y-3017166D01*
X12366958Y-3019290D01*
X12352500Y-3020000D01*
X12007500Y-3020000D01*
X11993042Y-3019290D01*
X11978724Y-3017166D01*
X11964683Y-3013649D01*
X11951054Y-3008772D01*
X11937969Y-3002583D01*
X11925553Y-2995142D01*
X11913927Y-2986519D01*
X11903202Y-2976798D01*
X11893481Y-2966073D01*
X11884858Y-2954447D01*
X11877417Y-2942031D01*
X11871228Y-2928946D01*
X11866351Y-2915317D01*
X11862834Y-2901276D01*
X11860710Y-2886958D01*
X11860000Y-2872500D01*
X11860000Y-2577500D01*
X11860710Y-2563042D01*
X11862834Y-2548724D01*
X11866351Y-2534683D01*
X11871228Y-2521054D01*
X11877417Y-2507969D01*
X11884858Y-2495553D01*
X11893481Y-2483927D01*
X11903202Y-2473202D01*
X11913927Y-2463481D01*
X11925553Y-2454858D01*
X11937969Y-2447417D01*
X11951054Y-2441228D01*
X11964683Y-2436351D01*
X11978724Y-2432834D01*
X11993042Y-2430710D01*
X12007500Y-2430000D01*
X12352500Y-2430000D01*
X12366958Y-2430710D01*
X12366958Y-2430710D01*
G37*
D11*
G04 #@! TD*
G04 #@! TO.P,R4,2*
G04 #@! TO.N,/1V2_SYS*
X12180000Y-2725000D03*
D10*
G04 #@! TO.N,/1V2*
G04 #@! TO.C,R4*
G36*
X12366958Y-3400710D02*
X12381276Y-3402834D01*
X12395317Y-3406351D01*
X12408946Y-3411228D01*
X12422031Y-3417417D01*
X12434447Y-3424858D01*
X12446073Y-3433481D01*
X12456798Y-3443202D01*
X12466519Y-3453927D01*
X12475142Y-3465553D01*
X12482583Y-3477969D01*
X12488772Y-3491054D01*
X12493649Y-3504683D01*
X12497166Y-3518724D01*
X12499290Y-3533042D01*
X12500000Y-3547500D01*
X12500000Y-3842500D01*
X12499290Y-3856958D01*
X12497166Y-3871276D01*
X12493649Y-3885317D01*
X12488772Y-3898946D01*
X12482583Y-3912031D01*
X12475142Y-3924447D01*
X12466519Y-3936073D01*
X12456798Y-3946798D01*
X12446073Y-3956519D01*
X12434447Y-3965142D01*
X12422031Y-3972583D01*
X12408946Y-3978772D01*
X12395317Y-3983649D01*
X12381276Y-3987166D01*
X12366958Y-3989290D01*
X12352500Y-3990000D01*
X12007500Y-3990000D01*
X11993042Y-3989290D01*
X11978724Y-3987166D01*
X11964683Y-3983649D01*
X11951054Y-3978772D01*
X11937969Y-3972583D01*
X11925553Y-3965142D01*
X11913927Y-3956519D01*
X11903202Y-3946798D01*
X11893481Y-3936073D01*
X11884858Y-3924447D01*
X11877417Y-3912031D01*
X11871228Y-3898946D01*
X11866351Y-3885317D01*
X11862834Y-3871276D01*
X11860710Y-3856958D01*
X11860000Y-3842500D01*
X11860000Y-3547500D01*
X11860710Y-3533042D01*
X11862834Y-3518724D01*
X11866351Y-3504683D01*
X11871228Y-3491054D01*
X11877417Y-3477969D01*
X11884858Y-3465553D01*
X11893481Y-3453927D01*
X11903202Y-3443202D01*
X11913927Y-3433481D01*
X11925553Y-3424858D01*
X11937969Y-3417417D01*
X11951054Y-3411228D01*
X11964683Y-3406351D01*
X11978724Y-3402834D01*
X11993042Y-3400710D01*
X12007500Y-3400000D01*
X12352500Y-3400000D01*
X12366958Y-3400710D01*
X12366958Y-3400710D01*
G37*
D11*
G04 #@! TD*
G04 #@! TO.P,R4,1*
G04 #@! TO.N,/1V2*
X12180000Y-3695000D03*
D10*
G04 #@! TO.N,/2V5_SYS*
G04 #@! TO.C,R3*
G36*
X18886958Y-11990710D02*
X18901276Y-11992834D01*
X18915317Y-11996351D01*
X18928946Y-12001228D01*
X18942031Y-12007417D01*
X18954447Y-12014858D01*
X18966073Y-12023481D01*
X18976798Y-12033202D01*
X18986519Y-12043927D01*
X18995142Y-12055553D01*
X19002583Y-12067969D01*
X19008772Y-12081054D01*
X19013649Y-12094683D01*
X19017166Y-12108724D01*
X19019290Y-12123042D01*
X19020000Y-12137500D01*
X19020000Y-12432500D01*
X19019290Y-12446958D01*
X19017166Y-12461276D01*
X19013649Y-12475317D01*
X19008772Y-12488946D01*
X19002583Y-12502031D01*
X18995142Y-12514447D01*
X18986519Y-12526073D01*
X18976798Y-12536798D01*
X18966073Y-12546519D01*
X18954447Y-12555142D01*
X18942031Y-12562583D01*
X18928946Y-12568772D01*
X18915317Y-12573649D01*
X18901276Y-12577166D01*
X18886958Y-12579290D01*
X18872500Y-12580000D01*
X18527500Y-12580000D01*
X18513042Y-12579290D01*
X18498724Y-12577166D01*
X18484683Y-12573649D01*
X18471054Y-12568772D01*
X18457969Y-12562583D01*
X18445553Y-12555142D01*
X18433927Y-12546519D01*
X18423202Y-12536798D01*
X18413481Y-12526073D01*
X18404858Y-12514447D01*
X18397417Y-12502031D01*
X18391228Y-12488946D01*
X18386351Y-12475317D01*
X18382834Y-12461276D01*
X18380710Y-12446958D01*
X18380000Y-12432500D01*
X18380000Y-12137500D01*
X18380710Y-12123042D01*
X18382834Y-12108724D01*
X18386351Y-12094683D01*
X18391228Y-12081054D01*
X18397417Y-12067969D01*
X18404858Y-12055553D01*
X18413481Y-12043927D01*
X18423202Y-12033202D01*
X18433927Y-12023481D01*
X18445553Y-12014858D01*
X18457969Y-12007417D01*
X18471054Y-12001228D01*
X18484683Y-11996351D01*
X18498724Y-11992834D01*
X18513042Y-11990710D01*
X18527500Y-11990000D01*
X18872500Y-11990000D01*
X18886958Y-11990710D01*
X18886958Y-11990710D01*
G37*
D11*
G04 #@! TD*
G04 #@! TO.P,R3,2*
G04 #@! TO.N,/2V5_SYS*
X18700000Y-12285000D03*
D10*
G04 #@! TO.N,/2V5*
G04 #@! TO.C,R3*
G36*
X18886958Y-12960710D02*
X18901276Y-12962834D01*
X18915317Y-12966351D01*
X18928946Y-12971228D01*
X18942031Y-12977417D01*
X18954447Y-12984858D01*
X18966073Y-12993481D01*
X18976798Y-13003202D01*
X18986519Y-13013927D01*
X18995142Y-13025553D01*
X19002583Y-13037969D01*
X19008772Y-13051054D01*
X19013649Y-13064683D01*
X19017166Y-13078724D01*
X19019290Y-13093042D01*
X19020000Y-13107500D01*
X19020000Y-13402500D01*
X19019290Y-13416958D01*
X19017166Y-13431276D01*
X19013649Y-13445317D01*
X19008772Y-13458946D01*
X19002583Y-13472031D01*
X18995142Y-13484447D01*
X18986519Y-13496073D01*
X18976798Y-13506798D01*
X18966073Y-13516519D01*
X18954447Y-13525142D01*
X18942031Y-13532583D01*
X18928946Y-13538772D01*
X18915317Y-13543649D01*
X18901276Y-13547166D01*
X18886958Y-13549290D01*
X18872500Y-13550000D01*
X18527500Y-13550000D01*
X18513042Y-13549290D01*
X18498724Y-13547166D01*
X18484683Y-13543649D01*
X18471054Y-13538772D01*
X18457969Y-13532583D01*
X18445553Y-13525142D01*
X18433927Y-13516519D01*
X18423202Y-13506798D01*
X18413481Y-13496073D01*
X18404858Y-13484447D01*
X18397417Y-13472031D01*
X18391228Y-13458946D01*
X18386351Y-13445317D01*
X18382834Y-13431276D01*
X18380710Y-13416958D01*
X18380000Y-13402500D01*
X18380000Y-13107500D01*
X18380710Y-13093042D01*
X18382834Y-13078724D01*
X18386351Y-13064683D01*
X18391228Y-13051054D01*
X18397417Y-13037969D01*
X18404858Y-13025553D01*
X18413481Y-13013927D01*
X18423202Y-13003202D01*
X18433927Y-12993481D01*
X18445553Y-12984858D01*
X18457969Y-12977417D01*
X18471054Y-12971228D01*
X18484683Y-12966351D01*
X18498724Y-12962834D01*
X18513042Y-12960710D01*
X18527500Y-12960000D01*
X18872500Y-12960000D01*
X18886958Y-12960710D01*
X18886958Y-12960710D01*
G37*
D11*
G04 #@! TD*
G04 #@! TO.P,R3,1*
G04 #@! TO.N,/2V5*
X18700000Y-13255000D03*
D10*
G04 #@! TO.N,/1V8_SYS*
G04 #@! TO.C,R2*
G36*
X5936958Y-5500710D02*
X5951276Y-5502834D01*
X5965317Y-5506351D01*
X5978946Y-5511228D01*
X5992031Y-5517417D01*
X6004447Y-5524858D01*
X6016073Y-5533481D01*
X6026798Y-5543202D01*
X6036519Y-5553927D01*
X6045142Y-5565553D01*
X6052583Y-5577969D01*
X6058772Y-5591054D01*
X6063649Y-5604683D01*
X6067166Y-5618724D01*
X6069290Y-5633042D01*
X6070000Y-5647500D01*
X6070000Y-5942500D01*
X6069290Y-5956958D01*
X6067166Y-5971276D01*
X6063649Y-5985317D01*
X6058772Y-5998946D01*
X6052583Y-6012031D01*
X6045142Y-6024447D01*
X6036519Y-6036073D01*
X6026798Y-6046798D01*
X6016073Y-6056519D01*
X6004447Y-6065142D01*
X5992031Y-6072583D01*
X5978946Y-6078772D01*
X5965317Y-6083649D01*
X5951276Y-6087166D01*
X5936958Y-6089290D01*
X5922500Y-6090000D01*
X5577500Y-6090000D01*
X5563042Y-6089290D01*
X5548724Y-6087166D01*
X5534683Y-6083649D01*
X5521054Y-6078772D01*
X5507969Y-6072583D01*
X5495553Y-6065142D01*
X5483927Y-6056519D01*
X5473202Y-6046798D01*
X5463481Y-6036073D01*
X5454858Y-6024447D01*
X5447417Y-6012031D01*
X5441228Y-5998946D01*
X5436351Y-5985317D01*
X5432834Y-5971276D01*
X5430710Y-5956958D01*
X5430000Y-5942500D01*
X5430000Y-5647500D01*
X5430710Y-5633042D01*
X5432834Y-5618724D01*
X5436351Y-5604683D01*
X5441228Y-5591054D01*
X5447417Y-5577969D01*
X5454858Y-5565553D01*
X5463481Y-5553927D01*
X5473202Y-5543202D01*
X5483927Y-5533481D01*
X5495553Y-5524858D01*
X5507969Y-5517417D01*
X5521054Y-5511228D01*
X5534683Y-5506351D01*
X5548724Y-5502834D01*
X5563042Y-5500710D01*
X5577500Y-5500000D01*
X5922500Y-5500000D01*
X5936958Y-5500710D01*
X5936958Y-5500710D01*
G37*
D11*
G04 #@! TD*
G04 #@! TO.P,R2,2*
G04 #@! TO.N,/1V8_SYS*
X5750000Y-5795000D03*
D10*
G04 #@! TO.N,/1V8*
G04 #@! TO.C,R2*
G36*
X5936958Y-6470710D02*
X5951276Y-6472834D01*
X5965317Y-6476351D01*
X5978946Y-6481228D01*
X5992031Y-6487417D01*
X6004447Y-6494858D01*
X6016073Y-6503481D01*
X6026798Y-6513202D01*
X6036519Y-6523927D01*
X6045142Y-6535553D01*
X6052583Y-6547969D01*
X6058772Y-6561054D01*
X6063649Y-6574683D01*
X6067166Y-6588724D01*
X6069290Y-6603042D01*
X6070000Y-6617500D01*
X6070000Y-6912500D01*
X6069290Y-6926958D01*
X6067166Y-6941276D01*
X6063649Y-6955317D01*
X6058772Y-6968946D01*
X6052583Y-6982031D01*
X6045142Y-6994447D01*
X6036519Y-7006073D01*
X6026798Y-7016798D01*
X6016073Y-7026519D01*
X6004447Y-7035142D01*
X5992031Y-7042583D01*
X5978946Y-7048772D01*
X5965317Y-7053649D01*
X5951276Y-7057166D01*
X5936958Y-7059290D01*
X5922500Y-7060000D01*
X5577500Y-7060000D01*
X5563042Y-7059290D01*
X5548724Y-7057166D01*
X5534683Y-7053649D01*
X5521054Y-7048772D01*
X5507969Y-7042583D01*
X5495553Y-7035142D01*
X5483927Y-7026519D01*
X5473202Y-7016798D01*
X5463481Y-7006073D01*
X5454858Y-6994447D01*
X5447417Y-6982031D01*
X5441228Y-6968946D01*
X5436351Y-6955317D01*
X5432834Y-6941276D01*
X5430710Y-6926958D01*
X5430000Y-6912500D01*
X5430000Y-6617500D01*
X5430710Y-6603042D01*
X5432834Y-6588724D01*
X5436351Y-6574683D01*
X5441228Y-6561054D01*
X5447417Y-6547969D01*
X5454858Y-6535553D01*
X5463481Y-6523927D01*
X5473202Y-6513202D01*
X5483927Y-6503481D01*
X5495553Y-6494858D01*
X5507969Y-6487417D01*
X5521054Y-6481228D01*
X5534683Y-6476351D01*
X5548724Y-6472834D01*
X5563042Y-6470710D01*
X5577500Y-6470000D01*
X5922500Y-6470000D01*
X5936958Y-6470710D01*
X5936958Y-6470710D01*
G37*
D11*
G04 #@! TD*
G04 #@! TO.P,R2,1*
G04 #@! TO.N,/1V8*
X5750000Y-6765000D03*
D10*
G04 #@! TO.N,/3V3_SYS*
G04 #@! TO.C,R1*
G36*
X5936958Y-8520710D02*
X5951276Y-8522834D01*
X5965317Y-8526351D01*
X5978946Y-8531228D01*
X5992031Y-8537417D01*
X6004447Y-8544858D01*
X6016073Y-8553481D01*
X6026798Y-8563202D01*
X6036519Y-8573927D01*
X6045142Y-8585553D01*
X6052583Y-8597969D01*
X6058772Y-8611054D01*
X6063649Y-8624683D01*
X6067166Y-8638724D01*
X6069290Y-8653042D01*
X6070000Y-8667500D01*
X6070000Y-8962500D01*
X6069290Y-8976958D01*
X6067166Y-8991276D01*
X6063649Y-9005317D01*
X6058772Y-9018946D01*
X6052583Y-9032031D01*
X6045142Y-9044447D01*
X6036519Y-9056073D01*
X6026798Y-9066798D01*
X6016073Y-9076519D01*
X6004447Y-9085142D01*
X5992031Y-9092583D01*
X5978946Y-9098772D01*
X5965317Y-9103649D01*
X5951276Y-9107166D01*
X5936958Y-9109290D01*
X5922500Y-9110000D01*
X5577500Y-9110000D01*
X5563042Y-9109290D01*
X5548724Y-9107166D01*
X5534683Y-9103649D01*
X5521054Y-9098772D01*
X5507969Y-9092583D01*
X5495553Y-9085142D01*
X5483927Y-9076519D01*
X5473202Y-9066798D01*
X5463481Y-9056073D01*
X5454858Y-9044447D01*
X5447417Y-9032031D01*
X5441228Y-9018946D01*
X5436351Y-9005317D01*
X5432834Y-8991276D01*
X5430710Y-8976958D01*
X5430000Y-8962500D01*
X5430000Y-8667500D01*
X5430710Y-8653042D01*
X5432834Y-8638724D01*
X5436351Y-8624683D01*
X5441228Y-8611054D01*
X5447417Y-8597969D01*
X5454858Y-8585553D01*
X5463481Y-8573927D01*
X5473202Y-8563202D01*
X5483927Y-8553481D01*
X5495553Y-8544858D01*
X5507969Y-8537417D01*
X5521054Y-8531228D01*
X5534683Y-8526351D01*
X5548724Y-8522834D01*
X5563042Y-8520710D01*
X5577500Y-8520000D01*
X5922500Y-8520000D01*
X5936958Y-8520710D01*
X5936958Y-8520710D01*
G37*
D11*
G04 #@! TD*
G04 #@! TO.P,R1,2*
G04 #@! TO.N,/3V3_SYS*
X5750000Y-8815000D03*
D10*
G04 #@! TO.N,/3V3*
G04 #@! TO.C,R1*
G36*
X5936958Y-7550710D02*
X5951276Y-7552834D01*
X5965317Y-7556351D01*
X5978946Y-7561228D01*
X5992031Y-7567417D01*
X6004447Y-7574858D01*
X6016073Y-7583481D01*
X6026798Y-7593202D01*
X6036519Y-7603927D01*
X6045142Y-7615553D01*
X6052583Y-7627969D01*
X6058772Y-7641054D01*
X6063649Y-7654683D01*
X6067166Y-7668724D01*
X6069290Y-7683042D01*
X6070000Y-7697500D01*
X6070000Y-7992500D01*
X6069290Y-8006958D01*
X6067166Y-8021276D01*
X6063649Y-8035317D01*
X6058772Y-8048946D01*
X6052583Y-8062031D01*
X6045142Y-8074447D01*
X6036519Y-8086073D01*
X6026798Y-8096798D01*
X6016073Y-8106519D01*
X6004447Y-8115142D01*
X5992031Y-8122583D01*
X5978946Y-8128772D01*
X5965317Y-8133649D01*
X5951276Y-8137166D01*
X5936958Y-8139290D01*
X5922500Y-8140000D01*
X5577500Y-8140000D01*
X5563042Y-8139290D01*
X5548724Y-8137166D01*
X5534683Y-8133649D01*
X5521054Y-8128772D01*
X5507969Y-8122583D01*
X5495553Y-8115142D01*
X5483927Y-8106519D01*
X5473202Y-8096798D01*
X5463481Y-8086073D01*
X5454858Y-8074447D01*
X5447417Y-8062031D01*
X5441228Y-8048946D01*
X5436351Y-8035317D01*
X5432834Y-8021276D01*
X5430710Y-8006958D01*
X5430000Y-7992500D01*
X5430000Y-7697500D01*
X5430710Y-7683042D01*
X5432834Y-7668724D01*
X5436351Y-7654683D01*
X5441228Y-7641054D01*
X5447417Y-7627969D01*
X5454858Y-7615553D01*
X5463481Y-7603927D01*
X5473202Y-7593202D01*
X5483927Y-7583481D01*
X5495553Y-7574858D01*
X5507969Y-7567417D01*
X5521054Y-7561228D01*
X5534683Y-7556351D01*
X5548724Y-7552834D01*
X5563042Y-7550710D01*
X5577500Y-7550000D01*
X5922500Y-7550000D01*
X5936958Y-7550710D01*
X5936958Y-7550710D01*
G37*
D11*
G04 #@! TD*
G04 #@! TO.P,R1,1*
G04 #@! TO.N,/3V3*
X5750000Y-7845000D03*
D10*
G04 #@! TO.N,GND*
G04 #@! TO.C,R13*
G36*
X6946958Y-16390710D02*
X6961276Y-16392834D01*
X6975317Y-16396351D01*
X6988946Y-16401228D01*
X7002031Y-16407417D01*
X7014447Y-16414858D01*
X7026073Y-16423481D01*
X7036798Y-16433202D01*
X7046519Y-16443927D01*
X7055142Y-16455553D01*
X7062583Y-16467969D01*
X7068772Y-16481054D01*
X7073649Y-16494683D01*
X7077166Y-16508724D01*
X7079290Y-16523042D01*
X7080000Y-16537500D01*
X7080000Y-16832500D01*
X7079290Y-16846958D01*
X7077166Y-16861276D01*
X7073649Y-16875317D01*
X7068772Y-16888946D01*
X7062583Y-16902031D01*
X7055142Y-16914447D01*
X7046519Y-16926073D01*
X7036798Y-16936798D01*
X7026073Y-16946519D01*
X7014447Y-16955142D01*
X7002031Y-16962583D01*
X6988946Y-16968772D01*
X6975317Y-16973649D01*
X6961276Y-16977166D01*
X6946958Y-16979290D01*
X6932500Y-16980000D01*
X6587500Y-16980000D01*
X6573042Y-16979290D01*
X6558724Y-16977166D01*
X6544683Y-16973649D01*
X6531054Y-16968772D01*
X6517969Y-16962583D01*
X6505553Y-16955142D01*
X6493927Y-16946519D01*
X6483202Y-16936798D01*
X6473481Y-16926073D01*
X6464858Y-16914447D01*
X6457417Y-16902031D01*
X6451228Y-16888946D01*
X6446351Y-16875317D01*
X6442834Y-16861276D01*
X6440710Y-16846958D01*
X6440000Y-16832500D01*
X6440000Y-16537500D01*
X6440710Y-16523042D01*
X6442834Y-16508724D01*
X6446351Y-16494683D01*
X6451228Y-16481054D01*
X6457417Y-16467969D01*
X6464858Y-16455553D01*
X6473481Y-16443927D01*
X6483202Y-16433202D01*
X6493927Y-16423481D01*
X6505553Y-16414858D01*
X6517969Y-16407417D01*
X6531054Y-16401228D01*
X6544683Y-16396351D01*
X6558724Y-16392834D01*
X6573042Y-16390710D01*
X6587500Y-16390000D01*
X6932500Y-16390000D01*
X6946958Y-16390710D01*
X6946958Y-16390710D01*
G37*
D11*
G04 #@! TD*
G04 #@! TO.P,R13,2*
G04 #@! TO.N,GND*
X6760000Y-16685000D03*
D10*
G04 #@! TO.N,/CSI_OE*
G04 #@! TO.C,R13*
G36*
X6946958Y-15420710D02*
X6961276Y-15422834D01*
X6975317Y-15426351D01*
X6988946Y-15431228D01*
X7002031Y-15437417D01*
X7014447Y-15444858D01*
X7026073Y-15453481D01*
X7036798Y-15463202D01*
X7046519Y-15473927D01*
X7055142Y-15485553D01*
X7062583Y-15497969D01*
X7068772Y-15511054D01*
X7073649Y-15524683D01*
X7077166Y-15538724D01*
X7079290Y-15553042D01*
X7080000Y-15567500D01*
X7080000Y-15862500D01*
X7079290Y-15876958D01*
X7077166Y-15891276D01*
X7073649Y-15905317D01*
X7068772Y-15918946D01*
X7062583Y-15932031D01*
X7055142Y-15944447D01*
X7046519Y-15956073D01*
X7036798Y-15966798D01*
X7026073Y-15976519D01*
X7014447Y-15985142D01*
X7002031Y-15992583D01*
X6988946Y-15998772D01*
X6975317Y-16003649D01*
X6961276Y-16007166D01*
X6946958Y-16009290D01*
X6932500Y-16010000D01*
X6587500Y-16010000D01*
X6573042Y-16009290D01*
X6558724Y-16007166D01*
X6544683Y-16003649D01*
X6531054Y-15998772D01*
X6517969Y-15992583D01*
X6505553Y-15985142D01*
X6493927Y-15976519D01*
X6483202Y-15966798D01*
X6473481Y-15956073D01*
X6464858Y-15944447D01*
X6457417Y-15932031D01*
X6451228Y-15918946D01*
X6446351Y-15905317D01*
X6442834Y-15891276D01*
X6440710Y-15876958D01*
X6440000Y-15862500D01*
X6440000Y-15567500D01*
X6440710Y-15553042D01*
X6442834Y-15538724D01*
X6446351Y-15524683D01*
X6451228Y-15511054D01*
X6457417Y-15497969D01*
X6464858Y-15485553D01*
X6473481Y-15473927D01*
X6483202Y-15463202D01*
X6493927Y-15453481D01*
X6505553Y-15444858D01*
X6517969Y-15437417D01*
X6531054Y-15431228D01*
X6544683Y-15426351D01*
X6558724Y-15422834D01*
X6573042Y-15420710D01*
X6587500Y-15420000D01*
X6932500Y-15420000D01*
X6946958Y-15420710D01*
X6946958Y-15420710D01*
G37*
D11*
G04 #@! TD*
G04 #@! TO.P,R13,1*
G04 #@! TO.N,/CSI_OE*
X6760000Y-15715000D03*
D12*
G04 #@! TO.P,TP4,1*
G04 #@! TO.N,/PC_RDY*
X19990000Y-2709200D03*
G04 #@! TD*
G04 #@! TO.P,TP9,1*
G04 #@! TO.N,/PIO3*
X21130000Y-18819200D03*
G04 #@! TD*
G04 #@! TO.P,TP7,1*
G04 #@! TO.N,/EXTCLK_EN*
X18480000Y-2709200D03*
G04 #@! TD*
G04 #@! TO.P,TP3,1*
G04 #@! TO.N,/ZIP_EN_L*
X22800000Y-2709200D03*
G04 #@! TD*
G04 #@! TO.P,TP1,1*
G04 #@! TO.N,/CSI_INT*
X8150000Y-18569200D03*
G04 #@! TD*
G04 #@! TO.P,TP2,1*
G04 #@! TO.N,/MIPI_SEL*
X14500000Y-17870000D03*
G04 #@! TD*
G04 #@! TO.P,TP8,1*
G04 #@! TO.N,/EXT_CLK*
X21420000Y-2709200D03*
G04 #@! TD*
G04 #@! TO.P,TP11,1*
G04 #@! TO.N,/PIO1*
X22680000Y-18819200D03*
G04 #@! TD*
G04 #@! TO.P,TP12,1*
G04 #@! TO.N,/ULPM_WAKE*
X21760000Y-14919200D03*
G04 #@! TD*
G04 #@! TO.P,TP14,1*
G04 #@! TO.N,/LED1_ISINK*
X10860000Y-1339200D03*
G04 #@! TD*
G04 #@! TO.P,TP15,1*
G04 #@! TO.N,/LED2_ISINK*
X9570000Y-1329200D03*
G04 #@! TD*
G04 #@! TO.P,TP16,1*
G04 #@! TO.N,/LED3_ISINK*
X8270000Y-1329200D03*
G04 #@! TD*
G04 #@! TO.P,TP10,1*
G04 #@! TO.N,/PIO2*
X19610000Y-18819200D03*
G04 #@! TD*
D10*
G04 #@! TO.N,GND*
G04 #@! TO.C,C15*
G36*
X16586958Y-16110710D02*
X16601276Y-16112834D01*
X16615317Y-16116351D01*
X16628946Y-16121228D01*
X16642031Y-16127417D01*
X16654447Y-16134858D01*
X16666073Y-16143481D01*
X16676798Y-16153202D01*
X16686519Y-16163927D01*
X16695142Y-16175553D01*
X16702583Y-16187969D01*
X16708772Y-16201054D01*
X16713649Y-16214683D01*
X16717166Y-16228724D01*
X16719290Y-16243042D01*
X16720000Y-16257500D01*
X16720000Y-16552500D01*
X16719290Y-16566958D01*
X16717166Y-16581276D01*
X16713649Y-16595317D01*
X16708772Y-16608946D01*
X16702583Y-16622031D01*
X16695142Y-16634447D01*
X16686519Y-16646073D01*
X16676798Y-16656798D01*
X16666073Y-16666519D01*
X16654447Y-16675142D01*
X16642031Y-16682583D01*
X16628946Y-16688772D01*
X16615317Y-16693649D01*
X16601276Y-16697166D01*
X16586958Y-16699290D01*
X16572500Y-16700000D01*
X16227500Y-16700000D01*
X16213042Y-16699290D01*
X16198724Y-16697166D01*
X16184683Y-16693649D01*
X16171054Y-16688772D01*
X16157969Y-16682583D01*
X16145553Y-16675142D01*
X16133927Y-16666519D01*
X16123202Y-16656798D01*
X16113481Y-16646073D01*
X16104858Y-16634447D01*
X16097417Y-16622031D01*
X16091228Y-16608946D01*
X16086351Y-16595317D01*
X16082834Y-16581276D01*
X16080710Y-16566958D01*
X16080000Y-16552500D01*
X16080000Y-16257500D01*
X16080710Y-16243042D01*
X16082834Y-16228724D01*
X16086351Y-16214683D01*
X16091228Y-16201054D01*
X16097417Y-16187969D01*
X16104858Y-16175553D01*
X16113481Y-16163927D01*
X16123202Y-16153202D01*
X16133927Y-16143481D01*
X16145553Y-16134858D01*
X16157969Y-16127417D01*
X16171054Y-16121228D01*
X16184683Y-16116351D01*
X16198724Y-16112834D01*
X16213042Y-16110710D01*
X16227500Y-16110000D01*
X16572500Y-16110000D01*
X16586958Y-16110710D01*
X16586958Y-16110710D01*
G37*
D11*
G04 #@! TD*
G04 #@! TO.P,C15,2*
G04 #@! TO.N,GND*
X16400000Y-16405000D03*
D10*
G04 #@! TO.N,/VPLL_A*
G04 #@! TO.C,C15*
G36*
X16586958Y-15140710D02*
X16601276Y-15142834D01*
X16615317Y-15146351D01*
X16628946Y-15151228D01*
X16642031Y-15157417D01*
X16654447Y-15164858D01*
X16666073Y-15173481D01*
X16676798Y-15183202D01*
X16686519Y-15193927D01*
X16695142Y-15205553D01*
X16702583Y-15217969D01*
X16708772Y-15231054D01*
X16713649Y-15244683D01*
X16717166Y-15258724D01*
X16719290Y-15273042D01*
X16720000Y-15287500D01*
X16720000Y-15582500D01*
X16719290Y-15596958D01*
X16717166Y-15611276D01*
X16713649Y-15625317D01*
X16708772Y-15638946D01*
X16702583Y-15652031D01*
X16695142Y-15664447D01*
X16686519Y-15676073D01*
X16676798Y-15686798D01*
X16666073Y-15696519D01*
X16654447Y-15705142D01*
X16642031Y-15712583D01*
X16628946Y-15718772D01*
X16615317Y-15723649D01*
X16601276Y-15727166D01*
X16586958Y-15729290D01*
X16572500Y-15730000D01*
X16227500Y-15730000D01*
X16213042Y-15729290D01*
X16198724Y-15727166D01*
X16184683Y-15723649D01*
X16171054Y-15718772D01*
X16157969Y-15712583D01*
X16145553Y-15705142D01*
X16133927Y-15696519D01*
X16123202Y-15686798D01*
X16113481Y-15676073D01*
X16104858Y-15664447D01*
X16097417Y-15652031D01*
X16091228Y-15638946D01*
X16086351Y-15625317D01*
X16082834Y-15611276D01*
X16080710Y-15596958D01*
X16080000Y-15582500D01*
X16080000Y-15287500D01*
X16080710Y-15273042D01*
X16082834Y-15258724D01*
X16086351Y-15244683D01*
X16091228Y-15231054D01*
X16097417Y-15217969D01*
X16104858Y-15205553D01*
X16113481Y-15193927D01*
X16123202Y-15183202D01*
X16133927Y-15173481D01*
X16145553Y-15164858D01*
X16157969Y-15157417D01*
X16171054Y-15151228D01*
X16184683Y-15146351D01*
X16198724Y-15142834D01*
X16213042Y-15140710D01*
X16227500Y-15140000D01*
X16572500Y-15140000D01*
X16586958Y-15140710D01*
X16586958Y-15140710D01*
G37*
D11*
G04 #@! TD*
G04 #@! TO.P,C15,1*
G04 #@! TO.N,/VPLL_A*
X16400000Y-15435000D03*
D10*
G04 #@! TO.N,GND*
G04 #@! TO.C,C9*
G36*
X17796958Y-11000710D02*
X17811276Y-11002834D01*
X17825317Y-11006351D01*
X17838946Y-11011228D01*
X17852031Y-11017417D01*
X17864447Y-11024858D01*
X17876073Y-11033481D01*
X17886798Y-11043202D01*
X17896519Y-11053927D01*
X17905142Y-11065553D01*
X17912583Y-11077969D01*
X17918772Y-11091054D01*
X17923649Y-11104683D01*
X17927166Y-11118724D01*
X17929290Y-11133042D01*
X17930000Y-11147500D01*
X17930000Y-11492500D01*
X17929290Y-11506958D01*
X17927166Y-11521276D01*
X17923649Y-11535317D01*
X17918772Y-11548946D01*
X17912583Y-11562031D01*
X17905142Y-11574447D01*
X17896519Y-11586073D01*
X17886798Y-11596798D01*
X17876073Y-11606519D01*
X17864447Y-11615142D01*
X17852031Y-11622583D01*
X17838946Y-11628772D01*
X17825317Y-11633649D01*
X17811276Y-11637166D01*
X17796958Y-11639290D01*
X17782500Y-11640000D01*
X17487500Y-11640000D01*
X17473042Y-11639290D01*
X17458724Y-11637166D01*
X17444683Y-11633649D01*
X17431054Y-11628772D01*
X17417969Y-11622583D01*
X17405553Y-11615142D01*
X17393927Y-11606519D01*
X17383202Y-11596798D01*
X17373481Y-11586073D01*
X17364858Y-11574447D01*
X17357417Y-11562031D01*
X17351228Y-11548946D01*
X17346351Y-11535317D01*
X17342834Y-11521276D01*
X17340710Y-11506958D01*
X17340000Y-11492500D01*
X17340000Y-11147500D01*
X17340710Y-11133042D01*
X17342834Y-11118724D01*
X17346351Y-11104683D01*
X17351228Y-11091054D01*
X17357417Y-11077969D01*
X17364858Y-11065553D01*
X17373481Y-11053927D01*
X17383202Y-11043202D01*
X17393927Y-11033481D01*
X17405553Y-11024858D01*
X17417969Y-11017417D01*
X17431054Y-11011228D01*
X17444683Y-11006351D01*
X17458724Y-11002834D01*
X17473042Y-11000710D01*
X17487500Y-11000000D01*
X17782500Y-11000000D01*
X17796958Y-11000710D01*
X17796958Y-11000710D01*
G37*
D11*
G04 #@! TD*
G04 #@! TO.P,C9,2*
G04 #@! TO.N,GND*
X17635000Y-11320000D03*
D10*
G04 #@! TO.N,/1V2_SYS_A*
G04 #@! TO.C,C9*
G36*
X16826958Y-11000710D02*
X16841276Y-11002834D01*
X16855317Y-11006351D01*
X16868946Y-11011228D01*
X16882031Y-11017417D01*
X16894447Y-11024858D01*
X16906073Y-11033481D01*
X16916798Y-11043202D01*
X16926519Y-11053927D01*
X16935142Y-11065553D01*
X16942583Y-11077969D01*
X16948772Y-11091054D01*
X16953649Y-11104683D01*
X16957166Y-11118724D01*
X16959290Y-11133042D01*
X16960000Y-11147500D01*
X16960000Y-11492500D01*
X16959290Y-11506958D01*
X16957166Y-11521276D01*
X16953649Y-11535317D01*
X16948772Y-11548946D01*
X16942583Y-11562031D01*
X16935142Y-11574447D01*
X16926519Y-11586073D01*
X16916798Y-11596798D01*
X16906073Y-11606519D01*
X16894447Y-11615142D01*
X16882031Y-11622583D01*
X16868946Y-11628772D01*
X16855317Y-11633649D01*
X16841276Y-11637166D01*
X16826958Y-11639290D01*
X16812500Y-11640000D01*
X16517500Y-11640000D01*
X16503042Y-11639290D01*
X16488724Y-11637166D01*
X16474683Y-11633649D01*
X16461054Y-11628772D01*
X16447969Y-11622583D01*
X16435553Y-11615142D01*
X16423927Y-11606519D01*
X16413202Y-11596798D01*
X16403481Y-11586073D01*
X16394858Y-11574447D01*
X16387417Y-11562031D01*
X16381228Y-11548946D01*
X16376351Y-11535317D01*
X16372834Y-11521276D01*
X16370710Y-11506958D01*
X16370000Y-11492500D01*
X16370000Y-11147500D01*
X16370710Y-11133042D01*
X16372834Y-11118724D01*
X16376351Y-11104683D01*
X16381228Y-11091054D01*
X16387417Y-11077969D01*
X16394858Y-11065553D01*
X16403481Y-11053927D01*
X16413202Y-11043202D01*
X16423927Y-11033481D01*
X16435553Y-11024858D01*
X16447969Y-11017417D01*
X16461054Y-11011228D01*
X16474683Y-11006351D01*
X16488724Y-11002834D01*
X16503042Y-11000710D01*
X16517500Y-11000000D01*
X16812500Y-11000000D01*
X16826958Y-11000710D01*
X16826958Y-11000710D01*
G37*
D11*
G04 #@! TD*
G04 #@! TO.P,C9,1*
G04 #@! TO.N,/1V2_SYS_A*
X16665000Y-11320000D03*
D10*
G04 #@! TO.N,GND*
G04 #@! TO.C,C11*
G36*
X16736958Y-7090710D02*
X16751276Y-7092834D01*
X16765317Y-7096351D01*
X16778946Y-7101228D01*
X16792031Y-7107417D01*
X16804447Y-7114858D01*
X16816073Y-7123481D01*
X16826798Y-7133202D01*
X16836519Y-7143927D01*
X16845142Y-7155553D01*
X16852583Y-7167969D01*
X16858772Y-7181054D01*
X16863649Y-7194683D01*
X16867166Y-7208724D01*
X16869290Y-7223042D01*
X16870000Y-7237500D01*
X16870000Y-7532500D01*
X16869290Y-7546958D01*
X16867166Y-7561276D01*
X16863649Y-7575317D01*
X16858772Y-7588946D01*
X16852583Y-7602031D01*
X16845142Y-7614447D01*
X16836519Y-7626073D01*
X16826798Y-7636798D01*
X16816073Y-7646519D01*
X16804447Y-7655142D01*
X16792031Y-7662583D01*
X16778946Y-7668772D01*
X16765317Y-7673649D01*
X16751276Y-7677166D01*
X16736958Y-7679290D01*
X16722500Y-7680000D01*
X16377500Y-7680000D01*
X16363042Y-7679290D01*
X16348724Y-7677166D01*
X16334683Y-7673649D01*
X16321054Y-7668772D01*
X16307969Y-7662583D01*
X16295553Y-7655142D01*
X16283927Y-7646519D01*
X16273202Y-7636798D01*
X16263481Y-7626073D01*
X16254858Y-7614447D01*
X16247417Y-7602031D01*
X16241228Y-7588946D01*
X16236351Y-7575317D01*
X16232834Y-7561276D01*
X16230710Y-7546958D01*
X16230000Y-7532500D01*
X16230000Y-7237500D01*
X16230710Y-7223042D01*
X16232834Y-7208724D01*
X16236351Y-7194683D01*
X16241228Y-7181054D01*
X16247417Y-7167969D01*
X16254858Y-7155553D01*
X16263481Y-7143927D01*
X16273202Y-7133202D01*
X16283927Y-7123481D01*
X16295553Y-7114858D01*
X16307969Y-7107417D01*
X16321054Y-7101228D01*
X16334683Y-7096351D01*
X16348724Y-7092834D01*
X16363042Y-7090710D01*
X16377500Y-7090000D01*
X16722500Y-7090000D01*
X16736958Y-7090710D01*
X16736958Y-7090710D01*
G37*
D11*
G04 #@! TD*
G04 #@! TO.P,C11,2*
G04 #@! TO.N,GND*
X16550000Y-7385000D03*
D10*
G04 #@! TO.N,/VBATH*
G04 #@! TO.C,C11*
G36*
X16736958Y-8060710D02*
X16751276Y-8062834D01*
X16765317Y-8066351D01*
X16778946Y-8071228D01*
X16792031Y-8077417D01*
X16804447Y-8084858D01*
X16816073Y-8093481D01*
X16826798Y-8103202D01*
X16836519Y-8113927D01*
X16845142Y-8125553D01*
X16852583Y-8137969D01*
X16858772Y-8151054D01*
X16863649Y-8164683D01*
X16867166Y-8178724D01*
X16869290Y-8193042D01*
X16870000Y-8207500D01*
X16870000Y-8502500D01*
X16869290Y-8516958D01*
X16867166Y-8531276D01*
X16863649Y-8545317D01*
X16858772Y-8558946D01*
X16852583Y-8572031D01*
X16845142Y-8584447D01*
X16836519Y-8596073D01*
X16826798Y-8606798D01*
X16816073Y-8616519D01*
X16804447Y-8625142D01*
X16792031Y-8632583D01*
X16778946Y-8638772D01*
X16765317Y-8643649D01*
X16751276Y-8647166D01*
X16736958Y-8649290D01*
X16722500Y-8650000D01*
X16377500Y-8650000D01*
X16363042Y-8649290D01*
X16348724Y-8647166D01*
X16334683Y-8643649D01*
X16321054Y-8638772D01*
X16307969Y-8632583D01*
X16295553Y-8625142D01*
X16283927Y-8616519D01*
X16273202Y-8606798D01*
X16263481Y-8596073D01*
X16254858Y-8584447D01*
X16247417Y-8572031D01*
X16241228Y-8558946D01*
X16236351Y-8545317D01*
X16232834Y-8531276D01*
X16230710Y-8516958D01*
X16230000Y-8502500D01*
X16230000Y-8207500D01*
X16230710Y-8193042D01*
X16232834Y-8178724D01*
X16236351Y-8164683D01*
X16241228Y-8151054D01*
X16247417Y-8137969D01*
X16254858Y-8125553D01*
X16263481Y-8113927D01*
X16273202Y-8103202D01*
X16283927Y-8093481D01*
X16295553Y-8084858D01*
X16307969Y-8077417D01*
X16321054Y-8071228D01*
X16334683Y-8066351D01*
X16348724Y-8062834D01*
X16363042Y-8060710D01*
X16377500Y-8060000D01*
X16722500Y-8060000D01*
X16736958Y-8060710D01*
X16736958Y-8060710D01*
G37*
D11*
G04 #@! TD*
G04 #@! TO.P,C11,1*
G04 #@! TO.N,/VBATH*
X16550000Y-8355000D03*
D10*
G04 #@! TO.N,/CSI_CLK_FP_N*
G04 #@! TO.C,R23*
G36*
X7946958Y-15350710D02*
X7961276Y-15352834D01*
X7975317Y-15356351D01*
X7988946Y-15361228D01*
X8002031Y-15367417D01*
X8014447Y-15374858D01*
X8026073Y-15383481D01*
X8036798Y-15393202D01*
X8046519Y-15403927D01*
X8055142Y-15415553D01*
X8062583Y-15427969D01*
X8068772Y-15441054D01*
X8073649Y-15454683D01*
X8077166Y-15468724D01*
X8079290Y-15483042D01*
X8080000Y-15497500D01*
X8080000Y-15842500D01*
X8079290Y-15856958D01*
X8077166Y-15871276D01*
X8073649Y-15885317D01*
X8068772Y-15898946D01*
X8062583Y-15912031D01*
X8055142Y-15924447D01*
X8046519Y-15936073D01*
X8036798Y-15946798D01*
X8026073Y-15956519D01*
X8014447Y-15965142D01*
X8002031Y-15972583D01*
X7988946Y-15978772D01*
X7975317Y-15983649D01*
X7961276Y-15987166D01*
X7946958Y-15989290D01*
X7932500Y-15990000D01*
X7637500Y-15990000D01*
X7623042Y-15989290D01*
X7608724Y-15987166D01*
X7594683Y-15983649D01*
X7581054Y-15978772D01*
X7567969Y-15972583D01*
X7555553Y-15965142D01*
X7543927Y-15956519D01*
X7533202Y-15946798D01*
X7523481Y-15936073D01*
X7514858Y-15924447D01*
X7507417Y-15912031D01*
X7501228Y-15898946D01*
X7496351Y-15885317D01*
X7492834Y-15871276D01*
X7490710Y-15856958D01*
X7490000Y-15842500D01*
X7490000Y-15497500D01*
X7490710Y-15483042D01*
X7492834Y-15468724D01*
X7496351Y-15454683D01*
X7501228Y-15441054D01*
X7507417Y-15427969D01*
X7514858Y-15415553D01*
X7523481Y-15403927D01*
X7533202Y-15393202D01*
X7543927Y-15383481D01*
X7555553Y-15374858D01*
X7567969Y-15367417D01*
X7581054Y-15361228D01*
X7594683Y-15356351D01*
X7608724Y-15352834D01*
X7623042Y-15350710D01*
X7637500Y-15350000D01*
X7932500Y-15350000D01*
X7946958Y-15350710D01*
X7946958Y-15350710D01*
G37*
D11*
G04 #@! TD*
G04 #@! TO.P,R23,2*
G04 #@! TO.N,/CSI_CLK_FP_N*
X7785000Y-15670000D03*
D10*
G04 #@! TO.N,/CSI_CLK_FP_P*
G04 #@! TO.C,R23*
G36*
X8916958Y-15350710D02*
X8931276Y-15352834D01*
X8945317Y-15356351D01*
X8958946Y-15361228D01*
X8972031Y-15367417D01*
X8984447Y-15374858D01*
X8996073Y-15383481D01*
X9006798Y-15393202D01*
X9016519Y-15403927D01*
X9025142Y-15415553D01*
X9032583Y-15427969D01*
X9038772Y-15441054D01*
X9043649Y-15454683D01*
X9047166Y-15468724D01*
X9049290Y-15483042D01*
X9050000Y-15497500D01*
X9050000Y-15842500D01*
X9049290Y-15856958D01*
X9047166Y-15871276D01*
X9043649Y-15885317D01*
X9038772Y-15898946D01*
X9032583Y-15912031D01*
X9025142Y-15924447D01*
X9016519Y-15936073D01*
X9006798Y-15946798D01*
X8996073Y-15956519D01*
X8984447Y-15965142D01*
X8972031Y-15972583D01*
X8958946Y-15978772D01*
X8945317Y-15983649D01*
X8931276Y-15987166D01*
X8916958Y-15989290D01*
X8902500Y-15990000D01*
X8607500Y-15990000D01*
X8593042Y-15989290D01*
X8578724Y-15987166D01*
X8564683Y-15983649D01*
X8551054Y-15978772D01*
X8537969Y-15972583D01*
X8525553Y-15965142D01*
X8513927Y-15956519D01*
X8503202Y-15946798D01*
X8493481Y-15936073D01*
X8484858Y-15924447D01*
X8477417Y-15912031D01*
X8471228Y-15898946D01*
X8466351Y-15885317D01*
X8462834Y-15871276D01*
X8460710Y-15856958D01*
X8460000Y-15842500D01*
X8460000Y-15497500D01*
X8460710Y-15483042D01*
X8462834Y-15468724D01*
X8466351Y-15454683D01*
X8471228Y-15441054D01*
X8477417Y-15427969D01*
X8484858Y-15415553D01*
X8493481Y-15403927D01*
X8503202Y-15393202D01*
X8513927Y-15383481D01*
X8525553Y-15374858D01*
X8537969Y-15367417D01*
X8551054Y-15361228D01*
X8564683Y-15356351D01*
X8578724Y-15352834D01*
X8593042Y-15350710D01*
X8607500Y-15350000D01*
X8902500Y-15350000D01*
X8916958Y-15350710D01*
X8916958Y-15350710D01*
G37*
D11*
G04 #@! TD*
G04 #@! TO.P,R23,1*
G04 #@! TO.N,/CSI_CLK_FP_P*
X8755000Y-15670000D03*
D10*
G04 #@! TO.N,/E_CTRL_SS*
G04 #@! TO.C,R22*
G36*
X2926958Y-8430710D02*
X2941276Y-8432834D01*
X2955317Y-8436351D01*
X2968946Y-8441228D01*
X2982031Y-8447417D01*
X2994447Y-8454858D01*
X3006073Y-8463481D01*
X3016798Y-8473202D01*
X3026519Y-8483927D01*
X3035142Y-8495553D01*
X3042583Y-8507969D01*
X3048772Y-8521054D01*
X3053649Y-8534683D01*
X3057166Y-8548724D01*
X3059290Y-8563042D01*
X3060000Y-8577500D01*
X3060000Y-8922500D01*
X3059290Y-8936958D01*
X3057166Y-8951276D01*
X3053649Y-8965317D01*
X3048772Y-8978946D01*
X3042583Y-8992031D01*
X3035142Y-9004447D01*
X3026519Y-9016073D01*
X3016798Y-9026798D01*
X3006073Y-9036519D01*
X2994447Y-9045142D01*
X2982031Y-9052583D01*
X2968946Y-9058772D01*
X2955317Y-9063649D01*
X2941276Y-9067166D01*
X2926958Y-9069290D01*
X2912500Y-9070000D01*
X2617500Y-9070000D01*
X2603042Y-9069290D01*
X2588724Y-9067166D01*
X2574683Y-9063649D01*
X2561054Y-9058772D01*
X2547969Y-9052583D01*
X2535553Y-9045142D01*
X2523927Y-9036519D01*
X2513202Y-9026798D01*
X2503481Y-9016073D01*
X2494858Y-9004447D01*
X2487417Y-8992031D01*
X2481228Y-8978946D01*
X2476351Y-8965317D01*
X2472834Y-8951276D01*
X2470710Y-8936958D01*
X2470000Y-8922500D01*
X2470000Y-8577500D01*
X2470710Y-8563042D01*
X2472834Y-8548724D01*
X2476351Y-8534683D01*
X2481228Y-8521054D01*
X2487417Y-8507969D01*
X2494858Y-8495553D01*
X2503481Y-8483927D01*
X2513202Y-8473202D01*
X2523927Y-8463481D01*
X2535553Y-8454858D01*
X2547969Y-8447417D01*
X2561054Y-8441228D01*
X2574683Y-8436351D01*
X2588724Y-8432834D01*
X2603042Y-8430710D01*
X2617500Y-8430000D01*
X2912500Y-8430000D01*
X2926958Y-8430710D01*
X2926958Y-8430710D01*
G37*
D11*
G04 #@! TD*
G04 #@! TO.P,R22,2*
G04 #@! TO.N,/E_CTRL_SS*
X2765000Y-8750000D03*
D10*
G04 #@! TO.N,/CTRL_SS*
G04 #@! TO.C,R22*
G36*
X3896958Y-8430710D02*
X3911276Y-8432834D01*
X3925317Y-8436351D01*
X3938946Y-8441228D01*
X3952031Y-8447417D01*
X3964447Y-8454858D01*
X3976073Y-8463481D01*
X3986798Y-8473202D01*
X3996519Y-8483927D01*
X4005142Y-8495553D01*
X4012583Y-8507969D01*
X4018772Y-8521054D01*
X4023649Y-8534683D01*
X4027166Y-8548724D01*
X4029290Y-8563042D01*
X4030000Y-8577500D01*
X4030000Y-8922500D01*
X4029290Y-8936958D01*
X4027166Y-8951276D01*
X4023649Y-8965317D01*
X4018772Y-8978946D01*
X4012583Y-8992031D01*
X4005142Y-9004447D01*
X3996519Y-9016073D01*
X3986798Y-9026798D01*
X3976073Y-9036519D01*
X3964447Y-9045142D01*
X3952031Y-9052583D01*
X3938946Y-9058772D01*
X3925317Y-9063649D01*
X3911276Y-9067166D01*
X3896958Y-9069290D01*
X3882500Y-9070000D01*
X3587500Y-9070000D01*
X3573042Y-9069290D01*
X3558724Y-9067166D01*
X3544683Y-9063649D01*
X3531054Y-9058772D01*
X3517969Y-9052583D01*
X3505553Y-9045142D01*
X3493927Y-9036519D01*
X3483202Y-9026798D01*
X3473481Y-9016073D01*
X3464858Y-9004447D01*
X3457417Y-8992031D01*
X3451228Y-8978946D01*
X3446351Y-8965317D01*
X3442834Y-8951276D01*
X3440710Y-8936958D01*
X3440000Y-8922500D01*
X3440000Y-8577500D01*
X3440710Y-8563042D01*
X3442834Y-8548724D01*
X3446351Y-8534683D01*
X3451228Y-8521054D01*
X3457417Y-8507969D01*
X3464858Y-8495553D01*
X3473481Y-8483927D01*
X3483202Y-8473202D01*
X3493927Y-8463481D01*
X3505553Y-8454858D01*
X3517969Y-8447417D01*
X3531054Y-8441228D01*
X3544683Y-8436351D01*
X3558724Y-8432834D01*
X3573042Y-8430710D01*
X3587500Y-8430000D01*
X3882500Y-8430000D01*
X3896958Y-8430710D01*
X3896958Y-8430710D01*
G37*
D11*
G04 #@! TD*
G04 #@! TO.P,R22,1*
G04 #@! TO.N,/CTRL_SS*
X3735000Y-8750000D03*
D10*
G04 #@! TO.N,/E_CTRL_SCK*
G04 #@! TO.C,R21*
G36*
X2926958Y-9430710D02*
X2941276Y-9432834D01*
X2955317Y-9436351D01*
X2968946Y-9441228D01*
X2982031Y-9447417D01*
X2994447Y-9454858D01*
X3006073Y-9463481D01*
X3016798Y-9473202D01*
X3026519Y-9483927D01*
X3035142Y-9495553D01*
X3042583Y-9507969D01*
X3048772Y-9521054D01*
X3053649Y-9534683D01*
X3057166Y-9548724D01*
X3059290Y-9563042D01*
X3060000Y-9577500D01*
X3060000Y-9922500D01*
X3059290Y-9936958D01*
X3057166Y-9951276D01*
X3053649Y-9965317D01*
X3048772Y-9978946D01*
X3042583Y-9992031D01*
X3035142Y-10004447D01*
X3026519Y-10016073D01*
X3016798Y-10026798D01*
X3006073Y-10036519D01*
X2994447Y-10045142D01*
X2982031Y-10052583D01*
X2968946Y-10058772D01*
X2955317Y-10063649D01*
X2941276Y-10067166D01*
X2926958Y-10069290D01*
X2912500Y-10070000D01*
X2617500Y-10070000D01*
X2603042Y-10069290D01*
X2588724Y-10067166D01*
X2574683Y-10063649D01*
X2561054Y-10058772D01*
X2547969Y-10052583D01*
X2535553Y-10045142D01*
X2523927Y-10036519D01*
X2513202Y-10026798D01*
X2503481Y-10016073D01*
X2494858Y-10004447D01*
X2487417Y-9992031D01*
X2481228Y-9978946D01*
X2476351Y-9965317D01*
X2472834Y-9951276D01*
X2470710Y-9936958D01*
X2470000Y-9922500D01*
X2470000Y-9577500D01*
X2470710Y-9563042D01*
X2472834Y-9548724D01*
X2476351Y-9534683D01*
X2481228Y-9521054D01*
X2487417Y-9507969D01*
X2494858Y-9495553D01*
X2503481Y-9483927D01*
X2513202Y-9473202D01*
X2523927Y-9463481D01*
X2535553Y-9454858D01*
X2547969Y-9447417D01*
X2561054Y-9441228D01*
X2574683Y-9436351D01*
X2588724Y-9432834D01*
X2603042Y-9430710D01*
X2617500Y-9430000D01*
X2912500Y-9430000D01*
X2926958Y-9430710D01*
X2926958Y-9430710D01*
G37*
D11*
G04 #@! TD*
G04 #@! TO.P,R21,2*
G04 #@! TO.N,/E_CTRL_SCK*
X2765000Y-9750000D03*
D10*
G04 #@! TO.N,/CTRL_SCK*
G04 #@! TO.C,R21*
G36*
X3896958Y-9430710D02*
X3911276Y-9432834D01*
X3925317Y-9436351D01*
X3938946Y-9441228D01*
X3952031Y-9447417D01*
X3964447Y-9454858D01*
X3976073Y-9463481D01*
X3986798Y-9473202D01*
X3996519Y-9483927D01*
X4005142Y-9495553D01*
X4012583Y-9507969D01*
X4018772Y-9521054D01*
X4023649Y-9534683D01*
X4027166Y-9548724D01*
X4029290Y-9563042D01*
X4030000Y-9577500D01*
X4030000Y-9922500D01*
X4029290Y-9936958D01*
X4027166Y-9951276D01*
X4023649Y-9965317D01*
X4018772Y-9978946D01*
X4012583Y-9992031D01*
X4005142Y-10004447D01*
X3996519Y-10016073D01*
X3986798Y-10026798D01*
X3976073Y-10036519D01*
X3964447Y-10045142D01*
X3952031Y-10052583D01*
X3938946Y-10058772D01*
X3925317Y-10063649D01*
X3911276Y-10067166D01*
X3896958Y-10069290D01*
X3882500Y-10070000D01*
X3587500Y-10070000D01*
X3573042Y-10069290D01*
X3558724Y-10067166D01*
X3544683Y-10063649D01*
X3531054Y-10058772D01*
X3517969Y-10052583D01*
X3505553Y-10045142D01*
X3493927Y-10036519D01*
X3483202Y-10026798D01*
X3473481Y-10016073D01*
X3464858Y-10004447D01*
X3457417Y-9992031D01*
X3451228Y-9978946D01*
X3446351Y-9965317D01*
X3442834Y-9951276D01*
X3440710Y-9936958D01*
X3440000Y-9922500D01*
X3440000Y-9577500D01*
X3440710Y-9563042D01*
X3442834Y-9548724D01*
X3446351Y-9534683D01*
X3451228Y-9521054D01*
X3457417Y-9507969D01*
X3464858Y-9495553D01*
X3473481Y-9483927D01*
X3483202Y-9473202D01*
X3493927Y-9463481D01*
X3505553Y-9454858D01*
X3517969Y-9447417D01*
X3531054Y-9441228D01*
X3544683Y-9436351D01*
X3558724Y-9432834D01*
X3573042Y-9430710D01*
X3587500Y-9430000D01*
X3882500Y-9430000D01*
X3896958Y-9430710D01*
X3896958Y-9430710D01*
G37*
D11*
G04 #@! TD*
G04 #@! TO.P,R21,1*
G04 #@! TO.N,/CTRL_SCK*
X3735000Y-9750000D03*
D10*
G04 #@! TO.N,/E_CTRL_SO*
G04 #@! TO.C,R20*
G36*
X2926958Y-10430710D02*
X2941276Y-10432834D01*
X2955317Y-10436351D01*
X2968946Y-10441228D01*
X2982031Y-10447417D01*
X2994447Y-10454858D01*
X3006073Y-10463481D01*
X3016798Y-10473202D01*
X3026519Y-10483927D01*
X3035142Y-10495553D01*
X3042583Y-10507969D01*
X3048772Y-10521054D01*
X3053649Y-10534683D01*
X3057166Y-10548724D01*
X3059290Y-10563042D01*
X3060000Y-10577500D01*
X3060000Y-10922500D01*
X3059290Y-10936958D01*
X3057166Y-10951276D01*
X3053649Y-10965317D01*
X3048772Y-10978946D01*
X3042583Y-10992031D01*
X3035142Y-11004447D01*
X3026519Y-11016073D01*
X3016798Y-11026798D01*
X3006073Y-11036519D01*
X2994447Y-11045142D01*
X2982031Y-11052583D01*
X2968946Y-11058772D01*
X2955317Y-11063649D01*
X2941276Y-11067166D01*
X2926958Y-11069290D01*
X2912500Y-11070000D01*
X2617500Y-11070000D01*
X2603042Y-11069290D01*
X2588724Y-11067166D01*
X2574683Y-11063649D01*
X2561054Y-11058772D01*
X2547969Y-11052583D01*
X2535553Y-11045142D01*
X2523927Y-11036519D01*
X2513202Y-11026798D01*
X2503481Y-11016073D01*
X2494858Y-11004447D01*
X2487417Y-10992031D01*
X2481228Y-10978946D01*
X2476351Y-10965317D01*
X2472834Y-10951276D01*
X2470710Y-10936958D01*
X2470000Y-10922500D01*
X2470000Y-10577500D01*
X2470710Y-10563042D01*
X2472834Y-10548724D01*
X2476351Y-10534683D01*
X2481228Y-10521054D01*
X2487417Y-10507969D01*
X2494858Y-10495553D01*
X2503481Y-10483927D01*
X2513202Y-10473202D01*
X2523927Y-10463481D01*
X2535553Y-10454858D01*
X2547969Y-10447417D01*
X2561054Y-10441228D01*
X2574683Y-10436351D01*
X2588724Y-10432834D01*
X2603042Y-10430710D01*
X2617500Y-10430000D01*
X2912500Y-10430000D01*
X2926958Y-10430710D01*
X2926958Y-10430710D01*
G37*
D11*
G04 #@! TD*
G04 #@! TO.P,R20,2*
G04 #@! TO.N,/E_CTRL_SO*
X2765000Y-10750000D03*
D10*
G04 #@! TO.N,/CTRL_SO*
G04 #@! TO.C,R20*
G36*
X3896958Y-10430710D02*
X3911276Y-10432834D01*
X3925317Y-10436351D01*
X3938946Y-10441228D01*
X3952031Y-10447417D01*
X3964447Y-10454858D01*
X3976073Y-10463481D01*
X3986798Y-10473202D01*
X3996519Y-10483927D01*
X4005142Y-10495553D01*
X4012583Y-10507969D01*
X4018772Y-10521054D01*
X4023649Y-10534683D01*
X4027166Y-10548724D01*
X4029290Y-10563042D01*
X4030000Y-10577500D01*
X4030000Y-10922500D01*
X4029290Y-10936958D01*
X4027166Y-10951276D01*
X4023649Y-10965317D01*
X4018772Y-10978946D01*
X4012583Y-10992031D01*
X4005142Y-11004447D01*
X3996519Y-11016073D01*
X3986798Y-11026798D01*
X3976073Y-11036519D01*
X3964447Y-11045142D01*
X3952031Y-11052583D01*
X3938946Y-11058772D01*
X3925317Y-11063649D01*
X3911276Y-11067166D01*
X3896958Y-11069290D01*
X3882500Y-11070000D01*
X3587500Y-11070000D01*
X3573042Y-11069290D01*
X3558724Y-11067166D01*
X3544683Y-11063649D01*
X3531054Y-11058772D01*
X3517969Y-11052583D01*
X3505553Y-11045142D01*
X3493927Y-11036519D01*
X3483202Y-11026798D01*
X3473481Y-11016073D01*
X3464858Y-11004447D01*
X3457417Y-10992031D01*
X3451228Y-10978946D01*
X3446351Y-10965317D01*
X3442834Y-10951276D01*
X3440710Y-10936958D01*
X3440000Y-10922500D01*
X3440000Y-10577500D01*
X3440710Y-10563042D01*
X3442834Y-10548724D01*
X3446351Y-10534683D01*
X3451228Y-10521054D01*
X3457417Y-10507969D01*
X3464858Y-10495553D01*
X3473481Y-10483927D01*
X3483202Y-10473202D01*
X3493927Y-10463481D01*
X3505553Y-10454858D01*
X3517969Y-10447417D01*
X3531054Y-10441228D01*
X3544683Y-10436351D01*
X3558724Y-10432834D01*
X3573042Y-10430710D01*
X3587500Y-10430000D01*
X3882500Y-10430000D01*
X3896958Y-10430710D01*
X3896958Y-10430710D01*
G37*
D11*
G04 #@! TD*
G04 #@! TO.P,R20,1*
G04 #@! TO.N,/CTRL_SO*
X3735000Y-10750000D03*
D10*
G04 #@! TO.N,/E_CTRL_SI*
G04 #@! TO.C,R19*
G36*
X2926958Y-11430710D02*
X2941276Y-11432834D01*
X2955317Y-11436351D01*
X2968946Y-11441228D01*
X2982031Y-11447417D01*
X2994447Y-11454858D01*
X3006073Y-11463481D01*
X3016798Y-11473202D01*
X3026519Y-11483927D01*
X3035142Y-11495553D01*
X3042583Y-11507969D01*
X3048772Y-11521054D01*
X3053649Y-11534683D01*
X3057166Y-11548724D01*
X3059290Y-11563042D01*
X3060000Y-11577500D01*
X3060000Y-11922500D01*
X3059290Y-11936958D01*
X3057166Y-11951276D01*
X3053649Y-11965317D01*
X3048772Y-11978946D01*
X3042583Y-11992031D01*
X3035142Y-12004447D01*
X3026519Y-12016073D01*
X3016798Y-12026798D01*
X3006073Y-12036519D01*
X2994447Y-12045142D01*
X2982031Y-12052583D01*
X2968946Y-12058772D01*
X2955317Y-12063649D01*
X2941276Y-12067166D01*
X2926958Y-12069290D01*
X2912500Y-12070000D01*
X2617500Y-12070000D01*
X2603042Y-12069290D01*
X2588724Y-12067166D01*
X2574683Y-12063649D01*
X2561054Y-12058772D01*
X2547969Y-12052583D01*
X2535553Y-12045142D01*
X2523927Y-12036519D01*
X2513202Y-12026798D01*
X2503481Y-12016073D01*
X2494858Y-12004447D01*
X2487417Y-11992031D01*
X2481228Y-11978946D01*
X2476351Y-11965317D01*
X2472834Y-11951276D01*
X2470710Y-11936958D01*
X2470000Y-11922500D01*
X2470000Y-11577500D01*
X2470710Y-11563042D01*
X2472834Y-11548724D01*
X2476351Y-11534683D01*
X2481228Y-11521054D01*
X2487417Y-11507969D01*
X2494858Y-11495553D01*
X2503481Y-11483927D01*
X2513202Y-11473202D01*
X2523927Y-11463481D01*
X2535553Y-11454858D01*
X2547969Y-11447417D01*
X2561054Y-11441228D01*
X2574683Y-11436351D01*
X2588724Y-11432834D01*
X2603042Y-11430710D01*
X2617500Y-11430000D01*
X2912500Y-11430000D01*
X2926958Y-11430710D01*
X2926958Y-11430710D01*
G37*
D11*
G04 #@! TD*
G04 #@! TO.P,R19,2*
G04 #@! TO.N,/E_CTRL_SI*
X2765000Y-11750000D03*
D10*
G04 #@! TO.N,/CTRL_SI*
G04 #@! TO.C,R19*
G36*
X3896958Y-11430710D02*
X3911276Y-11432834D01*
X3925317Y-11436351D01*
X3938946Y-11441228D01*
X3952031Y-11447417D01*
X3964447Y-11454858D01*
X3976073Y-11463481D01*
X3986798Y-11473202D01*
X3996519Y-11483927D01*
X4005142Y-11495553D01*
X4012583Y-11507969D01*
X4018772Y-11521054D01*
X4023649Y-11534683D01*
X4027166Y-11548724D01*
X4029290Y-11563042D01*
X4030000Y-11577500D01*
X4030000Y-11922500D01*
X4029290Y-11936958D01*
X4027166Y-11951276D01*
X4023649Y-11965317D01*
X4018772Y-11978946D01*
X4012583Y-11992031D01*
X4005142Y-12004447D01*
X3996519Y-12016073D01*
X3986798Y-12026798D01*
X3976073Y-12036519D01*
X3964447Y-12045142D01*
X3952031Y-12052583D01*
X3938946Y-12058772D01*
X3925317Y-12063649D01*
X3911276Y-12067166D01*
X3896958Y-12069290D01*
X3882500Y-12070000D01*
X3587500Y-12070000D01*
X3573042Y-12069290D01*
X3558724Y-12067166D01*
X3544683Y-12063649D01*
X3531054Y-12058772D01*
X3517969Y-12052583D01*
X3505553Y-12045142D01*
X3493927Y-12036519D01*
X3483202Y-12026798D01*
X3473481Y-12016073D01*
X3464858Y-12004447D01*
X3457417Y-11992031D01*
X3451228Y-11978946D01*
X3446351Y-11965317D01*
X3442834Y-11951276D01*
X3440710Y-11936958D01*
X3440000Y-11922500D01*
X3440000Y-11577500D01*
X3440710Y-11563042D01*
X3442834Y-11548724D01*
X3446351Y-11534683D01*
X3451228Y-11521054D01*
X3457417Y-11507969D01*
X3464858Y-11495553D01*
X3473481Y-11483927D01*
X3483202Y-11473202D01*
X3493927Y-11463481D01*
X3505553Y-11454858D01*
X3517969Y-11447417D01*
X3531054Y-11441228D01*
X3544683Y-11436351D01*
X3558724Y-11432834D01*
X3573042Y-11430710D01*
X3587500Y-11430000D01*
X3882500Y-11430000D01*
X3896958Y-11430710D01*
X3896958Y-11430710D01*
G37*
D11*
G04 #@! TD*
G04 #@! TO.P,R19,1*
G04 #@! TO.N,/CTRL_SI*
X3735000Y-11750000D03*
D10*
G04 #@! TO.N,/E_PROC_SS*
G04 #@! TO.C,R18*
G36*
X2926958Y-12430710D02*
X2941276Y-12432834D01*
X2955317Y-12436351D01*
X2968946Y-12441228D01*
X2982031Y-12447417D01*
X2994447Y-12454858D01*
X3006073Y-12463481D01*
X3016798Y-12473202D01*
X3026519Y-12483927D01*
X3035142Y-12495553D01*
X3042583Y-12507969D01*
X3048772Y-12521054D01*
X3053649Y-12534683D01*
X3057166Y-12548724D01*
X3059290Y-12563042D01*
X3060000Y-12577500D01*
X3060000Y-12922500D01*
X3059290Y-12936958D01*
X3057166Y-12951276D01*
X3053649Y-12965317D01*
X3048772Y-12978946D01*
X3042583Y-12992031D01*
X3035142Y-13004447D01*
X3026519Y-13016073D01*
X3016798Y-13026798D01*
X3006073Y-13036519D01*
X2994447Y-13045142D01*
X2982031Y-13052583D01*
X2968946Y-13058772D01*
X2955317Y-13063649D01*
X2941276Y-13067166D01*
X2926958Y-13069290D01*
X2912500Y-13070000D01*
X2617500Y-13070000D01*
X2603042Y-13069290D01*
X2588724Y-13067166D01*
X2574683Y-13063649D01*
X2561054Y-13058772D01*
X2547969Y-13052583D01*
X2535553Y-13045142D01*
X2523927Y-13036519D01*
X2513202Y-13026798D01*
X2503481Y-13016073D01*
X2494858Y-13004447D01*
X2487417Y-12992031D01*
X2481228Y-12978946D01*
X2476351Y-12965317D01*
X2472834Y-12951276D01*
X2470710Y-12936958D01*
X2470000Y-12922500D01*
X2470000Y-12577500D01*
X2470710Y-12563042D01*
X2472834Y-12548724D01*
X2476351Y-12534683D01*
X2481228Y-12521054D01*
X2487417Y-12507969D01*
X2494858Y-12495553D01*
X2503481Y-12483927D01*
X2513202Y-12473202D01*
X2523927Y-12463481D01*
X2535553Y-12454858D01*
X2547969Y-12447417D01*
X2561054Y-12441228D01*
X2574683Y-12436351D01*
X2588724Y-12432834D01*
X2603042Y-12430710D01*
X2617500Y-12430000D01*
X2912500Y-12430000D01*
X2926958Y-12430710D01*
X2926958Y-12430710D01*
G37*
D11*
G04 #@! TD*
G04 #@! TO.P,R18,2*
G04 #@! TO.N,/E_PROC_SS*
X2765000Y-12750000D03*
D10*
G04 #@! TO.N,/PROC_SS*
G04 #@! TO.C,R18*
G36*
X3896958Y-12430710D02*
X3911276Y-12432834D01*
X3925317Y-12436351D01*
X3938946Y-12441228D01*
X3952031Y-12447417D01*
X3964447Y-12454858D01*
X3976073Y-12463481D01*
X3986798Y-12473202D01*
X3996519Y-12483927D01*
X4005142Y-12495553D01*
X4012583Y-12507969D01*
X4018772Y-12521054D01*
X4023649Y-12534683D01*
X4027166Y-12548724D01*
X4029290Y-12563042D01*
X4030000Y-12577500D01*
X4030000Y-12922500D01*
X4029290Y-12936958D01*
X4027166Y-12951276D01*
X4023649Y-12965317D01*
X4018772Y-12978946D01*
X4012583Y-12992031D01*
X4005142Y-13004447D01*
X3996519Y-13016073D01*
X3986798Y-13026798D01*
X3976073Y-13036519D01*
X3964447Y-13045142D01*
X3952031Y-13052583D01*
X3938946Y-13058772D01*
X3925317Y-13063649D01*
X3911276Y-13067166D01*
X3896958Y-13069290D01*
X3882500Y-13070000D01*
X3587500Y-13070000D01*
X3573042Y-13069290D01*
X3558724Y-13067166D01*
X3544683Y-13063649D01*
X3531054Y-13058772D01*
X3517969Y-13052583D01*
X3505553Y-13045142D01*
X3493927Y-13036519D01*
X3483202Y-13026798D01*
X3473481Y-13016073D01*
X3464858Y-13004447D01*
X3457417Y-12992031D01*
X3451228Y-12978946D01*
X3446351Y-12965317D01*
X3442834Y-12951276D01*
X3440710Y-12936958D01*
X3440000Y-12922500D01*
X3440000Y-12577500D01*
X3440710Y-12563042D01*
X3442834Y-12548724D01*
X3446351Y-12534683D01*
X3451228Y-12521054D01*
X3457417Y-12507969D01*
X3464858Y-12495553D01*
X3473481Y-12483927D01*
X3483202Y-12473202D01*
X3493927Y-12463481D01*
X3505553Y-12454858D01*
X3517969Y-12447417D01*
X3531054Y-12441228D01*
X3544683Y-12436351D01*
X3558724Y-12432834D01*
X3573042Y-12430710D01*
X3587500Y-12430000D01*
X3882500Y-12430000D01*
X3896958Y-12430710D01*
X3896958Y-12430710D01*
G37*
D11*
G04 #@! TD*
G04 #@! TO.P,R18,1*
G04 #@! TO.N,/PROC_SS*
X3735000Y-12750000D03*
D10*
G04 #@! TO.N,/E_PROC_SCK*
G04 #@! TO.C,R17*
G36*
X2926958Y-13430710D02*
X2941276Y-13432834D01*
X2955317Y-13436351D01*
X2968946Y-13441228D01*
X2982031Y-13447417D01*
X2994447Y-13454858D01*
X3006073Y-13463481D01*
X3016798Y-13473202D01*
X3026519Y-13483927D01*
X3035142Y-13495553D01*
X3042583Y-13507969D01*
X3048772Y-13521054D01*
X3053649Y-13534683D01*
X3057166Y-13548724D01*
X3059290Y-13563042D01*
X3060000Y-13577500D01*
X3060000Y-13922500D01*
X3059290Y-13936958D01*
X3057166Y-13951276D01*
X3053649Y-13965317D01*
X3048772Y-13978946D01*
X3042583Y-13992031D01*
X3035142Y-14004447D01*
X3026519Y-14016073D01*
X3016798Y-14026798D01*
X3006073Y-14036519D01*
X2994447Y-14045142D01*
X2982031Y-14052583D01*
X2968946Y-14058772D01*
X2955317Y-14063649D01*
X2941276Y-14067166D01*
X2926958Y-14069290D01*
X2912500Y-14070000D01*
X2617500Y-14070000D01*
X2603042Y-14069290D01*
X2588724Y-14067166D01*
X2574683Y-14063649D01*
X2561054Y-14058772D01*
X2547969Y-14052583D01*
X2535553Y-14045142D01*
X2523927Y-14036519D01*
X2513202Y-14026798D01*
X2503481Y-14016073D01*
X2494858Y-14004447D01*
X2487417Y-13992031D01*
X2481228Y-13978946D01*
X2476351Y-13965317D01*
X2472834Y-13951276D01*
X2470710Y-13936958D01*
X2470000Y-13922500D01*
X2470000Y-13577500D01*
X2470710Y-13563042D01*
X2472834Y-13548724D01*
X2476351Y-13534683D01*
X2481228Y-13521054D01*
X2487417Y-13507969D01*
X2494858Y-13495553D01*
X2503481Y-13483927D01*
X2513202Y-13473202D01*
X2523927Y-13463481D01*
X2535553Y-13454858D01*
X2547969Y-13447417D01*
X2561054Y-13441228D01*
X2574683Y-13436351D01*
X2588724Y-13432834D01*
X2603042Y-13430710D01*
X2617500Y-13430000D01*
X2912500Y-13430000D01*
X2926958Y-13430710D01*
X2926958Y-13430710D01*
G37*
D11*
G04 #@! TD*
G04 #@! TO.P,R17,2*
G04 #@! TO.N,/E_PROC_SCK*
X2765000Y-13750000D03*
D10*
G04 #@! TO.N,/PROC_SCK*
G04 #@! TO.C,R17*
G36*
X3896958Y-13430710D02*
X3911276Y-13432834D01*
X3925317Y-13436351D01*
X3938946Y-13441228D01*
X3952031Y-13447417D01*
X3964447Y-13454858D01*
X3976073Y-13463481D01*
X3986798Y-13473202D01*
X3996519Y-13483927D01*
X4005142Y-13495553D01*
X4012583Y-13507969D01*
X4018772Y-13521054D01*
X4023649Y-13534683D01*
X4027166Y-13548724D01*
X4029290Y-13563042D01*
X4030000Y-13577500D01*
X4030000Y-13922500D01*
X4029290Y-13936958D01*
X4027166Y-13951276D01*
X4023649Y-13965317D01*
X4018772Y-13978946D01*
X4012583Y-13992031D01*
X4005142Y-14004447D01*
X3996519Y-14016073D01*
X3986798Y-14026798D01*
X3976073Y-14036519D01*
X3964447Y-14045142D01*
X3952031Y-14052583D01*
X3938946Y-14058772D01*
X3925317Y-14063649D01*
X3911276Y-14067166D01*
X3896958Y-14069290D01*
X3882500Y-14070000D01*
X3587500Y-14070000D01*
X3573042Y-14069290D01*
X3558724Y-14067166D01*
X3544683Y-14063649D01*
X3531054Y-14058772D01*
X3517969Y-14052583D01*
X3505553Y-14045142D01*
X3493927Y-14036519D01*
X3483202Y-14026798D01*
X3473481Y-14016073D01*
X3464858Y-14004447D01*
X3457417Y-13992031D01*
X3451228Y-13978946D01*
X3446351Y-13965317D01*
X3442834Y-13951276D01*
X3440710Y-13936958D01*
X3440000Y-13922500D01*
X3440000Y-13577500D01*
X3440710Y-13563042D01*
X3442834Y-13548724D01*
X3446351Y-13534683D01*
X3451228Y-13521054D01*
X3457417Y-13507969D01*
X3464858Y-13495553D01*
X3473481Y-13483927D01*
X3483202Y-13473202D01*
X3493927Y-13463481D01*
X3505553Y-13454858D01*
X3517969Y-13447417D01*
X3531054Y-13441228D01*
X3544683Y-13436351D01*
X3558724Y-13432834D01*
X3573042Y-13430710D01*
X3587500Y-13430000D01*
X3882500Y-13430000D01*
X3896958Y-13430710D01*
X3896958Y-13430710D01*
G37*
D11*
G04 #@! TD*
G04 #@! TO.P,R17,1*
G04 #@! TO.N,/PROC_SCK*
X3735000Y-13750000D03*
D10*
G04 #@! TO.N,/E_PROC_SO*
G04 #@! TO.C,R16*
G36*
X2926958Y-14430710D02*
X2941276Y-14432834D01*
X2955317Y-14436351D01*
X2968946Y-14441228D01*
X2982031Y-14447417D01*
X2994447Y-14454858D01*
X3006073Y-14463481D01*
X3016798Y-14473202D01*
X3026519Y-14483927D01*
X3035142Y-14495553D01*
X3042583Y-14507969D01*
X3048772Y-14521054D01*
X3053649Y-14534683D01*
X3057166Y-14548724D01*
X3059290Y-14563042D01*
X3060000Y-14577500D01*
X3060000Y-14922500D01*
X3059290Y-14936958D01*
X3057166Y-14951276D01*
X3053649Y-14965317D01*
X3048772Y-14978946D01*
X3042583Y-14992031D01*
X3035142Y-15004447D01*
X3026519Y-15016073D01*
X3016798Y-15026798D01*
X3006073Y-15036519D01*
X2994447Y-15045142D01*
X2982031Y-15052583D01*
X2968946Y-15058772D01*
X2955317Y-15063649D01*
X2941276Y-15067166D01*
X2926958Y-15069290D01*
X2912500Y-15070000D01*
X2617500Y-15070000D01*
X2603042Y-15069290D01*
X2588724Y-15067166D01*
X2574683Y-15063649D01*
X2561054Y-15058772D01*
X2547969Y-15052583D01*
X2535553Y-15045142D01*
X2523927Y-15036519D01*
X2513202Y-15026798D01*
X2503481Y-15016073D01*
X2494858Y-15004447D01*
X2487417Y-14992031D01*
X2481228Y-14978946D01*
X2476351Y-14965317D01*
X2472834Y-14951276D01*
X2470710Y-14936958D01*
X2470000Y-14922500D01*
X2470000Y-14577500D01*
X2470710Y-14563042D01*
X2472834Y-14548724D01*
X2476351Y-14534683D01*
X2481228Y-14521054D01*
X2487417Y-14507969D01*
X2494858Y-14495553D01*
X2503481Y-14483927D01*
X2513202Y-14473202D01*
X2523927Y-14463481D01*
X2535553Y-14454858D01*
X2547969Y-14447417D01*
X2561054Y-14441228D01*
X2574683Y-14436351D01*
X2588724Y-14432834D01*
X2603042Y-14430710D01*
X2617500Y-14430000D01*
X2912500Y-14430000D01*
X2926958Y-14430710D01*
X2926958Y-14430710D01*
G37*
D11*
G04 #@! TD*
G04 #@! TO.P,R16,2*
G04 #@! TO.N,/E_PROC_SO*
X2765000Y-14750000D03*
D10*
G04 #@! TO.N,/PROC_SO*
G04 #@! TO.C,R16*
G36*
X3896958Y-14430710D02*
X3911276Y-14432834D01*
X3925317Y-14436351D01*
X3938946Y-14441228D01*
X3952031Y-14447417D01*
X3964447Y-14454858D01*
X3976073Y-14463481D01*
X3986798Y-14473202D01*
X3996519Y-14483927D01*
X4005142Y-14495553D01*
X4012583Y-14507969D01*
X4018772Y-14521054D01*
X4023649Y-14534683D01*
X4027166Y-14548724D01*
X4029290Y-14563042D01*
X4030000Y-14577500D01*
X4030000Y-14922500D01*
X4029290Y-14936958D01*
X4027166Y-14951276D01*
X4023649Y-14965317D01*
X4018772Y-14978946D01*
X4012583Y-14992031D01*
X4005142Y-15004447D01*
X3996519Y-15016073D01*
X3986798Y-15026798D01*
X3976073Y-15036519D01*
X3964447Y-15045142D01*
X3952031Y-15052583D01*
X3938946Y-15058772D01*
X3925317Y-15063649D01*
X3911276Y-15067166D01*
X3896958Y-15069290D01*
X3882500Y-15070000D01*
X3587500Y-15070000D01*
X3573042Y-15069290D01*
X3558724Y-15067166D01*
X3544683Y-15063649D01*
X3531054Y-15058772D01*
X3517969Y-15052583D01*
X3505553Y-15045142D01*
X3493927Y-15036519D01*
X3483202Y-15026798D01*
X3473481Y-15016073D01*
X3464858Y-15004447D01*
X3457417Y-14992031D01*
X3451228Y-14978946D01*
X3446351Y-14965317D01*
X3442834Y-14951276D01*
X3440710Y-14936958D01*
X3440000Y-14922500D01*
X3440000Y-14577500D01*
X3440710Y-14563042D01*
X3442834Y-14548724D01*
X3446351Y-14534683D01*
X3451228Y-14521054D01*
X3457417Y-14507969D01*
X3464858Y-14495553D01*
X3473481Y-14483927D01*
X3483202Y-14473202D01*
X3493927Y-14463481D01*
X3505553Y-14454858D01*
X3517969Y-14447417D01*
X3531054Y-14441228D01*
X3544683Y-14436351D01*
X3558724Y-14432834D01*
X3573042Y-14430710D01*
X3587500Y-14430000D01*
X3882500Y-14430000D01*
X3896958Y-14430710D01*
X3896958Y-14430710D01*
G37*
D11*
G04 #@! TD*
G04 #@! TO.P,R16,1*
G04 #@! TO.N,/PROC_SO*
X3735000Y-14750000D03*
D10*
G04 #@! TO.N,/E_PROC_SI*
G04 #@! TO.C,R15*
G36*
X2926958Y-15430710D02*
X2941276Y-15432834D01*
X2955317Y-15436351D01*
X2968946Y-15441228D01*
X2982031Y-15447417D01*
X2994447Y-15454858D01*
X3006073Y-15463481D01*
X3016798Y-15473202D01*
X3026519Y-15483927D01*
X3035142Y-15495553D01*
X3042583Y-15507969D01*
X3048772Y-15521054D01*
X3053649Y-15534683D01*
X3057166Y-15548724D01*
X3059290Y-15563042D01*
X3060000Y-15577500D01*
X3060000Y-15922500D01*
X3059290Y-15936958D01*
X3057166Y-15951276D01*
X3053649Y-15965317D01*
X3048772Y-15978946D01*
X3042583Y-15992031D01*
X3035142Y-16004447D01*
X3026519Y-16016073D01*
X3016798Y-16026798D01*
X3006073Y-16036519D01*
X2994447Y-16045142D01*
X2982031Y-16052583D01*
X2968946Y-16058772D01*
X2955317Y-16063649D01*
X2941276Y-16067166D01*
X2926958Y-16069290D01*
X2912500Y-16070000D01*
X2617500Y-16070000D01*
X2603042Y-16069290D01*
X2588724Y-16067166D01*
X2574683Y-16063649D01*
X2561054Y-16058772D01*
X2547969Y-16052583D01*
X2535553Y-16045142D01*
X2523927Y-16036519D01*
X2513202Y-16026798D01*
X2503481Y-16016073D01*
X2494858Y-16004447D01*
X2487417Y-15992031D01*
X2481228Y-15978946D01*
X2476351Y-15965317D01*
X2472834Y-15951276D01*
X2470710Y-15936958D01*
X2470000Y-15922500D01*
X2470000Y-15577500D01*
X2470710Y-15563042D01*
X2472834Y-15548724D01*
X2476351Y-15534683D01*
X2481228Y-15521054D01*
X2487417Y-15507969D01*
X2494858Y-15495553D01*
X2503481Y-15483927D01*
X2513202Y-15473202D01*
X2523927Y-15463481D01*
X2535553Y-15454858D01*
X2547969Y-15447417D01*
X2561054Y-15441228D01*
X2574683Y-15436351D01*
X2588724Y-15432834D01*
X2603042Y-15430710D01*
X2617500Y-15430000D01*
X2912500Y-15430000D01*
X2926958Y-15430710D01*
X2926958Y-15430710D01*
G37*
D11*
G04 #@! TD*
G04 #@! TO.P,R15,2*
G04 #@! TO.N,/E_PROC_SI*
X2765000Y-15750000D03*
D10*
G04 #@! TO.N,/PROC_SI*
G04 #@! TO.C,R15*
G36*
X3896958Y-15430710D02*
X3911276Y-15432834D01*
X3925317Y-15436351D01*
X3938946Y-15441228D01*
X3952031Y-15447417D01*
X3964447Y-15454858D01*
X3976073Y-15463481D01*
X3986798Y-15473202D01*
X3996519Y-15483927D01*
X4005142Y-15495553D01*
X4012583Y-15507969D01*
X4018772Y-15521054D01*
X4023649Y-15534683D01*
X4027166Y-15548724D01*
X4029290Y-15563042D01*
X4030000Y-15577500D01*
X4030000Y-15922500D01*
X4029290Y-15936958D01*
X4027166Y-15951276D01*
X4023649Y-15965317D01*
X4018772Y-15978946D01*
X4012583Y-15992031D01*
X4005142Y-16004447D01*
X3996519Y-16016073D01*
X3986798Y-16026798D01*
X3976073Y-16036519D01*
X3964447Y-16045142D01*
X3952031Y-16052583D01*
X3938946Y-16058772D01*
X3925317Y-16063649D01*
X3911276Y-16067166D01*
X3896958Y-16069290D01*
X3882500Y-16070000D01*
X3587500Y-16070000D01*
X3573042Y-16069290D01*
X3558724Y-16067166D01*
X3544683Y-16063649D01*
X3531054Y-16058772D01*
X3517969Y-16052583D01*
X3505553Y-16045142D01*
X3493927Y-16036519D01*
X3483202Y-16026798D01*
X3473481Y-16016073D01*
X3464858Y-16004447D01*
X3457417Y-15992031D01*
X3451228Y-15978946D01*
X3446351Y-15965317D01*
X3442834Y-15951276D01*
X3440710Y-15936958D01*
X3440000Y-15922500D01*
X3440000Y-15577500D01*
X3440710Y-15563042D01*
X3442834Y-15548724D01*
X3446351Y-15534683D01*
X3451228Y-15521054D01*
X3457417Y-15507969D01*
X3464858Y-15495553D01*
X3473481Y-15483927D01*
X3483202Y-15473202D01*
X3493927Y-15463481D01*
X3505553Y-15454858D01*
X3517969Y-15447417D01*
X3531054Y-15441228D01*
X3544683Y-15436351D01*
X3558724Y-15432834D01*
X3573042Y-15430710D01*
X3587500Y-15430000D01*
X3882500Y-15430000D01*
X3896958Y-15430710D01*
X3896958Y-15430710D01*
G37*
D11*
G04 #@! TD*
G04 #@! TO.P,R15,1*
G04 #@! TO.N,/PROC_SI*
X3735000Y-15750000D03*
D10*
G04 #@! TO.N,/CSI_D2_FP_N*
G04 #@! TO.C,R14*
G36*
X8686958Y-10940710D02*
X8701276Y-10942834D01*
X8715317Y-10946351D01*
X8728946Y-10951228D01*
X8742031Y-10957417D01*
X8754447Y-10964858D01*
X8766073Y-10973481D01*
X8776798Y-10983202D01*
X8786519Y-10993927D01*
X8795142Y-11005553D01*
X8802583Y-11017969D01*
X8808772Y-11031054D01*
X8813649Y-11044683D01*
X8817166Y-11058724D01*
X8819290Y-11073042D01*
X8820000Y-11087500D01*
X8820000Y-11382500D01*
X8819290Y-11396958D01*
X8817166Y-11411276D01*
X8813649Y-11425317D01*
X8808772Y-11438946D01*
X8802583Y-11452031D01*
X8795142Y-11464447D01*
X8786519Y-11476073D01*
X8776798Y-11486798D01*
X8766073Y-11496519D01*
X8754447Y-11505142D01*
X8742031Y-11512583D01*
X8728946Y-11518772D01*
X8715317Y-11523649D01*
X8701276Y-11527166D01*
X8686958Y-11529290D01*
X8672500Y-11530000D01*
X8327500Y-11530000D01*
X8313042Y-11529290D01*
X8298724Y-11527166D01*
X8284683Y-11523649D01*
X8271054Y-11518772D01*
X8257969Y-11512583D01*
X8245553Y-11505142D01*
X8233927Y-11496519D01*
X8223202Y-11486798D01*
X8213481Y-11476073D01*
X8204858Y-11464447D01*
X8197417Y-11452031D01*
X8191228Y-11438946D01*
X8186351Y-11425317D01*
X8182834Y-11411276D01*
X8180710Y-11396958D01*
X8180000Y-11382500D01*
X8180000Y-11087500D01*
X8180710Y-11073042D01*
X8182834Y-11058724D01*
X8186351Y-11044683D01*
X8191228Y-11031054D01*
X8197417Y-11017969D01*
X8204858Y-11005553D01*
X8213481Y-10993927D01*
X8223202Y-10983202D01*
X8233927Y-10973481D01*
X8245553Y-10964858D01*
X8257969Y-10957417D01*
X8271054Y-10951228D01*
X8284683Y-10946351D01*
X8298724Y-10942834D01*
X8313042Y-10940710D01*
X8327500Y-10940000D01*
X8672500Y-10940000D01*
X8686958Y-10940710D01*
X8686958Y-10940710D01*
G37*
D11*
G04 #@! TD*
G04 #@! TO.P,R14,2*
G04 #@! TO.N,/CSI_D2_FP_N*
X8500000Y-11235000D03*
D10*
G04 #@! TO.N,/CSI_D2_FP_P*
G04 #@! TO.C,R14*
G36*
X8686958Y-9970710D02*
X8701276Y-9972834D01*
X8715317Y-9976351D01*
X8728946Y-9981228D01*
X8742031Y-9987417D01*
X8754447Y-9994858D01*
X8766073Y-10003481D01*
X8776798Y-10013202D01*
X8786519Y-10023927D01*
X8795142Y-10035553D01*
X8802583Y-10047969D01*
X8808772Y-10061054D01*
X8813649Y-10074683D01*
X8817166Y-10088724D01*
X8819290Y-10103042D01*
X8820000Y-10117500D01*
X8820000Y-10412500D01*
X8819290Y-10426958D01*
X8817166Y-10441276D01*
X8813649Y-10455317D01*
X8808772Y-10468946D01*
X8802583Y-10482031D01*
X8795142Y-10494447D01*
X8786519Y-10506073D01*
X8776798Y-10516798D01*
X8766073Y-10526519D01*
X8754447Y-10535142D01*
X8742031Y-10542583D01*
X8728946Y-10548772D01*
X8715317Y-10553649D01*
X8701276Y-10557166D01*
X8686958Y-10559290D01*
X8672500Y-10560000D01*
X8327500Y-10560000D01*
X8313042Y-10559290D01*
X8298724Y-10557166D01*
X8284683Y-10553649D01*
X8271054Y-10548772D01*
X8257969Y-10542583D01*
X8245553Y-10535142D01*
X8233927Y-10526519D01*
X8223202Y-10516798D01*
X8213481Y-10506073D01*
X8204858Y-10494447D01*
X8197417Y-10482031D01*
X8191228Y-10468946D01*
X8186351Y-10455317D01*
X8182834Y-10441276D01*
X8180710Y-10426958D01*
X8180000Y-10412500D01*
X8180000Y-10117500D01*
X8180710Y-10103042D01*
X8182834Y-10088724D01*
X8186351Y-10074683D01*
X8191228Y-10061054D01*
X8197417Y-10047969D01*
X8204858Y-10035553D01*
X8213481Y-10023927D01*
X8223202Y-10013202D01*
X8233927Y-10003481D01*
X8245553Y-9994858D01*
X8257969Y-9987417D01*
X8271054Y-9981228D01*
X8284683Y-9976351D01*
X8298724Y-9972834D01*
X8313042Y-9970710D01*
X8327500Y-9970000D01*
X8672500Y-9970000D01*
X8686958Y-9970710D01*
X8686958Y-9970710D01*
G37*
D11*
G04 #@! TD*
G04 #@! TO.P,R14,1*
G04 #@! TO.N,/CSI_D2_FP_P*
X8500000Y-10265000D03*
D10*
G04 #@! TO.N,/CSI_D1_FP_N*
G04 #@! TO.C,R12*
G36*
X8686958Y-12720710D02*
X8701276Y-12722834D01*
X8715317Y-12726351D01*
X8728946Y-12731228D01*
X8742031Y-12737417D01*
X8754447Y-12744858D01*
X8766073Y-12753481D01*
X8776798Y-12763202D01*
X8786519Y-12773927D01*
X8795142Y-12785553D01*
X8802583Y-12797969D01*
X8808772Y-12811054D01*
X8813649Y-12824683D01*
X8817166Y-12838724D01*
X8819290Y-12853042D01*
X8820000Y-12867500D01*
X8820000Y-13162500D01*
X8819290Y-13176958D01*
X8817166Y-13191276D01*
X8813649Y-13205317D01*
X8808772Y-13218946D01*
X8802583Y-13232031D01*
X8795142Y-13244447D01*
X8786519Y-13256073D01*
X8776798Y-13266798D01*
X8766073Y-13276519D01*
X8754447Y-13285142D01*
X8742031Y-13292583D01*
X8728946Y-13298772D01*
X8715317Y-13303649D01*
X8701276Y-13307166D01*
X8686958Y-13309290D01*
X8672500Y-13310000D01*
X8327500Y-13310000D01*
X8313042Y-13309290D01*
X8298724Y-13307166D01*
X8284683Y-13303649D01*
X8271054Y-13298772D01*
X8257969Y-13292583D01*
X8245553Y-13285142D01*
X8233927Y-13276519D01*
X8223202Y-13266798D01*
X8213481Y-13256073D01*
X8204858Y-13244447D01*
X8197417Y-13232031D01*
X8191228Y-13218946D01*
X8186351Y-13205317D01*
X8182834Y-13191276D01*
X8180710Y-13176958D01*
X8180000Y-13162500D01*
X8180000Y-12867500D01*
X8180710Y-12853042D01*
X8182834Y-12838724D01*
X8186351Y-12824683D01*
X8191228Y-12811054D01*
X8197417Y-12797969D01*
X8204858Y-12785553D01*
X8213481Y-12773927D01*
X8223202Y-12763202D01*
X8233927Y-12753481D01*
X8245553Y-12744858D01*
X8257969Y-12737417D01*
X8271054Y-12731228D01*
X8284683Y-12726351D01*
X8298724Y-12722834D01*
X8313042Y-12720710D01*
X8327500Y-12720000D01*
X8672500Y-12720000D01*
X8686958Y-12720710D01*
X8686958Y-12720710D01*
G37*
D11*
G04 #@! TD*
G04 #@! TO.P,R12,2*
G04 #@! TO.N,/CSI_D1_FP_N*
X8500000Y-13015000D03*
D10*
G04 #@! TO.N,/CSI_D1_FP_P*
G04 #@! TO.C,R12*
G36*
X8686958Y-13690710D02*
X8701276Y-13692834D01*
X8715317Y-13696351D01*
X8728946Y-13701228D01*
X8742031Y-13707417D01*
X8754447Y-13714858D01*
X8766073Y-13723481D01*
X8776798Y-13733202D01*
X8786519Y-13743927D01*
X8795142Y-13755553D01*
X8802583Y-13767969D01*
X8808772Y-13781054D01*
X8813649Y-13794683D01*
X8817166Y-13808724D01*
X8819290Y-13823042D01*
X8820000Y-13837500D01*
X8820000Y-14132500D01*
X8819290Y-14146958D01*
X8817166Y-14161276D01*
X8813649Y-14175317D01*
X8808772Y-14188946D01*
X8802583Y-14202031D01*
X8795142Y-14214447D01*
X8786519Y-14226073D01*
X8776798Y-14236798D01*
X8766073Y-14246519D01*
X8754447Y-14255142D01*
X8742031Y-14262583D01*
X8728946Y-14268772D01*
X8715317Y-14273649D01*
X8701276Y-14277166D01*
X8686958Y-14279290D01*
X8672500Y-14280000D01*
X8327500Y-14280000D01*
X8313042Y-14279290D01*
X8298724Y-14277166D01*
X8284683Y-14273649D01*
X8271054Y-14268772D01*
X8257969Y-14262583D01*
X8245553Y-14255142D01*
X8233927Y-14246519D01*
X8223202Y-14236798D01*
X8213481Y-14226073D01*
X8204858Y-14214447D01*
X8197417Y-14202031D01*
X8191228Y-14188946D01*
X8186351Y-14175317D01*
X8182834Y-14161276D01*
X8180710Y-14146958D01*
X8180000Y-14132500D01*
X8180000Y-13837500D01*
X8180710Y-13823042D01*
X8182834Y-13808724D01*
X8186351Y-13794683D01*
X8191228Y-13781054D01*
X8197417Y-13767969D01*
X8204858Y-13755553D01*
X8213481Y-13743927D01*
X8223202Y-13733202D01*
X8233927Y-13723481D01*
X8245553Y-13714858D01*
X8257969Y-13707417D01*
X8271054Y-13701228D01*
X8284683Y-13696351D01*
X8298724Y-13692834D01*
X8313042Y-13690710D01*
X8327500Y-13690000D01*
X8672500Y-13690000D01*
X8686958Y-13690710D01*
X8686958Y-13690710D01*
G37*
D11*
G04 #@! TD*
G04 #@! TO.P,R12,1*
G04 #@! TO.N,/CSI_D1_FP_P*
X8500000Y-13985000D03*
D12*
G04 #@! TO.P,TP17,1*
G04 #@! TO.N,/SYS_CLK*
X8150000Y-17209200D03*
G04 #@! TD*
D13*
G04 #@! TO.P,U1,EP*
G04 #@! TO.N,GND*
X12500000Y-10000000D03*
D14*
G04 #@! TO.P,U1,B1*
G04 #@! TO.N,/3V3_SYS*
X15425000Y-13575000D03*
G04 #@! TO.P,U1,B5*
G04 #@! TO.N,/PROC_SO*
X12825000Y-13575000D03*
G04 #@! TO.P,U1,B10*
G04 #@! TO.N,/SYS_CLK*
X9575000Y-13575000D03*
G04 #@! TO.P,U1,B3*
G04 #@! TO.N,/PROC_RST*
X14125000Y-13575000D03*
G04 #@! TO.P,U1,B6*
G04 #@! TO.N,/PROC_SS*
X12175000Y-13575000D03*
G04 #@! TO.P,U1,A3*
G04 #@! TO.N,/PIO2*
X14125000Y-14225000D03*
G04 #@! TO.P,U1,A8*
G04 #@! TO.N,/DBG_RX*
X10875000Y-14225000D03*
G04 #@! TO.P,U1,B8*
G04 #@! TO.N,/DONE*
X10875000Y-13575000D03*
G04 #@! TO.P,U1,A5*
G04 #@! TO.N,/1V2_SYS_B*
X12825000Y-14225000D03*
G04 #@! TO.P,U1,A10*
G04 #@! TO.N,/I2C_1_SCL*
X9575000Y-14225000D03*
G04 #@! TO.P,U1,A6*
G04 #@! TO.N,/VPLL_B*
X12175000Y-14225000D03*
G04 #@! TO.P,U1,C4*
G04 #@! TO.N,/CTRL_RST*
X13475000Y-12925000D03*
G04 #@! TO.P,U1,C3*
G04 #@! TO.N,/PIO1*
X14125000Y-12925000D03*
G04 #@! TO.P,U1,C1*
G04 #@! TO.N,/CTRL_SS*
X15425000Y-12925000D03*
G04 #@! TO.P,U1,A4*
G04 #@! TO.N,/USB_DET*
X13475000Y-14225000D03*
G04 #@! TO.P,U1,A1*
G04 #@! TO.N,/PROC_OUT_2*
X15425000Y-14225000D03*
G04 #@! TO.P,U1,A9*
G04 #@! TO.N,/I2C_1_SDA*
X10225000Y-14225000D03*
G04 #@! TO.P,U1,A2*
G04 #@! TO.N,/PROC_OUT_1*
X14775000Y-14225000D03*
G04 #@! TO.P,U1,B2*
G04 #@! TO.N,/PROC_OUT_0*
X14775000Y-13575000D03*
G04 #@! TO.P,U1,C6*
G04 #@! TO.N,/PROC_SI*
X12175000Y-12925000D03*
G04 #@! TO.P,U1,C7*
G04 #@! TO.N,/MIPI_SEL*
X11525000Y-12925000D03*
G04 #@! TO.P,U1,C5*
G04 #@! TO.N,/PROC_SCK*
X12825000Y-12925000D03*
G04 #@! TO.P,U1,C10*
G04 #@! TO.N,/CSI_D1_FP_N*
X9575000Y-12925000D03*
G04 #@! TO.P,U1,C2*
G04 #@! TO.N,/VPLL_A*
X14775000Y-12925000D03*
G04 #@! TO.P,U1,B9*
G04 #@! TO.N,/DBG_TX*
X10225000Y-13575000D03*
G04 #@! TO.P,U1,B7*
G04 #@! TO.N,/USB_D_P*
X11525000Y-13575000D03*
G04 #@! TO.P,U1,A7*
G04 #@! TO.N,/USB_D_N*
X11525000Y-14225000D03*
G04 #@! TO.P,U1,B4*
G04 #@! TO.N,/CTRL_OUT*
X13475000Y-13575000D03*
G04 #@! TO.P,U1,C9*
G04 #@! TO.N,/CSI_D1_FP_P*
X10225000Y-12925000D03*
G04 #@! TO.P,U1,C8*
G04 #@! TO.N,/CSI_INT*
X10875000Y-12925000D03*
G04 #@! TO.P,U1,D2*
G04 #@! TO.N,/CSI_CLK_FP_P*
X14775000Y-12275000D03*
G04 #@! TO.P,U1,D10*
G04 #@! TO.N,/CSI_CLK_FP_N*
X9575000Y-12275000D03*
G04 #@! TO.P,U1,D1*
G04 #@! TO.N,/2V5_SYS*
X15425000Y-12275000D03*
G04 #@! TO.P,U1,D9*
G04 #@! TO.N,/PIO3*
X10225000Y-12275000D03*
G04 #@! TO.P,U1,D3*
G04 #@! TO.N,/ULPM_WAKE*
X14125000Y-12275000D03*
G04 #@! TO.P,U1,D8*
G04 #@! TO.N,Net-(U1-PadD8)*
X10875000Y-12275000D03*
G04 #@! TO.P,U1,E1*
G04 #@! TO.N,/1V2_SYS_A*
X15425000Y-11625000D03*
G04 #@! TO.P,U1,E10*
G04 #@! TO.N,/CSI_CLK_OUT_P*
X9575000Y-11625000D03*
G04 #@! TO.P,U1,E2*
G04 #@! TO.N,/CTRL_SCK*
X14775000Y-11625000D03*
G04 #@! TO.P,U1,E9*
G04 #@! TO.N,/CSI_OE*
X10225000Y-11625000D03*
G04 #@! TO.P,U1,F1*
G04 #@! TO.N,/CTRL_SI*
X15425000Y-10975000D03*
G04 #@! TO.P,U1,F10*
G04 #@! TO.N,/CSI_D2_FP_N*
X9575000Y-10975000D03*
G04 #@! TO.P,U1,F2*
G04 #@! TO.N,/CTRL_SO*
X14775000Y-10975000D03*
G04 #@! TO.P,U1,F9*
G04 #@! TO.N,/CSI_CLK_OUT_N*
X10225000Y-10975000D03*
G04 #@! TO.P,U1,G1*
G04 #@! TO.N,/CSI_CLK_IN_N*
X15425000Y-10325000D03*
G04 #@! TO.P,U1,G1-*
G04 #@! TO.N,N/C*
X9575000Y-10325000D03*
G04 #@! TO.P,U1,G2*
G04 #@! TO.N,/CSI_CLK_IN_P*
X14775000Y-10325000D03*
G04 #@! TO.P,U1,G9*
G04 #@! TO.N,/CSI_D2_FP_P*
X10225000Y-10325000D03*
G04 #@! TO.P,U1,H1*
G04 #@! TO.N,/CSI_D1_IN_P*
X15425000Y-9675000D03*
G04 #@! TO.P,U1,H10*
G04 #@! TO.N,/CSI_D1_OUT_N*
X9575000Y-9675000D03*
G04 #@! TO.P,U1,H2*
G04 #@! TO.N,/CSI_D1_IN_N*
X14775000Y-9675000D03*
G04 #@! TO.P,U1,H9*
G04 #@! TO.N,/I2C_0_SDA*
X10225000Y-9675000D03*
G04 #@! TO.P,U1,J1*
G04 #@! TO.N,/PWR_BTN*
X15425000Y-9025000D03*
G04 #@! TO.P,U1,J10*
G04 #@! TO.N,/CSI_D2_OUT_P*
X9575000Y-9025000D03*
G04 #@! TO.P,U1,J2*
G04 #@! TO.N,/ZIP_EN_L*
X14775000Y-9025000D03*
G04 #@! TO.P,U1,J9*
G04 #@! TO.N,/I2C_0_SCL*
X10225000Y-9025000D03*
G04 #@! TO.P,U1,K2*
G04 #@! TO.N,/EXT_CLK*
X14775000Y-8375000D03*
G04 #@! TO.P,U1,K10*
G04 #@! TO.N,/CSI_D2_OUT_N*
X9575000Y-8375000D03*
G04 #@! TO.P,U1,K1*
G04 #@! TO.N,/VBATH*
X15425000Y-8375000D03*
G04 #@! TO.P,U1,K9*
G04 #@! TO.N,/TCK*
X10225000Y-8375000D03*
G04 #@! TO.P,U1,L10*
G04 #@! TO.N,/3V3_SYS*
X9575000Y-7725000D03*
G04 #@! TO.P,U1,L2*
G04 #@! TO.N,/PC_RDY*
X14775000Y-7725000D03*
G04 #@! TO.P,U1,L9*
G04 #@! TO.N,/TDI*
X10225000Y-7725000D03*
G04 #@! TO.P,U1,L1*
G04 #@! TO.N,/3V3*
X15425000Y-7725000D03*
G04 #@! TO.P,U1,L8*
G04 #@! TO.N,/TDO*
X10875000Y-7725000D03*
G04 #@! TO.P,U1,L3*
G04 #@! TO.N,/EXTCLK_EN*
X14125000Y-7725000D03*
G04 #@! TO.P,U1,M6*
G04 #@! TO.N,/LED2_ISINK*
X12175000Y-7075000D03*
G04 #@! TO.P,U1,M10*
G04 #@! TO.N,/1V8_SYS*
X9575000Y-7075000D03*
G04 #@! TO.P,U1,M2*
G04 #@! TO.N,Net-(U1-PadM2)*
X14775000Y-7075000D03*
G04 #@! TO.P,U1,M9*
G04 #@! TO.N,Net-(U1-PadM9)*
X10225000Y-7075000D03*
G04 #@! TO.P,U1,M1*
G04 #@! TO.N,GND*
X15425000Y-7075000D03*
G04 #@! TO.P,U1,M4*
G04 #@! TO.N,/VSENSE*
X13475000Y-7075000D03*
G04 #@! TO.P,U1,M8*
G04 #@! TO.N,/TMS*
X10875000Y-7075000D03*
G04 #@! TO.P,U1,M3*
G04 #@! TO.N,Net-(U1-PadM3)*
X14125000Y-7075000D03*
G04 #@! TO.P,U1,M5*
G04 #@! TO.N,/LED1_ISINK*
X12825000Y-7075000D03*
G04 #@! TO.P,U1,M7*
G04 #@! TO.N,/LED3_ISINK*
X11525000Y-7075000D03*
G04 #@! TO.P,U1,N6*
G04 #@! TO.N,/1V2*
X12175000Y-6425000D03*
G04 #@! TO.P,U1,N10*
G04 #@! TO.N,/CSI_D3_OUT_P*
X9575000Y-6425000D03*
G04 #@! TO.P,U1,N2*
G04 #@! TO.N,GND*
X14775000Y-6425000D03*
G04 #@! TO.P,U1,N9*
G04 #@! TO.N,/CSI_D4_OUT_P*
X10225000Y-6425000D03*
G04 #@! TO.P,U1,N1*
G04 #@! TO.N,Net-(U1-PadN1)*
X15425000Y-6425000D03*
G04 #@! TO.P,U1,N4*
G04 #@! TO.N,/1V8*
X13475000Y-6425000D03*
G04 #@! TO.P,U1,N8*
G04 #@! TO.N,/2V5*
X10875000Y-6425000D03*
G04 #@! TO.P,U1,N3*
G04 #@! TO.N,/VDDANA*
X14125000Y-6425000D03*
G04 #@! TO.P,U1,N5*
G04 #@! TO.N,/CSI_D3_IN_P*
X12825000Y-6425000D03*
G04 #@! TO.P,U1,N7*
G04 #@! TO.N,/3V3_SYS*
X11525000Y-6425000D03*
G04 #@! TO.P,U1,P10*
G04 #@! TO.N,/CSI_D3_OUT_N*
X9575000Y-5775000D03*
G04 #@! TO.P,U1,P9*
G04 #@! TO.N,/CSI_D4_OUT_N*
X10225000Y-5775000D03*
G04 #@! TO.P,U1,P8*
G04 #@! TO.N,Net-(U1-PadP8)*
X10875000Y-5775000D03*
G04 #@! TO.P,U1,P7*
G04 #@! TO.N,/CSI_D4_IN_P*
X11525000Y-5775000D03*
G04 #@! TO.P,U1,P6*
G04 #@! TO.N,/CSI_D4_IN_N*
X12175000Y-5775000D03*
G04 #@! TO.P,U1,P5*
G04 #@! TO.N,/CSI_D3_IN_N*
X12825000Y-5775000D03*
G04 #@! TO.P,U1,P4*
G04 #@! TO.N,/CSI_D2_IN_N*
X13475000Y-5775000D03*
G04 #@! TO.P,U1,P3*
G04 #@! TO.N,/CSI_D2_IN_P*
X14125000Y-5775000D03*
G04 #@! TO.P,U1,P2*
G04 #@! TO.N,GND*
X14775000Y-5775000D03*
G04 #@! TO.P,U1,P1*
G04 #@! TO.N,Net-(U1-PadP1)*
X15425000Y-5775000D03*
G04 #@! TD*
D15*
G04 #@! TO.N,GND*
X8600000Y-5120000D03*
X8000000Y-4620000D03*
G04 #@! TO.N,/CSI_CLK_IN_P*
X16624455Y-10265545D03*
X19935545Y-14504455D03*
G04 #@! TO.N,/CSI_CLK_IN_N*
X16235545Y-10654455D03*
X20324455Y-14115545D03*
G04 #@! TO.N,Net-(U1-PadD8)*
X10875000Y-11795000D03*
G04 #@! TO.N,/ULPM_WAKE*
X14125000Y-11780000D03*
G04 #@! TO.N,/CSI_INT*
X11525000Y-11800000D03*
G04 #@! TO.N,/CTRL_OUT*
X13150000Y-15020000D03*
G04 #@! TO.N,/PROC_SCK*
X12825000Y-12475000D03*
G04 #@! TO.N,/MIPI_SEL*
X12150000Y-11775000D03*
G04 #@! TO.N,/PROC_SI*
X12175000Y-12475000D03*
G04 #@! TO.N,/PROC_OUT_0*
X14500000Y-15020000D03*
G04 #@! TO.N,/USB_DET*
X13450000Y-15420000D03*
G04 #@! TO.N,/PIO1*
X13525000Y-11785000D03*
G04 #@! TO.N,/CTRL_RST*
X12825000Y-11790000D03*
G04 #@! TO.N,/PIO2*
X14100000Y-15370000D03*
G04 #@! TO.N,/PROC_RST*
X13800000Y-14970000D03*
G04 #@! TD*
D10*
G04 #@! TO.N,GND*
X14775000Y-6175000D02*
X14840000Y-6110000D01*
X14775000Y-6425000D02*
X14775000Y-6175000D01*
X14840000Y-6110000D02*
X16510000Y-6110000D01*
X8525000Y-5120000D02*
X8600000Y-5120000D01*
X7850000Y-5795000D02*
X8525000Y-5120000D01*
X7134168Y-5460832D02*
X7159168Y-5460832D01*
X6800000Y-5795000D02*
X7134168Y-5460832D01*
X7159168Y-5460832D02*
X8000000Y-4620000D01*
G04 #@! TO.N,/3V3_SYS*
X15675000Y-13575000D02*
X15680000Y-13570000D01*
X15425000Y-13575000D02*
X15675000Y-13575000D01*
X15680000Y-13570000D02*
X16110000Y-13570000D01*
G04 #@! TO.N,Net-(U1-PadN1)*
X15675000Y-6425000D02*
X15680000Y-6420000D01*
X15425000Y-6425000D02*
X15675000Y-6425000D01*
X15680000Y-6420000D02*
X16490000Y-6420000D01*
G04 #@! TO.N,Net-(U1-PadM2)*
X14775000Y-6825000D02*
X14850000Y-6750000D01*
X14775000Y-7075000D02*
X14775000Y-6825000D01*
X14850000Y-6750000D02*
X16530000Y-6750000D01*
G04 #@! TO.N,/CSI_D2_FP_P*
X8920000Y-10265000D02*
X9305000Y-10650000D01*
X8500000Y-10265000D02*
X8920000Y-10265000D01*
X10150000Y-10650000D02*
X10225000Y-10575000D01*
X10225000Y-10575000D02*
X10225000Y-10325000D01*
X9305000Y-10650000D02*
X10150000Y-10650000D01*
G04 #@! TO.N,/CSI_CLK_IN_P*
X16362825Y-10265545D02*
X16624455Y-10265545D01*
X16242280Y-10145000D02*
X16362825Y-10265545D01*
X15739999Y-10049999D02*
X15835000Y-10145000D01*
X15050001Y-10049999D02*
X15739999Y-10049999D01*
X14775000Y-10325000D02*
X15050001Y-10049999D01*
X15835000Y-10145000D02*
X16242280Y-10145000D01*
G04 #@! TO.N,/CSI_CLK_IN_N*
X16167720Y-10325000D02*
X16235545Y-10392825D01*
X16235545Y-10392825D02*
X16235545Y-10654455D01*
X15425000Y-10325000D02*
X16167720Y-10325000D01*
D16*
G04 #@! TO.N,/CSI_D2_FP_N*
X9565000Y-10985000D02*
X9575000Y-10975000D01*
D10*
X8760000Y-10975000D02*
X8500000Y-11235000D01*
X9575000Y-10975000D02*
X8760000Y-10975000D01*
D16*
G04 #@! TO.N,Net-(U1-PadD8)*
X10875000Y-12275000D02*
X10875000Y-11800000D01*
D10*
X10875000Y-12275000D02*
X10875000Y-11795000D01*
D16*
G04 #@! TO.N,/ULPM_WAKE*
X14125000Y-12275000D02*
X14125000Y-11775000D01*
D10*
X14125000Y-12275000D02*
X14125000Y-11780000D01*
G04 #@! TO.N,/2V5_SYS*
X15675000Y-12275000D02*
X15680000Y-12270000D01*
X15425000Y-12275000D02*
X15675000Y-12275000D01*
X15680000Y-12270000D02*
X16210000Y-12270000D01*
G04 #@! TO.N,/CSI_CLK_FP_P*
X14775000Y-12525000D02*
X14830000Y-12580000D01*
X14775000Y-12275000D02*
X14775000Y-12525000D01*
X14830000Y-12580000D02*
X16070000Y-12580000D01*
G04 #@! TO.N,/CSI_INT*
X11525000Y-11925000D02*
X11400000Y-12050000D01*
X11525000Y-11800000D02*
X11525000Y-11925000D01*
D16*
X11400000Y-12050000D02*
X11550000Y-11900000D01*
D10*
X11125000Y-12925000D02*
X10875000Y-12925000D01*
X11225000Y-12825000D02*
X11125000Y-12925000D01*
X11225000Y-12225000D02*
X11225000Y-12825000D01*
X11400000Y-12050000D02*
X11225000Y-12225000D01*
G04 #@! TO.N,/CSI_D1_FP_P*
X10225000Y-13175000D02*
X10150000Y-13250000D01*
X10225000Y-12925000D02*
X10225000Y-13175000D01*
D16*
X9875000Y-13250000D02*
X9235000Y-13250000D01*
D10*
X10150000Y-13250000D02*
X9950000Y-13250000D01*
X9950000Y-13250000D02*
X9235000Y-13250000D01*
X9950000Y-13250000D02*
X9875000Y-13250000D01*
X9235000Y-13250000D02*
X8500000Y-13985000D01*
G04 #@! TO.N,/CTRL_OUT*
X13475000Y-13575000D02*
X13475000Y-13645000D01*
X13475000Y-13645000D02*
X13200000Y-13920000D01*
X13200000Y-14970000D02*
X13150000Y-15020000D01*
X13200000Y-13920000D02*
X13200000Y-14970000D01*
G04 #@! TO.N,/VPLL_A*
X14775000Y-13175000D02*
X14870000Y-13270000D01*
X14775000Y-12925000D02*
X14775000Y-13175000D01*
X14870000Y-13270000D02*
X16190000Y-13270000D01*
G04 #@! TO.N,/CSI_D1_FP_N*
X8590000Y-12925000D02*
X8500000Y-13015000D01*
X9575000Y-12925000D02*
X8590000Y-12925000D01*
D16*
G04 #@! TO.N,/PROC_SCK*
X12825000Y-12925000D02*
X12825000Y-12475000D01*
G04 #@! TO.N,/MIPI_SEL*
X12150000Y-11900000D02*
X12175000Y-11900000D01*
D10*
X11525000Y-12675000D02*
X11525000Y-12525000D01*
X11525000Y-12925000D02*
X11525000Y-12675000D01*
X11525000Y-12400000D02*
X12150000Y-11775000D01*
X11525000Y-12525000D02*
X11525000Y-12400000D01*
D16*
G04 #@! TO.N,/PROC_SI*
X12175000Y-12925000D02*
X12175000Y-12475000D01*
D10*
G04 #@! TO.N,/PROC_OUT_0*
X14775000Y-13575000D02*
X14695000Y-13575000D01*
X14695000Y-13575000D02*
X14500000Y-13770000D01*
X14500000Y-13770000D02*
X14500000Y-15020000D01*
X14500000Y-15020000D02*
X14500000Y-15120000D01*
G04 #@! TO.N,/USB_DET*
X13475000Y-14225000D02*
X13475000Y-15145000D01*
X13475000Y-15395000D02*
X13450000Y-15420000D01*
X13475000Y-15145000D02*
X13475000Y-15395000D01*
G04 #@! TO.N,/CTRL_SS*
X15425000Y-12925000D02*
X16195000Y-12925000D01*
D16*
G04 #@! TO.N,/PIO1*
X13550000Y-11900000D02*
X13550000Y-11875000D01*
D10*
X13525000Y-11900000D02*
X13525000Y-11785000D01*
X14125000Y-12925000D02*
X13875000Y-12925000D01*
X13800000Y-12850000D02*
X13800000Y-12175000D01*
X13800000Y-12175000D02*
X13525000Y-11900000D01*
X13875000Y-12925000D02*
X13800000Y-12850000D01*
G04 #@! TO.N,/CTRL_RST*
X13475000Y-12440000D02*
X12825000Y-11790000D01*
X13475000Y-12925000D02*
X13475000Y-12440000D01*
G04 #@! TO.N,/1V2_SYS_B*
X12825000Y-14225000D02*
X12825000Y-14745000D01*
G04 #@! TO.N,/PIO2*
X14125000Y-14225000D02*
X14125000Y-14970000D01*
X14125000Y-14970000D02*
X14125000Y-15195000D01*
X14125000Y-14970000D02*
X14125000Y-15345000D01*
X14125000Y-15345000D02*
X14100000Y-15370000D01*
G04 #@! TO.N,/PROC_RST*
X13875000Y-13575000D02*
X13820000Y-13630000D01*
X14125000Y-13575000D02*
X13875000Y-13575000D01*
X13820000Y-14950000D02*
X13800000Y-14970000D01*
X13820000Y-13630000D02*
X13820000Y-14950000D01*
G04 #@! TO.N,/PROC_SO*
X12825000Y-13575000D02*
X12825000Y-13595000D01*
X12825000Y-13595000D02*
X12500000Y-13920000D01*
X12500000Y-13920000D02*
X12500000Y-14870000D01*
G04 #@! TD*
M02*
