G04 #@! TF.GenerationSoftware,KiCad,Pcbnew,5.0.2+dfsg1-1~bpo9+1*
G04 #@! TF.CreationDate,2019-10-21T14:39:04+02:00*
G04 #@! TF.ProjectId,zglue-dragon-adapter,7a676c75-652d-4647-9261-676f6e2d6164,rev?*
G04 #@! TF.SameCoordinates,Original*
G04 #@! TF.FileFunction,Copper,L1,Top*
G04 #@! TF.FilePolarity,Positive*
%FSLAX46Y46*%
G04 Gerber Fmt 4.6, Leading zero omitted, Abs format (unit mm)*
G04 Created by KiCad (PCBNEW 5.0.2+dfsg1-1~bpo9+1) date Mon 21 Oct 2019 02:39:04 PM CEST*
%MOMM*%
%LPD*%
G01*
G04 APERTURE LIST*
G04 #@! TA.AperFunction,Conductor*
%ADD10C,0.100000*%
G04 #@! TD*
G04 #@! TA.AperFunction,SMDPad,CuDef*
%ADD11C,0.590000*%
G04 #@! TD*
G04 #@! TA.AperFunction,BGAPad,CuDef*
%ADD12C,1.000000*%
G04 #@! TD*
G04 #@! TA.AperFunction,SMDPad,CuDef*
%ADD13R,0.300000X0.300000*%
G04 #@! TD*
G04 #@! TA.AperFunction,SMDPad,CuDef*
%ADD14R,3.600000X2.800000*%
G04 #@! TD*
G04 #@! TA.AperFunction,ViaPad*
%ADD15C,0.457000*%
G04 #@! TD*
G04 #@! TA.AperFunction,Conductor*
%ADD16C,0.150000*%
G04 #@! TD*
G04 #@! TA.AperFunction,Conductor*
%ADD17C,0.110000*%
G04 #@! TD*
G04 #@! TA.AperFunction,Conductor*
%ADD18C,0.080000*%
G04 #@! TD*
G04 APERTURE END LIST*
D10*
G04 #@! TO.N,GND*
G04 #@! TO.C,C10*
G36*
X10386958Y-16540710D02*
X10401276Y-16542834D01*
X10415317Y-16546351D01*
X10428946Y-16551228D01*
X10442031Y-16557417D01*
X10454447Y-16564858D01*
X10466073Y-16573481D01*
X10476798Y-16583202D01*
X10486519Y-16593927D01*
X10495142Y-16605553D01*
X10502583Y-16617969D01*
X10508772Y-16631054D01*
X10513649Y-16644683D01*
X10517166Y-16658724D01*
X10519290Y-16673042D01*
X10520000Y-16687500D01*
X10520000Y-16982500D01*
X10519290Y-16996958D01*
X10517166Y-17011276D01*
X10513649Y-17025317D01*
X10508772Y-17038946D01*
X10502583Y-17052031D01*
X10495142Y-17064447D01*
X10486519Y-17076073D01*
X10476798Y-17086798D01*
X10466073Y-17096519D01*
X10454447Y-17105142D01*
X10442031Y-17112583D01*
X10428946Y-17118772D01*
X10415317Y-17123649D01*
X10401276Y-17127166D01*
X10386958Y-17129290D01*
X10372500Y-17130000D01*
X10027500Y-17130000D01*
X10013042Y-17129290D01*
X9998724Y-17127166D01*
X9984683Y-17123649D01*
X9971054Y-17118772D01*
X9957969Y-17112583D01*
X9945553Y-17105142D01*
X9933927Y-17096519D01*
X9923202Y-17086798D01*
X9913481Y-17076073D01*
X9904858Y-17064447D01*
X9897417Y-17052031D01*
X9891228Y-17038946D01*
X9886351Y-17025317D01*
X9882834Y-17011276D01*
X9880710Y-16996958D01*
X9880000Y-16982500D01*
X9880000Y-16687500D01*
X9880710Y-16673042D01*
X9882834Y-16658724D01*
X9886351Y-16644683D01*
X9891228Y-16631054D01*
X9897417Y-16617969D01*
X9904858Y-16605553D01*
X9913481Y-16593927D01*
X9923202Y-16583202D01*
X9933927Y-16573481D01*
X9945553Y-16564858D01*
X9957969Y-16557417D01*
X9971054Y-16551228D01*
X9984683Y-16546351D01*
X9998724Y-16542834D01*
X10013042Y-16540710D01*
X10027500Y-16540000D01*
X10372500Y-16540000D01*
X10386958Y-16540710D01*
X10386958Y-16540710D01*
G37*
D11*
G04 #@! TD*
G04 #@! TO.P,C10,2*
G04 #@! TO.N,GND*
X10200000Y-16835000D03*
D10*
G04 #@! TO.N,/VDDANA*
G04 #@! TO.C,C10*
G36*
X10386958Y-15570710D02*
X10401276Y-15572834D01*
X10415317Y-15576351D01*
X10428946Y-15581228D01*
X10442031Y-15587417D01*
X10454447Y-15594858D01*
X10466073Y-15603481D01*
X10476798Y-15613202D01*
X10486519Y-15623927D01*
X10495142Y-15635553D01*
X10502583Y-15647969D01*
X10508772Y-15661054D01*
X10513649Y-15674683D01*
X10517166Y-15688724D01*
X10519290Y-15703042D01*
X10520000Y-15717500D01*
X10520000Y-16012500D01*
X10519290Y-16026958D01*
X10517166Y-16041276D01*
X10513649Y-16055317D01*
X10508772Y-16068946D01*
X10502583Y-16082031D01*
X10495142Y-16094447D01*
X10486519Y-16106073D01*
X10476798Y-16116798D01*
X10466073Y-16126519D01*
X10454447Y-16135142D01*
X10442031Y-16142583D01*
X10428946Y-16148772D01*
X10415317Y-16153649D01*
X10401276Y-16157166D01*
X10386958Y-16159290D01*
X10372500Y-16160000D01*
X10027500Y-16160000D01*
X10013042Y-16159290D01*
X9998724Y-16157166D01*
X9984683Y-16153649D01*
X9971054Y-16148772D01*
X9957969Y-16142583D01*
X9945553Y-16135142D01*
X9933927Y-16126519D01*
X9923202Y-16116798D01*
X9913481Y-16106073D01*
X9904858Y-16094447D01*
X9897417Y-16082031D01*
X9891228Y-16068946D01*
X9886351Y-16055317D01*
X9882834Y-16041276D01*
X9880710Y-16026958D01*
X9880000Y-16012500D01*
X9880000Y-15717500D01*
X9880710Y-15703042D01*
X9882834Y-15688724D01*
X9886351Y-15674683D01*
X9891228Y-15661054D01*
X9897417Y-15647969D01*
X9904858Y-15635553D01*
X9913481Y-15623927D01*
X9923202Y-15613202D01*
X9933927Y-15603481D01*
X9945553Y-15594858D01*
X9957969Y-15587417D01*
X9971054Y-15581228D01*
X9984683Y-15576351D01*
X9998724Y-15572834D01*
X10013042Y-15570710D01*
X10027500Y-15570000D01*
X10372500Y-15570000D01*
X10386958Y-15570710D01*
X10386958Y-15570710D01*
G37*
D11*
G04 #@! TD*
G04 #@! TO.P,C10,1*
G04 #@! TO.N,/VDDANA*
X10200000Y-15865000D03*
D12*
G04 #@! TO.P,TP16,1*
G04 #@! TO.N,/LED3_ISINK*
X16730000Y-18670800D03*
G04 #@! TD*
G04 #@! TO.P,TP14,1*
G04 #@! TO.N,/LED1_ISINK*
X14140000Y-18660800D03*
G04 #@! TD*
G04 #@! TO.P,TP15,1*
G04 #@! TO.N,/LED2_ISINK*
X15430000Y-18670800D03*
G04 #@! TD*
D10*
G04 #@! TO.N,/E_PROC_SI*
G04 #@! TO.C,R15*
G36*
X22096958Y-3240710D02*
X22111276Y-3242834D01*
X22125317Y-3246351D01*
X22138946Y-3251228D01*
X22152031Y-3257417D01*
X22164447Y-3264858D01*
X22176073Y-3273481D01*
X22186798Y-3283202D01*
X22196519Y-3293927D01*
X22205142Y-3305553D01*
X22212583Y-3317969D01*
X22218772Y-3331054D01*
X22223649Y-3344683D01*
X22227166Y-3358724D01*
X22229290Y-3373042D01*
X22230000Y-3387500D01*
X22230000Y-3732500D01*
X22229290Y-3746958D01*
X22227166Y-3761276D01*
X22223649Y-3775317D01*
X22218772Y-3788946D01*
X22212583Y-3802031D01*
X22205142Y-3814447D01*
X22196519Y-3826073D01*
X22186798Y-3836798D01*
X22176073Y-3846519D01*
X22164447Y-3855142D01*
X22152031Y-3862583D01*
X22138946Y-3868772D01*
X22125317Y-3873649D01*
X22111276Y-3877166D01*
X22096958Y-3879290D01*
X22082500Y-3880000D01*
X21787500Y-3880000D01*
X21773042Y-3879290D01*
X21758724Y-3877166D01*
X21744683Y-3873649D01*
X21731054Y-3868772D01*
X21717969Y-3862583D01*
X21705553Y-3855142D01*
X21693927Y-3846519D01*
X21683202Y-3836798D01*
X21673481Y-3826073D01*
X21664858Y-3814447D01*
X21657417Y-3802031D01*
X21651228Y-3788946D01*
X21646351Y-3775317D01*
X21642834Y-3761276D01*
X21640710Y-3746958D01*
X21640000Y-3732500D01*
X21640000Y-3387500D01*
X21640710Y-3373042D01*
X21642834Y-3358724D01*
X21646351Y-3344683D01*
X21651228Y-3331054D01*
X21657417Y-3317969D01*
X21664858Y-3305553D01*
X21673481Y-3293927D01*
X21683202Y-3283202D01*
X21693927Y-3273481D01*
X21705553Y-3264858D01*
X21717969Y-3257417D01*
X21731054Y-3251228D01*
X21744683Y-3246351D01*
X21758724Y-3242834D01*
X21773042Y-3240710D01*
X21787500Y-3240000D01*
X22082500Y-3240000D01*
X22096958Y-3240710D01*
X22096958Y-3240710D01*
G37*
D11*
G04 #@! TD*
G04 #@! TO.P,R15,2*
G04 #@! TO.N,/E_PROC_SI*
X21935000Y-3560000D03*
D10*
G04 #@! TO.N,/PROC_SI*
G04 #@! TO.C,R15*
G36*
X21126958Y-3240710D02*
X21141276Y-3242834D01*
X21155317Y-3246351D01*
X21168946Y-3251228D01*
X21182031Y-3257417D01*
X21194447Y-3264858D01*
X21206073Y-3273481D01*
X21216798Y-3283202D01*
X21226519Y-3293927D01*
X21235142Y-3305553D01*
X21242583Y-3317969D01*
X21248772Y-3331054D01*
X21253649Y-3344683D01*
X21257166Y-3358724D01*
X21259290Y-3373042D01*
X21260000Y-3387500D01*
X21260000Y-3732500D01*
X21259290Y-3746958D01*
X21257166Y-3761276D01*
X21253649Y-3775317D01*
X21248772Y-3788946D01*
X21242583Y-3802031D01*
X21235142Y-3814447D01*
X21226519Y-3826073D01*
X21216798Y-3836798D01*
X21206073Y-3846519D01*
X21194447Y-3855142D01*
X21182031Y-3862583D01*
X21168946Y-3868772D01*
X21155317Y-3873649D01*
X21141276Y-3877166D01*
X21126958Y-3879290D01*
X21112500Y-3880000D01*
X20817500Y-3880000D01*
X20803042Y-3879290D01*
X20788724Y-3877166D01*
X20774683Y-3873649D01*
X20761054Y-3868772D01*
X20747969Y-3862583D01*
X20735553Y-3855142D01*
X20723927Y-3846519D01*
X20713202Y-3836798D01*
X20703481Y-3826073D01*
X20694858Y-3814447D01*
X20687417Y-3802031D01*
X20681228Y-3788946D01*
X20676351Y-3775317D01*
X20672834Y-3761276D01*
X20670710Y-3746958D01*
X20670000Y-3732500D01*
X20670000Y-3387500D01*
X20670710Y-3373042D01*
X20672834Y-3358724D01*
X20676351Y-3344683D01*
X20681228Y-3331054D01*
X20687417Y-3317969D01*
X20694858Y-3305553D01*
X20703481Y-3293927D01*
X20713202Y-3283202D01*
X20723927Y-3273481D01*
X20735553Y-3264858D01*
X20747969Y-3257417D01*
X20761054Y-3251228D01*
X20774683Y-3246351D01*
X20788724Y-3242834D01*
X20803042Y-3240710D01*
X20817500Y-3240000D01*
X21112500Y-3240000D01*
X21126958Y-3240710D01*
X21126958Y-3240710D01*
G37*
D11*
G04 #@! TD*
G04 #@! TO.P,R15,1*
G04 #@! TO.N,/PROC_SI*
X20965000Y-3560000D03*
D10*
G04 #@! TO.N,/E_PROC_SCK*
G04 #@! TO.C,R17*
G36*
X22096958Y-5240710D02*
X22111276Y-5242834D01*
X22125317Y-5246351D01*
X22138946Y-5251228D01*
X22152031Y-5257417D01*
X22164447Y-5264858D01*
X22176073Y-5273481D01*
X22186798Y-5283202D01*
X22196519Y-5293927D01*
X22205142Y-5305553D01*
X22212583Y-5317969D01*
X22218772Y-5331054D01*
X22223649Y-5344683D01*
X22227166Y-5358724D01*
X22229290Y-5373042D01*
X22230000Y-5387500D01*
X22230000Y-5732500D01*
X22229290Y-5746958D01*
X22227166Y-5761276D01*
X22223649Y-5775317D01*
X22218772Y-5788946D01*
X22212583Y-5802031D01*
X22205142Y-5814447D01*
X22196519Y-5826073D01*
X22186798Y-5836798D01*
X22176073Y-5846519D01*
X22164447Y-5855142D01*
X22152031Y-5862583D01*
X22138946Y-5868772D01*
X22125317Y-5873649D01*
X22111276Y-5877166D01*
X22096958Y-5879290D01*
X22082500Y-5880000D01*
X21787500Y-5880000D01*
X21773042Y-5879290D01*
X21758724Y-5877166D01*
X21744683Y-5873649D01*
X21731054Y-5868772D01*
X21717969Y-5862583D01*
X21705553Y-5855142D01*
X21693927Y-5846519D01*
X21683202Y-5836798D01*
X21673481Y-5826073D01*
X21664858Y-5814447D01*
X21657417Y-5802031D01*
X21651228Y-5788946D01*
X21646351Y-5775317D01*
X21642834Y-5761276D01*
X21640710Y-5746958D01*
X21640000Y-5732500D01*
X21640000Y-5387500D01*
X21640710Y-5373042D01*
X21642834Y-5358724D01*
X21646351Y-5344683D01*
X21651228Y-5331054D01*
X21657417Y-5317969D01*
X21664858Y-5305553D01*
X21673481Y-5293927D01*
X21683202Y-5283202D01*
X21693927Y-5273481D01*
X21705553Y-5264858D01*
X21717969Y-5257417D01*
X21731054Y-5251228D01*
X21744683Y-5246351D01*
X21758724Y-5242834D01*
X21773042Y-5240710D01*
X21787500Y-5240000D01*
X22082500Y-5240000D01*
X22096958Y-5240710D01*
X22096958Y-5240710D01*
G37*
D11*
G04 #@! TD*
G04 #@! TO.P,R17,2*
G04 #@! TO.N,/E_PROC_SCK*
X21935000Y-5560000D03*
D10*
G04 #@! TO.N,/PROC_SCK*
G04 #@! TO.C,R17*
G36*
X21126958Y-5240710D02*
X21141276Y-5242834D01*
X21155317Y-5246351D01*
X21168946Y-5251228D01*
X21182031Y-5257417D01*
X21194447Y-5264858D01*
X21206073Y-5273481D01*
X21216798Y-5283202D01*
X21226519Y-5293927D01*
X21235142Y-5305553D01*
X21242583Y-5317969D01*
X21248772Y-5331054D01*
X21253649Y-5344683D01*
X21257166Y-5358724D01*
X21259290Y-5373042D01*
X21260000Y-5387500D01*
X21260000Y-5732500D01*
X21259290Y-5746958D01*
X21257166Y-5761276D01*
X21253649Y-5775317D01*
X21248772Y-5788946D01*
X21242583Y-5802031D01*
X21235142Y-5814447D01*
X21226519Y-5826073D01*
X21216798Y-5836798D01*
X21206073Y-5846519D01*
X21194447Y-5855142D01*
X21182031Y-5862583D01*
X21168946Y-5868772D01*
X21155317Y-5873649D01*
X21141276Y-5877166D01*
X21126958Y-5879290D01*
X21112500Y-5880000D01*
X20817500Y-5880000D01*
X20803042Y-5879290D01*
X20788724Y-5877166D01*
X20774683Y-5873649D01*
X20761054Y-5868772D01*
X20747969Y-5862583D01*
X20735553Y-5855142D01*
X20723927Y-5846519D01*
X20713202Y-5836798D01*
X20703481Y-5826073D01*
X20694858Y-5814447D01*
X20687417Y-5802031D01*
X20681228Y-5788946D01*
X20676351Y-5775317D01*
X20672834Y-5761276D01*
X20670710Y-5746958D01*
X20670000Y-5732500D01*
X20670000Y-5387500D01*
X20670710Y-5373042D01*
X20672834Y-5358724D01*
X20676351Y-5344683D01*
X20681228Y-5331054D01*
X20687417Y-5317969D01*
X20694858Y-5305553D01*
X20703481Y-5293927D01*
X20713202Y-5283202D01*
X20723927Y-5273481D01*
X20735553Y-5264858D01*
X20747969Y-5257417D01*
X20761054Y-5251228D01*
X20774683Y-5246351D01*
X20788724Y-5242834D01*
X20803042Y-5240710D01*
X20817500Y-5240000D01*
X21112500Y-5240000D01*
X21126958Y-5240710D01*
X21126958Y-5240710D01*
G37*
D11*
G04 #@! TD*
G04 #@! TO.P,R17,1*
G04 #@! TO.N,/PROC_SCK*
X20965000Y-5560000D03*
D10*
G04 #@! TO.N,/E_PROC_SO*
G04 #@! TO.C,R16*
G36*
X22096958Y-4240710D02*
X22111276Y-4242834D01*
X22125317Y-4246351D01*
X22138946Y-4251228D01*
X22152031Y-4257417D01*
X22164447Y-4264858D01*
X22176073Y-4273481D01*
X22186798Y-4283202D01*
X22196519Y-4293927D01*
X22205142Y-4305553D01*
X22212583Y-4317969D01*
X22218772Y-4331054D01*
X22223649Y-4344683D01*
X22227166Y-4358724D01*
X22229290Y-4373042D01*
X22230000Y-4387500D01*
X22230000Y-4732500D01*
X22229290Y-4746958D01*
X22227166Y-4761276D01*
X22223649Y-4775317D01*
X22218772Y-4788946D01*
X22212583Y-4802031D01*
X22205142Y-4814447D01*
X22196519Y-4826073D01*
X22186798Y-4836798D01*
X22176073Y-4846519D01*
X22164447Y-4855142D01*
X22152031Y-4862583D01*
X22138946Y-4868772D01*
X22125317Y-4873649D01*
X22111276Y-4877166D01*
X22096958Y-4879290D01*
X22082500Y-4880000D01*
X21787500Y-4880000D01*
X21773042Y-4879290D01*
X21758724Y-4877166D01*
X21744683Y-4873649D01*
X21731054Y-4868772D01*
X21717969Y-4862583D01*
X21705553Y-4855142D01*
X21693927Y-4846519D01*
X21683202Y-4836798D01*
X21673481Y-4826073D01*
X21664858Y-4814447D01*
X21657417Y-4802031D01*
X21651228Y-4788946D01*
X21646351Y-4775317D01*
X21642834Y-4761276D01*
X21640710Y-4746958D01*
X21640000Y-4732500D01*
X21640000Y-4387500D01*
X21640710Y-4373042D01*
X21642834Y-4358724D01*
X21646351Y-4344683D01*
X21651228Y-4331054D01*
X21657417Y-4317969D01*
X21664858Y-4305553D01*
X21673481Y-4293927D01*
X21683202Y-4283202D01*
X21693927Y-4273481D01*
X21705553Y-4264858D01*
X21717969Y-4257417D01*
X21731054Y-4251228D01*
X21744683Y-4246351D01*
X21758724Y-4242834D01*
X21773042Y-4240710D01*
X21787500Y-4240000D01*
X22082500Y-4240000D01*
X22096958Y-4240710D01*
X22096958Y-4240710D01*
G37*
D11*
G04 #@! TD*
G04 #@! TO.P,R16,2*
G04 #@! TO.N,/E_PROC_SO*
X21935000Y-4560000D03*
D10*
G04 #@! TO.N,/PROC_SO*
G04 #@! TO.C,R16*
G36*
X21126958Y-4240710D02*
X21141276Y-4242834D01*
X21155317Y-4246351D01*
X21168946Y-4251228D01*
X21182031Y-4257417D01*
X21194447Y-4264858D01*
X21206073Y-4273481D01*
X21216798Y-4283202D01*
X21226519Y-4293927D01*
X21235142Y-4305553D01*
X21242583Y-4317969D01*
X21248772Y-4331054D01*
X21253649Y-4344683D01*
X21257166Y-4358724D01*
X21259290Y-4373042D01*
X21260000Y-4387500D01*
X21260000Y-4732500D01*
X21259290Y-4746958D01*
X21257166Y-4761276D01*
X21253649Y-4775317D01*
X21248772Y-4788946D01*
X21242583Y-4802031D01*
X21235142Y-4814447D01*
X21226519Y-4826073D01*
X21216798Y-4836798D01*
X21206073Y-4846519D01*
X21194447Y-4855142D01*
X21182031Y-4862583D01*
X21168946Y-4868772D01*
X21155317Y-4873649D01*
X21141276Y-4877166D01*
X21126958Y-4879290D01*
X21112500Y-4880000D01*
X20817500Y-4880000D01*
X20803042Y-4879290D01*
X20788724Y-4877166D01*
X20774683Y-4873649D01*
X20761054Y-4868772D01*
X20747969Y-4862583D01*
X20735553Y-4855142D01*
X20723927Y-4846519D01*
X20713202Y-4836798D01*
X20703481Y-4826073D01*
X20694858Y-4814447D01*
X20687417Y-4802031D01*
X20681228Y-4788946D01*
X20676351Y-4775317D01*
X20672834Y-4761276D01*
X20670710Y-4746958D01*
X20670000Y-4732500D01*
X20670000Y-4387500D01*
X20670710Y-4373042D01*
X20672834Y-4358724D01*
X20676351Y-4344683D01*
X20681228Y-4331054D01*
X20687417Y-4317969D01*
X20694858Y-4305553D01*
X20703481Y-4293927D01*
X20713202Y-4283202D01*
X20723927Y-4273481D01*
X20735553Y-4264858D01*
X20747969Y-4257417D01*
X20761054Y-4251228D01*
X20774683Y-4246351D01*
X20788724Y-4242834D01*
X20803042Y-4240710D01*
X20817500Y-4240000D01*
X21112500Y-4240000D01*
X21126958Y-4240710D01*
X21126958Y-4240710D01*
G37*
D11*
G04 #@! TD*
G04 #@! TO.P,R16,1*
G04 #@! TO.N,/PROC_SO*
X20965000Y-4560000D03*
D10*
G04 #@! TO.N,/2V5_SYS*
G04 #@! TO.C,R3*
G36*
X5731958Y-7205710D02*
X5746276Y-7207834D01*
X5760317Y-7211351D01*
X5773946Y-7216228D01*
X5787031Y-7222417D01*
X5799447Y-7229858D01*
X5811073Y-7238481D01*
X5821798Y-7248202D01*
X5831519Y-7258927D01*
X5840142Y-7270553D01*
X5847583Y-7282969D01*
X5853772Y-7296054D01*
X5858649Y-7309683D01*
X5862166Y-7323724D01*
X5864290Y-7338042D01*
X5865000Y-7352500D01*
X5865000Y-7647500D01*
X5864290Y-7661958D01*
X5862166Y-7676276D01*
X5858649Y-7690317D01*
X5853772Y-7703946D01*
X5847583Y-7717031D01*
X5840142Y-7729447D01*
X5831519Y-7741073D01*
X5821798Y-7751798D01*
X5811073Y-7761519D01*
X5799447Y-7770142D01*
X5787031Y-7777583D01*
X5773946Y-7783772D01*
X5760317Y-7788649D01*
X5746276Y-7792166D01*
X5731958Y-7794290D01*
X5717500Y-7795000D01*
X5372500Y-7795000D01*
X5358042Y-7794290D01*
X5343724Y-7792166D01*
X5329683Y-7788649D01*
X5316054Y-7783772D01*
X5302969Y-7777583D01*
X5290553Y-7770142D01*
X5278927Y-7761519D01*
X5268202Y-7751798D01*
X5258481Y-7741073D01*
X5249858Y-7729447D01*
X5242417Y-7717031D01*
X5236228Y-7703946D01*
X5231351Y-7690317D01*
X5227834Y-7676276D01*
X5225710Y-7661958D01*
X5225000Y-7647500D01*
X5225000Y-7352500D01*
X5225710Y-7338042D01*
X5227834Y-7323724D01*
X5231351Y-7309683D01*
X5236228Y-7296054D01*
X5242417Y-7282969D01*
X5249858Y-7270553D01*
X5258481Y-7258927D01*
X5268202Y-7248202D01*
X5278927Y-7238481D01*
X5290553Y-7229858D01*
X5302969Y-7222417D01*
X5316054Y-7216228D01*
X5329683Y-7211351D01*
X5343724Y-7207834D01*
X5358042Y-7205710D01*
X5372500Y-7205000D01*
X5717500Y-7205000D01*
X5731958Y-7205710D01*
X5731958Y-7205710D01*
G37*
D11*
G04 #@! TD*
G04 #@! TO.P,R3,2*
G04 #@! TO.N,/2V5_SYS*
X5545000Y-7500000D03*
D10*
G04 #@! TO.N,/2V5*
G04 #@! TO.C,R3*
G36*
X5731958Y-6235710D02*
X5746276Y-6237834D01*
X5760317Y-6241351D01*
X5773946Y-6246228D01*
X5787031Y-6252417D01*
X5799447Y-6259858D01*
X5811073Y-6268481D01*
X5821798Y-6278202D01*
X5831519Y-6288927D01*
X5840142Y-6300553D01*
X5847583Y-6312969D01*
X5853772Y-6326054D01*
X5858649Y-6339683D01*
X5862166Y-6353724D01*
X5864290Y-6368042D01*
X5865000Y-6382500D01*
X5865000Y-6677500D01*
X5864290Y-6691958D01*
X5862166Y-6706276D01*
X5858649Y-6720317D01*
X5853772Y-6733946D01*
X5847583Y-6747031D01*
X5840142Y-6759447D01*
X5831519Y-6771073D01*
X5821798Y-6781798D01*
X5811073Y-6791519D01*
X5799447Y-6800142D01*
X5787031Y-6807583D01*
X5773946Y-6813772D01*
X5760317Y-6818649D01*
X5746276Y-6822166D01*
X5731958Y-6824290D01*
X5717500Y-6825000D01*
X5372500Y-6825000D01*
X5358042Y-6824290D01*
X5343724Y-6822166D01*
X5329683Y-6818649D01*
X5316054Y-6813772D01*
X5302969Y-6807583D01*
X5290553Y-6800142D01*
X5278927Y-6791519D01*
X5268202Y-6781798D01*
X5258481Y-6771073D01*
X5249858Y-6759447D01*
X5242417Y-6747031D01*
X5236228Y-6733946D01*
X5231351Y-6720317D01*
X5227834Y-6706276D01*
X5225710Y-6691958D01*
X5225000Y-6677500D01*
X5225000Y-6382500D01*
X5225710Y-6368042D01*
X5227834Y-6353724D01*
X5231351Y-6339683D01*
X5236228Y-6326054D01*
X5242417Y-6312969D01*
X5249858Y-6300553D01*
X5258481Y-6288927D01*
X5268202Y-6278202D01*
X5278927Y-6268481D01*
X5290553Y-6259858D01*
X5302969Y-6252417D01*
X5316054Y-6246228D01*
X5329683Y-6241351D01*
X5343724Y-6237834D01*
X5358042Y-6235710D01*
X5372500Y-6235000D01*
X5717500Y-6235000D01*
X5731958Y-6235710D01*
X5731958Y-6235710D01*
G37*
D11*
G04 #@! TD*
G04 #@! TO.P,R3,1*
G04 #@! TO.N,/2V5*
X5545000Y-6530000D03*
D13*
G04 #@! TO.P,U1,P1*
G04 #@! TO.N,Net-(U1-PadP1)*
X9575000Y-14225000D03*
G04 #@! TO.P,U1,P2*
G04 #@! TO.N,GND*
X10225000Y-14225000D03*
G04 #@! TO.P,U1,P3*
G04 #@! TO.N,/CSI_D2_IN_P*
X10875000Y-14225000D03*
G04 #@! TO.P,U1,P4*
G04 #@! TO.N,/CSI_D2_IN_N*
X11525000Y-14225000D03*
G04 #@! TO.P,U1,P5*
G04 #@! TO.N,/CSI_D3_IN_N*
X12175000Y-14225000D03*
G04 #@! TO.P,U1,P6*
G04 #@! TO.N,/CSI_D4_IN_N*
X12825000Y-14225000D03*
G04 #@! TO.P,U1,P7*
G04 #@! TO.N,/CSI_D4_IN_P*
X13475000Y-14225000D03*
G04 #@! TO.P,U1,P8*
G04 #@! TO.N,Net-(U1-PadP8)*
X14125000Y-14225000D03*
G04 #@! TO.P,U1,P9*
G04 #@! TO.N,/CSI_D4_OUT_N*
X14775000Y-14225000D03*
G04 #@! TO.P,U1,P10*
G04 #@! TO.N,/CSI_D3_OUT_N*
X15425000Y-14225000D03*
G04 #@! TO.P,U1,N7*
G04 #@! TO.N,/3V3_SYS*
X13475000Y-13575000D03*
G04 #@! TO.P,U1,N5*
G04 #@! TO.N,/CSI_D3_IN_P*
X12175000Y-13575000D03*
G04 #@! TO.P,U1,N3*
G04 #@! TO.N,/VDDANA*
X10875000Y-13575000D03*
G04 #@! TO.P,U1,N8*
G04 #@! TO.N,/2V5*
X14125000Y-13575000D03*
G04 #@! TO.P,U1,N4*
G04 #@! TO.N,/1V8*
X11525000Y-13575000D03*
G04 #@! TO.P,U1,N1*
G04 #@! TO.N,Net-(U1-PadN1)*
X9575000Y-13575000D03*
G04 #@! TO.P,U1,N9*
G04 #@! TO.N,/CSI_D4_OUT_P*
X14775000Y-13575000D03*
G04 #@! TO.P,U1,N2*
G04 #@! TO.N,GND*
X10225000Y-13575000D03*
G04 #@! TO.P,U1,N10*
G04 #@! TO.N,/CSI_D3_OUT_P*
X15425000Y-13575000D03*
G04 #@! TO.P,U1,N6*
G04 #@! TO.N,/1V2*
X12825000Y-13575000D03*
G04 #@! TO.P,U1,M7*
G04 #@! TO.N,/LED3_ISINK*
X13475000Y-12925000D03*
G04 #@! TO.P,U1,M5*
G04 #@! TO.N,/LED1_ISINK*
X12175000Y-12925000D03*
G04 #@! TO.P,U1,M3*
G04 #@! TO.N,Net-(U1-PadM3)*
X10875000Y-12925000D03*
G04 #@! TO.P,U1,M8*
G04 #@! TO.N,/TMS*
X14125000Y-12925000D03*
G04 #@! TO.P,U1,M4*
G04 #@! TO.N,/VSENSE*
X11525000Y-12925000D03*
G04 #@! TO.P,U1,M1*
G04 #@! TO.N,GND*
X9575000Y-12925000D03*
G04 #@! TO.P,U1,M9*
G04 #@! TO.N,Net-(U1-PadM9)*
X14775000Y-12925000D03*
G04 #@! TO.P,U1,M2*
G04 #@! TO.N,Net-(U1-PadM2)*
X10225000Y-12925000D03*
G04 #@! TO.P,U1,M10*
G04 #@! TO.N,/1V8_SYS*
X15425000Y-12925000D03*
G04 #@! TO.P,U1,M6*
G04 #@! TO.N,/LED2_ISINK*
X12825000Y-12925000D03*
G04 #@! TO.P,U1,L3*
G04 #@! TO.N,/EXTCLK_EN*
X10875000Y-12275000D03*
G04 #@! TO.P,U1,L8*
G04 #@! TO.N,/TDO*
X14125000Y-12275000D03*
G04 #@! TO.P,U1,L1*
G04 #@! TO.N,/3V3*
X9575000Y-12275000D03*
G04 #@! TO.P,U1,L9*
G04 #@! TO.N,/TDI*
X14775000Y-12275000D03*
G04 #@! TO.P,U1,L2*
G04 #@! TO.N,/PC_RDY*
X10225000Y-12275000D03*
G04 #@! TO.P,U1,L10*
G04 #@! TO.N,/3V3_SYS*
X15425000Y-12275000D03*
G04 #@! TO.P,U1,K9*
G04 #@! TO.N,/TCK*
X14775000Y-11625000D03*
G04 #@! TO.P,U1,K1*
G04 #@! TO.N,/VBATH*
X9575000Y-11625000D03*
G04 #@! TO.P,U1,K10*
G04 #@! TO.N,/CSI_D2_OUT_N*
X15425000Y-11625000D03*
G04 #@! TO.P,U1,K2*
G04 #@! TO.N,/EXT_CLK*
X10225000Y-11625000D03*
G04 #@! TO.P,U1,J9*
G04 #@! TO.N,/I2C_0_SCL*
X14775000Y-10975000D03*
G04 #@! TO.P,U1,J2*
G04 #@! TO.N,/ZIP_EN_L*
X10225000Y-10975000D03*
G04 #@! TO.P,U1,J10*
G04 #@! TO.N,/CSI_D2_OUT_P*
X15425000Y-10975000D03*
G04 #@! TO.P,U1,J1*
G04 #@! TO.N,/PWR_BTN*
X9575000Y-10975000D03*
G04 #@! TO.P,U1,H9*
G04 #@! TO.N,/I2C_0_SDA*
X14775000Y-10325000D03*
G04 #@! TO.P,U1,H2*
G04 #@! TO.N,/CSI_D1_IN_N*
X10225000Y-10325000D03*
G04 #@! TO.P,U1,H10*
G04 #@! TO.N,/CSI_D1_OUT_N*
X15425000Y-10325000D03*
G04 #@! TO.P,U1,H1*
G04 #@! TO.N,/CSI_D1_IN_P*
X9575000Y-10325000D03*
G04 #@! TO.P,U1,G9*
G04 #@! TO.N,/CSI_D2_FP_P*
X14775000Y-9675000D03*
G04 #@! TO.P,U1,G2*
G04 #@! TO.N,/CSI_CLK_IN_P*
X10225000Y-9675000D03*
G04 #@! TO.P,U1,G10*
G04 #@! TO.N,/CSI_D1_OUT_P*
X15425000Y-9675000D03*
G04 #@! TO.P,U1,G1*
G04 #@! TO.N,/CSI_CLK_IN_N*
X9575000Y-9675000D03*
G04 #@! TO.P,U1,F9*
G04 #@! TO.N,/CSI_CLK_OUT_N*
X14775000Y-9025000D03*
G04 #@! TO.P,U1,F2*
G04 #@! TO.N,/CTRL_SO*
X10225000Y-9025000D03*
G04 #@! TO.P,U1,F10*
G04 #@! TO.N,/CSI_D2_FP_N*
X15425000Y-9025000D03*
G04 #@! TO.P,U1,F1*
G04 #@! TO.N,/CTRL_SI*
X9575000Y-9025000D03*
G04 #@! TO.P,U1,E9*
G04 #@! TO.N,/CSI_OE*
X14775000Y-8375000D03*
G04 #@! TO.P,U1,E2*
G04 #@! TO.N,/CTRL_SCK*
X10225000Y-8375000D03*
G04 #@! TO.P,U1,E10*
G04 #@! TO.N,/CSI_CLK_OUT_P*
X15425000Y-8375000D03*
G04 #@! TO.P,U1,E1*
G04 #@! TO.N,/1V2_SYS_A*
X9575000Y-8375000D03*
G04 #@! TO.P,U1,D8*
G04 #@! TO.N,Net-(U1-PadD8)*
X14125000Y-7725000D03*
G04 #@! TO.P,U1,D3*
G04 #@! TO.N,/ULPM_WAKE*
X10875000Y-7725000D03*
G04 #@! TO.P,U1,D9*
G04 #@! TO.N,/PIO3*
X14775000Y-7725000D03*
G04 #@! TO.P,U1,D1*
G04 #@! TO.N,/2V5_SYS*
X9575000Y-7725000D03*
G04 #@! TO.P,U1,D10*
G04 #@! TO.N,/CSI_CLK_FP_N*
X15425000Y-7725000D03*
G04 #@! TO.P,U1,D2*
G04 #@! TO.N,/CSI_CLK_FP_P*
X10225000Y-7725000D03*
G04 #@! TO.P,U1,C8*
G04 #@! TO.N,/CSI_INT*
X14125000Y-7075000D03*
G04 #@! TO.P,U1,C9*
G04 #@! TO.N,/CSI_D1_FP_P*
X14775000Y-7075000D03*
G04 #@! TO.P,U1,B4*
G04 #@! TO.N,/CTRL_OUT*
X11525000Y-6425000D03*
G04 #@! TO.P,U1,A7*
G04 #@! TO.N,/USB_D_N*
X13475000Y-5775000D03*
G04 #@! TO.P,U1,B7*
G04 #@! TO.N,/USB_D_P*
X13475000Y-6425000D03*
G04 #@! TO.P,U1,B9*
G04 #@! TO.N,/DBG_TX*
X14775000Y-6425000D03*
G04 #@! TO.P,U1,C2*
G04 #@! TO.N,/VPLL_A*
X10225000Y-7075000D03*
G04 #@! TO.P,U1,C10*
G04 #@! TO.N,/CSI_D1_FP_N*
X15425000Y-7075000D03*
G04 #@! TO.P,U1,C5*
G04 #@! TO.N,/PROC_SCK*
X12175000Y-7075000D03*
G04 #@! TO.P,U1,C7*
G04 #@! TO.N,/MIPI_SEL*
X13475000Y-7075000D03*
G04 #@! TO.P,U1,C6*
G04 #@! TO.N,/PROC_SI*
X12825000Y-7075000D03*
G04 #@! TO.P,U1,B2*
G04 #@! TO.N,/PROC_OUT_0*
X10225000Y-6425000D03*
G04 #@! TO.P,U1,A2*
G04 #@! TO.N,/PROC_OUT_1*
X10225000Y-5775000D03*
G04 #@! TO.P,U1,A9*
G04 #@! TO.N,/I2C_1_SDA*
X14775000Y-5775000D03*
G04 #@! TO.P,U1,A1*
G04 #@! TO.N,/PROC_OUT_2*
X9575000Y-5775000D03*
G04 #@! TO.P,U1,A4*
G04 #@! TO.N,/USB_DET*
X11525000Y-5775000D03*
G04 #@! TO.P,U1,C1*
G04 #@! TO.N,/CTRL_SS*
X9575000Y-7075000D03*
G04 #@! TO.P,U1,C3*
G04 #@! TO.N,/PIO1*
X10875000Y-7075000D03*
G04 #@! TO.P,U1,C4*
G04 #@! TO.N,/CTRL_RST*
X11525000Y-7075000D03*
G04 #@! TO.P,U1,A6*
G04 #@! TO.N,/VPLL_B*
X12825000Y-5775000D03*
G04 #@! TO.P,U1,A10*
G04 #@! TO.N,/I2C_1_SCL*
X15425000Y-5775000D03*
G04 #@! TO.P,U1,A5*
G04 #@! TO.N,/1V2_SYS_B*
X12175000Y-5775000D03*
G04 #@! TO.P,U1,B8*
G04 #@! TO.N,/DONE*
X14125000Y-6425000D03*
G04 #@! TO.P,U1,A8*
G04 #@! TO.N,/DBG_RX*
X14125000Y-5775000D03*
G04 #@! TO.P,U1,A3*
G04 #@! TO.N,/PIO2*
X10875000Y-5775000D03*
G04 #@! TO.P,U1,B6*
G04 #@! TO.N,/PROC_SS*
X12825000Y-6425000D03*
G04 #@! TO.P,U1,B3*
G04 #@! TO.N,/PROC_RST*
X10875000Y-6425000D03*
G04 #@! TO.P,U1,B10*
G04 #@! TO.N,/SYS_CLK*
X15425000Y-6425000D03*
G04 #@! TO.P,U1,B5*
G04 #@! TO.N,/PROC_SO*
X12175000Y-6425000D03*
G04 #@! TO.P,U1,B1*
G04 #@! TO.N,/3V3_SYS*
X9575000Y-6425000D03*
D14*
G04 #@! TO.P,U1,EP*
G04 #@! TO.N,GND*
X12500000Y-10000000D03*
G04 #@! TD*
D10*
G04 #@! TO.N,/1V2_SYS*
G04 #@! TO.C,R4*
G36*
X13246958Y-17280710D02*
X13261276Y-17282834D01*
X13275317Y-17286351D01*
X13288946Y-17291228D01*
X13302031Y-17297417D01*
X13314447Y-17304858D01*
X13326073Y-17313481D01*
X13336798Y-17323202D01*
X13346519Y-17333927D01*
X13355142Y-17345553D01*
X13362583Y-17357969D01*
X13368772Y-17371054D01*
X13373649Y-17384683D01*
X13377166Y-17398724D01*
X13379290Y-17413042D01*
X13380000Y-17427500D01*
X13380000Y-17722500D01*
X13379290Y-17736958D01*
X13377166Y-17751276D01*
X13373649Y-17765317D01*
X13368772Y-17778946D01*
X13362583Y-17792031D01*
X13355142Y-17804447D01*
X13346519Y-17816073D01*
X13336798Y-17826798D01*
X13326073Y-17836519D01*
X13314447Y-17845142D01*
X13302031Y-17852583D01*
X13288946Y-17858772D01*
X13275317Y-17863649D01*
X13261276Y-17867166D01*
X13246958Y-17869290D01*
X13232500Y-17870000D01*
X12887500Y-17870000D01*
X12873042Y-17869290D01*
X12858724Y-17867166D01*
X12844683Y-17863649D01*
X12831054Y-17858772D01*
X12817969Y-17852583D01*
X12805553Y-17845142D01*
X12793927Y-17836519D01*
X12783202Y-17826798D01*
X12773481Y-17816073D01*
X12764858Y-17804447D01*
X12757417Y-17792031D01*
X12751228Y-17778946D01*
X12746351Y-17765317D01*
X12742834Y-17751276D01*
X12740710Y-17736958D01*
X12740000Y-17722500D01*
X12740000Y-17427500D01*
X12740710Y-17413042D01*
X12742834Y-17398724D01*
X12746351Y-17384683D01*
X12751228Y-17371054D01*
X12757417Y-17357969D01*
X12764858Y-17345553D01*
X12773481Y-17333927D01*
X12783202Y-17323202D01*
X12793927Y-17313481D01*
X12805553Y-17304858D01*
X12817969Y-17297417D01*
X12831054Y-17291228D01*
X12844683Y-17286351D01*
X12858724Y-17282834D01*
X12873042Y-17280710D01*
X12887500Y-17280000D01*
X13232500Y-17280000D01*
X13246958Y-17280710D01*
X13246958Y-17280710D01*
G37*
D11*
G04 #@! TD*
G04 #@! TO.P,R4,2*
G04 #@! TO.N,/1V2_SYS*
X13060000Y-17575000D03*
D10*
G04 #@! TO.N,/1V2*
G04 #@! TO.C,R4*
G36*
X13246958Y-16310710D02*
X13261276Y-16312834D01*
X13275317Y-16316351D01*
X13288946Y-16321228D01*
X13302031Y-16327417D01*
X13314447Y-16334858D01*
X13326073Y-16343481D01*
X13336798Y-16353202D01*
X13346519Y-16363927D01*
X13355142Y-16375553D01*
X13362583Y-16387969D01*
X13368772Y-16401054D01*
X13373649Y-16414683D01*
X13377166Y-16428724D01*
X13379290Y-16443042D01*
X13380000Y-16457500D01*
X13380000Y-16752500D01*
X13379290Y-16766958D01*
X13377166Y-16781276D01*
X13373649Y-16795317D01*
X13368772Y-16808946D01*
X13362583Y-16822031D01*
X13355142Y-16834447D01*
X13346519Y-16846073D01*
X13336798Y-16856798D01*
X13326073Y-16866519D01*
X13314447Y-16875142D01*
X13302031Y-16882583D01*
X13288946Y-16888772D01*
X13275317Y-16893649D01*
X13261276Y-16897166D01*
X13246958Y-16899290D01*
X13232500Y-16900000D01*
X12887500Y-16900000D01*
X12873042Y-16899290D01*
X12858724Y-16897166D01*
X12844683Y-16893649D01*
X12831054Y-16888772D01*
X12817969Y-16882583D01*
X12805553Y-16875142D01*
X12793927Y-16866519D01*
X12783202Y-16856798D01*
X12773481Y-16846073D01*
X12764858Y-16834447D01*
X12757417Y-16822031D01*
X12751228Y-16808946D01*
X12746351Y-16795317D01*
X12742834Y-16781276D01*
X12740710Y-16766958D01*
X12740000Y-16752500D01*
X12740000Y-16457500D01*
X12740710Y-16443042D01*
X12742834Y-16428724D01*
X12746351Y-16414683D01*
X12751228Y-16401054D01*
X12757417Y-16387969D01*
X12764858Y-16375553D01*
X12773481Y-16363927D01*
X12783202Y-16353202D01*
X12793927Y-16343481D01*
X12805553Y-16334858D01*
X12817969Y-16327417D01*
X12831054Y-16321228D01*
X12844683Y-16316351D01*
X12858724Y-16312834D01*
X12873042Y-16310710D01*
X12887500Y-16310000D01*
X13232500Y-16310000D01*
X13246958Y-16310710D01*
X13246958Y-16310710D01*
G37*
D11*
G04 #@! TD*
G04 #@! TO.P,R4,1*
G04 #@! TO.N,/1V2*
X13060000Y-16605000D03*
D10*
G04 #@! TO.N,GND*
G04 #@! TO.C,C8*
G36*
X11936958Y-2270710D02*
X11951276Y-2272834D01*
X11965317Y-2276351D01*
X11978946Y-2281228D01*
X11992031Y-2287417D01*
X12004447Y-2294858D01*
X12016073Y-2303481D01*
X12026798Y-2313202D01*
X12036519Y-2323927D01*
X12045142Y-2335553D01*
X12052583Y-2347969D01*
X12058772Y-2361054D01*
X12063649Y-2374683D01*
X12067166Y-2388724D01*
X12069290Y-2403042D01*
X12070000Y-2417500D01*
X12070000Y-2712500D01*
X12069290Y-2726958D01*
X12067166Y-2741276D01*
X12063649Y-2755317D01*
X12058772Y-2768946D01*
X12052583Y-2782031D01*
X12045142Y-2794447D01*
X12036519Y-2806073D01*
X12026798Y-2816798D01*
X12016073Y-2826519D01*
X12004447Y-2835142D01*
X11992031Y-2842583D01*
X11978946Y-2848772D01*
X11965317Y-2853649D01*
X11951276Y-2857166D01*
X11936958Y-2859290D01*
X11922500Y-2860000D01*
X11577500Y-2860000D01*
X11563042Y-2859290D01*
X11548724Y-2857166D01*
X11534683Y-2853649D01*
X11521054Y-2848772D01*
X11507969Y-2842583D01*
X11495553Y-2835142D01*
X11483927Y-2826519D01*
X11473202Y-2816798D01*
X11463481Y-2806073D01*
X11454858Y-2794447D01*
X11447417Y-2782031D01*
X11441228Y-2768946D01*
X11436351Y-2755317D01*
X11432834Y-2741276D01*
X11430710Y-2726958D01*
X11430000Y-2712500D01*
X11430000Y-2417500D01*
X11430710Y-2403042D01*
X11432834Y-2388724D01*
X11436351Y-2374683D01*
X11441228Y-2361054D01*
X11447417Y-2347969D01*
X11454858Y-2335553D01*
X11463481Y-2323927D01*
X11473202Y-2313202D01*
X11483927Y-2303481D01*
X11495553Y-2294858D01*
X11507969Y-2287417D01*
X11521054Y-2281228D01*
X11534683Y-2276351D01*
X11548724Y-2272834D01*
X11563042Y-2270710D01*
X11577500Y-2270000D01*
X11922500Y-2270000D01*
X11936958Y-2270710D01*
X11936958Y-2270710D01*
G37*
D11*
G04 #@! TD*
G04 #@! TO.P,C8,2*
G04 #@! TO.N,GND*
X11750000Y-2565000D03*
D10*
G04 #@! TO.N,/1V2_SYS_B*
G04 #@! TO.C,C8*
G36*
X11936958Y-3240710D02*
X11951276Y-3242834D01*
X11965317Y-3246351D01*
X11978946Y-3251228D01*
X11992031Y-3257417D01*
X12004447Y-3264858D01*
X12016073Y-3273481D01*
X12026798Y-3283202D01*
X12036519Y-3293927D01*
X12045142Y-3305553D01*
X12052583Y-3317969D01*
X12058772Y-3331054D01*
X12063649Y-3344683D01*
X12067166Y-3358724D01*
X12069290Y-3373042D01*
X12070000Y-3387500D01*
X12070000Y-3682500D01*
X12069290Y-3696958D01*
X12067166Y-3711276D01*
X12063649Y-3725317D01*
X12058772Y-3738946D01*
X12052583Y-3752031D01*
X12045142Y-3764447D01*
X12036519Y-3776073D01*
X12026798Y-3786798D01*
X12016073Y-3796519D01*
X12004447Y-3805142D01*
X11992031Y-3812583D01*
X11978946Y-3818772D01*
X11965317Y-3823649D01*
X11951276Y-3827166D01*
X11936958Y-3829290D01*
X11922500Y-3830000D01*
X11577500Y-3830000D01*
X11563042Y-3829290D01*
X11548724Y-3827166D01*
X11534683Y-3823649D01*
X11521054Y-3818772D01*
X11507969Y-3812583D01*
X11495553Y-3805142D01*
X11483927Y-3796519D01*
X11473202Y-3786798D01*
X11463481Y-3776073D01*
X11454858Y-3764447D01*
X11447417Y-3752031D01*
X11441228Y-3738946D01*
X11436351Y-3725317D01*
X11432834Y-3711276D01*
X11430710Y-3696958D01*
X11430000Y-3682500D01*
X11430000Y-3387500D01*
X11430710Y-3373042D01*
X11432834Y-3358724D01*
X11436351Y-3344683D01*
X11441228Y-3331054D01*
X11447417Y-3317969D01*
X11454858Y-3305553D01*
X11463481Y-3293927D01*
X11473202Y-3283202D01*
X11483927Y-3273481D01*
X11495553Y-3264858D01*
X11507969Y-3257417D01*
X11521054Y-3251228D01*
X11534683Y-3246351D01*
X11548724Y-3242834D01*
X11563042Y-3240710D01*
X11577500Y-3240000D01*
X11922500Y-3240000D01*
X11936958Y-3240710D01*
X11936958Y-3240710D01*
G37*
D11*
G04 #@! TD*
G04 #@! TO.P,C8,1*
G04 #@! TO.N,/1V2_SYS_B*
X11750000Y-3535000D03*
D10*
G04 #@! TO.N,GND*
G04 #@! TO.C,C7*
G36*
X6731958Y-6235710D02*
X6746276Y-6237834D01*
X6760317Y-6241351D01*
X6773946Y-6246228D01*
X6787031Y-6252417D01*
X6799447Y-6259858D01*
X6811073Y-6268481D01*
X6821798Y-6278202D01*
X6831519Y-6288927D01*
X6840142Y-6300553D01*
X6847583Y-6312969D01*
X6853772Y-6326054D01*
X6858649Y-6339683D01*
X6862166Y-6353724D01*
X6864290Y-6368042D01*
X6865000Y-6382500D01*
X6865000Y-6677500D01*
X6864290Y-6691958D01*
X6862166Y-6706276D01*
X6858649Y-6720317D01*
X6853772Y-6733946D01*
X6847583Y-6747031D01*
X6840142Y-6759447D01*
X6831519Y-6771073D01*
X6821798Y-6781798D01*
X6811073Y-6791519D01*
X6799447Y-6800142D01*
X6787031Y-6807583D01*
X6773946Y-6813772D01*
X6760317Y-6818649D01*
X6746276Y-6822166D01*
X6731958Y-6824290D01*
X6717500Y-6825000D01*
X6372500Y-6825000D01*
X6358042Y-6824290D01*
X6343724Y-6822166D01*
X6329683Y-6818649D01*
X6316054Y-6813772D01*
X6302969Y-6807583D01*
X6290553Y-6800142D01*
X6278927Y-6791519D01*
X6268202Y-6781798D01*
X6258481Y-6771073D01*
X6249858Y-6759447D01*
X6242417Y-6747031D01*
X6236228Y-6733946D01*
X6231351Y-6720317D01*
X6227834Y-6706276D01*
X6225710Y-6691958D01*
X6225000Y-6677500D01*
X6225000Y-6382500D01*
X6225710Y-6368042D01*
X6227834Y-6353724D01*
X6231351Y-6339683D01*
X6236228Y-6326054D01*
X6242417Y-6312969D01*
X6249858Y-6300553D01*
X6258481Y-6288927D01*
X6268202Y-6278202D01*
X6278927Y-6268481D01*
X6290553Y-6259858D01*
X6302969Y-6252417D01*
X6316054Y-6246228D01*
X6329683Y-6241351D01*
X6343724Y-6237834D01*
X6358042Y-6235710D01*
X6372500Y-6235000D01*
X6717500Y-6235000D01*
X6731958Y-6235710D01*
X6731958Y-6235710D01*
G37*
D11*
G04 #@! TD*
G04 #@! TO.P,C7,2*
G04 #@! TO.N,GND*
X6545000Y-6530000D03*
D10*
G04 #@! TO.N,/2V5_SYS*
G04 #@! TO.C,C7*
G36*
X6731958Y-7205710D02*
X6746276Y-7207834D01*
X6760317Y-7211351D01*
X6773946Y-7216228D01*
X6787031Y-7222417D01*
X6799447Y-7229858D01*
X6811073Y-7238481D01*
X6821798Y-7248202D01*
X6831519Y-7258927D01*
X6840142Y-7270553D01*
X6847583Y-7282969D01*
X6853772Y-7296054D01*
X6858649Y-7309683D01*
X6862166Y-7323724D01*
X6864290Y-7338042D01*
X6865000Y-7352500D01*
X6865000Y-7647500D01*
X6864290Y-7661958D01*
X6862166Y-7676276D01*
X6858649Y-7690317D01*
X6853772Y-7703946D01*
X6847583Y-7717031D01*
X6840142Y-7729447D01*
X6831519Y-7741073D01*
X6821798Y-7751798D01*
X6811073Y-7761519D01*
X6799447Y-7770142D01*
X6787031Y-7777583D01*
X6773946Y-7783772D01*
X6760317Y-7788649D01*
X6746276Y-7792166D01*
X6731958Y-7794290D01*
X6717500Y-7795000D01*
X6372500Y-7795000D01*
X6358042Y-7794290D01*
X6343724Y-7792166D01*
X6329683Y-7788649D01*
X6316054Y-7783772D01*
X6302969Y-7777583D01*
X6290553Y-7770142D01*
X6278927Y-7761519D01*
X6268202Y-7751798D01*
X6258481Y-7741073D01*
X6249858Y-7729447D01*
X6242417Y-7717031D01*
X6236228Y-7703946D01*
X6231351Y-7690317D01*
X6227834Y-7676276D01*
X6225710Y-7661958D01*
X6225000Y-7647500D01*
X6225000Y-7352500D01*
X6225710Y-7338042D01*
X6227834Y-7323724D01*
X6231351Y-7309683D01*
X6236228Y-7296054D01*
X6242417Y-7282969D01*
X6249858Y-7270553D01*
X6258481Y-7258927D01*
X6268202Y-7248202D01*
X6278927Y-7238481D01*
X6290553Y-7229858D01*
X6302969Y-7222417D01*
X6316054Y-7216228D01*
X6329683Y-7211351D01*
X6343724Y-7207834D01*
X6358042Y-7205710D01*
X6372500Y-7205000D01*
X6717500Y-7205000D01*
X6731958Y-7205710D01*
X6731958Y-7205710D01*
G37*
D11*
G04 #@! TD*
G04 #@! TO.P,C7,1*
G04 #@! TO.N,/2V5_SYS*
X6545000Y-7500000D03*
D10*
G04 #@! TO.N,GND*
G04 #@! TO.C,C6*
G36*
X18036958Y-14330710D02*
X18051276Y-14332834D01*
X18065317Y-14336351D01*
X18078946Y-14341228D01*
X18092031Y-14347417D01*
X18104447Y-14354858D01*
X18116073Y-14363481D01*
X18126798Y-14373202D01*
X18136519Y-14383927D01*
X18145142Y-14395553D01*
X18152583Y-14407969D01*
X18158772Y-14421054D01*
X18163649Y-14434683D01*
X18167166Y-14448724D01*
X18169290Y-14463042D01*
X18170000Y-14477500D01*
X18170000Y-14772500D01*
X18169290Y-14786958D01*
X18167166Y-14801276D01*
X18163649Y-14815317D01*
X18158772Y-14828946D01*
X18152583Y-14842031D01*
X18145142Y-14854447D01*
X18136519Y-14866073D01*
X18126798Y-14876798D01*
X18116073Y-14886519D01*
X18104447Y-14895142D01*
X18092031Y-14902583D01*
X18078946Y-14908772D01*
X18065317Y-14913649D01*
X18051276Y-14917166D01*
X18036958Y-14919290D01*
X18022500Y-14920000D01*
X17677500Y-14920000D01*
X17663042Y-14919290D01*
X17648724Y-14917166D01*
X17634683Y-14913649D01*
X17621054Y-14908772D01*
X17607969Y-14902583D01*
X17595553Y-14895142D01*
X17583927Y-14886519D01*
X17573202Y-14876798D01*
X17563481Y-14866073D01*
X17554858Y-14854447D01*
X17547417Y-14842031D01*
X17541228Y-14828946D01*
X17536351Y-14815317D01*
X17532834Y-14801276D01*
X17530710Y-14786958D01*
X17530000Y-14772500D01*
X17530000Y-14477500D01*
X17530710Y-14463042D01*
X17532834Y-14448724D01*
X17536351Y-14434683D01*
X17541228Y-14421054D01*
X17547417Y-14407969D01*
X17554858Y-14395553D01*
X17563481Y-14383927D01*
X17573202Y-14373202D01*
X17583927Y-14363481D01*
X17595553Y-14354858D01*
X17607969Y-14347417D01*
X17621054Y-14341228D01*
X17634683Y-14336351D01*
X17648724Y-14332834D01*
X17663042Y-14330710D01*
X17677500Y-14330000D01*
X18022500Y-14330000D01*
X18036958Y-14330710D01*
X18036958Y-14330710D01*
G37*
D11*
G04 #@! TD*
G04 #@! TO.P,C6,2*
G04 #@! TO.N,GND*
X17850000Y-14625000D03*
D10*
G04 #@! TO.N,/1V8_SYS*
G04 #@! TO.C,C6*
G36*
X18036958Y-13360710D02*
X18051276Y-13362834D01*
X18065317Y-13366351D01*
X18078946Y-13371228D01*
X18092031Y-13377417D01*
X18104447Y-13384858D01*
X18116073Y-13393481D01*
X18126798Y-13403202D01*
X18136519Y-13413927D01*
X18145142Y-13425553D01*
X18152583Y-13437969D01*
X18158772Y-13451054D01*
X18163649Y-13464683D01*
X18167166Y-13478724D01*
X18169290Y-13493042D01*
X18170000Y-13507500D01*
X18170000Y-13802500D01*
X18169290Y-13816958D01*
X18167166Y-13831276D01*
X18163649Y-13845317D01*
X18158772Y-13858946D01*
X18152583Y-13872031D01*
X18145142Y-13884447D01*
X18136519Y-13896073D01*
X18126798Y-13906798D01*
X18116073Y-13916519D01*
X18104447Y-13925142D01*
X18092031Y-13932583D01*
X18078946Y-13938772D01*
X18065317Y-13943649D01*
X18051276Y-13947166D01*
X18036958Y-13949290D01*
X18022500Y-13950000D01*
X17677500Y-13950000D01*
X17663042Y-13949290D01*
X17648724Y-13947166D01*
X17634683Y-13943649D01*
X17621054Y-13938772D01*
X17607969Y-13932583D01*
X17595553Y-13925142D01*
X17583927Y-13916519D01*
X17573202Y-13906798D01*
X17563481Y-13896073D01*
X17554858Y-13884447D01*
X17547417Y-13872031D01*
X17541228Y-13858946D01*
X17536351Y-13845317D01*
X17532834Y-13831276D01*
X17530710Y-13816958D01*
X17530000Y-13802500D01*
X17530000Y-13507500D01*
X17530710Y-13493042D01*
X17532834Y-13478724D01*
X17536351Y-13464683D01*
X17541228Y-13451054D01*
X17547417Y-13437969D01*
X17554858Y-13425553D01*
X17563481Y-13413927D01*
X17573202Y-13403202D01*
X17583927Y-13393481D01*
X17595553Y-13384858D01*
X17607969Y-13377417D01*
X17621054Y-13371228D01*
X17634683Y-13366351D01*
X17648724Y-13362834D01*
X17663042Y-13360710D01*
X17677500Y-13360000D01*
X18022500Y-13360000D01*
X18036958Y-13360710D01*
X18036958Y-13360710D01*
G37*
D11*
G04 #@! TD*
G04 #@! TO.P,C6,1*
G04 #@! TO.N,/1V8_SYS*
X17850000Y-13655000D03*
D10*
G04 #@! TO.N,GND*
G04 #@! TO.C,C5*
G36*
X17586958Y-11280710D02*
X17601276Y-11282834D01*
X17615317Y-11286351D01*
X17628946Y-11291228D01*
X17642031Y-11297417D01*
X17654447Y-11304858D01*
X17666073Y-11313481D01*
X17676798Y-11323202D01*
X17686519Y-11333927D01*
X17695142Y-11345553D01*
X17702583Y-11357969D01*
X17708772Y-11371054D01*
X17713649Y-11384683D01*
X17717166Y-11398724D01*
X17719290Y-11413042D01*
X17720000Y-11427500D01*
X17720000Y-11722500D01*
X17719290Y-11736958D01*
X17717166Y-11751276D01*
X17713649Y-11765317D01*
X17708772Y-11778946D01*
X17702583Y-11792031D01*
X17695142Y-11804447D01*
X17686519Y-11816073D01*
X17676798Y-11826798D01*
X17666073Y-11836519D01*
X17654447Y-11845142D01*
X17642031Y-11852583D01*
X17628946Y-11858772D01*
X17615317Y-11863649D01*
X17601276Y-11867166D01*
X17586958Y-11869290D01*
X17572500Y-11870000D01*
X17227500Y-11870000D01*
X17213042Y-11869290D01*
X17198724Y-11867166D01*
X17184683Y-11863649D01*
X17171054Y-11858772D01*
X17157969Y-11852583D01*
X17145553Y-11845142D01*
X17133927Y-11836519D01*
X17123202Y-11826798D01*
X17113481Y-11816073D01*
X17104858Y-11804447D01*
X17097417Y-11792031D01*
X17091228Y-11778946D01*
X17086351Y-11765317D01*
X17082834Y-11751276D01*
X17080710Y-11736958D01*
X17080000Y-11722500D01*
X17080000Y-11427500D01*
X17080710Y-11413042D01*
X17082834Y-11398724D01*
X17086351Y-11384683D01*
X17091228Y-11371054D01*
X17097417Y-11357969D01*
X17104858Y-11345553D01*
X17113481Y-11333927D01*
X17123202Y-11323202D01*
X17133927Y-11313481D01*
X17145553Y-11304858D01*
X17157969Y-11297417D01*
X17171054Y-11291228D01*
X17184683Y-11286351D01*
X17198724Y-11282834D01*
X17213042Y-11280710D01*
X17227500Y-11280000D01*
X17572500Y-11280000D01*
X17586958Y-11280710D01*
X17586958Y-11280710D01*
G37*
D11*
G04 #@! TD*
G04 #@! TO.P,C5,2*
G04 #@! TO.N,GND*
X17400000Y-11575000D03*
D10*
G04 #@! TO.N,/3V3_SYS*
G04 #@! TO.C,C5*
G36*
X17586958Y-12250710D02*
X17601276Y-12252834D01*
X17615317Y-12256351D01*
X17628946Y-12261228D01*
X17642031Y-12267417D01*
X17654447Y-12274858D01*
X17666073Y-12283481D01*
X17676798Y-12293202D01*
X17686519Y-12303927D01*
X17695142Y-12315553D01*
X17702583Y-12327969D01*
X17708772Y-12341054D01*
X17713649Y-12354683D01*
X17717166Y-12368724D01*
X17719290Y-12383042D01*
X17720000Y-12397500D01*
X17720000Y-12692500D01*
X17719290Y-12706958D01*
X17717166Y-12721276D01*
X17713649Y-12735317D01*
X17708772Y-12748946D01*
X17702583Y-12762031D01*
X17695142Y-12774447D01*
X17686519Y-12786073D01*
X17676798Y-12796798D01*
X17666073Y-12806519D01*
X17654447Y-12815142D01*
X17642031Y-12822583D01*
X17628946Y-12828772D01*
X17615317Y-12833649D01*
X17601276Y-12837166D01*
X17586958Y-12839290D01*
X17572500Y-12840000D01*
X17227500Y-12840000D01*
X17213042Y-12839290D01*
X17198724Y-12837166D01*
X17184683Y-12833649D01*
X17171054Y-12828772D01*
X17157969Y-12822583D01*
X17145553Y-12815142D01*
X17133927Y-12806519D01*
X17123202Y-12796798D01*
X17113481Y-12786073D01*
X17104858Y-12774447D01*
X17097417Y-12762031D01*
X17091228Y-12748946D01*
X17086351Y-12735317D01*
X17082834Y-12721276D01*
X17080710Y-12706958D01*
X17080000Y-12692500D01*
X17080000Y-12397500D01*
X17080710Y-12383042D01*
X17082834Y-12368724D01*
X17086351Y-12354683D01*
X17091228Y-12341054D01*
X17097417Y-12327969D01*
X17104858Y-12315553D01*
X17113481Y-12303927D01*
X17123202Y-12293202D01*
X17133927Y-12283481D01*
X17145553Y-12274858D01*
X17157969Y-12267417D01*
X17171054Y-12261228D01*
X17184683Y-12256351D01*
X17198724Y-12252834D01*
X17213042Y-12250710D01*
X17227500Y-12250000D01*
X17572500Y-12250000D01*
X17586958Y-12250710D01*
X17586958Y-12250710D01*
G37*
D11*
G04 #@! TD*
G04 #@! TO.P,C5,1*
G04 #@! TO.N,/3V3_SYS*
X17400000Y-12545000D03*
D10*
G04 #@! TO.N,GND*
G04 #@! TO.C,C4*
G36*
X12036958Y-18800710D02*
X12051276Y-18802834D01*
X12065317Y-18806351D01*
X12078946Y-18811228D01*
X12092031Y-18817417D01*
X12104447Y-18824858D01*
X12116073Y-18833481D01*
X12126798Y-18843202D01*
X12136519Y-18853927D01*
X12145142Y-18865553D01*
X12152583Y-18877969D01*
X12158772Y-18891054D01*
X12163649Y-18904683D01*
X12167166Y-18918724D01*
X12169290Y-18933042D01*
X12170000Y-18947500D01*
X12170000Y-19242500D01*
X12169290Y-19256958D01*
X12167166Y-19271276D01*
X12163649Y-19285317D01*
X12158772Y-19298946D01*
X12152583Y-19312031D01*
X12145142Y-19324447D01*
X12136519Y-19336073D01*
X12126798Y-19346798D01*
X12116073Y-19356519D01*
X12104447Y-19365142D01*
X12092031Y-19372583D01*
X12078946Y-19378772D01*
X12065317Y-19383649D01*
X12051276Y-19387166D01*
X12036958Y-19389290D01*
X12022500Y-19390000D01*
X11677500Y-19390000D01*
X11663042Y-19389290D01*
X11648724Y-19387166D01*
X11634683Y-19383649D01*
X11621054Y-19378772D01*
X11607969Y-19372583D01*
X11595553Y-19365142D01*
X11583927Y-19356519D01*
X11573202Y-19346798D01*
X11563481Y-19336073D01*
X11554858Y-19324447D01*
X11547417Y-19312031D01*
X11541228Y-19298946D01*
X11536351Y-19285317D01*
X11532834Y-19271276D01*
X11530710Y-19256958D01*
X11530000Y-19242500D01*
X11530000Y-18947500D01*
X11530710Y-18933042D01*
X11532834Y-18918724D01*
X11536351Y-18904683D01*
X11541228Y-18891054D01*
X11547417Y-18877969D01*
X11554858Y-18865553D01*
X11563481Y-18853927D01*
X11573202Y-18843202D01*
X11583927Y-18833481D01*
X11595553Y-18824858D01*
X11607969Y-18817417D01*
X11621054Y-18811228D01*
X11634683Y-18806351D01*
X11648724Y-18802834D01*
X11663042Y-18800710D01*
X11677500Y-18800000D01*
X12022500Y-18800000D01*
X12036958Y-18800710D01*
X12036958Y-18800710D01*
G37*
D11*
G04 #@! TD*
G04 #@! TO.P,C4,2*
G04 #@! TO.N,GND*
X11850000Y-19095000D03*
D10*
G04 #@! TO.N,/1V2_SYS*
G04 #@! TO.C,C4*
G36*
X12036958Y-17830710D02*
X12051276Y-17832834D01*
X12065317Y-17836351D01*
X12078946Y-17841228D01*
X12092031Y-17847417D01*
X12104447Y-17854858D01*
X12116073Y-17863481D01*
X12126798Y-17873202D01*
X12136519Y-17883927D01*
X12145142Y-17895553D01*
X12152583Y-17907969D01*
X12158772Y-17921054D01*
X12163649Y-17934683D01*
X12167166Y-17948724D01*
X12169290Y-17963042D01*
X12170000Y-17977500D01*
X12170000Y-18272500D01*
X12169290Y-18286958D01*
X12167166Y-18301276D01*
X12163649Y-18315317D01*
X12158772Y-18328946D01*
X12152583Y-18342031D01*
X12145142Y-18354447D01*
X12136519Y-18366073D01*
X12126798Y-18376798D01*
X12116073Y-18386519D01*
X12104447Y-18395142D01*
X12092031Y-18402583D01*
X12078946Y-18408772D01*
X12065317Y-18413649D01*
X12051276Y-18417166D01*
X12036958Y-18419290D01*
X12022500Y-18420000D01*
X11677500Y-18420000D01*
X11663042Y-18419290D01*
X11648724Y-18417166D01*
X11634683Y-18413649D01*
X11621054Y-18408772D01*
X11607969Y-18402583D01*
X11595553Y-18395142D01*
X11583927Y-18386519D01*
X11573202Y-18376798D01*
X11563481Y-18366073D01*
X11554858Y-18354447D01*
X11547417Y-18342031D01*
X11541228Y-18328946D01*
X11536351Y-18315317D01*
X11532834Y-18301276D01*
X11530710Y-18286958D01*
X11530000Y-18272500D01*
X11530000Y-17977500D01*
X11530710Y-17963042D01*
X11532834Y-17948724D01*
X11536351Y-17934683D01*
X11541228Y-17921054D01*
X11547417Y-17907969D01*
X11554858Y-17895553D01*
X11563481Y-17883927D01*
X11573202Y-17873202D01*
X11583927Y-17863481D01*
X11595553Y-17854858D01*
X11607969Y-17847417D01*
X11621054Y-17841228D01*
X11634683Y-17836351D01*
X11648724Y-17832834D01*
X11663042Y-17830710D01*
X11677500Y-17830000D01*
X12022500Y-17830000D01*
X12036958Y-17830710D01*
X12036958Y-17830710D01*
G37*
D11*
G04 #@! TD*
G04 #@! TO.P,C4,1*
G04 #@! TO.N,/1V2_SYS*
X11850000Y-18125000D03*
D10*
G04 #@! TO.N,GND*
G04 #@! TO.C,C3*
G36*
X7781958Y-6235710D02*
X7796276Y-6237834D01*
X7810317Y-6241351D01*
X7823946Y-6246228D01*
X7837031Y-6252417D01*
X7849447Y-6259858D01*
X7861073Y-6268481D01*
X7871798Y-6278202D01*
X7881519Y-6288927D01*
X7890142Y-6300553D01*
X7897583Y-6312969D01*
X7903772Y-6326054D01*
X7908649Y-6339683D01*
X7912166Y-6353724D01*
X7914290Y-6368042D01*
X7915000Y-6382500D01*
X7915000Y-6677500D01*
X7914290Y-6691958D01*
X7912166Y-6706276D01*
X7908649Y-6720317D01*
X7903772Y-6733946D01*
X7897583Y-6747031D01*
X7890142Y-6759447D01*
X7881519Y-6771073D01*
X7871798Y-6781798D01*
X7861073Y-6791519D01*
X7849447Y-6800142D01*
X7837031Y-6807583D01*
X7823946Y-6813772D01*
X7810317Y-6818649D01*
X7796276Y-6822166D01*
X7781958Y-6824290D01*
X7767500Y-6825000D01*
X7422500Y-6825000D01*
X7408042Y-6824290D01*
X7393724Y-6822166D01*
X7379683Y-6818649D01*
X7366054Y-6813772D01*
X7352969Y-6807583D01*
X7340553Y-6800142D01*
X7328927Y-6791519D01*
X7318202Y-6781798D01*
X7308481Y-6771073D01*
X7299858Y-6759447D01*
X7292417Y-6747031D01*
X7286228Y-6733946D01*
X7281351Y-6720317D01*
X7277834Y-6706276D01*
X7275710Y-6691958D01*
X7275000Y-6677500D01*
X7275000Y-6382500D01*
X7275710Y-6368042D01*
X7277834Y-6353724D01*
X7281351Y-6339683D01*
X7286228Y-6326054D01*
X7292417Y-6312969D01*
X7299858Y-6300553D01*
X7308481Y-6288927D01*
X7318202Y-6278202D01*
X7328927Y-6268481D01*
X7340553Y-6259858D01*
X7352969Y-6252417D01*
X7366054Y-6246228D01*
X7379683Y-6241351D01*
X7393724Y-6237834D01*
X7408042Y-6235710D01*
X7422500Y-6235000D01*
X7767500Y-6235000D01*
X7781958Y-6235710D01*
X7781958Y-6235710D01*
G37*
D11*
G04 #@! TD*
G04 #@! TO.P,C3,2*
G04 #@! TO.N,GND*
X7595000Y-6530000D03*
D10*
G04 #@! TO.N,/2V5_SYS*
G04 #@! TO.C,C3*
G36*
X7781958Y-7205710D02*
X7796276Y-7207834D01*
X7810317Y-7211351D01*
X7823946Y-7216228D01*
X7837031Y-7222417D01*
X7849447Y-7229858D01*
X7861073Y-7238481D01*
X7871798Y-7248202D01*
X7881519Y-7258927D01*
X7890142Y-7270553D01*
X7897583Y-7282969D01*
X7903772Y-7296054D01*
X7908649Y-7309683D01*
X7912166Y-7323724D01*
X7914290Y-7338042D01*
X7915000Y-7352500D01*
X7915000Y-7647500D01*
X7914290Y-7661958D01*
X7912166Y-7676276D01*
X7908649Y-7690317D01*
X7903772Y-7703946D01*
X7897583Y-7717031D01*
X7890142Y-7729447D01*
X7881519Y-7741073D01*
X7871798Y-7751798D01*
X7861073Y-7761519D01*
X7849447Y-7770142D01*
X7837031Y-7777583D01*
X7823946Y-7783772D01*
X7810317Y-7788649D01*
X7796276Y-7792166D01*
X7781958Y-7794290D01*
X7767500Y-7795000D01*
X7422500Y-7795000D01*
X7408042Y-7794290D01*
X7393724Y-7792166D01*
X7379683Y-7788649D01*
X7366054Y-7783772D01*
X7352969Y-7777583D01*
X7340553Y-7770142D01*
X7328927Y-7761519D01*
X7318202Y-7751798D01*
X7308481Y-7741073D01*
X7299858Y-7729447D01*
X7292417Y-7717031D01*
X7286228Y-7703946D01*
X7281351Y-7690317D01*
X7277834Y-7676276D01*
X7275710Y-7661958D01*
X7275000Y-7647500D01*
X7275000Y-7352500D01*
X7275710Y-7338042D01*
X7277834Y-7323724D01*
X7281351Y-7309683D01*
X7286228Y-7296054D01*
X7292417Y-7282969D01*
X7299858Y-7270553D01*
X7308481Y-7258927D01*
X7318202Y-7248202D01*
X7328927Y-7238481D01*
X7340553Y-7229858D01*
X7352969Y-7222417D01*
X7366054Y-7216228D01*
X7379683Y-7211351D01*
X7393724Y-7207834D01*
X7408042Y-7205710D01*
X7422500Y-7205000D01*
X7767500Y-7205000D01*
X7781958Y-7205710D01*
X7781958Y-7205710D01*
G37*
D11*
G04 #@! TD*
G04 #@! TO.P,C3,1*
G04 #@! TO.N,/2V5_SYS*
X7595000Y-7500000D03*
D10*
G04 #@! TO.N,GND*
G04 #@! TO.C,C2*
G36*
X19086958Y-14330710D02*
X19101276Y-14332834D01*
X19115317Y-14336351D01*
X19128946Y-14341228D01*
X19142031Y-14347417D01*
X19154447Y-14354858D01*
X19166073Y-14363481D01*
X19176798Y-14373202D01*
X19186519Y-14383927D01*
X19195142Y-14395553D01*
X19202583Y-14407969D01*
X19208772Y-14421054D01*
X19213649Y-14434683D01*
X19217166Y-14448724D01*
X19219290Y-14463042D01*
X19220000Y-14477500D01*
X19220000Y-14772500D01*
X19219290Y-14786958D01*
X19217166Y-14801276D01*
X19213649Y-14815317D01*
X19208772Y-14828946D01*
X19202583Y-14842031D01*
X19195142Y-14854447D01*
X19186519Y-14866073D01*
X19176798Y-14876798D01*
X19166073Y-14886519D01*
X19154447Y-14895142D01*
X19142031Y-14902583D01*
X19128946Y-14908772D01*
X19115317Y-14913649D01*
X19101276Y-14917166D01*
X19086958Y-14919290D01*
X19072500Y-14920000D01*
X18727500Y-14920000D01*
X18713042Y-14919290D01*
X18698724Y-14917166D01*
X18684683Y-14913649D01*
X18671054Y-14908772D01*
X18657969Y-14902583D01*
X18645553Y-14895142D01*
X18633927Y-14886519D01*
X18623202Y-14876798D01*
X18613481Y-14866073D01*
X18604858Y-14854447D01*
X18597417Y-14842031D01*
X18591228Y-14828946D01*
X18586351Y-14815317D01*
X18582834Y-14801276D01*
X18580710Y-14786958D01*
X18580000Y-14772500D01*
X18580000Y-14477500D01*
X18580710Y-14463042D01*
X18582834Y-14448724D01*
X18586351Y-14434683D01*
X18591228Y-14421054D01*
X18597417Y-14407969D01*
X18604858Y-14395553D01*
X18613481Y-14383927D01*
X18623202Y-14373202D01*
X18633927Y-14363481D01*
X18645553Y-14354858D01*
X18657969Y-14347417D01*
X18671054Y-14341228D01*
X18684683Y-14336351D01*
X18698724Y-14332834D01*
X18713042Y-14330710D01*
X18727500Y-14330000D01*
X19072500Y-14330000D01*
X19086958Y-14330710D01*
X19086958Y-14330710D01*
G37*
D11*
G04 #@! TD*
G04 #@! TO.P,C2,2*
G04 #@! TO.N,GND*
X18900000Y-14625000D03*
D10*
G04 #@! TO.N,/1V8_SYS*
G04 #@! TO.C,C2*
G36*
X19086958Y-13360710D02*
X19101276Y-13362834D01*
X19115317Y-13366351D01*
X19128946Y-13371228D01*
X19142031Y-13377417D01*
X19154447Y-13384858D01*
X19166073Y-13393481D01*
X19176798Y-13403202D01*
X19186519Y-13413927D01*
X19195142Y-13425553D01*
X19202583Y-13437969D01*
X19208772Y-13451054D01*
X19213649Y-13464683D01*
X19217166Y-13478724D01*
X19219290Y-13493042D01*
X19220000Y-13507500D01*
X19220000Y-13802500D01*
X19219290Y-13816958D01*
X19217166Y-13831276D01*
X19213649Y-13845317D01*
X19208772Y-13858946D01*
X19202583Y-13872031D01*
X19195142Y-13884447D01*
X19186519Y-13896073D01*
X19176798Y-13906798D01*
X19166073Y-13916519D01*
X19154447Y-13925142D01*
X19142031Y-13932583D01*
X19128946Y-13938772D01*
X19115317Y-13943649D01*
X19101276Y-13947166D01*
X19086958Y-13949290D01*
X19072500Y-13950000D01*
X18727500Y-13950000D01*
X18713042Y-13949290D01*
X18698724Y-13947166D01*
X18684683Y-13943649D01*
X18671054Y-13938772D01*
X18657969Y-13932583D01*
X18645553Y-13925142D01*
X18633927Y-13916519D01*
X18623202Y-13906798D01*
X18613481Y-13896073D01*
X18604858Y-13884447D01*
X18597417Y-13872031D01*
X18591228Y-13858946D01*
X18586351Y-13845317D01*
X18582834Y-13831276D01*
X18580710Y-13816958D01*
X18580000Y-13802500D01*
X18580000Y-13507500D01*
X18580710Y-13493042D01*
X18582834Y-13478724D01*
X18586351Y-13464683D01*
X18591228Y-13451054D01*
X18597417Y-13437969D01*
X18604858Y-13425553D01*
X18613481Y-13413927D01*
X18623202Y-13403202D01*
X18633927Y-13393481D01*
X18645553Y-13384858D01*
X18657969Y-13377417D01*
X18671054Y-13371228D01*
X18684683Y-13366351D01*
X18698724Y-13362834D01*
X18713042Y-13360710D01*
X18727500Y-13360000D01*
X19072500Y-13360000D01*
X19086958Y-13360710D01*
X19086958Y-13360710D01*
G37*
D11*
G04 #@! TD*
G04 #@! TO.P,C2,1*
G04 #@! TO.N,/1V8_SYS*
X18900000Y-13655000D03*
D10*
G04 #@! TO.N,GND*
G04 #@! TO.C,C12*
G36*
X13356958Y-2220710D02*
X13371276Y-2222834D01*
X13385317Y-2226351D01*
X13398946Y-2231228D01*
X13412031Y-2237417D01*
X13424447Y-2244858D01*
X13436073Y-2253481D01*
X13446798Y-2263202D01*
X13456519Y-2273927D01*
X13465142Y-2285553D01*
X13472583Y-2297969D01*
X13478772Y-2311054D01*
X13483649Y-2324683D01*
X13487166Y-2338724D01*
X13489290Y-2353042D01*
X13490000Y-2367500D01*
X13490000Y-2662500D01*
X13489290Y-2676958D01*
X13487166Y-2691276D01*
X13483649Y-2705317D01*
X13478772Y-2718946D01*
X13472583Y-2732031D01*
X13465142Y-2744447D01*
X13456519Y-2756073D01*
X13446798Y-2766798D01*
X13436073Y-2776519D01*
X13424447Y-2785142D01*
X13412031Y-2792583D01*
X13398946Y-2798772D01*
X13385317Y-2803649D01*
X13371276Y-2807166D01*
X13356958Y-2809290D01*
X13342500Y-2810000D01*
X12997500Y-2810000D01*
X12983042Y-2809290D01*
X12968724Y-2807166D01*
X12954683Y-2803649D01*
X12941054Y-2798772D01*
X12927969Y-2792583D01*
X12915553Y-2785142D01*
X12903927Y-2776519D01*
X12893202Y-2766798D01*
X12883481Y-2756073D01*
X12874858Y-2744447D01*
X12867417Y-2732031D01*
X12861228Y-2718946D01*
X12856351Y-2705317D01*
X12852834Y-2691276D01*
X12850710Y-2676958D01*
X12850000Y-2662500D01*
X12850000Y-2367500D01*
X12850710Y-2353042D01*
X12852834Y-2338724D01*
X12856351Y-2324683D01*
X12861228Y-2311054D01*
X12867417Y-2297969D01*
X12874858Y-2285553D01*
X12883481Y-2273927D01*
X12893202Y-2263202D01*
X12903927Y-2253481D01*
X12915553Y-2244858D01*
X12927969Y-2237417D01*
X12941054Y-2231228D01*
X12954683Y-2226351D01*
X12968724Y-2222834D01*
X12983042Y-2220710D01*
X12997500Y-2220000D01*
X13342500Y-2220000D01*
X13356958Y-2220710D01*
X13356958Y-2220710D01*
G37*
D11*
G04 #@! TD*
G04 #@! TO.P,C12,2*
G04 #@! TO.N,GND*
X13170000Y-2515000D03*
D10*
G04 #@! TO.N,/VPLL_B*
G04 #@! TO.C,C12*
G36*
X13356958Y-3190710D02*
X13371276Y-3192834D01*
X13385317Y-3196351D01*
X13398946Y-3201228D01*
X13412031Y-3207417D01*
X13424447Y-3214858D01*
X13436073Y-3223481D01*
X13446798Y-3233202D01*
X13456519Y-3243927D01*
X13465142Y-3255553D01*
X13472583Y-3267969D01*
X13478772Y-3281054D01*
X13483649Y-3294683D01*
X13487166Y-3308724D01*
X13489290Y-3323042D01*
X13490000Y-3337500D01*
X13490000Y-3632500D01*
X13489290Y-3646958D01*
X13487166Y-3661276D01*
X13483649Y-3675317D01*
X13478772Y-3688946D01*
X13472583Y-3702031D01*
X13465142Y-3714447D01*
X13456519Y-3726073D01*
X13446798Y-3736798D01*
X13436073Y-3746519D01*
X13424447Y-3755142D01*
X13412031Y-3762583D01*
X13398946Y-3768772D01*
X13385317Y-3773649D01*
X13371276Y-3777166D01*
X13356958Y-3779290D01*
X13342500Y-3780000D01*
X12997500Y-3780000D01*
X12983042Y-3779290D01*
X12968724Y-3777166D01*
X12954683Y-3773649D01*
X12941054Y-3768772D01*
X12927969Y-3762583D01*
X12915553Y-3755142D01*
X12903927Y-3746519D01*
X12893202Y-3736798D01*
X12883481Y-3726073D01*
X12874858Y-3714447D01*
X12867417Y-3702031D01*
X12861228Y-3688946D01*
X12856351Y-3675317D01*
X12852834Y-3661276D01*
X12850710Y-3646958D01*
X12850000Y-3632500D01*
X12850000Y-3337500D01*
X12850710Y-3323042D01*
X12852834Y-3308724D01*
X12856351Y-3294683D01*
X12861228Y-3281054D01*
X12867417Y-3267969D01*
X12874858Y-3255553D01*
X12883481Y-3243927D01*
X12893202Y-3233202D01*
X12903927Y-3223481D01*
X12915553Y-3214858D01*
X12927969Y-3207417D01*
X12941054Y-3201228D01*
X12954683Y-3196351D01*
X12968724Y-3192834D01*
X12983042Y-3190710D01*
X12997500Y-3190000D01*
X13342500Y-3190000D01*
X13356958Y-3190710D01*
X13356958Y-3190710D01*
G37*
D11*
G04 #@! TD*
G04 #@! TO.P,C12,1*
G04 #@! TO.N,/VPLL_B*
X13170000Y-3485000D03*
D10*
G04 #@! TO.N,GND*
G04 #@! TO.C,C13*
G36*
X14366958Y-2220710D02*
X14381276Y-2222834D01*
X14395317Y-2226351D01*
X14408946Y-2231228D01*
X14422031Y-2237417D01*
X14434447Y-2244858D01*
X14446073Y-2253481D01*
X14456798Y-2263202D01*
X14466519Y-2273927D01*
X14475142Y-2285553D01*
X14482583Y-2297969D01*
X14488772Y-2311054D01*
X14493649Y-2324683D01*
X14497166Y-2338724D01*
X14499290Y-2353042D01*
X14500000Y-2367500D01*
X14500000Y-2662500D01*
X14499290Y-2676958D01*
X14497166Y-2691276D01*
X14493649Y-2705317D01*
X14488772Y-2718946D01*
X14482583Y-2732031D01*
X14475142Y-2744447D01*
X14466519Y-2756073D01*
X14456798Y-2766798D01*
X14446073Y-2776519D01*
X14434447Y-2785142D01*
X14422031Y-2792583D01*
X14408946Y-2798772D01*
X14395317Y-2803649D01*
X14381276Y-2807166D01*
X14366958Y-2809290D01*
X14352500Y-2810000D01*
X14007500Y-2810000D01*
X13993042Y-2809290D01*
X13978724Y-2807166D01*
X13964683Y-2803649D01*
X13951054Y-2798772D01*
X13937969Y-2792583D01*
X13925553Y-2785142D01*
X13913927Y-2776519D01*
X13903202Y-2766798D01*
X13893481Y-2756073D01*
X13884858Y-2744447D01*
X13877417Y-2732031D01*
X13871228Y-2718946D01*
X13866351Y-2705317D01*
X13862834Y-2691276D01*
X13860710Y-2676958D01*
X13860000Y-2662500D01*
X13860000Y-2367500D01*
X13860710Y-2353042D01*
X13862834Y-2338724D01*
X13866351Y-2324683D01*
X13871228Y-2311054D01*
X13877417Y-2297969D01*
X13884858Y-2285553D01*
X13893481Y-2273927D01*
X13903202Y-2263202D01*
X13913927Y-2253481D01*
X13925553Y-2244858D01*
X13937969Y-2237417D01*
X13951054Y-2231228D01*
X13964683Y-2226351D01*
X13978724Y-2222834D01*
X13993042Y-2220710D01*
X14007500Y-2220000D01*
X14352500Y-2220000D01*
X14366958Y-2220710D01*
X14366958Y-2220710D01*
G37*
D11*
G04 #@! TD*
G04 #@! TO.P,C13,2*
G04 #@! TO.N,GND*
X14180000Y-2515000D03*
D10*
G04 #@! TO.N,/VPLL_B*
G04 #@! TO.C,C13*
G36*
X14366958Y-3190710D02*
X14381276Y-3192834D01*
X14395317Y-3196351D01*
X14408946Y-3201228D01*
X14422031Y-3207417D01*
X14434447Y-3214858D01*
X14446073Y-3223481D01*
X14456798Y-3233202D01*
X14466519Y-3243927D01*
X14475142Y-3255553D01*
X14482583Y-3267969D01*
X14488772Y-3281054D01*
X14493649Y-3294683D01*
X14497166Y-3308724D01*
X14499290Y-3323042D01*
X14500000Y-3337500D01*
X14500000Y-3632500D01*
X14499290Y-3646958D01*
X14497166Y-3661276D01*
X14493649Y-3675317D01*
X14488772Y-3688946D01*
X14482583Y-3702031D01*
X14475142Y-3714447D01*
X14466519Y-3726073D01*
X14456798Y-3736798D01*
X14446073Y-3746519D01*
X14434447Y-3755142D01*
X14422031Y-3762583D01*
X14408946Y-3768772D01*
X14395317Y-3773649D01*
X14381276Y-3777166D01*
X14366958Y-3779290D01*
X14352500Y-3780000D01*
X14007500Y-3780000D01*
X13993042Y-3779290D01*
X13978724Y-3777166D01*
X13964683Y-3773649D01*
X13951054Y-3768772D01*
X13937969Y-3762583D01*
X13925553Y-3755142D01*
X13913927Y-3746519D01*
X13903202Y-3736798D01*
X13893481Y-3726073D01*
X13884858Y-3714447D01*
X13877417Y-3702031D01*
X13871228Y-3688946D01*
X13866351Y-3675317D01*
X13862834Y-3661276D01*
X13860710Y-3646958D01*
X13860000Y-3632500D01*
X13860000Y-3337500D01*
X13860710Y-3323042D01*
X13862834Y-3308724D01*
X13866351Y-3294683D01*
X13871228Y-3281054D01*
X13877417Y-3267969D01*
X13884858Y-3255553D01*
X13893481Y-3243927D01*
X13903202Y-3233202D01*
X13913927Y-3223481D01*
X13925553Y-3214858D01*
X13937969Y-3207417D01*
X13951054Y-3201228D01*
X13964683Y-3196351D01*
X13978724Y-3192834D01*
X13993042Y-3190710D01*
X14007500Y-3190000D01*
X14352500Y-3190000D01*
X14366958Y-3190710D01*
X14366958Y-3190710D01*
G37*
D11*
G04 #@! TD*
G04 #@! TO.P,C13,1*
G04 #@! TO.N,/VPLL_B*
X14180000Y-3485000D03*
D10*
G04 #@! TO.N,GND*
G04 #@! TO.C,C14*
G36*
X9856958Y-2925710D02*
X9871276Y-2927834D01*
X9885317Y-2931351D01*
X9898946Y-2936228D01*
X9912031Y-2942417D01*
X9924447Y-2949858D01*
X9936073Y-2958481D01*
X9946798Y-2968202D01*
X9956519Y-2978927D01*
X9965142Y-2990553D01*
X9972583Y-3002969D01*
X9978772Y-3016054D01*
X9983649Y-3029683D01*
X9987166Y-3043724D01*
X9989290Y-3058042D01*
X9990000Y-3072500D01*
X9990000Y-3367500D01*
X9989290Y-3381958D01*
X9987166Y-3396276D01*
X9983649Y-3410317D01*
X9978772Y-3423946D01*
X9972583Y-3437031D01*
X9965142Y-3449447D01*
X9956519Y-3461073D01*
X9946798Y-3471798D01*
X9936073Y-3481519D01*
X9924447Y-3490142D01*
X9912031Y-3497583D01*
X9898946Y-3503772D01*
X9885317Y-3508649D01*
X9871276Y-3512166D01*
X9856958Y-3514290D01*
X9842500Y-3515000D01*
X9497500Y-3515000D01*
X9483042Y-3514290D01*
X9468724Y-3512166D01*
X9454683Y-3508649D01*
X9441054Y-3503772D01*
X9427969Y-3497583D01*
X9415553Y-3490142D01*
X9403927Y-3481519D01*
X9393202Y-3471798D01*
X9383481Y-3461073D01*
X9374858Y-3449447D01*
X9367417Y-3437031D01*
X9361228Y-3423946D01*
X9356351Y-3410317D01*
X9352834Y-3396276D01*
X9350710Y-3381958D01*
X9350000Y-3367500D01*
X9350000Y-3072500D01*
X9350710Y-3058042D01*
X9352834Y-3043724D01*
X9356351Y-3029683D01*
X9361228Y-3016054D01*
X9367417Y-3002969D01*
X9374858Y-2990553D01*
X9383481Y-2978927D01*
X9393202Y-2968202D01*
X9403927Y-2958481D01*
X9415553Y-2949858D01*
X9427969Y-2942417D01*
X9441054Y-2936228D01*
X9454683Y-2931351D01*
X9468724Y-2927834D01*
X9483042Y-2925710D01*
X9497500Y-2925000D01*
X9842500Y-2925000D01*
X9856958Y-2925710D01*
X9856958Y-2925710D01*
G37*
D11*
G04 #@! TD*
G04 #@! TO.P,C14,2*
G04 #@! TO.N,GND*
X9670000Y-3220000D03*
D10*
G04 #@! TO.N,/VPLL_A*
G04 #@! TO.C,C14*
G36*
X9856958Y-3895710D02*
X9871276Y-3897834D01*
X9885317Y-3901351D01*
X9898946Y-3906228D01*
X9912031Y-3912417D01*
X9924447Y-3919858D01*
X9936073Y-3928481D01*
X9946798Y-3938202D01*
X9956519Y-3948927D01*
X9965142Y-3960553D01*
X9972583Y-3972969D01*
X9978772Y-3986054D01*
X9983649Y-3999683D01*
X9987166Y-4013724D01*
X9989290Y-4028042D01*
X9990000Y-4042500D01*
X9990000Y-4337500D01*
X9989290Y-4351958D01*
X9987166Y-4366276D01*
X9983649Y-4380317D01*
X9978772Y-4393946D01*
X9972583Y-4407031D01*
X9965142Y-4419447D01*
X9956519Y-4431073D01*
X9946798Y-4441798D01*
X9936073Y-4451519D01*
X9924447Y-4460142D01*
X9912031Y-4467583D01*
X9898946Y-4473772D01*
X9885317Y-4478649D01*
X9871276Y-4482166D01*
X9856958Y-4484290D01*
X9842500Y-4485000D01*
X9497500Y-4485000D01*
X9483042Y-4484290D01*
X9468724Y-4482166D01*
X9454683Y-4478649D01*
X9441054Y-4473772D01*
X9427969Y-4467583D01*
X9415553Y-4460142D01*
X9403927Y-4451519D01*
X9393202Y-4441798D01*
X9383481Y-4431073D01*
X9374858Y-4419447D01*
X9367417Y-4407031D01*
X9361228Y-4393946D01*
X9356351Y-4380317D01*
X9352834Y-4366276D01*
X9350710Y-4351958D01*
X9350000Y-4337500D01*
X9350000Y-4042500D01*
X9350710Y-4028042D01*
X9352834Y-4013724D01*
X9356351Y-3999683D01*
X9361228Y-3986054D01*
X9367417Y-3972969D01*
X9374858Y-3960553D01*
X9383481Y-3948927D01*
X9393202Y-3938202D01*
X9403927Y-3928481D01*
X9415553Y-3919858D01*
X9427969Y-3912417D01*
X9441054Y-3906228D01*
X9454683Y-3901351D01*
X9468724Y-3897834D01*
X9483042Y-3895710D01*
X9497500Y-3895000D01*
X9842500Y-3895000D01*
X9856958Y-3895710D01*
X9856958Y-3895710D01*
G37*
D11*
G04 #@! TD*
G04 #@! TO.P,C14,1*
G04 #@! TO.N,/VPLL_A*
X9670000Y-4190000D03*
D10*
G04 #@! TO.N,GND*
G04 #@! TO.C,C1*
G36*
X18636958Y-11280710D02*
X18651276Y-11282834D01*
X18665317Y-11286351D01*
X18678946Y-11291228D01*
X18692031Y-11297417D01*
X18704447Y-11304858D01*
X18716073Y-11313481D01*
X18726798Y-11323202D01*
X18736519Y-11333927D01*
X18745142Y-11345553D01*
X18752583Y-11357969D01*
X18758772Y-11371054D01*
X18763649Y-11384683D01*
X18767166Y-11398724D01*
X18769290Y-11413042D01*
X18770000Y-11427500D01*
X18770000Y-11722500D01*
X18769290Y-11736958D01*
X18767166Y-11751276D01*
X18763649Y-11765317D01*
X18758772Y-11778946D01*
X18752583Y-11792031D01*
X18745142Y-11804447D01*
X18736519Y-11816073D01*
X18726798Y-11826798D01*
X18716073Y-11836519D01*
X18704447Y-11845142D01*
X18692031Y-11852583D01*
X18678946Y-11858772D01*
X18665317Y-11863649D01*
X18651276Y-11867166D01*
X18636958Y-11869290D01*
X18622500Y-11870000D01*
X18277500Y-11870000D01*
X18263042Y-11869290D01*
X18248724Y-11867166D01*
X18234683Y-11863649D01*
X18221054Y-11858772D01*
X18207969Y-11852583D01*
X18195553Y-11845142D01*
X18183927Y-11836519D01*
X18173202Y-11826798D01*
X18163481Y-11816073D01*
X18154858Y-11804447D01*
X18147417Y-11792031D01*
X18141228Y-11778946D01*
X18136351Y-11765317D01*
X18132834Y-11751276D01*
X18130710Y-11736958D01*
X18130000Y-11722500D01*
X18130000Y-11427500D01*
X18130710Y-11413042D01*
X18132834Y-11398724D01*
X18136351Y-11384683D01*
X18141228Y-11371054D01*
X18147417Y-11357969D01*
X18154858Y-11345553D01*
X18163481Y-11333927D01*
X18173202Y-11323202D01*
X18183927Y-11313481D01*
X18195553Y-11304858D01*
X18207969Y-11297417D01*
X18221054Y-11291228D01*
X18234683Y-11286351D01*
X18248724Y-11282834D01*
X18263042Y-11280710D01*
X18277500Y-11280000D01*
X18622500Y-11280000D01*
X18636958Y-11280710D01*
X18636958Y-11280710D01*
G37*
D11*
G04 #@! TD*
G04 #@! TO.P,C1,2*
G04 #@! TO.N,GND*
X18450000Y-11575000D03*
D10*
G04 #@! TO.N,/3V3_SYS*
G04 #@! TO.C,C1*
G36*
X18636958Y-12250710D02*
X18651276Y-12252834D01*
X18665317Y-12256351D01*
X18678946Y-12261228D01*
X18692031Y-12267417D01*
X18704447Y-12274858D01*
X18716073Y-12283481D01*
X18726798Y-12293202D01*
X18736519Y-12303927D01*
X18745142Y-12315553D01*
X18752583Y-12327969D01*
X18758772Y-12341054D01*
X18763649Y-12354683D01*
X18767166Y-12368724D01*
X18769290Y-12383042D01*
X18770000Y-12397500D01*
X18770000Y-12692500D01*
X18769290Y-12706958D01*
X18767166Y-12721276D01*
X18763649Y-12735317D01*
X18758772Y-12748946D01*
X18752583Y-12762031D01*
X18745142Y-12774447D01*
X18736519Y-12786073D01*
X18726798Y-12796798D01*
X18716073Y-12806519D01*
X18704447Y-12815142D01*
X18692031Y-12822583D01*
X18678946Y-12828772D01*
X18665317Y-12833649D01*
X18651276Y-12837166D01*
X18636958Y-12839290D01*
X18622500Y-12840000D01*
X18277500Y-12840000D01*
X18263042Y-12839290D01*
X18248724Y-12837166D01*
X18234683Y-12833649D01*
X18221054Y-12828772D01*
X18207969Y-12822583D01*
X18195553Y-12815142D01*
X18183927Y-12806519D01*
X18173202Y-12796798D01*
X18163481Y-12786073D01*
X18154858Y-12774447D01*
X18147417Y-12762031D01*
X18141228Y-12748946D01*
X18136351Y-12735317D01*
X18132834Y-12721276D01*
X18130710Y-12706958D01*
X18130000Y-12692500D01*
X18130000Y-12397500D01*
X18130710Y-12383042D01*
X18132834Y-12368724D01*
X18136351Y-12354683D01*
X18141228Y-12341054D01*
X18147417Y-12327969D01*
X18154858Y-12315553D01*
X18163481Y-12303927D01*
X18173202Y-12293202D01*
X18183927Y-12283481D01*
X18195553Y-12274858D01*
X18207969Y-12267417D01*
X18221054Y-12261228D01*
X18234683Y-12256351D01*
X18248724Y-12252834D01*
X18263042Y-12250710D01*
X18277500Y-12250000D01*
X18622500Y-12250000D01*
X18636958Y-12250710D01*
X18636958Y-12250710D01*
G37*
D11*
G04 #@! TD*
G04 #@! TO.P,C1,1*
G04 #@! TO.N,/3V3_SYS*
X18450000Y-12545000D03*
D10*
G04 #@! TO.N,/USB_D_P*
G04 #@! TO.C,R11*
G36*
X3856958Y-14990710D02*
X3871276Y-14992834D01*
X3885317Y-14996351D01*
X3898946Y-15001228D01*
X3912031Y-15007417D01*
X3924447Y-15014858D01*
X3936073Y-15023481D01*
X3946798Y-15033202D01*
X3956519Y-15043927D01*
X3965142Y-15055553D01*
X3972583Y-15067969D01*
X3978772Y-15081054D01*
X3983649Y-15094683D01*
X3987166Y-15108724D01*
X3989290Y-15123042D01*
X3990000Y-15137500D01*
X3990000Y-15432500D01*
X3989290Y-15446958D01*
X3987166Y-15461276D01*
X3983649Y-15475317D01*
X3978772Y-15488946D01*
X3972583Y-15502031D01*
X3965142Y-15514447D01*
X3956519Y-15526073D01*
X3946798Y-15536798D01*
X3936073Y-15546519D01*
X3924447Y-15555142D01*
X3912031Y-15562583D01*
X3898946Y-15568772D01*
X3885317Y-15573649D01*
X3871276Y-15577166D01*
X3856958Y-15579290D01*
X3842500Y-15580000D01*
X3497500Y-15580000D01*
X3483042Y-15579290D01*
X3468724Y-15577166D01*
X3454683Y-15573649D01*
X3441054Y-15568772D01*
X3427969Y-15562583D01*
X3415553Y-15555142D01*
X3403927Y-15546519D01*
X3393202Y-15536798D01*
X3383481Y-15526073D01*
X3374858Y-15514447D01*
X3367417Y-15502031D01*
X3361228Y-15488946D01*
X3356351Y-15475317D01*
X3352834Y-15461276D01*
X3350710Y-15446958D01*
X3350000Y-15432500D01*
X3350000Y-15137500D01*
X3350710Y-15123042D01*
X3352834Y-15108724D01*
X3356351Y-15094683D01*
X3361228Y-15081054D01*
X3367417Y-15067969D01*
X3374858Y-15055553D01*
X3383481Y-15043927D01*
X3393202Y-15033202D01*
X3403927Y-15023481D01*
X3415553Y-15014858D01*
X3427969Y-15007417D01*
X3441054Y-15001228D01*
X3454683Y-14996351D01*
X3468724Y-14992834D01*
X3483042Y-14990710D01*
X3497500Y-14990000D01*
X3842500Y-14990000D01*
X3856958Y-14990710D01*
X3856958Y-14990710D01*
G37*
D11*
G04 #@! TD*
G04 #@! TO.P,R11,2*
G04 #@! TO.N,/USB_D_P*
X3670000Y-15285000D03*
D10*
G04 #@! TO.N,/USB_DET*
G04 #@! TO.C,R11*
G36*
X3856958Y-15960710D02*
X3871276Y-15962834D01*
X3885317Y-15966351D01*
X3898946Y-15971228D01*
X3912031Y-15977417D01*
X3924447Y-15984858D01*
X3936073Y-15993481D01*
X3946798Y-16003202D01*
X3956519Y-16013927D01*
X3965142Y-16025553D01*
X3972583Y-16037969D01*
X3978772Y-16051054D01*
X3983649Y-16064683D01*
X3987166Y-16078724D01*
X3989290Y-16093042D01*
X3990000Y-16107500D01*
X3990000Y-16402500D01*
X3989290Y-16416958D01*
X3987166Y-16431276D01*
X3983649Y-16445317D01*
X3978772Y-16458946D01*
X3972583Y-16472031D01*
X3965142Y-16484447D01*
X3956519Y-16496073D01*
X3946798Y-16506798D01*
X3936073Y-16516519D01*
X3924447Y-16525142D01*
X3912031Y-16532583D01*
X3898946Y-16538772D01*
X3885317Y-16543649D01*
X3871276Y-16547166D01*
X3856958Y-16549290D01*
X3842500Y-16550000D01*
X3497500Y-16550000D01*
X3483042Y-16549290D01*
X3468724Y-16547166D01*
X3454683Y-16543649D01*
X3441054Y-16538772D01*
X3427969Y-16532583D01*
X3415553Y-16525142D01*
X3403927Y-16516519D01*
X3393202Y-16506798D01*
X3383481Y-16496073D01*
X3374858Y-16484447D01*
X3367417Y-16472031D01*
X3361228Y-16458946D01*
X3356351Y-16445317D01*
X3352834Y-16431276D01*
X3350710Y-16416958D01*
X3350000Y-16402500D01*
X3350000Y-16107500D01*
X3350710Y-16093042D01*
X3352834Y-16078724D01*
X3356351Y-16064683D01*
X3361228Y-16051054D01*
X3367417Y-16037969D01*
X3374858Y-16025553D01*
X3383481Y-16013927D01*
X3393202Y-16003202D01*
X3403927Y-15993481D01*
X3415553Y-15984858D01*
X3427969Y-15977417D01*
X3441054Y-15971228D01*
X3454683Y-15966351D01*
X3468724Y-15962834D01*
X3483042Y-15960710D01*
X3497500Y-15960000D01*
X3842500Y-15960000D01*
X3856958Y-15960710D01*
X3856958Y-15960710D01*
G37*
D11*
G04 #@! TD*
G04 #@! TO.P,R11,1*
G04 #@! TO.N,/USB_DET*
X3670000Y-16255000D03*
D10*
G04 #@! TO.N,/CSI_D1_IN_P*
G04 #@! TO.C,R24*
G36*
X3986958Y-5780710D02*
X4001276Y-5782834D01*
X4015317Y-5786351D01*
X4028946Y-5791228D01*
X4042031Y-5797417D01*
X4054447Y-5804858D01*
X4066073Y-5813481D01*
X4076798Y-5823202D01*
X4086519Y-5833927D01*
X4095142Y-5845553D01*
X4102583Y-5857969D01*
X4108772Y-5871054D01*
X4113649Y-5884683D01*
X4117166Y-5898724D01*
X4119290Y-5913042D01*
X4120000Y-5927500D01*
X4120000Y-6222500D01*
X4119290Y-6236958D01*
X4117166Y-6251276D01*
X4113649Y-6265317D01*
X4108772Y-6278946D01*
X4102583Y-6292031D01*
X4095142Y-6304447D01*
X4086519Y-6316073D01*
X4076798Y-6326798D01*
X4066073Y-6336519D01*
X4054447Y-6345142D01*
X4042031Y-6352583D01*
X4028946Y-6358772D01*
X4015317Y-6363649D01*
X4001276Y-6367166D01*
X3986958Y-6369290D01*
X3972500Y-6370000D01*
X3627500Y-6370000D01*
X3613042Y-6369290D01*
X3598724Y-6367166D01*
X3584683Y-6363649D01*
X3571054Y-6358772D01*
X3557969Y-6352583D01*
X3545553Y-6345142D01*
X3533927Y-6336519D01*
X3523202Y-6326798D01*
X3513481Y-6316073D01*
X3504858Y-6304447D01*
X3497417Y-6292031D01*
X3491228Y-6278946D01*
X3486351Y-6265317D01*
X3482834Y-6251276D01*
X3480710Y-6236958D01*
X3480000Y-6222500D01*
X3480000Y-5927500D01*
X3480710Y-5913042D01*
X3482834Y-5898724D01*
X3486351Y-5884683D01*
X3491228Y-5871054D01*
X3497417Y-5857969D01*
X3504858Y-5845553D01*
X3513481Y-5833927D01*
X3523202Y-5823202D01*
X3533927Y-5813481D01*
X3545553Y-5804858D01*
X3557969Y-5797417D01*
X3571054Y-5791228D01*
X3584683Y-5786351D01*
X3598724Y-5782834D01*
X3613042Y-5780710D01*
X3627500Y-5780000D01*
X3972500Y-5780000D01*
X3986958Y-5780710D01*
X3986958Y-5780710D01*
G37*
D11*
G04 #@! TD*
G04 #@! TO.P,R24,2*
G04 #@! TO.N,/CSI_D1_IN_P*
X3800000Y-6075000D03*
D10*
G04 #@! TO.N,/CSI_INT*
G04 #@! TO.C,R24*
G36*
X3986958Y-6750710D02*
X4001276Y-6752834D01*
X4015317Y-6756351D01*
X4028946Y-6761228D01*
X4042031Y-6767417D01*
X4054447Y-6774858D01*
X4066073Y-6783481D01*
X4076798Y-6793202D01*
X4086519Y-6803927D01*
X4095142Y-6815553D01*
X4102583Y-6827969D01*
X4108772Y-6841054D01*
X4113649Y-6854683D01*
X4117166Y-6868724D01*
X4119290Y-6883042D01*
X4120000Y-6897500D01*
X4120000Y-7192500D01*
X4119290Y-7206958D01*
X4117166Y-7221276D01*
X4113649Y-7235317D01*
X4108772Y-7248946D01*
X4102583Y-7262031D01*
X4095142Y-7274447D01*
X4086519Y-7286073D01*
X4076798Y-7296798D01*
X4066073Y-7306519D01*
X4054447Y-7315142D01*
X4042031Y-7322583D01*
X4028946Y-7328772D01*
X4015317Y-7333649D01*
X4001276Y-7337166D01*
X3986958Y-7339290D01*
X3972500Y-7340000D01*
X3627500Y-7340000D01*
X3613042Y-7339290D01*
X3598724Y-7337166D01*
X3584683Y-7333649D01*
X3571054Y-7328772D01*
X3557969Y-7322583D01*
X3545553Y-7315142D01*
X3533927Y-7306519D01*
X3523202Y-7296798D01*
X3513481Y-7286073D01*
X3504858Y-7274447D01*
X3497417Y-7262031D01*
X3491228Y-7248946D01*
X3486351Y-7235317D01*
X3482834Y-7221276D01*
X3480710Y-7206958D01*
X3480000Y-7192500D01*
X3480000Y-6897500D01*
X3480710Y-6883042D01*
X3482834Y-6868724D01*
X3486351Y-6854683D01*
X3491228Y-6841054D01*
X3497417Y-6827969D01*
X3504858Y-6815553D01*
X3513481Y-6803927D01*
X3523202Y-6793202D01*
X3533927Y-6783481D01*
X3545553Y-6774858D01*
X3557969Y-6767417D01*
X3571054Y-6761228D01*
X3584683Y-6756351D01*
X3598724Y-6752834D01*
X3613042Y-6750710D01*
X3627500Y-6750000D01*
X3972500Y-6750000D01*
X3986958Y-6750710D01*
X3986958Y-6750710D01*
G37*
D11*
G04 #@! TD*
G04 #@! TO.P,R24,1*
G04 #@! TO.N,/CSI_INT*
X3800000Y-7045000D03*
D10*
G04 #@! TO.N,/VPLL_B*
G04 #@! TO.C,R10*
G36*
X15376958Y-3190710D02*
X15391276Y-3192834D01*
X15405317Y-3196351D01*
X15418946Y-3201228D01*
X15432031Y-3207417D01*
X15444447Y-3214858D01*
X15456073Y-3223481D01*
X15466798Y-3233202D01*
X15476519Y-3243927D01*
X15485142Y-3255553D01*
X15492583Y-3267969D01*
X15498772Y-3281054D01*
X15503649Y-3294683D01*
X15507166Y-3308724D01*
X15509290Y-3323042D01*
X15510000Y-3337500D01*
X15510000Y-3632500D01*
X15509290Y-3646958D01*
X15507166Y-3661276D01*
X15503649Y-3675317D01*
X15498772Y-3688946D01*
X15492583Y-3702031D01*
X15485142Y-3714447D01*
X15476519Y-3726073D01*
X15466798Y-3736798D01*
X15456073Y-3746519D01*
X15444447Y-3755142D01*
X15432031Y-3762583D01*
X15418946Y-3768772D01*
X15405317Y-3773649D01*
X15391276Y-3777166D01*
X15376958Y-3779290D01*
X15362500Y-3780000D01*
X15017500Y-3780000D01*
X15003042Y-3779290D01*
X14988724Y-3777166D01*
X14974683Y-3773649D01*
X14961054Y-3768772D01*
X14947969Y-3762583D01*
X14935553Y-3755142D01*
X14923927Y-3746519D01*
X14913202Y-3736798D01*
X14903481Y-3726073D01*
X14894858Y-3714447D01*
X14887417Y-3702031D01*
X14881228Y-3688946D01*
X14876351Y-3675317D01*
X14872834Y-3661276D01*
X14870710Y-3646958D01*
X14870000Y-3632500D01*
X14870000Y-3337500D01*
X14870710Y-3323042D01*
X14872834Y-3308724D01*
X14876351Y-3294683D01*
X14881228Y-3281054D01*
X14887417Y-3267969D01*
X14894858Y-3255553D01*
X14903481Y-3243927D01*
X14913202Y-3233202D01*
X14923927Y-3223481D01*
X14935553Y-3214858D01*
X14947969Y-3207417D01*
X14961054Y-3201228D01*
X14974683Y-3196351D01*
X14988724Y-3192834D01*
X15003042Y-3190710D01*
X15017500Y-3190000D01*
X15362500Y-3190000D01*
X15376958Y-3190710D01*
X15376958Y-3190710D01*
G37*
D11*
G04 #@! TD*
G04 #@! TO.P,R10,2*
G04 #@! TO.N,/VPLL_B*
X15190000Y-3485000D03*
D10*
G04 #@! TO.N,/1V2_SYS*
G04 #@! TO.C,R10*
G36*
X15376958Y-2220710D02*
X15391276Y-2222834D01*
X15405317Y-2226351D01*
X15418946Y-2231228D01*
X15432031Y-2237417D01*
X15444447Y-2244858D01*
X15456073Y-2253481D01*
X15466798Y-2263202D01*
X15476519Y-2273927D01*
X15485142Y-2285553D01*
X15492583Y-2297969D01*
X15498772Y-2311054D01*
X15503649Y-2324683D01*
X15507166Y-2338724D01*
X15509290Y-2353042D01*
X15510000Y-2367500D01*
X15510000Y-2662500D01*
X15509290Y-2676958D01*
X15507166Y-2691276D01*
X15503649Y-2705317D01*
X15498772Y-2718946D01*
X15492583Y-2732031D01*
X15485142Y-2744447D01*
X15476519Y-2756073D01*
X15466798Y-2766798D01*
X15456073Y-2776519D01*
X15444447Y-2785142D01*
X15432031Y-2792583D01*
X15418946Y-2798772D01*
X15405317Y-2803649D01*
X15391276Y-2807166D01*
X15376958Y-2809290D01*
X15362500Y-2810000D01*
X15017500Y-2810000D01*
X15003042Y-2809290D01*
X14988724Y-2807166D01*
X14974683Y-2803649D01*
X14961054Y-2798772D01*
X14947969Y-2792583D01*
X14935553Y-2785142D01*
X14923927Y-2776519D01*
X14913202Y-2766798D01*
X14903481Y-2756073D01*
X14894858Y-2744447D01*
X14887417Y-2732031D01*
X14881228Y-2718946D01*
X14876351Y-2705317D01*
X14872834Y-2691276D01*
X14870710Y-2676958D01*
X14870000Y-2662500D01*
X14870000Y-2367500D01*
X14870710Y-2353042D01*
X14872834Y-2338724D01*
X14876351Y-2324683D01*
X14881228Y-2311054D01*
X14887417Y-2297969D01*
X14894858Y-2285553D01*
X14903481Y-2273927D01*
X14913202Y-2263202D01*
X14923927Y-2253481D01*
X14935553Y-2244858D01*
X14947969Y-2237417D01*
X14961054Y-2231228D01*
X14974683Y-2226351D01*
X14988724Y-2222834D01*
X15003042Y-2220710D01*
X15017500Y-2220000D01*
X15362500Y-2220000D01*
X15376958Y-2220710D01*
X15376958Y-2220710D01*
G37*
D11*
G04 #@! TD*
G04 #@! TO.P,R10,1*
G04 #@! TO.N,/1V2_SYS*
X15190000Y-2515000D03*
D10*
G04 #@! TO.N,/VPLL_A*
G04 #@! TO.C,R9*
G36*
X7826958Y-3895710D02*
X7841276Y-3897834D01*
X7855317Y-3901351D01*
X7868946Y-3906228D01*
X7882031Y-3912417D01*
X7894447Y-3919858D01*
X7906073Y-3928481D01*
X7916798Y-3938202D01*
X7926519Y-3948927D01*
X7935142Y-3960553D01*
X7942583Y-3972969D01*
X7948772Y-3986054D01*
X7953649Y-3999683D01*
X7957166Y-4013724D01*
X7959290Y-4028042D01*
X7960000Y-4042500D01*
X7960000Y-4337500D01*
X7959290Y-4351958D01*
X7957166Y-4366276D01*
X7953649Y-4380317D01*
X7948772Y-4393946D01*
X7942583Y-4407031D01*
X7935142Y-4419447D01*
X7926519Y-4431073D01*
X7916798Y-4441798D01*
X7906073Y-4451519D01*
X7894447Y-4460142D01*
X7882031Y-4467583D01*
X7868946Y-4473772D01*
X7855317Y-4478649D01*
X7841276Y-4482166D01*
X7826958Y-4484290D01*
X7812500Y-4485000D01*
X7467500Y-4485000D01*
X7453042Y-4484290D01*
X7438724Y-4482166D01*
X7424683Y-4478649D01*
X7411054Y-4473772D01*
X7397969Y-4467583D01*
X7385553Y-4460142D01*
X7373927Y-4451519D01*
X7363202Y-4441798D01*
X7353481Y-4431073D01*
X7344858Y-4419447D01*
X7337417Y-4407031D01*
X7331228Y-4393946D01*
X7326351Y-4380317D01*
X7322834Y-4366276D01*
X7320710Y-4351958D01*
X7320000Y-4337500D01*
X7320000Y-4042500D01*
X7320710Y-4028042D01*
X7322834Y-4013724D01*
X7326351Y-3999683D01*
X7331228Y-3986054D01*
X7337417Y-3972969D01*
X7344858Y-3960553D01*
X7353481Y-3948927D01*
X7363202Y-3938202D01*
X7373927Y-3928481D01*
X7385553Y-3919858D01*
X7397969Y-3912417D01*
X7411054Y-3906228D01*
X7424683Y-3901351D01*
X7438724Y-3897834D01*
X7453042Y-3895710D01*
X7467500Y-3895000D01*
X7812500Y-3895000D01*
X7826958Y-3895710D01*
X7826958Y-3895710D01*
G37*
D11*
G04 #@! TD*
G04 #@! TO.P,R9,2*
G04 #@! TO.N,/VPLL_A*
X7640000Y-4190000D03*
D10*
G04 #@! TO.N,/1V2_SYS*
G04 #@! TO.C,R9*
G36*
X7826958Y-2925710D02*
X7841276Y-2927834D01*
X7855317Y-2931351D01*
X7868946Y-2936228D01*
X7882031Y-2942417D01*
X7894447Y-2949858D01*
X7906073Y-2958481D01*
X7916798Y-2968202D01*
X7926519Y-2978927D01*
X7935142Y-2990553D01*
X7942583Y-3002969D01*
X7948772Y-3016054D01*
X7953649Y-3029683D01*
X7957166Y-3043724D01*
X7959290Y-3058042D01*
X7960000Y-3072500D01*
X7960000Y-3367500D01*
X7959290Y-3381958D01*
X7957166Y-3396276D01*
X7953649Y-3410317D01*
X7948772Y-3423946D01*
X7942583Y-3437031D01*
X7935142Y-3449447D01*
X7926519Y-3461073D01*
X7916798Y-3471798D01*
X7906073Y-3481519D01*
X7894447Y-3490142D01*
X7882031Y-3497583D01*
X7868946Y-3503772D01*
X7855317Y-3508649D01*
X7841276Y-3512166D01*
X7826958Y-3514290D01*
X7812500Y-3515000D01*
X7467500Y-3515000D01*
X7453042Y-3514290D01*
X7438724Y-3512166D01*
X7424683Y-3508649D01*
X7411054Y-3503772D01*
X7397969Y-3497583D01*
X7385553Y-3490142D01*
X7373927Y-3481519D01*
X7363202Y-3471798D01*
X7353481Y-3461073D01*
X7344858Y-3449447D01*
X7337417Y-3437031D01*
X7331228Y-3423946D01*
X7326351Y-3410317D01*
X7322834Y-3396276D01*
X7320710Y-3381958D01*
X7320000Y-3367500D01*
X7320000Y-3072500D01*
X7320710Y-3058042D01*
X7322834Y-3043724D01*
X7326351Y-3029683D01*
X7331228Y-3016054D01*
X7337417Y-3002969D01*
X7344858Y-2990553D01*
X7353481Y-2978927D01*
X7363202Y-2968202D01*
X7373927Y-2958481D01*
X7385553Y-2949858D01*
X7397969Y-2942417D01*
X7411054Y-2936228D01*
X7424683Y-2931351D01*
X7438724Y-2927834D01*
X7453042Y-2925710D01*
X7467500Y-2925000D01*
X7812500Y-2925000D01*
X7826958Y-2925710D01*
X7826958Y-2925710D01*
G37*
D11*
G04 #@! TD*
G04 #@! TO.P,R9,1*
G04 #@! TO.N,/1V2_SYS*
X7640000Y-3220000D03*
D10*
G04 #@! TO.N,/VDDANA*
G04 #@! TO.C,R8*
G36*
X7656958Y-15340710D02*
X7671276Y-15342834D01*
X7685317Y-15346351D01*
X7698946Y-15351228D01*
X7712031Y-15357417D01*
X7724447Y-15364858D01*
X7736073Y-15373481D01*
X7746798Y-15383202D01*
X7756519Y-15393927D01*
X7765142Y-15405553D01*
X7772583Y-15417969D01*
X7778772Y-15431054D01*
X7783649Y-15444683D01*
X7787166Y-15458724D01*
X7789290Y-15473042D01*
X7790000Y-15487500D01*
X7790000Y-15832500D01*
X7789290Y-15846958D01*
X7787166Y-15861276D01*
X7783649Y-15875317D01*
X7778772Y-15888946D01*
X7772583Y-15902031D01*
X7765142Y-15914447D01*
X7756519Y-15926073D01*
X7746798Y-15936798D01*
X7736073Y-15946519D01*
X7724447Y-15955142D01*
X7712031Y-15962583D01*
X7698946Y-15968772D01*
X7685317Y-15973649D01*
X7671276Y-15977166D01*
X7656958Y-15979290D01*
X7642500Y-15980000D01*
X7347500Y-15980000D01*
X7333042Y-15979290D01*
X7318724Y-15977166D01*
X7304683Y-15973649D01*
X7291054Y-15968772D01*
X7277969Y-15962583D01*
X7265553Y-15955142D01*
X7253927Y-15946519D01*
X7243202Y-15936798D01*
X7233481Y-15926073D01*
X7224858Y-15914447D01*
X7217417Y-15902031D01*
X7211228Y-15888946D01*
X7206351Y-15875317D01*
X7202834Y-15861276D01*
X7200710Y-15846958D01*
X7200000Y-15832500D01*
X7200000Y-15487500D01*
X7200710Y-15473042D01*
X7202834Y-15458724D01*
X7206351Y-15444683D01*
X7211228Y-15431054D01*
X7217417Y-15417969D01*
X7224858Y-15405553D01*
X7233481Y-15393927D01*
X7243202Y-15383202D01*
X7253927Y-15373481D01*
X7265553Y-15364858D01*
X7277969Y-15357417D01*
X7291054Y-15351228D01*
X7304683Y-15346351D01*
X7318724Y-15342834D01*
X7333042Y-15340710D01*
X7347500Y-15340000D01*
X7642500Y-15340000D01*
X7656958Y-15340710D01*
X7656958Y-15340710D01*
G37*
D11*
G04 #@! TD*
G04 #@! TO.P,R8,2*
G04 #@! TO.N,/VDDANA*
X7495000Y-15660000D03*
D10*
G04 #@! TO.N,/VUSB*
G04 #@! TO.C,R8*
G36*
X6686958Y-15340710D02*
X6701276Y-15342834D01*
X6715317Y-15346351D01*
X6728946Y-15351228D01*
X6742031Y-15357417D01*
X6754447Y-15364858D01*
X6766073Y-15373481D01*
X6776798Y-15383202D01*
X6786519Y-15393927D01*
X6795142Y-15405553D01*
X6802583Y-15417969D01*
X6808772Y-15431054D01*
X6813649Y-15444683D01*
X6817166Y-15458724D01*
X6819290Y-15473042D01*
X6820000Y-15487500D01*
X6820000Y-15832500D01*
X6819290Y-15846958D01*
X6817166Y-15861276D01*
X6813649Y-15875317D01*
X6808772Y-15888946D01*
X6802583Y-15902031D01*
X6795142Y-15914447D01*
X6786519Y-15926073D01*
X6776798Y-15936798D01*
X6766073Y-15946519D01*
X6754447Y-15955142D01*
X6742031Y-15962583D01*
X6728946Y-15968772D01*
X6715317Y-15973649D01*
X6701276Y-15977166D01*
X6686958Y-15979290D01*
X6672500Y-15980000D01*
X6377500Y-15980000D01*
X6363042Y-15979290D01*
X6348724Y-15977166D01*
X6334683Y-15973649D01*
X6321054Y-15968772D01*
X6307969Y-15962583D01*
X6295553Y-15955142D01*
X6283927Y-15946519D01*
X6273202Y-15936798D01*
X6263481Y-15926073D01*
X6254858Y-15914447D01*
X6247417Y-15902031D01*
X6241228Y-15888946D01*
X6236351Y-15875317D01*
X6232834Y-15861276D01*
X6230710Y-15846958D01*
X6230000Y-15832500D01*
X6230000Y-15487500D01*
X6230710Y-15473042D01*
X6232834Y-15458724D01*
X6236351Y-15444683D01*
X6241228Y-15431054D01*
X6247417Y-15417969D01*
X6254858Y-15405553D01*
X6263481Y-15393927D01*
X6273202Y-15383202D01*
X6283927Y-15373481D01*
X6295553Y-15364858D01*
X6307969Y-15357417D01*
X6321054Y-15351228D01*
X6334683Y-15346351D01*
X6348724Y-15342834D01*
X6363042Y-15340710D01*
X6377500Y-15340000D01*
X6672500Y-15340000D01*
X6686958Y-15340710D01*
X6686958Y-15340710D01*
G37*
D11*
G04 #@! TD*
G04 #@! TO.P,R8,1*
G04 #@! TO.N,/VUSB*
X6525000Y-15660000D03*
D10*
G04 #@! TO.N,/VBATH*
G04 #@! TO.C,R7*
G36*
X7646958Y-14250710D02*
X7661276Y-14252834D01*
X7675317Y-14256351D01*
X7688946Y-14261228D01*
X7702031Y-14267417D01*
X7714447Y-14274858D01*
X7726073Y-14283481D01*
X7736798Y-14293202D01*
X7746519Y-14303927D01*
X7755142Y-14315553D01*
X7762583Y-14327969D01*
X7768772Y-14341054D01*
X7773649Y-14354683D01*
X7777166Y-14368724D01*
X7779290Y-14383042D01*
X7780000Y-14397500D01*
X7780000Y-14742500D01*
X7779290Y-14756958D01*
X7777166Y-14771276D01*
X7773649Y-14785317D01*
X7768772Y-14798946D01*
X7762583Y-14812031D01*
X7755142Y-14824447D01*
X7746519Y-14836073D01*
X7736798Y-14846798D01*
X7726073Y-14856519D01*
X7714447Y-14865142D01*
X7702031Y-14872583D01*
X7688946Y-14878772D01*
X7675317Y-14883649D01*
X7661276Y-14887166D01*
X7646958Y-14889290D01*
X7632500Y-14890000D01*
X7337500Y-14890000D01*
X7323042Y-14889290D01*
X7308724Y-14887166D01*
X7294683Y-14883649D01*
X7281054Y-14878772D01*
X7267969Y-14872583D01*
X7255553Y-14865142D01*
X7243927Y-14856519D01*
X7233202Y-14846798D01*
X7223481Y-14836073D01*
X7214858Y-14824447D01*
X7207417Y-14812031D01*
X7201228Y-14798946D01*
X7196351Y-14785317D01*
X7192834Y-14771276D01*
X7190710Y-14756958D01*
X7190000Y-14742500D01*
X7190000Y-14397500D01*
X7190710Y-14383042D01*
X7192834Y-14368724D01*
X7196351Y-14354683D01*
X7201228Y-14341054D01*
X7207417Y-14327969D01*
X7214858Y-14315553D01*
X7223481Y-14303927D01*
X7233202Y-14293202D01*
X7243927Y-14283481D01*
X7255553Y-14274858D01*
X7267969Y-14267417D01*
X7281054Y-14261228D01*
X7294683Y-14256351D01*
X7308724Y-14252834D01*
X7323042Y-14250710D01*
X7337500Y-14250000D01*
X7632500Y-14250000D01*
X7646958Y-14250710D01*
X7646958Y-14250710D01*
G37*
D11*
G04 #@! TD*
G04 #@! TO.P,R7,2*
G04 #@! TO.N,/VBATH*
X7485000Y-14570000D03*
D10*
G04 #@! TO.N,/VUSB*
G04 #@! TO.C,R7*
G36*
X6676958Y-14250710D02*
X6691276Y-14252834D01*
X6705317Y-14256351D01*
X6718946Y-14261228D01*
X6732031Y-14267417D01*
X6744447Y-14274858D01*
X6756073Y-14283481D01*
X6766798Y-14293202D01*
X6776519Y-14303927D01*
X6785142Y-14315553D01*
X6792583Y-14327969D01*
X6798772Y-14341054D01*
X6803649Y-14354683D01*
X6807166Y-14368724D01*
X6809290Y-14383042D01*
X6810000Y-14397500D01*
X6810000Y-14742500D01*
X6809290Y-14756958D01*
X6807166Y-14771276D01*
X6803649Y-14785317D01*
X6798772Y-14798946D01*
X6792583Y-14812031D01*
X6785142Y-14824447D01*
X6776519Y-14836073D01*
X6766798Y-14846798D01*
X6756073Y-14856519D01*
X6744447Y-14865142D01*
X6732031Y-14872583D01*
X6718946Y-14878772D01*
X6705317Y-14883649D01*
X6691276Y-14887166D01*
X6676958Y-14889290D01*
X6662500Y-14890000D01*
X6367500Y-14890000D01*
X6353042Y-14889290D01*
X6338724Y-14887166D01*
X6324683Y-14883649D01*
X6311054Y-14878772D01*
X6297969Y-14872583D01*
X6285553Y-14865142D01*
X6273927Y-14856519D01*
X6263202Y-14846798D01*
X6253481Y-14836073D01*
X6244858Y-14824447D01*
X6237417Y-14812031D01*
X6231228Y-14798946D01*
X6226351Y-14785317D01*
X6222834Y-14771276D01*
X6220710Y-14756958D01*
X6220000Y-14742500D01*
X6220000Y-14397500D01*
X6220710Y-14383042D01*
X6222834Y-14368724D01*
X6226351Y-14354683D01*
X6231228Y-14341054D01*
X6237417Y-14327969D01*
X6244858Y-14315553D01*
X6253481Y-14303927D01*
X6263202Y-14293202D01*
X6273927Y-14283481D01*
X6285553Y-14274858D01*
X6297969Y-14267417D01*
X6311054Y-14261228D01*
X6324683Y-14256351D01*
X6338724Y-14252834D01*
X6353042Y-14250710D01*
X6367500Y-14250000D01*
X6662500Y-14250000D01*
X6676958Y-14250710D01*
X6676958Y-14250710D01*
G37*
D11*
G04 #@! TD*
G04 #@! TO.P,R7,1*
G04 #@! TO.N,/VUSB*
X6515000Y-14570000D03*
D10*
G04 #@! TO.N,/1V2_SYS_B*
G04 #@! TO.C,R6*
G36*
X9801958Y-17835710D02*
X9816276Y-17837834D01*
X9830317Y-17841351D01*
X9843946Y-17846228D01*
X9857031Y-17852417D01*
X9869447Y-17859858D01*
X9881073Y-17868481D01*
X9891798Y-17878202D01*
X9901519Y-17888927D01*
X9910142Y-17900553D01*
X9917583Y-17912969D01*
X9923772Y-17926054D01*
X9928649Y-17939683D01*
X9932166Y-17953724D01*
X9934290Y-17968042D01*
X9935000Y-17982500D01*
X9935000Y-18327500D01*
X9934290Y-18341958D01*
X9932166Y-18356276D01*
X9928649Y-18370317D01*
X9923772Y-18383946D01*
X9917583Y-18397031D01*
X9910142Y-18409447D01*
X9901519Y-18421073D01*
X9891798Y-18431798D01*
X9881073Y-18441519D01*
X9869447Y-18450142D01*
X9857031Y-18457583D01*
X9843946Y-18463772D01*
X9830317Y-18468649D01*
X9816276Y-18472166D01*
X9801958Y-18474290D01*
X9787500Y-18475000D01*
X9492500Y-18475000D01*
X9478042Y-18474290D01*
X9463724Y-18472166D01*
X9449683Y-18468649D01*
X9436054Y-18463772D01*
X9422969Y-18457583D01*
X9410553Y-18450142D01*
X9398927Y-18441519D01*
X9388202Y-18431798D01*
X9378481Y-18421073D01*
X9369858Y-18409447D01*
X9362417Y-18397031D01*
X9356228Y-18383946D01*
X9351351Y-18370317D01*
X9347834Y-18356276D01*
X9345710Y-18341958D01*
X9345000Y-18327500D01*
X9345000Y-17982500D01*
X9345710Y-17968042D01*
X9347834Y-17953724D01*
X9351351Y-17939683D01*
X9356228Y-17926054D01*
X9362417Y-17912969D01*
X9369858Y-17900553D01*
X9378481Y-17888927D01*
X9388202Y-17878202D01*
X9398927Y-17868481D01*
X9410553Y-17859858D01*
X9422969Y-17852417D01*
X9436054Y-17846228D01*
X9449683Y-17841351D01*
X9463724Y-17837834D01*
X9478042Y-17835710D01*
X9492500Y-17835000D01*
X9787500Y-17835000D01*
X9801958Y-17835710D01*
X9801958Y-17835710D01*
G37*
D11*
G04 #@! TD*
G04 #@! TO.P,R6,2*
G04 #@! TO.N,/1V2_SYS_B*
X9640000Y-18155000D03*
D10*
G04 #@! TO.N,/1V2_SYS*
G04 #@! TO.C,R6*
G36*
X10771958Y-17835710D02*
X10786276Y-17837834D01*
X10800317Y-17841351D01*
X10813946Y-17846228D01*
X10827031Y-17852417D01*
X10839447Y-17859858D01*
X10851073Y-17868481D01*
X10861798Y-17878202D01*
X10871519Y-17888927D01*
X10880142Y-17900553D01*
X10887583Y-17912969D01*
X10893772Y-17926054D01*
X10898649Y-17939683D01*
X10902166Y-17953724D01*
X10904290Y-17968042D01*
X10905000Y-17982500D01*
X10905000Y-18327500D01*
X10904290Y-18341958D01*
X10902166Y-18356276D01*
X10898649Y-18370317D01*
X10893772Y-18383946D01*
X10887583Y-18397031D01*
X10880142Y-18409447D01*
X10871519Y-18421073D01*
X10861798Y-18431798D01*
X10851073Y-18441519D01*
X10839447Y-18450142D01*
X10827031Y-18457583D01*
X10813946Y-18463772D01*
X10800317Y-18468649D01*
X10786276Y-18472166D01*
X10771958Y-18474290D01*
X10757500Y-18475000D01*
X10462500Y-18475000D01*
X10448042Y-18474290D01*
X10433724Y-18472166D01*
X10419683Y-18468649D01*
X10406054Y-18463772D01*
X10392969Y-18457583D01*
X10380553Y-18450142D01*
X10368927Y-18441519D01*
X10358202Y-18431798D01*
X10348481Y-18421073D01*
X10339858Y-18409447D01*
X10332417Y-18397031D01*
X10326228Y-18383946D01*
X10321351Y-18370317D01*
X10317834Y-18356276D01*
X10315710Y-18341958D01*
X10315000Y-18327500D01*
X10315000Y-17982500D01*
X10315710Y-17968042D01*
X10317834Y-17953724D01*
X10321351Y-17939683D01*
X10326228Y-17926054D01*
X10332417Y-17912969D01*
X10339858Y-17900553D01*
X10348481Y-17888927D01*
X10358202Y-17878202D01*
X10368927Y-17868481D01*
X10380553Y-17859858D01*
X10392969Y-17852417D01*
X10406054Y-17846228D01*
X10419683Y-17841351D01*
X10433724Y-17837834D01*
X10448042Y-17835710D01*
X10462500Y-17835000D01*
X10757500Y-17835000D01*
X10771958Y-17835710D01*
X10771958Y-17835710D01*
G37*
D11*
G04 #@! TD*
G04 #@! TO.P,R6,1*
G04 #@! TO.N,/1V2_SYS*
X10610000Y-18155000D03*
D10*
G04 #@! TO.N,/1V2_SYS_A*
G04 #@! TO.C,R5*
G36*
X9801958Y-18835710D02*
X9816276Y-18837834D01*
X9830317Y-18841351D01*
X9843946Y-18846228D01*
X9857031Y-18852417D01*
X9869447Y-18859858D01*
X9881073Y-18868481D01*
X9891798Y-18878202D01*
X9901519Y-18888927D01*
X9910142Y-18900553D01*
X9917583Y-18912969D01*
X9923772Y-18926054D01*
X9928649Y-18939683D01*
X9932166Y-18953724D01*
X9934290Y-18968042D01*
X9935000Y-18982500D01*
X9935000Y-19327500D01*
X9934290Y-19341958D01*
X9932166Y-19356276D01*
X9928649Y-19370317D01*
X9923772Y-19383946D01*
X9917583Y-19397031D01*
X9910142Y-19409447D01*
X9901519Y-19421073D01*
X9891798Y-19431798D01*
X9881073Y-19441519D01*
X9869447Y-19450142D01*
X9857031Y-19457583D01*
X9843946Y-19463772D01*
X9830317Y-19468649D01*
X9816276Y-19472166D01*
X9801958Y-19474290D01*
X9787500Y-19475000D01*
X9492500Y-19475000D01*
X9478042Y-19474290D01*
X9463724Y-19472166D01*
X9449683Y-19468649D01*
X9436054Y-19463772D01*
X9422969Y-19457583D01*
X9410553Y-19450142D01*
X9398927Y-19441519D01*
X9388202Y-19431798D01*
X9378481Y-19421073D01*
X9369858Y-19409447D01*
X9362417Y-19397031D01*
X9356228Y-19383946D01*
X9351351Y-19370317D01*
X9347834Y-19356276D01*
X9345710Y-19341958D01*
X9345000Y-19327500D01*
X9345000Y-18982500D01*
X9345710Y-18968042D01*
X9347834Y-18953724D01*
X9351351Y-18939683D01*
X9356228Y-18926054D01*
X9362417Y-18912969D01*
X9369858Y-18900553D01*
X9378481Y-18888927D01*
X9388202Y-18878202D01*
X9398927Y-18868481D01*
X9410553Y-18859858D01*
X9422969Y-18852417D01*
X9436054Y-18846228D01*
X9449683Y-18841351D01*
X9463724Y-18837834D01*
X9478042Y-18835710D01*
X9492500Y-18835000D01*
X9787500Y-18835000D01*
X9801958Y-18835710D01*
X9801958Y-18835710D01*
G37*
D11*
G04 #@! TD*
G04 #@! TO.P,R5,2*
G04 #@! TO.N,/1V2_SYS_A*
X9640000Y-19155000D03*
D10*
G04 #@! TO.N,/1V2_SYS*
G04 #@! TO.C,R5*
G36*
X10771958Y-18835710D02*
X10786276Y-18837834D01*
X10800317Y-18841351D01*
X10813946Y-18846228D01*
X10827031Y-18852417D01*
X10839447Y-18859858D01*
X10851073Y-18868481D01*
X10861798Y-18878202D01*
X10871519Y-18888927D01*
X10880142Y-18900553D01*
X10887583Y-18912969D01*
X10893772Y-18926054D01*
X10898649Y-18939683D01*
X10902166Y-18953724D01*
X10904290Y-18968042D01*
X10905000Y-18982500D01*
X10905000Y-19327500D01*
X10904290Y-19341958D01*
X10902166Y-19356276D01*
X10898649Y-19370317D01*
X10893772Y-19383946D01*
X10887583Y-19397031D01*
X10880142Y-19409447D01*
X10871519Y-19421073D01*
X10861798Y-19431798D01*
X10851073Y-19441519D01*
X10839447Y-19450142D01*
X10827031Y-19457583D01*
X10813946Y-19463772D01*
X10800317Y-19468649D01*
X10786276Y-19472166D01*
X10771958Y-19474290D01*
X10757500Y-19475000D01*
X10462500Y-19475000D01*
X10448042Y-19474290D01*
X10433724Y-19472166D01*
X10419683Y-19468649D01*
X10406054Y-19463772D01*
X10392969Y-19457583D01*
X10380553Y-19450142D01*
X10368927Y-19441519D01*
X10358202Y-19431798D01*
X10348481Y-19421073D01*
X10339858Y-19409447D01*
X10332417Y-19397031D01*
X10326228Y-19383946D01*
X10321351Y-19370317D01*
X10317834Y-19356276D01*
X10315710Y-19341958D01*
X10315000Y-19327500D01*
X10315000Y-18982500D01*
X10315710Y-18968042D01*
X10317834Y-18953724D01*
X10321351Y-18939683D01*
X10326228Y-18926054D01*
X10332417Y-18912969D01*
X10339858Y-18900553D01*
X10348481Y-18888927D01*
X10358202Y-18878202D01*
X10368927Y-18868481D01*
X10380553Y-18859858D01*
X10392969Y-18852417D01*
X10406054Y-18846228D01*
X10419683Y-18841351D01*
X10433724Y-18837834D01*
X10448042Y-18835710D01*
X10462500Y-18835000D01*
X10757500Y-18835000D01*
X10771958Y-18835710D01*
X10771958Y-18835710D01*
G37*
D11*
G04 #@! TD*
G04 #@! TO.P,R5,1*
G04 #@! TO.N,/1V2_SYS*
X10610000Y-19155000D03*
D10*
G04 #@! TO.N,/1V8_SYS*
G04 #@! TO.C,R2*
G36*
X20136958Y-14330710D02*
X20151276Y-14332834D01*
X20165317Y-14336351D01*
X20178946Y-14341228D01*
X20192031Y-14347417D01*
X20204447Y-14354858D01*
X20216073Y-14363481D01*
X20226798Y-14373202D01*
X20236519Y-14383927D01*
X20245142Y-14395553D01*
X20252583Y-14407969D01*
X20258772Y-14421054D01*
X20263649Y-14434683D01*
X20267166Y-14448724D01*
X20269290Y-14463042D01*
X20270000Y-14477500D01*
X20270000Y-14772500D01*
X20269290Y-14786958D01*
X20267166Y-14801276D01*
X20263649Y-14815317D01*
X20258772Y-14828946D01*
X20252583Y-14842031D01*
X20245142Y-14854447D01*
X20236519Y-14866073D01*
X20226798Y-14876798D01*
X20216073Y-14886519D01*
X20204447Y-14895142D01*
X20192031Y-14902583D01*
X20178946Y-14908772D01*
X20165317Y-14913649D01*
X20151276Y-14917166D01*
X20136958Y-14919290D01*
X20122500Y-14920000D01*
X19777500Y-14920000D01*
X19763042Y-14919290D01*
X19748724Y-14917166D01*
X19734683Y-14913649D01*
X19721054Y-14908772D01*
X19707969Y-14902583D01*
X19695553Y-14895142D01*
X19683927Y-14886519D01*
X19673202Y-14876798D01*
X19663481Y-14866073D01*
X19654858Y-14854447D01*
X19647417Y-14842031D01*
X19641228Y-14828946D01*
X19636351Y-14815317D01*
X19632834Y-14801276D01*
X19630710Y-14786958D01*
X19630000Y-14772500D01*
X19630000Y-14477500D01*
X19630710Y-14463042D01*
X19632834Y-14448724D01*
X19636351Y-14434683D01*
X19641228Y-14421054D01*
X19647417Y-14407969D01*
X19654858Y-14395553D01*
X19663481Y-14383927D01*
X19673202Y-14373202D01*
X19683927Y-14363481D01*
X19695553Y-14354858D01*
X19707969Y-14347417D01*
X19721054Y-14341228D01*
X19734683Y-14336351D01*
X19748724Y-14332834D01*
X19763042Y-14330710D01*
X19777500Y-14330000D01*
X20122500Y-14330000D01*
X20136958Y-14330710D01*
X20136958Y-14330710D01*
G37*
D11*
G04 #@! TD*
G04 #@! TO.P,R2,2*
G04 #@! TO.N,/1V8_SYS*
X19950000Y-14625000D03*
D10*
G04 #@! TO.N,/1V8*
G04 #@! TO.C,R2*
G36*
X20136958Y-13360710D02*
X20151276Y-13362834D01*
X20165317Y-13366351D01*
X20178946Y-13371228D01*
X20192031Y-13377417D01*
X20204447Y-13384858D01*
X20216073Y-13393481D01*
X20226798Y-13403202D01*
X20236519Y-13413927D01*
X20245142Y-13425553D01*
X20252583Y-13437969D01*
X20258772Y-13451054D01*
X20263649Y-13464683D01*
X20267166Y-13478724D01*
X20269290Y-13493042D01*
X20270000Y-13507500D01*
X20270000Y-13802500D01*
X20269290Y-13816958D01*
X20267166Y-13831276D01*
X20263649Y-13845317D01*
X20258772Y-13858946D01*
X20252583Y-13872031D01*
X20245142Y-13884447D01*
X20236519Y-13896073D01*
X20226798Y-13906798D01*
X20216073Y-13916519D01*
X20204447Y-13925142D01*
X20192031Y-13932583D01*
X20178946Y-13938772D01*
X20165317Y-13943649D01*
X20151276Y-13947166D01*
X20136958Y-13949290D01*
X20122500Y-13950000D01*
X19777500Y-13950000D01*
X19763042Y-13949290D01*
X19748724Y-13947166D01*
X19734683Y-13943649D01*
X19721054Y-13938772D01*
X19707969Y-13932583D01*
X19695553Y-13925142D01*
X19683927Y-13916519D01*
X19673202Y-13906798D01*
X19663481Y-13896073D01*
X19654858Y-13884447D01*
X19647417Y-13872031D01*
X19641228Y-13858946D01*
X19636351Y-13845317D01*
X19632834Y-13831276D01*
X19630710Y-13816958D01*
X19630000Y-13802500D01*
X19630000Y-13507500D01*
X19630710Y-13493042D01*
X19632834Y-13478724D01*
X19636351Y-13464683D01*
X19641228Y-13451054D01*
X19647417Y-13437969D01*
X19654858Y-13425553D01*
X19663481Y-13413927D01*
X19673202Y-13403202D01*
X19683927Y-13393481D01*
X19695553Y-13384858D01*
X19707969Y-13377417D01*
X19721054Y-13371228D01*
X19734683Y-13366351D01*
X19748724Y-13362834D01*
X19763042Y-13360710D01*
X19777500Y-13360000D01*
X20122500Y-13360000D01*
X20136958Y-13360710D01*
X20136958Y-13360710D01*
G37*
D11*
G04 #@! TD*
G04 #@! TO.P,R2,1*
G04 #@! TO.N,/1V8*
X19950000Y-13655000D03*
D10*
G04 #@! TO.N,/3V3_SYS*
G04 #@! TO.C,R1*
G36*
X19676958Y-11280710D02*
X19691276Y-11282834D01*
X19705317Y-11286351D01*
X19718946Y-11291228D01*
X19732031Y-11297417D01*
X19744447Y-11304858D01*
X19756073Y-11313481D01*
X19766798Y-11323202D01*
X19776519Y-11333927D01*
X19785142Y-11345553D01*
X19792583Y-11357969D01*
X19798772Y-11371054D01*
X19803649Y-11384683D01*
X19807166Y-11398724D01*
X19809290Y-11413042D01*
X19810000Y-11427500D01*
X19810000Y-11722500D01*
X19809290Y-11736958D01*
X19807166Y-11751276D01*
X19803649Y-11765317D01*
X19798772Y-11778946D01*
X19792583Y-11792031D01*
X19785142Y-11804447D01*
X19776519Y-11816073D01*
X19766798Y-11826798D01*
X19756073Y-11836519D01*
X19744447Y-11845142D01*
X19732031Y-11852583D01*
X19718946Y-11858772D01*
X19705317Y-11863649D01*
X19691276Y-11867166D01*
X19676958Y-11869290D01*
X19662500Y-11870000D01*
X19317500Y-11870000D01*
X19303042Y-11869290D01*
X19288724Y-11867166D01*
X19274683Y-11863649D01*
X19261054Y-11858772D01*
X19247969Y-11852583D01*
X19235553Y-11845142D01*
X19223927Y-11836519D01*
X19213202Y-11826798D01*
X19203481Y-11816073D01*
X19194858Y-11804447D01*
X19187417Y-11792031D01*
X19181228Y-11778946D01*
X19176351Y-11765317D01*
X19172834Y-11751276D01*
X19170710Y-11736958D01*
X19170000Y-11722500D01*
X19170000Y-11427500D01*
X19170710Y-11413042D01*
X19172834Y-11398724D01*
X19176351Y-11384683D01*
X19181228Y-11371054D01*
X19187417Y-11357969D01*
X19194858Y-11345553D01*
X19203481Y-11333927D01*
X19213202Y-11323202D01*
X19223927Y-11313481D01*
X19235553Y-11304858D01*
X19247969Y-11297417D01*
X19261054Y-11291228D01*
X19274683Y-11286351D01*
X19288724Y-11282834D01*
X19303042Y-11280710D01*
X19317500Y-11280000D01*
X19662500Y-11280000D01*
X19676958Y-11280710D01*
X19676958Y-11280710D01*
G37*
D11*
G04 #@! TD*
G04 #@! TO.P,R1,2*
G04 #@! TO.N,/3V3_SYS*
X19490000Y-11575000D03*
D10*
G04 #@! TO.N,/3V3*
G04 #@! TO.C,R1*
G36*
X19676958Y-12250710D02*
X19691276Y-12252834D01*
X19705317Y-12256351D01*
X19718946Y-12261228D01*
X19732031Y-12267417D01*
X19744447Y-12274858D01*
X19756073Y-12283481D01*
X19766798Y-12293202D01*
X19776519Y-12303927D01*
X19785142Y-12315553D01*
X19792583Y-12327969D01*
X19798772Y-12341054D01*
X19803649Y-12354683D01*
X19807166Y-12368724D01*
X19809290Y-12383042D01*
X19810000Y-12397500D01*
X19810000Y-12692500D01*
X19809290Y-12706958D01*
X19807166Y-12721276D01*
X19803649Y-12735317D01*
X19798772Y-12748946D01*
X19792583Y-12762031D01*
X19785142Y-12774447D01*
X19776519Y-12786073D01*
X19766798Y-12796798D01*
X19756073Y-12806519D01*
X19744447Y-12815142D01*
X19732031Y-12822583D01*
X19718946Y-12828772D01*
X19705317Y-12833649D01*
X19691276Y-12837166D01*
X19676958Y-12839290D01*
X19662500Y-12840000D01*
X19317500Y-12840000D01*
X19303042Y-12839290D01*
X19288724Y-12837166D01*
X19274683Y-12833649D01*
X19261054Y-12828772D01*
X19247969Y-12822583D01*
X19235553Y-12815142D01*
X19223927Y-12806519D01*
X19213202Y-12796798D01*
X19203481Y-12786073D01*
X19194858Y-12774447D01*
X19187417Y-12762031D01*
X19181228Y-12748946D01*
X19176351Y-12735317D01*
X19172834Y-12721276D01*
X19170710Y-12706958D01*
X19170000Y-12692500D01*
X19170000Y-12397500D01*
X19170710Y-12383042D01*
X19172834Y-12368724D01*
X19176351Y-12354683D01*
X19181228Y-12341054D01*
X19187417Y-12327969D01*
X19194858Y-12315553D01*
X19203481Y-12303927D01*
X19213202Y-12293202D01*
X19223927Y-12283481D01*
X19235553Y-12274858D01*
X19247969Y-12267417D01*
X19261054Y-12261228D01*
X19274683Y-12256351D01*
X19288724Y-12252834D01*
X19303042Y-12250710D01*
X19317500Y-12250000D01*
X19662500Y-12250000D01*
X19676958Y-12250710D01*
X19676958Y-12250710D01*
G37*
D11*
G04 #@! TD*
G04 #@! TO.P,R1,1*
G04 #@! TO.N,/3V3*
X19490000Y-12545000D03*
D10*
G04 #@! TO.N,GND*
G04 #@! TO.C,R13*
G36*
X19201958Y-2920710D02*
X19216276Y-2922834D01*
X19230317Y-2926351D01*
X19243946Y-2931228D01*
X19257031Y-2937417D01*
X19269447Y-2944858D01*
X19281073Y-2953481D01*
X19291798Y-2963202D01*
X19301519Y-2973927D01*
X19310142Y-2985553D01*
X19317583Y-2997969D01*
X19323772Y-3011054D01*
X19328649Y-3024683D01*
X19332166Y-3038724D01*
X19334290Y-3053042D01*
X19335000Y-3067500D01*
X19335000Y-3362500D01*
X19334290Y-3376958D01*
X19332166Y-3391276D01*
X19328649Y-3405317D01*
X19323772Y-3418946D01*
X19317583Y-3432031D01*
X19310142Y-3444447D01*
X19301519Y-3456073D01*
X19291798Y-3466798D01*
X19281073Y-3476519D01*
X19269447Y-3485142D01*
X19257031Y-3492583D01*
X19243946Y-3498772D01*
X19230317Y-3503649D01*
X19216276Y-3507166D01*
X19201958Y-3509290D01*
X19187500Y-3510000D01*
X18842500Y-3510000D01*
X18828042Y-3509290D01*
X18813724Y-3507166D01*
X18799683Y-3503649D01*
X18786054Y-3498772D01*
X18772969Y-3492583D01*
X18760553Y-3485142D01*
X18748927Y-3476519D01*
X18738202Y-3466798D01*
X18728481Y-3456073D01*
X18719858Y-3444447D01*
X18712417Y-3432031D01*
X18706228Y-3418946D01*
X18701351Y-3405317D01*
X18697834Y-3391276D01*
X18695710Y-3376958D01*
X18695000Y-3362500D01*
X18695000Y-3067500D01*
X18695710Y-3053042D01*
X18697834Y-3038724D01*
X18701351Y-3024683D01*
X18706228Y-3011054D01*
X18712417Y-2997969D01*
X18719858Y-2985553D01*
X18728481Y-2973927D01*
X18738202Y-2963202D01*
X18748927Y-2953481D01*
X18760553Y-2944858D01*
X18772969Y-2937417D01*
X18786054Y-2931228D01*
X18799683Y-2926351D01*
X18813724Y-2922834D01*
X18828042Y-2920710D01*
X18842500Y-2920000D01*
X19187500Y-2920000D01*
X19201958Y-2920710D01*
X19201958Y-2920710D01*
G37*
D11*
G04 #@! TD*
G04 #@! TO.P,R13,2*
G04 #@! TO.N,GND*
X19015000Y-3215000D03*
D10*
G04 #@! TO.N,/CSI_OE*
G04 #@! TO.C,R13*
G36*
X19201958Y-3890710D02*
X19216276Y-3892834D01*
X19230317Y-3896351D01*
X19243946Y-3901228D01*
X19257031Y-3907417D01*
X19269447Y-3914858D01*
X19281073Y-3923481D01*
X19291798Y-3933202D01*
X19301519Y-3943927D01*
X19310142Y-3955553D01*
X19317583Y-3967969D01*
X19323772Y-3981054D01*
X19328649Y-3994683D01*
X19332166Y-4008724D01*
X19334290Y-4023042D01*
X19335000Y-4037500D01*
X19335000Y-4332500D01*
X19334290Y-4346958D01*
X19332166Y-4361276D01*
X19328649Y-4375317D01*
X19323772Y-4388946D01*
X19317583Y-4402031D01*
X19310142Y-4414447D01*
X19301519Y-4426073D01*
X19291798Y-4436798D01*
X19281073Y-4446519D01*
X19269447Y-4455142D01*
X19257031Y-4462583D01*
X19243946Y-4468772D01*
X19230317Y-4473649D01*
X19216276Y-4477166D01*
X19201958Y-4479290D01*
X19187500Y-4480000D01*
X18842500Y-4480000D01*
X18828042Y-4479290D01*
X18813724Y-4477166D01*
X18799683Y-4473649D01*
X18786054Y-4468772D01*
X18772969Y-4462583D01*
X18760553Y-4455142D01*
X18748927Y-4446519D01*
X18738202Y-4436798D01*
X18728481Y-4426073D01*
X18719858Y-4414447D01*
X18712417Y-4402031D01*
X18706228Y-4388946D01*
X18701351Y-4375317D01*
X18697834Y-4361276D01*
X18695710Y-4346958D01*
X18695000Y-4332500D01*
X18695000Y-4037500D01*
X18695710Y-4023042D01*
X18697834Y-4008724D01*
X18701351Y-3994683D01*
X18706228Y-3981054D01*
X18712417Y-3967969D01*
X18719858Y-3955553D01*
X18728481Y-3943927D01*
X18738202Y-3933202D01*
X18748927Y-3923481D01*
X18760553Y-3914858D01*
X18772969Y-3907417D01*
X18786054Y-3901228D01*
X18799683Y-3896351D01*
X18813724Y-3892834D01*
X18828042Y-3890710D01*
X18842500Y-3890000D01*
X19187500Y-3890000D01*
X19201958Y-3890710D01*
X19201958Y-3890710D01*
G37*
D11*
G04 #@! TD*
G04 #@! TO.P,R13,1*
G04 #@! TO.N,/CSI_OE*
X19015000Y-4185000D03*
D12*
G04 #@! TO.P,TP4,1*
G04 #@! TO.N,/PC_RDY*
X5010000Y-17290800D03*
G04 #@! TD*
G04 #@! TO.P,TP9,1*
G04 #@! TO.N,/PIO3*
X3870000Y-1180800D03*
G04 #@! TD*
G04 #@! TO.P,TP7,1*
G04 #@! TO.N,/EXTCLK_EN*
X6520000Y-17290800D03*
G04 #@! TD*
G04 #@! TO.P,TP3,1*
G04 #@! TO.N,/ZIP_EN_L*
X2200000Y-17290800D03*
G04 #@! TD*
G04 #@! TO.P,TP1,1*
G04 #@! TO.N,/CSI_INT*
X16850000Y-1430800D03*
G04 #@! TD*
G04 #@! TO.P,TP2,1*
G04 #@! TO.N,/MIPI_SEL*
X10500000Y-2130000D03*
G04 #@! TD*
G04 #@! TO.P,TP8,1*
G04 #@! TO.N,/EXT_CLK*
X3580000Y-17290800D03*
G04 #@! TD*
G04 #@! TO.P,TP11,1*
G04 #@! TO.N,/PIO1*
X2320000Y-1180800D03*
G04 #@! TD*
G04 #@! TO.P,TP12,1*
G04 #@! TO.N,/ULPM_WAKE*
X2530000Y-3790800D03*
G04 #@! TD*
G04 #@! TO.P,TP10,1*
G04 #@! TO.N,/PIO2*
X5390000Y-1180800D03*
G04 #@! TD*
D10*
G04 #@! TO.N,GND*
G04 #@! TO.C,C15*
G36*
X8836958Y-2925710D02*
X8851276Y-2927834D01*
X8865317Y-2931351D01*
X8878946Y-2936228D01*
X8892031Y-2942417D01*
X8904447Y-2949858D01*
X8916073Y-2958481D01*
X8926798Y-2968202D01*
X8936519Y-2978927D01*
X8945142Y-2990553D01*
X8952583Y-3002969D01*
X8958772Y-3016054D01*
X8963649Y-3029683D01*
X8967166Y-3043724D01*
X8969290Y-3058042D01*
X8970000Y-3072500D01*
X8970000Y-3367500D01*
X8969290Y-3381958D01*
X8967166Y-3396276D01*
X8963649Y-3410317D01*
X8958772Y-3423946D01*
X8952583Y-3437031D01*
X8945142Y-3449447D01*
X8936519Y-3461073D01*
X8926798Y-3471798D01*
X8916073Y-3481519D01*
X8904447Y-3490142D01*
X8892031Y-3497583D01*
X8878946Y-3503772D01*
X8865317Y-3508649D01*
X8851276Y-3512166D01*
X8836958Y-3514290D01*
X8822500Y-3515000D01*
X8477500Y-3515000D01*
X8463042Y-3514290D01*
X8448724Y-3512166D01*
X8434683Y-3508649D01*
X8421054Y-3503772D01*
X8407969Y-3497583D01*
X8395553Y-3490142D01*
X8383927Y-3481519D01*
X8373202Y-3471798D01*
X8363481Y-3461073D01*
X8354858Y-3449447D01*
X8347417Y-3437031D01*
X8341228Y-3423946D01*
X8336351Y-3410317D01*
X8332834Y-3396276D01*
X8330710Y-3381958D01*
X8330000Y-3367500D01*
X8330000Y-3072500D01*
X8330710Y-3058042D01*
X8332834Y-3043724D01*
X8336351Y-3029683D01*
X8341228Y-3016054D01*
X8347417Y-3002969D01*
X8354858Y-2990553D01*
X8363481Y-2978927D01*
X8373202Y-2968202D01*
X8383927Y-2958481D01*
X8395553Y-2949858D01*
X8407969Y-2942417D01*
X8421054Y-2936228D01*
X8434683Y-2931351D01*
X8448724Y-2927834D01*
X8463042Y-2925710D01*
X8477500Y-2925000D01*
X8822500Y-2925000D01*
X8836958Y-2925710D01*
X8836958Y-2925710D01*
G37*
D11*
G04 #@! TD*
G04 #@! TO.P,C15,2*
G04 #@! TO.N,GND*
X8650000Y-3220000D03*
D10*
G04 #@! TO.N,/VPLL_A*
G04 #@! TO.C,C15*
G36*
X8836958Y-3895710D02*
X8851276Y-3897834D01*
X8865317Y-3901351D01*
X8878946Y-3906228D01*
X8892031Y-3912417D01*
X8904447Y-3919858D01*
X8916073Y-3928481D01*
X8926798Y-3938202D01*
X8936519Y-3948927D01*
X8945142Y-3960553D01*
X8952583Y-3972969D01*
X8958772Y-3986054D01*
X8963649Y-3999683D01*
X8967166Y-4013724D01*
X8969290Y-4028042D01*
X8970000Y-4042500D01*
X8970000Y-4337500D01*
X8969290Y-4351958D01*
X8967166Y-4366276D01*
X8963649Y-4380317D01*
X8958772Y-4393946D01*
X8952583Y-4407031D01*
X8945142Y-4419447D01*
X8936519Y-4431073D01*
X8926798Y-4441798D01*
X8916073Y-4451519D01*
X8904447Y-4460142D01*
X8892031Y-4467583D01*
X8878946Y-4473772D01*
X8865317Y-4478649D01*
X8851276Y-4482166D01*
X8836958Y-4484290D01*
X8822500Y-4485000D01*
X8477500Y-4485000D01*
X8463042Y-4484290D01*
X8448724Y-4482166D01*
X8434683Y-4478649D01*
X8421054Y-4473772D01*
X8407969Y-4467583D01*
X8395553Y-4460142D01*
X8383927Y-4451519D01*
X8373202Y-4441798D01*
X8363481Y-4431073D01*
X8354858Y-4419447D01*
X8347417Y-4407031D01*
X8341228Y-4393946D01*
X8336351Y-4380317D01*
X8332834Y-4366276D01*
X8330710Y-4351958D01*
X8330000Y-4337500D01*
X8330000Y-4042500D01*
X8330710Y-4028042D01*
X8332834Y-4013724D01*
X8336351Y-3999683D01*
X8341228Y-3986054D01*
X8347417Y-3972969D01*
X8354858Y-3960553D01*
X8363481Y-3948927D01*
X8373202Y-3938202D01*
X8383927Y-3928481D01*
X8395553Y-3919858D01*
X8407969Y-3912417D01*
X8421054Y-3906228D01*
X8434683Y-3901351D01*
X8448724Y-3897834D01*
X8463042Y-3895710D01*
X8477500Y-3895000D01*
X8822500Y-3895000D01*
X8836958Y-3895710D01*
X8836958Y-3895710D01*
G37*
D11*
G04 #@! TD*
G04 #@! TO.P,C15,1*
G04 #@! TO.N,/VPLL_A*
X8650000Y-4190000D03*
D10*
G04 #@! TO.N,GND*
G04 #@! TO.C,C9*
G36*
X6801958Y-8335710D02*
X6816276Y-8337834D01*
X6830317Y-8341351D01*
X6843946Y-8346228D01*
X6857031Y-8352417D01*
X6869447Y-8359858D01*
X6881073Y-8368481D01*
X6891798Y-8378202D01*
X6901519Y-8388927D01*
X6910142Y-8400553D01*
X6917583Y-8412969D01*
X6923772Y-8426054D01*
X6928649Y-8439683D01*
X6932166Y-8453724D01*
X6934290Y-8468042D01*
X6935000Y-8482500D01*
X6935000Y-8827500D01*
X6934290Y-8841958D01*
X6932166Y-8856276D01*
X6928649Y-8870317D01*
X6923772Y-8883946D01*
X6917583Y-8897031D01*
X6910142Y-8909447D01*
X6901519Y-8921073D01*
X6891798Y-8931798D01*
X6881073Y-8941519D01*
X6869447Y-8950142D01*
X6857031Y-8957583D01*
X6843946Y-8963772D01*
X6830317Y-8968649D01*
X6816276Y-8972166D01*
X6801958Y-8974290D01*
X6787500Y-8975000D01*
X6492500Y-8975000D01*
X6478042Y-8974290D01*
X6463724Y-8972166D01*
X6449683Y-8968649D01*
X6436054Y-8963772D01*
X6422969Y-8957583D01*
X6410553Y-8950142D01*
X6398927Y-8941519D01*
X6388202Y-8931798D01*
X6378481Y-8921073D01*
X6369858Y-8909447D01*
X6362417Y-8897031D01*
X6356228Y-8883946D01*
X6351351Y-8870317D01*
X6347834Y-8856276D01*
X6345710Y-8841958D01*
X6345000Y-8827500D01*
X6345000Y-8482500D01*
X6345710Y-8468042D01*
X6347834Y-8453724D01*
X6351351Y-8439683D01*
X6356228Y-8426054D01*
X6362417Y-8412969D01*
X6369858Y-8400553D01*
X6378481Y-8388927D01*
X6388202Y-8378202D01*
X6398927Y-8368481D01*
X6410553Y-8359858D01*
X6422969Y-8352417D01*
X6436054Y-8346228D01*
X6449683Y-8341351D01*
X6463724Y-8337834D01*
X6478042Y-8335710D01*
X6492500Y-8335000D01*
X6787500Y-8335000D01*
X6801958Y-8335710D01*
X6801958Y-8335710D01*
G37*
D11*
G04 #@! TD*
G04 #@! TO.P,C9,2*
G04 #@! TO.N,GND*
X6640000Y-8655000D03*
D10*
G04 #@! TO.N,/1V2_SYS_A*
G04 #@! TO.C,C9*
G36*
X7771958Y-8335710D02*
X7786276Y-8337834D01*
X7800317Y-8341351D01*
X7813946Y-8346228D01*
X7827031Y-8352417D01*
X7839447Y-8359858D01*
X7851073Y-8368481D01*
X7861798Y-8378202D01*
X7871519Y-8388927D01*
X7880142Y-8400553D01*
X7887583Y-8412969D01*
X7893772Y-8426054D01*
X7898649Y-8439683D01*
X7902166Y-8453724D01*
X7904290Y-8468042D01*
X7905000Y-8482500D01*
X7905000Y-8827500D01*
X7904290Y-8841958D01*
X7902166Y-8856276D01*
X7898649Y-8870317D01*
X7893772Y-8883946D01*
X7887583Y-8897031D01*
X7880142Y-8909447D01*
X7871519Y-8921073D01*
X7861798Y-8931798D01*
X7851073Y-8941519D01*
X7839447Y-8950142D01*
X7827031Y-8957583D01*
X7813946Y-8963772D01*
X7800317Y-8968649D01*
X7786276Y-8972166D01*
X7771958Y-8974290D01*
X7757500Y-8975000D01*
X7462500Y-8975000D01*
X7448042Y-8974290D01*
X7433724Y-8972166D01*
X7419683Y-8968649D01*
X7406054Y-8963772D01*
X7392969Y-8957583D01*
X7380553Y-8950142D01*
X7368927Y-8941519D01*
X7358202Y-8931798D01*
X7348481Y-8921073D01*
X7339858Y-8909447D01*
X7332417Y-8897031D01*
X7326228Y-8883946D01*
X7321351Y-8870317D01*
X7317834Y-8856276D01*
X7315710Y-8841958D01*
X7315000Y-8827500D01*
X7315000Y-8482500D01*
X7315710Y-8468042D01*
X7317834Y-8453724D01*
X7321351Y-8439683D01*
X7326228Y-8426054D01*
X7332417Y-8412969D01*
X7339858Y-8400553D01*
X7348481Y-8388927D01*
X7358202Y-8378202D01*
X7368927Y-8368481D01*
X7380553Y-8359858D01*
X7392969Y-8352417D01*
X7406054Y-8346228D01*
X7419683Y-8341351D01*
X7433724Y-8337834D01*
X7448042Y-8335710D01*
X7462500Y-8335000D01*
X7757500Y-8335000D01*
X7771958Y-8335710D01*
X7771958Y-8335710D01*
G37*
D11*
G04 #@! TD*
G04 #@! TO.P,C9,1*
G04 #@! TO.N,/1V2_SYS_A*
X7610000Y-8655000D03*
D10*
G04 #@! TO.N,GND*
G04 #@! TO.C,C11*
G36*
X7911958Y-12295710D02*
X7926276Y-12297834D01*
X7940317Y-12301351D01*
X7953946Y-12306228D01*
X7967031Y-12312417D01*
X7979447Y-12319858D01*
X7991073Y-12328481D01*
X8001798Y-12338202D01*
X8011519Y-12348927D01*
X8020142Y-12360553D01*
X8027583Y-12372969D01*
X8033772Y-12386054D01*
X8038649Y-12399683D01*
X8042166Y-12413724D01*
X8044290Y-12428042D01*
X8045000Y-12442500D01*
X8045000Y-12737500D01*
X8044290Y-12751958D01*
X8042166Y-12766276D01*
X8038649Y-12780317D01*
X8033772Y-12793946D01*
X8027583Y-12807031D01*
X8020142Y-12819447D01*
X8011519Y-12831073D01*
X8001798Y-12841798D01*
X7991073Y-12851519D01*
X7979447Y-12860142D01*
X7967031Y-12867583D01*
X7953946Y-12873772D01*
X7940317Y-12878649D01*
X7926276Y-12882166D01*
X7911958Y-12884290D01*
X7897500Y-12885000D01*
X7552500Y-12885000D01*
X7538042Y-12884290D01*
X7523724Y-12882166D01*
X7509683Y-12878649D01*
X7496054Y-12873772D01*
X7482969Y-12867583D01*
X7470553Y-12860142D01*
X7458927Y-12851519D01*
X7448202Y-12841798D01*
X7438481Y-12831073D01*
X7429858Y-12819447D01*
X7422417Y-12807031D01*
X7416228Y-12793946D01*
X7411351Y-12780317D01*
X7407834Y-12766276D01*
X7405710Y-12751958D01*
X7405000Y-12737500D01*
X7405000Y-12442500D01*
X7405710Y-12428042D01*
X7407834Y-12413724D01*
X7411351Y-12399683D01*
X7416228Y-12386054D01*
X7422417Y-12372969D01*
X7429858Y-12360553D01*
X7438481Y-12348927D01*
X7448202Y-12338202D01*
X7458927Y-12328481D01*
X7470553Y-12319858D01*
X7482969Y-12312417D01*
X7496054Y-12306228D01*
X7509683Y-12301351D01*
X7523724Y-12297834D01*
X7538042Y-12295710D01*
X7552500Y-12295000D01*
X7897500Y-12295000D01*
X7911958Y-12295710D01*
X7911958Y-12295710D01*
G37*
D11*
G04 #@! TD*
G04 #@! TO.P,C11,2*
G04 #@! TO.N,GND*
X7725000Y-12590000D03*
D10*
G04 #@! TO.N,/VBATH*
G04 #@! TO.C,C11*
G36*
X7911958Y-11325710D02*
X7926276Y-11327834D01*
X7940317Y-11331351D01*
X7953946Y-11336228D01*
X7967031Y-11342417D01*
X7979447Y-11349858D01*
X7991073Y-11358481D01*
X8001798Y-11368202D01*
X8011519Y-11378927D01*
X8020142Y-11390553D01*
X8027583Y-11402969D01*
X8033772Y-11416054D01*
X8038649Y-11429683D01*
X8042166Y-11443724D01*
X8044290Y-11458042D01*
X8045000Y-11472500D01*
X8045000Y-11767500D01*
X8044290Y-11781958D01*
X8042166Y-11796276D01*
X8038649Y-11810317D01*
X8033772Y-11823946D01*
X8027583Y-11837031D01*
X8020142Y-11849447D01*
X8011519Y-11861073D01*
X8001798Y-11871798D01*
X7991073Y-11881519D01*
X7979447Y-11890142D01*
X7967031Y-11897583D01*
X7953946Y-11903772D01*
X7940317Y-11908649D01*
X7926276Y-11912166D01*
X7911958Y-11914290D01*
X7897500Y-11915000D01*
X7552500Y-11915000D01*
X7538042Y-11914290D01*
X7523724Y-11912166D01*
X7509683Y-11908649D01*
X7496054Y-11903772D01*
X7482969Y-11897583D01*
X7470553Y-11890142D01*
X7458927Y-11881519D01*
X7448202Y-11871798D01*
X7438481Y-11861073D01*
X7429858Y-11849447D01*
X7422417Y-11837031D01*
X7416228Y-11823946D01*
X7411351Y-11810317D01*
X7407834Y-11796276D01*
X7405710Y-11781958D01*
X7405000Y-11767500D01*
X7405000Y-11472500D01*
X7405710Y-11458042D01*
X7407834Y-11443724D01*
X7411351Y-11429683D01*
X7416228Y-11416054D01*
X7422417Y-11402969D01*
X7429858Y-11390553D01*
X7438481Y-11378927D01*
X7448202Y-11368202D01*
X7458927Y-11358481D01*
X7470553Y-11349858D01*
X7482969Y-11342417D01*
X7496054Y-11336228D01*
X7509683Y-11331351D01*
X7523724Y-11327834D01*
X7538042Y-11325710D01*
X7552500Y-11325000D01*
X7897500Y-11325000D01*
X7911958Y-11325710D01*
X7911958Y-11325710D01*
G37*
D11*
G04 #@! TD*
G04 #@! TO.P,C11,1*
G04 #@! TO.N,/VBATH*
X7725000Y-11620000D03*
D10*
G04 #@! TO.N,/CSI_CLK_FP_N*
G04 #@! TO.C,R23*
G36*
X18151958Y-3910710D02*
X18166276Y-3912834D01*
X18180317Y-3916351D01*
X18193946Y-3921228D01*
X18207031Y-3927417D01*
X18219447Y-3934858D01*
X18231073Y-3943481D01*
X18241798Y-3953202D01*
X18251519Y-3963927D01*
X18260142Y-3975553D01*
X18267583Y-3987969D01*
X18273772Y-4001054D01*
X18278649Y-4014683D01*
X18282166Y-4028724D01*
X18284290Y-4043042D01*
X18285000Y-4057500D01*
X18285000Y-4402500D01*
X18284290Y-4416958D01*
X18282166Y-4431276D01*
X18278649Y-4445317D01*
X18273772Y-4458946D01*
X18267583Y-4472031D01*
X18260142Y-4484447D01*
X18251519Y-4496073D01*
X18241798Y-4506798D01*
X18231073Y-4516519D01*
X18219447Y-4525142D01*
X18207031Y-4532583D01*
X18193946Y-4538772D01*
X18180317Y-4543649D01*
X18166276Y-4547166D01*
X18151958Y-4549290D01*
X18137500Y-4550000D01*
X17842500Y-4550000D01*
X17828042Y-4549290D01*
X17813724Y-4547166D01*
X17799683Y-4543649D01*
X17786054Y-4538772D01*
X17772969Y-4532583D01*
X17760553Y-4525142D01*
X17748927Y-4516519D01*
X17738202Y-4506798D01*
X17728481Y-4496073D01*
X17719858Y-4484447D01*
X17712417Y-4472031D01*
X17706228Y-4458946D01*
X17701351Y-4445317D01*
X17697834Y-4431276D01*
X17695710Y-4416958D01*
X17695000Y-4402500D01*
X17695000Y-4057500D01*
X17695710Y-4043042D01*
X17697834Y-4028724D01*
X17701351Y-4014683D01*
X17706228Y-4001054D01*
X17712417Y-3987969D01*
X17719858Y-3975553D01*
X17728481Y-3963927D01*
X17738202Y-3953202D01*
X17748927Y-3943481D01*
X17760553Y-3934858D01*
X17772969Y-3927417D01*
X17786054Y-3921228D01*
X17799683Y-3916351D01*
X17813724Y-3912834D01*
X17828042Y-3910710D01*
X17842500Y-3910000D01*
X18137500Y-3910000D01*
X18151958Y-3910710D01*
X18151958Y-3910710D01*
G37*
D11*
G04 #@! TD*
G04 #@! TO.P,R23,2*
G04 #@! TO.N,/CSI_CLK_FP_N*
X17990000Y-4230000D03*
D10*
G04 #@! TO.N,/CSI_CLK_FP_P*
G04 #@! TO.C,R23*
G36*
X17181958Y-3910710D02*
X17196276Y-3912834D01*
X17210317Y-3916351D01*
X17223946Y-3921228D01*
X17237031Y-3927417D01*
X17249447Y-3934858D01*
X17261073Y-3943481D01*
X17271798Y-3953202D01*
X17281519Y-3963927D01*
X17290142Y-3975553D01*
X17297583Y-3987969D01*
X17303772Y-4001054D01*
X17308649Y-4014683D01*
X17312166Y-4028724D01*
X17314290Y-4043042D01*
X17315000Y-4057500D01*
X17315000Y-4402500D01*
X17314290Y-4416958D01*
X17312166Y-4431276D01*
X17308649Y-4445317D01*
X17303772Y-4458946D01*
X17297583Y-4472031D01*
X17290142Y-4484447D01*
X17281519Y-4496073D01*
X17271798Y-4506798D01*
X17261073Y-4516519D01*
X17249447Y-4525142D01*
X17237031Y-4532583D01*
X17223946Y-4538772D01*
X17210317Y-4543649D01*
X17196276Y-4547166D01*
X17181958Y-4549290D01*
X17167500Y-4550000D01*
X16872500Y-4550000D01*
X16858042Y-4549290D01*
X16843724Y-4547166D01*
X16829683Y-4543649D01*
X16816054Y-4538772D01*
X16802969Y-4532583D01*
X16790553Y-4525142D01*
X16778927Y-4516519D01*
X16768202Y-4506798D01*
X16758481Y-4496073D01*
X16749858Y-4484447D01*
X16742417Y-4472031D01*
X16736228Y-4458946D01*
X16731351Y-4445317D01*
X16727834Y-4431276D01*
X16725710Y-4416958D01*
X16725000Y-4402500D01*
X16725000Y-4057500D01*
X16725710Y-4043042D01*
X16727834Y-4028724D01*
X16731351Y-4014683D01*
X16736228Y-4001054D01*
X16742417Y-3987969D01*
X16749858Y-3975553D01*
X16758481Y-3963927D01*
X16768202Y-3953202D01*
X16778927Y-3943481D01*
X16790553Y-3934858D01*
X16802969Y-3927417D01*
X16816054Y-3921228D01*
X16829683Y-3916351D01*
X16843724Y-3912834D01*
X16858042Y-3910710D01*
X16872500Y-3910000D01*
X17167500Y-3910000D01*
X17181958Y-3910710D01*
X17181958Y-3910710D01*
G37*
D11*
G04 #@! TD*
G04 #@! TO.P,R23,1*
G04 #@! TO.N,/CSI_CLK_FP_P*
X17020000Y-4230000D03*
D10*
G04 #@! TO.N,/E_CTRL_SS*
G04 #@! TO.C,R22*
G36*
X22096958Y-12490710D02*
X22111276Y-12492834D01*
X22125317Y-12496351D01*
X22138946Y-12501228D01*
X22152031Y-12507417D01*
X22164447Y-12514858D01*
X22176073Y-12523481D01*
X22186798Y-12533202D01*
X22196519Y-12543927D01*
X22205142Y-12555553D01*
X22212583Y-12567969D01*
X22218772Y-12581054D01*
X22223649Y-12594683D01*
X22227166Y-12608724D01*
X22229290Y-12623042D01*
X22230000Y-12637500D01*
X22230000Y-12982500D01*
X22229290Y-12996958D01*
X22227166Y-13011276D01*
X22223649Y-13025317D01*
X22218772Y-13038946D01*
X22212583Y-13052031D01*
X22205142Y-13064447D01*
X22196519Y-13076073D01*
X22186798Y-13086798D01*
X22176073Y-13096519D01*
X22164447Y-13105142D01*
X22152031Y-13112583D01*
X22138946Y-13118772D01*
X22125317Y-13123649D01*
X22111276Y-13127166D01*
X22096958Y-13129290D01*
X22082500Y-13130000D01*
X21787500Y-13130000D01*
X21773042Y-13129290D01*
X21758724Y-13127166D01*
X21744683Y-13123649D01*
X21731054Y-13118772D01*
X21717969Y-13112583D01*
X21705553Y-13105142D01*
X21693927Y-13096519D01*
X21683202Y-13086798D01*
X21673481Y-13076073D01*
X21664858Y-13064447D01*
X21657417Y-13052031D01*
X21651228Y-13038946D01*
X21646351Y-13025317D01*
X21642834Y-13011276D01*
X21640710Y-12996958D01*
X21640000Y-12982500D01*
X21640000Y-12637500D01*
X21640710Y-12623042D01*
X21642834Y-12608724D01*
X21646351Y-12594683D01*
X21651228Y-12581054D01*
X21657417Y-12567969D01*
X21664858Y-12555553D01*
X21673481Y-12543927D01*
X21683202Y-12533202D01*
X21693927Y-12523481D01*
X21705553Y-12514858D01*
X21717969Y-12507417D01*
X21731054Y-12501228D01*
X21744683Y-12496351D01*
X21758724Y-12492834D01*
X21773042Y-12490710D01*
X21787500Y-12490000D01*
X22082500Y-12490000D01*
X22096958Y-12490710D01*
X22096958Y-12490710D01*
G37*
D11*
G04 #@! TD*
G04 #@! TO.P,R22,2*
G04 #@! TO.N,/E_CTRL_SS*
X21935000Y-12810000D03*
D10*
G04 #@! TO.N,/CTRL_SS*
G04 #@! TO.C,R22*
G36*
X21126958Y-12490710D02*
X21141276Y-12492834D01*
X21155317Y-12496351D01*
X21168946Y-12501228D01*
X21182031Y-12507417D01*
X21194447Y-12514858D01*
X21206073Y-12523481D01*
X21216798Y-12533202D01*
X21226519Y-12543927D01*
X21235142Y-12555553D01*
X21242583Y-12567969D01*
X21248772Y-12581054D01*
X21253649Y-12594683D01*
X21257166Y-12608724D01*
X21259290Y-12623042D01*
X21260000Y-12637500D01*
X21260000Y-12982500D01*
X21259290Y-12996958D01*
X21257166Y-13011276D01*
X21253649Y-13025317D01*
X21248772Y-13038946D01*
X21242583Y-13052031D01*
X21235142Y-13064447D01*
X21226519Y-13076073D01*
X21216798Y-13086798D01*
X21206073Y-13096519D01*
X21194447Y-13105142D01*
X21182031Y-13112583D01*
X21168946Y-13118772D01*
X21155317Y-13123649D01*
X21141276Y-13127166D01*
X21126958Y-13129290D01*
X21112500Y-13130000D01*
X20817500Y-13130000D01*
X20803042Y-13129290D01*
X20788724Y-13127166D01*
X20774683Y-13123649D01*
X20761054Y-13118772D01*
X20747969Y-13112583D01*
X20735553Y-13105142D01*
X20723927Y-13096519D01*
X20713202Y-13086798D01*
X20703481Y-13076073D01*
X20694858Y-13064447D01*
X20687417Y-13052031D01*
X20681228Y-13038946D01*
X20676351Y-13025317D01*
X20672834Y-13011276D01*
X20670710Y-12996958D01*
X20670000Y-12982500D01*
X20670000Y-12637500D01*
X20670710Y-12623042D01*
X20672834Y-12608724D01*
X20676351Y-12594683D01*
X20681228Y-12581054D01*
X20687417Y-12567969D01*
X20694858Y-12555553D01*
X20703481Y-12543927D01*
X20713202Y-12533202D01*
X20723927Y-12523481D01*
X20735553Y-12514858D01*
X20747969Y-12507417D01*
X20761054Y-12501228D01*
X20774683Y-12496351D01*
X20788724Y-12492834D01*
X20803042Y-12490710D01*
X20817500Y-12490000D01*
X21112500Y-12490000D01*
X21126958Y-12490710D01*
X21126958Y-12490710D01*
G37*
D11*
G04 #@! TD*
G04 #@! TO.P,R22,1*
G04 #@! TO.N,/CTRL_SS*
X20965000Y-12810000D03*
D10*
G04 #@! TO.N,/E_CTRL_SCK*
G04 #@! TO.C,R21*
G36*
X22096958Y-11490710D02*
X22111276Y-11492834D01*
X22125317Y-11496351D01*
X22138946Y-11501228D01*
X22152031Y-11507417D01*
X22164447Y-11514858D01*
X22176073Y-11523481D01*
X22186798Y-11533202D01*
X22196519Y-11543927D01*
X22205142Y-11555553D01*
X22212583Y-11567969D01*
X22218772Y-11581054D01*
X22223649Y-11594683D01*
X22227166Y-11608724D01*
X22229290Y-11623042D01*
X22230000Y-11637500D01*
X22230000Y-11982500D01*
X22229290Y-11996958D01*
X22227166Y-12011276D01*
X22223649Y-12025317D01*
X22218772Y-12038946D01*
X22212583Y-12052031D01*
X22205142Y-12064447D01*
X22196519Y-12076073D01*
X22186798Y-12086798D01*
X22176073Y-12096519D01*
X22164447Y-12105142D01*
X22152031Y-12112583D01*
X22138946Y-12118772D01*
X22125317Y-12123649D01*
X22111276Y-12127166D01*
X22096958Y-12129290D01*
X22082500Y-12130000D01*
X21787500Y-12130000D01*
X21773042Y-12129290D01*
X21758724Y-12127166D01*
X21744683Y-12123649D01*
X21731054Y-12118772D01*
X21717969Y-12112583D01*
X21705553Y-12105142D01*
X21693927Y-12096519D01*
X21683202Y-12086798D01*
X21673481Y-12076073D01*
X21664858Y-12064447D01*
X21657417Y-12052031D01*
X21651228Y-12038946D01*
X21646351Y-12025317D01*
X21642834Y-12011276D01*
X21640710Y-11996958D01*
X21640000Y-11982500D01*
X21640000Y-11637500D01*
X21640710Y-11623042D01*
X21642834Y-11608724D01*
X21646351Y-11594683D01*
X21651228Y-11581054D01*
X21657417Y-11567969D01*
X21664858Y-11555553D01*
X21673481Y-11543927D01*
X21683202Y-11533202D01*
X21693927Y-11523481D01*
X21705553Y-11514858D01*
X21717969Y-11507417D01*
X21731054Y-11501228D01*
X21744683Y-11496351D01*
X21758724Y-11492834D01*
X21773042Y-11490710D01*
X21787500Y-11490000D01*
X22082500Y-11490000D01*
X22096958Y-11490710D01*
X22096958Y-11490710D01*
G37*
D11*
G04 #@! TD*
G04 #@! TO.P,R21,2*
G04 #@! TO.N,/E_CTRL_SCK*
X21935000Y-11810000D03*
D10*
G04 #@! TO.N,/CTRL_SCK*
G04 #@! TO.C,R21*
G36*
X21126958Y-11490710D02*
X21141276Y-11492834D01*
X21155317Y-11496351D01*
X21168946Y-11501228D01*
X21182031Y-11507417D01*
X21194447Y-11514858D01*
X21206073Y-11523481D01*
X21216798Y-11533202D01*
X21226519Y-11543927D01*
X21235142Y-11555553D01*
X21242583Y-11567969D01*
X21248772Y-11581054D01*
X21253649Y-11594683D01*
X21257166Y-11608724D01*
X21259290Y-11623042D01*
X21260000Y-11637500D01*
X21260000Y-11982500D01*
X21259290Y-11996958D01*
X21257166Y-12011276D01*
X21253649Y-12025317D01*
X21248772Y-12038946D01*
X21242583Y-12052031D01*
X21235142Y-12064447D01*
X21226519Y-12076073D01*
X21216798Y-12086798D01*
X21206073Y-12096519D01*
X21194447Y-12105142D01*
X21182031Y-12112583D01*
X21168946Y-12118772D01*
X21155317Y-12123649D01*
X21141276Y-12127166D01*
X21126958Y-12129290D01*
X21112500Y-12130000D01*
X20817500Y-12130000D01*
X20803042Y-12129290D01*
X20788724Y-12127166D01*
X20774683Y-12123649D01*
X20761054Y-12118772D01*
X20747969Y-12112583D01*
X20735553Y-12105142D01*
X20723927Y-12096519D01*
X20713202Y-12086798D01*
X20703481Y-12076073D01*
X20694858Y-12064447D01*
X20687417Y-12052031D01*
X20681228Y-12038946D01*
X20676351Y-12025317D01*
X20672834Y-12011276D01*
X20670710Y-11996958D01*
X20670000Y-11982500D01*
X20670000Y-11637500D01*
X20670710Y-11623042D01*
X20672834Y-11608724D01*
X20676351Y-11594683D01*
X20681228Y-11581054D01*
X20687417Y-11567969D01*
X20694858Y-11555553D01*
X20703481Y-11543927D01*
X20713202Y-11533202D01*
X20723927Y-11523481D01*
X20735553Y-11514858D01*
X20747969Y-11507417D01*
X20761054Y-11501228D01*
X20774683Y-11496351D01*
X20788724Y-11492834D01*
X20803042Y-11490710D01*
X20817500Y-11490000D01*
X21112500Y-11490000D01*
X21126958Y-11490710D01*
X21126958Y-11490710D01*
G37*
D11*
G04 #@! TD*
G04 #@! TO.P,R21,1*
G04 #@! TO.N,/CTRL_SCK*
X20965000Y-11810000D03*
D10*
G04 #@! TO.N,/E_CTRL_SO*
G04 #@! TO.C,R20*
G36*
X22096958Y-10490710D02*
X22111276Y-10492834D01*
X22125317Y-10496351D01*
X22138946Y-10501228D01*
X22152031Y-10507417D01*
X22164447Y-10514858D01*
X22176073Y-10523481D01*
X22186798Y-10533202D01*
X22196519Y-10543927D01*
X22205142Y-10555553D01*
X22212583Y-10567969D01*
X22218772Y-10581054D01*
X22223649Y-10594683D01*
X22227166Y-10608724D01*
X22229290Y-10623042D01*
X22230000Y-10637500D01*
X22230000Y-10982500D01*
X22229290Y-10996958D01*
X22227166Y-11011276D01*
X22223649Y-11025317D01*
X22218772Y-11038946D01*
X22212583Y-11052031D01*
X22205142Y-11064447D01*
X22196519Y-11076073D01*
X22186798Y-11086798D01*
X22176073Y-11096519D01*
X22164447Y-11105142D01*
X22152031Y-11112583D01*
X22138946Y-11118772D01*
X22125317Y-11123649D01*
X22111276Y-11127166D01*
X22096958Y-11129290D01*
X22082500Y-11130000D01*
X21787500Y-11130000D01*
X21773042Y-11129290D01*
X21758724Y-11127166D01*
X21744683Y-11123649D01*
X21731054Y-11118772D01*
X21717969Y-11112583D01*
X21705553Y-11105142D01*
X21693927Y-11096519D01*
X21683202Y-11086798D01*
X21673481Y-11076073D01*
X21664858Y-11064447D01*
X21657417Y-11052031D01*
X21651228Y-11038946D01*
X21646351Y-11025317D01*
X21642834Y-11011276D01*
X21640710Y-10996958D01*
X21640000Y-10982500D01*
X21640000Y-10637500D01*
X21640710Y-10623042D01*
X21642834Y-10608724D01*
X21646351Y-10594683D01*
X21651228Y-10581054D01*
X21657417Y-10567969D01*
X21664858Y-10555553D01*
X21673481Y-10543927D01*
X21683202Y-10533202D01*
X21693927Y-10523481D01*
X21705553Y-10514858D01*
X21717969Y-10507417D01*
X21731054Y-10501228D01*
X21744683Y-10496351D01*
X21758724Y-10492834D01*
X21773042Y-10490710D01*
X21787500Y-10490000D01*
X22082500Y-10490000D01*
X22096958Y-10490710D01*
X22096958Y-10490710D01*
G37*
D11*
G04 #@! TD*
G04 #@! TO.P,R20,2*
G04 #@! TO.N,/E_CTRL_SO*
X21935000Y-10810000D03*
D10*
G04 #@! TO.N,/CTRL_SO*
G04 #@! TO.C,R20*
G36*
X21126958Y-10490710D02*
X21141276Y-10492834D01*
X21155317Y-10496351D01*
X21168946Y-10501228D01*
X21182031Y-10507417D01*
X21194447Y-10514858D01*
X21206073Y-10523481D01*
X21216798Y-10533202D01*
X21226519Y-10543927D01*
X21235142Y-10555553D01*
X21242583Y-10567969D01*
X21248772Y-10581054D01*
X21253649Y-10594683D01*
X21257166Y-10608724D01*
X21259290Y-10623042D01*
X21260000Y-10637500D01*
X21260000Y-10982500D01*
X21259290Y-10996958D01*
X21257166Y-11011276D01*
X21253649Y-11025317D01*
X21248772Y-11038946D01*
X21242583Y-11052031D01*
X21235142Y-11064447D01*
X21226519Y-11076073D01*
X21216798Y-11086798D01*
X21206073Y-11096519D01*
X21194447Y-11105142D01*
X21182031Y-11112583D01*
X21168946Y-11118772D01*
X21155317Y-11123649D01*
X21141276Y-11127166D01*
X21126958Y-11129290D01*
X21112500Y-11130000D01*
X20817500Y-11130000D01*
X20803042Y-11129290D01*
X20788724Y-11127166D01*
X20774683Y-11123649D01*
X20761054Y-11118772D01*
X20747969Y-11112583D01*
X20735553Y-11105142D01*
X20723927Y-11096519D01*
X20713202Y-11086798D01*
X20703481Y-11076073D01*
X20694858Y-11064447D01*
X20687417Y-11052031D01*
X20681228Y-11038946D01*
X20676351Y-11025317D01*
X20672834Y-11011276D01*
X20670710Y-10996958D01*
X20670000Y-10982500D01*
X20670000Y-10637500D01*
X20670710Y-10623042D01*
X20672834Y-10608724D01*
X20676351Y-10594683D01*
X20681228Y-10581054D01*
X20687417Y-10567969D01*
X20694858Y-10555553D01*
X20703481Y-10543927D01*
X20713202Y-10533202D01*
X20723927Y-10523481D01*
X20735553Y-10514858D01*
X20747969Y-10507417D01*
X20761054Y-10501228D01*
X20774683Y-10496351D01*
X20788724Y-10492834D01*
X20803042Y-10490710D01*
X20817500Y-10490000D01*
X21112500Y-10490000D01*
X21126958Y-10490710D01*
X21126958Y-10490710D01*
G37*
D11*
G04 #@! TD*
G04 #@! TO.P,R20,1*
G04 #@! TO.N,/CTRL_SO*
X20965000Y-10810000D03*
D10*
G04 #@! TO.N,/E_CTRL_SI*
G04 #@! TO.C,R19*
G36*
X22096958Y-9490710D02*
X22111276Y-9492834D01*
X22125317Y-9496351D01*
X22138946Y-9501228D01*
X22152031Y-9507417D01*
X22164447Y-9514858D01*
X22176073Y-9523481D01*
X22186798Y-9533202D01*
X22196519Y-9543927D01*
X22205142Y-9555553D01*
X22212583Y-9567969D01*
X22218772Y-9581054D01*
X22223649Y-9594683D01*
X22227166Y-9608724D01*
X22229290Y-9623042D01*
X22230000Y-9637500D01*
X22230000Y-9982500D01*
X22229290Y-9996958D01*
X22227166Y-10011276D01*
X22223649Y-10025317D01*
X22218772Y-10038946D01*
X22212583Y-10052031D01*
X22205142Y-10064447D01*
X22196519Y-10076073D01*
X22186798Y-10086798D01*
X22176073Y-10096519D01*
X22164447Y-10105142D01*
X22152031Y-10112583D01*
X22138946Y-10118772D01*
X22125317Y-10123649D01*
X22111276Y-10127166D01*
X22096958Y-10129290D01*
X22082500Y-10130000D01*
X21787500Y-10130000D01*
X21773042Y-10129290D01*
X21758724Y-10127166D01*
X21744683Y-10123649D01*
X21731054Y-10118772D01*
X21717969Y-10112583D01*
X21705553Y-10105142D01*
X21693927Y-10096519D01*
X21683202Y-10086798D01*
X21673481Y-10076073D01*
X21664858Y-10064447D01*
X21657417Y-10052031D01*
X21651228Y-10038946D01*
X21646351Y-10025317D01*
X21642834Y-10011276D01*
X21640710Y-9996958D01*
X21640000Y-9982500D01*
X21640000Y-9637500D01*
X21640710Y-9623042D01*
X21642834Y-9608724D01*
X21646351Y-9594683D01*
X21651228Y-9581054D01*
X21657417Y-9567969D01*
X21664858Y-9555553D01*
X21673481Y-9543927D01*
X21683202Y-9533202D01*
X21693927Y-9523481D01*
X21705553Y-9514858D01*
X21717969Y-9507417D01*
X21731054Y-9501228D01*
X21744683Y-9496351D01*
X21758724Y-9492834D01*
X21773042Y-9490710D01*
X21787500Y-9490000D01*
X22082500Y-9490000D01*
X22096958Y-9490710D01*
X22096958Y-9490710D01*
G37*
D11*
G04 #@! TD*
G04 #@! TO.P,R19,2*
G04 #@! TO.N,/E_CTRL_SI*
X21935000Y-9810000D03*
D10*
G04 #@! TO.N,/CTRL_SI*
G04 #@! TO.C,R19*
G36*
X21126958Y-9490710D02*
X21141276Y-9492834D01*
X21155317Y-9496351D01*
X21168946Y-9501228D01*
X21182031Y-9507417D01*
X21194447Y-9514858D01*
X21206073Y-9523481D01*
X21216798Y-9533202D01*
X21226519Y-9543927D01*
X21235142Y-9555553D01*
X21242583Y-9567969D01*
X21248772Y-9581054D01*
X21253649Y-9594683D01*
X21257166Y-9608724D01*
X21259290Y-9623042D01*
X21260000Y-9637500D01*
X21260000Y-9982500D01*
X21259290Y-9996958D01*
X21257166Y-10011276D01*
X21253649Y-10025317D01*
X21248772Y-10038946D01*
X21242583Y-10052031D01*
X21235142Y-10064447D01*
X21226519Y-10076073D01*
X21216798Y-10086798D01*
X21206073Y-10096519D01*
X21194447Y-10105142D01*
X21182031Y-10112583D01*
X21168946Y-10118772D01*
X21155317Y-10123649D01*
X21141276Y-10127166D01*
X21126958Y-10129290D01*
X21112500Y-10130000D01*
X20817500Y-10130000D01*
X20803042Y-10129290D01*
X20788724Y-10127166D01*
X20774683Y-10123649D01*
X20761054Y-10118772D01*
X20747969Y-10112583D01*
X20735553Y-10105142D01*
X20723927Y-10096519D01*
X20713202Y-10086798D01*
X20703481Y-10076073D01*
X20694858Y-10064447D01*
X20687417Y-10052031D01*
X20681228Y-10038946D01*
X20676351Y-10025317D01*
X20672834Y-10011276D01*
X20670710Y-9996958D01*
X20670000Y-9982500D01*
X20670000Y-9637500D01*
X20670710Y-9623042D01*
X20672834Y-9608724D01*
X20676351Y-9594683D01*
X20681228Y-9581054D01*
X20687417Y-9567969D01*
X20694858Y-9555553D01*
X20703481Y-9543927D01*
X20713202Y-9533202D01*
X20723927Y-9523481D01*
X20735553Y-9514858D01*
X20747969Y-9507417D01*
X20761054Y-9501228D01*
X20774683Y-9496351D01*
X20788724Y-9492834D01*
X20803042Y-9490710D01*
X20817500Y-9490000D01*
X21112500Y-9490000D01*
X21126958Y-9490710D01*
X21126958Y-9490710D01*
G37*
D11*
G04 #@! TD*
G04 #@! TO.P,R19,1*
G04 #@! TO.N,/CTRL_SI*
X20965000Y-9810000D03*
D10*
G04 #@! TO.N,/E_PROC_SS*
G04 #@! TO.C,R18*
G36*
X22096958Y-6240710D02*
X22111276Y-6242834D01*
X22125317Y-6246351D01*
X22138946Y-6251228D01*
X22152031Y-6257417D01*
X22164447Y-6264858D01*
X22176073Y-6273481D01*
X22186798Y-6283202D01*
X22196519Y-6293927D01*
X22205142Y-6305553D01*
X22212583Y-6317969D01*
X22218772Y-6331054D01*
X22223649Y-6344683D01*
X22227166Y-6358724D01*
X22229290Y-6373042D01*
X22230000Y-6387500D01*
X22230000Y-6732500D01*
X22229290Y-6746958D01*
X22227166Y-6761276D01*
X22223649Y-6775317D01*
X22218772Y-6788946D01*
X22212583Y-6802031D01*
X22205142Y-6814447D01*
X22196519Y-6826073D01*
X22186798Y-6836798D01*
X22176073Y-6846519D01*
X22164447Y-6855142D01*
X22152031Y-6862583D01*
X22138946Y-6868772D01*
X22125317Y-6873649D01*
X22111276Y-6877166D01*
X22096958Y-6879290D01*
X22082500Y-6880000D01*
X21787500Y-6880000D01*
X21773042Y-6879290D01*
X21758724Y-6877166D01*
X21744683Y-6873649D01*
X21731054Y-6868772D01*
X21717969Y-6862583D01*
X21705553Y-6855142D01*
X21693927Y-6846519D01*
X21683202Y-6836798D01*
X21673481Y-6826073D01*
X21664858Y-6814447D01*
X21657417Y-6802031D01*
X21651228Y-6788946D01*
X21646351Y-6775317D01*
X21642834Y-6761276D01*
X21640710Y-6746958D01*
X21640000Y-6732500D01*
X21640000Y-6387500D01*
X21640710Y-6373042D01*
X21642834Y-6358724D01*
X21646351Y-6344683D01*
X21651228Y-6331054D01*
X21657417Y-6317969D01*
X21664858Y-6305553D01*
X21673481Y-6293927D01*
X21683202Y-6283202D01*
X21693927Y-6273481D01*
X21705553Y-6264858D01*
X21717969Y-6257417D01*
X21731054Y-6251228D01*
X21744683Y-6246351D01*
X21758724Y-6242834D01*
X21773042Y-6240710D01*
X21787500Y-6240000D01*
X22082500Y-6240000D01*
X22096958Y-6240710D01*
X22096958Y-6240710D01*
G37*
D11*
G04 #@! TD*
G04 #@! TO.P,R18,2*
G04 #@! TO.N,/E_PROC_SS*
X21935000Y-6560000D03*
D10*
G04 #@! TO.N,/PROC_SS*
G04 #@! TO.C,R18*
G36*
X21126958Y-6240710D02*
X21141276Y-6242834D01*
X21155317Y-6246351D01*
X21168946Y-6251228D01*
X21182031Y-6257417D01*
X21194447Y-6264858D01*
X21206073Y-6273481D01*
X21216798Y-6283202D01*
X21226519Y-6293927D01*
X21235142Y-6305553D01*
X21242583Y-6317969D01*
X21248772Y-6331054D01*
X21253649Y-6344683D01*
X21257166Y-6358724D01*
X21259290Y-6373042D01*
X21260000Y-6387500D01*
X21260000Y-6732500D01*
X21259290Y-6746958D01*
X21257166Y-6761276D01*
X21253649Y-6775317D01*
X21248772Y-6788946D01*
X21242583Y-6802031D01*
X21235142Y-6814447D01*
X21226519Y-6826073D01*
X21216798Y-6836798D01*
X21206073Y-6846519D01*
X21194447Y-6855142D01*
X21182031Y-6862583D01*
X21168946Y-6868772D01*
X21155317Y-6873649D01*
X21141276Y-6877166D01*
X21126958Y-6879290D01*
X21112500Y-6880000D01*
X20817500Y-6880000D01*
X20803042Y-6879290D01*
X20788724Y-6877166D01*
X20774683Y-6873649D01*
X20761054Y-6868772D01*
X20747969Y-6862583D01*
X20735553Y-6855142D01*
X20723927Y-6846519D01*
X20713202Y-6836798D01*
X20703481Y-6826073D01*
X20694858Y-6814447D01*
X20687417Y-6802031D01*
X20681228Y-6788946D01*
X20676351Y-6775317D01*
X20672834Y-6761276D01*
X20670710Y-6746958D01*
X20670000Y-6732500D01*
X20670000Y-6387500D01*
X20670710Y-6373042D01*
X20672834Y-6358724D01*
X20676351Y-6344683D01*
X20681228Y-6331054D01*
X20687417Y-6317969D01*
X20694858Y-6305553D01*
X20703481Y-6293927D01*
X20713202Y-6283202D01*
X20723927Y-6273481D01*
X20735553Y-6264858D01*
X20747969Y-6257417D01*
X20761054Y-6251228D01*
X20774683Y-6246351D01*
X20788724Y-6242834D01*
X20803042Y-6240710D01*
X20817500Y-6240000D01*
X21112500Y-6240000D01*
X21126958Y-6240710D01*
X21126958Y-6240710D01*
G37*
D11*
G04 #@! TD*
G04 #@! TO.P,R18,1*
G04 #@! TO.N,/PROC_SS*
X20965000Y-6560000D03*
D10*
G04 #@! TO.N,/CSI_D2_FP_N*
G04 #@! TO.C,R14*
G36*
X17411958Y-8470710D02*
X17426276Y-8472834D01*
X17440317Y-8476351D01*
X17453946Y-8481228D01*
X17467031Y-8487417D01*
X17479447Y-8494858D01*
X17491073Y-8503481D01*
X17501798Y-8513202D01*
X17511519Y-8523927D01*
X17520142Y-8535553D01*
X17527583Y-8547969D01*
X17533772Y-8561054D01*
X17538649Y-8574683D01*
X17542166Y-8588724D01*
X17544290Y-8603042D01*
X17545000Y-8617500D01*
X17545000Y-8912500D01*
X17544290Y-8926958D01*
X17542166Y-8941276D01*
X17538649Y-8955317D01*
X17533772Y-8968946D01*
X17527583Y-8982031D01*
X17520142Y-8994447D01*
X17511519Y-9006073D01*
X17501798Y-9016798D01*
X17491073Y-9026519D01*
X17479447Y-9035142D01*
X17467031Y-9042583D01*
X17453946Y-9048772D01*
X17440317Y-9053649D01*
X17426276Y-9057166D01*
X17411958Y-9059290D01*
X17397500Y-9060000D01*
X17052500Y-9060000D01*
X17038042Y-9059290D01*
X17023724Y-9057166D01*
X17009683Y-9053649D01*
X16996054Y-9048772D01*
X16982969Y-9042583D01*
X16970553Y-9035142D01*
X16958927Y-9026519D01*
X16948202Y-9016798D01*
X16938481Y-9006073D01*
X16929858Y-8994447D01*
X16922417Y-8982031D01*
X16916228Y-8968946D01*
X16911351Y-8955317D01*
X16907834Y-8941276D01*
X16905710Y-8926958D01*
X16905000Y-8912500D01*
X16905000Y-8617500D01*
X16905710Y-8603042D01*
X16907834Y-8588724D01*
X16911351Y-8574683D01*
X16916228Y-8561054D01*
X16922417Y-8547969D01*
X16929858Y-8535553D01*
X16938481Y-8523927D01*
X16948202Y-8513202D01*
X16958927Y-8503481D01*
X16970553Y-8494858D01*
X16982969Y-8487417D01*
X16996054Y-8481228D01*
X17009683Y-8476351D01*
X17023724Y-8472834D01*
X17038042Y-8470710D01*
X17052500Y-8470000D01*
X17397500Y-8470000D01*
X17411958Y-8470710D01*
X17411958Y-8470710D01*
G37*
D11*
G04 #@! TD*
G04 #@! TO.P,R14,2*
G04 #@! TO.N,/CSI_D2_FP_N*
X17225000Y-8765000D03*
D10*
G04 #@! TO.N,/CSI_D2_FP_P*
G04 #@! TO.C,R14*
G36*
X17411958Y-9440710D02*
X17426276Y-9442834D01*
X17440317Y-9446351D01*
X17453946Y-9451228D01*
X17467031Y-9457417D01*
X17479447Y-9464858D01*
X17491073Y-9473481D01*
X17501798Y-9483202D01*
X17511519Y-9493927D01*
X17520142Y-9505553D01*
X17527583Y-9517969D01*
X17533772Y-9531054D01*
X17538649Y-9544683D01*
X17542166Y-9558724D01*
X17544290Y-9573042D01*
X17545000Y-9587500D01*
X17545000Y-9882500D01*
X17544290Y-9896958D01*
X17542166Y-9911276D01*
X17538649Y-9925317D01*
X17533772Y-9938946D01*
X17527583Y-9952031D01*
X17520142Y-9964447D01*
X17511519Y-9976073D01*
X17501798Y-9986798D01*
X17491073Y-9996519D01*
X17479447Y-10005142D01*
X17467031Y-10012583D01*
X17453946Y-10018772D01*
X17440317Y-10023649D01*
X17426276Y-10027166D01*
X17411958Y-10029290D01*
X17397500Y-10030000D01*
X17052500Y-10030000D01*
X17038042Y-10029290D01*
X17023724Y-10027166D01*
X17009683Y-10023649D01*
X16996054Y-10018772D01*
X16982969Y-10012583D01*
X16970553Y-10005142D01*
X16958927Y-9996519D01*
X16948202Y-9986798D01*
X16938481Y-9976073D01*
X16929858Y-9964447D01*
X16922417Y-9952031D01*
X16916228Y-9938946D01*
X16911351Y-9925317D01*
X16907834Y-9911276D01*
X16905710Y-9896958D01*
X16905000Y-9882500D01*
X16905000Y-9587500D01*
X16905710Y-9573042D01*
X16907834Y-9558724D01*
X16911351Y-9544683D01*
X16916228Y-9531054D01*
X16922417Y-9517969D01*
X16929858Y-9505553D01*
X16938481Y-9493927D01*
X16948202Y-9483202D01*
X16958927Y-9473481D01*
X16970553Y-9464858D01*
X16982969Y-9457417D01*
X16996054Y-9451228D01*
X17009683Y-9446351D01*
X17023724Y-9442834D01*
X17038042Y-9440710D01*
X17052500Y-9440000D01*
X17397500Y-9440000D01*
X17411958Y-9440710D01*
X17411958Y-9440710D01*
G37*
D11*
G04 #@! TD*
G04 #@! TO.P,R14,1*
G04 #@! TO.N,/CSI_D2_FP_P*
X17225000Y-9735000D03*
D10*
G04 #@! TO.N,/CSI_D1_FP_N*
G04 #@! TO.C,R12*
G36*
X17411958Y-6690710D02*
X17426276Y-6692834D01*
X17440317Y-6696351D01*
X17453946Y-6701228D01*
X17467031Y-6707417D01*
X17479447Y-6714858D01*
X17491073Y-6723481D01*
X17501798Y-6733202D01*
X17511519Y-6743927D01*
X17520142Y-6755553D01*
X17527583Y-6767969D01*
X17533772Y-6781054D01*
X17538649Y-6794683D01*
X17542166Y-6808724D01*
X17544290Y-6823042D01*
X17545000Y-6837500D01*
X17545000Y-7132500D01*
X17544290Y-7146958D01*
X17542166Y-7161276D01*
X17538649Y-7175317D01*
X17533772Y-7188946D01*
X17527583Y-7202031D01*
X17520142Y-7214447D01*
X17511519Y-7226073D01*
X17501798Y-7236798D01*
X17491073Y-7246519D01*
X17479447Y-7255142D01*
X17467031Y-7262583D01*
X17453946Y-7268772D01*
X17440317Y-7273649D01*
X17426276Y-7277166D01*
X17411958Y-7279290D01*
X17397500Y-7280000D01*
X17052500Y-7280000D01*
X17038042Y-7279290D01*
X17023724Y-7277166D01*
X17009683Y-7273649D01*
X16996054Y-7268772D01*
X16982969Y-7262583D01*
X16970553Y-7255142D01*
X16958927Y-7246519D01*
X16948202Y-7236798D01*
X16938481Y-7226073D01*
X16929858Y-7214447D01*
X16922417Y-7202031D01*
X16916228Y-7188946D01*
X16911351Y-7175317D01*
X16907834Y-7161276D01*
X16905710Y-7146958D01*
X16905000Y-7132500D01*
X16905000Y-6837500D01*
X16905710Y-6823042D01*
X16907834Y-6808724D01*
X16911351Y-6794683D01*
X16916228Y-6781054D01*
X16922417Y-6767969D01*
X16929858Y-6755553D01*
X16938481Y-6743927D01*
X16948202Y-6733202D01*
X16958927Y-6723481D01*
X16970553Y-6714858D01*
X16982969Y-6707417D01*
X16996054Y-6701228D01*
X17009683Y-6696351D01*
X17023724Y-6692834D01*
X17038042Y-6690710D01*
X17052500Y-6690000D01*
X17397500Y-6690000D01*
X17411958Y-6690710D01*
X17411958Y-6690710D01*
G37*
D11*
G04 #@! TD*
G04 #@! TO.P,R12,2*
G04 #@! TO.N,/CSI_D1_FP_N*
X17225000Y-6985000D03*
D10*
G04 #@! TO.N,/CSI_D1_FP_P*
G04 #@! TO.C,R12*
G36*
X17411958Y-5720710D02*
X17426276Y-5722834D01*
X17440317Y-5726351D01*
X17453946Y-5731228D01*
X17467031Y-5737417D01*
X17479447Y-5744858D01*
X17491073Y-5753481D01*
X17501798Y-5763202D01*
X17511519Y-5773927D01*
X17520142Y-5785553D01*
X17527583Y-5797969D01*
X17533772Y-5811054D01*
X17538649Y-5824683D01*
X17542166Y-5838724D01*
X17544290Y-5853042D01*
X17545000Y-5867500D01*
X17545000Y-6162500D01*
X17544290Y-6176958D01*
X17542166Y-6191276D01*
X17538649Y-6205317D01*
X17533772Y-6218946D01*
X17527583Y-6232031D01*
X17520142Y-6244447D01*
X17511519Y-6256073D01*
X17501798Y-6266798D01*
X17491073Y-6276519D01*
X17479447Y-6285142D01*
X17467031Y-6292583D01*
X17453946Y-6298772D01*
X17440317Y-6303649D01*
X17426276Y-6307166D01*
X17411958Y-6309290D01*
X17397500Y-6310000D01*
X17052500Y-6310000D01*
X17038042Y-6309290D01*
X17023724Y-6307166D01*
X17009683Y-6303649D01*
X16996054Y-6298772D01*
X16982969Y-6292583D01*
X16970553Y-6285142D01*
X16958927Y-6276519D01*
X16948202Y-6266798D01*
X16938481Y-6256073D01*
X16929858Y-6244447D01*
X16922417Y-6232031D01*
X16916228Y-6218946D01*
X16911351Y-6205317D01*
X16907834Y-6191276D01*
X16905710Y-6176958D01*
X16905000Y-6162500D01*
X16905000Y-5867500D01*
X16905710Y-5853042D01*
X16907834Y-5838724D01*
X16911351Y-5824683D01*
X16916228Y-5811054D01*
X16922417Y-5797969D01*
X16929858Y-5785553D01*
X16938481Y-5773927D01*
X16948202Y-5763202D01*
X16958927Y-5753481D01*
X16970553Y-5744858D01*
X16982969Y-5737417D01*
X16996054Y-5731228D01*
X17009683Y-5726351D01*
X17023724Y-5722834D01*
X17038042Y-5720710D01*
X17052500Y-5720000D01*
X17397500Y-5720000D01*
X17411958Y-5720710D01*
X17411958Y-5720710D01*
G37*
D11*
G04 #@! TD*
G04 #@! TO.P,R12,1*
G04 #@! TO.N,/CSI_D1_FP_P*
X17225000Y-6015000D03*
D12*
G04 #@! TO.P,TP17,1*
G04 #@! TO.N,/SYS_CLK*
X16850000Y-2790800D03*
G04 #@! TD*
D15*
G04 #@! TO.N,GND*
X12550000Y-8920000D03*
X12550000Y-10720000D03*
X13800000Y-10720000D03*
X11300000Y-10720000D03*
X11300000Y-8920000D03*
X13800000Y-8920000D03*
X13800000Y-9820000D03*
X11300000Y-9820000D03*
X12550000Y-9820000D03*
X19000000Y-2520000D03*
X13150000Y-1820000D03*
X14150000Y-1820000D03*
X11650000Y-1820000D03*
X1920000Y-10860000D03*
X7710000Y-13160000D03*
X5680000Y-12820000D03*
X19440000Y-9750000D03*
X7660000Y-5490000D03*
X17140000Y-5350000D03*
X22610000Y-7470000D03*
X22220000Y-13630000D03*
X22540000Y-14740000D03*
X19525000Y-8295000D03*
X5325000Y-3920000D03*
X7530000Y-2270000D03*
X20020000Y-15980000D03*
X3302842Y-8227962D03*
X1892225Y-8096490D03*
X20230000Y-8250000D03*
X8630000Y-2110000D03*
X9640000Y-2150000D03*
X16796500Y-17027001D03*
X21630000Y-14380000D03*
X5190000Y-5400000D03*
X12760000Y-19620001D03*
X8727692Y-13206674D03*
X16310000Y-9226500D03*
X4480000Y-7982216D03*
X3983498Y-10593498D03*
X8397353Y-17377353D03*
X9523510Y-14760000D03*
X8300000Y-13790000D03*
G04 #@! TO.N,/CSI_D2_IN_P*
X10555500Y-14919442D03*
X4246500Y-9500000D03*
G04 #@! TO.N,/CSI_D2_IN_N*
X10974607Y-15334607D03*
X4853500Y-9500000D03*
G04 #@! TO.N,/CSI_D3_IN_N*
X11745393Y-14925393D03*
X5114607Y-11034607D03*
G04 #@! TO.N,/CSI_D4_IN_N*
X5114607Y-12734607D03*
X12685393Y-15205393D03*
G04 #@! TO.N,/CSI_D4_IN_P*
X4685393Y-12305393D03*
X13114607Y-15634607D03*
G04 #@! TO.N,/CSI_D4_OUT_N*
X15124607Y-14985393D03*
X17090000Y-14380000D03*
G04 #@! TO.N,/CSI_D3_OUT_N*
X15984607Y-14985393D03*
X20120000Y-10873500D03*
G04 #@! TO.N,/3V3_SYS*
X8950000Y-13690000D03*
X9078521Y-5371269D03*
X20140000Y-11450000D03*
X20172576Y-13022673D03*
X3600000Y-18430000D03*
X9120000Y-2320000D03*
X7644993Y-17811501D03*
G04 #@! TO.N,/CSI_D3_IN_P*
X12174607Y-15354607D03*
X4685393Y-10605393D03*
G04 #@! TO.N,/2V5*
X14190000Y-16930000D03*
X4500000Y-6490000D03*
X990000Y-18540000D03*
X2583500Y-6770000D03*
G04 #@! TO.N,/1V8*
X18040000Y-16906922D03*
X11980000Y-17120000D03*
G04 #@! TO.N,/CSI_D4_OUT_P*
X14695393Y-15414607D03*
X16460000Y-14380000D03*
G04 #@! TO.N,/CSI_D3_OUT_P*
X15555393Y-15414607D03*
X20120000Y-10266500D03*
G04 #@! TO.N,/1V2*
X13170000Y-14860000D03*
X12493112Y-16763112D03*
G04 #@! TO.N,/LED3_ISINK*
X13343438Y-12476562D03*
X16710000Y-17660000D03*
X1980000Y-10310000D03*
G04 #@! TO.N,/LED1_ISINK*
X12170000Y-12390000D03*
X14150000Y-17570000D03*
X1892445Y-9190000D03*
G04 #@! TO.N,Net-(U1-PadM3)*
X11500000Y-11750000D03*
G04 #@! TO.N,/TMS*
X12770000Y-11870000D03*
X1856490Y-6184810D03*
G04 #@! TO.N,/VSENSE*
X12160000Y-11750000D03*
G04 #@! TO.N,/1V8_SYS*
X2390000Y-13480000D03*
X20090000Y-15340000D03*
G04 #@! TO.N,/LED2_ISINK*
X12756275Y-12476215D03*
X15400000Y-17570000D03*
X1900000Y-9750000D03*
G04 #@! TO.N,/EXTCLK_EN*
X10868367Y-11750000D03*
X7583257Y-17283083D03*
G04 #@! TO.N,/TDO*
X13690000Y-11780000D03*
X1814989Y-5628390D03*
G04 #@! TO.N,/3V3*
X8483978Y-12263510D03*
X21130000Y-16390000D03*
X2720000Y-18541491D03*
X2840000Y-19448500D03*
X8200000Y-15920000D03*
G04 #@! TO.N,/TDI*
X3390000Y-7650000D03*
X17177472Y-16347472D03*
G04 #@! TO.N,/PC_RDY*
X8387700Y-12786738D03*
X5150000Y-16280000D03*
G04 #@! TO.N,/TCK*
X20160000Y-12110000D03*
X1856490Y-6720000D03*
G04 #@! TO.N,/CSI_D2_OUT_N*
X16045393Y-11874607D03*
X21790000Y-8790000D03*
G04 #@! TO.N,/EXT_CLK*
X4410000Y-15540000D03*
X8110000Y-14340000D03*
G04 #@! TO.N,/I2C_0_SCL*
X14321498Y-11730000D03*
X4232064Y-11938786D03*
G04 #@! TO.N,/CSI_D2_OUT_P*
X16474607Y-11445393D03*
X21420000Y-8300000D03*
G04 #@! TO.N,/PWR_BTN*
X2451479Y-9990000D03*
G04 #@! TO.N,/I2C_0_SDA*
X17653618Y-10900000D03*
X2400000Y-11570000D03*
X4137647Y-12462353D03*
G04 #@! TO.N,/CSI_D1_IN_N*
X7505393Y-10444607D03*
X3000000Y-5850000D03*
G04 #@! TO.N,/CSI_D1_OUT_N*
X16195393Y-10504607D03*
X20930000Y-7920000D03*
G04 #@! TO.N,/CSI_D1_IN_P*
X7934607Y-10015393D03*
X3420000Y-5420000D03*
G04 #@! TO.N,/CSI_CLK_IN_P*
X8764607Y-9125393D03*
X4710000Y-3890000D03*
G04 #@! TO.N,/CSI_CLK_IN_N*
X8335393Y-9554607D03*
X4080000Y-3890000D03*
G04 #@! TO.N,/CSI_CLK_OUT_N*
X19974607Y-5974607D03*
X16376444Y-7882942D03*
G04 #@! TO.N,/CTRL_SO*
X22354377Y-8565698D03*
X2451479Y-14980000D03*
G04 #@! TO.N,/CTRL_SI*
X20320000Y-9580000D03*
X2451479Y-14040000D03*
G04 #@! TO.N,/CSI_OE*
X16570000Y-7020000D03*
X19830000Y-4220000D03*
G04 #@! TO.N,/CTRL_SCK*
X21590000Y-13680000D03*
X2970000Y-7220000D03*
X2210030Y-15769970D03*
X5458807Y-8151381D03*
G04 #@! TO.N,/CSI_CLK_OUT_P*
X16460000Y-8423500D03*
X19545393Y-5545393D03*
G04 #@! TO.N,/1V2_SYS_A*
X3963500Y-11160000D03*
X9094875Y-17769671D03*
X9410000Y-16481500D03*
X3273029Y-8779529D03*
G04 #@! TO.N,Net-(U1-PadD8)*
X14125000Y-8205000D03*
G04 #@! TO.N,/ULPM_WAKE*
X10875000Y-8220000D03*
X3500000Y-3020000D03*
G04 #@! TO.N,/PIO3*
X15850000Y-5210000D03*
X3850000Y-2120000D03*
G04 #@! TO.N,/2V5_SYS*
X3900000Y-7970000D03*
X3950000Y-14050000D03*
G04 #@! TO.N,/CSI_CLK_FP_N*
X16942947Y-7626529D03*
X17610000Y-4840000D03*
G04 #@! TO.N,/CSI_CLK_FP_P*
X8630000Y-7340000D03*
X16901453Y-3592653D03*
X8020000Y-2586500D03*
G04 #@! TO.N,/CSI_INT*
X13475000Y-8200000D03*
X2000000Y-2920000D03*
X3040000Y-6460000D03*
X15930000Y-2160000D03*
G04 #@! TO.N,/CTRL_OUT*
X11870000Y-4510000D03*
G04 #@! TO.N,/USB_D_N*
X13480000Y-5220000D03*
X4795075Y-14828425D03*
G04 #@! TO.N,/USB_D_P*
X13680000Y-4610000D03*
X4238075Y-14828425D03*
G04 #@! TO.N,/DBG_TX*
X15020000Y-4090000D03*
X1856490Y-7319481D03*
G04 #@! TO.N,/PROC_SCK*
X12175000Y-7525000D03*
X19650000Y-4820000D03*
X18225000Y-2922479D03*
G04 #@! TO.N,/MIPI_SEL*
X12850000Y-8225000D03*
X10460000Y-1100000D03*
G04 #@! TO.N,/PROC_SI*
X12825000Y-7525000D03*
X20400000Y-3570000D03*
G04 #@! TO.N,/PROC_OUT_0*
X10412988Y-4893263D03*
G04 #@! TO.N,/PROC_OUT_1*
X9870000Y-4910000D03*
G04 #@! TO.N,/I2C_1_SDA*
X14896480Y-5153657D03*
X2390000Y-12800000D03*
G04 #@! TO.N,/PROC_OUT_2*
X9330000Y-4890000D03*
G04 #@! TO.N,/USB_DET*
X11377176Y-4309597D03*
X2780000Y-16660000D03*
G04 #@! TO.N,/CTRL_SS*
X8599687Y-6808853D03*
X20960000Y-13660000D03*
X3926500Y-5180000D03*
G04 #@! TO.N,/PIO1*
X11475000Y-8215000D03*
X4200000Y-2591490D03*
G04 #@! TO.N,/CTRL_RST*
X12175000Y-8210000D03*
G04 #@! TO.N,/I2C_1_SCL*
X15400000Y-4520000D03*
X2400000Y-12190000D03*
X15762245Y-3108520D03*
G04 #@! TO.N,/1V2_SYS_B*
X8410000Y-19468500D03*
X22710000Y-18520000D03*
X12460000Y-1950000D03*
G04 #@! TO.N,/DONE*
X14460334Y-4827751D03*
X22870000Y-12560000D03*
X21225037Y-2944963D03*
G04 #@! TO.N,/DBG_RX*
X14310000Y-4210000D03*
X2420820Y-8034694D03*
G04 #@! TO.N,/PIO2*
X10600000Y-4390000D03*
X6580000Y-1170000D03*
G04 #@! TO.N,/PROC_SS*
X13340000Y-4100000D03*
X22025000Y-7320000D03*
G04 #@! TO.N,/PROC_RST*
X11120000Y-4820000D03*
G04 #@! TO.N,/PROC_SO*
X12596490Y-4820000D03*
X20400000Y-4570000D03*
G04 #@! TO.N,/VUSB*
X4906397Y-15348649D03*
X4707640Y-15980949D03*
G04 #@! TO.N,/1V2_SYS*
X1920000Y-13150000D03*
X880000Y-2500000D03*
X1780000Y-18541490D03*
G04 #@! TO.N,/CSI_D1_OUT_P*
X16624607Y-10075393D03*
X21380000Y-7470000D03*
G04 #@! TO.N,/E_PROC_SI*
X22710000Y-3690000D03*
G04 #@! TO.N,/E_PROC_SO*
X22560000Y-4690000D03*
G04 #@! TO.N,/E_PROC_SCK*
X22750000Y-6240000D03*
G04 #@! TO.N,/E_PROC_SS*
X22700000Y-6910000D03*
G04 #@! TO.N,/E_CTRL_SI*
X22920000Y-8500000D03*
G04 #@! TO.N,/E_CTRL_SO*
X22900000Y-9110000D03*
G04 #@! TO.N,/E_CTRL_SCK*
X22890000Y-9770000D03*
G04 #@! TO.N,/E_CTRL_SS*
X22940000Y-10490000D03*
G04 #@! TD*
D10*
G04 #@! TO.N,GND*
X10225000Y-13825000D02*
X10160000Y-13890000D01*
X10225000Y-13575000D02*
X10225000Y-13825000D01*
X10225000Y-14475000D02*
X10020000Y-14680000D01*
X10225000Y-14225000D02*
X10225000Y-14475000D01*
X19015000Y-2535000D02*
X19000000Y-2520000D01*
X19015000Y-3215000D02*
X19015000Y-2535000D01*
X13170000Y-1840000D02*
X13150000Y-1820000D01*
X13170000Y-2515000D02*
X13170000Y-1840000D01*
X14180000Y-1850000D02*
X14150000Y-1820000D01*
X14180000Y-2515000D02*
X14180000Y-1850000D01*
X11750000Y-1920000D02*
X11650000Y-1820000D01*
X11750000Y-2565000D02*
X11750000Y-1920000D01*
X7725000Y-13145000D02*
X7710000Y-13160000D01*
X7725000Y-12590000D02*
X7725000Y-13145000D01*
X9630000Y-14680000D02*
X9630000Y-14730000D01*
X10020000Y-14680000D02*
X9630000Y-14680000D01*
X7625000Y-5525000D02*
X7660000Y-5490000D01*
X7625000Y-6720000D02*
X7625000Y-5525000D01*
X18900000Y-15020000D02*
X19430000Y-15550000D01*
X18900000Y-14625000D02*
X18900000Y-15020000D01*
X17850000Y-14625000D02*
X17850000Y-14626500D01*
X17820000Y-11575000D02*
X18450000Y-11575000D01*
X17400000Y-11575000D02*
X17820000Y-11575000D01*
X18450000Y-11575000D02*
X18450000Y-11180000D01*
X18450000Y-11180000D02*
X18450000Y-9720000D01*
X18450000Y-9720000D02*
X18970000Y-9200000D01*
X18970000Y-9200000D02*
X19920000Y-9200000D01*
X19920000Y-9200000D02*
X20300000Y-8820000D01*
X20300000Y-8820000D02*
X20300000Y-8320000D01*
X20300000Y-8320000D02*
X20230000Y-8250000D01*
X8650000Y-2670000D02*
X8650000Y-2570000D01*
X8650000Y-3220000D02*
X8650000Y-2670000D01*
X9670000Y-2680000D02*
X9670000Y-2590000D01*
X9670000Y-3220000D02*
X9670000Y-2680000D01*
X8650000Y-2130000D02*
X8630000Y-2110000D01*
X8650000Y-2450000D02*
X8650000Y-2130000D01*
X8650000Y-2450000D02*
X8650000Y-2350000D01*
X8650000Y-2670000D02*
X8650000Y-2450000D01*
X9670000Y-2420000D02*
X9670000Y-2180000D01*
X9670000Y-2420000D02*
X9670000Y-2370000D01*
X9670000Y-2180000D02*
X9640000Y-2150000D01*
X9670000Y-2680000D02*
X9670000Y-2420000D01*
X17850000Y-16296648D02*
X17119647Y-17027001D01*
X17119647Y-17027001D02*
X16796500Y-17027001D01*
X17850000Y-14625000D02*
X17850000Y-16296648D01*
X19590000Y-15550000D02*
X20020000Y-15980000D01*
X19430000Y-15550000D02*
X19590000Y-15550000D01*
D16*
X6575000Y-6720000D02*
X6575000Y-6325000D01*
X6575000Y-6325000D02*
X6320000Y-6070000D01*
X6320000Y-5700000D02*
X6280000Y-5660000D01*
X6320000Y-6070000D02*
X6320000Y-5700000D01*
X6320000Y-5700000D02*
X6320000Y-5690000D01*
X6320000Y-5690000D02*
X6030000Y-5400000D01*
X6030000Y-5400000D02*
X5190000Y-5400000D01*
X12234999Y-19095000D02*
X12760000Y-19620001D01*
X11850000Y-19095000D02*
X12234999Y-19095000D01*
D10*
X9140000Y-12925000D02*
X9025000Y-12925000D01*
X9575000Y-12925000D02*
X9140000Y-12925000D01*
X8743326Y-13206674D02*
X8727692Y-13206674D01*
X9025000Y-12925000D02*
X8743326Y-13206674D01*
X5462500Y-8655000D02*
X4907500Y-8100000D01*
X6640000Y-8655000D02*
X5462500Y-8655000D01*
X4597784Y-8100000D02*
X4480000Y-7982216D01*
X4907500Y-8100000D02*
X4597784Y-8100000D01*
X8625852Y-17148854D02*
X8397353Y-17377353D01*
X8939706Y-16835000D02*
X8397353Y-17377353D01*
X9430000Y-16835000D02*
X8939706Y-16835000D01*
X9275000Y-16835000D02*
X9430000Y-16835000D01*
X9430000Y-16835000D02*
X10200000Y-16835000D01*
X9530000Y-14680000D02*
X9530000Y-14753510D01*
X9530000Y-14753510D02*
X9523510Y-14760000D01*
X9630000Y-14680000D02*
X9530000Y-14680000D01*
X9560000Y-13890000D02*
X9320000Y-13890000D01*
X10160000Y-13890000D02*
X9560000Y-13890000D01*
X9560000Y-13890000D02*
X9370000Y-13890000D01*
X9320000Y-13890000D02*
X9080000Y-14130000D01*
X9080000Y-14130000D02*
X8640000Y-14130000D01*
X8640000Y-14130000D02*
X8300000Y-13790000D01*
D17*
G04 #@! TO.N,/CSI_D2_IN_P*
X10783999Y-14690943D02*
X10555500Y-14919442D01*
X10875000Y-14225000D02*
X10875000Y-14599942D01*
X10875000Y-14599942D02*
X10783999Y-14690943D01*
G04 #@! TO.N,/CSI_D2_IN_N*
X11525000Y-14225000D02*
X11385000Y-14225000D01*
X11385000Y-14225000D02*
X11070000Y-14540000D01*
X11070000Y-14540000D02*
X11070000Y-14780000D01*
D10*
X10974607Y-14875393D02*
X10974607Y-15334607D01*
X11070000Y-14780000D02*
X10974607Y-14875393D01*
D17*
G04 #@! TO.N,/CSI_D3_IN_N*
X12175000Y-14225000D02*
X12175000Y-14776507D01*
X12026114Y-14925393D02*
X11745393Y-14925393D01*
X12175000Y-14776507D02*
X12026114Y-14925393D01*
G04 #@! TO.N,/CSI_D4_IN_N*
X12800000Y-14250000D02*
X12825000Y-14225000D01*
X12800000Y-15090786D02*
X12800000Y-14250000D01*
X12685393Y-15205393D02*
X12800000Y-15090786D01*
G04 #@! TO.N,/CSI_D4_IN_P*
X13475000Y-14225000D02*
X13475000Y-14485000D01*
X13528502Y-15220712D02*
X13343106Y-15406108D01*
X13475000Y-14485000D02*
X13528502Y-14538502D01*
X13528502Y-14538502D02*
X13528502Y-15220712D01*
X13343106Y-15406108D02*
X13114607Y-15634607D01*
G04 #@! TO.N,/CSI_D4_OUT_N*
X14945393Y-14985393D02*
X15124607Y-14985393D01*
X14775000Y-14815000D02*
X14945393Y-14985393D01*
X14775000Y-14225000D02*
X14775000Y-14815000D01*
G04 #@! TO.N,/CSI_D3_OUT_N*
X15425000Y-14225000D02*
X15425000Y-14485000D01*
X15425000Y-14485000D02*
X15925393Y-14985393D01*
X15925393Y-14985393D02*
X15984607Y-14985393D01*
D16*
G04 #@! TO.N,/3V3_SYS*
X17265000Y-12680000D02*
X17400000Y-12545000D01*
X15830000Y-12680000D02*
X17265000Y-12680000D01*
X15425000Y-12275000D02*
X15830000Y-12680000D01*
D10*
X17820000Y-12545000D02*
X18450000Y-12545000D01*
X17400000Y-12545000D02*
X17820000Y-12545000D01*
X13475000Y-13325000D02*
X13410000Y-13260000D01*
X13475000Y-13575000D02*
X13475000Y-13325000D01*
X9384998Y-13260000D02*
X9264998Y-13380000D01*
X13410000Y-13260000D02*
X9384998Y-13260000D01*
X9264998Y-13380000D02*
X9260000Y-13380000D01*
X9260000Y-13380000D02*
X8950000Y-13690000D01*
X9078521Y-5694416D02*
X9078521Y-5371269D01*
X9575000Y-6425000D02*
X9325000Y-6425000D01*
X9325000Y-6425000D02*
X9078521Y-6178521D01*
X9078521Y-6178521D02*
X9078521Y-5694416D01*
X19490000Y-11575000D02*
X20015000Y-11575000D01*
X20015000Y-11575000D02*
X20140000Y-11450000D01*
X20165249Y-13030000D02*
X20172576Y-13022673D01*
X18935000Y-13030000D02*
X20165249Y-13030000D01*
X18450000Y-12545000D02*
X18935000Y-13030000D01*
D17*
G04 #@! TO.N,/CSI_D3_IN_P*
X12174607Y-15073886D02*
X12174607Y-15354607D01*
X12385000Y-14863493D02*
X12174607Y-15073886D01*
X12455001Y-14479001D02*
X12385000Y-14549002D01*
X12175000Y-13575000D02*
X12455001Y-13855001D01*
X12455001Y-13855001D02*
X12455001Y-14479001D01*
X12385000Y-14549002D02*
X12385000Y-14863493D01*
D10*
G04 #@! TO.N,/VDDANA*
X10255000Y-15695000D02*
X10255000Y-16090000D01*
X10120000Y-15560000D02*
X10255000Y-15695000D01*
X10875000Y-13575000D02*
X10625000Y-13575000D01*
X10625000Y-13575000D02*
X10540000Y-13660000D01*
X10540000Y-13660000D02*
X10540000Y-14435002D01*
X10540000Y-14435002D02*
X10120000Y-14855002D01*
X10120000Y-14855002D02*
X10120000Y-14960000D01*
X10120000Y-14960000D02*
X10120000Y-15560000D01*
X7705000Y-15450000D02*
X7495000Y-15660000D01*
X9720000Y-15450000D02*
X7705000Y-15450000D01*
X10120000Y-15050000D02*
X9720000Y-15450000D01*
X10120000Y-14960000D02*
X10120000Y-15050000D01*
G04 #@! TO.N,/2V5*
X13875000Y-13575000D02*
X13810000Y-13640000D01*
X14125000Y-13575000D02*
X13875000Y-13575000D01*
X13810000Y-13640000D02*
X13810000Y-14690000D01*
X13810000Y-14690000D02*
X13810000Y-16580000D01*
X13810000Y-16580000D02*
X14070000Y-16840000D01*
X14160000Y-16930000D02*
X14190000Y-16930000D01*
X14070000Y-16840000D02*
X14160000Y-16930000D01*
D16*
X4730000Y-6720000D02*
X4500000Y-6490000D01*
X5575000Y-6720000D02*
X4730000Y-6720000D01*
X2355001Y-7381152D02*
X2038171Y-7697982D01*
X2355001Y-6998499D02*
X2355001Y-7381152D01*
X2583500Y-6770000D02*
X2355001Y-6998499D01*
X2038171Y-7697982D02*
X1482018Y-7697982D01*
X1482018Y-7697982D02*
X700000Y-8480000D01*
X700000Y-18250000D02*
X990000Y-18540000D01*
X700000Y-8480000D02*
X700000Y-18250000D01*
D10*
G04 #@! TO.N,/1V8*
X11775000Y-13575000D02*
X11840000Y-13640000D01*
X11525000Y-13575000D02*
X11775000Y-13575000D01*
X11840000Y-14435002D02*
X11725002Y-14550000D01*
X11840000Y-13640000D02*
X11840000Y-14435002D01*
X11725002Y-14550000D02*
X11530000Y-14550000D01*
X11530000Y-14550000D02*
X11340000Y-14740000D01*
X11340000Y-14740000D02*
X11340000Y-15290000D01*
X11340000Y-15290000D02*
X11980000Y-15930000D01*
X11980000Y-15930000D02*
X11980000Y-17120000D01*
X18363147Y-16906922D02*
X18840069Y-16430000D01*
X18040000Y-16906922D02*
X18363147Y-16906922D01*
X18840069Y-16430000D02*
X20220000Y-16430000D01*
X20220000Y-16430000D02*
X20940000Y-15710000D01*
X20940000Y-14645000D02*
X19950000Y-13655000D01*
X20940000Y-15710000D02*
X20940000Y-14645000D01*
D17*
G04 #@! TO.N,/CSI_D4_OUT_P*
X14695393Y-15133886D02*
X14695393Y-15414607D01*
X14565001Y-15003494D02*
X14695393Y-15133886D01*
X14775000Y-13575000D02*
X14494999Y-13855001D01*
X14565000Y-14549002D02*
X14565001Y-15003494D01*
X14494999Y-13855001D02*
X14494999Y-14479001D01*
X14494999Y-14479001D02*
X14565000Y-14549002D01*
G04 #@! TO.N,/CSI_D3_OUT_P*
X15425000Y-13575000D02*
X15409999Y-13575000D01*
X15144999Y-13840000D02*
X15144999Y-14479001D01*
X15555393Y-15091460D02*
X15555393Y-15414607D01*
X15409999Y-13575000D02*
X15144999Y-13840000D01*
X15555393Y-14889395D02*
X15555393Y-15091460D01*
X15144999Y-14479001D02*
X15555393Y-14889395D01*
D10*
G04 #@! TO.N,/1V2*
X13075000Y-13575000D02*
X13180000Y-13680000D01*
X12825000Y-13575000D02*
X13075000Y-13575000D01*
X13180000Y-13680000D02*
X13180000Y-14611913D01*
X13180000Y-14850000D02*
X13170000Y-14860000D01*
X13180000Y-14611913D02*
X13180000Y-14850000D01*
X12493112Y-16751888D02*
X12493112Y-16763112D01*
X13060000Y-16605000D02*
X12640000Y-16605000D01*
X12640000Y-16605000D02*
X12493112Y-16751888D01*
G04 #@! TO.N,/LED3_ISINK*
X13475000Y-12535000D02*
X13420000Y-12480000D01*
X13475000Y-12925000D02*
X13475000Y-12535000D01*
X16700000Y-17520000D02*
X16700000Y-18640800D01*
X16700000Y-18640800D02*
X16730000Y-18670800D01*
G04 #@! TO.N,/LED1_ISINK*
X12175000Y-12395000D02*
X12170000Y-12390000D01*
X12175000Y-12925000D02*
X12175000Y-12395000D01*
X14150000Y-18650800D02*
X14140000Y-18660800D01*
X14150000Y-17570000D02*
X14150000Y-18650800D01*
G04 #@! TO.N,Net-(U1-PadM3)*
X10875000Y-12925000D02*
X11310000Y-12490000D01*
X11310000Y-11880000D02*
X11400000Y-11790000D01*
X11310000Y-12490000D02*
X11310000Y-11880000D01*
G04 #@! TO.N,/TMS*
X13093147Y-11870000D02*
X12770000Y-11870000D01*
X14125000Y-12758184D02*
X13236816Y-11870000D01*
X13236816Y-11870000D02*
X13093147Y-11870000D01*
X14125000Y-12925000D02*
X14125000Y-12758184D01*
G04 #@! TO.N,/VSENSE*
X11525000Y-12675000D02*
X11530000Y-12670000D01*
X11525000Y-12925000D02*
X11525000Y-12675000D01*
X11530000Y-12670000D02*
X11530000Y-12260000D01*
X11970000Y-11820000D02*
X11970000Y-11810000D01*
X11530000Y-12260000D02*
X11970000Y-11820000D01*
D16*
G04 #@! TO.N,/1V8_SYS*
X16940000Y-12925000D02*
X17670000Y-13655000D01*
X15425000Y-12925000D02*
X16940000Y-12925000D01*
D10*
X18270000Y-13655000D02*
X18900000Y-13655000D01*
X17850000Y-13655000D02*
X18270000Y-13655000D01*
X19870000Y-14625000D02*
X19950000Y-14625000D01*
X18900000Y-13655000D02*
X19870000Y-14625000D01*
X19950000Y-15200000D02*
X20090000Y-15340000D01*
X19950000Y-14625000D02*
X19950000Y-15200000D01*
G04 #@! TO.N,/LED2_ISINK*
X12825000Y-12375000D02*
X12830000Y-12370000D01*
X12825000Y-12925000D02*
X12825000Y-12375000D01*
X15400000Y-18640800D02*
X15430000Y-18670800D01*
X15400000Y-17570000D02*
X15400000Y-18640800D01*
G04 #@! TO.N,/EXTCLK_EN*
X10875000Y-11776572D02*
X10868367Y-11769939D01*
X10875000Y-12275000D02*
X10875000Y-11776572D01*
X7575540Y-17290800D02*
X7583257Y-17283083D01*
X6520000Y-17290800D02*
X7575540Y-17290800D01*
G04 #@! TO.N,/TDO*
X14058499Y-12168499D02*
X13830000Y-11940000D01*
X14125000Y-12235000D02*
X14058499Y-12168499D01*
X14125000Y-12275000D02*
X14125000Y-12235000D01*
G04 #@! TO.N,/3V3*
X8495468Y-12275000D02*
X8483978Y-12263510D01*
X9575000Y-12275000D02*
X8495468Y-12275000D01*
D16*
X21160000Y-16360000D02*
X21130000Y-16390000D01*
X21160000Y-16320000D02*
X21160000Y-16360000D01*
D10*
X21160000Y-14600000D02*
X21160000Y-16320000D01*
X20245000Y-12545000D02*
X20544990Y-12844990D01*
X20544990Y-12844990D02*
X20544990Y-13984990D01*
X19490000Y-12545000D02*
X20245000Y-12545000D01*
X20544990Y-13984990D02*
X21160000Y-14600000D01*
D16*
X8108501Y-17883287D02*
X8108501Y-17714818D01*
X7971501Y-17577818D02*
X7971501Y-16148499D01*
X7146799Y-18844989D02*
X8108501Y-17883287D01*
X8108501Y-17714818D02*
X7971501Y-17577818D01*
X3023498Y-18844989D02*
X7146799Y-18844989D01*
X2720000Y-18541491D02*
X3023498Y-18844989D01*
X7971501Y-16148499D02*
X8200000Y-15920000D01*
D10*
G04 #@! TO.N,/TDI*
X17177472Y-16024325D02*
X17177472Y-16347472D01*
X14775000Y-12275000D02*
X15025000Y-12275000D01*
X15025000Y-12275000D02*
X15100000Y-12350000D01*
X15100000Y-12350000D02*
X15100000Y-13125002D01*
X15650000Y-13220000D02*
X15900000Y-13470000D01*
X15900000Y-13470000D02*
X15900000Y-14320000D01*
X15100000Y-13125002D02*
X15194998Y-13220000D01*
X15900000Y-14320000D02*
X17177472Y-15597472D01*
X15194998Y-13220000D02*
X15650000Y-13220000D01*
X17177472Y-15597472D02*
X17177472Y-16024325D01*
G04 #@! TO.N,/PC_RDY*
X10225000Y-12525000D02*
X10183502Y-12566498D01*
X8454833Y-12786738D02*
X8387700Y-12786738D01*
X10183502Y-12566498D02*
X8675073Y-12566498D01*
X10225000Y-12275000D02*
X10225000Y-12525000D01*
X8675073Y-12566498D02*
X8454833Y-12786738D01*
X5010000Y-17290800D02*
X5010000Y-16170000D01*
G04 #@! TO.N,/TCK*
X14899999Y-11999999D02*
X15659999Y-11999999D01*
X14775000Y-11875000D02*
X14899999Y-11999999D01*
X14775000Y-11625000D02*
X14775000Y-11875000D01*
X15659999Y-11999999D02*
X16030000Y-12370000D01*
X16869612Y-12370000D02*
X17129612Y-12110000D01*
X16030000Y-12370000D02*
X16869612Y-12370000D01*
X17129612Y-12110000D02*
X20160000Y-12110000D01*
G04 #@! TO.N,/VBATH*
X7730000Y-11625000D02*
X7725000Y-11620000D01*
X9575000Y-11625000D02*
X7730000Y-11625000D01*
X7150832Y-14235832D02*
X7485000Y-14570000D01*
X6924990Y-14009990D02*
X7150832Y-14235832D01*
X6924990Y-12000010D02*
X6924990Y-14009990D01*
X7305000Y-11620000D02*
X6924990Y-12000010D01*
X7725000Y-11620000D02*
X7305000Y-11620000D01*
D17*
G04 #@! TO.N,/CSI_D2_OUT_N*
X16045393Y-11593886D02*
X16045393Y-11874607D01*
X15856507Y-11405000D02*
X16045393Y-11593886D01*
X15645000Y-11405000D02*
X15856507Y-11405000D01*
X15425000Y-11625000D02*
X15645000Y-11405000D01*
D10*
G04 #@! TO.N,/EXT_CLK*
X10225000Y-11875000D02*
X10190000Y-11910000D01*
X10225000Y-11625000D02*
X10225000Y-11875000D01*
X8140388Y-11910000D02*
X7960388Y-12090000D01*
X10190000Y-11910000D02*
X8140388Y-11910000D01*
X7960388Y-12090000D02*
X7290000Y-12090000D01*
X7290000Y-12090000D02*
X7100000Y-12280000D01*
X7100000Y-12280000D02*
X7100000Y-12990000D01*
X7100000Y-12990000D02*
X7100000Y-13400000D01*
X7100000Y-13400000D02*
X8130000Y-14430000D01*
X8130000Y-14430000D02*
X8190000Y-14490000D01*
X4079999Y-16790801D02*
X3580000Y-17290800D01*
X4115010Y-16755790D02*
X4079999Y-16790801D01*
X4115010Y-15834990D02*
X4115010Y-16755790D01*
X4410000Y-15540000D02*
X4115010Y-15834990D01*
G04 #@! TO.N,/I2C_0_SCL*
X14525000Y-10975000D02*
X14430000Y-11070000D01*
X14775000Y-10975000D02*
X14525000Y-10975000D01*
X14430000Y-11621498D02*
X14321498Y-11730000D01*
X14430000Y-11070000D02*
X14430000Y-11621498D01*
G04 #@! TO.N,/ZIP_EN_L*
X2200000Y-16583694D02*
X2200000Y-17290800D01*
X8800000Y-11320000D02*
X8679990Y-11199990D01*
X3150000Y-10570000D02*
X3150000Y-15633694D01*
X10130000Y-11320000D02*
X8800000Y-11320000D01*
X3500000Y-10220000D02*
X3150000Y-10570000D01*
X10225000Y-11225000D02*
X10130000Y-11320000D01*
X8679990Y-11199990D02*
X6012488Y-11199990D01*
X6012488Y-11199990D02*
X5032498Y-10220000D01*
X5032498Y-10220000D02*
X3500000Y-10220000D01*
X10225000Y-10975000D02*
X10225000Y-11225000D01*
X3150000Y-15633694D02*
X2200000Y-16583694D01*
D17*
G04 #@! TO.N,/CSI_D2_OUT_P*
X15645000Y-11195000D02*
X15943493Y-11195000D01*
X16193886Y-11445393D02*
X16474607Y-11445393D01*
X15425000Y-10975000D02*
X15645000Y-11195000D01*
X15943493Y-11195000D02*
X16193886Y-11445393D01*
D10*
G04 #@! TO.N,/PWR_BTN*
X2774626Y-9990000D02*
X2451479Y-9990000D01*
X5050000Y-9990000D02*
X2774626Y-9990000D01*
X6035000Y-10975000D02*
X5050000Y-9990000D01*
X9575000Y-10975000D02*
X6035000Y-10975000D01*
G04 #@! TO.N,/I2C_0_SDA*
X15650000Y-10600000D02*
X16070000Y-11020000D01*
X15050000Y-10600000D02*
X15650000Y-10600000D01*
X16070000Y-11020000D02*
X16690000Y-11020000D01*
X14775000Y-10325000D02*
X15050000Y-10600000D01*
X17533618Y-11020000D02*
X17653618Y-10900000D01*
X16690000Y-11020000D02*
X17533618Y-11020000D01*
D17*
G04 #@! TO.N,/CSI_D1_IN_N*
X10225000Y-10325000D02*
X9944999Y-10605001D01*
X9944999Y-10605001D02*
X9320999Y-10605001D01*
X7876507Y-10535000D02*
X7786114Y-10444607D01*
X9320999Y-10605001D02*
X9250998Y-10535000D01*
X7786114Y-10444607D02*
X7505393Y-10444607D01*
X9250998Y-10535000D02*
X7876507Y-10535000D01*
G04 #@! TO.N,/CSI_D1_OUT_N*
X15425000Y-10325000D02*
X15650001Y-10325000D01*
X15870001Y-10105000D02*
X16076507Y-10105000D01*
X16076507Y-10105000D02*
X16195393Y-10223886D01*
X15650001Y-10325000D02*
X15870001Y-10105000D01*
X16195393Y-10223886D02*
X16195393Y-10504607D01*
G04 #@! TO.N,/CSI_D1_IN_P*
X7934607Y-10296114D02*
X7934607Y-10015393D01*
X9575000Y-10325000D02*
X7963493Y-10325000D01*
X7963493Y-10325000D02*
X7934607Y-10296114D01*
D10*
X3800000Y-5800000D02*
X3420000Y-5420000D01*
X3800000Y-6075000D02*
X3800000Y-5800000D01*
G04 #@! TO.N,/CSI_D2_FP_P*
X15000000Y-9350000D02*
X14775000Y-9575000D01*
X14775000Y-9575000D02*
X14775000Y-9675000D01*
X15850000Y-9350000D02*
X15000000Y-9350000D01*
X17070000Y-9580000D02*
X17225000Y-9735000D01*
X16080000Y-9580000D02*
X17070000Y-9580000D01*
X15850000Y-9350000D02*
X16080000Y-9580000D01*
D17*
G04 #@! TO.N,/CSI_CLK_IN_P*
X8823493Y-9465000D02*
X8764607Y-9406114D01*
X8764607Y-9406114D02*
X8764607Y-9125393D01*
X10225000Y-9675000D02*
X9944999Y-9394999D01*
X9320999Y-9394999D02*
X9250998Y-9465000D01*
X9944999Y-9394999D02*
X9320999Y-9394999D01*
X9250998Y-9465000D02*
X8823493Y-9465000D01*
G04 #@! TO.N,/CSI_CLK_IN_N*
X8616114Y-9554607D02*
X8335393Y-9554607D01*
X8736507Y-9675000D02*
X8616114Y-9554607D01*
X9575000Y-9675000D02*
X8736507Y-9675000D01*
G04 #@! TO.N,/CSI_CLK_OUT_N*
X15921239Y-8015000D02*
X16053297Y-7882942D01*
X15144999Y-8134575D02*
X15264575Y-8015000D01*
X16053297Y-7882942D02*
X16376444Y-7882942D01*
X15035000Y-9025000D02*
X15144999Y-8915001D01*
X15144999Y-8915001D02*
X15144999Y-8134575D01*
X14775000Y-9025000D02*
X15035000Y-9025000D01*
X15264575Y-8015000D02*
X15921239Y-8015000D01*
D10*
G04 #@! TO.N,/CTRL_SO*
X10225000Y-8775000D02*
X10170000Y-8720000D01*
X10225000Y-9025000D02*
X10225000Y-8775000D01*
X10170000Y-8720000D02*
X9400000Y-8720000D01*
X9400000Y-8720000D02*
X9100000Y-8420000D01*
X22354377Y-8748805D02*
X22354377Y-8565698D01*
X20965000Y-10810000D02*
X21385010Y-10389990D01*
X21959681Y-9143501D02*
X22354377Y-8748805D01*
X21385010Y-10389990D02*
X21385010Y-9535065D01*
X21385010Y-9535065D02*
X21776574Y-9143501D01*
X21776574Y-9143501D02*
X21959681Y-9143501D01*
X8590000Y-8420000D02*
X8500000Y-8420000D01*
X9100000Y-8420000D02*
X8590000Y-8420000D01*
X1474990Y-8625010D02*
X1105010Y-8994990D01*
X5892498Y-9580000D02*
X4823225Y-8510727D01*
X2790000Y-9170000D02*
X2245010Y-8625010D01*
X2020000Y-14840000D02*
X2616500Y-14840000D01*
X1105010Y-13925010D02*
X2020000Y-14840000D01*
X1105010Y-8994990D02*
X1105010Y-13925010D01*
X2245010Y-8625010D02*
X1474990Y-8625010D01*
X4041771Y-8510727D02*
X3382498Y-9170000D01*
X7390387Y-9580000D02*
X5892498Y-9580000D01*
X8590000Y-8420000D02*
X8380000Y-8420000D01*
X8380000Y-8420000D02*
X8030010Y-8769990D01*
X4823225Y-8510727D02*
X4041771Y-8510727D01*
X3382498Y-9170000D02*
X2790000Y-9170000D01*
X8030010Y-8769990D02*
X8030010Y-8940378D01*
X8030010Y-8940378D02*
X7390387Y-9580000D01*
D18*
G04 #@! TO.N,/CSI_D2_FP_N*
X15435000Y-9015000D02*
X15425000Y-9025000D01*
D10*
X17200000Y-8790000D02*
X17225000Y-8765000D01*
X15660000Y-8790000D02*
X17200000Y-8790000D01*
X15425000Y-9025000D02*
X15660000Y-8790000D01*
G04 #@! TO.N,/CTRL_SI*
X20550000Y-9810000D02*
X20320000Y-9580000D01*
X20965000Y-9810000D02*
X20550000Y-9810000D01*
X1280021Y-13060021D02*
X2370000Y-14150000D01*
X3454989Y-9345011D02*
X2715011Y-9345011D01*
X4114262Y-8685738D02*
X3454989Y-9345011D01*
X4750734Y-8685738D02*
X4114262Y-8685738D01*
X5820007Y-9755011D02*
X4750734Y-8685738D01*
X8497889Y-8720000D02*
X7462879Y-9755011D01*
X9020000Y-8720000D02*
X8497889Y-8720000D01*
X9575000Y-9025000D02*
X9325000Y-9025000D01*
X9325000Y-9025000D02*
X9020000Y-8720000D01*
X1280021Y-9067481D02*
X1280021Y-13060021D01*
X2170021Y-8800021D02*
X1547481Y-8800021D01*
X7462879Y-9755011D02*
X5820007Y-9755011D01*
X2715011Y-9345011D02*
X2170021Y-8800021D01*
X1547481Y-8800021D02*
X1280021Y-9067481D01*
G04 #@! TO.N,/CSI_OE*
X14775000Y-8250002D02*
X15080000Y-7945002D01*
X14775000Y-8375000D02*
X14775000Y-8250002D01*
X15080000Y-7945002D02*
X15080000Y-7640000D01*
X15080000Y-7544998D02*
X15244998Y-7380000D01*
X15080000Y-7640000D02*
X15080000Y-7544998D01*
X15244998Y-7380000D02*
X15780000Y-7380000D01*
X15780000Y-7380000D02*
X16140000Y-7020000D01*
X16140000Y-7020000D02*
X16570000Y-7020000D01*
X19050000Y-4220000D02*
X19015000Y-4185000D01*
X19830000Y-4220000D02*
X19050000Y-4220000D01*
G04 #@! TO.N,/CTRL_SCK*
X10225000Y-8375000D02*
X10225000Y-8125000D01*
X21385010Y-12230010D02*
X21385010Y-13475010D01*
X20965000Y-11810000D02*
X21385010Y-12230010D01*
X21385010Y-13475010D02*
X21590000Y-13680000D01*
X8330000Y-8020000D02*
X8000388Y-8020000D01*
X10120000Y-8020000D02*
X8330000Y-8020000D01*
X8330000Y-8020000D02*
X8200000Y-8020000D01*
X10225000Y-8125000D02*
X10120000Y-8020000D01*
X7835398Y-8184990D02*
X8000388Y-8020000D01*
X7750000Y-8184990D02*
X7835398Y-8184990D01*
X7805378Y-8184990D02*
X7750000Y-8184990D01*
X930000Y-14489940D02*
X1981531Y-15541471D01*
X930000Y-8922498D02*
X930000Y-14489940D01*
X1981531Y-15541471D02*
X2210030Y-15769970D01*
X1402499Y-8449999D02*
X930000Y-8922498D01*
X2970000Y-7220000D02*
X2970000Y-7994661D01*
X2970000Y-7994661D02*
X2514661Y-8450000D01*
X2514661Y-8450000D02*
X2317501Y-8449999D01*
X2317501Y-8449999D02*
X1402499Y-8449999D01*
X5492416Y-8184990D02*
X5458807Y-8151381D01*
X7750000Y-8184990D02*
X5492416Y-8184990D01*
D17*
G04 #@! TO.N,/CSI_CLK_OUT_P*
X15425000Y-8375000D02*
X15575000Y-8225000D01*
X16261500Y-8225000D02*
X16460000Y-8423500D01*
X15575000Y-8225000D02*
X16261500Y-8225000D01*
D10*
G04 #@! TO.N,/1V2_SYS_A*
X8290000Y-8220000D02*
X7855000Y-8655000D01*
X7855000Y-8655000D02*
X7610000Y-8655000D01*
X9420000Y-8220000D02*
X8290000Y-8220000D01*
X9575000Y-8375000D02*
X9420000Y-8220000D01*
X7610000Y-8655000D02*
X6965000Y-9300000D01*
X6200000Y-9300000D02*
X6080000Y-9300000D01*
X6965000Y-9300000D02*
X6200000Y-9300000D01*
D16*
X10085010Y-18709990D02*
X10085010Y-18450734D01*
X9640000Y-19155000D02*
X10085010Y-18709990D01*
X10085010Y-18450734D02*
X10085010Y-17859266D01*
X10085010Y-17859266D02*
X9815744Y-17590000D01*
X9815744Y-17590000D02*
X9480000Y-17590000D01*
X9211788Y-17590000D02*
X9094875Y-17706913D01*
X9094875Y-17706913D02*
X9094875Y-17769671D01*
X9480000Y-17590000D02*
X9211788Y-17590000D01*
D10*
X3716842Y-8335716D02*
X3501528Y-8551030D01*
X3501528Y-8551030D02*
X3273029Y-8779529D01*
X4895716Y-8335716D02*
X3716842Y-8335716D01*
X6200000Y-9300000D02*
X5860000Y-9300000D01*
X5860000Y-9300000D02*
X4895716Y-8335716D01*
D18*
G04 #@! TO.N,Net-(U1-PadD8)*
X14125000Y-7725000D02*
X14125000Y-8200000D01*
D10*
X14125000Y-7725000D02*
X14125000Y-8205000D01*
D18*
G04 #@! TO.N,/ULPM_WAKE*
X10875000Y-7725000D02*
X10875000Y-8225000D01*
D10*
X10875000Y-7725000D02*
X10875000Y-8220000D01*
X3210800Y-3110000D02*
X2530000Y-3790800D01*
X3410000Y-3110000D02*
X3500000Y-3020000D01*
X3210800Y-3110000D02*
X3410000Y-3110000D01*
G04 #@! TO.N,/PIO3*
X14400000Y-6924998D02*
X14400000Y-7600000D01*
X14604998Y-6720000D02*
X14400000Y-6924998D01*
X15005002Y-6720000D02*
X14604998Y-6720000D01*
X15100000Y-6625002D02*
X15005002Y-6720000D01*
X14525000Y-7725000D02*
X14775000Y-7725000D01*
X14400000Y-7600000D02*
X14525000Y-7725000D01*
X15910000Y-5840000D02*
X15630000Y-6120000D01*
X15630000Y-6120000D02*
X15204998Y-6120000D01*
X15100000Y-6224998D02*
X15100000Y-6625002D01*
X15204998Y-6120000D02*
X15100000Y-6224998D01*
X15910000Y-5270000D02*
X15850000Y-5210000D01*
X15910000Y-5840000D02*
X15910000Y-5270000D01*
X3850000Y-1200800D02*
X3870000Y-1180800D01*
X3850000Y-2120000D02*
X3850000Y-1200800D01*
G04 #@! TO.N,/2V5_SYS*
X8045000Y-7690000D02*
X7625000Y-7690000D01*
X8118502Y-7763502D02*
X8045000Y-7690000D01*
X9575000Y-7725000D02*
X9325000Y-7725000D01*
X9286498Y-7763502D02*
X8118502Y-7763502D01*
X9325000Y-7725000D02*
X9286498Y-7763502D01*
D16*
X5325000Y-7440000D02*
X4430000Y-7440000D01*
X4430000Y-7440000D02*
X3900000Y-7970000D01*
X5575000Y-7690000D02*
X5325000Y-7440000D01*
X6545000Y-7500000D02*
X7595000Y-7500000D01*
X6545000Y-7500000D02*
X5545000Y-7500000D01*
D10*
G04 #@! TO.N,/CSI_CLK_FP_N*
X16181970Y-7398030D02*
X16714448Y-7398030D01*
X15855000Y-7725000D02*
X16181970Y-7398030D01*
X15425000Y-7725000D02*
X15855000Y-7725000D01*
X16714448Y-7398030D02*
X16942947Y-7626529D01*
X17610000Y-4610000D02*
X17990000Y-4230000D01*
X17610000Y-4840000D02*
X17610000Y-4610000D01*
G04 #@! TO.N,/CSI_CLK_FP_P*
X10225000Y-7475000D02*
X10170000Y-7420000D01*
X10225000Y-7725000D02*
X10225000Y-7475000D01*
X9070000Y-7420000D02*
X8710000Y-7420000D01*
X8710000Y-7420000D02*
X8630000Y-7340000D01*
X10170000Y-7420000D02*
X9070000Y-7420000D01*
X9070000Y-7420000D02*
X8930000Y-7420000D01*
X17020000Y-4230000D02*
X17020000Y-3711200D01*
X17020000Y-3711200D02*
X16901453Y-3592653D01*
G04 #@! TO.N,/CSI_INT*
X13475000Y-8075000D02*
X13600000Y-7950000D01*
X13475000Y-8200000D02*
X13475000Y-8075000D01*
D18*
X13600000Y-7950000D02*
X13450000Y-8100000D01*
D10*
X13875000Y-7075000D02*
X14125000Y-7075000D01*
X13775000Y-7175000D02*
X13875000Y-7075000D01*
X13775000Y-7775000D02*
X13775000Y-7175000D01*
X13600000Y-7950000D02*
X13775000Y-7775000D01*
X3300030Y-6545030D02*
X3024970Y-6545030D01*
X3800000Y-7045000D02*
X3300030Y-6545030D01*
X16850000Y-1430800D02*
X16120800Y-2160000D01*
X16120800Y-2160000D02*
X15930000Y-2160000D01*
G04 #@! TO.N,/CSI_D1_FP_P*
X15765000Y-6750000D02*
X16500000Y-6015000D01*
X16500000Y-6015000D02*
X17225000Y-6015000D01*
X14899998Y-7075000D02*
X14775000Y-7075000D01*
X15224998Y-6750000D02*
X14899998Y-7075000D01*
X15765000Y-6750000D02*
X15224998Y-6750000D01*
G04 #@! TO.N,/CTRL_OUT*
X11850000Y-4530000D02*
X11870000Y-4510000D01*
X11850000Y-6030000D02*
X11850000Y-4530000D01*
X11525000Y-6355000D02*
X11850000Y-6030000D01*
X11525000Y-6425000D02*
X11525000Y-6355000D01*
G04 #@! TO.N,/USB_D_N*
X13475000Y-5225000D02*
X13480000Y-5220000D01*
X13475000Y-5775000D02*
X13475000Y-5225000D01*
G04 #@! TO.N,/USB_D_P*
X13475000Y-6300002D02*
X13833501Y-5941501D01*
X13475000Y-6425000D02*
X13475000Y-6300002D01*
X13833501Y-5941501D02*
X13833501Y-4933501D01*
X13728001Y-4828001D02*
X13728001Y-4749340D01*
X13833501Y-4933501D02*
X13728001Y-4828001D01*
X3781500Y-15285000D02*
X4238075Y-14828425D01*
X3670000Y-15285000D02*
X3781500Y-15285000D01*
G04 #@! TO.N,/DBG_TX*
X15046499Y-4689681D02*
X15046499Y-4350319D01*
X15249990Y-4893172D02*
X15046499Y-4689681D01*
X15249990Y-5425008D02*
X15249990Y-4893172D01*
X14775000Y-6302496D02*
X15110000Y-5967496D01*
X15110000Y-5967496D02*
X15110000Y-5564998D01*
X14775000Y-6425000D02*
X14775000Y-6302496D01*
X15110000Y-5564998D02*
X15249990Y-5425008D01*
X15046499Y-4116499D02*
X15020000Y-4090000D01*
X15046499Y-4350319D02*
X15046499Y-4116499D01*
G04 #@! TO.N,/VPLL_A*
X10225000Y-7075000D02*
X10225000Y-6825000D01*
X10225000Y-6825000D02*
X10130000Y-6730000D01*
X10130000Y-6730000D02*
X9050000Y-6730000D01*
X8650000Y-6330000D02*
X8650000Y-4190000D01*
X9050000Y-6730000D02*
X8650000Y-6330000D01*
X8060000Y-4190000D02*
X9670000Y-4190000D01*
X7640000Y-4190000D02*
X8060000Y-4190000D01*
G04 #@! TO.N,/CSI_D1_FP_N*
X17135000Y-7075000D02*
X17225000Y-6985000D01*
X16360000Y-6470000D02*
X16710000Y-6470000D01*
X15755000Y-7075000D02*
X16360000Y-6470000D01*
X16710000Y-6470000D02*
X17225000Y-6985000D01*
X15425000Y-7075000D02*
X15755000Y-7075000D01*
D18*
G04 #@! TO.N,/PROC_SCK*
X12175000Y-7075000D02*
X12175000Y-7525000D01*
D10*
X20965000Y-5560000D02*
X20390000Y-5560000D01*
X20390000Y-5560000D02*
X19650000Y-4820000D01*
X19326853Y-4820000D02*
X19650000Y-4820000D01*
X18569990Y-4445378D02*
X18944612Y-4820000D01*
X18225000Y-3245626D02*
X18569990Y-3590616D01*
X18944612Y-4820000D02*
X19326853Y-4820000D01*
X18569990Y-3590616D02*
X18569990Y-4445378D01*
X18225000Y-2922479D02*
X18225000Y-3245626D01*
D18*
G04 #@! TO.N,/MIPI_SEL*
X12850000Y-8100000D02*
X12825000Y-8100000D01*
D10*
X13475000Y-7325000D02*
X13475000Y-7475000D01*
X13475000Y-7075000D02*
X13475000Y-7325000D01*
X13475000Y-7600000D02*
X12850000Y-8225000D01*
X13475000Y-7475000D02*
X13475000Y-7600000D01*
X10500000Y-1140000D02*
X10460000Y-1100000D01*
X10500000Y-2130000D02*
X10500000Y-1140000D01*
D18*
G04 #@! TO.N,/PROC_SI*
X12825000Y-7075000D02*
X12825000Y-7525000D01*
D10*
X20965000Y-3560000D02*
X20410000Y-3560000D01*
X20410000Y-3560000D02*
X20400000Y-3570000D01*
G04 #@! TO.N,/PROC_OUT_0*
X10412988Y-5216410D02*
X10412988Y-4893263D01*
X10570000Y-5373422D02*
X10412988Y-5216410D01*
X10475000Y-6425000D02*
X10570000Y-6330000D01*
X10225000Y-6425000D02*
X10475000Y-6425000D01*
X10570000Y-6330000D02*
X10570000Y-5373422D01*
G04 #@! TO.N,/PROC_OUT_1*
X10225000Y-5525000D02*
X9870000Y-5170000D01*
X10225000Y-5775000D02*
X10225000Y-5525000D01*
X9870000Y-5170000D02*
X9870000Y-4910000D01*
G04 #@! TO.N,/I2C_1_SDA*
X14775000Y-5275137D02*
X14896480Y-5153657D01*
X14775000Y-5775000D02*
X14775000Y-5275137D01*
G04 #@! TO.N,/PROC_OUT_2*
X9575000Y-5775000D02*
X9575000Y-5135000D01*
X9558499Y-5118499D02*
X9330000Y-4890000D01*
X9575000Y-5135000D02*
X9558499Y-5118499D01*
G04 #@! TO.N,/USB_DET*
X11377176Y-4553992D02*
X11377176Y-4309597D01*
X11525000Y-5775000D02*
X11525000Y-4701816D01*
X11525000Y-4701816D02*
X11377176Y-4553992D01*
X3670000Y-16255000D02*
X3205000Y-16255000D01*
X3205000Y-16255000D02*
X2800000Y-16660000D01*
X2800000Y-16660000D02*
X2780000Y-16660000D01*
G04 #@! TO.N,/CTRL_SS*
X9575000Y-7075000D02*
X8865834Y-7075000D01*
X8828186Y-7037352D02*
X8599687Y-6808853D01*
X8865834Y-7075000D02*
X8828186Y-7037352D01*
X20965000Y-13655000D02*
X20960000Y-13660000D01*
X20965000Y-12810000D02*
X20965000Y-13655000D01*
D18*
G04 #@! TO.N,/PIO1*
X11450000Y-8100000D02*
X11450000Y-8125000D01*
D10*
X11475000Y-8100000D02*
X11475000Y-8215000D01*
X10875000Y-7075000D02*
X11125000Y-7075000D01*
X11200000Y-7150000D02*
X11200000Y-7825000D01*
X11200000Y-7825000D02*
X11475000Y-8100000D01*
X11125000Y-7075000D02*
X11200000Y-7150000D01*
X3876853Y-2591490D02*
X4200000Y-2591490D01*
X3730690Y-2591490D02*
X3876853Y-2591490D01*
X2320000Y-1180800D02*
X3730690Y-2591490D01*
G04 #@! TO.N,/CTRL_RST*
X11525000Y-7560000D02*
X12175000Y-8210000D01*
X11525000Y-7075000D02*
X11525000Y-7560000D01*
G04 #@! TO.N,/VPLL_B*
X15190000Y-3485000D02*
X14180000Y-3485000D01*
X13590000Y-3485000D02*
X14180000Y-3485000D01*
X13170000Y-3485000D02*
X13590000Y-3485000D01*
X12950000Y-3705000D02*
X13170000Y-3485000D01*
X12825000Y-5185000D02*
X12950000Y-5060000D01*
X12825000Y-5775000D02*
X12825000Y-5185000D01*
X12950000Y-5060000D02*
X12950000Y-4650000D01*
X12950000Y-4650000D02*
X12710000Y-4410000D01*
X12710000Y-3945000D02*
X13170000Y-3485000D01*
X12710000Y-4410000D02*
X12710000Y-3945000D01*
G04 #@! TO.N,/I2C_1_SCL*
X15425000Y-4545000D02*
X15400000Y-4520000D01*
X15425000Y-5775000D02*
X15425000Y-4545000D01*
G04 #@! TO.N,/1V2_SYS_B*
X12175000Y-5775000D02*
X12223502Y-5726498D01*
X12223502Y-4630000D02*
X12223502Y-4008502D01*
X12223502Y-5726498D02*
X12223502Y-4630000D01*
X12223502Y-4008502D02*
X11750000Y-3535000D01*
X12223502Y-4630000D02*
X12223502Y-4496498D01*
D16*
X9640000Y-18155000D02*
X8965000Y-18155000D01*
X8965000Y-18155000D02*
X8410000Y-18710000D01*
X8410000Y-19410000D02*
X8410000Y-19468500D01*
X8410000Y-18710000D02*
X8410000Y-19468500D01*
X11750000Y-3535000D02*
X12460000Y-2825000D01*
X12460000Y-2825000D02*
X12460000Y-1950000D01*
D10*
G04 #@! TO.N,/DONE*
X14125000Y-6300002D02*
X14420000Y-6005002D01*
X14125000Y-6425000D02*
X14125000Y-6300002D01*
X14420000Y-4868085D02*
X14460334Y-4827751D01*
X14420000Y-6005002D02*
X14420000Y-4868085D01*
G04 #@! TO.N,/DBG_RX*
X14081501Y-4438499D02*
X14310000Y-4210000D01*
X14081501Y-5481501D02*
X14081501Y-4438499D01*
X14125000Y-5525000D02*
X14081501Y-5481501D01*
X14125000Y-5775000D02*
X14125000Y-5525000D01*
G04 #@! TO.N,/PIO2*
X10766498Y-4556498D02*
X10600000Y-4390000D01*
X10766498Y-5416498D02*
X10766498Y-4556498D01*
X10875000Y-5775000D02*
X10875000Y-5525000D01*
X10875000Y-5525000D02*
X10766498Y-5416498D01*
X6569200Y-1180800D02*
X6580000Y-1170000D01*
X5390000Y-1180800D02*
X6569200Y-1180800D01*
G04 #@! TO.N,/PROC_SS*
X12825000Y-6425000D02*
X12835000Y-6425000D01*
X12835000Y-6425000D02*
X13130000Y-6130000D01*
X13126499Y-6126499D02*
X13126499Y-4583501D01*
X13130000Y-6130000D02*
X13126499Y-6126499D01*
X13410000Y-4300000D02*
X13410000Y-4210000D01*
X13126499Y-4583501D02*
X13410000Y-4300000D01*
X21496501Y-7091501D02*
X21299168Y-6894168D01*
X21299168Y-6894168D02*
X20965000Y-6560000D01*
X21796501Y-7091501D02*
X21496501Y-7091501D01*
X22025000Y-7320000D02*
X21796501Y-7091501D01*
G04 #@! TO.N,/PROC_RST*
X11125000Y-6425000D02*
X11180000Y-6370000D01*
X10875000Y-6425000D02*
X11125000Y-6425000D01*
X11180000Y-4880000D02*
X11120000Y-4820000D01*
X11180000Y-5200000D02*
X11180000Y-4880000D01*
X11180000Y-6370000D02*
X11180000Y-5200000D01*
X11180000Y-5200000D02*
X11180000Y-5050000D01*
G04 #@! TO.N,/SYS_CLK*
X15425000Y-6425000D02*
X15675000Y-6425000D01*
X16350001Y-3290799D02*
X16850000Y-2790800D01*
X16203502Y-5896498D02*
X16203502Y-3437298D01*
X16203502Y-3437298D02*
X16350001Y-3290799D01*
X15675000Y-6425000D02*
X16203502Y-5896498D01*
G04 #@! TO.N,/PROC_SO*
X12500000Y-6350000D02*
X12500000Y-5239637D01*
X12500000Y-5239637D02*
X12596490Y-5143147D01*
X12175000Y-6425000D02*
X12425000Y-6425000D01*
X12596490Y-5143147D02*
X12596490Y-4820000D01*
X12425000Y-6425000D02*
X12500000Y-6350000D01*
X20965000Y-4560000D02*
X20410000Y-4560000D01*
X20410000Y-4560000D02*
X20400000Y-4570000D01*
D16*
G04 #@! TO.N,/VUSB*
X6515000Y-15650000D02*
X6525000Y-15660000D01*
X6525000Y-15660000D02*
X5350000Y-15660000D01*
X5258058Y-15751942D02*
X5214660Y-15751942D01*
X5350000Y-15660000D02*
X5258058Y-15751942D01*
D10*
X4730000Y-15900000D02*
X4730000Y-15910000D01*
D16*
X4936647Y-15751942D02*
X4707640Y-15980949D01*
X5258058Y-15751942D02*
X4936647Y-15751942D01*
X5685046Y-14570000D02*
X4906397Y-15348649D01*
X5880000Y-14570000D02*
X5685046Y-14570000D01*
X6515000Y-14570000D02*
X5880000Y-14570000D01*
X5880000Y-14570000D02*
X5750000Y-14570000D01*
D10*
G04 #@! TO.N,/1V2_SYS*
X12480000Y-18155000D02*
X10610000Y-18155000D01*
D16*
X13060000Y-17575000D02*
X12540000Y-18095000D01*
D10*
X12540000Y-18095000D02*
X12480000Y-18155000D01*
D16*
X12510000Y-18125000D02*
X11850000Y-18125000D01*
X12540000Y-18095000D02*
X12510000Y-18125000D01*
X10610000Y-18155000D02*
X10610000Y-19155000D01*
X10640000Y-18125000D02*
X10610000Y-18155000D01*
X11850000Y-18125000D02*
X10640000Y-18125000D01*
X15190000Y-1580000D02*
X14160000Y-550000D01*
X15190000Y-2515000D02*
X15190000Y-1580000D01*
X14160000Y-550000D02*
X8020000Y-550000D01*
X8020000Y-550000D02*
X6980000Y-1590000D01*
X6980000Y-2560000D02*
X7640000Y-3220000D01*
X6980000Y-1590000D02*
X6980000Y-2560000D01*
X7640000Y-3220000D02*
X6520000Y-4340000D01*
X6240000Y-4620000D02*
X2240000Y-4620000D01*
X6520000Y-4340000D02*
X6240000Y-4620000D01*
X2240000Y-4620000D02*
X880000Y-3260000D01*
X880000Y-3260000D02*
X880000Y-2500000D01*
X2008499Y-18769989D02*
X1780000Y-18541490D01*
X2308510Y-19070000D02*
X2008499Y-18769989D01*
X7240000Y-19070000D02*
X2308510Y-19070000D01*
X10070000Y-17340000D02*
X8970000Y-17340000D01*
X10610000Y-17880000D02*
X10070000Y-17340000D01*
X8970000Y-17340000D02*
X8910000Y-17400000D01*
X8910000Y-17400000D02*
X7240000Y-19070000D01*
X10610000Y-18155000D02*
X10610000Y-17880000D01*
D17*
G04 #@! TO.N,/CSI_D1_OUT_P*
X16163493Y-9895000D02*
X16343886Y-10075393D01*
X16343886Y-10075393D02*
X16624607Y-10075393D01*
X15425000Y-9675000D02*
X15650001Y-9675000D01*
X15650001Y-9675000D02*
X15870001Y-9895000D01*
X15870001Y-9895000D02*
X16163493Y-9895000D01*
D10*
G04 #@! TO.N,/E_PROC_SI*
X22065000Y-3690000D02*
X21935000Y-3560000D01*
X22710000Y-3690000D02*
X22065000Y-3690000D01*
G04 #@! TO.N,/E_PROC_SO*
X22065000Y-4690000D02*
X21935000Y-4560000D01*
X22560000Y-4690000D02*
X22065000Y-4690000D01*
G04 #@! TO.N,/E_PROC_SCK*
X22070000Y-5560000D02*
X21935000Y-5560000D01*
X22750000Y-6240000D02*
X22070000Y-5560000D01*
G04 #@! TO.N,/E_PROC_SS*
X22285000Y-6910000D02*
X21935000Y-6560000D01*
X22700000Y-6910000D02*
X22285000Y-6910000D01*
G04 #@! TO.N,/E_CTRL_SI*
X21935000Y-9485000D02*
X21935000Y-9810000D01*
X22920000Y-8500000D02*
X21935000Y-9485000D01*
G04 #@! TO.N,/E_CTRL_SO*
X22269168Y-10475832D02*
X21935000Y-10810000D01*
X22355010Y-10389990D02*
X22269168Y-10475832D01*
X22355010Y-9654990D02*
X22355010Y-10389990D01*
X22900000Y-9110000D02*
X22355010Y-9654990D01*
G04 #@! TO.N,/E_CTRL_SCK*
X22269168Y-11475832D02*
X21935000Y-11810000D01*
X22530020Y-10129980D02*
X22530020Y-11214980D01*
X22530020Y-11214980D02*
X22269168Y-11475832D01*
X22890000Y-9770000D02*
X22530020Y-10129980D01*
G04 #@! TO.N,/E_CTRL_SS*
X22940000Y-10490000D02*
X22940000Y-11430000D01*
X22940000Y-11430000D02*
X22470000Y-11900000D01*
X22470000Y-12275000D02*
X21935000Y-12810000D01*
X22470000Y-11900000D02*
X22470000Y-12275000D01*
G04 #@! TD*
M02*
