G04 #@! TF.GenerationSoftware,KiCad,Pcbnew,5.0.2+dfsg1-1~bpo9+1*
G04 #@! TF.CreationDate,2019-10-16T17:32:00+02:00*
G04 #@! TF.ProjectId,zglue-dragon-adapter,7a676c75-652d-4647-9261-676f6e2d6164,rev?*
G04 #@! TF.SameCoordinates,Original*
G04 #@! TF.FileFunction,Other,User*
%FSLAX46Y46*%
G04 Gerber Fmt 4.6, Leading zero omitted, Abs format (unit mm)*
G04 Created by KiCad (PCBNEW 5.0.2+dfsg1-1~bpo9+1) date Wed 16 Oct 2019 05:32:00 PM CEST*
%MOMM*%
%LPD*%
G01*
G04 APERTURE LIST*
%ADD10C,0.050000*%
G04 APERTURE END LIST*
D10*
G04 #@! TO.C,C8*
X12780000Y-17880000D02*
X12780000Y-16020000D01*
X13720000Y-17880000D02*
X12780000Y-17880000D01*
X13720000Y-16020000D02*
X13720000Y-17880000D01*
X12780000Y-16020000D02*
X13720000Y-16020000D01*
G04 #@! TO.C,C7*
X17955000Y-13725000D02*
X17955000Y-11865000D01*
X18895000Y-13725000D02*
X17955000Y-13725000D01*
X18895000Y-11865000D02*
X18895000Y-13725000D01*
X17955000Y-11865000D02*
X18895000Y-11865000D01*
G04 #@! TO.C,C6*
X8320000Y-5350000D02*
X8320000Y-7210000D01*
X7380000Y-5350000D02*
X8320000Y-5350000D01*
X7380000Y-7210000D02*
X7380000Y-5350000D01*
X8320000Y-7210000D02*
X7380000Y-7210000D01*
G04 #@! TO.C,C5*
X7370000Y-9260000D02*
X7370000Y-7400000D01*
X8310000Y-9260000D02*
X7370000Y-9260000D01*
X8310000Y-7400000D02*
X8310000Y-9260000D01*
X7370000Y-7400000D02*
X8310000Y-7400000D01*
G04 #@! TO.C,C4*
X13730000Y-1210000D02*
X13730000Y-3070000D01*
X12790000Y-1210000D02*
X13730000Y-1210000D01*
X12790000Y-3070000D02*
X12790000Y-1210000D01*
X13730000Y-3070000D02*
X12790000Y-3070000D01*
G04 #@! TO.C,C3*
X16905000Y-13725000D02*
X16905000Y-11865000D01*
X17845000Y-13725000D02*
X16905000Y-13725000D01*
X17845000Y-11865000D02*
X17845000Y-13725000D01*
X16905000Y-11865000D02*
X17845000Y-11865000D01*
G04 #@! TO.C,C2*
X7270000Y-5350000D02*
X7270000Y-7210000D01*
X6330000Y-5350000D02*
X7270000Y-5350000D01*
X6330000Y-7210000D02*
X6330000Y-5350000D01*
X7270000Y-7210000D02*
X6330000Y-7210000D01*
G04 #@! TO.C,C10*
X15215000Y-2495000D02*
X15215000Y-4355000D01*
X14275000Y-2495000D02*
X15215000Y-2495000D01*
X14275000Y-4355000D02*
X14275000Y-2495000D01*
X15215000Y-4355000D02*
X14275000Y-4355000D01*
G04 #@! TO.C,C12*
X11360000Y-17930000D02*
X11360000Y-16070000D01*
X12300000Y-17930000D02*
X11360000Y-17930000D01*
X12300000Y-16070000D02*
X12300000Y-17930000D01*
X11360000Y-16070000D02*
X12300000Y-16070000D01*
G04 #@! TO.C,C13*
X10350000Y-17930000D02*
X10350000Y-16070000D01*
X11290000Y-17930000D02*
X10350000Y-17930000D01*
X11290000Y-16070000D02*
X11290000Y-17930000D01*
X10350000Y-16070000D02*
X11290000Y-16070000D01*
G04 #@! TO.C,C14*
X14860000Y-17225000D02*
X14860000Y-15365000D01*
X15800000Y-17225000D02*
X14860000Y-17225000D01*
X15800000Y-15365000D02*
X15800000Y-17225000D01*
X14860000Y-15365000D02*
X15800000Y-15365000D01*
G04 #@! TO.C,C1*
X6320000Y-9260000D02*
X6320000Y-7400000D01*
X7260000Y-9260000D02*
X6320000Y-9260000D01*
X7260000Y-7400000D02*
X7260000Y-9260000D01*
X6320000Y-7400000D02*
X7260000Y-7400000D01*
G04 #@! TO.C,R11*
X19630000Y-6360000D02*
X21490000Y-6360000D01*
X19630000Y-7300000D02*
X19630000Y-6360000D01*
X21490000Y-7300000D02*
X19630000Y-7300000D01*
X21490000Y-6360000D02*
X21490000Y-7300000D01*
G04 #@! TO.C,R24*
X20495000Y-13105000D02*
X20495000Y-11245000D01*
X21435000Y-13105000D02*
X20495000Y-13105000D01*
X21435000Y-11245000D02*
X21435000Y-13105000D01*
X20495000Y-11245000D02*
X21435000Y-11245000D01*
G04 #@! TO.C,R10*
X10280000Y-16070000D02*
X10280000Y-17930000D01*
X9340000Y-16070000D02*
X10280000Y-16070000D01*
X9340000Y-17930000D02*
X9340000Y-16070000D01*
X10280000Y-17930000D02*
X9340000Y-17930000D01*
G04 #@! TO.C,R9*
X17830000Y-15365000D02*
X17830000Y-17225000D01*
X16890000Y-15365000D02*
X17830000Y-15365000D01*
X16890000Y-17225000D02*
X16890000Y-15365000D01*
X17830000Y-17225000D02*
X16890000Y-17225000D01*
G04 #@! TO.C,R8*
X17060000Y-3870000D02*
X18920000Y-3870000D01*
X17060000Y-4810000D02*
X17060000Y-3870000D01*
X18920000Y-4810000D02*
X17060000Y-4810000D01*
X18920000Y-3870000D02*
X18920000Y-4810000D01*
G04 #@! TO.C,R7*
X17070000Y-4960000D02*
X18930000Y-4960000D01*
X17070000Y-5900000D02*
X17070000Y-4960000D01*
X18930000Y-5900000D02*
X17070000Y-5900000D01*
X18930000Y-4960000D02*
X18930000Y-5900000D01*
G04 #@! TO.C,R6*
X15805000Y-2315000D02*
X13945000Y-2315000D01*
X15805000Y-1375000D02*
X15805000Y-2315000D01*
X13945000Y-1375000D02*
X15805000Y-1375000D01*
X13945000Y-2315000D02*
X13945000Y-1375000D01*
G04 #@! TO.C,R5*
X15805000Y-1315000D02*
X13945000Y-1315000D01*
X15805000Y-375000D02*
X15805000Y-1315000D01*
X13945000Y-375000D02*
X15805000Y-375000D01*
X13945000Y-1315000D02*
X13945000Y-375000D01*
G04 #@! TO.C,R4*
X12650000Y-2280000D02*
X12650000Y-4140000D01*
X11710000Y-2280000D02*
X12650000Y-2280000D01*
X11710000Y-4140000D02*
X11710000Y-2280000D01*
X12650000Y-4140000D02*
X11710000Y-4140000D01*
G04 #@! TO.C,R3*
X19895000Y-11865000D02*
X19895000Y-13725000D01*
X18955000Y-11865000D02*
X19895000Y-11865000D01*
X18955000Y-13725000D02*
X18955000Y-11865000D01*
X19895000Y-13725000D02*
X18955000Y-13725000D01*
G04 #@! TO.C,R2*
X6220000Y-5350000D02*
X6220000Y-7210000D01*
X5280000Y-5350000D02*
X6220000Y-5350000D01*
X5280000Y-7210000D02*
X5280000Y-5350000D01*
X6220000Y-7210000D02*
X5280000Y-7210000D01*
G04 #@! TO.C,R1*
X5280000Y-9260000D02*
X5280000Y-7400000D01*
X6220000Y-9260000D02*
X5280000Y-9260000D01*
X6220000Y-7400000D02*
X6220000Y-9260000D01*
X5280000Y-7400000D02*
X6220000Y-7400000D01*
G04 #@! TO.C,R13*
X5515000Y-17230000D02*
X5515000Y-15370000D01*
X6455000Y-17230000D02*
X5515000Y-17230000D01*
X6455000Y-15370000D02*
X6455000Y-17230000D01*
X5515000Y-15370000D02*
X6455000Y-15370000D01*
G04 #@! TO.C,C15*
X15880000Y-17225000D02*
X15880000Y-15365000D01*
X16820000Y-17225000D02*
X15880000Y-17225000D01*
X16820000Y-15365000D02*
X16820000Y-17225000D01*
X15880000Y-15365000D02*
X16820000Y-15365000D01*
G04 #@! TO.C,C9*
X18805000Y-11815000D02*
X16945000Y-11815000D01*
X18805000Y-10875000D02*
X18805000Y-11815000D01*
X16945000Y-10875000D02*
X18805000Y-10875000D01*
X16945000Y-11815000D02*
X16945000Y-10875000D01*
G04 #@! TO.C,C11*
X17745000Y-6965000D02*
X17745000Y-8825000D01*
X16805000Y-6965000D02*
X17745000Y-6965000D01*
X16805000Y-8825000D02*
X16805000Y-6965000D01*
X17745000Y-8825000D02*
X16805000Y-8825000D01*
G04 #@! TO.C,R23*
X6565000Y-15300000D02*
X8425000Y-15300000D01*
X6565000Y-16240000D02*
X6565000Y-15300000D01*
X8425000Y-16240000D02*
X6565000Y-16240000D01*
X8425000Y-15300000D02*
X8425000Y-16240000D01*
G04 #@! TO.C,R22*
X2320000Y-8280000D02*
X4180000Y-8280000D01*
X2320000Y-9220000D02*
X2320000Y-8280000D01*
X4180000Y-9220000D02*
X2320000Y-9220000D01*
X4180000Y-8280000D02*
X4180000Y-9220000D01*
G04 #@! TO.C,R21*
X2320000Y-9280000D02*
X4180000Y-9280000D01*
X2320000Y-10220000D02*
X2320000Y-9280000D01*
X4180000Y-10220000D02*
X2320000Y-10220000D01*
X4180000Y-9280000D02*
X4180000Y-10220000D01*
G04 #@! TO.C,R20*
X2320000Y-10280000D02*
X4180000Y-10280000D01*
X2320000Y-11220000D02*
X2320000Y-10280000D01*
X4180000Y-11220000D02*
X2320000Y-11220000D01*
X4180000Y-10280000D02*
X4180000Y-11220000D01*
G04 #@! TO.C,R19*
X2320000Y-11280000D02*
X4180000Y-11280000D01*
X2320000Y-12220000D02*
X2320000Y-11280000D01*
X4180000Y-12220000D02*
X2320000Y-12220000D01*
X4180000Y-11280000D02*
X4180000Y-12220000D01*
G04 #@! TO.C,R18*
X2320000Y-12280000D02*
X4180000Y-12280000D01*
X2320000Y-13220000D02*
X2320000Y-12280000D01*
X4180000Y-13220000D02*
X2320000Y-13220000D01*
X4180000Y-12280000D02*
X4180000Y-13220000D01*
G04 #@! TO.C,R17*
X2320000Y-13280000D02*
X4180000Y-13280000D01*
X2320000Y-14220000D02*
X2320000Y-13280000D01*
X4180000Y-14220000D02*
X2320000Y-14220000D01*
X4180000Y-13280000D02*
X4180000Y-14220000D01*
G04 #@! TO.C,R16*
X2320000Y-14280000D02*
X4180000Y-14280000D01*
X2320000Y-15220000D02*
X2320000Y-14280000D01*
X4180000Y-15220000D02*
X2320000Y-15220000D01*
X4180000Y-14280000D02*
X4180000Y-15220000D01*
G04 #@! TO.C,R15*
X2320000Y-15280000D02*
X4180000Y-15280000D01*
X2320000Y-16220000D02*
X2320000Y-15280000D01*
X4180000Y-16220000D02*
X2320000Y-16220000D01*
X4180000Y-15280000D02*
X4180000Y-16220000D01*
G04 #@! TO.C,R14*
X7305000Y-11680000D02*
X7305000Y-9820000D01*
X8245000Y-11680000D02*
X7305000Y-11680000D01*
X8245000Y-9820000D02*
X8245000Y-11680000D01*
X7305000Y-9820000D02*
X8245000Y-9820000D01*
G04 #@! TO.C,R12*
X8245000Y-12570000D02*
X8245000Y-14430000D01*
X7305000Y-12570000D02*
X8245000Y-12570000D01*
X7305000Y-14430000D02*
X7305000Y-12570000D01*
X8245000Y-14430000D02*
X7305000Y-14430000D01*
G04 #@! TD*
M02*
