G04 #@! TF.GenerationSoftware,KiCad,Pcbnew,5.0.2+dfsg1-1~bpo9+1*
G04 #@! TF.CreationDate,2019-10-21T14:39:04+02:00*
G04 #@! TF.ProjectId,zglue-dragon-adapter,7a676c75-652d-4647-9261-676f6e2d6164,rev?*
G04 #@! TF.SameCoordinates,Original*
G04 #@! TF.FileFunction,Legend,Bot*
G04 #@! TF.FilePolarity,Positive*
%FSLAX46Y46*%
G04 Gerber Fmt 4.6, Leading zero omitted, Abs format (unit mm)*
G04 Created by KiCad (PCBNEW 5.0.2+dfsg1-1~bpo9+1) date Mon 21 Oct 2019 02:39:04 PM CEST*
%MOMM*%
%LPD*%
G01*
G04 APERTURE LIST*
%ADD10C,0.150000*%
G04 APERTURE END LIST*
D10*
G04 #@! TO.C,J1*
X658600Y-17361380D02*
X6858600Y-17361380D01*
X6858600Y-17361380D02*
X6858600Y-16761380D01*
X658600Y-16761380D02*
X658600Y-17361380D01*
X653800Y-2673980D02*
X653800Y-3273980D01*
X6853800Y-2673980D02*
X653800Y-2673980D01*
X6853800Y-3273980D02*
X6853800Y-2673980D01*
G04 #@! TO.C,J2*
X18158600Y-17361380D02*
X24358600Y-17361380D01*
X24358600Y-17361380D02*
X24358600Y-16761380D01*
X18158600Y-16761380D02*
X18158600Y-17361380D01*
X18153800Y-2673980D02*
X18153800Y-3273980D01*
X24353800Y-2673980D02*
X18153800Y-2673980D01*
X24353800Y-3273980D02*
X24353800Y-2673980D01*
G04 #@! TO.C,J1*
X1983333Y-18116666D02*
X1983333Y-18616666D01*
X2016666Y-18716666D01*
X2083333Y-18783333D01*
X2183333Y-18816666D01*
X2250000Y-18816666D01*
X1283333Y-18816666D02*
X1683333Y-18816666D01*
X1483333Y-18816666D02*
X1483333Y-18116666D01*
X1550000Y-18216666D01*
X1616666Y-18283333D01*
X1683333Y-18316666D01*
G04 #@! TO.C,J2*
X18983333Y-18116666D02*
X18983333Y-18616666D01*
X19016666Y-18716666D01*
X19083333Y-18783333D01*
X19183333Y-18816666D01*
X19250000Y-18816666D01*
X18683333Y-18183333D02*
X18650000Y-18150000D01*
X18583333Y-18116666D01*
X18416666Y-18116666D01*
X18350000Y-18150000D01*
X18316666Y-18183333D01*
X18283333Y-18250000D01*
X18283333Y-18316666D01*
X18316666Y-18416666D01*
X18716666Y-18816666D01*
X18283333Y-18816666D01*
G04 #@! TD*
M02*
