G04 #@! TF.GenerationSoftware,KiCad,Pcbnew,5.0.2+dfsg1-1~bpo9+1*
G04 #@! TF.CreationDate,2019-10-17T17:45:34+02:00*
G04 #@! TF.ProjectId,zglue-dragon-adapter,7a676c75-652d-4647-9261-676f6e2d6164,rev?*
G04 #@! TF.SameCoordinates,Original*
G04 #@! TF.FileFunction,Copper,L1,Top*
G04 #@! TF.FilePolarity,Positive*
%FSLAX46Y46*%
G04 Gerber Fmt 4.6, Leading zero omitted, Abs format (unit mm)*
G04 Created by KiCad (PCBNEW 5.0.2+dfsg1-1~bpo9+1) date Thu 17 Oct 2019 05:45:34 PM CEST*
%MOMM*%
%LPD*%
G01*
G04 APERTURE LIST*
G04 #@! TA.AperFunction,SMDPad,CuDef*
%ADD10R,0.300000X0.300000*%
G04 #@! TD*
G04 #@! TA.AperFunction,SMDPad,CuDef*
%ADD11R,3.600000X2.800000*%
G04 #@! TD*
G04 #@! TA.AperFunction,Conductor*
%ADD12C,0.100000*%
G04 #@! TD*
G04 #@! TA.AperFunction,SMDPad,CuDef*
%ADD13C,0.590000*%
G04 #@! TD*
G04 #@! TA.AperFunction,BGAPad,CuDef*
%ADD14C,1.000000*%
G04 #@! TD*
G04 #@! TA.AperFunction,ViaPad*
%ADD15C,0.457000*%
G04 #@! TD*
G04 #@! TA.AperFunction,Conductor*
%ADD16C,0.080000*%
G04 #@! TD*
G04 APERTURE END LIST*
D10*
G04 #@! TO.P,U1,P1*
G04 #@! TO.N,Net-(U1-PadP1)*
X9575000Y-14225000D03*
G04 #@! TO.P,U1,P2*
G04 #@! TO.N,GND*
X10225000Y-14225000D03*
G04 #@! TO.P,U1,P3*
G04 #@! TO.N,/CSI_D2_IN_P*
X10875000Y-14225000D03*
G04 #@! TO.P,U1,P4*
G04 #@! TO.N,/CSI_D2_IN_N*
X11525000Y-14225000D03*
G04 #@! TO.P,U1,P5*
G04 #@! TO.N,/CSI_D3_IN_N*
X12175000Y-14225000D03*
G04 #@! TO.P,U1,P6*
G04 #@! TO.N,/CSI_D4_IN_N*
X12825000Y-14225000D03*
G04 #@! TO.P,U1,P7*
G04 #@! TO.N,/CSI_D4_IN_P*
X13475000Y-14225000D03*
G04 #@! TO.P,U1,P8*
G04 #@! TO.N,Net-(U1-PadP8)*
X14125000Y-14225000D03*
G04 #@! TO.P,U1,P9*
G04 #@! TO.N,/CSI_D4_OUT_N*
X14775000Y-14225000D03*
G04 #@! TO.P,U1,P10*
G04 #@! TO.N,/CSI_D3_OUT_N*
X15425000Y-14225000D03*
G04 #@! TO.P,U1,N7*
G04 #@! TO.N,/3V3_SYS*
X13475000Y-13575000D03*
G04 #@! TO.P,U1,N5*
G04 #@! TO.N,/CSI_D3_IN_P*
X12175000Y-13575000D03*
G04 #@! TO.P,U1,N3*
G04 #@! TO.N,/VDDANA*
X10875000Y-13575000D03*
G04 #@! TO.P,U1,N8*
G04 #@! TO.N,/2V5*
X14125000Y-13575000D03*
G04 #@! TO.P,U1,N4*
G04 #@! TO.N,/1V8*
X11525000Y-13575000D03*
G04 #@! TO.P,U1,N1*
G04 #@! TO.N,Net-(U1-PadN1)*
X9575000Y-13575000D03*
G04 #@! TO.P,U1,N9*
G04 #@! TO.N,/CSI_D4_OUT_P*
X14775000Y-13575000D03*
G04 #@! TO.P,U1,N2*
G04 #@! TO.N,GND*
X10225000Y-13575000D03*
G04 #@! TO.P,U1,N10*
G04 #@! TO.N,/CSI_D3_OUT_P*
X15425000Y-13575000D03*
G04 #@! TO.P,U1,N6*
G04 #@! TO.N,/1V2*
X12825000Y-13575000D03*
G04 #@! TO.P,U1,M7*
G04 #@! TO.N,/LED3_ISINK*
X13475000Y-12925000D03*
G04 #@! TO.P,U1,M5*
G04 #@! TO.N,/LED1_ISINK*
X12175000Y-12925000D03*
G04 #@! TO.P,U1,M3*
G04 #@! TO.N,Net-(U1-PadM3)*
X10875000Y-12925000D03*
G04 #@! TO.P,U1,M8*
G04 #@! TO.N,/TMS*
X14125000Y-12925000D03*
G04 #@! TO.P,U1,M4*
G04 #@! TO.N,/VSENSE*
X11525000Y-12925000D03*
G04 #@! TO.P,U1,M1*
G04 #@! TO.N,GND*
X9575000Y-12925000D03*
G04 #@! TO.P,U1,M9*
G04 #@! TO.N,Net-(U1-PadM9)*
X14775000Y-12925000D03*
G04 #@! TO.P,U1,M2*
G04 #@! TO.N,Net-(U1-PadM2)*
X10225000Y-12925000D03*
G04 #@! TO.P,U1,M10*
G04 #@! TO.N,/1V8_SYS*
X15425000Y-12925000D03*
G04 #@! TO.P,U1,M6*
G04 #@! TO.N,/LED2_ISINK*
X12825000Y-12925000D03*
G04 #@! TO.P,U1,L3*
G04 #@! TO.N,/EXTCLK_EN*
X10875000Y-12275000D03*
G04 #@! TO.P,U1,L8*
G04 #@! TO.N,/TDO*
X14125000Y-12275000D03*
G04 #@! TO.P,U1,L1*
G04 #@! TO.N,/3V3*
X9575000Y-12275000D03*
G04 #@! TO.P,U1,L9*
G04 #@! TO.N,/TDI*
X14775000Y-12275000D03*
G04 #@! TO.P,U1,L2*
G04 #@! TO.N,/PC_RDY*
X10225000Y-12275000D03*
G04 #@! TO.P,U1,L10*
G04 #@! TO.N,/3V3_SYS*
X15425000Y-12275000D03*
G04 #@! TO.P,U1,K9*
G04 #@! TO.N,/TCK*
X14775000Y-11625000D03*
G04 #@! TO.P,U1,K1*
G04 #@! TO.N,/VBATH*
X9575000Y-11625000D03*
G04 #@! TO.P,U1,K10*
G04 #@! TO.N,/CSI_D2_OUT_N*
X15425000Y-11625000D03*
G04 #@! TO.P,U1,K2*
G04 #@! TO.N,/EXT_CLK*
X10225000Y-11625000D03*
G04 #@! TO.P,U1,J9*
G04 #@! TO.N,/I2C_0_SCL*
X14775000Y-10975000D03*
G04 #@! TO.P,U1,J2*
G04 #@! TO.N,/ZIP_EN_L*
X10225000Y-10975000D03*
G04 #@! TO.P,U1,J10*
G04 #@! TO.N,/CSI_D2_OUT_P*
X15425000Y-10975000D03*
G04 #@! TO.P,U1,J1*
G04 #@! TO.N,/PWR_BTN*
X9575000Y-10975000D03*
G04 #@! TO.P,U1,H9*
G04 #@! TO.N,/I2C_0_SDA*
X14775000Y-10325000D03*
G04 #@! TO.P,U1,H2*
G04 #@! TO.N,/CSI_D1_IN_N*
X10225000Y-10325000D03*
G04 #@! TO.P,U1,H10*
G04 #@! TO.N,/CSI_D1_OUT_N*
X15425000Y-10325000D03*
G04 #@! TO.P,U1,H1*
G04 #@! TO.N,/CSI_D1_IN_P*
X9575000Y-10325000D03*
G04 #@! TO.P,U1,G9*
G04 #@! TO.N,/CSI_D2_FP_P*
X14775000Y-9675000D03*
G04 #@! TO.P,U1,G2*
G04 #@! TO.N,/CSI_CLK_IN_P*
X10225000Y-9675000D03*
G04 #@! TO.P,U1,G10*
G04 #@! TO.N,/CSI_D1_OUT_P*
X15425000Y-9675000D03*
G04 #@! TO.P,U1,G1*
G04 #@! TO.N,/CSI_CLK_IN_N*
X9575000Y-9675000D03*
G04 #@! TO.P,U1,F9*
G04 #@! TO.N,/CSI_CLK_OUT_N*
X14775000Y-9025000D03*
G04 #@! TO.P,U1,F2*
G04 #@! TO.N,/CTRL_SO*
X10225000Y-9025000D03*
G04 #@! TO.P,U1,F10*
G04 #@! TO.N,/CSI_D2_FP_N*
X15425000Y-9025000D03*
G04 #@! TO.P,U1,F1*
G04 #@! TO.N,/CTRL_SI*
X9575000Y-9025000D03*
G04 #@! TO.P,U1,E9*
G04 #@! TO.N,/CSI_OE*
X14775000Y-8375000D03*
G04 #@! TO.P,U1,E2*
G04 #@! TO.N,/CTRL_SCK*
X10225000Y-8375000D03*
G04 #@! TO.P,U1,E10*
G04 #@! TO.N,/CSI_CLK_OUT_P*
X15425000Y-8375000D03*
G04 #@! TO.P,U1,E1*
G04 #@! TO.N,/1V2_SYS_A*
X9575000Y-8375000D03*
G04 #@! TO.P,U1,D8*
G04 #@! TO.N,Net-(U1-PadD8)*
X14125000Y-7725000D03*
G04 #@! TO.P,U1,D3*
G04 #@! TO.N,/ULPM_WAKE*
X10875000Y-7725000D03*
G04 #@! TO.P,U1,D9*
G04 #@! TO.N,/PIO3*
X14775000Y-7725000D03*
G04 #@! TO.P,U1,D1*
G04 #@! TO.N,/2V5_SYS*
X9575000Y-7725000D03*
G04 #@! TO.P,U1,D10*
G04 #@! TO.N,/CSI_CLK_FP_N*
X15425000Y-7725000D03*
G04 #@! TO.P,U1,D2*
G04 #@! TO.N,/CSI_CLK_FP_P*
X10225000Y-7725000D03*
G04 #@! TO.P,U1,C8*
G04 #@! TO.N,/CSI_INT*
X14125000Y-7075000D03*
G04 #@! TO.P,U1,C9*
G04 #@! TO.N,/CSI_D1_FP_P*
X14775000Y-7075000D03*
G04 #@! TO.P,U1,B4*
G04 #@! TO.N,/CTRL_OUT*
X11525000Y-6425000D03*
G04 #@! TO.P,U1,A7*
G04 #@! TO.N,/USB_D_N*
X13475000Y-5775000D03*
G04 #@! TO.P,U1,B7*
G04 #@! TO.N,/USB_D_P*
X13475000Y-6425000D03*
G04 #@! TO.P,U1,B9*
G04 #@! TO.N,/DBG_TX*
X14775000Y-6425000D03*
G04 #@! TO.P,U1,C2*
G04 #@! TO.N,/VPLL_A*
X10225000Y-7075000D03*
G04 #@! TO.P,U1,C10*
G04 #@! TO.N,/CSI_D1_FP_N*
X15425000Y-7075000D03*
G04 #@! TO.P,U1,C5*
G04 #@! TO.N,/PROC_SCK*
X12175000Y-7075000D03*
G04 #@! TO.P,U1,C7*
G04 #@! TO.N,/MIPI_SEL*
X13475000Y-7075000D03*
G04 #@! TO.P,U1,C6*
G04 #@! TO.N,/PROC_SI*
X12825000Y-7075000D03*
G04 #@! TO.P,U1,B2*
G04 #@! TO.N,/PROC_OUT_0*
X10225000Y-6425000D03*
G04 #@! TO.P,U1,A2*
G04 #@! TO.N,/PROC_OUT_1*
X10225000Y-5775000D03*
G04 #@! TO.P,U1,A9*
G04 #@! TO.N,/I2C_1_SDA*
X14775000Y-5775000D03*
G04 #@! TO.P,U1,A1*
G04 #@! TO.N,/PROC_OUT_2*
X9575000Y-5775000D03*
G04 #@! TO.P,U1,A4*
G04 #@! TO.N,/USB_DET*
X11525000Y-5775000D03*
G04 #@! TO.P,U1,C1*
G04 #@! TO.N,/CTRL_SS*
X9575000Y-7075000D03*
G04 #@! TO.P,U1,C3*
G04 #@! TO.N,/PIO1*
X10875000Y-7075000D03*
G04 #@! TO.P,U1,C4*
G04 #@! TO.N,/CTRL_RST*
X11525000Y-7075000D03*
G04 #@! TO.P,U1,A6*
G04 #@! TO.N,/VPLL_B*
X12825000Y-5775000D03*
G04 #@! TO.P,U1,A10*
G04 #@! TO.N,/I2C_1_SCL*
X15425000Y-5775000D03*
G04 #@! TO.P,U1,A5*
G04 #@! TO.N,/1V2_SYS_B*
X12175000Y-5775000D03*
G04 #@! TO.P,U1,B8*
G04 #@! TO.N,/DONE*
X14125000Y-6425000D03*
G04 #@! TO.P,U1,A8*
G04 #@! TO.N,/DBG_RX*
X14125000Y-5775000D03*
G04 #@! TO.P,U1,A3*
G04 #@! TO.N,/PIO2*
X10875000Y-5775000D03*
G04 #@! TO.P,U1,B6*
G04 #@! TO.N,/PROC_SS*
X12825000Y-6425000D03*
G04 #@! TO.P,U1,B3*
G04 #@! TO.N,/PROC_RST*
X10875000Y-6425000D03*
G04 #@! TO.P,U1,B10*
G04 #@! TO.N,/SYS_CLK*
X15425000Y-6425000D03*
G04 #@! TO.P,U1,B5*
G04 #@! TO.N,/PROC_SO*
X12175000Y-6425000D03*
G04 #@! TO.P,U1,B1*
G04 #@! TO.N,/3V3_SYS*
X9575000Y-6425000D03*
D11*
G04 #@! TO.P,U1,EP*
G04 #@! TO.N,GND*
X12500000Y-10000000D03*
G04 #@! TD*
D12*
G04 #@! TO.N,GND*
G04 #@! TO.C,C8*
G36*
X11936958Y-2270710D02*
X11951276Y-2272834D01*
X11965317Y-2276351D01*
X11978946Y-2281228D01*
X11992031Y-2287417D01*
X12004447Y-2294858D01*
X12016073Y-2303481D01*
X12026798Y-2313202D01*
X12036519Y-2323927D01*
X12045142Y-2335553D01*
X12052583Y-2347969D01*
X12058772Y-2361054D01*
X12063649Y-2374683D01*
X12067166Y-2388724D01*
X12069290Y-2403042D01*
X12070000Y-2417500D01*
X12070000Y-2712500D01*
X12069290Y-2726958D01*
X12067166Y-2741276D01*
X12063649Y-2755317D01*
X12058772Y-2768946D01*
X12052583Y-2782031D01*
X12045142Y-2794447D01*
X12036519Y-2806073D01*
X12026798Y-2816798D01*
X12016073Y-2826519D01*
X12004447Y-2835142D01*
X11992031Y-2842583D01*
X11978946Y-2848772D01*
X11965317Y-2853649D01*
X11951276Y-2857166D01*
X11936958Y-2859290D01*
X11922500Y-2860000D01*
X11577500Y-2860000D01*
X11563042Y-2859290D01*
X11548724Y-2857166D01*
X11534683Y-2853649D01*
X11521054Y-2848772D01*
X11507969Y-2842583D01*
X11495553Y-2835142D01*
X11483927Y-2826519D01*
X11473202Y-2816798D01*
X11463481Y-2806073D01*
X11454858Y-2794447D01*
X11447417Y-2782031D01*
X11441228Y-2768946D01*
X11436351Y-2755317D01*
X11432834Y-2741276D01*
X11430710Y-2726958D01*
X11430000Y-2712500D01*
X11430000Y-2417500D01*
X11430710Y-2403042D01*
X11432834Y-2388724D01*
X11436351Y-2374683D01*
X11441228Y-2361054D01*
X11447417Y-2347969D01*
X11454858Y-2335553D01*
X11463481Y-2323927D01*
X11473202Y-2313202D01*
X11483927Y-2303481D01*
X11495553Y-2294858D01*
X11507969Y-2287417D01*
X11521054Y-2281228D01*
X11534683Y-2276351D01*
X11548724Y-2272834D01*
X11563042Y-2270710D01*
X11577500Y-2270000D01*
X11922500Y-2270000D01*
X11936958Y-2270710D01*
X11936958Y-2270710D01*
G37*
D13*
G04 #@! TD*
G04 #@! TO.P,C8,2*
G04 #@! TO.N,GND*
X11750000Y-2565000D03*
D12*
G04 #@! TO.N,/1V2_SYS_B*
G04 #@! TO.C,C8*
G36*
X11936958Y-3240710D02*
X11951276Y-3242834D01*
X11965317Y-3246351D01*
X11978946Y-3251228D01*
X11992031Y-3257417D01*
X12004447Y-3264858D01*
X12016073Y-3273481D01*
X12026798Y-3283202D01*
X12036519Y-3293927D01*
X12045142Y-3305553D01*
X12052583Y-3317969D01*
X12058772Y-3331054D01*
X12063649Y-3344683D01*
X12067166Y-3358724D01*
X12069290Y-3373042D01*
X12070000Y-3387500D01*
X12070000Y-3682500D01*
X12069290Y-3696958D01*
X12067166Y-3711276D01*
X12063649Y-3725317D01*
X12058772Y-3738946D01*
X12052583Y-3752031D01*
X12045142Y-3764447D01*
X12036519Y-3776073D01*
X12026798Y-3786798D01*
X12016073Y-3796519D01*
X12004447Y-3805142D01*
X11992031Y-3812583D01*
X11978946Y-3818772D01*
X11965317Y-3823649D01*
X11951276Y-3827166D01*
X11936958Y-3829290D01*
X11922500Y-3830000D01*
X11577500Y-3830000D01*
X11563042Y-3829290D01*
X11548724Y-3827166D01*
X11534683Y-3823649D01*
X11521054Y-3818772D01*
X11507969Y-3812583D01*
X11495553Y-3805142D01*
X11483927Y-3796519D01*
X11473202Y-3786798D01*
X11463481Y-3776073D01*
X11454858Y-3764447D01*
X11447417Y-3752031D01*
X11441228Y-3738946D01*
X11436351Y-3725317D01*
X11432834Y-3711276D01*
X11430710Y-3696958D01*
X11430000Y-3682500D01*
X11430000Y-3387500D01*
X11430710Y-3373042D01*
X11432834Y-3358724D01*
X11436351Y-3344683D01*
X11441228Y-3331054D01*
X11447417Y-3317969D01*
X11454858Y-3305553D01*
X11463481Y-3293927D01*
X11473202Y-3283202D01*
X11483927Y-3273481D01*
X11495553Y-3264858D01*
X11507969Y-3257417D01*
X11521054Y-3251228D01*
X11534683Y-3246351D01*
X11548724Y-3242834D01*
X11563042Y-3240710D01*
X11577500Y-3240000D01*
X11922500Y-3240000D01*
X11936958Y-3240710D01*
X11936958Y-3240710D01*
G37*
D13*
G04 #@! TD*
G04 #@! TO.P,C8,1*
G04 #@! TO.N,/1V2_SYS_B*
X11750000Y-3535000D03*
D12*
G04 #@! TO.N,GND*
G04 #@! TO.C,C7*
G36*
X6761958Y-6425710D02*
X6776276Y-6427834D01*
X6790317Y-6431351D01*
X6803946Y-6436228D01*
X6817031Y-6442417D01*
X6829447Y-6449858D01*
X6841073Y-6458481D01*
X6851798Y-6468202D01*
X6861519Y-6478927D01*
X6870142Y-6490553D01*
X6877583Y-6502969D01*
X6883772Y-6516054D01*
X6888649Y-6529683D01*
X6892166Y-6543724D01*
X6894290Y-6558042D01*
X6895000Y-6572500D01*
X6895000Y-6867500D01*
X6894290Y-6881958D01*
X6892166Y-6896276D01*
X6888649Y-6910317D01*
X6883772Y-6923946D01*
X6877583Y-6937031D01*
X6870142Y-6949447D01*
X6861519Y-6961073D01*
X6851798Y-6971798D01*
X6841073Y-6981519D01*
X6829447Y-6990142D01*
X6817031Y-6997583D01*
X6803946Y-7003772D01*
X6790317Y-7008649D01*
X6776276Y-7012166D01*
X6761958Y-7014290D01*
X6747500Y-7015000D01*
X6402500Y-7015000D01*
X6388042Y-7014290D01*
X6373724Y-7012166D01*
X6359683Y-7008649D01*
X6346054Y-7003772D01*
X6332969Y-6997583D01*
X6320553Y-6990142D01*
X6308927Y-6981519D01*
X6298202Y-6971798D01*
X6288481Y-6961073D01*
X6279858Y-6949447D01*
X6272417Y-6937031D01*
X6266228Y-6923946D01*
X6261351Y-6910317D01*
X6257834Y-6896276D01*
X6255710Y-6881958D01*
X6255000Y-6867500D01*
X6255000Y-6572500D01*
X6255710Y-6558042D01*
X6257834Y-6543724D01*
X6261351Y-6529683D01*
X6266228Y-6516054D01*
X6272417Y-6502969D01*
X6279858Y-6490553D01*
X6288481Y-6478927D01*
X6298202Y-6468202D01*
X6308927Y-6458481D01*
X6320553Y-6449858D01*
X6332969Y-6442417D01*
X6346054Y-6436228D01*
X6359683Y-6431351D01*
X6373724Y-6427834D01*
X6388042Y-6425710D01*
X6402500Y-6425000D01*
X6747500Y-6425000D01*
X6761958Y-6425710D01*
X6761958Y-6425710D01*
G37*
D13*
G04 #@! TD*
G04 #@! TO.P,C7,2*
G04 #@! TO.N,GND*
X6575000Y-6720000D03*
D12*
G04 #@! TO.N,/2V5_SYS*
G04 #@! TO.C,C7*
G36*
X6761958Y-7395710D02*
X6776276Y-7397834D01*
X6790317Y-7401351D01*
X6803946Y-7406228D01*
X6817031Y-7412417D01*
X6829447Y-7419858D01*
X6841073Y-7428481D01*
X6851798Y-7438202D01*
X6861519Y-7448927D01*
X6870142Y-7460553D01*
X6877583Y-7472969D01*
X6883772Y-7486054D01*
X6888649Y-7499683D01*
X6892166Y-7513724D01*
X6894290Y-7528042D01*
X6895000Y-7542500D01*
X6895000Y-7837500D01*
X6894290Y-7851958D01*
X6892166Y-7866276D01*
X6888649Y-7880317D01*
X6883772Y-7893946D01*
X6877583Y-7907031D01*
X6870142Y-7919447D01*
X6861519Y-7931073D01*
X6851798Y-7941798D01*
X6841073Y-7951519D01*
X6829447Y-7960142D01*
X6817031Y-7967583D01*
X6803946Y-7973772D01*
X6790317Y-7978649D01*
X6776276Y-7982166D01*
X6761958Y-7984290D01*
X6747500Y-7985000D01*
X6402500Y-7985000D01*
X6388042Y-7984290D01*
X6373724Y-7982166D01*
X6359683Y-7978649D01*
X6346054Y-7973772D01*
X6332969Y-7967583D01*
X6320553Y-7960142D01*
X6308927Y-7951519D01*
X6298202Y-7941798D01*
X6288481Y-7931073D01*
X6279858Y-7919447D01*
X6272417Y-7907031D01*
X6266228Y-7893946D01*
X6261351Y-7880317D01*
X6257834Y-7866276D01*
X6255710Y-7851958D01*
X6255000Y-7837500D01*
X6255000Y-7542500D01*
X6255710Y-7528042D01*
X6257834Y-7513724D01*
X6261351Y-7499683D01*
X6266228Y-7486054D01*
X6272417Y-7472969D01*
X6279858Y-7460553D01*
X6288481Y-7448927D01*
X6298202Y-7438202D01*
X6308927Y-7428481D01*
X6320553Y-7419858D01*
X6332969Y-7412417D01*
X6346054Y-7406228D01*
X6359683Y-7401351D01*
X6373724Y-7397834D01*
X6388042Y-7395710D01*
X6402500Y-7395000D01*
X6747500Y-7395000D01*
X6761958Y-7395710D01*
X6761958Y-7395710D01*
G37*
D13*
G04 #@! TD*
G04 #@! TO.P,C7,1*
G04 #@! TO.N,/2V5_SYS*
X6575000Y-7690000D03*
D12*
G04 #@! TO.N,GND*
G04 #@! TO.C,C6*
G36*
X17336958Y-13910710D02*
X17351276Y-13912834D01*
X17365317Y-13916351D01*
X17378946Y-13921228D01*
X17392031Y-13927417D01*
X17404447Y-13934858D01*
X17416073Y-13943481D01*
X17426798Y-13953202D01*
X17436519Y-13963927D01*
X17445142Y-13975553D01*
X17452583Y-13987969D01*
X17458772Y-14001054D01*
X17463649Y-14014683D01*
X17467166Y-14028724D01*
X17469290Y-14043042D01*
X17470000Y-14057500D01*
X17470000Y-14352500D01*
X17469290Y-14366958D01*
X17467166Y-14381276D01*
X17463649Y-14395317D01*
X17458772Y-14408946D01*
X17452583Y-14422031D01*
X17445142Y-14434447D01*
X17436519Y-14446073D01*
X17426798Y-14456798D01*
X17416073Y-14466519D01*
X17404447Y-14475142D01*
X17392031Y-14482583D01*
X17378946Y-14488772D01*
X17365317Y-14493649D01*
X17351276Y-14497166D01*
X17336958Y-14499290D01*
X17322500Y-14500000D01*
X16977500Y-14500000D01*
X16963042Y-14499290D01*
X16948724Y-14497166D01*
X16934683Y-14493649D01*
X16921054Y-14488772D01*
X16907969Y-14482583D01*
X16895553Y-14475142D01*
X16883927Y-14466519D01*
X16873202Y-14456798D01*
X16863481Y-14446073D01*
X16854858Y-14434447D01*
X16847417Y-14422031D01*
X16841228Y-14408946D01*
X16836351Y-14395317D01*
X16832834Y-14381276D01*
X16830710Y-14366958D01*
X16830000Y-14352500D01*
X16830000Y-14057500D01*
X16830710Y-14043042D01*
X16832834Y-14028724D01*
X16836351Y-14014683D01*
X16841228Y-14001054D01*
X16847417Y-13987969D01*
X16854858Y-13975553D01*
X16863481Y-13963927D01*
X16873202Y-13953202D01*
X16883927Y-13943481D01*
X16895553Y-13934858D01*
X16907969Y-13927417D01*
X16921054Y-13921228D01*
X16934683Y-13916351D01*
X16948724Y-13912834D01*
X16963042Y-13910710D01*
X16977500Y-13910000D01*
X17322500Y-13910000D01*
X17336958Y-13910710D01*
X17336958Y-13910710D01*
G37*
D13*
G04 #@! TD*
G04 #@! TO.P,C6,2*
G04 #@! TO.N,GND*
X17150000Y-14205000D03*
D12*
G04 #@! TO.N,/1V8_SYS*
G04 #@! TO.C,C6*
G36*
X17336958Y-12940710D02*
X17351276Y-12942834D01*
X17365317Y-12946351D01*
X17378946Y-12951228D01*
X17392031Y-12957417D01*
X17404447Y-12964858D01*
X17416073Y-12973481D01*
X17426798Y-12983202D01*
X17436519Y-12993927D01*
X17445142Y-13005553D01*
X17452583Y-13017969D01*
X17458772Y-13031054D01*
X17463649Y-13044683D01*
X17467166Y-13058724D01*
X17469290Y-13073042D01*
X17470000Y-13087500D01*
X17470000Y-13382500D01*
X17469290Y-13396958D01*
X17467166Y-13411276D01*
X17463649Y-13425317D01*
X17458772Y-13438946D01*
X17452583Y-13452031D01*
X17445142Y-13464447D01*
X17436519Y-13476073D01*
X17426798Y-13486798D01*
X17416073Y-13496519D01*
X17404447Y-13505142D01*
X17392031Y-13512583D01*
X17378946Y-13518772D01*
X17365317Y-13523649D01*
X17351276Y-13527166D01*
X17336958Y-13529290D01*
X17322500Y-13530000D01*
X16977500Y-13530000D01*
X16963042Y-13529290D01*
X16948724Y-13527166D01*
X16934683Y-13523649D01*
X16921054Y-13518772D01*
X16907969Y-13512583D01*
X16895553Y-13505142D01*
X16883927Y-13496519D01*
X16873202Y-13486798D01*
X16863481Y-13476073D01*
X16854858Y-13464447D01*
X16847417Y-13452031D01*
X16841228Y-13438946D01*
X16836351Y-13425317D01*
X16832834Y-13411276D01*
X16830710Y-13396958D01*
X16830000Y-13382500D01*
X16830000Y-13087500D01*
X16830710Y-13073042D01*
X16832834Y-13058724D01*
X16836351Y-13044683D01*
X16841228Y-13031054D01*
X16847417Y-13017969D01*
X16854858Y-13005553D01*
X16863481Y-12993927D01*
X16873202Y-12983202D01*
X16883927Y-12973481D01*
X16895553Y-12964858D01*
X16907969Y-12957417D01*
X16921054Y-12951228D01*
X16934683Y-12946351D01*
X16948724Y-12942834D01*
X16963042Y-12940710D01*
X16977500Y-12940000D01*
X17322500Y-12940000D01*
X17336958Y-12940710D01*
X17336958Y-12940710D01*
G37*
D13*
G04 #@! TD*
G04 #@! TO.P,C6,1*
G04 #@! TO.N,/1V8_SYS*
X17150000Y-13235000D03*
D12*
G04 #@! TO.N,GND*
G04 #@! TO.C,C5*
G36*
X17346958Y-10890710D02*
X17361276Y-10892834D01*
X17375317Y-10896351D01*
X17388946Y-10901228D01*
X17402031Y-10907417D01*
X17414447Y-10914858D01*
X17426073Y-10923481D01*
X17436798Y-10933202D01*
X17446519Y-10943927D01*
X17455142Y-10955553D01*
X17462583Y-10967969D01*
X17468772Y-10981054D01*
X17473649Y-10994683D01*
X17477166Y-11008724D01*
X17479290Y-11023042D01*
X17480000Y-11037500D01*
X17480000Y-11332500D01*
X17479290Y-11346958D01*
X17477166Y-11361276D01*
X17473649Y-11375317D01*
X17468772Y-11388946D01*
X17462583Y-11402031D01*
X17455142Y-11414447D01*
X17446519Y-11426073D01*
X17436798Y-11436798D01*
X17426073Y-11446519D01*
X17414447Y-11455142D01*
X17402031Y-11462583D01*
X17388946Y-11468772D01*
X17375317Y-11473649D01*
X17361276Y-11477166D01*
X17346958Y-11479290D01*
X17332500Y-11480000D01*
X16987500Y-11480000D01*
X16973042Y-11479290D01*
X16958724Y-11477166D01*
X16944683Y-11473649D01*
X16931054Y-11468772D01*
X16917969Y-11462583D01*
X16905553Y-11455142D01*
X16893927Y-11446519D01*
X16883202Y-11436798D01*
X16873481Y-11426073D01*
X16864858Y-11414447D01*
X16857417Y-11402031D01*
X16851228Y-11388946D01*
X16846351Y-11375317D01*
X16842834Y-11361276D01*
X16840710Y-11346958D01*
X16840000Y-11332500D01*
X16840000Y-11037500D01*
X16840710Y-11023042D01*
X16842834Y-11008724D01*
X16846351Y-10994683D01*
X16851228Y-10981054D01*
X16857417Y-10967969D01*
X16864858Y-10955553D01*
X16873481Y-10943927D01*
X16883202Y-10933202D01*
X16893927Y-10923481D01*
X16905553Y-10914858D01*
X16917969Y-10907417D01*
X16931054Y-10901228D01*
X16944683Y-10896351D01*
X16958724Y-10892834D01*
X16973042Y-10890710D01*
X16987500Y-10890000D01*
X17332500Y-10890000D01*
X17346958Y-10890710D01*
X17346958Y-10890710D01*
G37*
D13*
G04 #@! TD*
G04 #@! TO.P,C5,2*
G04 #@! TO.N,GND*
X17160000Y-11185000D03*
D12*
G04 #@! TO.N,/3V3_SYS*
G04 #@! TO.C,C5*
G36*
X17346958Y-11860710D02*
X17361276Y-11862834D01*
X17375317Y-11866351D01*
X17388946Y-11871228D01*
X17402031Y-11877417D01*
X17414447Y-11884858D01*
X17426073Y-11893481D01*
X17436798Y-11903202D01*
X17446519Y-11913927D01*
X17455142Y-11925553D01*
X17462583Y-11937969D01*
X17468772Y-11951054D01*
X17473649Y-11964683D01*
X17477166Y-11978724D01*
X17479290Y-11993042D01*
X17480000Y-12007500D01*
X17480000Y-12302500D01*
X17479290Y-12316958D01*
X17477166Y-12331276D01*
X17473649Y-12345317D01*
X17468772Y-12358946D01*
X17462583Y-12372031D01*
X17455142Y-12384447D01*
X17446519Y-12396073D01*
X17436798Y-12406798D01*
X17426073Y-12416519D01*
X17414447Y-12425142D01*
X17402031Y-12432583D01*
X17388946Y-12438772D01*
X17375317Y-12443649D01*
X17361276Y-12447166D01*
X17346958Y-12449290D01*
X17332500Y-12450000D01*
X16987500Y-12450000D01*
X16973042Y-12449290D01*
X16958724Y-12447166D01*
X16944683Y-12443649D01*
X16931054Y-12438772D01*
X16917969Y-12432583D01*
X16905553Y-12425142D01*
X16893927Y-12416519D01*
X16883202Y-12406798D01*
X16873481Y-12396073D01*
X16864858Y-12384447D01*
X16857417Y-12372031D01*
X16851228Y-12358946D01*
X16846351Y-12345317D01*
X16842834Y-12331276D01*
X16840710Y-12316958D01*
X16840000Y-12302500D01*
X16840000Y-12007500D01*
X16840710Y-11993042D01*
X16842834Y-11978724D01*
X16846351Y-11964683D01*
X16851228Y-11951054D01*
X16857417Y-11937969D01*
X16864858Y-11925553D01*
X16873481Y-11913927D01*
X16883202Y-11903202D01*
X16893927Y-11893481D01*
X16905553Y-11884858D01*
X16917969Y-11877417D01*
X16931054Y-11871228D01*
X16944683Y-11866351D01*
X16958724Y-11862834D01*
X16973042Y-11860710D01*
X16987500Y-11860000D01*
X17332500Y-11860000D01*
X17346958Y-11860710D01*
X17346958Y-11860710D01*
G37*
D13*
G04 #@! TD*
G04 #@! TO.P,C5,1*
G04 #@! TO.N,/3V3_SYS*
X17160000Y-12155000D03*
D12*
G04 #@! TO.N,GND*
G04 #@! TO.C,C4*
G36*
X11926958Y-18050710D02*
X11941276Y-18052834D01*
X11955317Y-18056351D01*
X11968946Y-18061228D01*
X11982031Y-18067417D01*
X11994447Y-18074858D01*
X12006073Y-18083481D01*
X12016798Y-18093202D01*
X12026519Y-18103927D01*
X12035142Y-18115553D01*
X12042583Y-18127969D01*
X12048772Y-18141054D01*
X12053649Y-18154683D01*
X12057166Y-18168724D01*
X12059290Y-18183042D01*
X12060000Y-18197500D01*
X12060000Y-18492500D01*
X12059290Y-18506958D01*
X12057166Y-18521276D01*
X12053649Y-18535317D01*
X12048772Y-18548946D01*
X12042583Y-18562031D01*
X12035142Y-18574447D01*
X12026519Y-18586073D01*
X12016798Y-18596798D01*
X12006073Y-18606519D01*
X11994447Y-18615142D01*
X11982031Y-18622583D01*
X11968946Y-18628772D01*
X11955317Y-18633649D01*
X11941276Y-18637166D01*
X11926958Y-18639290D01*
X11912500Y-18640000D01*
X11567500Y-18640000D01*
X11553042Y-18639290D01*
X11538724Y-18637166D01*
X11524683Y-18633649D01*
X11511054Y-18628772D01*
X11497969Y-18622583D01*
X11485553Y-18615142D01*
X11473927Y-18606519D01*
X11463202Y-18596798D01*
X11453481Y-18586073D01*
X11444858Y-18574447D01*
X11437417Y-18562031D01*
X11431228Y-18548946D01*
X11426351Y-18535317D01*
X11422834Y-18521276D01*
X11420710Y-18506958D01*
X11420000Y-18492500D01*
X11420000Y-18197500D01*
X11420710Y-18183042D01*
X11422834Y-18168724D01*
X11426351Y-18154683D01*
X11431228Y-18141054D01*
X11437417Y-18127969D01*
X11444858Y-18115553D01*
X11453481Y-18103927D01*
X11463202Y-18093202D01*
X11473927Y-18083481D01*
X11485553Y-18074858D01*
X11497969Y-18067417D01*
X11511054Y-18061228D01*
X11524683Y-18056351D01*
X11538724Y-18052834D01*
X11553042Y-18050710D01*
X11567500Y-18050000D01*
X11912500Y-18050000D01*
X11926958Y-18050710D01*
X11926958Y-18050710D01*
G37*
D13*
G04 #@! TD*
G04 #@! TO.P,C4,2*
G04 #@! TO.N,GND*
X11740000Y-18345000D03*
D12*
G04 #@! TO.N,/1V2_SYS*
G04 #@! TO.C,C4*
G36*
X11926958Y-17080710D02*
X11941276Y-17082834D01*
X11955317Y-17086351D01*
X11968946Y-17091228D01*
X11982031Y-17097417D01*
X11994447Y-17104858D01*
X12006073Y-17113481D01*
X12016798Y-17123202D01*
X12026519Y-17133927D01*
X12035142Y-17145553D01*
X12042583Y-17157969D01*
X12048772Y-17171054D01*
X12053649Y-17184683D01*
X12057166Y-17198724D01*
X12059290Y-17213042D01*
X12060000Y-17227500D01*
X12060000Y-17522500D01*
X12059290Y-17536958D01*
X12057166Y-17551276D01*
X12053649Y-17565317D01*
X12048772Y-17578946D01*
X12042583Y-17592031D01*
X12035142Y-17604447D01*
X12026519Y-17616073D01*
X12016798Y-17626798D01*
X12006073Y-17636519D01*
X11994447Y-17645142D01*
X11982031Y-17652583D01*
X11968946Y-17658772D01*
X11955317Y-17663649D01*
X11941276Y-17667166D01*
X11926958Y-17669290D01*
X11912500Y-17670000D01*
X11567500Y-17670000D01*
X11553042Y-17669290D01*
X11538724Y-17667166D01*
X11524683Y-17663649D01*
X11511054Y-17658772D01*
X11497969Y-17652583D01*
X11485553Y-17645142D01*
X11473927Y-17636519D01*
X11463202Y-17626798D01*
X11453481Y-17616073D01*
X11444858Y-17604447D01*
X11437417Y-17592031D01*
X11431228Y-17578946D01*
X11426351Y-17565317D01*
X11422834Y-17551276D01*
X11420710Y-17536958D01*
X11420000Y-17522500D01*
X11420000Y-17227500D01*
X11420710Y-17213042D01*
X11422834Y-17198724D01*
X11426351Y-17184683D01*
X11431228Y-17171054D01*
X11437417Y-17157969D01*
X11444858Y-17145553D01*
X11453481Y-17133927D01*
X11463202Y-17123202D01*
X11473927Y-17113481D01*
X11485553Y-17104858D01*
X11497969Y-17097417D01*
X11511054Y-17091228D01*
X11524683Y-17086351D01*
X11538724Y-17082834D01*
X11553042Y-17080710D01*
X11567500Y-17080000D01*
X11912500Y-17080000D01*
X11926958Y-17080710D01*
X11926958Y-17080710D01*
G37*
D13*
G04 #@! TD*
G04 #@! TO.P,C4,1*
G04 #@! TO.N,/1V2_SYS*
X11740000Y-17375000D03*
D12*
G04 #@! TO.N,GND*
G04 #@! TO.C,C3*
G36*
X7811958Y-6425710D02*
X7826276Y-6427834D01*
X7840317Y-6431351D01*
X7853946Y-6436228D01*
X7867031Y-6442417D01*
X7879447Y-6449858D01*
X7891073Y-6458481D01*
X7901798Y-6468202D01*
X7911519Y-6478927D01*
X7920142Y-6490553D01*
X7927583Y-6502969D01*
X7933772Y-6516054D01*
X7938649Y-6529683D01*
X7942166Y-6543724D01*
X7944290Y-6558042D01*
X7945000Y-6572500D01*
X7945000Y-6867500D01*
X7944290Y-6881958D01*
X7942166Y-6896276D01*
X7938649Y-6910317D01*
X7933772Y-6923946D01*
X7927583Y-6937031D01*
X7920142Y-6949447D01*
X7911519Y-6961073D01*
X7901798Y-6971798D01*
X7891073Y-6981519D01*
X7879447Y-6990142D01*
X7867031Y-6997583D01*
X7853946Y-7003772D01*
X7840317Y-7008649D01*
X7826276Y-7012166D01*
X7811958Y-7014290D01*
X7797500Y-7015000D01*
X7452500Y-7015000D01*
X7438042Y-7014290D01*
X7423724Y-7012166D01*
X7409683Y-7008649D01*
X7396054Y-7003772D01*
X7382969Y-6997583D01*
X7370553Y-6990142D01*
X7358927Y-6981519D01*
X7348202Y-6971798D01*
X7338481Y-6961073D01*
X7329858Y-6949447D01*
X7322417Y-6937031D01*
X7316228Y-6923946D01*
X7311351Y-6910317D01*
X7307834Y-6896276D01*
X7305710Y-6881958D01*
X7305000Y-6867500D01*
X7305000Y-6572500D01*
X7305710Y-6558042D01*
X7307834Y-6543724D01*
X7311351Y-6529683D01*
X7316228Y-6516054D01*
X7322417Y-6502969D01*
X7329858Y-6490553D01*
X7338481Y-6478927D01*
X7348202Y-6468202D01*
X7358927Y-6458481D01*
X7370553Y-6449858D01*
X7382969Y-6442417D01*
X7396054Y-6436228D01*
X7409683Y-6431351D01*
X7423724Y-6427834D01*
X7438042Y-6425710D01*
X7452500Y-6425000D01*
X7797500Y-6425000D01*
X7811958Y-6425710D01*
X7811958Y-6425710D01*
G37*
D13*
G04 #@! TD*
G04 #@! TO.P,C3,2*
G04 #@! TO.N,GND*
X7625000Y-6720000D03*
D12*
G04 #@! TO.N,/2V5_SYS*
G04 #@! TO.C,C3*
G36*
X7811958Y-7395710D02*
X7826276Y-7397834D01*
X7840317Y-7401351D01*
X7853946Y-7406228D01*
X7867031Y-7412417D01*
X7879447Y-7419858D01*
X7891073Y-7428481D01*
X7901798Y-7438202D01*
X7911519Y-7448927D01*
X7920142Y-7460553D01*
X7927583Y-7472969D01*
X7933772Y-7486054D01*
X7938649Y-7499683D01*
X7942166Y-7513724D01*
X7944290Y-7528042D01*
X7945000Y-7542500D01*
X7945000Y-7837500D01*
X7944290Y-7851958D01*
X7942166Y-7866276D01*
X7938649Y-7880317D01*
X7933772Y-7893946D01*
X7927583Y-7907031D01*
X7920142Y-7919447D01*
X7911519Y-7931073D01*
X7901798Y-7941798D01*
X7891073Y-7951519D01*
X7879447Y-7960142D01*
X7867031Y-7967583D01*
X7853946Y-7973772D01*
X7840317Y-7978649D01*
X7826276Y-7982166D01*
X7811958Y-7984290D01*
X7797500Y-7985000D01*
X7452500Y-7985000D01*
X7438042Y-7984290D01*
X7423724Y-7982166D01*
X7409683Y-7978649D01*
X7396054Y-7973772D01*
X7382969Y-7967583D01*
X7370553Y-7960142D01*
X7358927Y-7951519D01*
X7348202Y-7941798D01*
X7338481Y-7931073D01*
X7329858Y-7919447D01*
X7322417Y-7907031D01*
X7316228Y-7893946D01*
X7311351Y-7880317D01*
X7307834Y-7866276D01*
X7305710Y-7851958D01*
X7305000Y-7837500D01*
X7305000Y-7542500D01*
X7305710Y-7528042D01*
X7307834Y-7513724D01*
X7311351Y-7499683D01*
X7316228Y-7486054D01*
X7322417Y-7472969D01*
X7329858Y-7460553D01*
X7338481Y-7448927D01*
X7348202Y-7438202D01*
X7358927Y-7428481D01*
X7370553Y-7419858D01*
X7382969Y-7412417D01*
X7396054Y-7406228D01*
X7409683Y-7401351D01*
X7423724Y-7397834D01*
X7438042Y-7395710D01*
X7452500Y-7395000D01*
X7797500Y-7395000D01*
X7811958Y-7395710D01*
X7811958Y-7395710D01*
G37*
D13*
G04 #@! TD*
G04 #@! TO.P,C3,1*
G04 #@! TO.N,/2V5_SYS*
X7625000Y-7690000D03*
D12*
G04 #@! TO.N,GND*
G04 #@! TO.C,C2*
G36*
X18386958Y-13910710D02*
X18401276Y-13912834D01*
X18415317Y-13916351D01*
X18428946Y-13921228D01*
X18442031Y-13927417D01*
X18454447Y-13934858D01*
X18466073Y-13943481D01*
X18476798Y-13953202D01*
X18486519Y-13963927D01*
X18495142Y-13975553D01*
X18502583Y-13987969D01*
X18508772Y-14001054D01*
X18513649Y-14014683D01*
X18517166Y-14028724D01*
X18519290Y-14043042D01*
X18520000Y-14057500D01*
X18520000Y-14352500D01*
X18519290Y-14366958D01*
X18517166Y-14381276D01*
X18513649Y-14395317D01*
X18508772Y-14408946D01*
X18502583Y-14422031D01*
X18495142Y-14434447D01*
X18486519Y-14446073D01*
X18476798Y-14456798D01*
X18466073Y-14466519D01*
X18454447Y-14475142D01*
X18442031Y-14482583D01*
X18428946Y-14488772D01*
X18415317Y-14493649D01*
X18401276Y-14497166D01*
X18386958Y-14499290D01*
X18372500Y-14500000D01*
X18027500Y-14500000D01*
X18013042Y-14499290D01*
X17998724Y-14497166D01*
X17984683Y-14493649D01*
X17971054Y-14488772D01*
X17957969Y-14482583D01*
X17945553Y-14475142D01*
X17933927Y-14466519D01*
X17923202Y-14456798D01*
X17913481Y-14446073D01*
X17904858Y-14434447D01*
X17897417Y-14422031D01*
X17891228Y-14408946D01*
X17886351Y-14395317D01*
X17882834Y-14381276D01*
X17880710Y-14366958D01*
X17880000Y-14352500D01*
X17880000Y-14057500D01*
X17880710Y-14043042D01*
X17882834Y-14028724D01*
X17886351Y-14014683D01*
X17891228Y-14001054D01*
X17897417Y-13987969D01*
X17904858Y-13975553D01*
X17913481Y-13963927D01*
X17923202Y-13953202D01*
X17933927Y-13943481D01*
X17945553Y-13934858D01*
X17957969Y-13927417D01*
X17971054Y-13921228D01*
X17984683Y-13916351D01*
X17998724Y-13912834D01*
X18013042Y-13910710D01*
X18027500Y-13910000D01*
X18372500Y-13910000D01*
X18386958Y-13910710D01*
X18386958Y-13910710D01*
G37*
D13*
G04 #@! TD*
G04 #@! TO.P,C2,2*
G04 #@! TO.N,GND*
X18200000Y-14205000D03*
D12*
G04 #@! TO.N,/1V8_SYS*
G04 #@! TO.C,C2*
G36*
X18386958Y-12940710D02*
X18401276Y-12942834D01*
X18415317Y-12946351D01*
X18428946Y-12951228D01*
X18442031Y-12957417D01*
X18454447Y-12964858D01*
X18466073Y-12973481D01*
X18476798Y-12983202D01*
X18486519Y-12993927D01*
X18495142Y-13005553D01*
X18502583Y-13017969D01*
X18508772Y-13031054D01*
X18513649Y-13044683D01*
X18517166Y-13058724D01*
X18519290Y-13073042D01*
X18520000Y-13087500D01*
X18520000Y-13382500D01*
X18519290Y-13396958D01*
X18517166Y-13411276D01*
X18513649Y-13425317D01*
X18508772Y-13438946D01*
X18502583Y-13452031D01*
X18495142Y-13464447D01*
X18486519Y-13476073D01*
X18476798Y-13486798D01*
X18466073Y-13496519D01*
X18454447Y-13505142D01*
X18442031Y-13512583D01*
X18428946Y-13518772D01*
X18415317Y-13523649D01*
X18401276Y-13527166D01*
X18386958Y-13529290D01*
X18372500Y-13530000D01*
X18027500Y-13530000D01*
X18013042Y-13529290D01*
X17998724Y-13527166D01*
X17984683Y-13523649D01*
X17971054Y-13518772D01*
X17957969Y-13512583D01*
X17945553Y-13505142D01*
X17933927Y-13496519D01*
X17923202Y-13486798D01*
X17913481Y-13476073D01*
X17904858Y-13464447D01*
X17897417Y-13452031D01*
X17891228Y-13438946D01*
X17886351Y-13425317D01*
X17882834Y-13411276D01*
X17880710Y-13396958D01*
X17880000Y-13382500D01*
X17880000Y-13087500D01*
X17880710Y-13073042D01*
X17882834Y-13058724D01*
X17886351Y-13044683D01*
X17891228Y-13031054D01*
X17897417Y-13017969D01*
X17904858Y-13005553D01*
X17913481Y-12993927D01*
X17923202Y-12983202D01*
X17933927Y-12973481D01*
X17945553Y-12964858D01*
X17957969Y-12957417D01*
X17971054Y-12951228D01*
X17984683Y-12946351D01*
X17998724Y-12942834D01*
X18013042Y-12940710D01*
X18027500Y-12940000D01*
X18372500Y-12940000D01*
X18386958Y-12940710D01*
X18386958Y-12940710D01*
G37*
D13*
G04 #@! TD*
G04 #@! TO.P,C2,1*
G04 #@! TO.N,/1V8_SYS*
X18200000Y-13235000D03*
D12*
G04 #@! TO.N,GND*
G04 #@! TO.C,C10*
G36*
X10441958Y-16765710D02*
X10456276Y-16767834D01*
X10470317Y-16771351D01*
X10483946Y-16776228D01*
X10497031Y-16782417D01*
X10509447Y-16789858D01*
X10521073Y-16798481D01*
X10531798Y-16808202D01*
X10541519Y-16818927D01*
X10550142Y-16830553D01*
X10557583Y-16842969D01*
X10563772Y-16856054D01*
X10568649Y-16869683D01*
X10572166Y-16883724D01*
X10574290Y-16898042D01*
X10575000Y-16912500D01*
X10575000Y-17207500D01*
X10574290Y-17221958D01*
X10572166Y-17236276D01*
X10568649Y-17250317D01*
X10563772Y-17263946D01*
X10557583Y-17277031D01*
X10550142Y-17289447D01*
X10541519Y-17301073D01*
X10531798Y-17311798D01*
X10521073Y-17321519D01*
X10509447Y-17330142D01*
X10497031Y-17337583D01*
X10483946Y-17343772D01*
X10470317Y-17348649D01*
X10456276Y-17352166D01*
X10441958Y-17354290D01*
X10427500Y-17355000D01*
X10082500Y-17355000D01*
X10068042Y-17354290D01*
X10053724Y-17352166D01*
X10039683Y-17348649D01*
X10026054Y-17343772D01*
X10012969Y-17337583D01*
X10000553Y-17330142D01*
X9988927Y-17321519D01*
X9978202Y-17311798D01*
X9968481Y-17301073D01*
X9959858Y-17289447D01*
X9952417Y-17277031D01*
X9946228Y-17263946D01*
X9941351Y-17250317D01*
X9937834Y-17236276D01*
X9935710Y-17221958D01*
X9935000Y-17207500D01*
X9935000Y-16912500D01*
X9935710Y-16898042D01*
X9937834Y-16883724D01*
X9941351Y-16869683D01*
X9946228Y-16856054D01*
X9952417Y-16842969D01*
X9959858Y-16830553D01*
X9968481Y-16818927D01*
X9978202Y-16808202D01*
X9988927Y-16798481D01*
X10000553Y-16789858D01*
X10012969Y-16782417D01*
X10026054Y-16776228D01*
X10039683Y-16771351D01*
X10053724Y-16767834D01*
X10068042Y-16765710D01*
X10082500Y-16765000D01*
X10427500Y-16765000D01*
X10441958Y-16765710D01*
X10441958Y-16765710D01*
G37*
D13*
G04 #@! TD*
G04 #@! TO.P,C10,2*
G04 #@! TO.N,GND*
X10255000Y-17060000D03*
D12*
G04 #@! TO.N,/VDDANA*
G04 #@! TO.C,C10*
G36*
X10441958Y-15795710D02*
X10456276Y-15797834D01*
X10470317Y-15801351D01*
X10483946Y-15806228D01*
X10497031Y-15812417D01*
X10509447Y-15819858D01*
X10521073Y-15828481D01*
X10531798Y-15838202D01*
X10541519Y-15848927D01*
X10550142Y-15860553D01*
X10557583Y-15872969D01*
X10563772Y-15886054D01*
X10568649Y-15899683D01*
X10572166Y-15913724D01*
X10574290Y-15928042D01*
X10575000Y-15942500D01*
X10575000Y-16237500D01*
X10574290Y-16251958D01*
X10572166Y-16266276D01*
X10568649Y-16280317D01*
X10563772Y-16293946D01*
X10557583Y-16307031D01*
X10550142Y-16319447D01*
X10541519Y-16331073D01*
X10531798Y-16341798D01*
X10521073Y-16351519D01*
X10509447Y-16360142D01*
X10497031Y-16367583D01*
X10483946Y-16373772D01*
X10470317Y-16378649D01*
X10456276Y-16382166D01*
X10441958Y-16384290D01*
X10427500Y-16385000D01*
X10082500Y-16385000D01*
X10068042Y-16384290D01*
X10053724Y-16382166D01*
X10039683Y-16378649D01*
X10026054Y-16373772D01*
X10012969Y-16367583D01*
X10000553Y-16360142D01*
X9988927Y-16351519D01*
X9978202Y-16341798D01*
X9968481Y-16331073D01*
X9959858Y-16319447D01*
X9952417Y-16307031D01*
X9946228Y-16293946D01*
X9941351Y-16280317D01*
X9937834Y-16266276D01*
X9935710Y-16251958D01*
X9935000Y-16237500D01*
X9935000Y-15942500D01*
X9935710Y-15928042D01*
X9937834Y-15913724D01*
X9941351Y-15899683D01*
X9946228Y-15886054D01*
X9952417Y-15872969D01*
X9959858Y-15860553D01*
X9968481Y-15848927D01*
X9978202Y-15838202D01*
X9988927Y-15828481D01*
X10000553Y-15819858D01*
X10012969Y-15812417D01*
X10026054Y-15806228D01*
X10039683Y-15801351D01*
X10053724Y-15797834D01*
X10068042Y-15795710D01*
X10082500Y-15795000D01*
X10427500Y-15795000D01*
X10441958Y-15795710D01*
X10441958Y-15795710D01*
G37*
D13*
G04 #@! TD*
G04 #@! TO.P,C10,1*
G04 #@! TO.N,/VDDANA*
X10255000Y-16090000D03*
D12*
G04 #@! TO.N,GND*
G04 #@! TO.C,C12*
G36*
X13356958Y-2220710D02*
X13371276Y-2222834D01*
X13385317Y-2226351D01*
X13398946Y-2231228D01*
X13412031Y-2237417D01*
X13424447Y-2244858D01*
X13436073Y-2253481D01*
X13446798Y-2263202D01*
X13456519Y-2273927D01*
X13465142Y-2285553D01*
X13472583Y-2297969D01*
X13478772Y-2311054D01*
X13483649Y-2324683D01*
X13487166Y-2338724D01*
X13489290Y-2353042D01*
X13490000Y-2367500D01*
X13490000Y-2662500D01*
X13489290Y-2676958D01*
X13487166Y-2691276D01*
X13483649Y-2705317D01*
X13478772Y-2718946D01*
X13472583Y-2732031D01*
X13465142Y-2744447D01*
X13456519Y-2756073D01*
X13446798Y-2766798D01*
X13436073Y-2776519D01*
X13424447Y-2785142D01*
X13412031Y-2792583D01*
X13398946Y-2798772D01*
X13385317Y-2803649D01*
X13371276Y-2807166D01*
X13356958Y-2809290D01*
X13342500Y-2810000D01*
X12997500Y-2810000D01*
X12983042Y-2809290D01*
X12968724Y-2807166D01*
X12954683Y-2803649D01*
X12941054Y-2798772D01*
X12927969Y-2792583D01*
X12915553Y-2785142D01*
X12903927Y-2776519D01*
X12893202Y-2766798D01*
X12883481Y-2756073D01*
X12874858Y-2744447D01*
X12867417Y-2732031D01*
X12861228Y-2718946D01*
X12856351Y-2705317D01*
X12852834Y-2691276D01*
X12850710Y-2676958D01*
X12850000Y-2662500D01*
X12850000Y-2367500D01*
X12850710Y-2353042D01*
X12852834Y-2338724D01*
X12856351Y-2324683D01*
X12861228Y-2311054D01*
X12867417Y-2297969D01*
X12874858Y-2285553D01*
X12883481Y-2273927D01*
X12893202Y-2263202D01*
X12903927Y-2253481D01*
X12915553Y-2244858D01*
X12927969Y-2237417D01*
X12941054Y-2231228D01*
X12954683Y-2226351D01*
X12968724Y-2222834D01*
X12983042Y-2220710D01*
X12997500Y-2220000D01*
X13342500Y-2220000D01*
X13356958Y-2220710D01*
X13356958Y-2220710D01*
G37*
D13*
G04 #@! TD*
G04 #@! TO.P,C12,2*
G04 #@! TO.N,GND*
X13170000Y-2515000D03*
D12*
G04 #@! TO.N,/VPLL_B*
G04 #@! TO.C,C12*
G36*
X13356958Y-3190710D02*
X13371276Y-3192834D01*
X13385317Y-3196351D01*
X13398946Y-3201228D01*
X13412031Y-3207417D01*
X13424447Y-3214858D01*
X13436073Y-3223481D01*
X13446798Y-3233202D01*
X13456519Y-3243927D01*
X13465142Y-3255553D01*
X13472583Y-3267969D01*
X13478772Y-3281054D01*
X13483649Y-3294683D01*
X13487166Y-3308724D01*
X13489290Y-3323042D01*
X13490000Y-3337500D01*
X13490000Y-3632500D01*
X13489290Y-3646958D01*
X13487166Y-3661276D01*
X13483649Y-3675317D01*
X13478772Y-3688946D01*
X13472583Y-3702031D01*
X13465142Y-3714447D01*
X13456519Y-3726073D01*
X13446798Y-3736798D01*
X13436073Y-3746519D01*
X13424447Y-3755142D01*
X13412031Y-3762583D01*
X13398946Y-3768772D01*
X13385317Y-3773649D01*
X13371276Y-3777166D01*
X13356958Y-3779290D01*
X13342500Y-3780000D01*
X12997500Y-3780000D01*
X12983042Y-3779290D01*
X12968724Y-3777166D01*
X12954683Y-3773649D01*
X12941054Y-3768772D01*
X12927969Y-3762583D01*
X12915553Y-3755142D01*
X12903927Y-3746519D01*
X12893202Y-3736798D01*
X12883481Y-3726073D01*
X12874858Y-3714447D01*
X12867417Y-3702031D01*
X12861228Y-3688946D01*
X12856351Y-3675317D01*
X12852834Y-3661276D01*
X12850710Y-3646958D01*
X12850000Y-3632500D01*
X12850000Y-3337500D01*
X12850710Y-3323042D01*
X12852834Y-3308724D01*
X12856351Y-3294683D01*
X12861228Y-3281054D01*
X12867417Y-3267969D01*
X12874858Y-3255553D01*
X12883481Y-3243927D01*
X12893202Y-3233202D01*
X12903927Y-3223481D01*
X12915553Y-3214858D01*
X12927969Y-3207417D01*
X12941054Y-3201228D01*
X12954683Y-3196351D01*
X12968724Y-3192834D01*
X12983042Y-3190710D01*
X12997500Y-3190000D01*
X13342500Y-3190000D01*
X13356958Y-3190710D01*
X13356958Y-3190710D01*
G37*
D13*
G04 #@! TD*
G04 #@! TO.P,C12,1*
G04 #@! TO.N,/VPLL_B*
X13170000Y-3485000D03*
D12*
G04 #@! TO.N,GND*
G04 #@! TO.C,C13*
G36*
X14366958Y-2220710D02*
X14381276Y-2222834D01*
X14395317Y-2226351D01*
X14408946Y-2231228D01*
X14422031Y-2237417D01*
X14434447Y-2244858D01*
X14446073Y-2253481D01*
X14456798Y-2263202D01*
X14466519Y-2273927D01*
X14475142Y-2285553D01*
X14482583Y-2297969D01*
X14488772Y-2311054D01*
X14493649Y-2324683D01*
X14497166Y-2338724D01*
X14499290Y-2353042D01*
X14500000Y-2367500D01*
X14500000Y-2662500D01*
X14499290Y-2676958D01*
X14497166Y-2691276D01*
X14493649Y-2705317D01*
X14488772Y-2718946D01*
X14482583Y-2732031D01*
X14475142Y-2744447D01*
X14466519Y-2756073D01*
X14456798Y-2766798D01*
X14446073Y-2776519D01*
X14434447Y-2785142D01*
X14422031Y-2792583D01*
X14408946Y-2798772D01*
X14395317Y-2803649D01*
X14381276Y-2807166D01*
X14366958Y-2809290D01*
X14352500Y-2810000D01*
X14007500Y-2810000D01*
X13993042Y-2809290D01*
X13978724Y-2807166D01*
X13964683Y-2803649D01*
X13951054Y-2798772D01*
X13937969Y-2792583D01*
X13925553Y-2785142D01*
X13913927Y-2776519D01*
X13903202Y-2766798D01*
X13893481Y-2756073D01*
X13884858Y-2744447D01*
X13877417Y-2732031D01*
X13871228Y-2718946D01*
X13866351Y-2705317D01*
X13862834Y-2691276D01*
X13860710Y-2676958D01*
X13860000Y-2662500D01*
X13860000Y-2367500D01*
X13860710Y-2353042D01*
X13862834Y-2338724D01*
X13866351Y-2324683D01*
X13871228Y-2311054D01*
X13877417Y-2297969D01*
X13884858Y-2285553D01*
X13893481Y-2273927D01*
X13903202Y-2263202D01*
X13913927Y-2253481D01*
X13925553Y-2244858D01*
X13937969Y-2237417D01*
X13951054Y-2231228D01*
X13964683Y-2226351D01*
X13978724Y-2222834D01*
X13993042Y-2220710D01*
X14007500Y-2220000D01*
X14352500Y-2220000D01*
X14366958Y-2220710D01*
X14366958Y-2220710D01*
G37*
D13*
G04 #@! TD*
G04 #@! TO.P,C13,2*
G04 #@! TO.N,GND*
X14180000Y-2515000D03*
D12*
G04 #@! TO.N,/VPLL_B*
G04 #@! TO.C,C13*
G36*
X14366958Y-3190710D02*
X14381276Y-3192834D01*
X14395317Y-3196351D01*
X14408946Y-3201228D01*
X14422031Y-3207417D01*
X14434447Y-3214858D01*
X14446073Y-3223481D01*
X14456798Y-3233202D01*
X14466519Y-3243927D01*
X14475142Y-3255553D01*
X14482583Y-3267969D01*
X14488772Y-3281054D01*
X14493649Y-3294683D01*
X14497166Y-3308724D01*
X14499290Y-3323042D01*
X14500000Y-3337500D01*
X14500000Y-3632500D01*
X14499290Y-3646958D01*
X14497166Y-3661276D01*
X14493649Y-3675317D01*
X14488772Y-3688946D01*
X14482583Y-3702031D01*
X14475142Y-3714447D01*
X14466519Y-3726073D01*
X14456798Y-3736798D01*
X14446073Y-3746519D01*
X14434447Y-3755142D01*
X14422031Y-3762583D01*
X14408946Y-3768772D01*
X14395317Y-3773649D01*
X14381276Y-3777166D01*
X14366958Y-3779290D01*
X14352500Y-3780000D01*
X14007500Y-3780000D01*
X13993042Y-3779290D01*
X13978724Y-3777166D01*
X13964683Y-3773649D01*
X13951054Y-3768772D01*
X13937969Y-3762583D01*
X13925553Y-3755142D01*
X13913927Y-3746519D01*
X13903202Y-3736798D01*
X13893481Y-3726073D01*
X13884858Y-3714447D01*
X13877417Y-3702031D01*
X13871228Y-3688946D01*
X13866351Y-3675317D01*
X13862834Y-3661276D01*
X13860710Y-3646958D01*
X13860000Y-3632500D01*
X13860000Y-3337500D01*
X13860710Y-3323042D01*
X13862834Y-3308724D01*
X13866351Y-3294683D01*
X13871228Y-3281054D01*
X13877417Y-3267969D01*
X13884858Y-3255553D01*
X13893481Y-3243927D01*
X13903202Y-3233202D01*
X13913927Y-3223481D01*
X13925553Y-3214858D01*
X13937969Y-3207417D01*
X13951054Y-3201228D01*
X13964683Y-3196351D01*
X13978724Y-3192834D01*
X13993042Y-3190710D01*
X14007500Y-3190000D01*
X14352500Y-3190000D01*
X14366958Y-3190710D01*
X14366958Y-3190710D01*
G37*
D13*
G04 #@! TD*
G04 #@! TO.P,C13,1*
G04 #@! TO.N,/VPLL_B*
X14180000Y-3485000D03*
D12*
G04 #@! TO.N,GND*
G04 #@! TO.C,C14*
G36*
X9856958Y-2925710D02*
X9871276Y-2927834D01*
X9885317Y-2931351D01*
X9898946Y-2936228D01*
X9912031Y-2942417D01*
X9924447Y-2949858D01*
X9936073Y-2958481D01*
X9946798Y-2968202D01*
X9956519Y-2978927D01*
X9965142Y-2990553D01*
X9972583Y-3002969D01*
X9978772Y-3016054D01*
X9983649Y-3029683D01*
X9987166Y-3043724D01*
X9989290Y-3058042D01*
X9990000Y-3072500D01*
X9990000Y-3367500D01*
X9989290Y-3381958D01*
X9987166Y-3396276D01*
X9983649Y-3410317D01*
X9978772Y-3423946D01*
X9972583Y-3437031D01*
X9965142Y-3449447D01*
X9956519Y-3461073D01*
X9946798Y-3471798D01*
X9936073Y-3481519D01*
X9924447Y-3490142D01*
X9912031Y-3497583D01*
X9898946Y-3503772D01*
X9885317Y-3508649D01*
X9871276Y-3512166D01*
X9856958Y-3514290D01*
X9842500Y-3515000D01*
X9497500Y-3515000D01*
X9483042Y-3514290D01*
X9468724Y-3512166D01*
X9454683Y-3508649D01*
X9441054Y-3503772D01*
X9427969Y-3497583D01*
X9415553Y-3490142D01*
X9403927Y-3481519D01*
X9393202Y-3471798D01*
X9383481Y-3461073D01*
X9374858Y-3449447D01*
X9367417Y-3437031D01*
X9361228Y-3423946D01*
X9356351Y-3410317D01*
X9352834Y-3396276D01*
X9350710Y-3381958D01*
X9350000Y-3367500D01*
X9350000Y-3072500D01*
X9350710Y-3058042D01*
X9352834Y-3043724D01*
X9356351Y-3029683D01*
X9361228Y-3016054D01*
X9367417Y-3002969D01*
X9374858Y-2990553D01*
X9383481Y-2978927D01*
X9393202Y-2968202D01*
X9403927Y-2958481D01*
X9415553Y-2949858D01*
X9427969Y-2942417D01*
X9441054Y-2936228D01*
X9454683Y-2931351D01*
X9468724Y-2927834D01*
X9483042Y-2925710D01*
X9497500Y-2925000D01*
X9842500Y-2925000D01*
X9856958Y-2925710D01*
X9856958Y-2925710D01*
G37*
D13*
G04 #@! TD*
G04 #@! TO.P,C14,2*
G04 #@! TO.N,GND*
X9670000Y-3220000D03*
D12*
G04 #@! TO.N,/VPLL_A*
G04 #@! TO.C,C14*
G36*
X9856958Y-3895710D02*
X9871276Y-3897834D01*
X9885317Y-3901351D01*
X9898946Y-3906228D01*
X9912031Y-3912417D01*
X9924447Y-3919858D01*
X9936073Y-3928481D01*
X9946798Y-3938202D01*
X9956519Y-3948927D01*
X9965142Y-3960553D01*
X9972583Y-3972969D01*
X9978772Y-3986054D01*
X9983649Y-3999683D01*
X9987166Y-4013724D01*
X9989290Y-4028042D01*
X9990000Y-4042500D01*
X9990000Y-4337500D01*
X9989290Y-4351958D01*
X9987166Y-4366276D01*
X9983649Y-4380317D01*
X9978772Y-4393946D01*
X9972583Y-4407031D01*
X9965142Y-4419447D01*
X9956519Y-4431073D01*
X9946798Y-4441798D01*
X9936073Y-4451519D01*
X9924447Y-4460142D01*
X9912031Y-4467583D01*
X9898946Y-4473772D01*
X9885317Y-4478649D01*
X9871276Y-4482166D01*
X9856958Y-4484290D01*
X9842500Y-4485000D01*
X9497500Y-4485000D01*
X9483042Y-4484290D01*
X9468724Y-4482166D01*
X9454683Y-4478649D01*
X9441054Y-4473772D01*
X9427969Y-4467583D01*
X9415553Y-4460142D01*
X9403927Y-4451519D01*
X9393202Y-4441798D01*
X9383481Y-4431073D01*
X9374858Y-4419447D01*
X9367417Y-4407031D01*
X9361228Y-4393946D01*
X9356351Y-4380317D01*
X9352834Y-4366276D01*
X9350710Y-4351958D01*
X9350000Y-4337500D01*
X9350000Y-4042500D01*
X9350710Y-4028042D01*
X9352834Y-4013724D01*
X9356351Y-3999683D01*
X9361228Y-3986054D01*
X9367417Y-3972969D01*
X9374858Y-3960553D01*
X9383481Y-3948927D01*
X9393202Y-3938202D01*
X9403927Y-3928481D01*
X9415553Y-3919858D01*
X9427969Y-3912417D01*
X9441054Y-3906228D01*
X9454683Y-3901351D01*
X9468724Y-3897834D01*
X9483042Y-3895710D01*
X9497500Y-3895000D01*
X9842500Y-3895000D01*
X9856958Y-3895710D01*
X9856958Y-3895710D01*
G37*
D13*
G04 #@! TD*
G04 #@! TO.P,C14,1*
G04 #@! TO.N,/VPLL_A*
X9670000Y-4190000D03*
D12*
G04 #@! TO.N,GND*
G04 #@! TO.C,C1*
G36*
X18396958Y-10890710D02*
X18411276Y-10892834D01*
X18425317Y-10896351D01*
X18438946Y-10901228D01*
X18452031Y-10907417D01*
X18464447Y-10914858D01*
X18476073Y-10923481D01*
X18486798Y-10933202D01*
X18496519Y-10943927D01*
X18505142Y-10955553D01*
X18512583Y-10967969D01*
X18518772Y-10981054D01*
X18523649Y-10994683D01*
X18527166Y-11008724D01*
X18529290Y-11023042D01*
X18530000Y-11037500D01*
X18530000Y-11332500D01*
X18529290Y-11346958D01*
X18527166Y-11361276D01*
X18523649Y-11375317D01*
X18518772Y-11388946D01*
X18512583Y-11402031D01*
X18505142Y-11414447D01*
X18496519Y-11426073D01*
X18486798Y-11436798D01*
X18476073Y-11446519D01*
X18464447Y-11455142D01*
X18452031Y-11462583D01*
X18438946Y-11468772D01*
X18425317Y-11473649D01*
X18411276Y-11477166D01*
X18396958Y-11479290D01*
X18382500Y-11480000D01*
X18037500Y-11480000D01*
X18023042Y-11479290D01*
X18008724Y-11477166D01*
X17994683Y-11473649D01*
X17981054Y-11468772D01*
X17967969Y-11462583D01*
X17955553Y-11455142D01*
X17943927Y-11446519D01*
X17933202Y-11436798D01*
X17923481Y-11426073D01*
X17914858Y-11414447D01*
X17907417Y-11402031D01*
X17901228Y-11388946D01*
X17896351Y-11375317D01*
X17892834Y-11361276D01*
X17890710Y-11346958D01*
X17890000Y-11332500D01*
X17890000Y-11037500D01*
X17890710Y-11023042D01*
X17892834Y-11008724D01*
X17896351Y-10994683D01*
X17901228Y-10981054D01*
X17907417Y-10967969D01*
X17914858Y-10955553D01*
X17923481Y-10943927D01*
X17933202Y-10933202D01*
X17943927Y-10923481D01*
X17955553Y-10914858D01*
X17967969Y-10907417D01*
X17981054Y-10901228D01*
X17994683Y-10896351D01*
X18008724Y-10892834D01*
X18023042Y-10890710D01*
X18037500Y-10890000D01*
X18382500Y-10890000D01*
X18396958Y-10890710D01*
X18396958Y-10890710D01*
G37*
D13*
G04 #@! TD*
G04 #@! TO.P,C1,2*
G04 #@! TO.N,GND*
X18210000Y-11185000D03*
D12*
G04 #@! TO.N,/3V3_SYS*
G04 #@! TO.C,C1*
G36*
X18396958Y-11860710D02*
X18411276Y-11862834D01*
X18425317Y-11866351D01*
X18438946Y-11871228D01*
X18452031Y-11877417D01*
X18464447Y-11884858D01*
X18476073Y-11893481D01*
X18486798Y-11903202D01*
X18496519Y-11913927D01*
X18505142Y-11925553D01*
X18512583Y-11937969D01*
X18518772Y-11951054D01*
X18523649Y-11964683D01*
X18527166Y-11978724D01*
X18529290Y-11993042D01*
X18530000Y-12007500D01*
X18530000Y-12302500D01*
X18529290Y-12316958D01*
X18527166Y-12331276D01*
X18523649Y-12345317D01*
X18518772Y-12358946D01*
X18512583Y-12372031D01*
X18505142Y-12384447D01*
X18496519Y-12396073D01*
X18486798Y-12406798D01*
X18476073Y-12416519D01*
X18464447Y-12425142D01*
X18452031Y-12432583D01*
X18438946Y-12438772D01*
X18425317Y-12443649D01*
X18411276Y-12447166D01*
X18396958Y-12449290D01*
X18382500Y-12450000D01*
X18037500Y-12450000D01*
X18023042Y-12449290D01*
X18008724Y-12447166D01*
X17994683Y-12443649D01*
X17981054Y-12438772D01*
X17967969Y-12432583D01*
X17955553Y-12425142D01*
X17943927Y-12416519D01*
X17933202Y-12406798D01*
X17923481Y-12396073D01*
X17914858Y-12384447D01*
X17907417Y-12372031D01*
X17901228Y-12358946D01*
X17896351Y-12345317D01*
X17892834Y-12331276D01*
X17890710Y-12316958D01*
X17890000Y-12302500D01*
X17890000Y-12007500D01*
X17890710Y-11993042D01*
X17892834Y-11978724D01*
X17896351Y-11964683D01*
X17901228Y-11951054D01*
X17907417Y-11937969D01*
X17914858Y-11925553D01*
X17923481Y-11913927D01*
X17933202Y-11903202D01*
X17943927Y-11893481D01*
X17955553Y-11884858D01*
X17967969Y-11877417D01*
X17981054Y-11871228D01*
X17994683Y-11866351D01*
X18008724Y-11862834D01*
X18023042Y-11860710D01*
X18037500Y-11860000D01*
X18382500Y-11860000D01*
X18396958Y-11860710D01*
X18396958Y-11860710D01*
G37*
D13*
G04 #@! TD*
G04 #@! TO.P,C1,1*
G04 #@! TO.N,/3V3_SYS*
X18210000Y-12155000D03*
D12*
G04 #@! TO.N,/USB_D_P*
G04 #@! TO.C,R11*
G36*
X5086958Y-12850710D02*
X5101276Y-12852834D01*
X5115317Y-12856351D01*
X5128946Y-12861228D01*
X5142031Y-12867417D01*
X5154447Y-12874858D01*
X5166073Y-12883481D01*
X5176798Y-12893202D01*
X5186519Y-12903927D01*
X5195142Y-12915553D01*
X5202583Y-12927969D01*
X5208772Y-12941054D01*
X5213649Y-12954683D01*
X5217166Y-12968724D01*
X5219290Y-12983042D01*
X5220000Y-12997500D01*
X5220000Y-13342500D01*
X5219290Y-13356958D01*
X5217166Y-13371276D01*
X5213649Y-13385317D01*
X5208772Y-13398946D01*
X5202583Y-13412031D01*
X5195142Y-13424447D01*
X5186519Y-13436073D01*
X5176798Y-13446798D01*
X5166073Y-13456519D01*
X5154447Y-13465142D01*
X5142031Y-13472583D01*
X5128946Y-13478772D01*
X5115317Y-13483649D01*
X5101276Y-13487166D01*
X5086958Y-13489290D01*
X5072500Y-13490000D01*
X4777500Y-13490000D01*
X4763042Y-13489290D01*
X4748724Y-13487166D01*
X4734683Y-13483649D01*
X4721054Y-13478772D01*
X4707969Y-13472583D01*
X4695553Y-13465142D01*
X4683927Y-13456519D01*
X4673202Y-13446798D01*
X4663481Y-13436073D01*
X4654858Y-13424447D01*
X4647417Y-13412031D01*
X4641228Y-13398946D01*
X4636351Y-13385317D01*
X4632834Y-13371276D01*
X4630710Y-13356958D01*
X4630000Y-13342500D01*
X4630000Y-12997500D01*
X4630710Y-12983042D01*
X4632834Y-12968724D01*
X4636351Y-12954683D01*
X4641228Y-12941054D01*
X4647417Y-12927969D01*
X4654858Y-12915553D01*
X4663481Y-12903927D01*
X4673202Y-12893202D01*
X4683927Y-12883481D01*
X4695553Y-12874858D01*
X4707969Y-12867417D01*
X4721054Y-12861228D01*
X4734683Y-12856351D01*
X4748724Y-12852834D01*
X4763042Y-12850710D01*
X4777500Y-12850000D01*
X5072500Y-12850000D01*
X5086958Y-12850710D01*
X5086958Y-12850710D01*
G37*
D13*
G04 #@! TD*
G04 #@! TO.P,R11,2*
G04 #@! TO.N,/USB_D_P*
X4925000Y-13170000D03*
D12*
G04 #@! TO.N,/USB_DET*
G04 #@! TO.C,R11*
G36*
X4116958Y-12850710D02*
X4131276Y-12852834D01*
X4145317Y-12856351D01*
X4158946Y-12861228D01*
X4172031Y-12867417D01*
X4184447Y-12874858D01*
X4196073Y-12883481D01*
X4206798Y-12893202D01*
X4216519Y-12903927D01*
X4225142Y-12915553D01*
X4232583Y-12927969D01*
X4238772Y-12941054D01*
X4243649Y-12954683D01*
X4247166Y-12968724D01*
X4249290Y-12983042D01*
X4250000Y-12997500D01*
X4250000Y-13342500D01*
X4249290Y-13356958D01*
X4247166Y-13371276D01*
X4243649Y-13385317D01*
X4238772Y-13398946D01*
X4232583Y-13412031D01*
X4225142Y-13424447D01*
X4216519Y-13436073D01*
X4206798Y-13446798D01*
X4196073Y-13456519D01*
X4184447Y-13465142D01*
X4172031Y-13472583D01*
X4158946Y-13478772D01*
X4145317Y-13483649D01*
X4131276Y-13487166D01*
X4116958Y-13489290D01*
X4102500Y-13490000D01*
X3807500Y-13490000D01*
X3793042Y-13489290D01*
X3778724Y-13487166D01*
X3764683Y-13483649D01*
X3751054Y-13478772D01*
X3737969Y-13472583D01*
X3725553Y-13465142D01*
X3713927Y-13456519D01*
X3703202Y-13446798D01*
X3693481Y-13436073D01*
X3684858Y-13424447D01*
X3677417Y-13412031D01*
X3671228Y-13398946D01*
X3666351Y-13385317D01*
X3662834Y-13371276D01*
X3660710Y-13356958D01*
X3660000Y-13342500D01*
X3660000Y-12997500D01*
X3660710Y-12983042D01*
X3662834Y-12968724D01*
X3666351Y-12954683D01*
X3671228Y-12941054D01*
X3677417Y-12927969D01*
X3684858Y-12915553D01*
X3693481Y-12903927D01*
X3703202Y-12893202D01*
X3713927Y-12883481D01*
X3725553Y-12874858D01*
X3737969Y-12867417D01*
X3751054Y-12861228D01*
X3764683Y-12856351D01*
X3778724Y-12852834D01*
X3793042Y-12850710D01*
X3807500Y-12850000D01*
X4102500Y-12850000D01*
X4116958Y-12850710D01*
X4116958Y-12850710D01*
G37*
D13*
G04 #@! TD*
G04 #@! TO.P,R11,1*
G04 #@! TO.N,/USB_DET*
X3955000Y-13170000D03*
D12*
G04 #@! TO.N,/CSI_D1_IN_P*
G04 #@! TO.C,R24*
G36*
X4221958Y-7045710D02*
X4236276Y-7047834D01*
X4250317Y-7051351D01*
X4263946Y-7056228D01*
X4277031Y-7062417D01*
X4289447Y-7069858D01*
X4301073Y-7078481D01*
X4311798Y-7088202D01*
X4321519Y-7098927D01*
X4330142Y-7110553D01*
X4337583Y-7122969D01*
X4343772Y-7136054D01*
X4348649Y-7149683D01*
X4352166Y-7163724D01*
X4354290Y-7178042D01*
X4355000Y-7192500D01*
X4355000Y-7487500D01*
X4354290Y-7501958D01*
X4352166Y-7516276D01*
X4348649Y-7530317D01*
X4343772Y-7543946D01*
X4337583Y-7557031D01*
X4330142Y-7569447D01*
X4321519Y-7581073D01*
X4311798Y-7591798D01*
X4301073Y-7601519D01*
X4289447Y-7610142D01*
X4277031Y-7617583D01*
X4263946Y-7623772D01*
X4250317Y-7628649D01*
X4236276Y-7632166D01*
X4221958Y-7634290D01*
X4207500Y-7635000D01*
X3862500Y-7635000D01*
X3848042Y-7634290D01*
X3833724Y-7632166D01*
X3819683Y-7628649D01*
X3806054Y-7623772D01*
X3792969Y-7617583D01*
X3780553Y-7610142D01*
X3768927Y-7601519D01*
X3758202Y-7591798D01*
X3748481Y-7581073D01*
X3739858Y-7569447D01*
X3732417Y-7557031D01*
X3726228Y-7543946D01*
X3721351Y-7530317D01*
X3717834Y-7516276D01*
X3715710Y-7501958D01*
X3715000Y-7487500D01*
X3715000Y-7192500D01*
X3715710Y-7178042D01*
X3717834Y-7163724D01*
X3721351Y-7149683D01*
X3726228Y-7136054D01*
X3732417Y-7122969D01*
X3739858Y-7110553D01*
X3748481Y-7098927D01*
X3758202Y-7088202D01*
X3768927Y-7078481D01*
X3780553Y-7069858D01*
X3792969Y-7062417D01*
X3806054Y-7056228D01*
X3819683Y-7051351D01*
X3833724Y-7047834D01*
X3848042Y-7045710D01*
X3862500Y-7045000D01*
X4207500Y-7045000D01*
X4221958Y-7045710D01*
X4221958Y-7045710D01*
G37*
D13*
G04 #@! TD*
G04 #@! TO.P,R24,2*
G04 #@! TO.N,/CSI_D1_IN_P*
X4035000Y-7340000D03*
D12*
G04 #@! TO.N,/CSI_INT*
G04 #@! TO.C,R24*
G36*
X4221958Y-8015710D02*
X4236276Y-8017834D01*
X4250317Y-8021351D01*
X4263946Y-8026228D01*
X4277031Y-8032417D01*
X4289447Y-8039858D01*
X4301073Y-8048481D01*
X4311798Y-8058202D01*
X4321519Y-8068927D01*
X4330142Y-8080553D01*
X4337583Y-8092969D01*
X4343772Y-8106054D01*
X4348649Y-8119683D01*
X4352166Y-8133724D01*
X4354290Y-8148042D01*
X4355000Y-8162500D01*
X4355000Y-8457500D01*
X4354290Y-8471958D01*
X4352166Y-8486276D01*
X4348649Y-8500317D01*
X4343772Y-8513946D01*
X4337583Y-8527031D01*
X4330142Y-8539447D01*
X4321519Y-8551073D01*
X4311798Y-8561798D01*
X4301073Y-8571519D01*
X4289447Y-8580142D01*
X4277031Y-8587583D01*
X4263946Y-8593772D01*
X4250317Y-8598649D01*
X4236276Y-8602166D01*
X4221958Y-8604290D01*
X4207500Y-8605000D01*
X3862500Y-8605000D01*
X3848042Y-8604290D01*
X3833724Y-8602166D01*
X3819683Y-8598649D01*
X3806054Y-8593772D01*
X3792969Y-8587583D01*
X3780553Y-8580142D01*
X3768927Y-8571519D01*
X3758202Y-8561798D01*
X3748481Y-8551073D01*
X3739858Y-8539447D01*
X3732417Y-8527031D01*
X3726228Y-8513946D01*
X3721351Y-8500317D01*
X3717834Y-8486276D01*
X3715710Y-8471958D01*
X3715000Y-8457500D01*
X3715000Y-8162500D01*
X3715710Y-8148042D01*
X3717834Y-8133724D01*
X3721351Y-8119683D01*
X3726228Y-8106054D01*
X3732417Y-8092969D01*
X3739858Y-8080553D01*
X3748481Y-8068927D01*
X3758202Y-8058202D01*
X3768927Y-8048481D01*
X3780553Y-8039858D01*
X3792969Y-8032417D01*
X3806054Y-8026228D01*
X3819683Y-8021351D01*
X3833724Y-8017834D01*
X3848042Y-8015710D01*
X3862500Y-8015000D01*
X4207500Y-8015000D01*
X4221958Y-8015710D01*
X4221958Y-8015710D01*
G37*
D13*
G04 #@! TD*
G04 #@! TO.P,R24,1*
G04 #@! TO.N,/CSI_INT*
X4035000Y-8310000D03*
D12*
G04 #@! TO.N,/VPLL_B*
G04 #@! TO.C,R10*
G36*
X15376958Y-3190710D02*
X15391276Y-3192834D01*
X15405317Y-3196351D01*
X15418946Y-3201228D01*
X15432031Y-3207417D01*
X15444447Y-3214858D01*
X15456073Y-3223481D01*
X15466798Y-3233202D01*
X15476519Y-3243927D01*
X15485142Y-3255553D01*
X15492583Y-3267969D01*
X15498772Y-3281054D01*
X15503649Y-3294683D01*
X15507166Y-3308724D01*
X15509290Y-3323042D01*
X15510000Y-3337500D01*
X15510000Y-3632500D01*
X15509290Y-3646958D01*
X15507166Y-3661276D01*
X15503649Y-3675317D01*
X15498772Y-3688946D01*
X15492583Y-3702031D01*
X15485142Y-3714447D01*
X15476519Y-3726073D01*
X15466798Y-3736798D01*
X15456073Y-3746519D01*
X15444447Y-3755142D01*
X15432031Y-3762583D01*
X15418946Y-3768772D01*
X15405317Y-3773649D01*
X15391276Y-3777166D01*
X15376958Y-3779290D01*
X15362500Y-3780000D01*
X15017500Y-3780000D01*
X15003042Y-3779290D01*
X14988724Y-3777166D01*
X14974683Y-3773649D01*
X14961054Y-3768772D01*
X14947969Y-3762583D01*
X14935553Y-3755142D01*
X14923927Y-3746519D01*
X14913202Y-3736798D01*
X14903481Y-3726073D01*
X14894858Y-3714447D01*
X14887417Y-3702031D01*
X14881228Y-3688946D01*
X14876351Y-3675317D01*
X14872834Y-3661276D01*
X14870710Y-3646958D01*
X14870000Y-3632500D01*
X14870000Y-3337500D01*
X14870710Y-3323042D01*
X14872834Y-3308724D01*
X14876351Y-3294683D01*
X14881228Y-3281054D01*
X14887417Y-3267969D01*
X14894858Y-3255553D01*
X14903481Y-3243927D01*
X14913202Y-3233202D01*
X14923927Y-3223481D01*
X14935553Y-3214858D01*
X14947969Y-3207417D01*
X14961054Y-3201228D01*
X14974683Y-3196351D01*
X14988724Y-3192834D01*
X15003042Y-3190710D01*
X15017500Y-3190000D01*
X15362500Y-3190000D01*
X15376958Y-3190710D01*
X15376958Y-3190710D01*
G37*
D13*
G04 #@! TD*
G04 #@! TO.P,R10,2*
G04 #@! TO.N,/VPLL_B*
X15190000Y-3485000D03*
D12*
G04 #@! TO.N,/1V2_SYS*
G04 #@! TO.C,R10*
G36*
X15376958Y-2220710D02*
X15391276Y-2222834D01*
X15405317Y-2226351D01*
X15418946Y-2231228D01*
X15432031Y-2237417D01*
X15444447Y-2244858D01*
X15456073Y-2253481D01*
X15466798Y-2263202D01*
X15476519Y-2273927D01*
X15485142Y-2285553D01*
X15492583Y-2297969D01*
X15498772Y-2311054D01*
X15503649Y-2324683D01*
X15507166Y-2338724D01*
X15509290Y-2353042D01*
X15510000Y-2367500D01*
X15510000Y-2662500D01*
X15509290Y-2676958D01*
X15507166Y-2691276D01*
X15503649Y-2705317D01*
X15498772Y-2718946D01*
X15492583Y-2732031D01*
X15485142Y-2744447D01*
X15476519Y-2756073D01*
X15466798Y-2766798D01*
X15456073Y-2776519D01*
X15444447Y-2785142D01*
X15432031Y-2792583D01*
X15418946Y-2798772D01*
X15405317Y-2803649D01*
X15391276Y-2807166D01*
X15376958Y-2809290D01*
X15362500Y-2810000D01*
X15017500Y-2810000D01*
X15003042Y-2809290D01*
X14988724Y-2807166D01*
X14974683Y-2803649D01*
X14961054Y-2798772D01*
X14947969Y-2792583D01*
X14935553Y-2785142D01*
X14923927Y-2776519D01*
X14913202Y-2766798D01*
X14903481Y-2756073D01*
X14894858Y-2744447D01*
X14887417Y-2732031D01*
X14881228Y-2718946D01*
X14876351Y-2705317D01*
X14872834Y-2691276D01*
X14870710Y-2676958D01*
X14870000Y-2662500D01*
X14870000Y-2367500D01*
X14870710Y-2353042D01*
X14872834Y-2338724D01*
X14876351Y-2324683D01*
X14881228Y-2311054D01*
X14887417Y-2297969D01*
X14894858Y-2285553D01*
X14903481Y-2273927D01*
X14913202Y-2263202D01*
X14923927Y-2253481D01*
X14935553Y-2244858D01*
X14947969Y-2237417D01*
X14961054Y-2231228D01*
X14974683Y-2226351D01*
X14988724Y-2222834D01*
X15003042Y-2220710D01*
X15017500Y-2220000D01*
X15362500Y-2220000D01*
X15376958Y-2220710D01*
X15376958Y-2220710D01*
G37*
D13*
G04 #@! TD*
G04 #@! TO.P,R10,1*
G04 #@! TO.N,/1V2_SYS*
X15190000Y-2515000D03*
D12*
G04 #@! TO.N,/VPLL_A*
G04 #@! TO.C,R9*
G36*
X7826958Y-3895710D02*
X7841276Y-3897834D01*
X7855317Y-3901351D01*
X7868946Y-3906228D01*
X7882031Y-3912417D01*
X7894447Y-3919858D01*
X7906073Y-3928481D01*
X7916798Y-3938202D01*
X7926519Y-3948927D01*
X7935142Y-3960553D01*
X7942583Y-3972969D01*
X7948772Y-3986054D01*
X7953649Y-3999683D01*
X7957166Y-4013724D01*
X7959290Y-4028042D01*
X7960000Y-4042500D01*
X7960000Y-4337500D01*
X7959290Y-4351958D01*
X7957166Y-4366276D01*
X7953649Y-4380317D01*
X7948772Y-4393946D01*
X7942583Y-4407031D01*
X7935142Y-4419447D01*
X7926519Y-4431073D01*
X7916798Y-4441798D01*
X7906073Y-4451519D01*
X7894447Y-4460142D01*
X7882031Y-4467583D01*
X7868946Y-4473772D01*
X7855317Y-4478649D01*
X7841276Y-4482166D01*
X7826958Y-4484290D01*
X7812500Y-4485000D01*
X7467500Y-4485000D01*
X7453042Y-4484290D01*
X7438724Y-4482166D01*
X7424683Y-4478649D01*
X7411054Y-4473772D01*
X7397969Y-4467583D01*
X7385553Y-4460142D01*
X7373927Y-4451519D01*
X7363202Y-4441798D01*
X7353481Y-4431073D01*
X7344858Y-4419447D01*
X7337417Y-4407031D01*
X7331228Y-4393946D01*
X7326351Y-4380317D01*
X7322834Y-4366276D01*
X7320710Y-4351958D01*
X7320000Y-4337500D01*
X7320000Y-4042500D01*
X7320710Y-4028042D01*
X7322834Y-4013724D01*
X7326351Y-3999683D01*
X7331228Y-3986054D01*
X7337417Y-3972969D01*
X7344858Y-3960553D01*
X7353481Y-3948927D01*
X7363202Y-3938202D01*
X7373927Y-3928481D01*
X7385553Y-3919858D01*
X7397969Y-3912417D01*
X7411054Y-3906228D01*
X7424683Y-3901351D01*
X7438724Y-3897834D01*
X7453042Y-3895710D01*
X7467500Y-3895000D01*
X7812500Y-3895000D01*
X7826958Y-3895710D01*
X7826958Y-3895710D01*
G37*
D13*
G04 #@! TD*
G04 #@! TO.P,R9,2*
G04 #@! TO.N,/VPLL_A*
X7640000Y-4190000D03*
D12*
G04 #@! TO.N,/1V2_SYS*
G04 #@! TO.C,R9*
G36*
X7826958Y-2925710D02*
X7841276Y-2927834D01*
X7855317Y-2931351D01*
X7868946Y-2936228D01*
X7882031Y-2942417D01*
X7894447Y-2949858D01*
X7906073Y-2958481D01*
X7916798Y-2968202D01*
X7926519Y-2978927D01*
X7935142Y-2990553D01*
X7942583Y-3002969D01*
X7948772Y-3016054D01*
X7953649Y-3029683D01*
X7957166Y-3043724D01*
X7959290Y-3058042D01*
X7960000Y-3072500D01*
X7960000Y-3367500D01*
X7959290Y-3381958D01*
X7957166Y-3396276D01*
X7953649Y-3410317D01*
X7948772Y-3423946D01*
X7942583Y-3437031D01*
X7935142Y-3449447D01*
X7926519Y-3461073D01*
X7916798Y-3471798D01*
X7906073Y-3481519D01*
X7894447Y-3490142D01*
X7882031Y-3497583D01*
X7868946Y-3503772D01*
X7855317Y-3508649D01*
X7841276Y-3512166D01*
X7826958Y-3514290D01*
X7812500Y-3515000D01*
X7467500Y-3515000D01*
X7453042Y-3514290D01*
X7438724Y-3512166D01*
X7424683Y-3508649D01*
X7411054Y-3503772D01*
X7397969Y-3497583D01*
X7385553Y-3490142D01*
X7373927Y-3481519D01*
X7363202Y-3471798D01*
X7353481Y-3461073D01*
X7344858Y-3449447D01*
X7337417Y-3437031D01*
X7331228Y-3423946D01*
X7326351Y-3410317D01*
X7322834Y-3396276D01*
X7320710Y-3381958D01*
X7320000Y-3367500D01*
X7320000Y-3072500D01*
X7320710Y-3058042D01*
X7322834Y-3043724D01*
X7326351Y-3029683D01*
X7331228Y-3016054D01*
X7337417Y-3002969D01*
X7344858Y-2990553D01*
X7353481Y-2978927D01*
X7363202Y-2968202D01*
X7373927Y-2958481D01*
X7385553Y-2949858D01*
X7397969Y-2942417D01*
X7411054Y-2936228D01*
X7424683Y-2931351D01*
X7438724Y-2927834D01*
X7453042Y-2925710D01*
X7467500Y-2925000D01*
X7812500Y-2925000D01*
X7826958Y-2925710D01*
X7826958Y-2925710D01*
G37*
D13*
G04 #@! TD*
G04 #@! TO.P,R9,1*
G04 #@! TO.N,/1V2_SYS*
X7640000Y-3220000D03*
D12*
G04 #@! TO.N,/VDDANA*
G04 #@! TO.C,R8*
G36*
X7656958Y-15340710D02*
X7671276Y-15342834D01*
X7685317Y-15346351D01*
X7698946Y-15351228D01*
X7712031Y-15357417D01*
X7724447Y-15364858D01*
X7736073Y-15373481D01*
X7746798Y-15383202D01*
X7756519Y-15393927D01*
X7765142Y-15405553D01*
X7772583Y-15417969D01*
X7778772Y-15431054D01*
X7783649Y-15444683D01*
X7787166Y-15458724D01*
X7789290Y-15473042D01*
X7790000Y-15487500D01*
X7790000Y-15832500D01*
X7789290Y-15846958D01*
X7787166Y-15861276D01*
X7783649Y-15875317D01*
X7778772Y-15888946D01*
X7772583Y-15902031D01*
X7765142Y-15914447D01*
X7756519Y-15926073D01*
X7746798Y-15936798D01*
X7736073Y-15946519D01*
X7724447Y-15955142D01*
X7712031Y-15962583D01*
X7698946Y-15968772D01*
X7685317Y-15973649D01*
X7671276Y-15977166D01*
X7656958Y-15979290D01*
X7642500Y-15980000D01*
X7347500Y-15980000D01*
X7333042Y-15979290D01*
X7318724Y-15977166D01*
X7304683Y-15973649D01*
X7291054Y-15968772D01*
X7277969Y-15962583D01*
X7265553Y-15955142D01*
X7253927Y-15946519D01*
X7243202Y-15936798D01*
X7233481Y-15926073D01*
X7224858Y-15914447D01*
X7217417Y-15902031D01*
X7211228Y-15888946D01*
X7206351Y-15875317D01*
X7202834Y-15861276D01*
X7200710Y-15846958D01*
X7200000Y-15832500D01*
X7200000Y-15487500D01*
X7200710Y-15473042D01*
X7202834Y-15458724D01*
X7206351Y-15444683D01*
X7211228Y-15431054D01*
X7217417Y-15417969D01*
X7224858Y-15405553D01*
X7233481Y-15393927D01*
X7243202Y-15383202D01*
X7253927Y-15373481D01*
X7265553Y-15364858D01*
X7277969Y-15357417D01*
X7291054Y-15351228D01*
X7304683Y-15346351D01*
X7318724Y-15342834D01*
X7333042Y-15340710D01*
X7347500Y-15340000D01*
X7642500Y-15340000D01*
X7656958Y-15340710D01*
X7656958Y-15340710D01*
G37*
D13*
G04 #@! TD*
G04 #@! TO.P,R8,2*
G04 #@! TO.N,/VDDANA*
X7495000Y-15660000D03*
D12*
G04 #@! TO.N,/VUSB*
G04 #@! TO.C,R8*
G36*
X6686958Y-15340710D02*
X6701276Y-15342834D01*
X6715317Y-15346351D01*
X6728946Y-15351228D01*
X6742031Y-15357417D01*
X6754447Y-15364858D01*
X6766073Y-15373481D01*
X6776798Y-15383202D01*
X6786519Y-15393927D01*
X6795142Y-15405553D01*
X6802583Y-15417969D01*
X6808772Y-15431054D01*
X6813649Y-15444683D01*
X6817166Y-15458724D01*
X6819290Y-15473042D01*
X6820000Y-15487500D01*
X6820000Y-15832500D01*
X6819290Y-15846958D01*
X6817166Y-15861276D01*
X6813649Y-15875317D01*
X6808772Y-15888946D01*
X6802583Y-15902031D01*
X6795142Y-15914447D01*
X6786519Y-15926073D01*
X6776798Y-15936798D01*
X6766073Y-15946519D01*
X6754447Y-15955142D01*
X6742031Y-15962583D01*
X6728946Y-15968772D01*
X6715317Y-15973649D01*
X6701276Y-15977166D01*
X6686958Y-15979290D01*
X6672500Y-15980000D01*
X6377500Y-15980000D01*
X6363042Y-15979290D01*
X6348724Y-15977166D01*
X6334683Y-15973649D01*
X6321054Y-15968772D01*
X6307969Y-15962583D01*
X6295553Y-15955142D01*
X6283927Y-15946519D01*
X6273202Y-15936798D01*
X6263481Y-15926073D01*
X6254858Y-15914447D01*
X6247417Y-15902031D01*
X6241228Y-15888946D01*
X6236351Y-15875317D01*
X6232834Y-15861276D01*
X6230710Y-15846958D01*
X6230000Y-15832500D01*
X6230000Y-15487500D01*
X6230710Y-15473042D01*
X6232834Y-15458724D01*
X6236351Y-15444683D01*
X6241228Y-15431054D01*
X6247417Y-15417969D01*
X6254858Y-15405553D01*
X6263481Y-15393927D01*
X6273202Y-15383202D01*
X6283927Y-15373481D01*
X6295553Y-15364858D01*
X6307969Y-15357417D01*
X6321054Y-15351228D01*
X6334683Y-15346351D01*
X6348724Y-15342834D01*
X6363042Y-15340710D01*
X6377500Y-15340000D01*
X6672500Y-15340000D01*
X6686958Y-15340710D01*
X6686958Y-15340710D01*
G37*
D13*
G04 #@! TD*
G04 #@! TO.P,R8,1*
G04 #@! TO.N,/VUSB*
X6525000Y-15660000D03*
D12*
G04 #@! TO.N,/VBATH*
G04 #@! TO.C,R7*
G36*
X7646958Y-14250710D02*
X7661276Y-14252834D01*
X7675317Y-14256351D01*
X7688946Y-14261228D01*
X7702031Y-14267417D01*
X7714447Y-14274858D01*
X7726073Y-14283481D01*
X7736798Y-14293202D01*
X7746519Y-14303927D01*
X7755142Y-14315553D01*
X7762583Y-14327969D01*
X7768772Y-14341054D01*
X7773649Y-14354683D01*
X7777166Y-14368724D01*
X7779290Y-14383042D01*
X7780000Y-14397500D01*
X7780000Y-14742500D01*
X7779290Y-14756958D01*
X7777166Y-14771276D01*
X7773649Y-14785317D01*
X7768772Y-14798946D01*
X7762583Y-14812031D01*
X7755142Y-14824447D01*
X7746519Y-14836073D01*
X7736798Y-14846798D01*
X7726073Y-14856519D01*
X7714447Y-14865142D01*
X7702031Y-14872583D01*
X7688946Y-14878772D01*
X7675317Y-14883649D01*
X7661276Y-14887166D01*
X7646958Y-14889290D01*
X7632500Y-14890000D01*
X7337500Y-14890000D01*
X7323042Y-14889290D01*
X7308724Y-14887166D01*
X7294683Y-14883649D01*
X7281054Y-14878772D01*
X7267969Y-14872583D01*
X7255553Y-14865142D01*
X7243927Y-14856519D01*
X7233202Y-14846798D01*
X7223481Y-14836073D01*
X7214858Y-14824447D01*
X7207417Y-14812031D01*
X7201228Y-14798946D01*
X7196351Y-14785317D01*
X7192834Y-14771276D01*
X7190710Y-14756958D01*
X7190000Y-14742500D01*
X7190000Y-14397500D01*
X7190710Y-14383042D01*
X7192834Y-14368724D01*
X7196351Y-14354683D01*
X7201228Y-14341054D01*
X7207417Y-14327969D01*
X7214858Y-14315553D01*
X7223481Y-14303927D01*
X7233202Y-14293202D01*
X7243927Y-14283481D01*
X7255553Y-14274858D01*
X7267969Y-14267417D01*
X7281054Y-14261228D01*
X7294683Y-14256351D01*
X7308724Y-14252834D01*
X7323042Y-14250710D01*
X7337500Y-14250000D01*
X7632500Y-14250000D01*
X7646958Y-14250710D01*
X7646958Y-14250710D01*
G37*
D13*
G04 #@! TD*
G04 #@! TO.P,R7,2*
G04 #@! TO.N,/VBATH*
X7485000Y-14570000D03*
D12*
G04 #@! TO.N,/VUSB*
G04 #@! TO.C,R7*
G36*
X6676958Y-14250710D02*
X6691276Y-14252834D01*
X6705317Y-14256351D01*
X6718946Y-14261228D01*
X6732031Y-14267417D01*
X6744447Y-14274858D01*
X6756073Y-14283481D01*
X6766798Y-14293202D01*
X6776519Y-14303927D01*
X6785142Y-14315553D01*
X6792583Y-14327969D01*
X6798772Y-14341054D01*
X6803649Y-14354683D01*
X6807166Y-14368724D01*
X6809290Y-14383042D01*
X6810000Y-14397500D01*
X6810000Y-14742500D01*
X6809290Y-14756958D01*
X6807166Y-14771276D01*
X6803649Y-14785317D01*
X6798772Y-14798946D01*
X6792583Y-14812031D01*
X6785142Y-14824447D01*
X6776519Y-14836073D01*
X6766798Y-14846798D01*
X6756073Y-14856519D01*
X6744447Y-14865142D01*
X6732031Y-14872583D01*
X6718946Y-14878772D01*
X6705317Y-14883649D01*
X6691276Y-14887166D01*
X6676958Y-14889290D01*
X6662500Y-14890000D01*
X6367500Y-14890000D01*
X6353042Y-14889290D01*
X6338724Y-14887166D01*
X6324683Y-14883649D01*
X6311054Y-14878772D01*
X6297969Y-14872583D01*
X6285553Y-14865142D01*
X6273927Y-14856519D01*
X6263202Y-14846798D01*
X6253481Y-14836073D01*
X6244858Y-14824447D01*
X6237417Y-14812031D01*
X6231228Y-14798946D01*
X6226351Y-14785317D01*
X6222834Y-14771276D01*
X6220710Y-14756958D01*
X6220000Y-14742500D01*
X6220000Y-14397500D01*
X6220710Y-14383042D01*
X6222834Y-14368724D01*
X6226351Y-14354683D01*
X6231228Y-14341054D01*
X6237417Y-14327969D01*
X6244858Y-14315553D01*
X6253481Y-14303927D01*
X6263202Y-14293202D01*
X6273927Y-14283481D01*
X6285553Y-14274858D01*
X6297969Y-14267417D01*
X6311054Y-14261228D01*
X6324683Y-14256351D01*
X6338724Y-14252834D01*
X6353042Y-14250710D01*
X6367500Y-14250000D01*
X6662500Y-14250000D01*
X6676958Y-14250710D01*
X6676958Y-14250710D01*
G37*
D13*
G04 #@! TD*
G04 #@! TO.P,R7,1*
G04 #@! TO.N,/VUSB*
X6515000Y-14570000D03*
D12*
G04 #@! TO.N,/1V2_SYS_B*
G04 #@! TO.C,R6*
G36*
X9801958Y-17835710D02*
X9816276Y-17837834D01*
X9830317Y-17841351D01*
X9843946Y-17846228D01*
X9857031Y-17852417D01*
X9869447Y-17859858D01*
X9881073Y-17868481D01*
X9891798Y-17878202D01*
X9901519Y-17888927D01*
X9910142Y-17900553D01*
X9917583Y-17912969D01*
X9923772Y-17926054D01*
X9928649Y-17939683D01*
X9932166Y-17953724D01*
X9934290Y-17968042D01*
X9935000Y-17982500D01*
X9935000Y-18327500D01*
X9934290Y-18341958D01*
X9932166Y-18356276D01*
X9928649Y-18370317D01*
X9923772Y-18383946D01*
X9917583Y-18397031D01*
X9910142Y-18409447D01*
X9901519Y-18421073D01*
X9891798Y-18431798D01*
X9881073Y-18441519D01*
X9869447Y-18450142D01*
X9857031Y-18457583D01*
X9843946Y-18463772D01*
X9830317Y-18468649D01*
X9816276Y-18472166D01*
X9801958Y-18474290D01*
X9787500Y-18475000D01*
X9492500Y-18475000D01*
X9478042Y-18474290D01*
X9463724Y-18472166D01*
X9449683Y-18468649D01*
X9436054Y-18463772D01*
X9422969Y-18457583D01*
X9410553Y-18450142D01*
X9398927Y-18441519D01*
X9388202Y-18431798D01*
X9378481Y-18421073D01*
X9369858Y-18409447D01*
X9362417Y-18397031D01*
X9356228Y-18383946D01*
X9351351Y-18370317D01*
X9347834Y-18356276D01*
X9345710Y-18341958D01*
X9345000Y-18327500D01*
X9345000Y-17982500D01*
X9345710Y-17968042D01*
X9347834Y-17953724D01*
X9351351Y-17939683D01*
X9356228Y-17926054D01*
X9362417Y-17912969D01*
X9369858Y-17900553D01*
X9378481Y-17888927D01*
X9388202Y-17878202D01*
X9398927Y-17868481D01*
X9410553Y-17859858D01*
X9422969Y-17852417D01*
X9436054Y-17846228D01*
X9449683Y-17841351D01*
X9463724Y-17837834D01*
X9478042Y-17835710D01*
X9492500Y-17835000D01*
X9787500Y-17835000D01*
X9801958Y-17835710D01*
X9801958Y-17835710D01*
G37*
D13*
G04 #@! TD*
G04 #@! TO.P,R6,2*
G04 #@! TO.N,/1V2_SYS_B*
X9640000Y-18155000D03*
D12*
G04 #@! TO.N,/1V2_SYS*
G04 #@! TO.C,R6*
G36*
X10771958Y-17835710D02*
X10786276Y-17837834D01*
X10800317Y-17841351D01*
X10813946Y-17846228D01*
X10827031Y-17852417D01*
X10839447Y-17859858D01*
X10851073Y-17868481D01*
X10861798Y-17878202D01*
X10871519Y-17888927D01*
X10880142Y-17900553D01*
X10887583Y-17912969D01*
X10893772Y-17926054D01*
X10898649Y-17939683D01*
X10902166Y-17953724D01*
X10904290Y-17968042D01*
X10905000Y-17982500D01*
X10905000Y-18327500D01*
X10904290Y-18341958D01*
X10902166Y-18356276D01*
X10898649Y-18370317D01*
X10893772Y-18383946D01*
X10887583Y-18397031D01*
X10880142Y-18409447D01*
X10871519Y-18421073D01*
X10861798Y-18431798D01*
X10851073Y-18441519D01*
X10839447Y-18450142D01*
X10827031Y-18457583D01*
X10813946Y-18463772D01*
X10800317Y-18468649D01*
X10786276Y-18472166D01*
X10771958Y-18474290D01*
X10757500Y-18475000D01*
X10462500Y-18475000D01*
X10448042Y-18474290D01*
X10433724Y-18472166D01*
X10419683Y-18468649D01*
X10406054Y-18463772D01*
X10392969Y-18457583D01*
X10380553Y-18450142D01*
X10368927Y-18441519D01*
X10358202Y-18431798D01*
X10348481Y-18421073D01*
X10339858Y-18409447D01*
X10332417Y-18397031D01*
X10326228Y-18383946D01*
X10321351Y-18370317D01*
X10317834Y-18356276D01*
X10315710Y-18341958D01*
X10315000Y-18327500D01*
X10315000Y-17982500D01*
X10315710Y-17968042D01*
X10317834Y-17953724D01*
X10321351Y-17939683D01*
X10326228Y-17926054D01*
X10332417Y-17912969D01*
X10339858Y-17900553D01*
X10348481Y-17888927D01*
X10358202Y-17878202D01*
X10368927Y-17868481D01*
X10380553Y-17859858D01*
X10392969Y-17852417D01*
X10406054Y-17846228D01*
X10419683Y-17841351D01*
X10433724Y-17837834D01*
X10448042Y-17835710D01*
X10462500Y-17835000D01*
X10757500Y-17835000D01*
X10771958Y-17835710D01*
X10771958Y-17835710D01*
G37*
D13*
G04 #@! TD*
G04 #@! TO.P,R6,1*
G04 #@! TO.N,/1V2_SYS*
X10610000Y-18155000D03*
D12*
G04 #@! TO.N,/1V2_SYS_A*
G04 #@! TO.C,R5*
G36*
X9801958Y-18835710D02*
X9816276Y-18837834D01*
X9830317Y-18841351D01*
X9843946Y-18846228D01*
X9857031Y-18852417D01*
X9869447Y-18859858D01*
X9881073Y-18868481D01*
X9891798Y-18878202D01*
X9901519Y-18888927D01*
X9910142Y-18900553D01*
X9917583Y-18912969D01*
X9923772Y-18926054D01*
X9928649Y-18939683D01*
X9932166Y-18953724D01*
X9934290Y-18968042D01*
X9935000Y-18982500D01*
X9935000Y-19327500D01*
X9934290Y-19341958D01*
X9932166Y-19356276D01*
X9928649Y-19370317D01*
X9923772Y-19383946D01*
X9917583Y-19397031D01*
X9910142Y-19409447D01*
X9901519Y-19421073D01*
X9891798Y-19431798D01*
X9881073Y-19441519D01*
X9869447Y-19450142D01*
X9857031Y-19457583D01*
X9843946Y-19463772D01*
X9830317Y-19468649D01*
X9816276Y-19472166D01*
X9801958Y-19474290D01*
X9787500Y-19475000D01*
X9492500Y-19475000D01*
X9478042Y-19474290D01*
X9463724Y-19472166D01*
X9449683Y-19468649D01*
X9436054Y-19463772D01*
X9422969Y-19457583D01*
X9410553Y-19450142D01*
X9398927Y-19441519D01*
X9388202Y-19431798D01*
X9378481Y-19421073D01*
X9369858Y-19409447D01*
X9362417Y-19397031D01*
X9356228Y-19383946D01*
X9351351Y-19370317D01*
X9347834Y-19356276D01*
X9345710Y-19341958D01*
X9345000Y-19327500D01*
X9345000Y-18982500D01*
X9345710Y-18968042D01*
X9347834Y-18953724D01*
X9351351Y-18939683D01*
X9356228Y-18926054D01*
X9362417Y-18912969D01*
X9369858Y-18900553D01*
X9378481Y-18888927D01*
X9388202Y-18878202D01*
X9398927Y-18868481D01*
X9410553Y-18859858D01*
X9422969Y-18852417D01*
X9436054Y-18846228D01*
X9449683Y-18841351D01*
X9463724Y-18837834D01*
X9478042Y-18835710D01*
X9492500Y-18835000D01*
X9787500Y-18835000D01*
X9801958Y-18835710D01*
X9801958Y-18835710D01*
G37*
D13*
G04 #@! TD*
G04 #@! TO.P,R5,2*
G04 #@! TO.N,/1V2_SYS_A*
X9640000Y-19155000D03*
D12*
G04 #@! TO.N,/1V2_SYS*
G04 #@! TO.C,R5*
G36*
X10771958Y-18835710D02*
X10786276Y-18837834D01*
X10800317Y-18841351D01*
X10813946Y-18846228D01*
X10827031Y-18852417D01*
X10839447Y-18859858D01*
X10851073Y-18868481D01*
X10861798Y-18878202D01*
X10871519Y-18888927D01*
X10880142Y-18900553D01*
X10887583Y-18912969D01*
X10893772Y-18926054D01*
X10898649Y-18939683D01*
X10902166Y-18953724D01*
X10904290Y-18968042D01*
X10905000Y-18982500D01*
X10905000Y-19327500D01*
X10904290Y-19341958D01*
X10902166Y-19356276D01*
X10898649Y-19370317D01*
X10893772Y-19383946D01*
X10887583Y-19397031D01*
X10880142Y-19409447D01*
X10871519Y-19421073D01*
X10861798Y-19431798D01*
X10851073Y-19441519D01*
X10839447Y-19450142D01*
X10827031Y-19457583D01*
X10813946Y-19463772D01*
X10800317Y-19468649D01*
X10786276Y-19472166D01*
X10771958Y-19474290D01*
X10757500Y-19475000D01*
X10462500Y-19475000D01*
X10448042Y-19474290D01*
X10433724Y-19472166D01*
X10419683Y-19468649D01*
X10406054Y-19463772D01*
X10392969Y-19457583D01*
X10380553Y-19450142D01*
X10368927Y-19441519D01*
X10358202Y-19431798D01*
X10348481Y-19421073D01*
X10339858Y-19409447D01*
X10332417Y-19397031D01*
X10326228Y-19383946D01*
X10321351Y-19370317D01*
X10317834Y-19356276D01*
X10315710Y-19341958D01*
X10315000Y-19327500D01*
X10315000Y-18982500D01*
X10315710Y-18968042D01*
X10317834Y-18953724D01*
X10321351Y-18939683D01*
X10326228Y-18926054D01*
X10332417Y-18912969D01*
X10339858Y-18900553D01*
X10348481Y-18888927D01*
X10358202Y-18878202D01*
X10368927Y-18868481D01*
X10380553Y-18859858D01*
X10392969Y-18852417D01*
X10406054Y-18846228D01*
X10419683Y-18841351D01*
X10433724Y-18837834D01*
X10448042Y-18835710D01*
X10462500Y-18835000D01*
X10757500Y-18835000D01*
X10771958Y-18835710D01*
X10771958Y-18835710D01*
G37*
D13*
G04 #@! TD*
G04 #@! TO.P,R5,1*
G04 #@! TO.N,/1V2_SYS*
X10610000Y-19155000D03*
D12*
G04 #@! TO.N,/1V2_SYS*
G04 #@! TO.C,R4*
G36*
X13006958Y-16980710D02*
X13021276Y-16982834D01*
X13035317Y-16986351D01*
X13048946Y-16991228D01*
X13062031Y-16997417D01*
X13074447Y-17004858D01*
X13086073Y-17013481D01*
X13096798Y-17023202D01*
X13106519Y-17033927D01*
X13115142Y-17045553D01*
X13122583Y-17057969D01*
X13128772Y-17071054D01*
X13133649Y-17084683D01*
X13137166Y-17098724D01*
X13139290Y-17113042D01*
X13140000Y-17127500D01*
X13140000Y-17422500D01*
X13139290Y-17436958D01*
X13137166Y-17451276D01*
X13133649Y-17465317D01*
X13128772Y-17478946D01*
X13122583Y-17492031D01*
X13115142Y-17504447D01*
X13106519Y-17516073D01*
X13096798Y-17526798D01*
X13086073Y-17536519D01*
X13074447Y-17545142D01*
X13062031Y-17552583D01*
X13048946Y-17558772D01*
X13035317Y-17563649D01*
X13021276Y-17567166D01*
X13006958Y-17569290D01*
X12992500Y-17570000D01*
X12647500Y-17570000D01*
X12633042Y-17569290D01*
X12618724Y-17567166D01*
X12604683Y-17563649D01*
X12591054Y-17558772D01*
X12577969Y-17552583D01*
X12565553Y-17545142D01*
X12553927Y-17536519D01*
X12543202Y-17526798D01*
X12533481Y-17516073D01*
X12524858Y-17504447D01*
X12517417Y-17492031D01*
X12511228Y-17478946D01*
X12506351Y-17465317D01*
X12502834Y-17451276D01*
X12500710Y-17436958D01*
X12500000Y-17422500D01*
X12500000Y-17127500D01*
X12500710Y-17113042D01*
X12502834Y-17098724D01*
X12506351Y-17084683D01*
X12511228Y-17071054D01*
X12517417Y-17057969D01*
X12524858Y-17045553D01*
X12533481Y-17033927D01*
X12543202Y-17023202D01*
X12553927Y-17013481D01*
X12565553Y-17004858D01*
X12577969Y-16997417D01*
X12591054Y-16991228D01*
X12604683Y-16986351D01*
X12618724Y-16982834D01*
X12633042Y-16980710D01*
X12647500Y-16980000D01*
X12992500Y-16980000D01*
X13006958Y-16980710D01*
X13006958Y-16980710D01*
G37*
D13*
G04 #@! TD*
G04 #@! TO.P,R4,2*
G04 #@! TO.N,/1V2_SYS*
X12820000Y-17275000D03*
D12*
G04 #@! TO.N,/1V2*
G04 #@! TO.C,R4*
G36*
X13006958Y-16010710D02*
X13021276Y-16012834D01*
X13035317Y-16016351D01*
X13048946Y-16021228D01*
X13062031Y-16027417D01*
X13074447Y-16034858D01*
X13086073Y-16043481D01*
X13096798Y-16053202D01*
X13106519Y-16063927D01*
X13115142Y-16075553D01*
X13122583Y-16087969D01*
X13128772Y-16101054D01*
X13133649Y-16114683D01*
X13137166Y-16128724D01*
X13139290Y-16143042D01*
X13140000Y-16157500D01*
X13140000Y-16452500D01*
X13139290Y-16466958D01*
X13137166Y-16481276D01*
X13133649Y-16495317D01*
X13128772Y-16508946D01*
X13122583Y-16522031D01*
X13115142Y-16534447D01*
X13106519Y-16546073D01*
X13096798Y-16556798D01*
X13086073Y-16566519D01*
X13074447Y-16575142D01*
X13062031Y-16582583D01*
X13048946Y-16588772D01*
X13035317Y-16593649D01*
X13021276Y-16597166D01*
X13006958Y-16599290D01*
X12992500Y-16600000D01*
X12647500Y-16600000D01*
X12633042Y-16599290D01*
X12618724Y-16597166D01*
X12604683Y-16593649D01*
X12591054Y-16588772D01*
X12577969Y-16582583D01*
X12565553Y-16575142D01*
X12553927Y-16566519D01*
X12543202Y-16556798D01*
X12533481Y-16546073D01*
X12524858Y-16534447D01*
X12517417Y-16522031D01*
X12511228Y-16508946D01*
X12506351Y-16495317D01*
X12502834Y-16481276D01*
X12500710Y-16466958D01*
X12500000Y-16452500D01*
X12500000Y-16157500D01*
X12500710Y-16143042D01*
X12502834Y-16128724D01*
X12506351Y-16114683D01*
X12511228Y-16101054D01*
X12517417Y-16087969D01*
X12524858Y-16075553D01*
X12533481Y-16063927D01*
X12543202Y-16053202D01*
X12553927Y-16043481D01*
X12565553Y-16034858D01*
X12577969Y-16027417D01*
X12591054Y-16021228D01*
X12604683Y-16016351D01*
X12618724Y-16012834D01*
X12633042Y-16010710D01*
X12647500Y-16010000D01*
X12992500Y-16010000D01*
X13006958Y-16010710D01*
X13006958Y-16010710D01*
G37*
D13*
G04 #@! TD*
G04 #@! TO.P,R4,1*
G04 #@! TO.N,/1V2*
X12820000Y-16305000D03*
D12*
G04 #@! TO.N,/2V5_SYS*
G04 #@! TO.C,R3*
G36*
X5761958Y-7395710D02*
X5776276Y-7397834D01*
X5790317Y-7401351D01*
X5803946Y-7406228D01*
X5817031Y-7412417D01*
X5829447Y-7419858D01*
X5841073Y-7428481D01*
X5851798Y-7438202D01*
X5861519Y-7448927D01*
X5870142Y-7460553D01*
X5877583Y-7472969D01*
X5883772Y-7486054D01*
X5888649Y-7499683D01*
X5892166Y-7513724D01*
X5894290Y-7528042D01*
X5895000Y-7542500D01*
X5895000Y-7837500D01*
X5894290Y-7851958D01*
X5892166Y-7866276D01*
X5888649Y-7880317D01*
X5883772Y-7893946D01*
X5877583Y-7907031D01*
X5870142Y-7919447D01*
X5861519Y-7931073D01*
X5851798Y-7941798D01*
X5841073Y-7951519D01*
X5829447Y-7960142D01*
X5817031Y-7967583D01*
X5803946Y-7973772D01*
X5790317Y-7978649D01*
X5776276Y-7982166D01*
X5761958Y-7984290D01*
X5747500Y-7985000D01*
X5402500Y-7985000D01*
X5388042Y-7984290D01*
X5373724Y-7982166D01*
X5359683Y-7978649D01*
X5346054Y-7973772D01*
X5332969Y-7967583D01*
X5320553Y-7960142D01*
X5308927Y-7951519D01*
X5298202Y-7941798D01*
X5288481Y-7931073D01*
X5279858Y-7919447D01*
X5272417Y-7907031D01*
X5266228Y-7893946D01*
X5261351Y-7880317D01*
X5257834Y-7866276D01*
X5255710Y-7851958D01*
X5255000Y-7837500D01*
X5255000Y-7542500D01*
X5255710Y-7528042D01*
X5257834Y-7513724D01*
X5261351Y-7499683D01*
X5266228Y-7486054D01*
X5272417Y-7472969D01*
X5279858Y-7460553D01*
X5288481Y-7448927D01*
X5298202Y-7438202D01*
X5308927Y-7428481D01*
X5320553Y-7419858D01*
X5332969Y-7412417D01*
X5346054Y-7406228D01*
X5359683Y-7401351D01*
X5373724Y-7397834D01*
X5388042Y-7395710D01*
X5402500Y-7395000D01*
X5747500Y-7395000D01*
X5761958Y-7395710D01*
X5761958Y-7395710D01*
G37*
D13*
G04 #@! TD*
G04 #@! TO.P,R3,2*
G04 #@! TO.N,/2V5_SYS*
X5575000Y-7690000D03*
D12*
G04 #@! TO.N,/2V5*
G04 #@! TO.C,R3*
G36*
X5761958Y-6425710D02*
X5776276Y-6427834D01*
X5790317Y-6431351D01*
X5803946Y-6436228D01*
X5817031Y-6442417D01*
X5829447Y-6449858D01*
X5841073Y-6458481D01*
X5851798Y-6468202D01*
X5861519Y-6478927D01*
X5870142Y-6490553D01*
X5877583Y-6502969D01*
X5883772Y-6516054D01*
X5888649Y-6529683D01*
X5892166Y-6543724D01*
X5894290Y-6558042D01*
X5895000Y-6572500D01*
X5895000Y-6867500D01*
X5894290Y-6881958D01*
X5892166Y-6896276D01*
X5888649Y-6910317D01*
X5883772Y-6923946D01*
X5877583Y-6937031D01*
X5870142Y-6949447D01*
X5861519Y-6961073D01*
X5851798Y-6971798D01*
X5841073Y-6981519D01*
X5829447Y-6990142D01*
X5817031Y-6997583D01*
X5803946Y-7003772D01*
X5790317Y-7008649D01*
X5776276Y-7012166D01*
X5761958Y-7014290D01*
X5747500Y-7015000D01*
X5402500Y-7015000D01*
X5388042Y-7014290D01*
X5373724Y-7012166D01*
X5359683Y-7008649D01*
X5346054Y-7003772D01*
X5332969Y-6997583D01*
X5320553Y-6990142D01*
X5308927Y-6981519D01*
X5298202Y-6971798D01*
X5288481Y-6961073D01*
X5279858Y-6949447D01*
X5272417Y-6937031D01*
X5266228Y-6923946D01*
X5261351Y-6910317D01*
X5257834Y-6896276D01*
X5255710Y-6881958D01*
X5255000Y-6867500D01*
X5255000Y-6572500D01*
X5255710Y-6558042D01*
X5257834Y-6543724D01*
X5261351Y-6529683D01*
X5266228Y-6516054D01*
X5272417Y-6502969D01*
X5279858Y-6490553D01*
X5288481Y-6478927D01*
X5298202Y-6468202D01*
X5308927Y-6458481D01*
X5320553Y-6449858D01*
X5332969Y-6442417D01*
X5346054Y-6436228D01*
X5359683Y-6431351D01*
X5373724Y-6427834D01*
X5388042Y-6425710D01*
X5402500Y-6425000D01*
X5747500Y-6425000D01*
X5761958Y-6425710D01*
X5761958Y-6425710D01*
G37*
D13*
G04 #@! TD*
G04 #@! TO.P,R3,1*
G04 #@! TO.N,/2V5*
X5575000Y-6720000D03*
D12*
G04 #@! TO.N,/1V8_SYS*
G04 #@! TO.C,R2*
G36*
X19436958Y-13910710D02*
X19451276Y-13912834D01*
X19465317Y-13916351D01*
X19478946Y-13921228D01*
X19492031Y-13927417D01*
X19504447Y-13934858D01*
X19516073Y-13943481D01*
X19526798Y-13953202D01*
X19536519Y-13963927D01*
X19545142Y-13975553D01*
X19552583Y-13987969D01*
X19558772Y-14001054D01*
X19563649Y-14014683D01*
X19567166Y-14028724D01*
X19569290Y-14043042D01*
X19570000Y-14057500D01*
X19570000Y-14352500D01*
X19569290Y-14366958D01*
X19567166Y-14381276D01*
X19563649Y-14395317D01*
X19558772Y-14408946D01*
X19552583Y-14422031D01*
X19545142Y-14434447D01*
X19536519Y-14446073D01*
X19526798Y-14456798D01*
X19516073Y-14466519D01*
X19504447Y-14475142D01*
X19492031Y-14482583D01*
X19478946Y-14488772D01*
X19465317Y-14493649D01*
X19451276Y-14497166D01*
X19436958Y-14499290D01*
X19422500Y-14500000D01*
X19077500Y-14500000D01*
X19063042Y-14499290D01*
X19048724Y-14497166D01*
X19034683Y-14493649D01*
X19021054Y-14488772D01*
X19007969Y-14482583D01*
X18995553Y-14475142D01*
X18983927Y-14466519D01*
X18973202Y-14456798D01*
X18963481Y-14446073D01*
X18954858Y-14434447D01*
X18947417Y-14422031D01*
X18941228Y-14408946D01*
X18936351Y-14395317D01*
X18932834Y-14381276D01*
X18930710Y-14366958D01*
X18930000Y-14352500D01*
X18930000Y-14057500D01*
X18930710Y-14043042D01*
X18932834Y-14028724D01*
X18936351Y-14014683D01*
X18941228Y-14001054D01*
X18947417Y-13987969D01*
X18954858Y-13975553D01*
X18963481Y-13963927D01*
X18973202Y-13953202D01*
X18983927Y-13943481D01*
X18995553Y-13934858D01*
X19007969Y-13927417D01*
X19021054Y-13921228D01*
X19034683Y-13916351D01*
X19048724Y-13912834D01*
X19063042Y-13910710D01*
X19077500Y-13910000D01*
X19422500Y-13910000D01*
X19436958Y-13910710D01*
X19436958Y-13910710D01*
G37*
D13*
G04 #@! TD*
G04 #@! TO.P,R2,2*
G04 #@! TO.N,/1V8_SYS*
X19250000Y-14205000D03*
D12*
G04 #@! TO.N,/1V8*
G04 #@! TO.C,R2*
G36*
X19436958Y-12940710D02*
X19451276Y-12942834D01*
X19465317Y-12946351D01*
X19478946Y-12951228D01*
X19492031Y-12957417D01*
X19504447Y-12964858D01*
X19516073Y-12973481D01*
X19526798Y-12983202D01*
X19536519Y-12993927D01*
X19545142Y-13005553D01*
X19552583Y-13017969D01*
X19558772Y-13031054D01*
X19563649Y-13044683D01*
X19567166Y-13058724D01*
X19569290Y-13073042D01*
X19570000Y-13087500D01*
X19570000Y-13382500D01*
X19569290Y-13396958D01*
X19567166Y-13411276D01*
X19563649Y-13425317D01*
X19558772Y-13438946D01*
X19552583Y-13452031D01*
X19545142Y-13464447D01*
X19536519Y-13476073D01*
X19526798Y-13486798D01*
X19516073Y-13496519D01*
X19504447Y-13505142D01*
X19492031Y-13512583D01*
X19478946Y-13518772D01*
X19465317Y-13523649D01*
X19451276Y-13527166D01*
X19436958Y-13529290D01*
X19422500Y-13530000D01*
X19077500Y-13530000D01*
X19063042Y-13529290D01*
X19048724Y-13527166D01*
X19034683Y-13523649D01*
X19021054Y-13518772D01*
X19007969Y-13512583D01*
X18995553Y-13505142D01*
X18983927Y-13496519D01*
X18973202Y-13486798D01*
X18963481Y-13476073D01*
X18954858Y-13464447D01*
X18947417Y-13452031D01*
X18941228Y-13438946D01*
X18936351Y-13425317D01*
X18932834Y-13411276D01*
X18930710Y-13396958D01*
X18930000Y-13382500D01*
X18930000Y-13087500D01*
X18930710Y-13073042D01*
X18932834Y-13058724D01*
X18936351Y-13044683D01*
X18941228Y-13031054D01*
X18947417Y-13017969D01*
X18954858Y-13005553D01*
X18963481Y-12993927D01*
X18973202Y-12983202D01*
X18983927Y-12973481D01*
X18995553Y-12964858D01*
X19007969Y-12957417D01*
X19021054Y-12951228D01*
X19034683Y-12946351D01*
X19048724Y-12942834D01*
X19063042Y-12940710D01*
X19077500Y-12940000D01*
X19422500Y-12940000D01*
X19436958Y-12940710D01*
X19436958Y-12940710D01*
G37*
D13*
G04 #@! TD*
G04 #@! TO.P,R2,1*
G04 #@! TO.N,/1V8*
X19250000Y-13235000D03*
D12*
G04 #@! TO.N,/3V3_SYS*
G04 #@! TO.C,R1*
G36*
X19436958Y-10890710D02*
X19451276Y-10892834D01*
X19465317Y-10896351D01*
X19478946Y-10901228D01*
X19492031Y-10907417D01*
X19504447Y-10914858D01*
X19516073Y-10923481D01*
X19526798Y-10933202D01*
X19536519Y-10943927D01*
X19545142Y-10955553D01*
X19552583Y-10967969D01*
X19558772Y-10981054D01*
X19563649Y-10994683D01*
X19567166Y-11008724D01*
X19569290Y-11023042D01*
X19570000Y-11037500D01*
X19570000Y-11332500D01*
X19569290Y-11346958D01*
X19567166Y-11361276D01*
X19563649Y-11375317D01*
X19558772Y-11388946D01*
X19552583Y-11402031D01*
X19545142Y-11414447D01*
X19536519Y-11426073D01*
X19526798Y-11436798D01*
X19516073Y-11446519D01*
X19504447Y-11455142D01*
X19492031Y-11462583D01*
X19478946Y-11468772D01*
X19465317Y-11473649D01*
X19451276Y-11477166D01*
X19436958Y-11479290D01*
X19422500Y-11480000D01*
X19077500Y-11480000D01*
X19063042Y-11479290D01*
X19048724Y-11477166D01*
X19034683Y-11473649D01*
X19021054Y-11468772D01*
X19007969Y-11462583D01*
X18995553Y-11455142D01*
X18983927Y-11446519D01*
X18973202Y-11436798D01*
X18963481Y-11426073D01*
X18954858Y-11414447D01*
X18947417Y-11402031D01*
X18941228Y-11388946D01*
X18936351Y-11375317D01*
X18932834Y-11361276D01*
X18930710Y-11346958D01*
X18930000Y-11332500D01*
X18930000Y-11037500D01*
X18930710Y-11023042D01*
X18932834Y-11008724D01*
X18936351Y-10994683D01*
X18941228Y-10981054D01*
X18947417Y-10967969D01*
X18954858Y-10955553D01*
X18963481Y-10943927D01*
X18973202Y-10933202D01*
X18983927Y-10923481D01*
X18995553Y-10914858D01*
X19007969Y-10907417D01*
X19021054Y-10901228D01*
X19034683Y-10896351D01*
X19048724Y-10892834D01*
X19063042Y-10890710D01*
X19077500Y-10890000D01*
X19422500Y-10890000D01*
X19436958Y-10890710D01*
X19436958Y-10890710D01*
G37*
D13*
G04 #@! TD*
G04 #@! TO.P,R1,2*
G04 #@! TO.N,/3V3_SYS*
X19250000Y-11185000D03*
D12*
G04 #@! TO.N,/3V3*
G04 #@! TO.C,R1*
G36*
X19436958Y-11860710D02*
X19451276Y-11862834D01*
X19465317Y-11866351D01*
X19478946Y-11871228D01*
X19492031Y-11877417D01*
X19504447Y-11884858D01*
X19516073Y-11893481D01*
X19526798Y-11903202D01*
X19536519Y-11913927D01*
X19545142Y-11925553D01*
X19552583Y-11937969D01*
X19558772Y-11951054D01*
X19563649Y-11964683D01*
X19567166Y-11978724D01*
X19569290Y-11993042D01*
X19570000Y-12007500D01*
X19570000Y-12302500D01*
X19569290Y-12316958D01*
X19567166Y-12331276D01*
X19563649Y-12345317D01*
X19558772Y-12358946D01*
X19552583Y-12372031D01*
X19545142Y-12384447D01*
X19536519Y-12396073D01*
X19526798Y-12406798D01*
X19516073Y-12416519D01*
X19504447Y-12425142D01*
X19492031Y-12432583D01*
X19478946Y-12438772D01*
X19465317Y-12443649D01*
X19451276Y-12447166D01*
X19436958Y-12449290D01*
X19422500Y-12450000D01*
X19077500Y-12450000D01*
X19063042Y-12449290D01*
X19048724Y-12447166D01*
X19034683Y-12443649D01*
X19021054Y-12438772D01*
X19007969Y-12432583D01*
X18995553Y-12425142D01*
X18983927Y-12416519D01*
X18973202Y-12406798D01*
X18963481Y-12396073D01*
X18954858Y-12384447D01*
X18947417Y-12372031D01*
X18941228Y-12358946D01*
X18936351Y-12345317D01*
X18932834Y-12331276D01*
X18930710Y-12316958D01*
X18930000Y-12302500D01*
X18930000Y-12007500D01*
X18930710Y-11993042D01*
X18932834Y-11978724D01*
X18936351Y-11964683D01*
X18941228Y-11951054D01*
X18947417Y-11937969D01*
X18954858Y-11925553D01*
X18963481Y-11913927D01*
X18973202Y-11903202D01*
X18983927Y-11893481D01*
X18995553Y-11884858D01*
X19007969Y-11877417D01*
X19021054Y-11871228D01*
X19034683Y-11866351D01*
X19048724Y-11862834D01*
X19063042Y-11860710D01*
X19077500Y-11860000D01*
X19422500Y-11860000D01*
X19436958Y-11860710D01*
X19436958Y-11860710D01*
G37*
D13*
G04 #@! TD*
G04 #@! TO.P,R1,1*
G04 #@! TO.N,/3V3*
X19250000Y-12155000D03*
D12*
G04 #@! TO.N,GND*
G04 #@! TO.C,R13*
G36*
X19201958Y-2920710D02*
X19216276Y-2922834D01*
X19230317Y-2926351D01*
X19243946Y-2931228D01*
X19257031Y-2937417D01*
X19269447Y-2944858D01*
X19281073Y-2953481D01*
X19291798Y-2963202D01*
X19301519Y-2973927D01*
X19310142Y-2985553D01*
X19317583Y-2997969D01*
X19323772Y-3011054D01*
X19328649Y-3024683D01*
X19332166Y-3038724D01*
X19334290Y-3053042D01*
X19335000Y-3067500D01*
X19335000Y-3362500D01*
X19334290Y-3376958D01*
X19332166Y-3391276D01*
X19328649Y-3405317D01*
X19323772Y-3418946D01*
X19317583Y-3432031D01*
X19310142Y-3444447D01*
X19301519Y-3456073D01*
X19291798Y-3466798D01*
X19281073Y-3476519D01*
X19269447Y-3485142D01*
X19257031Y-3492583D01*
X19243946Y-3498772D01*
X19230317Y-3503649D01*
X19216276Y-3507166D01*
X19201958Y-3509290D01*
X19187500Y-3510000D01*
X18842500Y-3510000D01*
X18828042Y-3509290D01*
X18813724Y-3507166D01*
X18799683Y-3503649D01*
X18786054Y-3498772D01*
X18772969Y-3492583D01*
X18760553Y-3485142D01*
X18748927Y-3476519D01*
X18738202Y-3466798D01*
X18728481Y-3456073D01*
X18719858Y-3444447D01*
X18712417Y-3432031D01*
X18706228Y-3418946D01*
X18701351Y-3405317D01*
X18697834Y-3391276D01*
X18695710Y-3376958D01*
X18695000Y-3362500D01*
X18695000Y-3067500D01*
X18695710Y-3053042D01*
X18697834Y-3038724D01*
X18701351Y-3024683D01*
X18706228Y-3011054D01*
X18712417Y-2997969D01*
X18719858Y-2985553D01*
X18728481Y-2973927D01*
X18738202Y-2963202D01*
X18748927Y-2953481D01*
X18760553Y-2944858D01*
X18772969Y-2937417D01*
X18786054Y-2931228D01*
X18799683Y-2926351D01*
X18813724Y-2922834D01*
X18828042Y-2920710D01*
X18842500Y-2920000D01*
X19187500Y-2920000D01*
X19201958Y-2920710D01*
X19201958Y-2920710D01*
G37*
D13*
G04 #@! TD*
G04 #@! TO.P,R13,2*
G04 #@! TO.N,GND*
X19015000Y-3215000D03*
D12*
G04 #@! TO.N,/CSI_OE*
G04 #@! TO.C,R13*
G36*
X19201958Y-3890710D02*
X19216276Y-3892834D01*
X19230317Y-3896351D01*
X19243946Y-3901228D01*
X19257031Y-3907417D01*
X19269447Y-3914858D01*
X19281073Y-3923481D01*
X19291798Y-3933202D01*
X19301519Y-3943927D01*
X19310142Y-3955553D01*
X19317583Y-3967969D01*
X19323772Y-3981054D01*
X19328649Y-3994683D01*
X19332166Y-4008724D01*
X19334290Y-4023042D01*
X19335000Y-4037500D01*
X19335000Y-4332500D01*
X19334290Y-4346958D01*
X19332166Y-4361276D01*
X19328649Y-4375317D01*
X19323772Y-4388946D01*
X19317583Y-4402031D01*
X19310142Y-4414447D01*
X19301519Y-4426073D01*
X19291798Y-4436798D01*
X19281073Y-4446519D01*
X19269447Y-4455142D01*
X19257031Y-4462583D01*
X19243946Y-4468772D01*
X19230317Y-4473649D01*
X19216276Y-4477166D01*
X19201958Y-4479290D01*
X19187500Y-4480000D01*
X18842500Y-4480000D01*
X18828042Y-4479290D01*
X18813724Y-4477166D01*
X18799683Y-4473649D01*
X18786054Y-4468772D01*
X18772969Y-4462583D01*
X18760553Y-4455142D01*
X18748927Y-4446519D01*
X18738202Y-4436798D01*
X18728481Y-4426073D01*
X18719858Y-4414447D01*
X18712417Y-4402031D01*
X18706228Y-4388946D01*
X18701351Y-4375317D01*
X18697834Y-4361276D01*
X18695710Y-4346958D01*
X18695000Y-4332500D01*
X18695000Y-4037500D01*
X18695710Y-4023042D01*
X18697834Y-4008724D01*
X18701351Y-3994683D01*
X18706228Y-3981054D01*
X18712417Y-3967969D01*
X18719858Y-3955553D01*
X18728481Y-3943927D01*
X18738202Y-3933202D01*
X18748927Y-3923481D01*
X18760553Y-3914858D01*
X18772969Y-3907417D01*
X18786054Y-3901228D01*
X18799683Y-3896351D01*
X18813724Y-3892834D01*
X18828042Y-3890710D01*
X18842500Y-3890000D01*
X19187500Y-3890000D01*
X19201958Y-3890710D01*
X19201958Y-3890710D01*
G37*
D13*
G04 #@! TD*
G04 #@! TO.P,R13,1*
G04 #@! TO.N,/CSI_OE*
X19015000Y-4185000D03*
D14*
G04 #@! TO.P,TP4,1*
G04 #@! TO.N,/PC_RDY*
X5010000Y-17290800D03*
G04 #@! TD*
G04 #@! TO.P,TP9,1*
G04 #@! TO.N,/PIO3*
X3870000Y-1180800D03*
G04 #@! TD*
G04 #@! TO.P,TP7,1*
G04 #@! TO.N,/EXTCLK_EN*
X6520000Y-17290800D03*
G04 #@! TD*
G04 #@! TO.P,TP3,1*
G04 #@! TO.N,/ZIP_EN_L*
X2200000Y-17290800D03*
G04 #@! TD*
G04 #@! TO.P,TP1,1*
G04 #@! TO.N,/CSI_INT*
X16850000Y-1430800D03*
G04 #@! TD*
G04 #@! TO.P,TP2,1*
G04 #@! TO.N,/MIPI_SEL*
X10500000Y-2130000D03*
G04 #@! TD*
G04 #@! TO.P,TP8,1*
G04 #@! TO.N,/EXT_CLK*
X3580000Y-17290800D03*
G04 #@! TD*
G04 #@! TO.P,TP11,1*
G04 #@! TO.N,/PIO1*
X2320000Y-1180800D03*
G04 #@! TD*
G04 #@! TO.P,TP12,1*
G04 #@! TO.N,/ULPM_WAKE*
X3240000Y-5080800D03*
G04 #@! TD*
G04 #@! TO.P,TP14,1*
G04 #@! TO.N,/LED1_ISINK*
X14140000Y-18660800D03*
G04 #@! TD*
G04 #@! TO.P,TP15,1*
G04 #@! TO.N,/LED2_ISINK*
X15430000Y-18670800D03*
G04 #@! TD*
G04 #@! TO.P,TP16,1*
G04 #@! TO.N,/LED3_ISINK*
X16730000Y-18670800D03*
G04 #@! TD*
G04 #@! TO.P,TP10,1*
G04 #@! TO.N,/PIO2*
X5390000Y-1180800D03*
G04 #@! TD*
D12*
G04 #@! TO.N,GND*
G04 #@! TO.C,C15*
G36*
X8836958Y-2925710D02*
X8851276Y-2927834D01*
X8865317Y-2931351D01*
X8878946Y-2936228D01*
X8892031Y-2942417D01*
X8904447Y-2949858D01*
X8916073Y-2958481D01*
X8926798Y-2968202D01*
X8936519Y-2978927D01*
X8945142Y-2990553D01*
X8952583Y-3002969D01*
X8958772Y-3016054D01*
X8963649Y-3029683D01*
X8967166Y-3043724D01*
X8969290Y-3058042D01*
X8970000Y-3072500D01*
X8970000Y-3367500D01*
X8969290Y-3381958D01*
X8967166Y-3396276D01*
X8963649Y-3410317D01*
X8958772Y-3423946D01*
X8952583Y-3437031D01*
X8945142Y-3449447D01*
X8936519Y-3461073D01*
X8926798Y-3471798D01*
X8916073Y-3481519D01*
X8904447Y-3490142D01*
X8892031Y-3497583D01*
X8878946Y-3503772D01*
X8865317Y-3508649D01*
X8851276Y-3512166D01*
X8836958Y-3514290D01*
X8822500Y-3515000D01*
X8477500Y-3515000D01*
X8463042Y-3514290D01*
X8448724Y-3512166D01*
X8434683Y-3508649D01*
X8421054Y-3503772D01*
X8407969Y-3497583D01*
X8395553Y-3490142D01*
X8383927Y-3481519D01*
X8373202Y-3471798D01*
X8363481Y-3461073D01*
X8354858Y-3449447D01*
X8347417Y-3437031D01*
X8341228Y-3423946D01*
X8336351Y-3410317D01*
X8332834Y-3396276D01*
X8330710Y-3381958D01*
X8330000Y-3367500D01*
X8330000Y-3072500D01*
X8330710Y-3058042D01*
X8332834Y-3043724D01*
X8336351Y-3029683D01*
X8341228Y-3016054D01*
X8347417Y-3002969D01*
X8354858Y-2990553D01*
X8363481Y-2978927D01*
X8373202Y-2968202D01*
X8383927Y-2958481D01*
X8395553Y-2949858D01*
X8407969Y-2942417D01*
X8421054Y-2936228D01*
X8434683Y-2931351D01*
X8448724Y-2927834D01*
X8463042Y-2925710D01*
X8477500Y-2925000D01*
X8822500Y-2925000D01*
X8836958Y-2925710D01*
X8836958Y-2925710D01*
G37*
D13*
G04 #@! TD*
G04 #@! TO.P,C15,2*
G04 #@! TO.N,GND*
X8650000Y-3220000D03*
D12*
G04 #@! TO.N,/VPLL_A*
G04 #@! TO.C,C15*
G36*
X8836958Y-3895710D02*
X8851276Y-3897834D01*
X8865317Y-3901351D01*
X8878946Y-3906228D01*
X8892031Y-3912417D01*
X8904447Y-3919858D01*
X8916073Y-3928481D01*
X8926798Y-3938202D01*
X8936519Y-3948927D01*
X8945142Y-3960553D01*
X8952583Y-3972969D01*
X8958772Y-3986054D01*
X8963649Y-3999683D01*
X8967166Y-4013724D01*
X8969290Y-4028042D01*
X8970000Y-4042500D01*
X8970000Y-4337500D01*
X8969290Y-4351958D01*
X8967166Y-4366276D01*
X8963649Y-4380317D01*
X8958772Y-4393946D01*
X8952583Y-4407031D01*
X8945142Y-4419447D01*
X8936519Y-4431073D01*
X8926798Y-4441798D01*
X8916073Y-4451519D01*
X8904447Y-4460142D01*
X8892031Y-4467583D01*
X8878946Y-4473772D01*
X8865317Y-4478649D01*
X8851276Y-4482166D01*
X8836958Y-4484290D01*
X8822500Y-4485000D01*
X8477500Y-4485000D01*
X8463042Y-4484290D01*
X8448724Y-4482166D01*
X8434683Y-4478649D01*
X8421054Y-4473772D01*
X8407969Y-4467583D01*
X8395553Y-4460142D01*
X8383927Y-4451519D01*
X8373202Y-4441798D01*
X8363481Y-4431073D01*
X8354858Y-4419447D01*
X8347417Y-4407031D01*
X8341228Y-4393946D01*
X8336351Y-4380317D01*
X8332834Y-4366276D01*
X8330710Y-4351958D01*
X8330000Y-4337500D01*
X8330000Y-4042500D01*
X8330710Y-4028042D01*
X8332834Y-4013724D01*
X8336351Y-3999683D01*
X8341228Y-3986054D01*
X8347417Y-3972969D01*
X8354858Y-3960553D01*
X8363481Y-3948927D01*
X8373202Y-3938202D01*
X8383927Y-3928481D01*
X8395553Y-3919858D01*
X8407969Y-3912417D01*
X8421054Y-3906228D01*
X8434683Y-3901351D01*
X8448724Y-3897834D01*
X8463042Y-3895710D01*
X8477500Y-3895000D01*
X8822500Y-3895000D01*
X8836958Y-3895710D01*
X8836958Y-3895710D01*
G37*
D13*
G04 #@! TD*
G04 #@! TO.P,C15,1*
G04 #@! TO.N,/VPLL_A*
X8650000Y-4190000D03*
D12*
G04 #@! TO.N,GND*
G04 #@! TO.C,C9*
G36*
X6801958Y-8335710D02*
X6816276Y-8337834D01*
X6830317Y-8341351D01*
X6843946Y-8346228D01*
X6857031Y-8352417D01*
X6869447Y-8359858D01*
X6881073Y-8368481D01*
X6891798Y-8378202D01*
X6901519Y-8388927D01*
X6910142Y-8400553D01*
X6917583Y-8412969D01*
X6923772Y-8426054D01*
X6928649Y-8439683D01*
X6932166Y-8453724D01*
X6934290Y-8468042D01*
X6935000Y-8482500D01*
X6935000Y-8827500D01*
X6934290Y-8841958D01*
X6932166Y-8856276D01*
X6928649Y-8870317D01*
X6923772Y-8883946D01*
X6917583Y-8897031D01*
X6910142Y-8909447D01*
X6901519Y-8921073D01*
X6891798Y-8931798D01*
X6881073Y-8941519D01*
X6869447Y-8950142D01*
X6857031Y-8957583D01*
X6843946Y-8963772D01*
X6830317Y-8968649D01*
X6816276Y-8972166D01*
X6801958Y-8974290D01*
X6787500Y-8975000D01*
X6492500Y-8975000D01*
X6478042Y-8974290D01*
X6463724Y-8972166D01*
X6449683Y-8968649D01*
X6436054Y-8963772D01*
X6422969Y-8957583D01*
X6410553Y-8950142D01*
X6398927Y-8941519D01*
X6388202Y-8931798D01*
X6378481Y-8921073D01*
X6369858Y-8909447D01*
X6362417Y-8897031D01*
X6356228Y-8883946D01*
X6351351Y-8870317D01*
X6347834Y-8856276D01*
X6345710Y-8841958D01*
X6345000Y-8827500D01*
X6345000Y-8482500D01*
X6345710Y-8468042D01*
X6347834Y-8453724D01*
X6351351Y-8439683D01*
X6356228Y-8426054D01*
X6362417Y-8412969D01*
X6369858Y-8400553D01*
X6378481Y-8388927D01*
X6388202Y-8378202D01*
X6398927Y-8368481D01*
X6410553Y-8359858D01*
X6422969Y-8352417D01*
X6436054Y-8346228D01*
X6449683Y-8341351D01*
X6463724Y-8337834D01*
X6478042Y-8335710D01*
X6492500Y-8335000D01*
X6787500Y-8335000D01*
X6801958Y-8335710D01*
X6801958Y-8335710D01*
G37*
D13*
G04 #@! TD*
G04 #@! TO.P,C9,2*
G04 #@! TO.N,GND*
X6640000Y-8655000D03*
D12*
G04 #@! TO.N,/1V2_SYS_A*
G04 #@! TO.C,C9*
G36*
X7771958Y-8335710D02*
X7786276Y-8337834D01*
X7800317Y-8341351D01*
X7813946Y-8346228D01*
X7827031Y-8352417D01*
X7839447Y-8359858D01*
X7851073Y-8368481D01*
X7861798Y-8378202D01*
X7871519Y-8388927D01*
X7880142Y-8400553D01*
X7887583Y-8412969D01*
X7893772Y-8426054D01*
X7898649Y-8439683D01*
X7902166Y-8453724D01*
X7904290Y-8468042D01*
X7905000Y-8482500D01*
X7905000Y-8827500D01*
X7904290Y-8841958D01*
X7902166Y-8856276D01*
X7898649Y-8870317D01*
X7893772Y-8883946D01*
X7887583Y-8897031D01*
X7880142Y-8909447D01*
X7871519Y-8921073D01*
X7861798Y-8931798D01*
X7851073Y-8941519D01*
X7839447Y-8950142D01*
X7827031Y-8957583D01*
X7813946Y-8963772D01*
X7800317Y-8968649D01*
X7786276Y-8972166D01*
X7771958Y-8974290D01*
X7757500Y-8975000D01*
X7462500Y-8975000D01*
X7448042Y-8974290D01*
X7433724Y-8972166D01*
X7419683Y-8968649D01*
X7406054Y-8963772D01*
X7392969Y-8957583D01*
X7380553Y-8950142D01*
X7368927Y-8941519D01*
X7358202Y-8931798D01*
X7348481Y-8921073D01*
X7339858Y-8909447D01*
X7332417Y-8897031D01*
X7326228Y-8883946D01*
X7321351Y-8870317D01*
X7317834Y-8856276D01*
X7315710Y-8841958D01*
X7315000Y-8827500D01*
X7315000Y-8482500D01*
X7315710Y-8468042D01*
X7317834Y-8453724D01*
X7321351Y-8439683D01*
X7326228Y-8426054D01*
X7332417Y-8412969D01*
X7339858Y-8400553D01*
X7348481Y-8388927D01*
X7358202Y-8378202D01*
X7368927Y-8368481D01*
X7380553Y-8359858D01*
X7392969Y-8352417D01*
X7406054Y-8346228D01*
X7419683Y-8341351D01*
X7433724Y-8337834D01*
X7448042Y-8335710D01*
X7462500Y-8335000D01*
X7757500Y-8335000D01*
X7771958Y-8335710D01*
X7771958Y-8335710D01*
G37*
D13*
G04 #@! TD*
G04 #@! TO.P,C9,1*
G04 #@! TO.N,/1V2_SYS_A*
X7610000Y-8655000D03*
D12*
G04 #@! TO.N,GND*
G04 #@! TO.C,C11*
G36*
X7911958Y-12295710D02*
X7926276Y-12297834D01*
X7940317Y-12301351D01*
X7953946Y-12306228D01*
X7967031Y-12312417D01*
X7979447Y-12319858D01*
X7991073Y-12328481D01*
X8001798Y-12338202D01*
X8011519Y-12348927D01*
X8020142Y-12360553D01*
X8027583Y-12372969D01*
X8033772Y-12386054D01*
X8038649Y-12399683D01*
X8042166Y-12413724D01*
X8044290Y-12428042D01*
X8045000Y-12442500D01*
X8045000Y-12737500D01*
X8044290Y-12751958D01*
X8042166Y-12766276D01*
X8038649Y-12780317D01*
X8033772Y-12793946D01*
X8027583Y-12807031D01*
X8020142Y-12819447D01*
X8011519Y-12831073D01*
X8001798Y-12841798D01*
X7991073Y-12851519D01*
X7979447Y-12860142D01*
X7967031Y-12867583D01*
X7953946Y-12873772D01*
X7940317Y-12878649D01*
X7926276Y-12882166D01*
X7911958Y-12884290D01*
X7897500Y-12885000D01*
X7552500Y-12885000D01*
X7538042Y-12884290D01*
X7523724Y-12882166D01*
X7509683Y-12878649D01*
X7496054Y-12873772D01*
X7482969Y-12867583D01*
X7470553Y-12860142D01*
X7458927Y-12851519D01*
X7448202Y-12841798D01*
X7438481Y-12831073D01*
X7429858Y-12819447D01*
X7422417Y-12807031D01*
X7416228Y-12793946D01*
X7411351Y-12780317D01*
X7407834Y-12766276D01*
X7405710Y-12751958D01*
X7405000Y-12737500D01*
X7405000Y-12442500D01*
X7405710Y-12428042D01*
X7407834Y-12413724D01*
X7411351Y-12399683D01*
X7416228Y-12386054D01*
X7422417Y-12372969D01*
X7429858Y-12360553D01*
X7438481Y-12348927D01*
X7448202Y-12338202D01*
X7458927Y-12328481D01*
X7470553Y-12319858D01*
X7482969Y-12312417D01*
X7496054Y-12306228D01*
X7509683Y-12301351D01*
X7523724Y-12297834D01*
X7538042Y-12295710D01*
X7552500Y-12295000D01*
X7897500Y-12295000D01*
X7911958Y-12295710D01*
X7911958Y-12295710D01*
G37*
D13*
G04 #@! TD*
G04 #@! TO.P,C11,2*
G04 #@! TO.N,GND*
X7725000Y-12590000D03*
D12*
G04 #@! TO.N,/VBATH*
G04 #@! TO.C,C11*
G36*
X7911958Y-11325710D02*
X7926276Y-11327834D01*
X7940317Y-11331351D01*
X7953946Y-11336228D01*
X7967031Y-11342417D01*
X7979447Y-11349858D01*
X7991073Y-11358481D01*
X8001798Y-11368202D01*
X8011519Y-11378927D01*
X8020142Y-11390553D01*
X8027583Y-11402969D01*
X8033772Y-11416054D01*
X8038649Y-11429683D01*
X8042166Y-11443724D01*
X8044290Y-11458042D01*
X8045000Y-11472500D01*
X8045000Y-11767500D01*
X8044290Y-11781958D01*
X8042166Y-11796276D01*
X8038649Y-11810317D01*
X8033772Y-11823946D01*
X8027583Y-11837031D01*
X8020142Y-11849447D01*
X8011519Y-11861073D01*
X8001798Y-11871798D01*
X7991073Y-11881519D01*
X7979447Y-11890142D01*
X7967031Y-11897583D01*
X7953946Y-11903772D01*
X7940317Y-11908649D01*
X7926276Y-11912166D01*
X7911958Y-11914290D01*
X7897500Y-11915000D01*
X7552500Y-11915000D01*
X7538042Y-11914290D01*
X7523724Y-11912166D01*
X7509683Y-11908649D01*
X7496054Y-11903772D01*
X7482969Y-11897583D01*
X7470553Y-11890142D01*
X7458927Y-11881519D01*
X7448202Y-11871798D01*
X7438481Y-11861073D01*
X7429858Y-11849447D01*
X7422417Y-11837031D01*
X7416228Y-11823946D01*
X7411351Y-11810317D01*
X7407834Y-11796276D01*
X7405710Y-11781958D01*
X7405000Y-11767500D01*
X7405000Y-11472500D01*
X7405710Y-11458042D01*
X7407834Y-11443724D01*
X7411351Y-11429683D01*
X7416228Y-11416054D01*
X7422417Y-11402969D01*
X7429858Y-11390553D01*
X7438481Y-11378927D01*
X7448202Y-11368202D01*
X7458927Y-11358481D01*
X7470553Y-11349858D01*
X7482969Y-11342417D01*
X7496054Y-11336228D01*
X7509683Y-11331351D01*
X7523724Y-11327834D01*
X7538042Y-11325710D01*
X7552500Y-11325000D01*
X7897500Y-11325000D01*
X7911958Y-11325710D01*
X7911958Y-11325710D01*
G37*
D13*
G04 #@! TD*
G04 #@! TO.P,C11,1*
G04 #@! TO.N,/VBATH*
X7725000Y-11620000D03*
D12*
G04 #@! TO.N,/CSI_CLK_FP_N*
G04 #@! TO.C,R23*
G36*
X18151958Y-3910710D02*
X18166276Y-3912834D01*
X18180317Y-3916351D01*
X18193946Y-3921228D01*
X18207031Y-3927417D01*
X18219447Y-3934858D01*
X18231073Y-3943481D01*
X18241798Y-3953202D01*
X18251519Y-3963927D01*
X18260142Y-3975553D01*
X18267583Y-3987969D01*
X18273772Y-4001054D01*
X18278649Y-4014683D01*
X18282166Y-4028724D01*
X18284290Y-4043042D01*
X18285000Y-4057500D01*
X18285000Y-4402500D01*
X18284290Y-4416958D01*
X18282166Y-4431276D01*
X18278649Y-4445317D01*
X18273772Y-4458946D01*
X18267583Y-4472031D01*
X18260142Y-4484447D01*
X18251519Y-4496073D01*
X18241798Y-4506798D01*
X18231073Y-4516519D01*
X18219447Y-4525142D01*
X18207031Y-4532583D01*
X18193946Y-4538772D01*
X18180317Y-4543649D01*
X18166276Y-4547166D01*
X18151958Y-4549290D01*
X18137500Y-4550000D01*
X17842500Y-4550000D01*
X17828042Y-4549290D01*
X17813724Y-4547166D01*
X17799683Y-4543649D01*
X17786054Y-4538772D01*
X17772969Y-4532583D01*
X17760553Y-4525142D01*
X17748927Y-4516519D01*
X17738202Y-4506798D01*
X17728481Y-4496073D01*
X17719858Y-4484447D01*
X17712417Y-4472031D01*
X17706228Y-4458946D01*
X17701351Y-4445317D01*
X17697834Y-4431276D01*
X17695710Y-4416958D01*
X17695000Y-4402500D01*
X17695000Y-4057500D01*
X17695710Y-4043042D01*
X17697834Y-4028724D01*
X17701351Y-4014683D01*
X17706228Y-4001054D01*
X17712417Y-3987969D01*
X17719858Y-3975553D01*
X17728481Y-3963927D01*
X17738202Y-3953202D01*
X17748927Y-3943481D01*
X17760553Y-3934858D01*
X17772969Y-3927417D01*
X17786054Y-3921228D01*
X17799683Y-3916351D01*
X17813724Y-3912834D01*
X17828042Y-3910710D01*
X17842500Y-3910000D01*
X18137500Y-3910000D01*
X18151958Y-3910710D01*
X18151958Y-3910710D01*
G37*
D13*
G04 #@! TD*
G04 #@! TO.P,R23,2*
G04 #@! TO.N,/CSI_CLK_FP_N*
X17990000Y-4230000D03*
D12*
G04 #@! TO.N,/CSI_CLK_FP_P*
G04 #@! TO.C,R23*
G36*
X17181958Y-3910710D02*
X17196276Y-3912834D01*
X17210317Y-3916351D01*
X17223946Y-3921228D01*
X17237031Y-3927417D01*
X17249447Y-3934858D01*
X17261073Y-3943481D01*
X17271798Y-3953202D01*
X17281519Y-3963927D01*
X17290142Y-3975553D01*
X17297583Y-3987969D01*
X17303772Y-4001054D01*
X17308649Y-4014683D01*
X17312166Y-4028724D01*
X17314290Y-4043042D01*
X17315000Y-4057500D01*
X17315000Y-4402500D01*
X17314290Y-4416958D01*
X17312166Y-4431276D01*
X17308649Y-4445317D01*
X17303772Y-4458946D01*
X17297583Y-4472031D01*
X17290142Y-4484447D01*
X17281519Y-4496073D01*
X17271798Y-4506798D01*
X17261073Y-4516519D01*
X17249447Y-4525142D01*
X17237031Y-4532583D01*
X17223946Y-4538772D01*
X17210317Y-4543649D01*
X17196276Y-4547166D01*
X17181958Y-4549290D01*
X17167500Y-4550000D01*
X16872500Y-4550000D01*
X16858042Y-4549290D01*
X16843724Y-4547166D01*
X16829683Y-4543649D01*
X16816054Y-4538772D01*
X16802969Y-4532583D01*
X16790553Y-4525142D01*
X16778927Y-4516519D01*
X16768202Y-4506798D01*
X16758481Y-4496073D01*
X16749858Y-4484447D01*
X16742417Y-4472031D01*
X16736228Y-4458946D01*
X16731351Y-4445317D01*
X16727834Y-4431276D01*
X16725710Y-4416958D01*
X16725000Y-4402500D01*
X16725000Y-4057500D01*
X16725710Y-4043042D01*
X16727834Y-4028724D01*
X16731351Y-4014683D01*
X16736228Y-4001054D01*
X16742417Y-3987969D01*
X16749858Y-3975553D01*
X16758481Y-3963927D01*
X16768202Y-3953202D01*
X16778927Y-3943481D01*
X16790553Y-3934858D01*
X16802969Y-3927417D01*
X16816054Y-3921228D01*
X16829683Y-3916351D01*
X16843724Y-3912834D01*
X16858042Y-3910710D01*
X16872500Y-3910000D01*
X17167500Y-3910000D01*
X17181958Y-3910710D01*
X17181958Y-3910710D01*
G37*
D13*
G04 #@! TD*
G04 #@! TO.P,R23,1*
G04 #@! TO.N,/CSI_CLK_FP_P*
X17020000Y-4230000D03*
D12*
G04 #@! TO.N,/E_CTRL_SS*
G04 #@! TO.C,R22*
G36*
X22396958Y-10930710D02*
X22411276Y-10932834D01*
X22425317Y-10936351D01*
X22438946Y-10941228D01*
X22452031Y-10947417D01*
X22464447Y-10954858D01*
X22476073Y-10963481D01*
X22486798Y-10973202D01*
X22496519Y-10983927D01*
X22505142Y-10995553D01*
X22512583Y-11007969D01*
X22518772Y-11021054D01*
X22523649Y-11034683D01*
X22527166Y-11048724D01*
X22529290Y-11063042D01*
X22530000Y-11077500D01*
X22530000Y-11422500D01*
X22529290Y-11436958D01*
X22527166Y-11451276D01*
X22523649Y-11465317D01*
X22518772Y-11478946D01*
X22512583Y-11492031D01*
X22505142Y-11504447D01*
X22496519Y-11516073D01*
X22486798Y-11526798D01*
X22476073Y-11536519D01*
X22464447Y-11545142D01*
X22452031Y-11552583D01*
X22438946Y-11558772D01*
X22425317Y-11563649D01*
X22411276Y-11567166D01*
X22396958Y-11569290D01*
X22382500Y-11570000D01*
X22087500Y-11570000D01*
X22073042Y-11569290D01*
X22058724Y-11567166D01*
X22044683Y-11563649D01*
X22031054Y-11558772D01*
X22017969Y-11552583D01*
X22005553Y-11545142D01*
X21993927Y-11536519D01*
X21983202Y-11526798D01*
X21973481Y-11516073D01*
X21964858Y-11504447D01*
X21957417Y-11492031D01*
X21951228Y-11478946D01*
X21946351Y-11465317D01*
X21942834Y-11451276D01*
X21940710Y-11436958D01*
X21940000Y-11422500D01*
X21940000Y-11077500D01*
X21940710Y-11063042D01*
X21942834Y-11048724D01*
X21946351Y-11034683D01*
X21951228Y-11021054D01*
X21957417Y-11007969D01*
X21964858Y-10995553D01*
X21973481Y-10983927D01*
X21983202Y-10973202D01*
X21993927Y-10963481D01*
X22005553Y-10954858D01*
X22017969Y-10947417D01*
X22031054Y-10941228D01*
X22044683Y-10936351D01*
X22058724Y-10932834D01*
X22073042Y-10930710D01*
X22087500Y-10930000D01*
X22382500Y-10930000D01*
X22396958Y-10930710D01*
X22396958Y-10930710D01*
G37*
D13*
G04 #@! TD*
G04 #@! TO.P,R22,2*
G04 #@! TO.N,/E_CTRL_SS*
X22235000Y-11250000D03*
D12*
G04 #@! TO.N,/CTRL_SS*
G04 #@! TO.C,R22*
G36*
X21426958Y-10930710D02*
X21441276Y-10932834D01*
X21455317Y-10936351D01*
X21468946Y-10941228D01*
X21482031Y-10947417D01*
X21494447Y-10954858D01*
X21506073Y-10963481D01*
X21516798Y-10973202D01*
X21526519Y-10983927D01*
X21535142Y-10995553D01*
X21542583Y-11007969D01*
X21548772Y-11021054D01*
X21553649Y-11034683D01*
X21557166Y-11048724D01*
X21559290Y-11063042D01*
X21560000Y-11077500D01*
X21560000Y-11422500D01*
X21559290Y-11436958D01*
X21557166Y-11451276D01*
X21553649Y-11465317D01*
X21548772Y-11478946D01*
X21542583Y-11492031D01*
X21535142Y-11504447D01*
X21526519Y-11516073D01*
X21516798Y-11526798D01*
X21506073Y-11536519D01*
X21494447Y-11545142D01*
X21482031Y-11552583D01*
X21468946Y-11558772D01*
X21455317Y-11563649D01*
X21441276Y-11567166D01*
X21426958Y-11569290D01*
X21412500Y-11570000D01*
X21117500Y-11570000D01*
X21103042Y-11569290D01*
X21088724Y-11567166D01*
X21074683Y-11563649D01*
X21061054Y-11558772D01*
X21047969Y-11552583D01*
X21035553Y-11545142D01*
X21023927Y-11536519D01*
X21013202Y-11526798D01*
X21003481Y-11516073D01*
X20994858Y-11504447D01*
X20987417Y-11492031D01*
X20981228Y-11478946D01*
X20976351Y-11465317D01*
X20972834Y-11451276D01*
X20970710Y-11436958D01*
X20970000Y-11422500D01*
X20970000Y-11077500D01*
X20970710Y-11063042D01*
X20972834Y-11048724D01*
X20976351Y-11034683D01*
X20981228Y-11021054D01*
X20987417Y-11007969D01*
X20994858Y-10995553D01*
X21003481Y-10983927D01*
X21013202Y-10973202D01*
X21023927Y-10963481D01*
X21035553Y-10954858D01*
X21047969Y-10947417D01*
X21061054Y-10941228D01*
X21074683Y-10936351D01*
X21088724Y-10932834D01*
X21103042Y-10930710D01*
X21117500Y-10930000D01*
X21412500Y-10930000D01*
X21426958Y-10930710D01*
X21426958Y-10930710D01*
G37*
D13*
G04 #@! TD*
G04 #@! TO.P,R22,1*
G04 #@! TO.N,/CTRL_SS*
X21265000Y-11250000D03*
D12*
G04 #@! TO.N,/E_CTRL_SCK*
G04 #@! TO.C,R21*
G36*
X22396958Y-9930710D02*
X22411276Y-9932834D01*
X22425317Y-9936351D01*
X22438946Y-9941228D01*
X22452031Y-9947417D01*
X22464447Y-9954858D01*
X22476073Y-9963481D01*
X22486798Y-9973202D01*
X22496519Y-9983927D01*
X22505142Y-9995553D01*
X22512583Y-10007969D01*
X22518772Y-10021054D01*
X22523649Y-10034683D01*
X22527166Y-10048724D01*
X22529290Y-10063042D01*
X22530000Y-10077500D01*
X22530000Y-10422500D01*
X22529290Y-10436958D01*
X22527166Y-10451276D01*
X22523649Y-10465317D01*
X22518772Y-10478946D01*
X22512583Y-10492031D01*
X22505142Y-10504447D01*
X22496519Y-10516073D01*
X22486798Y-10526798D01*
X22476073Y-10536519D01*
X22464447Y-10545142D01*
X22452031Y-10552583D01*
X22438946Y-10558772D01*
X22425317Y-10563649D01*
X22411276Y-10567166D01*
X22396958Y-10569290D01*
X22382500Y-10570000D01*
X22087500Y-10570000D01*
X22073042Y-10569290D01*
X22058724Y-10567166D01*
X22044683Y-10563649D01*
X22031054Y-10558772D01*
X22017969Y-10552583D01*
X22005553Y-10545142D01*
X21993927Y-10536519D01*
X21983202Y-10526798D01*
X21973481Y-10516073D01*
X21964858Y-10504447D01*
X21957417Y-10492031D01*
X21951228Y-10478946D01*
X21946351Y-10465317D01*
X21942834Y-10451276D01*
X21940710Y-10436958D01*
X21940000Y-10422500D01*
X21940000Y-10077500D01*
X21940710Y-10063042D01*
X21942834Y-10048724D01*
X21946351Y-10034683D01*
X21951228Y-10021054D01*
X21957417Y-10007969D01*
X21964858Y-9995553D01*
X21973481Y-9983927D01*
X21983202Y-9973202D01*
X21993927Y-9963481D01*
X22005553Y-9954858D01*
X22017969Y-9947417D01*
X22031054Y-9941228D01*
X22044683Y-9936351D01*
X22058724Y-9932834D01*
X22073042Y-9930710D01*
X22087500Y-9930000D01*
X22382500Y-9930000D01*
X22396958Y-9930710D01*
X22396958Y-9930710D01*
G37*
D13*
G04 #@! TD*
G04 #@! TO.P,R21,2*
G04 #@! TO.N,/E_CTRL_SCK*
X22235000Y-10250000D03*
D12*
G04 #@! TO.N,/CTRL_SCK*
G04 #@! TO.C,R21*
G36*
X21426958Y-9930710D02*
X21441276Y-9932834D01*
X21455317Y-9936351D01*
X21468946Y-9941228D01*
X21482031Y-9947417D01*
X21494447Y-9954858D01*
X21506073Y-9963481D01*
X21516798Y-9973202D01*
X21526519Y-9983927D01*
X21535142Y-9995553D01*
X21542583Y-10007969D01*
X21548772Y-10021054D01*
X21553649Y-10034683D01*
X21557166Y-10048724D01*
X21559290Y-10063042D01*
X21560000Y-10077500D01*
X21560000Y-10422500D01*
X21559290Y-10436958D01*
X21557166Y-10451276D01*
X21553649Y-10465317D01*
X21548772Y-10478946D01*
X21542583Y-10492031D01*
X21535142Y-10504447D01*
X21526519Y-10516073D01*
X21516798Y-10526798D01*
X21506073Y-10536519D01*
X21494447Y-10545142D01*
X21482031Y-10552583D01*
X21468946Y-10558772D01*
X21455317Y-10563649D01*
X21441276Y-10567166D01*
X21426958Y-10569290D01*
X21412500Y-10570000D01*
X21117500Y-10570000D01*
X21103042Y-10569290D01*
X21088724Y-10567166D01*
X21074683Y-10563649D01*
X21061054Y-10558772D01*
X21047969Y-10552583D01*
X21035553Y-10545142D01*
X21023927Y-10536519D01*
X21013202Y-10526798D01*
X21003481Y-10516073D01*
X20994858Y-10504447D01*
X20987417Y-10492031D01*
X20981228Y-10478946D01*
X20976351Y-10465317D01*
X20972834Y-10451276D01*
X20970710Y-10436958D01*
X20970000Y-10422500D01*
X20970000Y-10077500D01*
X20970710Y-10063042D01*
X20972834Y-10048724D01*
X20976351Y-10034683D01*
X20981228Y-10021054D01*
X20987417Y-10007969D01*
X20994858Y-9995553D01*
X21003481Y-9983927D01*
X21013202Y-9973202D01*
X21023927Y-9963481D01*
X21035553Y-9954858D01*
X21047969Y-9947417D01*
X21061054Y-9941228D01*
X21074683Y-9936351D01*
X21088724Y-9932834D01*
X21103042Y-9930710D01*
X21117500Y-9930000D01*
X21412500Y-9930000D01*
X21426958Y-9930710D01*
X21426958Y-9930710D01*
G37*
D13*
G04 #@! TD*
G04 #@! TO.P,R21,1*
G04 #@! TO.N,/CTRL_SCK*
X21265000Y-10250000D03*
D12*
G04 #@! TO.N,/E_CTRL_SO*
G04 #@! TO.C,R20*
G36*
X22396958Y-8930710D02*
X22411276Y-8932834D01*
X22425317Y-8936351D01*
X22438946Y-8941228D01*
X22452031Y-8947417D01*
X22464447Y-8954858D01*
X22476073Y-8963481D01*
X22486798Y-8973202D01*
X22496519Y-8983927D01*
X22505142Y-8995553D01*
X22512583Y-9007969D01*
X22518772Y-9021054D01*
X22523649Y-9034683D01*
X22527166Y-9048724D01*
X22529290Y-9063042D01*
X22530000Y-9077500D01*
X22530000Y-9422500D01*
X22529290Y-9436958D01*
X22527166Y-9451276D01*
X22523649Y-9465317D01*
X22518772Y-9478946D01*
X22512583Y-9492031D01*
X22505142Y-9504447D01*
X22496519Y-9516073D01*
X22486798Y-9526798D01*
X22476073Y-9536519D01*
X22464447Y-9545142D01*
X22452031Y-9552583D01*
X22438946Y-9558772D01*
X22425317Y-9563649D01*
X22411276Y-9567166D01*
X22396958Y-9569290D01*
X22382500Y-9570000D01*
X22087500Y-9570000D01*
X22073042Y-9569290D01*
X22058724Y-9567166D01*
X22044683Y-9563649D01*
X22031054Y-9558772D01*
X22017969Y-9552583D01*
X22005553Y-9545142D01*
X21993927Y-9536519D01*
X21983202Y-9526798D01*
X21973481Y-9516073D01*
X21964858Y-9504447D01*
X21957417Y-9492031D01*
X21951228Y-9478946D01*
X21946351Y-9465317D01*
X21942834Y-9451276D01*
X21940710Y-9436958D01*
X21940000Y-9422500D01*
X21940000Y-9077500D01*
X21940710Y-9063042D01*
X21942834Y-9048724D01*
X21946351Y-9034683D01*
X21951228Y-9021054D01*
X21957417Y-9007969D01*
X21964858Y-8995553D01*
X21973481Y-8983927D01*
X21983202Y-8973202D01*
X21993927Y-8963481D01*
X22005553Y-8954858D01*
X22017969Y-8947417D01*
X22031054Y-8941228D01*
X22044683Y-8936351D01*
X22058724Y-8932834D01*
X22073042Y-8930710D01*
X22087500Y-8930000D01*
X22382500Y-8930000D01*
X22396958Y-8930710D01*
X22396958Y-8930710D01*
G37*
D13*
G04 #@! TD*
G04 #@! TO.P,R20,2*
G04 #@! TO.N,/E_CTRL_SO*
X22235000Y-9250000D03*
D12*
G04 #@! TO.N,/CTRL_SO*
G04 #@! TO.C,R20*
G36*
X21426958Y-8930710D02*
X21441276Y-8932834D01*
X21455317Y-8936351D01*
X21468946Y-8941228D01*
X21482031Y-8947417D01*
X21494447Y-8954858D01*
X21506073Y-8963481D01*
X21516798Y-8973202D01*
X21526519Y-8983927D01*
X21535142Y-8995553D01*
X21542583Y-9007969D01*
X21548772Y-9021054D01*
X21553649Y-9034683D01*
X21557166Y-9048724D01*
X21559290Y-9063042D01*
X21560000Y-9077500D01*
X21560000Y-9422500D01*
X21559290Y-9436958D01*
X21557166Y-9451276D01*
X21553649Y-9465317D01*
X21548772Y-9478946D01*
X21542583Y-9492031D01*
X21535142Y-9504447D01*
X21526519Y-9516073D01*
X21516798Y-9526798D01*
X21506073Y-9536519D01*
X21494447Y-9545142D01*
X21482031Y-9552583D01*
X21468946Y-9558772D01*
X21455317Y-9563649D01*
X21441276Y-9567166D01*
X21426958Y-9569290D01*
X21412500Y-9570000D01*
X21117500Y-9570000D01*
X21103042Y-9569290D01*
X21088724Y-9567166D01*
X21074683Y-9563649D01*
X21061054Y-9558772D01*
X21047969Y-9552583D01*
X21035553Y-9545142D01*
X21023927Y-9536519D01*
X21013202Y-9526798D01*
X21003481Y-9516073D01*
X20994858Y-9504447D01*
X20987417Y-9492031D01*
X20981228Y-9478946D01*
X20976351Y-9465317D01*
X20972834Y-9451276D01*
X20970710Y-9436958D01*
X20970000Y-9422500D01*
X20970000Y-9077500D01*
X20970710Y-9063042D01*
X20972834Y-9048724D01*
X20976351Y-9034683D01*
X20981228Y-9021054D01*
X20987417Y-9007969D01*
X20994858Y-8995553D01*
X21003481Y-8983927D01*
X21013202Y-8973202D01*
X21023927Y-8963481D01*
X21035553Y-8954858D01*
X21047969Y-8947417D01*
X21061054Y-8941228D01*
X21074683Y-8936351D01*
X21088724Y-8932834D01*
X21103042Y-8930710D01*
X21117500Y-8930000D01*
X21412500Y-8930000D01*
X21426958Y-8930710D01*
X21426958Y-8930710D01*
G37*
D13*
G04 #@! TD*
G04 #@! TO.P,R20,1*
G04 #@! TO.N,/CTRL_SO*
X21265000Y-9250000D03*
D12*
G04 #@! TO.N,/E_CTRL_SI*
G04 #@! TO.C,R19*
G36*
X22396958Y-7930710D02*
X22411276Y-7932834D01*
X22425317Y-7936351D01*
X22438946Y-7941228D01*
X22452031Y-7947417D01*
X22464447Y-7954858D01*
X22476073Y-7963481D01*
X22486798Y-7973202D01*
X22496519Y-7983927D01*
X22505142Y-7995553D01*
X22512583Y-8007969D01*
X22518772Y-8021054D01*
X22523649Y-8034683D01*
X22527166Y-8048724D01*
X22529290Y-8063042D01*
X22530000Y-8077500D01*
X22530000Y-8422500D01*
X22529290Y-8436958D01*
X22527166Y-8451276D01*
X22523649Y-8465317D01*
X22518772Y-8478946D01*
X22512583Y-8492031D01*
X22505142Y-8504447D01*
X22496519Y-8516073D01*
X22486798Y-8526798D01*
X22476073Y-8536519D01*
X22464447Y-8545142D01*
X22452031Y-8552583D01*
X22438946Y-8558772D01*
X22425317Y-8563649D01*
X22411276Y-8567166D01*
X22396958Y-8569290D01*
X22382500Y-8570000D01*
X22087500Y-8570000D01*
X22073042Y-8569290D01*
X22058724Y-8567166D01*
X22044683Y-8563649D01*
X22031054Y-8558772D01*
X22017969Y-8552583D01*
X22005553Y-8545142D01*
X21993927Y-8536519D01*
X21983202Y-8526798D01*
X21973481Y-8516073D01*
X21964858Y-8504447D01*
X21957417Y-8492031D01*
X21951228Y-8478946D01*
X21946351Y-8465317D01*
X21942834Y-8451276D01*
X21940710Y-8436958D01*
X21940000Y-8422500D01*
X21940000Y-8077500D01*
X21940710Y-8063042D01*
X21942834Y-8048724D01*
X21946351Y-8034683D01*
X21951228Y-8021054D01*
X21957417Y-8007969D01*
X21964858Y-7995553D01*
X21973481Y-7983927D01*
X21983202Y-7973202D01*
X21993927Y-7963481D01*
X22005553Y-7954858D01*
X22017969Y-7947417D01*
X22031054Y-7941228D01*
X22044683Y-7936351D01*
X22058724Y-7932834D01*
X22073042Y-7930710D01*
X22087500Y-7930000D01*
X22382500Y-7930000D01*
X22396958Y-7930710D01*
X22396958Y-7930710D01*
G37*
D13*
G04 #@! TD*
G04 #@! TO.P,R19,2*
G04 #@! TO.N,/E_CTRL_SI*
X22235000Y-8250000D03*
D12*
G04 #@! TO.N,/CTRL_SI*
G04 #@! TO.C,R19*
G36*
X21426958Y-7930710D02*
X21441276Y-7932834D01*
X21455317Y-7936351D01*
X21468946Y-7941228D01*
X21482031Y-7947417D01*
X21494447Y-7954858D01*
X21506073Y-7963481D01*
X21516798Y-7973202D01*
X21526519Y-7983927D01*
X21535142Y-7995553D01*
X21542583Y-8007969D01*
X21548772Y-8021054D01*
X21553649Y-8034683D01*
X21557166Y-8048724D01*
X21559290Y-8063042D01*
X21560000Y-8077500D01*
X21560000Y-8422500D01*
X21559290Y-8436958D01*
X21557166Y-8451276D01*
X21553649Y-8465317D01*
X21548772Y-8478946D01*
X21542583Y-8492031D01*
X21535142Y-8504447D01*
X21526519Y-8516073D01*
X21516798Y-8526798D01*
X21506073Y-8536519D01*
X21494447Y-8545142D01*
X21482031Y-8552583D01*
X21468946Y-8558772D01*
X21455317Y-8563649D01*
X21441276Y-8567166D01*
X21426958Y-8569290D01*
X21412500Y-8570000D01*
X21117500Y-8570000D01*
X21103042Y-8569290D01*
X21088724Y-8567166D01*
X21074683Y-8563649D01*
X21061054Y-8558772D01*
X21047969Y-8552583D01*
X21035553Y-8545142D01*
X21023927Y-8536519D01*
X21013202Y-8526798D01*
X21003481Y-8516073D01*
X20994858Y-8504447D01*
X20987417Y-8492031D01*
X20981228Y-8478946D01*
X20976351Y-8465317D01*
X20972834Y-8451276D01*
X20970710Y-8436958D01*
X20970000Y-8422500D01*
X20970000Y-8077500D01*
X20970710Y-8063042D01*
X20972834Y-8048724D01*
X20976351Y-8034683D01*
X20981228Y-8021054D01*
X20987417Y-8007969D01*
X20994858Y-7995553D01*
X21003481Y-7983927D01*
X21013202Y-7973202D01*
X21023927Y-7963481D01*
X21035553Y-7954858D01*
X21047969Y-7947417D01*
X21061054Y-7941228D01*
X21074683Y-7936351D01*
X21088724Y-7932834D01*
X21103042Y-7930710D01*
X21117500Y-7930000D01*
X21412500Y-7930000D01*
X21426958Y-7930710D01*
X21426958Y-7930710D01*
G37*
D13*
G04 #@! TD*
G04 #@! TO.P,R19,1*
G04 #@! TO.N,/CTRL_SI*
X21265000Y-8250000D03*
D12*
G04 #@! TO.N,/E_PROC_SS*
G04 #@! TO.C,R18*
G36*
X22396958Y-6930710D02*
X22411276Y-6932834D01*
X22425317Y-6936351D01*
X22438946Y-6941228D01*
X22452031Y-6947417D01*
X22464447Y-6954858D01*
X22476073Y-6963481D01*
X22486798Y-6973202D01*
X22496519Y-6983927D01*
X22505142Y-6995553D01*
X22512583Y-7007969D01*
X22518772Y-7021054D01*
X22523649Y-7034683D01*
X22527166Y-7048724D01*
X22529290Y-7063042D01*
X22530000Y-7077500D01*
X22530000Y-7422500D01*
X22529290Y-7436958D01*
X22527166Y-7451276D01*
X22523649Y-7465317D01*
X22518772Y-7478946D01*
X22512583Y-7492031D01*
X22505142Y-7504447D01*
X22496519Y-7516073D01*
X22486798Y-7526798D01*
X22476073Y-7536519D01*
X22464447Y-7545142D01*
X22452031Y-7552583D01*
X22438946Y-7558772D01*
X22425317Y-7563649D01*
X22411276Y-7567166D01*
X22396958Y-7569290D01*
X22382500Y-7570000D01*
X22087500Y-7570000D01*
X22073042Y-7569290D01*
X22058724Y-7567166D01*
X22044683Y-7563649D01*
X22031054Y-7558772D01*
X22017969Y-7552583D01*
X22005553Y-7545142D01*
X21993927Y-7536519D01*
X21983202Y-7526798D01*
X21973481Y-7516073D01*
X21964858Y-7504447D01*
X21957417Y-7492031D01*
X21951228Y-7478946D01*
X21946351Y-7465317D01*
X21942834Y-7451276D01*
X21940710Y-7436958D01*
X21940000Y-7422500D01*
X21940000Y-7077500D01*
X21940710Y-7063042D01*
X21942834Y-7048724D01*
X21946351Y-7034683D01*
X21951228Y-7021054D01*
X21957417Y-7007969D01*
X21964858Y-6995553D01*
X21973481Y-6983927D01*
X21983202Y-6973202D01*
X21993927Y-6963481D01*
X22005553Y-6954858D01*
X22017969Y-6947417D01*
X22031054Y-6941228D01*
X22044683Y-6936351D01*
X22058724Y-6932834D01*
X22073042Y-6930710D01*
X22087500Y-6930000D01*
X22382500Y-6930000D01*
X22396958Y-6930710D01*
X22396958Y-6930710D01*
G37*
D13*
G04 #@! TD*
G04 #@! TO.P,R18,2*
G04 #@! TO.N,/E_PROC_SS*
X22235000Y-7250000D03*
D12*
G04 #@! TO.N,/PROC_SS*
G04 #@! TO.C,R18*
G36*
X21426958Y-6930710D02*
X21441276Y-6932834D01*
X21455317Y-6936351D01*
X21468946Y-6941228D01*
X21482031Y-6947417D01*
X21494447Y-6954858D01*
X21506073Y-6963481D01*
X21516798Y-6973202D01*
X21526519Y-6983927D01*
X21535142Y-6995553D01*
X21542583Y-7007969D01*
X21548772Y-7021054D01*
X21553649Y-7034683D01*
X21557166Y-7048724D01*
X21559290Y-7063042D01*
X21560000Y-7077500D01*
X21560000Y-7422500D01*
X21559290Y-7436958D01*
X21557166Y-7451276D01*
X21553649Y-7465317D01*
X21548772Y-7478946D01*
X21542583Y-7492031D01*
X21535142Y-7504447D01*
X21526519Y-7516073D01*
X21516798Y-7526798D01*
X21506073Y-7536519D01*
X21494447Y-7545142D01*
X21482031Y-7552583D01*
X21468946Y-7558772D01*
X21455317Y-7563649D01*
X21441276Y-7567166D01*
X21426958Y-7569290D01*
X21412500Y-7570000D01*
X21117500Y-7570000D01*
X21103042Y-7569290D01*
X21088724Y-7567166D01*
X21074683Y-7563649D01*
X21061054Y-7558772D01*
X21047969Y-7552583D01*
X21035553Y-7545142D01*
X21023927Y-7536519D01*
X21013202Y-7526798D01*
X21003481Y-7516073D01*
X20994858Y-7504447D01*
X20987417Y-7492031D01*
X20981228Y-7478946D01*
X20976351Y-7465317D01*
X20972834Y-7451276D01*
X20970710Y-7436958D01*
X20970000Y-7422500D01*
X20970000Y-7077500D01*
X20970710Y-7063042D01*
X20972834Y-7048724D01*
X20976351Y-7034683D01*
X20981228Y-7021054D01*
X20987417Y-7007969D01*
X20994858Y-6995553D01*
X21003481Y-6983927D01*
X21013202Y-6973202D01*
X21023927Y-6963481D01*
X21035553Y-6954858D01*
X21047969Y-6947417D01*
X21061054Y-6941228D01*
X21074683Y-6936351D01*
X21088724Y-6932834D01*
X21103042Y-6930710D01*
X21117500Y-6930000D01*
X21412500Y-6930000D01*
X21426958Y-6930710D01*
X21426958Y-6930710D01*
G37*
D13*
G04 #@! TD*
G04 #@! TO.P,R18,1*
G04 #@! TO.N,/PROC_SS*
X21265000Y-7250000D03*
D12*
G04 #@! TO.N,/E_PROC_SCK*
G04 #@! TO.C,R17*
G36*
X22396958Y-5930710D02*
X22411276Y-5932834D01*
X22425317Y-5936351D01*
X22438946Y-5941228D01*
X22452031Y-5947417D01*
X22464447Y-5954858D01*
X22476073Y-5963481D01*
X22486798Y-5973202D01*
X22496519Y-5983927D01*
X22505142Y-5995553D01*
X22512583Y-6007969D01*
X22518772Y-6021054D01*
X22523649Y-6034683D01*
X22527166Y-6048724D01*
X22529290Y-6063042D01*
X22530000Y-6077500D01*
X22530000Y-6422500D01*
X22529290Y-6436958D01*
X22527166Y-6451276D01*
X22523649Y-6465317D01*
X22518772Y-6478946D01*
X22512583Y-6492031D01*
X22505142Y-6504447D01*
X22496519Y-6516073D01*
X22486798Y-6526798D01*
X22476073Y-6536519D01*
X22464447Y-6545142D01*
X22452031Y-6552583D01*
X22438946Y-6558772D01*
X22425317Y-6563649D01*
X22411276Y-6567166D01*
X22396958Y-6569290D01*
X22382500Y-6570000D01*
X22087500Y-6570000D01*
X22073042Y-6569290D01*
X22058724Y-6567166D01*
X22044683Y-6563649D01*
X22031054Y-6558772D01*
X22017969Y-6552583D01*
X22005553Y-6545142D01*
X21993927Y-6536519D01*
X21983202Y-6526798D01*
X21973481Y-6516073D01*
X21964858Y-6504447D01*
X21957417Y-6492031D01*
X21951228Y-6478946D01*
X21946351Y-6465317D01*
X21942834Y-6451276D01*
X21940710Y-6436958D01*
X21940000Y-6422500D01*
X21940000Y-6077500D01*
X21940710Y-6063042D01*
X21942834Y-6048724D01*
X21946351Y-6034683D01*
X21951228Y-6021054D01*
X21957417Y-6007969D01*
X21964858Y-5995553D01*
X21973481Y-5983927D01*
X21983202Y-5973202D01*
X21993927Y-5963481D01*
X22005553Y-5954858D01*
X22017969Y-5947417D01*
X22031054Y-5941228D01*
X22044683Y-5936351D01*
X22058724Y-5932834D01*
X22073042Y-5930710D01*
X22087500Y-5930000D01*
X22382500Y-5930000D01*
X22396958Y-5930710D01*
X22396958Y-5930710D01*
G37*
D13*
G04 #@! TD*
G04 #@! TO.P,R17,2*
G04 #@! TO.N,/E_PROC_SCK*
X22235000Y-6250000D03*
D12*
G04 #@! TO.N,/PROC_SCK*
G04 #@! TO.C,R17*
G36*
X21426958Y-5930710D02*
X21441276Y-5932834D01*
X21455317Y-5936351D01*
X21468946Y-5941228D01*
X21482031Y-5947417D01*
X21494447Y-5954858D01*
X21506073Y-5963481D01*
X21516798Y-5973202D01*
X21526519Y-5983927D01*
X21535142Y-5995553D01*
X21542583Y-6007969D01*
X21548772Y-6021054D01*
X21553649Y-6034683D01*
X21557166Y-6048724D01*
X21559290Y-6063042D01*
X21560000Y-6077500D01*
X21560000Y-6422500D01*
X21559290Y-6436958D01*
X21557166Y-6451276D01*
X21553649Y-6465317D01*
X21548772Y-6478946D01*
X21542583Y-6492031D01*
X21535142Y-6504447D01*
X21526519Y-6516073D01*
X21516798Y-6526798D01*
X21506073Y-6536519D01*
X21494447Y-6545142D01*
X21482031Y-6552583D01*
X21468946Y-6558772D01*
X21455317Y-6563649D01*
X21441276Y-6567166D01*
X21426958Y-6569290D01*
X21412500Y-6570000D01*
X21117500Y-6570000D01*
X21103042Y-6569290D01*
X21088724Y-6567166D01*
X21074683Y-6563649D01*
X21061054Y-6558772D01*
X21047969Y-6552583D01*
X21035553Y-6545142D01*
X21023927Y-6536519D01*
X21013202Y-6526798D01*
X21003481Y-6516073D01*
X20994858Y-6504447D01*
X20987417Y-6492031D01*
X20981228Y-6478946D01*
X20976351Y-6465317D01*
X20972834Y-6451276D01*
X20970710Y-6436958D01*
X20970000Y-6422500D01*
X20970000Y-6077500D01*
X20970710Y-6063042D01*
X20972834Y-6048724D01*
X20976351Y-6034683D01*
X20981228Y-6021054D01*
X20987417Y-6007969D01*
X20994858Y-5995553D01*
X21003481Y-5983927D01*
X21013202Y-5973202D01*
X21023927Y-5963481D01*
X21035553Y-5954858D01*
X21047969Y-5947417D01*
X21061054Y-5941228D01*
X21074683Y-5936351D01*
X21088724Y-5932834D01*
X21103042Y-5930710D01*
X21117500Y-5930000D01*
X21412500Y-5930000D01*
X21426958Y-5930710D01*
X21426958Y-5930710D01*
G37*
D13*
G04 #@! TD*
G04 #@! TO.P,R17,1*
G04 #@! TO.N,/PROC_SCK*
X21265000Y-6250000D03*
D12*
G04 #@! TO.N,/E_PROC_SO*
G04 #@! TO.C,R16*
G36*
X22396958Y-4930710D02*
X22411276Y-4932834D01*
X22425317Y-4936351D01*
X22438946Y-4941228D01*
X22452031Y-4947417D01*
X22464447Y-4954858D01*
X22476073Y-4963481D01*
X22486798Y-4973202D01*
X22496519Y-4983927D01*
X22505142Y-4995553D01*
X22512583Y-5007969D01*
X22518772Y-5021054D01*
X22523649Y-5034683D01*
X22527166Y-5048724D01*
X22529290Y-5063042D01*
X22530000Y-5077500D01*
X22530000Y-5422500D01*
X22529290Y-5436958D01*
X22527166Y-5451276D01*
X22523649Y-5465317D01*
X22518772Y-5478946D01*
X22512583Y-5492031D01*
X22505142Y-5504447D01*
X22496519Y-5516073D01*
X22486798Y-5526798D01*
X22476073Y-5536519D01*
X22464447Y-5545142D01*
X22452031Y-5552583D01*
X22438946Y-5558772D01*
X22425317Y-5563649D01*
X22411276Y-5567166D01*
X22396958Y-5569290D01*
X22382500Y-5570000D01*
X22087500Y-5570000D01*
X22073042Y-5569290D01*
X22058724Y-5567166D01*
X22044683Y-5563649D01*
X22031054Y-5558772D01*
X22017969Y-5552583D01*
X22005553Y-5545142D01*
X21993927Y-5536519D01*
X21983202Y-5526798D01*
X21973481Y-5516073D01*
X21964858Y-5504447D01*
X21957417Y-5492031D01*
X21951228Y-5478946D01*
X21946351Y-5465317D01*
X21942834Y-5451276D01*
X21940710Y-5436958D01*
X21940000Y-5422500D01*
X21940000Y-5077500D01*
X21940710Y-5063042D01*
X21942834Y-5048724D01*
X21946351Y-5034683D01*
X21951228Y-5021054D01*
X21957417Y-5007969D01*
X21964858Y-4995553D01*
X21973481Y-4983927D01*
X21983202Y-4973202D01*
X21993927Y-4963481D01*
X22005553Y-4954858D01*
X22017969Y-4947417D01*
X22031054Y-4941228D01*
X22044683Y-4936351D01*
X22058724Y-4932834D01*
X22073042Y-4930710D01*
X22087500Y-4930000D01*
X22382500Y-4930000D01*
X22396958Y-4930710D01*
X22396958Y-4930710D01*
G37*
D13*
G04 #@! TD*
G04 #@! TO.P,R16,2*
G04 #@! TO.N,/E_PROC_SO*
X22235000Y-5250000D03*
D12*
G04 #@! TO.N,/PROC_SO*
G04 #@! TO.C,R16*
G36*
X21426958Y-4930710D02*
X21441276Y-4932834D01*
X21455317Y-4936351D01*
X21468946Y-4941228D01*
X21482031Y-4947417D01*
X21494447Y-4954858D01*
X21506073Y-4963481D01*
X21516798Y-4973202D01*
X21526519Y-4983927D01*
X21535142Y-4995553D01*
X21542583Y-5007969D01*
X21548772Y-5021054D01*
X21553649Y-5034683D01*
X21557166Y-5048724D01*
X21559290Y-5063042D01*
X21560000Y-5077500D01*
X21560000Y-5422500D01*
X21559290Y-5436958D01*
X21557166Y-5451276D01*
X21553649Y-5465317D01*
X21548772Y-5478946D01*
X21542583Y-5492031D01*
X21535142Y-5504447D01*
X21526519Y-5516073D01*
X21516798Y-5526798D01*
X21506073Y-5536519D01*
X21494447Y-5545142D01*
X21482031Y-5552583D01*
X21468946Y-5558772D01*
X21455317Y-5563649D01*
X21441276Y-5567166D01*
X21426958Y-5569290D01*
X21412500Y-5570000D01*
X21117500Y-5570000D01*
X21103042Y-5569290D01*
X21088724Y-5567166D01*
X21074683Y-5563649D01*
X21061054Y-5558772D01*
X21047969Y-5552583D01*
X21035553Y-5545142D01*
X21023927Y-5536519D01*
X21013202Y-5526798D01*
X21003481Y-5516073D01*
X20994858Y-5504447D01*
X20987417Y-5492031D01*
X20981228Y-5478946D01*
X20976351Y-5465317D01*
X20972834Y-5451276D01*
X20970710Y-5436958D01*
X20970000Y-5422500D01*
X20970000Y-5077500D01*
X20970710Y-5063042D01*
X20972834Y-5048724D01*
X20976351Y-5034683D01*
X20981228Y-5021054D01*
X20987417Y-5007969D01*
X20994858Y-4995553D01*
X21003481Y-4983927D01*
X21013202Y-4973202D01*
X21023927Y-4963481D01*
X21035553Y-4954858D01*
X21047969Y-4947417D01*
X21061054Y-4941228D01*
X21074683Y-4936351D01*
X21088724Y-4932834D01*
X21103042Y-4930710D01*
X21117500Y-4930000D01*
X21412500Y-4930000D01*
X21426958Y-4930710D01*
X21426958Y-4930710D01*
G37*
D13*
G04 #@! TD*
G04 #@! TO.P,R16,1*
G04 #@! TO.N,/PROC_SO*
X21265000Y-5250000D03*
D12*
G04 #@! TO.N,/E_PROC_SI*
G04 #@! TO.C,R15*
G36*
X22396958Y-3930710D02*
X22411276Y-3932834D01*
X22425317Y-3936351D01*
X22438946Y-3941228D01*
X22452031Y-3947417D01*
X22464447Y-3954858D01*
X22476073Y-3963481D01*
X22486798Y-3973202D01*
X22496519Y-3983927D01*
X22505142Y-3995553D01*
X22512583Y-4007969D01*
X22518772Y-4021054D01*
X22523649Y-4034683D01*
X22527166Y-4048724D01*
X22529290Y-4063042D01*
X22530000Y-4077500D01*
X22530000Y-4422500D01*
X22529290Y-4436958D01*
X22527166Y-4451276D01*
X22523649Y-4465317D01*
X22518772Y-4478946D01*
X22512583Y-4492031D01*
X22505142Y-4504447D01*
X22496519Y-4516073D01*
X22486798Y-4526798D01*
X22476073Y-4536519D01*
X22464447Y-4545142D01*
X22452031Y-4552583D01*
X22438946Y-4558772D01*
X22425317Y-4563649D01*
X22411276Y-4567166D01*
X22396958Y-4569290D01*
X22382500Y-4570000D01*
X22087500Y-4570000D01*
X22073042Y-4569290D01*
X22058724Y-4567166D01*
X22044683Y-4563649D01*
X22031054Y-4558772D01*
X22017969Y-4552583D01*
X22005553Y-4545142D01*
X21993927Y-4536519D01*
X21983202Y-4526798D01*
X21973481Y-4516073D01*
X21964858Y-4504447D01*
X21957417Y-4492031D01*
X21951228Y-4478946D01*
X21946351Y-4465317D01*
X21942834Y-4451276D01*
X21940710Y-4436958D01*
X21940000Y-4422500D01*
X21940000Y-4077500D01*
X21940710Y-4063042D01*
X21942834Y-4048724D01*
X21946351Y-4034683D01*
X21951228Y-4021054D01*
X21957417Y-4007969D01*
X21964858Y-3995553D01*
X21973481Y-3983927D01*
X21983202Y-3973202D01*
X21993927Y-3963481D01*
X22005553Y-3954858D01*
X22017969Y-3947417D01*
X22031054Y-3941228D01*
X22044683Y-3936351D01*
X22058724Y-3932834D01*
X22073042Y-3930710D01*
X22087500Y-3930000D01*
X22382500Y-3930000D01*
X22396958Y-3930710D01*
X22396958Y-3930710D01*
G37*
D13*
G04 #@! TD*
G04 #@! TO.P,R15,2*
G04 #@! TO.N,/E_PROC_SI*
X22235000Y-4250000D03*
D12*
G04 #@! TO.N,/PROC_SI*
G04 #@! TO.C,R15*
G36*
X21426958Y-3930710D02*
X21441276Y-3932834D01*
X21455317Y-3936351D01*
X21468946Y-3941228D01*
X21482031Y-3947417D01*
X21494447Y-3954858D01*
X21506073Y-3963481D01*
X21516798Y-3973202D01*
X21526519Y-3983927D01*
X21535142Y-3995553D01*
X21542583Y-4007969D01*
X21548772Y-4021054D01*
X21553649Y-4034683D01*
X21557166Y-4048724D01*
X21559290Y-4063042D01*
X21560000Y-4077500D01*
X21560000Y-4422500D01*
X21559290Y-4436958D01*
X21557166Y-4451276D01*
X21553649Y-4465317D01*
X21548772Y-4478946D01*
X21542583Y-4492031D01*
X21535142Y-4504447D01*
X21526519Y-4516073D01*
X21516798Y-4526798D01*
X21506073Y-4536519D01*
X21494447Y-4545142D01*
X21482031Y-4552583D01*
X21468946Y-4558772D01*
X21455317Y-4563649D01*
X21441276Y-4567166D01*
X21426958Y-4569290D01*
X21412500Y-4570000D01*
X21117500Y-4570000D01*
X21103042Y-4569290D01*
X21088724Y-4567166D01*
X21074683Y-4563649D01*
X21061054Y-4558772D01*
X21047969Y-4552583D01*
X21035553Y-4545142D01*
X21023927Y-4536519D01*
X21013202Y-4526798D01*
X21003481Y-4516073D01*
X20994858Y-4504447D01*
X20987417Y-4492031D01*
X20981228Y-4478946D01*
X20976351Y-4465317D01*
X20972834Y-4451276D01*
X20970710Y-4436958D01*
X20970000Y-4422500D01*
X20970000Y-4077500D01*
X20970710Y-4063042D01*
X20972834Y-4048724D01*
X20976351Y-4034683D01*
X20981228Y-4021054D01*
X20987417Y-4007969D01*
X20994858Y-3995553D01*
X21003481Y-3983927D01*
X21013202Y-3973202D01*
X21023927Y-3963481D01*
X21035553Y-3954858D01*
X21047969Y-3947417D01*
X21061054Y-3941228D01*
X21074683Y-3936351D01*
X21088724Y-3932834D01*
X21103042Y-3930710D01*
X21117500Y-3930000D01*
X21412500Y-3930000D01*
X21426958Y-3930710D01*
X21426958Y-3930710D01*
G37*
D13*
G04 #@! TD*
G04 #@! TO.P,R15,1*
G04 #@! TO.N,/PROC_SI*
X21265000Y-4250000D03*
D12*
G04 #@! TO.N,/CSI_D2_FP_N*
G04 #@! TO.C,R14*
G36*
X17411958Y-8470710D02*
X17426276Y-8472834D01*
X17440317Y-8476351D01*
X17453946Y-8481228D01*
X17467031Y-8487417D01*
X17479447Y-8494858D01*
X17491073Y-8503481D01*
X17501798Y-8513202D01*
X17511519Y-8523927D01*
X17520142Y-8535553D01*
X17527583Y-8547969D01*
X17533772Y-8561054D01*
X17538649Y-8574683D01*
X17542166Y-8588724D01*
X17544290Y-8603042D01*
X17545000Y-8617500D01*
X17545000Y-8912500D01*
X17544290Y-8926958D01*
X17542166Y-8941276D01*
X17538649Y-8955317D01*
X17533772Y-8968946D01*
X17527583Y-8982031D01*
X17520142Y-8994447D01*
X17511519Y-9006073D01*
X17501798Y-9016798D01*
X17491073Y-9026519D01*
X17479447Y-9035142D01*
X17467031Y-9042583D01*
X17453946Y-9048772D01*
X17440317Y-9053649D01*
X17426276Y-9057166D01*
X17411958Y-9059290D01*
X17397500Y-9060000D01*
X17052500Y-9060000D01*
X17038042Y-9059290D01*
X17023724Y-9057166D01*
X17009683Y-9053649D01*
X16996054Y-9048772D01*
X16982969Y-9042583D01*
X16970553Y-9035142D01*
X16958927Y-9026519D01*
X16948202Y-9016798D01*
X16938481Y-9006073D01*
X16929858Y-8994447D01*
X16922417Y-8982031D01*
X16916228Y-8968946D01*
X16911351Y-8955317D01*
X16907834Y-8941276D01*
X16905710Y-8926958D01*
X16905000Y-8912500D01*
X16905000Y-8617500D01*
X16905710Y-8603042D01*
X16907834Y-8588724D01*
X16911351Y-8574683D01*
X16916228Y-8561054D01*
X16922417Y-8547969D01*
X16929858Y-8535553D01*
X16938481Y-8523927D01*
X16948202Y-8513202D01*
X16958927Y-8503481D01*
X16970553Y-8494858D01*
X16982969Y-8487417D01*
X16996054Y-8481228D01*
X17009683Y-8476351D01*
X17023724Y-8472834D01*
X17038042Y-8470710D01*
X17052500Y-8470000D01*
X17397500Y-8470000D01*
X17411958Y-8470710D01*
X17411958Y-8470710D01*
G37*
D13*
G04 #@! TD*
G04 #@! TO.P,R14,2*
G04 #@! TO.N,/CSI_D2_FP_N*
X17225000Y-8765000D03*
D12*
G04 #@! TO.N,/CSI_D2_FP_P*
G04 #@! TO.C,R14*
G36*
X17411958Y-9440710D02*
X17426276Y-9442834D01*
X17440317Y-9446351D01*
X17453946Y-9451228D01*
X17467031Y-9457417D01*
X17479447Y-9464858D01*
X17491073Y-9473481D01*
X17501798Y-9483202D01*
X17511519Y-9493927D01*
X17520142Y-9505553D01*
X17527583Y-9517969D01*
X17533772Y-9531054D01*
X17538649Y-9544683D01*
X17542166Y-9558724D01*
X17544290Y-9573042D01*
X17545000Y-9587500D01*
X17545000Y-9882500D01*
X17544290Y-9896958D01*
X17542166Y-9911276D01*
X17538649Y-9925317D01*
X17533772Y-9938946D01*
X17527583Y-9952031D01*
X17520142Y-9964447D01*
X17511519Y-9976073D01*
X17501798Y-9986798D01*
X17491073Y-9996519D01*
X17479447Y-10005142D01*
X17467031Y-10012583D01*
X17453946Y-10018772D01*
X17440317Y-10023649D01*
X17426276Y-10027166D01*
X17411958Y-10029290D01*
X17397500Y-10030000D01*
X17052500Y-10030000D01*
X17038042Y-10029290D01*
X17023724Y-10027166D01*
X17009683Y-10023649D01*
X16996054Y-10018772D01*
X16982969Y-10012583D01*
X16970553Y-10005142D01*
X16958927Y-9996519D01*
X16948202Y-9986798D01*
X16938481Y-9976073D01*
X16929858Y-9964447D01*
X16922417Y-9952031D01*
X16916228Y-9938946D01*
X16911351Y-9925317D01*
X16907834Y-9911276D01*
X16905710Y-9896958D01*
X16905000Y-9882500D01*
X16905000Y-9587500D01*
X16905710Y-9573042D01*
X16907834Y-9558724D01*
X16911351Y-9544683D01*
X16916228Y-9531054D01*
X16922417Y-9517969D01*
X16929858Y-9505553D01*
X16938481Y-9493927D01*
X16948202Y-9483202D01*
X16958927Y-9473481D01*
X16970553Y-9464858D01*
X16982969Y-9457417D01*
X16996054Y-9451228D01*
X17009683Y-9446351D01*
X17023724Y-9442834D01*
X17038042Y-9440710D01*
X17052500Y-9440000D01*
X17397500Y-9440000D01*
X17411958Y-9440710D01*
X17411958Y-9440710D01*
G37*
D13*
G04 #@! TD*
G04 #@! TO.P,R14,1*
G04 #@! TO.N,/CSI_D2_FP_P*
X17225000Y-9735000D03*
D12*
G04 #@! TO.N,/CSI_D1_FP_N*
G04 #@! TO.C,R12*
G36*
X17411958Y-6690710D02*
X17426276Y-6692834D01*
X17440317Y-6696351D01*
X17453946Y-6701228D01*
X17467031Y-6707417D01*
X17479447Y-6714858D01*
X17491073Y-6723481D01*
X17501798Y-6733202D01*
X17511519Y-6743927D01*
X17520142Y-6755553D01*
X17527583Y-6767969D01*
X17533772Y-6781054D01*
X17538649Y-6794683D01*
X17542166Y-6808724D01*
X17544290Y-6823042D01*
X17545000Y-6837500D01*
X17545000Y-7132500D01*
X17544290Y-7146958D01*
X17542166Y-7161276D01*
X17538649Y-7175317D01*
X17533772Y-7188946D01*
X17527583Y-7202031D01*
X17520142Y-7214447D01*
X17511519Y-7226073D01*
X17501798Y-7236798D01*
X17491073Y-7246519D01*
X17479447Y-7255142D01*
X17467031Y-7262583D01*
X17453946Y-7268772D01*
X17440317Y-7273649D01*
X17426276Y-7277166D01*
X17411958Y-7279290D01*
X17397500Y-7280000D01*
X17052500Y-7280000D01*
X17038042Y-7279290D01*
X17023724Y-7277166D01*
X17009683Y-7273649D01*
X16996054Y-7268772D01*
X16982969Y-7262583D01*
X16970553Y-7255142D01*
X16958927Y-7246519D01*
X16948202Y-7236798D01*
X16938481Y-7226073D01*
X16929858Y-7214447D01*
X16922417Y-7202031D01*
X16916228Y-7188946D01*
X16911351Y-7175317D01*
X16907834Y-7161276D01*
X16905710Y-7146958D01*
X16905000Y-7132500D01*
X16905000Y-6837500D01*
X16905710Y-6823042D01*
X16907834Y-6808724D01*
X16911351Y-6794683D01*
X16916228Y-6781054D01*
X16922417Y-6767969D01*
X16929858Y-6755553D01*
X16938481Y-6743927D01*
X16948202Y-6733202D01*
X16958927Y-6723481D01*
X16970553Y-6714858D01*
X16982969Y-6707417D01*
X16996054Y-6701228D01*
X17009683Y-6696351D01*
X17023724Y-6692834D01*
X17038042Y-6690710D01*
X17052500Y-6690000D01*
X17397500Y-6690000D01*
X17411958Y-6690710D01*
X17411958Y-6690710D01*
G37*
D13*
G04 #@! TD*
G04 #@! TO.P,R12,2*
G04 #@! TO.N,/CSI_D1_FP_N*
X17225000Y-6985000D03*
D12*
G04 #@! TO.N,/CSI_D1_FP_P*
G04 #@! TO.C,R12*
G36*
X17411958Y-5720710D02*
X17426276Y-5722834D01*
X17440317Y-5726351D01*
X17453946Y-5731228D01*
X17467031Y-5737417D01*
X17479447Y-5744858D01*
X17491073Y-5753481D01*
X17501798Y-5763202D01*
X17511519Y-5773927D01*
X17520142Y-5785553D01*
X17527583Y-5797969D01*
X17533772Y-5811054D01*
X17538649Y-5824683D01*
X17542166Y-5838724D01*
X17544290Y-5853042D01*
X17545000Y-5867500D01*
X17545000Y-6162500D01*
X17544290Y-6176958D01*
X17542166Y-6191276D01*
X17538649Y-6205317D01*
X17533772Y-6218946D01*
X17527583Y-6232031D01*
X17520142Y-6244447D01*
X17511519Y-6256073D01*
X17501798Y-6266798D01*
X17491073Y-6276519D01*
X17479447Y-6285142D01*
X17467031Y-6292583D01*
X17453946Y-6298772D01*
X17440317Y-6303649D01*
X17426276Y-6307166D01*
X17411958Y-6309290D01*
X17397500Y-6310000D01*
X17052500Y-6310000D01*
X17038042Y-6309290D01*
X17023724Y-6307166D01*
X17009683Y-6303649D01*
X16996054Y-6298772D01*
X16982969Y-6292583D01*
X16970553Y-6285142D01*
X16958927Y-6276519D01*
X16948202Y-6266798D01*
X16938481Y-6256073D01*
X16929858Y-6244447D01*
X16922417Y-6232031D01*
X16916228Y-6218946D01*
X16911351Y-6205317D01*
X16907834Y-6191276D01*
X16905710Y-6176958D01*
X16905000Y-6162500D01*
X16905000Y-5867500D01*
X16905710Y-5853042D01*
X16907834Y-5838724D01*
X16911351Y-5824683D01*
X16916228Y-5811054D01*
X16922417Y-5797969D01*
X16929858Y-5785553D01*
X16938481Y-5773927D01*
X16948202Y-5763202D01*
X16958927Y-5753481D01*
X16970553Y-5744858D01*
X16982969Y-5737417D01*
X16996054Y-5731228D01*
X17009683Y-5726351D01*
X17023724Y-5722834D01*
X17038042Y-5720710D01*
X17052500Y-5720000D01*
X17397500Y-5720000D01*
X17411958Y-5720710D01*
X17411958Y-5720710D01*
G37*
D13*
G04 #@! TD*
G04 #@! TO.P,R12,1*
G04 #@! TO.N,/CSI_D1_FP_P*
X17225000Y-6015000D03*
D14*
G04 #@! TO.P,TP17,1*
G04 #@! TO.N,/SYS_CLK*
X16850000Y-2790800D03*
G04 #@! TD*
D15*
G04 #@! TO.N,/LED3_ISINK*
X12870000Y-11750000D03*
G04 #@! TO.N,/LED1_ISINK*
X12170000Y-12390000D03*
G04 #@! TO.N,Net-(U1-PadM3)*
X11400000Y-11750000D03*
G04 #@! TO.N,/TMS*
X13600000Y-11750000D03*
G04 #@! TO.N,/VSENSE*
X12160000Y-11750000D03*
G04 #@! TO.N,/LED2_ISINK*
X12830000Y-12390000D03*
G04 #@! TO.N,/EXTCLK_EN*
X10868367Y-11750000D03*
G04 #@! TO.N,/TDO*
X14131917Y-11750000D03*
G04 #@! TO.N,/CSI_CLK_IN_P*
X8375545Y-9734455D03*
G04 #@! TO.N,/CSI_CLK_IN_N*
X8764455Y-9345545D03*
G04 #@! TO.N,Net-(U1-PadD8)*
X14125000Y-8205000D03*
G04 #@! TO.N,/ULPM_WAKE*
X10875000Y-8220000D03*
G04 #@! TO.N,/CSI_INT*
X13475000Y-8200000D03*
G04 #@! TO.N,/CTRL_OUT*
X11870000Y-4510000D03*
G04 #@! TO.N,/PROC_SCK*
X12175000Y-7525000D03*
G04 #@! TO.N,/MIPI_SEL*
X12850000Y-8225000D03*
G04 #@! TO.N,/PROC_SI*
X12825000Y-7525000D03*
G04 #@! TO.N,/PROC_OUT_0*
X10412988Y-4893263D03*
G04 #@! TO.N,/USB_DET*
X11377176Y-4309597D03*
G04 #@! TO.N,/PIO1*
X11475000Y-8215000D03*
G04 #@! TO.N,/CTRL_RST*
X12175000Y-8210000D03*
G04 #@! TO.N,/PIO2*
X10600000Y-4390000D03*
G04 #@! TO.N,/PROC_RST*
X11120000Y-4820000D03*
G04 #@! TO.N,/PROC_SO*
X12650000Y-4820000D03*
G04 #@! TD*
D12*
G04 #@! TO.N,GND*
X10225000Y-13825000D02*
X10160000Y-13890000D01*
X10225000Y-13575000D02*
X10225000Y-13825000D01*
X10160000Y-13890000D02*
X8490000Y-13890000D01*
X16475000Y-14880000D02*
X16400000Y-14880000D01*
X17150000Y-14205000D02*
X16475000Y-14880000D01*
X17865832Y-14539168D02*
X17840832Y-14539168D01*
X18200000Y-14205000D02*
X17865832Y-14539168D01*
X17840832Y-14539168D02*
X17000000Y-15380000D01*
G04 #@! TO.N,/3V3_SYS*
X9325000Y-6425000D02*
X9320000Y-6430000D01*
X9575000Y-6425000D02*
X9325000Y-6425000D01*
X9320000Y-6430000D02*
X8890000Y-6430000D01*
G04 #@! TO.N,Net-(U1-PadN1)*
X9325000Y-13575000D02*
X9320000Y-13580000D01*
X9575000Y-13575000D02*
X9325000Y-13575000D01*
X9320000Y-13580000D02*
X8510000Y-13580000D01*
G04 #@! TO.N,/LED3_ISINK*
X13475000Y-12245000D02*
X13040000Y-11810000D01*
X13475000Y-12925000D02*
X13475000Y-12245000D01*
G04 #@! TO.N,/LED1_ISINK*
X12175000Y-12395000D02*
X12170000Y-12390000D01*
X12175000Y-12925000D02*
X12175000Y-12395000D01*
G04 #@! TO.N,Net-(U1-PadM3)*
X10875000Y-12925000D02*
X11310000Y-12490000D01*
X11310000Y-11880000D02*
X11400000Y-11790000D01*
X11310000Y-12490000D02*
X11310000Y-11880000D01*
G04 #@! TO.N,/TMS*
X13828499Y-12028499D02*
X13600000Y-11800000D01*
X14125000Y-12925000D02*
X13875000Y-12925000D01*
X13828499Y-12878499D02*
X13828499Y-12028499D01*
X13875000Y-12925000D02*
X13828499Y-12878499D01*
G04 #@! TO.N,/VSENSE*
X11525000Y-12675000D02*
X11530000Y-12670000D01*
X11525000Y-12925000D02*
X11525000Y-12675000D01*
X11530000Y-12670000D02*
X11530000Y-12260000D01*
X11970000Y-11820000D02*
X11970000Y-11810000D01*
X11530000Y-12260000D02*
X11970000Y-11820000D01*
G04 #@! TO.N,Net-(U1-PadM2)*
X10225000Y-13175000D02*
X10150000Y-13250000D01*
X10225000Y-12925000D02*
X10225000Y-13175000D01*
X10150000Y-13250000D02*
X8470000Y-13250000D01*
G04 #@! TO.N,/LED2_ISINK*
X12825000Y-12375000D02*
X12830000Y-12370000D01*
X12825000Y-12925000D02*
X12825000Y-12375000D01*
G04 #@! TO.N,/EXTCLK_EN*
X10875000Y-11776572D02*
X10868367Y-11769939D01*
X10875000Y-12275000D02*
X10875000Y-11776572D01*
G04 #@! TO.N,/TDO*
X14125000Y-11796881D02*
X14131917Y-11789964D01*
X14125000Y-12275000D02*
X14125000Y-11796881D01*
G04 #@! TO.N,/CSI_D2_FP_P*
X16080000Y-9735000D02*
X15695000Y-9350000D01*
X14850000Y-9350000D02*
X14775000Y-9425000D01*
X14775000Y-9425000D02*
X14775000Y-9675000D01*
X15695000Y-9350000D02*
X14850000Y-9350000D01*
X16400000Y-9735000D02*
X17225000Y-9735000D01*
X16500000Y-9735000D02*
X16400000Y-9735000D01*
X16400000Y-9735000D02*
X16080000Y-9735000D01*
G04 #@! TO.N,/CSI_CLK_IN_P*
X8637175Y-9734455D02*
X8375545Y-9734455D01*
X8757720Y-9855000D02*
X8637175Y-9734455D01*
X9260001Y-9950001D02*
X9165000Y-9855000D01*
X9949999Y-9950001D02*
X9260001Y-9950001D01*
X10225000Y-9675000D02*
X9949999Y-9950001D01*
X9165000Y-9855000D02*
X8757720Y-9855000D01*
G04 #@! TO.N,/CSI_CLK_IN_N*
X8832280Y-9675000D02*
X8764455Y-9607175D01*
X8764455Y-9607175D02*
X8764455Y-9345545D01*
X9575000Y-9675000D02*
X8832280Y-9675000D01*
D16*
G04 #@! TO.N,/CSI_D2_FP_N*
X15435000Y-9015000D02*
X15425000Y-9025000D01*
D12*
X16240000Y-9025000D02*
X16500000Y-8765000D01*
X15425000Y-9025000D02*
X16240000Y-9025000D01*
X16500000Y-8765000D02*
X17225000Y-8765000D01*
D16*
G04 #@! TO.N,Net-(U1-PadD8)*
X14125000Y-7725000D02*
X14125000Y-8200000D01*
D12*
X14125000Y-7725000D02*
X14125000Y-8205000D01*
D16*
G04 #@! TO.N,/ULPM_WAKE*
X10875000Y-7725000D02*
X10875000Y-8225000D01*
D12*
X10875000Y-7725000D02*
X10875000Y-8220000D01*
G04 #@! TO.N,/2V5_SYS*
X9325000Y-7725000D02*
X9320000Y-7730000D01*
X9575000Y-7725000D02*
X9325000Y-7725000D01*
X9320000Y-7730000D02*
X8790000Y-7730000D01*
G04 #@! TO.N,/CSI_CLK_FP_P*
X10225000Y-7475000D02*
X10170000Y-7420000D01*
X10225000Y-7725000D02*
X10225000Y-7475000D01*
X10170000Y-7420000D02*
X8930000Y-7420000D01*
G04 #@! TO.N,/CSI_INT*
X13475000Y-8075000D02*
X13600000Y-7950000D01*
X13475000Y-8200000D02*
X13475000Y-8075000D01*
D16*
X13600000Y-7950000D02*
X13450000Y-8100000D01*
D12*
X13875000Y-7075000D02*
X14125000Y-7075000D01*
X13775000Y-7175000D02*
X13875000Y-7075000D01*
X13775000Y-7775000D02*
X13775000Y-7175000D01*
X13600000Y-7950000D02*
X13775000Y-7775000D01*
G04 #@! TO.N,/CSI_D1_FP_P*
X14775000Y-6825000D02*
X14850000Y-6750000D01*
X14775000Y-7075000D02*
X14775000Y-6825000D01*
D16*
X15125000Y-6750000D02*
X15765000Y-6750000D01*
D12*
X14850000Y-6750000D02*
X15050000Y-6750000D01*
X15050000Y-6750000D02*
X15765000Y-6750000D01*
X15050000Y-6750000D02*
X15125000Y-6750000D01*
X15765000Y-6750000D02*
X16500000Y-6015000D01*
X16500000Y-6015000D02*
X17225000Y-6015000D01*
G04 #@! TO.N,/CTRL_OUT*
X11850000Y-4530000D02*
X11870000Y-4510000D01*
X11850000Y-6030000D02*
X11850000Y-4530000D01*
X11525000Y-6355000D02*
X11850000Y-6030000D01*
X11525000Y-6425000D02*
X11525000Y-6355000D01*
G04 #@! TO.N,/VPLL_A*
X10225000Y-6825000D02*
X10130000Y-6730000D01*
X10225000Y-7075000D02*
X10225000Y-6825000D01*
X10130000Y-6730000D02*
X8810000Y-6730000D01*
G04 #@! TO.N,/CSI_D1_FP_N*
X16410000Y-7075000D02*
X16500000Y-6985000D01*
X15425000Y-7075000D02*
X16410000Y-7075000D01*
X16500000Y-6985000D02*
X17225000Y-6985000D01*
D16*
G04 #@! TO.N,/PROC_SCK*
X12175000Y-7075000D02*
X12175000Y-7525000D01*
G04 #@! TO.N,/MIPI_SEL*
X12850000Y-8100000D02*
X12825000Y-8100000D01*
D12*
X13475000Y-7325000D02*
X13475000Y-7475000D01*
X13475000Y-7075000D02*
X13475000Y-7325000D01*
X13475000Y-7600000D02*
X12850000Y-8225000D01*
X13475000Y-7475000D02*
X13475000Y-7600000D01*
D16*
G04 #@! TO.N,/PROC_SI*
X12825000Y-7075000D02*
X12825000Y-7525000D01*
D12*
G04 #@! TO.N,/PROC_OUT_0*
X10412988Y-5216410D02*
X10412988Y-4893263D01*
X10570000Y-5373422D02*
X10412988Y-5216410D01*
X10475000Y-6425000D02*
X10570000Y-6330000D01*
X10225000Y-6425000D02*
X10475000Y-6425000D01*
X10570000Y-6330000D02*
X10570000Y-5373422D01*
G04 #@! TO.N,/USB_DET*
X11377176Y-4553992D02*
X11377176Y-4309597D01*
X11525000Y-5775000D02*
X11525000Y-4701816D01*
X11525000Y-4701816D02*
X11377176Y-4553992D01*
G04 #@! TO.N,/CTRL_SS*
X9575000Y-7075000D02*
X8805000Y-7075000D01*
D16*
G04 #@! TO.N,/PIO1*
X11450000Y-8100000D02*
X11450000Y-8125000D01*
D12*
X11475000Y-8100000D02*
X11475000Y-8215000D01*
X10875000Y-7075000D02*
X11125000Y-7075000D01*
X11200000Y-7150000D02*
X11200000Y-7825000D01*
X11200000Y-7825000D02*
X11475000Y-8100000D01*
X11125000Y-7075000D02*
X11200000Y-7150000D01*
G04 #@! TO.N,/CTRL_RST*
X11525000Y-7560000D02*
X12175000Y-8210000D01*
X11525000Y-7075000D02*
X11525000Y-7560000D01*
G04 #@! TO.N,/VPLL_B*
X13170000Y-5180000D02*
X13170000Y-3485000D01*
X12825000Y-5525000D02*
X13170000Y-5180000D01*
X12825000Y-5775000D02*
X12825000Y-5525000D01*
G04 #@! TO.N,/1V2_SYS_B*
X12175000Y-5775000D02*
X12223502Y-5726498D01*
X12223502Y-4630000D02*
X12223502Y-4008502D01*
X12223502Y-5726498D02*
X12223502Y-4630000D01*
X12223502Y-4008502D02*
X11750000Y-3535000D01*
X12223502Y-4630000D02*
X12223502Y-4496498D01*
G04 #@! TO.N,/PIO2*
X10766498Y-4556498D02*
X10600000Y-4390000D01*
X10766498Y-5416498D02*
X10766498Y-4556498D01*
X10875000Y-5775000D02*
X10875000Y-5525000D01*
X10875000Y-5525000D02*
X10766498Y-5416498D01*
G04 #@! TO.N,/PROC_RST*
X11125000Y-6425000D02*
X11180000Y-6370000D01*
X10875000Y-6425000D02*
X11125000Y-6425000D01*
X11180000Y-4880000D02*
X11120000Y-4820000D01*
X11180000Y-5200000D02*
X11180000Y-4880000D01*
X11180000Y-6370000D02*
X11180000Y-5200000D01*
X11180000Y-5200000D02*
X11180000Y-5050000D01*
G04 #@! TO.N,/PROC_SO*
X12175000Y-6425000D02*
X12175000Y-6405000D01*
X12175000Y-6405000D02*
X12500000Y-6080000D01*
X12500000Y-6080000D02*
X12500000Y-5130000D01*
X12500000Y-4970000D02*
X12650000Y-4820000D01*
X12500000Y-5130000D02*
X12500000Y-4970000D01*
G04 #@! TD*
M02*
