M48
;DRILL file {KiCad 5.0.2+dfsg1-1~bpo9+1} date Thu 24 Oct 2019 02:32:08 PM CEST
;FORMAT={-:-/ absolute / metric / decimal}
FMAT,2
METRIC,TZ
T1C0.200
%
G90
G05
T1
X0.88Y-2.5
X0.99Y-18.54
X1.78Y-18.541
X1.815Y-5.628
X1.856Y-6.185
X1.856Y-6.72
X1.856Y-7.319
X1.892Y-8.096
X1.892Y-9.19
X1.9Y-9.75
X1.92Y-10.86
X1.92Y-13.15
X1.98Y-10.31
X2.Y-2.92
X2.21Y-15.77
X2.39Y-12.8
X2.39Y-13.48
X2.4Y-11.57
X2.4Y-12.19
X2.421Y-8.035
X2.451Y-9.99
X2.451Y-14.04
X2.451Y-14.98
X2.583Y-6.77
X2.72Y-18.541
X2.78Y-16.66
X2.84Y-19.448
X2.97Y-7.22
X3.Y-5.85
X3.04Y-6.46
X3.273Y-8.78
X3.303Y-8.228
X3.39Y-7.65
X3.42Y-5.42
X3.5Y-3.02
X3.6Y-18.43
X3.85Y-2.12
X3.9Y-7.97
X3.926Y-5.18
X3.95Y-14.05
X3.963Y-11.16
X3.983Y-10.593
X4.08Y-3.89
X4.138Y-12.462
X4.2Y-2.591
X4.232Y-11.908
X4.238Y-14.828
X4.247Y-9.5
X4.41Y-15.54
X4.48Y-7.982
X4.5Y-6.49
X4.685Y-10.605
X4.685Y-12.305
X4.708Y-15.981
X4.71Y-3.89
X4.795Y-14.828
X4.853Y-9.5
X4.906Y-15.349
X5.115Y-11.035
X5.115Y-12.735
X5.15Y-16.28
X5.325Y-3.92
X5.459Y-8.151
X5.605Y-12.47
X5.649Y-13.038
X6.58Y-1.17
X7.505Y-10.445
X7.53Y-2.27
X7.583Y-17.283
X7.627Y-6.92
X7.645Y-17.812
X7.66Y-5.49
X7.935Y-10.015
X8.02Y-2.587
X8.11Y-14.34
X8.2Y-15.92
X8.3Y-13.79
X8.335Y-9.555
X8.388Y-12.787
X8.397Y-17.377
X8.41Y-19.468
X8.484Y-12.264
X8.6Y-6.809
X8.63Y-2.11
X8.63Y-7.34
X8.728Y-13.207
X8.765Y-9.125
X8.95Y-13.69
X9.079Y-5.371
X9.095Y-17.77
X9.12Y-2.32
X9.33Y-4.89
X9.41Y-16.482
X9.524Y-14.76
X9.64Y-2.15
X9.87Y-4.91
X10.413Y-4.893
X10.46Y-1.1
X10.5Y-15.12
X10.6Y-4.39
X10.868Y-11.75
X10.875Y-8.22
X11.02Y-15.35
X11.22Y-1.36
X11.377Y-4.31
X11.475Y-8.215
X11.5Y-11.75
X11.65Y-1.82
X11.7Y-17.054
X11.745Y-14.925
X11.87Y-4.51
X11.9Y-19.468
X12.16Y-11.75
X12.17Y-12.39
X12.175Y-15.355
X12.175Y-7.525
X12.175Y-8.21
X12.33Y-17.32
X12.46Y-1.95
X12.493Y-16.763
X12.596Y-4.82
X12.685Y-15.205
X12.756Y-12.476
X12.825Y-7.525
X12.84Y-11.81
X12.85Y-8.225
X13.115Y-15.635
X13.15Y-1.82
X13.17Y-14.86
X13.34Y-4.1
X13.343Y-12.477
X13.475Y-8.2
X13.48Y-5.22
X13.65Y-19.56
X13.68Y-4.61
X13.69Y-11.78
X14.125Y-8.205
X14.15Y-1.82
X14.15Y-17.57
X14.19Y-16.93
X14.31Y-4.21
X14.321Y-11.77
X14.46Y-4.828
X14.695Y-15.415
X14.896Y-5.154
X15.02Y-4.09
X15.125Y-14.985
X15.4Y-4.52
X15.4Y-17.57
X15.555Y-15.415
X15.762Y-3.109
X15.85Y-5.21
X15.93Y-2.16
X15.985Y-14.985
X16.045Y-11.875
X16.06Y-17.674
X16.169Y-16.966
X16.195Y-10.505
X16.31Y-9.226
X16.376Y-7.883
X16.46Y-8.423
X16.46Y-14.38
X16.475Y-11.445
X16.57Y-7.02
X16.625Y-10.075
X16.71Y-17.66
X16.901Y-3.593
X16.943Y-7.627
X17.09Y-14.38
X17.14Y-5.35
X17.177Y-16.347
X17.61Y-4.84
X17.654Y-10.9
X18.04Y-16.907
X18.225Y-2.922
X19.Y-2.52
X19.29Y-0.62
X19.44Y-9.75
X19.525Y-8.295
X19.545Y-5.545
X19.65Y-4.82
X19.83Y-4.22
X19.92Y-0.8
X19.975Y-5.975
X20.02Y-15.98
X20.09Y-15.34
X20.12Y-10.266
X20.12Y-10.873
X20.14Y-11.45
X20.16Y-12.11
X20.166Y-13.022
X20.23Y-8.25
X20.32Y-9.58
X20.4Y-3.57
X20.4Y-4.57
X20.93Y-7.92
X20.96Y-13.66
X21.13Y-16.39
X21.225Y-2.945
X21.38Y-7.47
X21.42Y-8.3
X21.59Y-13.68
X21.63Y-14.38
X21.79Y-8.79
X22.025Y-7.32
X22.22Y-2.44
X22.22Y-13.63
X22.35Y-7.98
X22.354Y-8.566
X22.54Y-14.74
X22.56Y-4.69
X22.61Y-7.47
X22.63Y-0.96
X22.7Y-6.91
X22.71Y-3.69
X22.75Y-6.24
X22.87Y-12.56
X22.89Y-9.77
X22.9Y-9.11
X22.92Y-8.5
X22.964Y-10.49
X10.95Y-8.85
X10.95Y-10.
X10.95Y-11.15
X11.85Y-8.85
X11.9Y-10.
X11.9Y-11.15
X13.1Y-8.85
X13.1Y-10.
X13.1Y-11.15
X14.05Y-8.85
X14.05Y-10.
X14.05Y-11.15
T0
M30
